<!-- Generated by IcoMoon.io -->
<svg version="1.1" xmlns="http://www.w3.org/2000/svg" width="27" height="32" viewBox="0 0 27 32">
<title>10e</title>
<path fill="#444" d="M26.371 26.131c-0.338-0.676-1.352-0.676-2.025-0.845-0.676-0.169-1.014-0.507-7.769-9.287 6.755-8.78 7.093-9.117 7.769-9.287 0.674-0.169 1.687-0.169 2.025-0.844h-8.442c0 0.338 0 0.676-0.256 1.265-0.251 0.591-0.758 1.436-4.474 6.164-3.712-4.728-4.219-5.572-4.473-6.164-0.253-0.589-0.253-0.927-0.253-1.265h-8.444c0.338 0.676 1.351 0.676 2.027 0.844 0.674 0.169 1.014 0.507 7.766 9.287-6.753 8.78-7.093 9.118-7.766 9.287-0.676 0.169-1.689 0.169-2.027 0.845h8.444c0-0.338 0-0.676 0.253-1.267s0.76-1.434 4.473-6.164c3.716 4.73 4.223 5.572 4.474 6.164 0.256 0.591 0.256 0.929 0.256 1.267h8.442z"></path>
</svg>
