<!-- Generated by IcoMoon.io -->
<svg version="1.1" xmlns="http://www.w3.org/2000/svg" width="32" height="32" viewBox="0 0 32 32">
<title>2ed</title>
<path fill="#444" d="M22.848 2.6c0 0 1.688 0.18 1.688 1.926l6.267 1.748c0 0 1.565 0.601 1.081 2.649l-5.179 19.334c0 0-1.085 1.447-2.349 1.084l-8.355-2.298-8.359 2.298c-1.264 0.363-2.349-1.084-2.349-1.084l-5.179-19.334c-0.483-2.049 1.084-2.649 1.084-2.649l6.264-1.748c0-1.745 1.686-1.926 1.686-1.926h13.7zM22.794 3.321h-13.589c-0.080 0.014-0.32 0.068-0.549 0.22-0.32 0.214-0.472 0.526-0.472 0.984v0.549c0 0-6.647 1.855-6.744 1.88-0.172 0.083-0.696 0.395-0.696 1.227 0 0.169 0.023 0.358 0.072 0.573 0.012 0.034 5.054 18.859 5.136 19.162 0.221 0.252 0.875 0.907 1.494 0.73l8.556-2.352 8.552 2.352c0.618 0.177 1.271-0.478 1.494-0.73 0.084-0.303 5.128-19.128 5.136-19.162 0.048-0.215 0.072-0.404 0.072-0.573 0-0.832-0.524-1.144-0.695-1.227-0.097-0.026-6.747-1.88-6.747-1.88v-0.549c0-0.458-0.149-0.77-0.47-0.984-0.226-0.152-0.47-0.207-0.549-0.22v0zM8.041 6.071v18.592c0 0 0.158 1.208 1.125 1.208h5.218l-6.987 1.926c0 0-0.4 0.2-0.604-0.24l-5.138-19.074c0 0-0.201-0.604 0.28-0.764l6.106-1.648zM23.962 6.031l6.103 1.648c0.48 0.16 0.281 0.761 0.281 0.761l-5.142 19.077c-0.2 0.441-0.601 0.24-0.601 0.24l-6.987-1.929h5.222c0.961 0 1.124-1.204 1.124-1.204v-18.593zM22.737 4.225c0.284 0 0.32 0.36 0.32 0.36l-0 19.998c0 0.324-0.32 0.404-0.32 0.404h-13.451c-0.284 0-0.284-0.404-0.284-0.404v-19.998c0-0.24 0.284-0.36 0.284-0.36h13.451zM20.138 8.856c-0.263 0-0.65 0.037-1.159 0.112s-0.801 0.129-0.876 0.163c-0.074 0.034-0.112 0.080-0.112 0.137 0 0.069 0.123 0.22 0.369 0.455s0.395 0.446 0.446 0.635c0.052 0.189 0.083 0.341 0.095 0.455s0.017 0.275 0.017 0.481v0.361c0 0.263 0.009 0.575 0.026 0.936s0.051 0.81 0.103 1.348c0.052 0.538 0.077 1.070 0.077 1.597-0 0.63-0.034 1.151-0.103 1.563s-0.172 0.784-0.309 1.116c-0.275 0.492-0.675 0.844-1.202 1.056s-1.070 0.318-1.631 0.318c-0.16 0-0.558-0.037-1.193-0.112s-1.122-0.575-1.46-1.503c-0.338-0.927-0.507-2.335-0.507-4.224 0-0.343 0.003-0.687 0.009-1.030s0.009-0.693 0.009-1.047c0.012-0.32 0.023-0.658 0.034-1.013s0.017-0.704 0.017-1.047-0.049-0.538-0.146-0.584c-0.097-0.046-0.192-0.069-0.283-0.069-0.366 0.080-0.744 0.155-1.133 0.223s-0.864 0.103-1.425 0.103c0 0.24 0.18 0.458 0.541 0.652s0.575 0.444 0.644 0.747c0.069 0.303 0.109 0.538 0.12 0.704s0.017 0.65 0.017 1.451v1.906c0 1.602 0.086 2.77 0.258 3.503s0.446 1.282 0.824 1.648c0.378 0.366 0.747 0.627 1.107 0.781s0.747 0.232 1.159 0.232c0.641-0.092 1.23-0.172 1.768-0.241s1.039-0.281 1.502-0.635 0.89-0.71 1.279-1.064c0.172-0.034 0.335 0.123 0.489 0.472s0.358 0.609 0.609 0.781 0.444 0.278 0.575 0.318c0.132 0.040 0.278 0.060 0.438 0.060 0.275 0 0.512-0.069 0.712-0.206s0.318-0.281 0.352-0.429c-0.721-0.229-1.179-0.615-1.373-1.159s-0.292-1.399-0.292-2.567v-6.113c0-0.744-0.037-1.142-0.112-1.193s-0.169-0.077-0.283-0.077z"></path>
</svg>
