<!-- Generated by IcoMoon.io -->
<svg version="1.1" xmlns="http://www.w3.org/2000/svg" width="32" height="32" viewBox="0 0 32 32">
<title>2x2</title>
<path fill="#444" d="M9.459 11.338c2.181-2.213 4.36-4.429 6.54-6.644 2.181 2.215 4.362 4.43 6.541 6.646-3.059 3.107-6.118 6.213-9.176 9.321 0.878 0.893 1.756 1.787 2.637 2.678 0.878-0.893 1.757-1.785 2.636-2.678-0.684-0.695-1.367-1.391-2.051-2.086 0.65-0.661 1.301-1.321 1.951-1.983 1.335 1.356 2.67 2.712 4.004 4.069-2.18 2.216-4.361 4.43-6.541 6.645-2.181-2.214-4.36-4.43-6.541-6.644 3.057-3.11 6.119-6.214 9.177-9.323-0.878-0.893-1.756-1.786-2.636-2.678-0.88 0.892-1.757 1.786-2.637 2.678 0.686 0.694 1.369 1.391 2.054 2.086-0.651 0.661-1.303 1.322-1.954 1.982-1.334-1.357-2.671-2.711-4.004-4.070zM9.198 5.554c-1.284 0.514-2.54 1.111-3.704 1.862-2.252 1.433-4.17 3.405-5.493 5.724 0.097-0.051 0.205-0.076 0.307-0.114 1.218-0.417 2.433-0.841 3.652-1.254 1.385 1.41 2.773 2.818 4.16 4.227-1.384 1.411-2.775 2.815-4.157 4.228-1.324-0.443-2.642-0.908-3.964-1.358 0.505 0.864 1.080 1.687 1.73 2.448 1.031 1.214 2.244 2.27 3.574 3.144 1.262 0.838 2.638 1.489 4.044 2.047-0.262-0.349-0.425-0.775-0.433-1.213-0.016-0.517 0.169-1.039 0.514-1.426 0.343-0.392 0.844-0.635 1.362-0.671-0.833-0.845-1.666-1.691-2.499-2.537 1.529-1.553 3.058-3.107 4.587-4.66-1.529-1.554-3.058-3.107-4.587-4.661 0.83-0.847 1.665-1.69 2.495-2.537-0.833-0.051-1.575-0.681-1.794-1.481-0.164-0.563-0.067-1.194 0.256-1.683 0.038-0.045 0.055-0.121 0.122-0.131-0.060-0.033-0.116 0.033-0.174 0.046zM22.652 5.493c0.162 0.222 0.294 0.467 0.362 0.734 0.182 0.655 0.012 1.396-0.441 1.903-0.342 0.392-0.842 0.635-1.36 0.673 0.83 0.847 1.664 1.69 2.494 2.537-1.529 1.554-3.059 3.106-4.586 4.661 1.529 1.554 3.058 3.107 4.588 4.66-0.833 0.845-1.666 1.691-2.5 2.537 0.373 0.027 0.737 0.159 1.037 0.383 0.525 0.383 0.849 1.025 0.839 1.676 0 0.451-0.164 0.893-0.434 1.252 1.202-0.481 2.385-1.019 3.491-1.697 1.306-0.792 2.513-1.752 3.562-2.863 0.881-0.932 1.653-1.968 2.296-3.079-1.322 0.451-2.639 0.914-3.962 1.358-1.384-1.411-2.772-2.818-4.159-4.227 1.386-1.41 2.775-2.817 4.16-4.228 1.323 0.446 2.64 0.908 3.961 1.359-1.277-2.217-3.083-4.122-5.216-5.534-1.287-0.866-2.693-1.534-4.132-2.105z"></path>
</svg>
