<!-- Generated by IcoMoon.io -->
<svg version="1.1" xmlns="http://www.w3.org/2000/svg" width="32" height="32" viewBox="0 0 32 32">
<title>2xm</title>
<path fill="#444" d="M0.078 16.486c0.136 0.163 0.277 0.306 0.425 0.477 0.625 0.729 1.417 1.35 2.185 1.922 0.683 0.483 1.416 0.917 2.224 1.151 0.732 0.191 1.5 0.212 2.249 0.123 0.565-0.047 1.131-0.104 1.682-0.241 0.287-0.064 0.572-0.155 0.868-0.164l0.007 0.002 1.623 1.59c-0.891 0.536-1.638 1.297-2.213 2.16-0.212 0.293-0.114 0.139-0.295 0.464-0.117 0.236-0.080 0.145-0.128 0.267-0.27 0.497-0.454 1.027-0.592 1.573-1.566-0.468-3.162-1.175-4.406-2.255-0.463-0.381-0.878-0.801-1.244-1.279-0.753-0.991-1.341-2.151-1.754-3.316-0.202-0.57-0.326-0.846-0.519-1.593-0.064-0.248-0.128-0.767-0.127-0.863l0.015-0.016zM31.922 16.486v0c-0.139 0.161-0.284 0.317-0.425 0.477-0.625 0.729-1.417 1.35-2.185 1.922-0.683 0.483-1.416 0.917-2.224 1.151-0.732 0.191-1.5 0.212-2.249 0.123-0.565-0.047-1.131-0.104-1.682-0.241-0.287-0.064-0.572-0.155-0.868-0.164l-0.007 0.002-1.623 1.59c0.891 0.536 1.638 1.297 2.213 2.16 0.212 0.293 0.113 0.139 0.295 0.464 0.117 0.236 0.080 0.145 0.128 0.267 0.27 0.497 0.454 1.027 0.592 1.573 1.566-0.468 3.162-1.175 4.406-2.255 0.463-0.381 0.878-0.801 1.244-1.279 0.753-0.991 1.341-2.151 1.754-3.316 0.202-0.57 0.326-0.846 0.519-1.593 0.064-0.248 0.128-0.767 0.127-0.863l-0.015-0.016zM16 12.028l4.462 3.972-4.462 3.972-4.462-3.972 4.462-3.972zM16.006 7.231l-0.072 0.028c-0.093 0.048-0.172 0.119-0.241 0.2-1.023 1.085-2.107 2.11-3.127 3.198-0.995 1.072-2.14 1.987-3.26 2.923-0.807 0.685-1.618 1.367-2.469 1.999-0.102 0.1-0.295 0.195-0.248 0.366 0.241 0.288 0.579 0.473 0.859 0.721 0.998 0.81 2.008 1.606 2.964 2.466 0.915 0.895 1.816 1.804 2.701 2.728 0.844 0.898 1.742 1.743 2.582 2.643 0.077 0.071 0.179 0.203 0.286 0.228 0.133 0 0.232-0.147 0.323-0.228 0.841-0.9 1.738-1.746 2.582-2.643 0.885-0.924 1.786-1.833 2.701-2.728 0.956-0.86 1.966-1.657 2.965-2.466 0.28-0.248 0.617-0.433 0.858-0.721 0.047-0.171-0.146-0.266-0.248-0.366-0.851-0.632-1.662-1.313-2.469-1.999-1.12-0.936-2.265-1.852-3.26-2.923-1.019-1.089-2.104-2.114-3.127-3.198-0.070-0.081-0.151-0.164-0.244-0.212l-0.057-0.016zM8.113 6.192c-1.566 0.468-3.162 1.175-4.406 2.255-0.463 0.381-0.878 0.801-1.244 1.28-0.753 0.991-1.341 2.151-1.754 3.316-0.202 0.57-0.326 0.846-0.519 1.593-0.064 0.248-0.128 0.767-0.127 0.863l0.015 0.016c0.136-0.164 0.277-0.306 0.425-0.477 0.625-0.729 1.417-1.35 2.185-1.922 0.683-0.483 1.416-0.917 2.224-1.151 0.732-0.191 1.5-0.212 2.249-0.123 0.565 0.047 1.131 0.104 1.682 0.241 0.226 0.054 0.455 0.117 0.685 0.147l1.777-1.597c-0.874-0.545-1.607-1.28-2.177-2.138-0.212-0.293-0.114-0.139-0.295-0.464-0.117-0.236-0.080-0.145-0.128-0.267-0.27-0.497-0.454-1.027-0.592-1.573zM23.887 6.192c-0.137 0.546-0.322 1.077-0.592 1.573-0.048 0.122-0.011 0.031-0.128 0.267-0.181 0.325-0.082 0.171-0.295 0.464-0.589 0.839-1.285 1.607-2.175 2.136l1.779 1.598c0.231-0.021 0.454-0.1 0.681-0.147 0.551-0.137 1.117-0.194 1.682-0.241 0.749-0.089 1.517-0.068 2.249 0.123 0.808 0.234 1.54 0.668 2.224 1.151 0.768 0.573 1.56 1.194 2.185 1.922 0.148 0.17 0.29 0.313 0.425 0.477l0.015-0.016c0.001-0.095-0.064-0.614-0.127-0.863-0.192-0.748-0.317-1.024-0.519-1.593-0.413-1.166-1.002-2.325-1.754-3.316-0.366-0.478-0.781-0.899-1.244-1.28-1.245-1.080-2.841-1.787-4.406-2.255z"></path>
</svg>
