<!-- Generated by IcoMoon.io -->
<svg version="1.1" xmlns="http://www.w3.org/2000/svg" width="32" height="32" viewBox="0 0 32 32">
<title>3ed</title>
<path fill="#444" d="M22.85 2.598c0 0 1.688 0.183 1.688 1.929l6.266 1.746c0 0 1.565 0.604 1.082 2.652l-5.179 19.335c0 0-1.085 1.447-2.349 1.084l-8.356-2.298-8.358 2.298c-1.264 0.363-2.349-1.084-2.349-1.084l-5.182-19.335c-0.48-2.049 1.085-2.652 1.085-2.652l6.266-1.746c0-1.746 1.686-1.929 1.686-1.929h13.7zM22.795 3.322h-13.589c-0.080 0.014-0.32 0.068-0.549 0.22-0.32 0.215-0.472 0.527-0.472 0.985v0.549c0 0-6.647 1.854-6.744 1.88-0.172 0.080-0.696 0.395-0.696 1.227 0 0.169 0.023 0.358 0.072 0.57 0.012 0.034 5.053 18.862 5.136 19.165 0.22 0.249 0.875 0.907 1.491 0.73l8.558-2.355 8.553 2.355c0.618 0.177 1.271-0.48 1.494-0.73 0.084-0.303 5.128-19.131 5.136-19.165 0.048-0.212 0.072-0.401 0.072-0.57 0-0.832-0.524-1.147-0.696-1.227-0.097-0.026-6.744-1.88-6.744-1.88v-0.549c0-0.458-0.152-0.77-0.472-0.985-0.226-0.152-0.47-0.206-0.549-0.22v0zM8.041 6.038v18.593c0 0 0.158 1.205 1.124 1.205h5.219l-6.987 1.929c0 0-0.401 0.2-0.604-0.24l-5.139-19.077c0 0-0.2-0.601 0.281-0.761l6.106-1.648zM23.959 5.998l6.103 1.648c0.483 0.16 0.283 0.761 0.283 0.761l-5.142 19.074c-0.2 0.443-0.601 0.243-0.601 0.243l-6.987-1.929h5.219c0.964 0 1.124-1.204 1.124-1.204v-18.593zM22.738 4.192c0.28 0 0.32 0.36 0.32 0.36v19.998c0 0.32-0.32 0.401-0.32 0.401h-13.452c-0.283 0-0.283-0.401-0.283-0.401v-19.998c0-0.24 0.283-0.36 0.283-0.36h13.452zM16.82 9.212h-0c-0.641 0-1.185 0.111-1.635 0.333s-0.844 0.478-1.185 0.767h-0.898c-0.393 0-0.868-0.046-1.425-0.139s-0.997-0.17-1.317-0.232c-0.155 0-0.233 0.093-0.233 0.279 0 0.155 0.341 0.264 1.023 0.326s1.075 0.147 1.178 0.256c0.103 0.108 0.199 0.462 0.287 1.061s0.132 1.147 0.132 1.643v4.075c0 1.26-0.067 1.916-0.201 1.968s-0.473 0.090-1.015 0.116c-0.542 0.026-0.813 0.116-0.813 0.271 0 0.196 0.093 0.295 0.279 0.295l1.829-0.171h2.324l1.348 0.124h0.155c0.186 0 0.279-0.108 0.279-0.325 0-0.134-0.077-0.201-0.232-0.201h-1.193c-0.434 0-0.733-0.054-0.899-0.163s-0.248-0.354-0.248-0.736v-0.558c0-0.248 0.005-0.814 0.016-1.697s0.046-1.325 0.108-1.325c0.857 0 1.534 0.31 2.030 0.93s1.025 1.369 1.588 2.247c0.563 0.878 0.932 1.371 1.108 1.48s0.294 0.168 0.357 0.178h2.309c0.010-0.021 0.031-0.055 0.062-0.101s0.047-0.090 0.047-0.132c0-0.145-0.183-0.23-0.55-0.256s-0.664-0.214-0.891-0.565c-0.496-0.671-0.973-1.33-1.433-1.976s-0.845-1.247-1.154-1.805c0.93-0.63 1.524-1.080 1.782-1.348s0.387-0.806 0.387-1.612c0-0.888-0.315-1.611-0.945-2.169s-1.415-0.837-2.355-0.837zM15.922 10.173c0.785 0 1.379 0.24 1.782 0.721s0.604 1.087 0.604 1.821c0 0.62-0.196 1.111-0.589 1.472s-0.878 0.542-1.457 0.542c-0.702 0-1.203-0.158-1.503-0.473s-0.449-0.741-0.449-1.278v-1.209c0-0.599 0.145-1.015 0.434-1.247s0.682-0.349 1.178-0.349z"></path>
</svg>
