<!-- Generated by IcoMoon.io -->
<svg version="1.1" xmlns="http://www.w3.org/2000/svg" width="32" height="32" viewBox="0 0 32 32">
<title>40k-white</title>
<path fill="#444" d="M15.995 8.751h0.254c0.59-0 1.183 0.132 1.709 0.401 0.569 0.29 1.063 0.73 1.405 1.271 0.138 0.221 0.254 0.46 0.307 0.717 0.083 0.425 0.133 0.86 0.099 1.294-0.043 0.617-0.316 1.195-0.318 1.818-0.021 0.366 0.069 0.734 0.25 1.052 0.1 0.142 0.044 0.326 0.030 0.486-0.083 0.462-0.227 0.937-0.542 1.296-0.16 0.189-0.421 0.243-0.657 0.219-0.158-0.006-0.324-0.070-0.477-0.004-0.179 0.078-0.245 0.303-0.202 0.482 0.033 0.168 0.218 0.28 0.194 0.464-0.001 0.19 0.003 0.38-0.002 0.57-0.033 0.226-0.256 0.358-0.458 0.414-0.060 0.010-0.13 0.055-0.184 0.008-0.032-0.134 0.007-0.279-0.020-0.414-0.042-0.146-0.301-0.133-0.313 0.023-0.003 0.135 0.001 0.27-0.002 0.405-0.009 0.050-0.058 0.084-0.107 0.083-0.25 0.008-0.5 0.020-0.75 0.016-0.068-0.034-0.051-0.116-0.053-0.178-0.005-0.107 0.012-0.217-0.010-0.322-0.027-0.146-0.275-0.143-0.299 0.003-0.022 0.14-0.003 0.283-0.010 0.423-0.002 0.041-0.041 0.086-0.086 0.076-0.238-0.002-0.476-0.009-0.713-0.018-0.050 0.001-0.098-0.034-0.107-0.084-0.002-0.134 0.001-0.268-0.001-0.402-0.009-0.157-0.268-0.172-0.312-0.029-0.031 0.136 0.010 0.283-0.021 0.418-0.015 0.005-0.044 0.016-0.059 0.021-0.209-0.042-0.439-0.128-0.546-0.327-0.059-0.101-0.035-0.22-0.040-0.331 0.002-0.154-0.005-0.308 0.004-0.462 0.053-0.138 0.182-0.242 0.197-0.396 0.035-0.198-0.077-0.442-0.294-0.47-0.226-0.017-0.452 0.071-0.677 0.016-0.202-0.025-0.36-0.171-0.473-0.33-0.207-0.296-0.329-0.644-0.407-0.995-0.037-0.19-0.073-0.386-0.047-0.58 0.117-0.213 0.223-0.435 0.264-0.676 0.070-0.401 0.017-0.813-0.072-1.206-0.088-0.367-0.197-0.731-0.219-1.109-0.028-0.468 0.026-0.94 0.137-1.394 0.218-0.666 0.707-1.218 1.275-1.613 0.473-0.324 1.025-0.531 1.593-0.604 0.422-0.041 0.168-0.023 0.762-0.034zM16.022 16.166c-0.121 0.011-0.071-0.002-0.152 0.026-0.054 0.027-0.096 0.073-0.117 0.13-0.137 0.309-0.279 0.616-0.413 0.925-0.029 0.102 0.098 0.197 0.183 0.127 0.131-0.121 0.29-0.244 0.479-0.235 0.152-0.007 0.291 0.075 0.403 0.17 0.046 0.041 0.095 0.101 0.165 0.086 0.077-0.014 0.118-0.112 0.081-0.18-0.141-0.307-0.275-0.617-0.415-0.924-0.053-0.077-0.117-0.118-0.213-0.126zM13.494 14.819l-0.069 0.007c-0.129 0.020-0.244 0.102-0.308 0.216-0.148 0.256-0.153 0.58-0.029 0.846 0.099 0.227 0.298 0.428 0.552 0.464 0.264 0.025 0.533 0.019 0.791-0.046 0.455-0.108 0.866-0.393 1.123-0.784-0.241-0.059-0.479-0.134-0.709-0.227-0.298-0.119-0.58-0.278-0.883-0.386-0.152-0.048-0.307-0.098-0.469-0.090zM18.473 14.818l-0.058 0.001-0.063 0.008c-0.339 0.055-0.643 0.221-0.952 0.361-0.307 0.143-0.628 0.253-0.956 0.336 0.125 0.179 0.275 0.342 0.452 0.47 0.432 0.322 1.002 0.43 1.529 0.344 0.548-0.162 0.754-0.943 0.398-1.377-0.101-0.088-0.213-0.142-0.35-0.144z"></path>
</svg>
