<!-- Generated by IcoMoon.io -->
<svg version="1.1" xmlns="http://www.w3.org/2000/svg" width="32" height="32" viewBox="0 0 32 32">
<title>40k-color</title>
<path fill="#444" d="M2.865 9.7c3.222-0.001 6.443 0.001 9.665-0.001-0.265 0.306-0.462 0.664-0.62 1.035-2.779-0.004-5.559-0.002-8.339-0.001l-0.021-0.012c-0.234-0.336-0.464-0.676-0.685-1.021zM19.469 9.699c0.237 0.283 0.438 0.598 0.573 0.942 0.011 0.034 0.027 0.064 0.048 0.093 2.78-0.005 5.56-0.003 8.34-0.001 0.253-0.33 0.475-0.686 0.704-1.034-3.222-0.001-6.443 0.001-9.665-0.001zM27.281 15.827c-1.136-0.017-2.295 0.014-3.603-0.016 0.158-0.159 0.305-0.328 0.461-0.49 0.030-0.026 0.049-0.071 0.094-0.075 0.193 0 0.386 0.001 0.579 0 1.494-0.003 0.7-0.008 1.73 0.002l1.201 0.004c0.439-0.512 0.846-1.050 1.248-1.59-1.018-0.006-0.414-0.003-3.444 0.001 0.181-0.19 0.331-0.409 0.512-0.598 0.436 0.003 1.557 0.004 3.336 0.012 0.015 0 0.031 0 0.047 0 0.373-0.522 0.759-1.036 1.106-1.576-0.984-0.004-1.968-0.002-2.953-0.004l-2.675 0c-1.564 0-3.127-0.001-4.691-0 0.082 0.597 0.048 1.21-0.113 1.791-0.123 0.473-0.248 0.977-0.117 1.462 0.054 0.212 0.216 0.38 0.242 0.601 0.023 0.217-0.002 0.436-0.045 0.649-0.1 0.452-0.248 0.906-0.524 1.284-0.154 0.205-0.353 0.39-0.599 0.473-0.17 0.062-0.353 0.066-0.531 0.074-0.010 0.355 0.009 0.711-0.010 1.066-0.056 0.307-0.294 0.551-0.574 0.672-0.18 0.077-0.372 0.138-0.568 0.145-0.355 0.043-0.712 0.083-1.070 0.074-0.464-0.007-0.931 0.025-1.392-0.041-0.265-0.026-0.537-0.035-0.788-0.138-0.321-0.108-0.61-0.366-0.673-0.71-0.019-0.355-0-0.711-0.010-1.067-0.284-0.001-0.585-0.043-0.815-0.224-0.42-0.323-0.632-0.835-0.773-1.33-0.089-0.352-0.181-0.732-0.072-1.089 0.107-0.207 0.231-0.416 0.246-0.655 0.083-0.673-0.242-1.3-0.295-1.961-0.043-0.358-0.021-0.719 0.022-1.076l-7.638-0.001c-0.35 0-0.701 0-1.052 0-0.236 0-0.472 0.001-0.708-0-0.011-0-0.022-0-0.032-0v0c-0.298 0-0.596 0.001-0.893 0.002 0.346 0.541 0.735 1.054 1.107 1.577 0.151 0.016 0.304 0.002 0.456 0.007 0.168-0 0.336-0 0.504-0 1.217 0.001 0.645 0.007 1.453-0.004l-0 0.002 0.028-0.002 0.030-0v-0.002c0.314-0.024 0.629 0.002 0.944 0.009 0.152 0.197 0.315 0.388 0.476 0.578-1.073 0.002-0.536 0.002-1.624-0.010-0.604 0.002-1.208 0.001-1.811 0.005 0.024 0.052 0.062 0.096 0.097 0.142 0.375 0.49 0.744 0.986 1.149 1.452 0.199 0 0.398 0.004 3.537 0.002 0.186 0.188 0.363 0.385 0.543 0.578-1.196 0.001-2.393 0.005-3.59 0.004 0.463 0.53 0.919 1.075 1.404 1.582 1.237 0.004 2.475 0.005 3.712 0.007 0.215 0.176 0.416 0.384 0.621 0.577-1.266 0.002-2.532 0.004-3.798 0.005 0.525 0.528 1.023 1.086 1.575 1.586 1.152 0.003 2.303 0.002 3.455 0.005 0.348 0.283 0.689 0.576 1.037 0.86 2.165 0 4.329 0 6.494 0 0.349-0.283 0.688-0.579 1.038-0.861 1.151-0.003 2.302-0.003 3.453-0.005 0.553-0.499 1.050-1.060 1.578-1.585-1.266 0.001-2.533-0.003-3.8-0.005 0.197-0.193 0.4-0.378 0.597-0.571 0.196-0.017 0.397-0.003 0.595-0.008 1.048-0.002 2.095-0.003 3.143-0.007zM13.484 21.143c0.76 0.63 1.541 1.237 2.355 1.795 0.107 0 0.215 0.001 0.323-0 0.813-0.561 1.593-1.166 2.354-1.795-1.677 0.004-3.354 0.004-5.032 0z"></path>
</svg>
