<!-- Generated by IcoMoon.io -->
<svg version="1.1" xmlns="http://www.w3.org/2000/svg" width="32" height="32" viewBox="0 0 32 32">
<title>40k-border</title>
<path fill="#444" d="M16.248 8.226c0.568 0.034 0.326 0.008 0.73 0.060 0.557 0.090 1.087 0.307 1.567 0.598 3.708-0.001 7.415 0 11.123-0 0.158 0.002 0.332 0.021 0.456 0.13 0.086 0.077 0.113 0.199 0.101 0.311-0.017 0.183-0.106 0.348-0.2 0.501-0.183 0.307-0.376 0.607-0.574 0.904 0.844 0.001 1.687-0 2.531 0.001l0.019 0.009c-0.715 1.186-1.526 2.311-2.359 3.416-1.691 2.22-3.542 4.319-5.536 6.271-1.175 0.004-2.351-0.005-3.526 0.004-1.276 1.168-2.605 2.283-4.042 3.248-0.206 0.125-0.453 0.086-0.681 0.092-0.182 0.008-0.362-0.052-0.505-0.164-1.392-0.952-2.688-2.037-3.931-3.176-1.174-0.009-2.35-0.001-3.525-0.004-1.886-1.845-3.643-3.823-5.26-5.909-0.912-1.185-1.788-2.402-2.578-3.673-0.021-0.034-0.041-0.069-0.058-0.105l0.020-0.011c0.839 0.001 1.679-0.004 2.518 0.002l0.002-0.016c-0.204-0.307-0.404-0.618-0.593-0.935-0.113-0.189-0.22-0.416-0.157-0.64 0.071-0.204 0.315-0.256 0.505-0.258 3.688-0.001 7.376-0 11.065-0.001 0.046-0.004 0.099 0.014 0.138-0.021 0.651-0.403 1.412-0.631 2.179-0.632l0.326-0.001 0.245-0.003zM18.516 21.143c-1.677 0.004-3.354 0.004-5.032 0 0.76 0.63 1.541 1.237 2.355 1.795 0.107 0 0.215 0.001 0.323-0 0.813-0.561 1.593-1.166 2.354-1.795zM4.979 11.494c-1.177 0.005-2.354 0.001-3.532 0.005 0.346 0.541 0.735 1.054 1.107 1.577 0.151 0.016 0.304 0.002 0.456 0.007 0.671-0.004 1.344 0.011 2.014-0.005 0.314-0.032 0.63 0 0.944 0.007 0.152 0.197 0.315 0.388 0.476 0.578-0.536 0.001-1.073 0.003-1.609 0.001l-0.015-0.011c-0.604 0.002-1.208 0.001-1.811 0.005 0.024 0.052 0.062 0.096 0.097 0.142 0.375 0.49 0.744 0.986 1.149 1.452 0.199 0 0.398 0.004 0.597-0.001 0.086-0.021 0.175-0.004 0.263-0.009 0.892 0.007 1.787-0.006 2.677 0.013 0.186 0.188 0.363 0.385 0.543 0.578-1.196 0.001-2.393 0.005-3.59 0.004 0.463 0.53 0.919 1.075 1.404 1.582 1.237 0.004 2.475 0.005 3.712 0.007 0.215 0.176 0.416 0.384 0.621 0.577-1.266 0.002-2.532 0.004-3.798 0.005 0.525 0.528 1.023 1.086 1.575 1.586 1.152 0.003 2.303 0.002 3.455 0.005 0.348 0.283 0.689 0.576 1.037 0.86 2.165 0 4.329 0 6.494 0 0.349-0.283 0.688-0.579 1.038-0.861 1.151-0.003 2.302-0.003 3.453-0.005 0.553-0.499 1.049-1.060 1.578-1.585-1.266 0.001-2.533-0.003-3.8-0.005 0.197-0.193 0.4-0.378 0.597-0.571 0.196-0.017 0.397-0.003 0.595-0.008 1.048-0.002 2.095-0.003 3.143-0.007 1.242-1.396 1.349-1.477 1.407-1.591-1.136-0.017-2.271 0.013-3.408 0.002-0.058-0.001-0.116-0.006-0.172-0.019 0.158-0.159 0.305-0.328 0.461-0.49 0.030-0.026 0.049-0.071 0.094-0.075 0.772 0.004 1.544-0.011 2.315 0.002 0.397 0.012 0.796 0.004 1.194 0.004 0.439-0.512 0.846-1.050 1.248-1.59-0.814-0.002-1.63-0.018-2.442 0.001-0.334 0.006-0.668 0.001-1.001 0.001 0.181-0.19 0.331-0.409 0.512-0.598 2.152 0.014 2.768 0.028 3.383 0.013 0.373-0.522 0.76-1.038 1.106-1.578-0.984-0.004-1.968-0.002-2.953-0.004-0.349 0.006-0.701-0.013-1.048 0.009-0.541 0.012-1.087 0.008-1.627-0.006-1.564 0-3.127-0.001-4.691-0 0.082 0.597 0.048 1.21-0.113 1.791-0.123 0.473-0.248 0.977-0.117 1.462 0.054 0.212 0.216 0.38 0.242 0.601 0.023 0.217-0.002 0.436-0.045 0.649-0.1 0.452-0.248 0.906-0.524 1.284-0.154 0.205-0.353 0.39-0.599 0.473-0.17 0.062-0.353 0.066-0.531 0.074-0.010 0.355 0.009 0.711-0.010 1.066-0.056 0.307-0.294 0.551-0.574 0.672-0.18 0.077-0.372 0.138-0.568 0.145-0.355 0.043-0.712 0.083-1.070 0.074-0.464-0.007-0.931 0.025-1.392-0.041-0.265-0.026-0.537-0.035-0.788-0.138-0.321-0.108-0.61-0.366-0.673-0.71-0.019-0.355-0-0.711-0.010-1.067-0.284-0.001-0.585-0.043-0.815-0.224-0.42-0.323-0.632-0.835-0.773-1.33-0.089-0.352-0.181-0.732-0.072-1.089 0.107-0.207 0.231-0.416 0.246-0.655 0.083-0.673-0.242-1.3-0.295-1.961-0.043-0.358-0.021-0.719 0.022-1.076-1.815-0.001-3.63-0-5.444 0.001-0.092 0.033-0.188-0.017-0.279 0.011-0.355-0.002-0.71 0.005-1.065-0.001l-0.003-0.015zM15.995 8.751c-0.593 0.011-0.34-0.008-0.762 0.034-0.568 0.073-1.12 0.28-1.593 0.604-0.569 0.395-1.057 0.947-1.275 1.613-0.111 0.454-0.165 0.926-0.137 1.394 0.022 0.378 0.131 0.743 0.219 1.109 0.090 0.394 0.142 0.805 0.072 1.206-0.040 0.242-0.147 0.464-0.264 0.676-0.026 0.194 0.011 0.39 0.047 0.58 0.078 0.351 0.199 0.699 0.407 0.995 0.113 0.159 0.272 0.305 0.473 0.33 0.226 0.055 0.451-0.033 0.677-0.016 0.217 0.027 0.329 0.272 0.294 0.47-0.016 0.153-0.144 0.258-0.197 0.396-0.009 0.153-0.001 0.308-0.004 0.462 0.005 0.111-0.019 0.23 0.040 0.331 0.107 0.198 0.337 0.285 0.546 0.327 0.015-0.005 0.044-0.016 0.059-0.021 0.031-0.135-0.010-0.282 0.021-0.418 0.044-0.143 0.304-0.128 0.312 0.029 0.002 0.134-0.001 0.268 0.001 0.402 0.009 0.051 0.057 0.085 0.107 0.084 0.238 0.009 0.476 0.016 0.713 0.018 0.045 0.010 0.084-0.034 0.086-0.076 0.007-0.141-0.011-0.284 0.010-0.423 0.025-0.146 0.272-0.148 0.299-0.003 0.021 0.105 0.004 0.215 0.010 0.322 0.002 0.061-0.015 0.144 0.053 0.178 0.25 0.004 0.5-0.009 0.75-0.016 0.049 0.001 0.098-0.034 0.107-0.084 0.003-0.135-0.001-0.27 0.002-0.405 0.012-0.156 0.272-0.169 0.313-0.023 0.028 0.135-0.012 0.28 0.020 0.414 0.054 0.047 0.124 0.001 0.184-0.008 0.202-0.056 0.425-0.188 0.458-0.414 0.005-0.19 0.001-0.38 0.002-0.57 0.024-0.183-0.161-0.295-0.194-0.464-0.043-0.179 0.022-0.404 0.202-0.482 0.153-0.067 0.318-0.003 0.477 0.004 0.236 0.024 0.497-0.030 0.657-0.219 0.315-0.359 0.46-0.834 0.542-1.296 0.014-0.16 0.070-0.343-0.030-0.486-0.181-0.318-0.271-0.687-0.25-1.052 0.001-0.623 0.274-1.201 0.318-1.818 0.035-0.434-0.016-0.869-0.099-1.294-0.053-0.257-0.169-0.496-0.307-0.717-0.341-0.541-0.836-0.982-1.405-1.271-0.526-0.269-1.119-0.401-1.709-0.401h-0.254zM16.022 16.166c0.096 0.008 0.161 0.049 0.213 0.126 0.14 0.307 0.274 0.617 0.415 0.924 0.037 0.067-0.003 0.165-0.081 0.18-0.070 0.014-0.119-0.045-0.165-0.086-0.112-0.095-0.251-0.177-0.403-0.17-0.189-0.009-0.348 0.113-0.479 0.235-0.085 0.070-0.212-0.025-0.183-0.127 0.135-0.31 0.276-0.616 0.413-0.925 0.021-0.056 0.064-0.103 0.117-0.13 0.081-0.028 0.031-0.015 0.152-0.026zM13.494 14.819c0.162-0.009 0.317 0.042 0.469 0.090 0.303 0.108 0.584 0.267 0.883 0.386 0.23 0.093 0.467 0.168 0.709 0.227-0.256 0.391-0.668 0.676-1.123 0.784-0.258 0.065-0.527 0.071-0.791 0.046-0.254-0.035-0.453-0.236-0.552-0.464-0.124-0.266-0.119-0.591 0.029-0.846 0.064-0.114 0.179-0.196 0.308-0.216l0.069-0.007zM18.473 14.818c0.137 0.002 0.249 0.056 0.35 0.144 0.356 0.433 0.15 1.214-0.398 1.377-0.527 0.086-1.097-0.022-1.529-0.344-0.177-0.128-0.328-0.291-0.452-0.47 0.328-0.083 0.649-0.193 0.956-0.336 0.309-0.14 0.613-0.306 0.952-0.361l0.063-0.008 0.058-0.001zM19.469 9.699c0.237 0.283 0.438 0.598 0.573 0.942 0.011 0.034 0.027 0.064 0.048 0.093 2.78-0.005 5.56-0.003 8.34-0.001 0.253-0.33 0.475-0.686 0.704-1.034-3.222-0.001-6.443 0.001-9.665-0.001zM12.53 9.699c-3.221 0.002-6.443 0-9.665 0.001 0.221 0.345 0.451 0.684 0.685 1.021l0.021 0.012c2.78-0.001 5.559-0.003 8.339 0.001 0.157-0.371 0.354-0.729 0.62-1.035z"></path>
</svg>
