<!-- Generated by IcoMoon.io -->
<svg version="1.1" xmlns="http://www.w3.org/2000/svg" width="32" height="32" viewBox="0 0 32 32">
<title>40k</title>
<path fill="#444" d="M2.73 9.699c3.354-0 6.709-0.001 10.063 0-0.289 0.298-0.539 0.643-0.683 1.035-2.892 0-5.784-0-8.677 0-0.242-0.34-0.474-0.687-0.703-1.035zM19.207 9.699c0.289 0.298 0.539 0.643 0.683 1.035 2.892 0.001 5.784-0.001 8.677 0.001 0.242-0.34 0.473-0.687 0.703-1.035-3.355-0.001-6.709 0-10.063-0zM1.293 11.49c0.358 0.541 0.746 1.061 1.128 1.585 1.144 0.001 2.289 0.001 3.433 0 0.16 0.192 0.317 0.386 0.474 0.58-1.152 0.001-2.304-0.001-3.456 0.001 0.405 0.547 0.829 1.081 1.272 1.598 1.189 0.005 2.377 0 3.566 0.002 0.182 0.189 0.364 0.377 0.544 0.568-1.21 0.001-2.421-0.003-3.631 0.002 0.094 0.133 0.213 0.246 0.315 0.372 0.368 0.413 0.73 0.833 1.112 1.233 1.259-0.003 2.517-0.001 3.776-0.001 0.196 0.19 0.392 0.381 0.587 0.572-1.276-0.005-2.552-0.005-3.828 0 0.524 0.542 1.046 1.088 1.599 1.601 1.167-0.001 2.334-0.003 3.501 0.001 0.346 0.291 0.697 0.578 1.047 0.864 2.179-0.001 4.358-0.001 6.537-0 0.352-0.287 0.703-0.575 1.052-0.866 1.166-0.001 2.331-0.001 3.496 0 0.554-0.512 1.074-1.059 1.6-1.6-1.276-0.008-2.552-0.005-3.828-0.001 0.195-0.192 0.39-0.384 0.589-0.572 1.258 0.001 2.516-0.001 3.774 0.001 0.488-0.523 0.968-1.056 1.429-1.603-1.211-0.006-2.421-0.001-3.632-0.002 0.18-0.19 0.361-0.379 0.542-0.568 1.189-0.003 2.378 0.002 3.567-0.003 0.444-0.516 0.865-1.052 1.272-1.598-1.152-0.002-2.304-0-3.457-0.001 0.157-0.194 0.314-0.388 0.474-0.58 1.145 0 2.289 0.001 3.434-0 0.381-0.525 0.771-1.044 1.128-1.585-3.556-0.002-7.113-0-10.669-0.001 0.006 0.204 0.025 0.408 0.012 0.612-0.004 0.405-0.128 0.794-0.228 1.182-0.104 0.399-0.15 0.818-0.087 1.227 0.044 0.236 0.145 0.456 0.268 0.66 0.076 0.118 0.023 0.264 0.011 0.392-0.061 0.386-0.186 0.767-0.393 1.1-0.108 0.168-0.245 0.331-0.433 0.411-0.259 0.097-0.541 0.046-0.808 0.018-0.232-0.014-0.428 0.202-0.404 0.43-0.016 0.197 0.168 0.319 0.222 0.493 0.006 0.207 0.005 0.414 0 0.621-0.049 0.305-0.402 0.455-0.675 0.456-0.040-0.135 0.010-0.283-0.026-0.419-0.046-0.149-0.303-0.157-0.348-0.007-0.018 0.143 0.003 0.288-0.010 0.432-0.013 0.038-0.045 0.085-0.092 0.077-0.242 0.007-0.483 0.017-0.725 0.023-0.051 0.005-0.1-0.008-0.144-0.033-0.005-0.154 0.009-0.309-0.008-0.462-0.037-0.162-0.311-0.157-0.341 0.007-0.015 0.151-0.002 0.304-0.008 0.456-0.044 0.025-0.094 0.036-0.144 0.032-0.242-0.006-0.484-0.016-0.727-0.023-0.046 0.006-0.082-0.045-0.084-0.086-0.007-0.131 0.005-0.262-0.004-0.392-0.018-0.178-0.309-0.186-0.359-0.022-0.029 0.138 0.001 0.283-0.018 0.423-0.119 0.008-0.233-0.039-0.343-0.080-0.164-0.067-0.325-0.201-0.338-0.39-0.001-0.206-0.004-0.413 0.002-0.619 0.043-0.154 0.201-0.255 0.214-0.421 0.029-0.172-0.039-0.37-0.201-0.452-0.192-0.095-0.401 0.002-0.602-0.006-0.254 0.022-0.52-0.061-0.684-0.263-0.338-0.398-0.497-0.918-0.565-1.429-0.008-0.081-0.028-0.171 0.017-0.245 0.096-0.167 0.189-0.338 0.241-0.524 0.088-0.283 0.072-0.584 0.051-0.875-0.063-0.561-0.313-1.088-0.326-1.657-0.015-0.216 0.002-0.433 0.010-0.649-3.556 0.001-7.112-0.001-10.669 0.001zM13.202 14.751c-0.13 0.064-0.209 0.195-0.251 0.328-0.129 0.368 0.008 0.816 0.325 1.045 0.201 0.146 0.462 0.119 0.697 0.117 0.597-0.027 1.172-0.341 1.506-0.838-0.305-0.075-0.606-0.173-0.892-0.302-0.312-0.135-0.613-0.307-0.948-0.378-0.143-0.030-0.301-0.039-0.435 0.028zM17.437 15.091c-0.294 0.133-0.601 0.234-0.914 0.311 0.137 0.196 0.306 0.371 0.505 0.505 0.431 0.296 0.981 0.392 1.492 0.311 0.549-0.159 0.759-0.94 0.402-1.373-0.115-0.134-0.308-0.164-0.474-0.137-0.36 0.056-0.68 0.24-1.010 0.383zM15.874 16.065c-0.074 0.029-0.115 0.102-0.144 0.172-0.129 0.294-0.268 0.584-0.395 0.879-0.036 0.103 0.094 0.204 0.182 0.134 0.145-0.126 0.316-0.258 0.521-0.235 0.186 0.005 0.324 0.141 0.464 0.246 0.105 0.057 0.212-0.080 0.153-0.175-0.136-0.3-0.271-0.601-0.409-0.901-0.058-0.142-0.242-0.171-0.372-0.12zM13.455 21.144c0.768 0.626 1.548 1.239 2.369 1.795 0.117-0 0.234-0 0.351 0 0.821-0.556 1.601-1.168 2.369-1.795-1.697-0-3.393-0-5.090 0z"></path>
</svg>
