<!-- Generated by IcoMoon.io -->
<svg version="1.1" xmlns="http://www.w3.org/2000/svg" width="22" height="32" viewBox="0 0 22 32">
<title>7ed</title>
<path fill="#444" d="M20.971 3.002c-0.242-0.132-2.136-0.004-2.71-0.008s-1.432 0.003-2.463-0.035c-1.031-0.039-6.361-0.175-7.549-0.189-1.657-0.019-3.494-0.292-3.494-0.292s-0.307 0.802-0.719 1.514c-0.941 1.608-2.456 2.726-3.48 4.278-0.32 0.484-0.797 1.136-0.366 1.772 0.454 0.664 1.51 0.27 1.893-0.122 0.288-0.295 0.232-0.649 0.605-0.91 0 0 5.081-1.751 10.367-1.841 0 0-0.101 0.271-0.741 1.562-0.534 1.078-0.851 2.349-1.55 3.307-0.173 0.237-1.559 0.274-2.249 0.293-0.198 0.005-0.018-0.708-0.687-0.704-0.252 0.001-0.585 0.523-0.677 0.718-0.168 0.354-0.303 0.807-0.381 1.163-0.084 0.381-0.352 1.661-0.010 1.855 0.196 0.114 0.911 0.155 1.186-0.227 0.146-0.203 0.393-0.371 0.43-0.388 0.498-0.252 0.789-0.243 1.216-0.060l-0.122 0.499c-1.164 3.155-2.364 5.026-3.811 8.151-0.89 1.923-1.468 2.973-1.836 3.572-0.383 0.623-0.874 0.838-0.874 0.838-0.672 0.367-1.081 0.473-1.081 1.246 0 0.672 0.95 0.575 1.362 0.445 1.16-0.367 2.512-1.246 3.083-1.583 1.975-1.167 4.651-1.903 4.651-1.903s0.263-4.73 0.887-7.048c0.487-1.812 0.953-3.429 1.648-4.889 0.096-0.201 0.549-0.37 0.778-0.465 0.448-0.185 1.203-0.328 1.765-0.381 0.936-0.088 0.901-0.345 0.994-0.927 0.117-0.732-0.948-0.413-1.365-0.371-0.072 0.006-0.681 0.064-0.751 0.078 0.302-0.645 0.874-2.026 1.264-2.762 0.639-1.206 1.685-2.438 2.594-3.497 0.405-0.472 1.343-1.251 1.908-1.51 0.561-0.256 0.565-0.817 0.533-0.915-0.062-0.194-0.249-0.263-0.249-0.263z"></path>
</svg>
