<!-- Generated by IcoMoon.io -->
<svg version="1.1" xmlns="http://www.w3.org/2000/svg" width="32" height="32" viewBox="0 0 32 32">
<title>8ed</title>
<path fill="#444" d="M22.858 2.588c0 0 1.69 0.178 1.69 1.928l6.269 1.75c0 0 1.566 0.601 1.082 2.652l-5.184 19.352c0 0-1.086 1.449-2.351 1.085l-8.362-2.3-8.366 2.3c-1.266 0.364-2.351-1.085-2.351-1.085l-5.186-19.352c-0.481-2.051 1.089-2.652 1.089-2.652l6.269-1.75c0-1.749 1.687-1.928 1.687-1.928h13.715zM22.804 3.31h-13.607c-0.077 0.014-0.317 0.068-0.547 0.22-0.32 0.215-0.472 0.527-0.472 0.985v0.55c0 0-6.653 1.856-6.75 1.882-0.172 0.080-0.697 0.395-0.697 1.228 0 0.169 0.023 0.358 0.075 0.57 0.009 0.037 5.054 18.879 5.138 19.182 0.221 0.252 0.879 0.905 1.495 0.73l8.563-2.357 8.563 2.357c0.616 0.174 1.272-0.478 1.492-0.73 0.084-0.304 5.132-19.145 5.141-19.182 0.049-0.212 0.072-0.401 0.072-0.57 0-0.833-0.521-1.148-0.696-1.228-0.098-0.026-6.751-1.882-6.751-1.882v-0.55c0-0.458-0.152-0.771-0.469-0.985-0.23-0.152-0.473-0.206-0.55-0.22zM8.035 6.062v18.609c0 0 0.158 1.209 1.125 1.209h5.224l-6.994 1.927c0 0-0.4 0.2-0.604-0.241l-5.141-19.094c0 0-0.203-0.602 0.278-0.762l6.112-1.65zM23.97 6.022l6.109 1.65c0.481 0.161 0.281 0.762 0.281 0.762l-5.147 19.094c-0.197 0.441-0.601 0.241-0.601 0.241l-6.994-1.93h5.227c0.965 0 1.125-1.205 1.125-1.205v-18.61zM22.744 4.215c0.281 0 0.323 0.361 0.323 0.361v20.016c0 0.321-0.323 0.404-0.323 0.404h-13.463c-0.284 0-0.284-0.404-0.284-0.404l-0-20.016c0-0.24 0.284-0.361 0.284-0.361h13.463zM17.917 6.47q-2.256 0-3.987 1.34t-1.732 3.182q0 0.879 0.503 1.679t1.552 1.477q-2.15 0.784-3.145 1.912t-0.995 2.685q0 1.514 1.197 2.51t3.315 0.995q2.658 0 4.506-1.44t1.848-3.453q0-1.006-0.625-1.848t-2.012-1.509q1.747-0.741 2.648-1.869t0.9-2.431q0-1.387-1.075-2.309t-2.896-0.921zM14.93 14.518q0.943 0.402 1.694 0.784t1.25 0.784 0.741 0.858 0.244 1.038q0 1.43-1.059 2.452t-2.785 1.022q-1.303 0-2.049-0.778t-0.747-2.007q0-1.334 0.688-2.415t2.023-1.737zM17.61 7.253q1.101 0 1.673 0.657t0.572 1.663q0 1.207-0.577 2.341t-1.604 1.705q-1.747-0.71-2.568-1.419t-0.821-1.79q0-1.356 0.969-2.256t2.356-0.9z"></path>
</svg>
