<!-- Generated by IcoMoon.io -->
<svg version="1.1" xmlns="http://www.w3.org/2000/svg" width="32" height="32" viewBox="0 0 32 32">
<title>9ed</title>
<path fill="#444" d="M22.86 2.58c0 0 1.691 0.18 1.691 1.928l6.272 1.751c0 0 1.567 0.601 1.086 2.653l-5.186 19.361c0 0-1.086 1.45-2.352 1.089l-8.367-2.304-8.37 2.304c-1.266 0.361-2.352-1.088-2.352-1.088l-5.189-19.361c-0.481-2.052 1.086-2.653 1.086-2.653l6.274-1.751c0-1.748 1.688-1.928 1.688-1.928h13.719zM22.805 3.303h-13.61c-0.077 0.014-0.321 0.068-0.547 0.22-0.323 0.215-0.472 0.527-0.472 0.986l-0 0.55c0 0-6.656 1.857-6.753 1.883-0.175 0.080-0.696 0.398-0.696 1.229 0 0.169 0.023 0.359 0.071 0.571 0.009 0.037 5.061 18.888 5.141 19.192 0.224 0.252 0.88 0.905 1.496 0.731l8.567-2.358 8.57 2.358c0.616 0.175 1.27-0.478 1.493-0.731 0.083-0.304 5.132-19.154 5.143-19.192 0.049-0.212 0.072-0.401 0.072-0.571 0-0.83-0.524-1.149-0.696-1.229-0.098-0.026-6.756-1.883-6.756-1.883l-0-0.55c0-0.458-0.149-0.771-0.47-0.986-0.229-0.152-0.47-0.206-0.55-0.22v-0zM8.029 6.059v18.615c0 0 0.16 1.21 1.126 1.21h5.226l-6.994 1.928c0 0-0.404 0.2-0.605-0.241l-5.146-19.1c0 0-0.201-0.605 0.281-0.765l6.112-1.647zM23.971 6.019l6.112 1.647c0.484 0.161 0.284 0.762 0.284 0.762l-5.149 19.103c-0.2 0.441-0.602 0.241-0.602 0.241l-6.997-1.931h5.226c0.965 0 1.126-1.206 1.126-1.206v-18.616zM22.748 4.208c0.281 0 0.321 0.361 0.321 0.361l-0 20.026c0 0.323-0.32 0.404-0.32 0.404h-13.473c-0.281 0-0.281-0.404-0.281-0.404v-20.026c0-0.241 0.281-0.361 0.281-0.361h13.473zM16.933 6.494q-2.142 0-3.753 1.762t-1.612 4.133q0 1.681 0.99 2.729t2.556 1.048q0.322 0 0.633-0.046t0.633-0.138q0.438-0.138 0.887-0.392t0.979-0.668l0.046 0.069q-0.207 0.438-0.415 0.806t-0.414 0.714q-0.415 0.645-0.829 1.163t-0.967 1.025q-0.898 0.875-2.107 1.566t-2.475 1.105q-0.092 0.023-0.196 0.058t-0.219 0.035l0.622 0.645q3.615-0.345 6.597-3.258t3.396-6.321q0.023-0.23 0.035-0.449t0.012-0.449q0-2.257-1.22-3.696t-3.178-1.439zM16.91 7.323q1.059 0 1.739 0.956t0.679 2.429q0 0.622-0.127 1.313t-0.403 1.52v0.023q-0.345 0.322-0.668 0.553t-0.645 0.368q-0.368 0.184-0.737 0.265t-0.783 0.081q-1.013 0-1.612-0.714t-0.599-1.911q0-1.98 0.933-3.431t2.222-1.451z"></path>
</svg>
