<!-- Generated by IcoMoon.io -->
<svg version="1.1" xmlns="http://www.w3.org/2000/svg" width="23" height="32" viewBox="0 0 23 32">
<title>a25</title>
<path fill="#444" d="M11.582 0.115c0.007-0.053 0.043-0.116 0.105-0.115 0.074-0.001 0.105 0.080 0.112 0.142 0.731 4.492 1.463 8.985 2.195 13.477 0.404 0.044 0.807 0.1 1.207 0.167 0.775-3.256 1.448-6.541 1.903-9.859-0.004-0.139 0.209-0.19 0.224-0.032 0.688 3.747 1.374 7.494 2.061 11.24 0.257 0.137 0.509 0.286 0.754 0.444 0.608-2.308 1.218-4.616 1.827-6.923 0.024-0.053 0.096-0.074 0.139-0.027s0.044 0.115 0.054 0.175c0.391 3.533 0.788 7.065 1.178 10.598-1.446 0.78-2.827 1.685-4.103 2.721 0.861 0.71 1.52 1.671 1.832 2.745 0.402 1.372 0.285 2.907-0.398 4.172-0.504 0.947-1.32 1.715-2.274 2.201-1.173 0.602-2.517 0.802-3.825 0.751-1.682-0.076-3.38-0.687-4.597-1.877-2.98 0-5.96 0-8.939 0-0.277-0.549-0.554-1.098-0.831-1.647 1.627-1.781 3.242-3.586 4.603-5.584-1.422-1.372-3.035-2.545-4.774-3.483 0.393-3.546 0.789-7.091 1.184-10.636-0.007-0.087 0.082-0.222 0.171-0.134 0.049 0.078 0.052 0.175 0.078 0.262 0.588 2.227 1.176 4.455 1.763 6.682 0.246-0.161 0.5-0.309 0.76-0.447 0.686-3.744 1.369-7.488 2.055-11.232 0.007-0.051 0.042-0.093 0.091-0.108 0.075 0.001 0.121 0.070 0.133 0.137 0.5 3.31 1.176 6.592 1.906 9.859 0.4-0.067 0.801-0.122 1.204-0.166 0.734-4.501 1.466-9.003 2.2-13.503zM5.595 15.547c-1.036 0.235-2.009 0.722-2.848 1.369-0.542 0.428-1.048 0.928-1.365 1.549 1.101 0.591 2.124 1.314 3.115 2.071 0.086-0.084 0.171-0.168 0.256-0.253-0.181-0.655-0.26-1.37-0.043-2.026 0.127-0.392 0.393-0.755 0.777-0.924 0.494-0.216 1.090-0.158 1.549 0.119 0.401 0.238 0.669 0.664 0.752 1.119 0.105 0.565 0.014 1.148-0.147 1.694-0.232 0.761-0.617 1.465-1.040 2.136-0.683 1.070-1.476 2.063-2.287 3.037-0.95 1.134-1.94 2.234-2.933 3.331 0.050 0.1 0.1 0.199 0.151 0.299 2.809 0 5.619 0 8.428-0 0.721-1.155 1.442-2.31 2.163-3.465-0.126 0.007-0.255-0.018-0.378 0.011-0.564 0.223-1.122 0.464-1.687 0.682-1.485 0.010-2.971 0.002-4.456 0.004 1.172-1.265 2.487-2.386 3.793-3.508 0.499-0.437 0.996-0.886 1.386-1.426 0.315-0.434 0.54-0.935 0.631-1.464 0.113-0.665 0.069-1.364-0.176-1.995-0.225-0.582-0.619-1.093-1.114-1.471-0.599-0.462-1.322-0.739-2.061-0.881-0.812-0.147-1.657-0.194-2.466-0.008zM18.569 17.136c-2.080 0-4.16-0-6.24 0-0.269 2.449-0.537 4.899-0.806 7.348 1.224-0.007 2.475 0.091 3.628 0.531 0.642 0.249 1.261 0.621 1.681 1.177 0.32 0.418 0.497 0.949 0.456 1.477-0.024 0.487-0.219 0.984-0.608 1.293-0.442 0.358-1.040 0.448-1.593 0.405-0.582-0.041-1.162-0.292-1.536-0.749-0.408-0.485-0.551-1.139-0.528-1.76-0.111-0.037-0.222-0.074-0.333-0.11-0.573 0.868-1.146 1.736-1.718 2.605 0.535 0.535 1.194 0.939 1.904 1.2 1.258 0.462 2.65 0.511 3.953 0.223 1.1-0.246 2.156-0.84 2.8-1.785 0.846-1.215 0.938-2.868 0.349-4.21-0.434-1.001-1.262-1.794-2.222-2.293-1.277-0.668-2.733-0.898-4.159-0.939 0.057-0.547 0.114-1.095 0.17-1.643 2.102-0 4.205 0 6.307-0-0.169-1.238-0.338-2.477-0.508-3.715-0.117-0-0.233-0-0.349-0-0.217 0.315-0.432 0.631-0.649 0.946z"></path>
</svg>
