<!-- Generated by IcoMoon.io -->
<svg version="1.1" xmlns="http://www.w3.org/2000/svg" width="24" height="32" viewBox="0 0 24 32">
<title>acr</title>
<path fill="#444" d="M11.988 1.724l0.025-0.005c0.204 0.573 0.444 1.137 0.663 1.706 1.406 3.57 2.812 7.14 4.218 10.71 0.236 0.585 0.452 1.178 0.705 1.757 0.335 0.736 0.759 1.448 1.35 2.008 0.486 0.465 1.105 0.804 1.776 0.9 0.879 0.126 1.783-0.125 2.532-0.585 0.036-0.011 0.064-0.077 0.105-0.039l-0.058 0.038c-0.483 1.073-0.711 2.277-0.595 3.455 0.059 0.661 0.234 1.31 0.491 1.921-0.396-0.161-0.845-0.203-1.258-0.085-0.373 0.102-0.711 0.304-1.020 0.534-1.032 1.062-2.291 1.883-3.631 2.505-1.302 0.599-2.681 1.034-4.094 1.275-0.144 0.014-0.293 0.066-0.436 0.036 0.446-0.072 0.879-0.219 1.309-0.356 0.855-0.294 1.689-0.672 2.423-1.203 0.562-0.409 1.064-0.918 1.387-1.538 0.334-0.632 0.445-1.37 0.349-2.076-0.079-0.698-0.375-1.34-0.625-1.988-1.849-4.757-3.691-9.517-5.535-14.276-0.018-0.059-0.057-0.112-0.056-0.177l-0.027 0.022c-1.985 5.118-3.96 10.239-5.953 15.354-0.236 0.649-0.36 1.352-0.265 2.041 0.080 0.607 0.339 1.184 0.715 1.665 0.428 0.552 0.988 0.987 1.586 1.341 0.76 0.444 1.585 0.768 2.428 1.013 0.231 0.060 0.46 0.139 0.696 0.173l-0.007 0.018c-0.748-0.080-1.481-0.265-2.203-0.47-2.185-0.65-4.301-1.71-5.907-3.356-0.377-0.291-0.812-0.531-1.292-0.589-0.336-0.045-0.677 0.020-0.993 0.136 0.764-1.71 0.677-3.749-0.133-5.427 0.71 0.46 1.564 0.725 2.414 0.661 0.726-0.053 1.41-0.392 1.939-0.886 0.789-0.735 1.285-1.721 1.666-2.715 1.77-4.499 3.541-8.997 5.31-13.497zM23.894 24.194c0.043-0.033 0.041-0.103 0.099-0.123 0.032 0.053-0.052 0.085-0.074 0.124-0.763 0.959-1.637 1.826-2.578 2.609-1.186 0.979-2.496 1.816-3.911 2.423-1.592 0.687-3.322 1.067-5.058 1.053-0.548-0.013-1.097 0.018-1.644-0.029-1.755-0.118-3.472-0.636-5.035-1.436-1.452-0.744-2.783-1.713-3.965-2.835-0.62-0.587-1.203-1.214-1.728-1.888 0.25 0.236 0.477 0.501 0.727 0.739 1.675 1.651 3.662 3.032 5.899 3.798 0.932 0.313 1.91 0.52 2.896 0.506 0.673-0.018 1.382-0.13 1.942-0.529 0.248-0.171 0.426-0.426 0.543-0.696 0.148 0.475 0.585 0.795 1.033 0.97 0.755 0.29 1.587 0.292 2.381 0.203 1.559-0.197 3.044-0.796 4.396-1.58 1.519-0.885 2.876-2.030 4.076-3.312z"></path>
</svg>
