<!-- Generated by IcoMoon.io -->
<svg version="1.1" xmlns="http://www.w3.org/2000/svg" width="32" height="32" viewBox="0 0 32 32">
<title>aer</title>
<path fill="#444" d="M7.838 4.027c0.951-0.648 2.148-0.896 3.284-0.761 0.974 0.128 1.941 0.552 2.596 1.3 0.421 0.476 0.666 1.124 0.576 1.761-0.088 0.747-0.575 1.36-1.053 1.907-0.454 0.453-1.014 0.777-1.547 1.127-2.117 1.337-4.262 2.708-5.954 4.58-1.608 1.73-2.395 4.169-2.181 6.513 0.139 1.573 0.84 3.079 1.915 4.23 0.955 1.030 2.264 1.774 3.68 1.886 0.397 0.023 0.846 0.089 1.186-0.168 0.266-0.181 0.336-0.533 0.298-0.834-0.074-0.616-0.452-1.158-0.929-1.539-0.676-0.544-1.472-0.913-2.276-1.226-0.614-0.249-1.237-0.506-1.762-0.919-0.303-0.239-0.575-0.559-0.636-0.952-0.049-0.401 0.021-0.81 0.162-1.186 0.221 0.358 0.556 0.703 1.003 0.724 0.339-0.001 0.703-0.035 0.995-0.224 0.255-0.17 0.254-0.519 0.188-0.786-0.208-0.873-0.725-1.683-0.684-2.606 0.014-0.485 0.303-0.913 0.671-1.211 0.633-0.523 1.443-0.735 2.188-1.046 0.275-0.123 0.573-0.257 0.746-0.518 0.19-0.32 0.189-0.761-0.052-1.056-0.291-0.362-0.749-0.521-1.183-0.638 0.659-0.155 1.366-0.138 1.999 0.115 0.61 0.24 1.148 0.647 1.586 1.13 0.527 0.617 0.261 1.637-0.412 2.033-0.921 0.542-1.748 1.424-1.886 2.523-0.114 0.758 0.579 1.419 1.303 1.473-0.201-0.565-0.203-1.199 0.028-1.755 0.252-0.669 0.788-1.165 1.214-1.722 0.739-0.924 1.365-1.941 1.825-3.031 0.529-1.237 0.909-2.53 1.271-3.823 0.445 1.547 0.892 3.106 1.613 4.552 0.429 0.865 0.974 1.668 1.58 2.419 0.394 0.502 0.866 0.96 1.104 1.563 0.246 0.567 0.253 1.219 0.045 1.798 0.552-0.050 1.076-0.417 1.26-0.947 0.115-0.373 0.027-0.774-0.105-1.13-0.321-0.825-0.985-1.474-1.737-1.917-0.674-0.395-0.938-1.415-0.412-2.032 0.583-0.644 1.351-1.163 2.221-1.306 0.453-0.081 0.917-0.037 1.364 0.058-0.419 0.116-0.859 0.266-1.153 0.603-0.32 0.353-0.287 0.97 0.080 1.277 0.304 0.25 0.685 0.374 1.047 0.514 0.749 0.282 1.558 0.569 2.072 1.219 0.31 0.373 0.381 0.888 0.297 1.354-0.117 0.74-0.494 1.404-0.664 2.13-0.063 0.262-0.058 0.602 0.193 0.766 0.292 0.188 0.655 0.222 0.993 0.223 0.447-0.019 0.784-0.364 1.003-0.723 0.143 0.377 0.216 0.787 0.166 1.189-0.067 0.426-0.381 0.762-0.715 1.010-0.683 0.503-1.497 0.768-2.269 1.097-0.627 0.278-1.242 0.605-1.767 1.050-0.424 0.358-0.754 0.85-0.843 1.403-0.040 0.261-0.022 0.557 0.148 0.773 0.155 0.185 0.39 0.293 0.628 0.317 1.214 0.064 2.431-0.334 3.41-1.049 1.401-1.020 2.4-2.577 2.761-4.271 0.531-2.629-0.303-5.496-2.158-7.433-1.735-1.882-3.925-3.249-6.070-4.609-0.553-0.369-1.148-0.713-1.556-1.252-0.44-0.53-0.841-1.154-0.848-1.865-0.027-0.794 0.448-1.516 1.060-1.984 1.5-1.153 3.708-1.167 5.293-0.176 0.589 0.38 1.107 0.933 1.31 1.616 0.171 0.558-0.171 1.142-0.628 1.448-0.558 0.36-1.27 0.331-1.892 0.178 0.306-0.264 0.629-0.583 0.667-1.008 0.012-0.414-0.366-0.707-0.719-0.838-0.527-0.204-1.24 0.042-1.42 0.605-0.132 0.597 0.277 1.138 0.686 1.524 1.125 1.033 2.46 1.8 3.785 2.545 1.608 0.832 3.125 1.896 4.297 3.29 0.761 0.908 1.356 1.974 1.618 3.136 0.505 2.346 0.025 4.859-1.223 6.9-1.193 1.962-2.931 3.597-4.977 4.644-1.044 0.523-2.216 0.896-3.396 0.757-1.099-0.11-2.205-0.511-3.004-1.295-0.385-0.373-0.529-0.945-0.419-1.463 0.145-0.732 0.596-1.366 1.12-1.879 0.393-0.393 0.897-0.638 1.327-0.983 0.821-0.635 1.62-1.486 1.704-2.573-0.497 0.324-1.063 0.517-1.627 0.688-0.727 0.228-1.441 0.547-2.020 1.052-0.505 0.435-0.879 1.002-1.159 1.603-0.429 0.913-0.704 1.887-0.993 2.85-0.328-1.027-0.704-2.083-0.606-3.179 0.047-0.573 0.234-1.124 0.48-1.641 0.457-0.99 0.802-2.090 0.64-3.191-0.179-1.002-0.896-1.785-1.592-2.479-0.69 0.699-1.41 1.478-1.589 2.481-0.164 1.118 0.195 2.233 0.661 3.237 0.284 0.597 0.472 1.248 0.473 1.913 0.008 0.988-0.32 1.933-0.622 2.861-0.278-0.934-0.548-1.875-0.952-2.764-0.273-0.602-0.632-1.175-1.124-1.622-0.561-0.517-1.265-0.848-1.984-1.084-0.6-0.185-1.209-0.377-1.738-0.725 0.063 0.892 0.635 1.644 1.28 2.22 0.395 0.364 0.846 0.658 1.292 0.955 0.684 0.501 1.254 1.194 1.519 2.007 0.189 0.564 0.107 1.241-0.32 1.677-0.8 0.812-1.927 1.223-3.045 1.335-1.216 0.143-2.422-0.258-3.491-0.807-1.884-0.987-3.498-2.473-4.663-4.249-0.985-1.502-1.586-3.269-1.63-5.071-0.024-1.073 0.092-2.167 0.502-3.166 0.687-1.7 2.004-3.065 3.469-4.128 0.617-0.448 1.268-0.851 1.946-1.202 1.093-0.597 2.172-1.228 3.17-1.975 0.407-0.312 0.813-0.636 1.139-1.035 0.246-0.308 0.434-0.705 0.366-1.109-0.070-0.338-0.374-0.579-0.691-0.676-0.458-0.146-0.98 0.030-1.29 0.387-0.145 0.165-0.213 0.401-0.149 0.615 0.093 0.36 0.371 0.627 0.642 0.863-0.622 0.153-1.332 0.181-1.89-0.177-0.459-0.307-0.803-0.892-0.629-1.45 0.188-0.636 0.656-1.157 1.189-1.535z"></path>
</svg>
