<!-- Generated by IcoMoon.io -->
<svg version="1.1" xmlns="http://www.w3.org/2000/svg" width="24" height="32" viewBox="0 0 24 32">
<title>afc</title>
<path fill="#444" d="M15.316 2.091v0c2.551 0.496 4.961 1.68 6.893 3.42-0.081 1.134-0.013 2.272-0.061 3.406-0.62-0.404-1.36-0.53-2.089-0.443-0.494 0.178-1.001 0.37-1.366 0.766-0.831 0.741-1.18 1.918-0.962 3.003 0.217 0.7 0.592 1.388 1.247 1.766 0.756 0.485 1.683 0.323 2.53 0.361 0.457 1.556 0.986 3.096 1.692 4.559l-0.016 0.106c-2.498 3.623-5.679 6.74-9.174 9.4-0.647 0.534-1.324 1.026-2.011 1.507-0.681-0.488-1.378-0.956-2.011-1.507-3.494-2.659-6.676-5.777-9.174-9.4l-0.016-0.106c0.706-1.463 1.235-3.003 1.692-4.559 0.847-0.038 1.774 0.123 2.53-0.361 0.654-0.378 1.030-1.066 1.247-1.766 0.218-1.085-0.13-2.262-0.962-3.003-0.365-0.396-0.872-0.587-1.366-0.766-0.729-0.087-1.469 0.038-2.089 0.443-0.058-3.374-0.090-3.382-0.061-3.408 2.006-1.822 4.346-2.889 6.856-3.41 0.013-0.003 0.025-0.005 0.038-0.008 0.048 1.192 0.761 2.289 1.738 2.941 0.489 0.259 1.066 0.459 1.638 0.431v-0.002c0.533-0.009 1.048-0.187 1.518-0.429 0.977-0.652 1.69-1.749 1.738-2.941zM10.148 5.333c-0.202 0.193-0.319 0.453-0.425 0.707-0.307 0.749-0.567 1.538-0.547 2.359 0.025 0.433-0.085 0.919 0.183 1.298 0.374 0.359 0.684 0.78 0.924 1.241 0.406 0.66 0.782 1.36 0.915 2.132-0.031-0.032-0.096-0.097-0.127-0.129-0.61-0.685-1.024-1.543-1.759-2.119-0.733-0.712-1.657-1.189-2.36-1.933-0.684-0.657-1.2-1.467-1.59-2.327-0.078 0.572-0.059 1.151-0.043 1.726 1.14 0.798 1.848 2.194 1.719 3.591-0.065 1.266-0.842 2.508-2.030 2.997-0.62 0.285-1.318 0.262-1.984 0.244-0.232 0.948-0.61 1.845-0.956 2.753 0.476-0.413 0.959-0.833 1.546-1.084 1.011-0.578 2.121-0.991 3.289-1.078-0.494-0.272-1.025-0.463-1.576-0.577 0.523-0.464 1.154-0.8 1.817-1.016 1.311-0.44 2.72-0.252 4.017 0.135 0.014 0.048 0.043 0.142 0.057 0.189-1.183-0.112-2.397-0.006-3.506 0.443 0.654 0.303 1.4 0.498 1.881 1.073-1.462 0.206-2.866 0.87-3.925 1.902 0.019 0.022 0.056 0.063 0.074 0.085 0.93-0.071 1.876 0.133 2.697 0.572 0.752 0.425 1.336 1.115 1.707 1.888 0.279 0.872 0.39 2.059-0.467 2.647 0.342 0.144 0.697 0.104 1.046 0.005-0.15 0.409-0.386 0.787-0.694 1.096-0.465 0.414-1.113 0.453-1.682 0.632 1.584 0.312 3.292 0.532 4.826-0.115 0.749-0.287 1.327-0.875 1.8-1.503-0.677 0.274-1.622 0.327-2.107-0.321-0.291-0.312-0.055-0.714 0.157-0.991-0.202-0.002-0.403 0-0.605 0.001-0.246-0.166-0.516-0.354-0.579-0.666-0.136-0.4 0.243-0.7 0.483-0.959-0.37 0.028-0.721-0.066-1.001-0.315-0.060-0.249-0.169-0.505-0.091-0.763 0.103-0.445 0.5-0.737 0.885-0.933-0.58-0.496-1.315-0.691-2.050-0.811 1.273-0.501 2.647-0.14 3.881 0.29 0.415 0.202 0.782 0.54 0.931 0.986 0.102 0.297-0.112 0.553-0.25 0.794 0.864 0.091 1.815 0.292 2.386 1.008 0.447 0.486 0.502 1.204 0.307 1.812 0.741-0.291 1.403-0.798 1.821-1.481 0.556-0.816 0.668-1.817 0.78-2.772-0.418 0.526-0.89 1.034-1.564 1.219 0.078-0.432 0.062-0.875-0.258-1.206-0.168-0.056-0.334-0.114-0.5-0.169 0.41-1.461-0.012-3.055-0.951-4.223-1.115-1.439-2.263-2.852-3.34-4.32-0.663-0.896-0.934-2.015-0.915-3.118-0.307 0.56-0.5 1.177-0.564 1.814 0.041 0.23 0.083 0.459 0.134 0.688 1.017 1.566 2.396 2.88 3.267 4.544 0.288 0.574 0.54 1.18 0.616 1.823-0.146-0.077-0.254-0.188-0.323-0.333-0.857-1.658-2.048-3.11-3.247-4.528-0.751-0.939-1.533-1.885-1.987-3.012-0.293-0.586-0.151-1.266-0.144-1.894zM13.487 14.167c1.094 0.599 1.844 1.773 2.045 2.993-0.406-0.044-0.872-0.055-1.165-0.386-0.499-0.516-0.815-1.194-0.967-1.89-0.063-0.243 0.019-0.486 0.087-0.717z"></path>
</svg>
