<!-- Generated by IcoMoon.io -->
<svg version="1.1" xmlns="http://www.w3.org/2000/svg" width="24" height="32" viewBox="0 0 24 32">
<title>xdnd-border</title>
<path fill="#444" d="M11.875 2.288l11.875 6.856v13.712l-11.875 6.856-11.875-6.856v-13.712l11.875-6.856zM11.875 3.534l-10.795 6.233v12.466l10.795 6.233 10.795-6.233v-12.466l-10.795-6.233zM10.725 6.023c-0.055 2.94 2.108 4.025 3.609 5.389 1.001 0.909 2.036 2.114 3.104 3.615-0.052-1.848-2.797-3.959-4.007-5.141-0.806-0.788-0.912-1.838-0.318-3.149-0.054 1.062 0.481 2.161 1.605 3.298 1.275 1.068 2.471 2.137 3.586 3.208s1.526 2.389 1.232 3.953c0.689 0.029 0.994 0.398 0.915 1.107 0.665-0.227 1.115-0.733 1.349-1.519 0.266 2.292-0.426 3.881-2.075 4.767 0.221-1.727-0.803-2.462-3.072-2.206 0.422-0.687 0.213-1.232-0.626-1.636-1.688-0.528-3.067-0.374-4.138 0.463 0.764-0.266 1.475-0.21 2.132 0.166-0.54 0.326-0.772 0.82-0.648 1.527 0.083 0.471 0.478 0.643 1.186 0.516-0.449 0.261-0.553 0.78-0.314 1.2 0.159 0.28 0.563 0.352 1.21 0.214-0.33 0.166-0.506 1.015 0.38 1.279 0.591 0.176 1.14 0.072 1.649-0.313-1.289 2.159-3.533 3.087-6.732 2.783 1.554-0.406 2.329-1.119 2.324-2.136-0.285 0.238-0.648 0.33-1.090 0.275l-0.013-0.002 0.001-0.001c0.044-0.044 1.146-1.168-0.001-2.928-0.78-1.197-2.31-1.665-4.589-1.402 0.755-1.348 2.007-2.242 3.757-2.68-0.432-0.483-1.085-0.722-1.958-0.716 0.771-0.677 1.953-1.051 3.545-1.123-2.503-0.534-4.481 0.062-5.932 1.788 0.756-0.070 1.297 0.023 1.623 0.278-1.667 0.334-3.043 1.16-4.129 2.48 0.581-2.5-0.324-3.666-2.715-3.496 0.873-0.971 1.864-1.636 2.974-1.993 0.534-0.169 0.759-0.592 0.676-1.269s-0.597-1.219-1.541-1.626c1.023-0.165 1.935-0.128 2.738 0.112-0.55-0.953-0.716-1.944-0.499-2.974 0 0 1.518 2.164 3.445 2.952 1.284 0.525 2.308 1.327 3.071 2.406-0.287-1.067-1.052-2.049-2.296-2.947-0.408-1.665-0.214-3.171 0.581-4.52zM15.094 14.938c0.243 0.656 0.592 1.259 1.339 1.706 0.316 0.176 0.601 0.176 0.854 0-0.24-0.995-0.921-1.773-2.043-2.334-0.262-0.019-0.312 0.191-0.149 0.628z"></path>
</svg>
