<!-- Generated by IcoMoon.io -->
<svg version="1.1" xmlns="http://www.w3.org/2000/svg" width="24" height="32" viewBox="0 0 24 32">
<title>xdnd</title>
<path fill="#444" d="M11.875 3.534l10.795 6.233v12.466l-10.795 6.233-10.795-6.233v-12.466l10.795-6.233zM10.725 6.023c-0.795 1.348-0.989 2.855-0.581 4.52 1.244 0.897 2.009 1.879 2.296 2.947-0.763-1.079-1.787-1.881-3.071-2.406-1.927-0.787-3.445-2.952-3.445-2.952-0.217 1.030-0.051 2.021 0.499 2.974-0.802-0.24-1.715-0.277-2.738-0.112 0.944 0.406 1.458 0.948 1.541 1.626s-0.142 1.101-0.676 1.269c-1.109 0.357-2.1 1.021-2.974 1.993 2.391-0.17 3.296 0.996 2.715 3.496 1.086-1.319 2.462-2.146 4.129-2.48-0.326-0.255-0.867-0.347-1.623-0.278 1.451-1.726 3.428-2.322 5.932-1.788-1.592 0.072-2.774 0.446-3.545 1.123 0.873-0.005 1.526 0.233 1.958 0.716-1.749 0.438-3.002 1.331-3.757 2.68 2.279-0.263 3.809 0.204 4.589 1.402 1.147 1.76 0.046 2.884 0.001 2.928l-0.001 0.001 0.013 0.002c0.442 0.055 0.806-0.037 1.090-0.275 0.005 1.018-0.77 1.73-2.324 2.136 3.199 0.304 5.443-0.624 6.732-2.783-0.509 0.385-1.059 0.489-1.649 0.313-0.886-0.264-0.709-1.113-0.38-1.279-0.648 0.138-1.051 0.066-1.21-0.214-0.239-0.42-0.135-0.938 0.314-1.2-0.708 0.127-1.104-0.044-1.186-0.516-0.124-0.707 0.108-1.201 0.648-1.527-0.658-0.377-1.368-0.432-2.132-0.166 1.071-0.837 2.45-0.991 4.138-0.463 0.84 0.403 1.048 0.948 0.626 1.636 2.269-0.256 3.293 0.479 3.072 2.206 1.649-0.886 2.341-2.475 2.075-4.767-0.234 0.786-0.684 1.292-1.349 1.519 0.079-0.709-0.225-1.078-0.915-1.107 0.294-1.564-0.117-2.882-1.232-3.953s-2.311-2.14-3.586-3.208c-1.125-1.137-1.66-2.236-1.605-3.298-0.595 1.311-0.489 2.361 0.318 3.149 1.21 1.182 3.955 3.293 4.007 5.141-1.069-1.501-2.104-2.706-3.104-3.615-1.501-1.364-3.665-2.449-3.609-5.389zM15.197 14.309l0.047 0.001c1.122 0.561 1.803 1.339 2.043 2.334-0.253 0.176-0.538 0.176-0.854 0-0.746-0.447-1.095-1.049-1.339-1.706-0.046-0.144-0.171-0.448-0.034-0.579 0.045-0.043 0.078-0.039 0.137-0.050z"></path>
</svg>
