<!-- Generated by IcoMoon.io -->
<svg version="1.1" xmlns="http://www.w3.org/2000/svg" width="30" height="32" viewBox="0 0 30 32">
<title>akh</title>
<path fill="#444" d="M5.119 11.925c3.207-3.728 6.418-7.453 9.627-11.18 3.231 3.767 6.472 7.526 9.697 11.299-3.232 1.953-6.456 3.919-9.685 5.877-3.214-1.998-6.426-3.997-9.639-5.995zM7.476 11.814c2.163 1.346 4.321 2.7 6.483 4.049 0.001-4.051 0.001-8.101 0.001-12.152-2.162 2.701-4.327 5.399-6.484 8.104zM2.107 20.895c0.832-0.928 1.662-1.855 2.494-2.782 3.118 1.893 6.235 3.786 9.352 5.679 0.002 1.438-0.001 2.876 0.002 4.313-3.951-2.4-7.9-4.806-11.848-7.211zM0.028 21.068c4.906 3.042 9.815 6.082 14.723 9.122 4.907-2.976 9.814-5.954 14.721-8.931-1.442-1.698-2.884-3.397-4.325-5.096-3.47 2.102-6.936 4.21-10.406 6.312-3.45-2.143-6.9-4.289-10.35-6.433-1.454 1.677-2.909 3.35-4.362 5.026z"></path>
</svg>
