<!-- Generated by IcoMoon.io -->
<svg version="1.1" xmlns="http://www.w3.org/2000/svg" width="25" height="32" viewBox="0 0 25 32">
<title>akr</title>
<path fill="#444" d="M9.766 1.406c0.256 1.509 0.463 3.031 0.497 4.563 0.023 0.785-0.009 1.573-0.125 2.351-0.082 0.566-0.226 1.124-0.433 1.658-0.36 0.883-0.933 1.659-1.557 2.373-0.405 0.453-0.83 0.888-1.279 1.298-0.122 0.122-0.263 0.223-0.4 0.327-0.564 0.45-1.128 0.913-1.577 1.482-0.273 0.334-0.504 0.73-0.53 1.17-0.049 0.424 0.123 0.85 0.407 1.16 0.17 0.193 0.371 0.359 0.586 0.499 2.383 1.4 4.764 2.804 7.147 4.205 2.381-1.404 4.764-2.804 7.145-4.206 0.351-0.244 0.69-0.539 0.87-0.936 0.186-0.393 0.159-0.862-0.012-1.255-0.175-0.391-0.455-0.723-0.745-1.033-0.457-0.474-0.972-0.888-1.493-1.287-0.427-0.374-0.827-0.778-1.213-1.194-0.694-0.768-1.344-1.601-1.741-2.565-0.513-1.271-0.599-2.662-0.583-4.018 0.037-1.54 0.24-3.071 0.503-4.588-0.1 1.422 0.085 2.861 0.526 4.216 0.348 1.066 0.834 2.086 1.431 3.035 0.54 0.865 1.206 1.651 1.964 2.332 1.161 0.981 2.383 1.897 3.697 2.665 0.677 0.458 1.289 1.042 1.675 1.77 0.147 0.285 0.267 0.585 0.338 0.898 0.171 0.808 0.213 1.672-0.072 2.46-0.288 0.821-0.911 1.493-1.643 1.945-3.547 2.060-7.099 4.112-10.649 6.169-3.501-2.028-7.004-4.054-10.504-6.084-0.429-0.24-0.812-0.558-1.14-0.922-0.367-0.429-0.638-0.943-0.762-1.495-0.124-0.549-0.119-1.121-0.029-1.675 0.064-0.522 0.234-1.033 0.51-1.481 0.375-0.628 0.924-1.134 1.519-1.55 0.283-0.175 0.571-0.343 0.852-0.524 1.039-0.681 2.034-1.429 2.973-2.242 0.781-0.731 1.48-1.558 2.020-2.483 0.723-1.215 1.293-2.531 1.594-3.915 0.229-1.022 0.3-2.077 0.231-3.122zM12.502 9.888c-2.022 2.34-4.043 4.682-6.065 7.022 2.023 1.204 4.043 2.413 6.064 3.619 2.022-1.204 4.043-2.412 6.063-3.619-2.023-2.339-4.042-4.681-6.062-7.021zM0.675 23.588c3.918 2.326 7.837 4.65 11.752 6.979 0.045 0.036 0.105 0.037 0.15-0 3.918-2.324 7.836-4.647 11.749-6.979-0.377-0.435-0.75-0.875-1.127-1.311-3.567 2.154-7.127 4.321-10.697 6.47-3.569-2.152-7.133-4.311-10.698-6.47-0.377 0.436-0.75 0.877-1.129 1.311z"></path>
</svg>
