<!-- Generated by IcoMoon.io -->
<svg version="1.1" xmlns="http://www.w3.org/2000/svg" width="26" height="32" viewBox="0 0 26 32">
<title>ala</title>
<path fill="#444" d="M9.978 4.395l-4.398 3.279v16.651l4.398 3.279-1.759-2.96v-17.29l1.759-2.96zM3.528 8.822v14.36l-1.756-1.174-1.759-6.447 1.759-5.568 1.756-1.171zM15.839 27.605l4.398-3.279v-16.651l-4.398-3.279 1.756 2.96v17.29l-1.756 2.96zM12.908 29.335l2.638-5.275v-16.119l-2.637-5.276-2.637 5.276v16.119l2.637 5.275zM22.285 23.182v-14.36l1.759 1.171 1.756 5.568-1.756 6.447-1.759 1.174z"></path>
</svg>
