<!-- Generated by IcoMoon.io -->
<svg version="1.1" xmlns="http://www.w3.org/2000/svg" width="32" height="32" viewBox="0 0 32 32">
<title>all</title>
<path fill="#444" d="M25.036 14.538l-0.689-0.059 0.804 1.896c-3.445-2.183-6.718-1.035-6.718-1.035-0.344-1.379 0.059-3.273 0.059-3.273 3.501-1.664 8.841 0.403 8.841 0.403-1.723 1.146-2.297 2.067-2.297 2.067zM20.593 16.804l-0.838-0.429c0.401-0.344 0.862-0.287 0.862-0.287l-0.023 0.716zM17.802 17.234c-1.263-0.745-7.35-3.904-13.492-3.387 0 0 2.468-0.862 4.536-1.205 0 0-0.458-0.745-2.986-1.951 0 0 5.627 0.057 11.484 3.617 0 0 0 0.975 0.344 1.78 0.344 0.802 0.862 0.572 0.862 0.572s0.802 0.634 1.492 0.862c0 0-0.977 0.46-2.24-0.287zM26.185 16.66c0 0-0.195-0.608-0.596-1.47 0 0 1.113-1.229 2.663-2.031l-2.067 3.5zM30.574 9.267c-0.769 0-1.393 0.623-1.393 1.394 0 0.384 0.156 0.73 0.408 0.984l-0.275 0.466-0.847-0.034c-0.395-0.152-0.853-0.332-0.853-0.332-0.232-0.089-5.695-2.166-9.455-0.378l-0.346 0.165-0.080 0.373c-0.011 0.049-0.152 0.743-0.198 1.617-4.487-2.671-8.906-3.363-10.758-3.547-1.984-0.196-3.959-0.004-3.959-0.004 2.642 1.235 4.261 2.251 4.261 2.251s-2.424 0.331-7.046 2.599l4.343-0.203c6.472-0.545 12.768 3.125 13.034 3.281 1.073 0.636 2.141 0.655 2.751 0.401 1.484-0.61 1.214-2.451 1.214-2.451 0.988 0.102 2.158 0.416 3.362 1.178l0.846 0.551-2.584 4.464 0.976 0.689 6.028-9.819-0.114-0.458 0.277-0.471c0.129 0.040 0.266 0.070 0.41 0.070 0.771 0 1.393-0.625 1.393-1.393 0-0.771-0.623-1.394-1.393-1.394z"></path>
</svg>
