<!-- Generated by IcoMoon.io -->
<svg version="1.1" xmlns="http://www.w3.org/2000/svg" width="21" height="32" viewBox="0 0 21 32">
<title>apc</title>
<path fill="#444" d="M10.294 21.265h-3.186c-0.973 2.015-0.715 5.267-0.715 5.267s-2.276-3.057-2.276-6.633c0-3.576 2.537-7.152 2.537-7.152 0.586-0.259 2.534-0.325 2.534-0.325s-1.495-3.186-4.225-2.339c-2.733 0.844-3.576 3.9-3.576 3.9 1.171-0.715 3.705-0.846 3.705-0.846s-2.342 2.733-2.342 6.633c0 3.901 4.423 9.558 4.423 9.558s-7.153-1.429-7.153-13.005c0-11.473 8.944-13.616 10.431-13.654h0.071c1.367 0 10.468 2.081 10.468 13.657 0 11.573-7.153 13.005-7.153 13.005s4.423-5.657 4.423-9.561c0-3.9-2.342-6.633-2.342-6.633s2.534 0.132 3.705 0.846c0 0-0.844-3.057-3.576-3.9-2.73-0.847-4.225 2.339-4.225 2.339s1.949 0.066 2.534 0.325c0 0 2.537 3.579 2.537 7.155s-2.276 6.63-2.276 6.63c0 0 0.258-3.251-0.715-5.267h-3.611z"></path>
</svg>
