<!-- Generated by IcoMoon.io -->
<svg version="1.1" xmlns="http://www.w3.org/2000/svg" width="24" height="32" viewBox="0 0 24 32">
<title>arb</title>
<path fill="#444" d="M23.291 16v8.086l-1.979-1.396-2.095-5.353h-2.327l2.807 8.367-2.982 1.342-1.977-9.709h-1.862l1.52 10.752-2.741 1.235-2.744-1.235 1.523-10.752h-1.865l-1.974 9.709-2.986-1.342 2.808-8.367h-2.328l-2.091 5.353-1.98 1.396v-16.174l1.98 1.397 2.091 5.353h2.328l-2.808-8.364 2.986-1.345 1.974 9.709h1.865l-1.523-10.752 2.744-1.233 2.741 1.233-1.52 10.752h1.862l1.977-9.709 2.982 1.345-2.807 8.364h2.327l2.095-5.353 1.979-1.397v8.088z"></path>
</svg>
