<!-- Generated by IcoMoon.io -->
<svg version="1.1" xmlns="http://www.w3.org/2000/svg" width="26" height="32" viewBox="0 0 26 32">
<title>arc</title>
<path fill="#444" d="M12.999 31.168l-8.484-8.681 0.901-1.129-5.187-4.792c0-9.417 8.585-14.041 8.585-14.041s-3.807 5.331-3.807 11.757c0 6.429 2.456 7.318 3.679 7.318 1.229 0 2.158-0.804 2.158-2.158 0-2.368-2.918-2.368-2.918-2.368l5.078-16.24 5.074 16.24c0 0-2.918 0-2.918 2.368 0 1.354 0.929 2.158 2.155 2.158s3.679-0.889 3.679-7.318c0-6.425-3.804-11.757-3.804-11.757s8.585 4.624 8.585 14.041l-5.187 4.792 0.901 1.129-8.487 8.681z"></path>
</svg>
