<!-- Generated by IcoMoon.io -->
<svg version="1.1" xmlns="http://www.w3.org/2000/svg" width="32" height="32" viewBox="0 0 32 32">
<title>arn</title>
<path fill="#444" d="M31.997 8.984c0 0-0.373 2.426-2.101 3.997l0.688-0.020c-1.612 1.759-2.672 1.425-2.672 1.425 0.354 0.352 0.864 0.274 0.864 0.274-1.216 1.043-3.024 1.022-3.024 1.022 0.314 0.197 0.864 0.313 0.864 0.313-1.359 0.61-2.283 0.75-2.866 0.731-1.739-0.053-2.553-0.77-2.553-0.77 0.235 0.551 0.667 0.924 0.667 0.924-7.070-0.709-10.164-3.080-10.164-3.080h-2.782l-0.162 0.161v1.421c0 0-0.016 0.113 0.102 0.113h1.587c0 0 0.285 0.008 0.285 0.303v1.286c0 0 0.5 1.356-0.295 1.356-0.796 0-0.295-1.413-0.295-1.413v-0.831c0-0.127-0.109-0.111-0.109-0.111h-1.708c-0.33 0-0.305-0.321-0.305-0.321v-1.712l-0.176-0.207h-4.361v0.884h-0.442c-0.678 0-0.795-0.913-0.795-0.913h-0.295c0.018 0-0.022 0.457-0.025 0.49-0.025 0.266-0.027 0.534-0.106 0.792-0.076 0.252-0.248 0.461-0.34 0.707-0.055 0.145 0.025 0.201 0.135 0.274 0.078 0.053 0.147 0.131 0.209 0.201 0.204 0.235 0.346 0.522 0.434 0.819 0.098 0.33 0.135 0.676 0.135 1.017 0 0.242-0.010 0.49-0.041 0.731-0.035 0.262-0.086 0.536-0.211 0.772-0.115 0.217-0.293 0.377-0.475 0.537-0.185 0.161-0.346 0.352-0.514 0.53-1.026 1.088-0.36 2.331-0.36 2.331v0c0 0-0.827-0.252-0.784-1.329 0.043-1.067 0.882-1.657 0.882-1.657s-0.737-0.647-0.737-2.062c0-0.447 0.063-0.901 0.237-1.315 0.063-0.154 0.142-0.295 0.244-0.428 0.047-0.063 0.096-0.139 0.084-0.221-0.014-0.088-0.1-0.144-0.154-0.209-0.080-0.098-0.135-0.213-0.186-0.331-0.152-0.367-0.191-0.766-0.185-1.159 0.006-0.373 0.027-0.758 0.125-1.118 0.053-0.203 0.139-0.406 0.252-0.585 0.285-0.453 0.752-0.747 1.265-0.869 0.014-0.002 0.321-0.057 0.321-0.039v-0.619c0.53-0.414 1.001 0 1.001 0v0.766l0.148 0.176h4.537l0.205-0.264v-1.091c0-0.133-0.113-0.147-0.113-0.147h-0.623c0 0-0.059 1.001-0.796 1.001s-0.913-0.854-0.913-1.237c0-0.383 0.235-1.12 0.884-1.12 0.647 0 0.776 0.709 0.776 0.709l1.217-0c0 0 0.305-0.031 0.305 0.362v1.757h4.597c0 0 3.063 2.004 8.778 2.004s9.839-5.009 9.839-5.009zM1.213 16.525c0 0-0.532 0.147-0.532 1.179 0 1.030 0.295 1.914 0.62 1.914 0.324 0 0.588-0.618 0.588-1.208s-0.147-1.886-0.676-1.886zM30.96 10.69c-1.024 0.919-2.565 2.078-4.484 2.869l-0.033 0.014c-1.28 0.522-2.719 0.883-4.286 0.883-0.762 0-1.47-0.037-2.138-0.098l-0.049-0.004c-3.958-0.366-6.233-1.607-6.721-1.9h-2.59v0.444h0.608c0 0 0.362 0.326 0.745 0.561v-0c0.344 0.211 3.131 2.062 8.829 2.815 0 0-0.246-0.374-0.119-1.009 0 0 0.643 0.381 1.188 0.59 0.381 0.145 0.981 0.383 1.851 0.411 0.334 0.010 0.864-0.051 1.595-0.285-0.24-0.147-0.721-0.717-0.721-0.717s1.118-0.045 1.12-0.045c0.041 0 1.007-0.011 1.931-0.426l-0.014-0.030c-0.328-0.232-0.25-0.781-0.25-0.781 0.432 0.029 0.926-0.069 0.926-0.069 0.223-0.045 0.555-0.164 0.971-0.453-0.33 0.011-0.662 0.020-0.662 0.020l0.925-0.841c0.641-0.583 1.075-1.298 1.376-1.949zM1.123 12.96c0 0-0.471 0.266-0.471 1.12s0.176 1.444 0.442 1.444c0.264 0 0.383-1.030 0.383-1.503 0-0.471-0.059-1.061-0.354-1.061zM8.519 12.194l-0.442 0.266v1.001l0.442 0.266v-1.534zM6.486 9.543c0 0-0.471 0.059-0.471 0.766 0 0.708 0.471 0.796 0.471 0.796s0.442-0.118 0.442-0.796c0-0.678-0.442-0.766-0.442-0.766z"></path>
</svg>
