<!-- Generated by IcoMoon.io -->
<svg version="1.1" xmlns="http://www.w3.org/2000/svg" width="32" height="32" viewBox="0 0 32 32">
<title>ath</title>
<path fill="#444" d="M18.976 18.633l12.566-4.515-17.583-5.318-11.697 3.743 16.714 6.090zM17.843 22.934c-0.119-0.412-0.207-0.893-0.209-1.415 0-0.619 0.121-1.218 0.367-1.786l-17.587-6.406c-0.019 0.034-0.038 0.073-0.057 0.113-0.143 0.301-0.312 0.774-0.312 1.312 0.002 0.509 0.143 0.983 0.432 1.445l17.368 6.737zM19.405 23.2c-0.186-0.391-0.404-0.994-0.402-1.681 0-0.569 0.141-1.092 0.43-1.596l11.898-4.272c-0.049 0.25-0.075 0.504-0.075 0.752 0 0.481 0.096 0.915 0.284 1.293 0.107 0.216 0.248 0.412 0.417 0.584l-12.551 4.921z"></path>
</svg>
