<!-- Generated by IcoMoon.io -->
<svg version="1.1" xmlns="http://www.w3.org/2000/svg" width="32" height="32" viewBox="0 0 32 32">
<title>atq</title>
<path fill="#444" d="M24.294 19.789c0-0.592-0.482-1.074-1.074-1.074s-1.071 0.482-1.071 1.074c0 0.592 0.479 1.071 1.071 1.071s1.074-0.48 1.074-1.071zM19.23 19.789c0-0.592-0.48-1.074-1.071-1.074s-1.071 0.482-1.071 1.074c0 0.592 0.48 1.071 1.071 1.071s1.071-0.48 1.071-1.071zM32.004 16.065h-4.724c-1.205 0-2.181 0.975-2.181 2.181s0.976 2.182 2.181 2.182l0.771 0.007c0 0 0.985 0.308 0.985 1.927 0 1.616-0.976 1.952-0.976 1.952h-15.574c0 0-0.976-0.336-0.976-1.952 0-1.619 0.983-1.927 0.983-1.927s1.541-0.007 1.543-0.007c1.249 0 2.262-1.015 2.262-2.262 0-1.25-1.012-2.262-2.262-2.262-5.932 0-6.047-1.753-6.047-1.753s-6.849-0.381-7.998-5.48h10.097l0.772-0.983h21.149l-0.005 8.378z"></path>
</svg>
