<!-- Generated by IcoMoon.io -->
<svg version="1.1" xmlns="http://www.w3.org/2000/svg" width="27" height="32" viewBox="0 0 27 32">
<title>avr</title>
<path fill="#444" d="M10.689 26.897v-4.217c-4.273-1.176-7.315-5.122-7.315-9.602 0-2.116 0.678-4.178 1.922-5.877l-0.199-0.199h-2.039l-3.060 3.060v-7.448h7.289l4.189 4.189v6.579l-2.553-2.553c-0.356 0.692-0.541 1.457-0.541 2.25 0 2.73 2.221 4.951 4.951 4.951s4.951-2.221 4.951-4.951c0-0.794-0.185-1.559-0.541-2.251l-2.554 2.554v-6.579l4.189-4.189h7.289v7.448l-3.060-3.060h-2.039l-0.198 0.198c1.243 1.699 1.921 3.761 1.921 5.878 0 4.48-3.042 8.426-7.315 9.602v4.217l-2.644 2.489-2.644-2.489z"></path>
</svg>
