<!-- Generated by IcoMoon.io -->
<svg version="1.1" xmlns="http://www.w3.org/2000/svg" width="32" height="32" viewBox="0 0 32 32">
<title>azorius</title>
<path fill="#444" d="M6.764 17.060c-0.509 1.88-0.439 3.914 0.225 5.747 0.68 1.904 1.988 3.574 3.667 4.699 0.805 0.545 1.696 0.958 2.627 1.237-4.424 0.001-8.848 0.001-13.272 0.001 2.251-3.895 4.503-7.79 6.753-11.684v0zM25.193 17.060c0.419 1.558 0.449 3.22 0.064 4.789-0.323 1.326-0.937 2.58-1.785 3.649-1.215 1.543-2.916 2.691-4.799 3.247 4.424 0 8.849 0 13.273 0-2.251-3.895-4.503-7.79-6.753-11.685zM16.236 26.703c-0.118 0.003-0.236 0.005-0.354 0.008-0.003 0.306-0.008 0.611-0.012 0.915-0.133-0.006-0.265-0.012-0.397-0.017-0.008 0.133-0.018 0.266-0.025 0.399 0.278 0.015 0.557 0.022 0.836 0.015-0.006-0.177-0.012-0.353-0.017-0.529 0.048-0.003 0.146-0.009 0.195-0.011-0.013-0.22-0.027-0.44-0.039-0.66-0.044 0.003-0.133 0.007-0.178 0.009-0.002-0.032-0.006-0.097-0.008-0.129zM16.938 26.642c-0.118 0.016-0.236 0.031-0.353 0.047 0.038 0.438 0.074 0.876 0.112 1.314 0.139-0.017 0.277-0.035 0.417-0.052-0.023-0.175-0.046-0.349-0.069-0.523 0.048-0.007 0.144-0.023 0.193-0.030-0.011-0.066-0.031-0.197-0.042-0.262-0.047 0.006-0.141 0.020-0.187 0.026-0.023-0.173-0.046-0.346-0.070-0.519zM15.355 26.683c-0.012 0.131-0.024 0.261-0.035 0.392-0.046-0.005-0.139-0.013-0.185-0.018-0.033 0.306-0.069 0.612-0.102 0.917 0.053 0.006 0.158 0.018 0.211 0.023 0.016-0.175 0.031-0.35 0.047-0.524 0.13 0.005 0.26 0.012 0.39 0.018 0.010-0.264 0.021-0.528 0.031-0.792-0.119-0.006-0.237-0.012-0.355-0.017zM14.144 26.466c-0.046 0.17-0.091 0.34-0.136 0.51 0.046 0.012 0.137 0.036 0.184 0.048-0.020 0.082-0.040 0.165-0.060 0.247-0.047-0.010-0.142-0.033-0.19-0.044-0.045 0.17-0.091 0.341-0.136 0.512 0.136 0.033 0.274 0.067 0.41 0.1 0.013-0.063 0.039-0.189 0.052-0.253 0.131 0.023 0.262 0.047 0.394 0.070-0.014 0.085-0.027 0.17-0.041 0.256 0.070 0.010 0.14 0.021 0.21 0.032 0.025-0.176 0.049-0.351 0.073-0.526-0.064-0.010-0.129-0.020-0.193-0.029 0.027-0.171 0.056-0.341 0.083-0.513 0.121 0.017 0.241 0.033 0.362 0.051 0.010-0.089 0.019-0.177 0.029-0.265-0.351-0.044-0.699-0.105-1.040-0.197zM17.97 26.427c-0.116 0.028-0.23 0.057-0.345 0.086 0.020 0.085 0.039 0.172 0.059 0.258-0.042 0.010-0.128 0.030-0.17 0.041-0.018-0.084-0.037-0.168-0.054-0.251-0.117 0.019-0.234 0.038-0.352 0.057 0.021 0.131 0.043 0.261 0.064 0.391 0.046-0.006 0.138-0.018 0.185-0.023 0.031 0.17 0.062 0.34 0.093 0.51-0.049 0.007-0.147 0.023-0.196 0.031 0.021 0.131 0.042 0.262 0.063 0.394 0.138-0.023 0.276-0.046 0.415-0.069-0.027-0.131-0.054-0.261-0.081-0.391 0.193-0.048 0.385-0.097 0.578-0.145-0.086-0.296-0.172-0.592-0.258-0.888zM18.634 26.197c-0.224 0.079-0.112 0.039-0.336 0.119 0.028 0.082 0.056 0.165 0.084 0.247-0.042 0.016-0.127 0.047-0.17 0.063 0.080 0.253 0.16 0.505 0.24 0.758-0.195 0.053-0.39 0.103-0.586 0.152 0.016 0.065 0.047 0.195 0.063 0.261 0.272-0.065 0.541-0.14 0.805-0.231-0.043-0.126-0.086-0.251-0.129-0.375 0.045-0.017 0.136-0.050 0.181-0.067 0.046 0.124 0.094 0.247 0.14 0.372 0.131-0.050 0.262-0.099 0.392-0.15-0.069-0.163-0.138-0.326-0.208-0.49-0.061 0.024-0.122 0.048-0.183 0.073l-0.148-0.366-0.147-0.366zM13.474 26.251c-0.061 0.163-0.122 0.325-0.184 0.488 0.056 0.031 0.169 0.094 0.226 0.125-0.221 0.086-0.429-0.067-0.631-0.137-0.086 0.201-0.173 0.402-0.26 0.604 0.049 0.022 0.146 0.066 0.195 0.088 0.048-0.122 0.098-0.244 0.147-0.366 0.061 0.021 0.121 0.042 0.182 0.063-0.046 0.123-0.092 0.247-0.138 0.37 0.212 0.076 0.423 0.158 0.647 0.193-0.072-0.101-0.151-0.195-0.227-0.291 0.085 0.012 0.17 0.024 0.255 0.039 0.035-0.123 0.070-0.247 0.106-0.37-0.045-0.016-0.135-0.048-0.18-0.064 0.019-0.061 0.057-0.183 0.076-0.244 0.042 0.014 0.128 0.041 0.17 0.055l0.052-0.116c-0.046-0.019-0.136-0.057-0.181-0.077l0.042-0.112c0.042 0.014 0.125 0.040 0.167 0.053l0.040-0.128c-0.168-0.058-0.336-0.117-0.505-0.175zM12.452 25.927c-0.065 0.117-0.129 0.234-0.193 0.351 0.111 0.059 0.221 0.118 0.333 0.177-0.116 0.235-0.231 0.47-0.345 0.706 0.065 0.028 0.13 0.057 0.196 0.086 0.109-0.238 0.219-0.477 0.328-0.714 0.114 0.052 0.229 0.105 0.343 0.157 0.066-0.165 0.132-0.328 0.198-0.492-0.158-0.073-0.316-0.147-0.474-0.221-0.019 0.029-0.058 0.088-0.078 0.117-0.103-0.055-0.206-0.11-0.309-0.165zM12.061 25.544v0c-0.048 0.074-0.096 0.148-0.144 0.223 0.039 0.024 0.116 0.071 0.155 0.094-0.115 0.184-0.229 0.369-0.343 0.554-0.042-0.025-0.128-0.076-0.17-0.102-0.073 0.112-0.146 0.223-0.219 0.335 0.242 0.142 0.483 0.283 0.726 0.423 0.035-0.071 0.070-0.141 0.106-0.211-0.059-0.077-0.116-0.154-0.171-0.233 0.085 0.026 0.171 0.054 0.256 0.082 0.038-0.076 0.075-0.152 0.113-0.227-0.11-0.064-0.22-0.128-0.33-0.192 0.11-0.189 0.221-0.378 0.332-0.567-0.104-0.060-0.207-0.12-0.31-0.18zM20.029 25.452c-0.252 0.155-0.504 0.309-0.759 0.458 0.035 0.065 0.069 0.131 0.104 0.197 0.092 0 0.185 0.001 0.277 0.006-0.048 0.039-0.146 0.114-0.194 0.152 0.080 0.153 0.159 0.306 0.239 0.46 0.059-0.030 0.118-0.059 0.178-0.089 0.063 0.114 0.127 0.228 0.191 0.342 0.137-0.085 0.272-0.172 0.4-0.272-0.103-0.022-0.207-0.008-0.31 0.003-0.010-0.018-0.029-0.053-0.038-0.071 0.042-0.026 0.127-0.078 0.169-0.104-0.138-0.223-0.276-0.446-0.414-0.669 0.103-0.064 0.207-0.128 0.31-0.191-0.050-0.074-0.101-0.148-0.151-0.221zM20.306 25.237c-0.037 0.027-0.108 0.082-0.144 0.109 0.077 0.106 0.154 0.213 0.232 0.32-0.101 0.073-0.2 0.146-0.301 0.219 0.168 0.256 0.336 0.513 0.504 0.77 0.059-0.039 0.119-0.078 0.179-0.116-0.075-0.109-0.15-0.219-0.225-0.327 0.038-0.029 0.116-0.086 0.155-0.114 0.076 0.106 0.154 0.211 0.231 0.317 0.112-0.085 0.224-0.17 0.336-0.254-0.083-0.104-0.166-0.208-0.249-0.311-0.053 0.039-0.107 0.078-0.161 0.117-0.185-0.244-0.371-0.486-0.557-0.729zM11.361 25.014c-0.114 0.135-0.229 0.269-0.342 0.404 0.099 0.084 0.198 0.166 0.298 0.249-0.031 0.028-0.063 0.056-0.093 0.085-0.099-0.081-0.197-0.162-0.294-0.242-0.025 0.037-0.049 0.075-0.073 0.113 0.109 0.093 0.218 0.187 0.322 0.286-0.174 0.063-0.29-0.105-0.416-0.189-0.085 0.101-0.17 0.201-0.255 0.302 0.212 0.182 0.44 0.345 0.668 0.507 0.099-0.144 0.198-0.287 0.298-0.431 0.054 0.037 0.107 0.074 0.161 0.112 0.072-0.111 0.145-0.222 0.218-0.333-0.037-0.027-0.112-0.082-0.149-0.109 0.049-0.073 0.099-0.144 0.148-0.216-0.025-0.019-0.076-0.057-0.101-0.076 0.028-0.239-0.251-0.317-0.388-0.46zM16.423 24.811c-0.224 0.011-0.112 0.005-0.336 0.018 0.005 0.214 0.010 0.428 0.014 0.642 0.087 0.023 0.173 0.047 0.259 0.073-0.064 0.027-0.192 0.079-0.257 0.105 0.005 0.17 0.009 0.341 0.014 0.512 0.277-0.014 0.555-0.034 0.831-0.071-0.013-0.091-0.026-0.18-0.038-0.27-0.132 0.018-0.264 0.035-0.395 0.052-0.009-0.086-0.016-0.172-0.023-0.259 0.126-0.018 0.252-0.035 0.378-0.052-0.020-0.133-0.039-0.265-0.059-0.398-0.118 0.016-0.236 0.032-0.353 0.048l-0.018-0.201-0.017-0.2zM17.232 24.672c-0.107 0.025-0.213 0.052-0.32 0.078 0.079 0.436 0.158 0.873 0.239 1.31 0.136-0.031 0.272-0.063 0.408-0.094-0.063-0.257-0.127-0.515-0.191-0.772 0.044-0.012 0.133-0.036 0.178-0.048-0.037-0.129-0.073-0.258-0.11-0.387-0.039 0.010-0.118 0.031-0.158 0.042-0.011-0.032-0.034-0.097-0.046-0.129zM21.222 24.415c-0.247 0.253-0.507 0.494-0.775 0.724 0.163 0.203 0.326 0.407 0.49 0.61 0.124-0.096 0.253-0.189 0.398-0.252-0.047 0.083-0.096 0.165-0.146 0.246 0.082 0.097 0.163 0.194 0.245 0.291 0.155-0.143 0.309-0.286 0.464-0.429-0.245-0.249-0.488-0.499-0.733-0.746 0.084-0.088 0.168-0.176 0.251-0.264-0.065-0.061-0.129-0.121-0.193-0.181zM14.454 24.608c-0.026 0.083-0.052 0.167-0.078 0.251-0.041-0.014-0.123-0.043-0.165-0.057-0.114 0.338-0.229 0.676-0.343 1.014 0.199 0.063 0.401 0.118 0.604 0.17 0.021-0.088 0.042-0.176 0.063-0.264-0.048-0.012-0.144-0.038-0.193-0.050 0.022-0.083 0.044-0.166 0.065-0.248 0.047 0.010 0.141 0.032 0.188 0.042 0.061-0.26 0.122-0.519 0.183-0.778-0.108-0.027-0.217-0.054-0.325-0.080zM18.329 24.275c-0.252 0.119-0.511 0.223-0.774 0.313 0.067 0.21 0.133 0.421 0.199 0.631-0.059 0.018-0.119 0.036-0.178 0.054 0.061 0.215 0.121 0.43 0.182 0.646 0.133-0.044 0.265-0.087 0.398-0.132-0.029-0.084-0.058-0.169-0.087-0.252 0.045-0.016 0.136-0.049 0.182-0.065 0.032 0.083 0.064 0.166 0.097 0.249 0.050-0.020 0.148-0.059 0.197-0.078-0.103-0.244-0.206-0.489-0.309-0.733 0.11-0.052 0.22-0.104 0.33-0.155-0.039-0.079-0.078-0.158-0.116-0.236-0.128 0.052-0.257 0.102-0.388 0.145 0.053-0.145 0.195-0.206 0.319-0.276-0.012-0.027-0.038-0.083-0.051-0.11zM15.592 24.815c-0.027 0.355-0.052 0.709-0.078 1.064 0.134 0.005 0.268 0.011 0.402 0.018 0.003-0.355 0.007-0.71 0.010-1.066-0.112-0.005-0.224-0.010-0.335-0.016zM13.832 24.374c-0.035 0.078-0.070 0.157-0.105 0.236-0.039-0.018-0.118-0.055-0.158-0.073-0.077 0.16-0.155 0.32-0.233 0.48 0.042 0.021 0.129 0.063 0.172 0.085-0.073 0.162-0.146 0.324-0.217 0.486 0.129 0.054 0.259 0.106 0.389 0.159 0.14-0.372 0.279-0.745 0.418-1.117 0.040 0.012 0.123 0.038 0.164 0.050 0.010-0.031 0.030-0.095 0.040-0.126-0.157-0.058-0.314-0.117-0.469-0.18zM18.791 24.787c-0.115 0.054-0.229 0.108-0.343 0.162 0.093 0.202 0.185 0.405 0.279 0.607 0.127-0.060 0.253-0.119 0.38-0.18-0.105-0.197-0.212-0.393-0.316-0.59zM13.249 24.059v0c-0.231 0.381-0.462 0.761-0.693 1.141 0.18 0.106 0.363 0.207 0.55 0.301 0.059-0.123 0.118-0.245 0.178-0.366-0.058-0.029-0.117-0.058-0.175-0.086 0.144-0.272 0.287-0.545 0.43-0.817-0.097-0.058-0.193-0.116-0.29-0.174zM10.495 24.142c-0.134 0.111-0.267 0.222-0.4 0.334-0.040-0.050-0.080-0.099-0.12-0.148-0.207 0.165-0.415 0.329-0.623 0.494 0.187 0.232 0.381 0.462 0.607 0.657 0.053-0.21-0.168-0.328-0.253-0.489 0.181 0.004 0.278 0.164 0.396 0.273 0.023-0.022 0.069-0.068 0.092-0.090-0.090-0.097-0.179-0.195-0.269-0.292 0.023-0.021 0.069-0.063 0.091-0.084 0.089 0.095 0.18 0.191 0.268 0.287 0.064-0.062 0.128-0.124 0.192-0.185-0.032-0.035-0.095-0.105-0.127-0.14 0.129-0.118 0.258-0.236 0.387-0.355-0.081-0.088-0.163-0.176-0.243-0.263zM21.701 24.359l-0.252-0.211c-0.041 0.044-0.081 0.089-0.121 0.134 0.098 0.087 0.197 0.174 0.296 0.261-0.082 0.093-0.164 0.185-0.245 0.278 0.221 0.215 0.443 0.43 0.663 0.645 0.048-0.054 0.095-0.107 0.144-0.159-0.097-0.090-0.194-0.18-0.291-0.268 0.032-0.036 0.096-0.108 0.128-0.144 0.099 0.087 0.197 0.173 0.296 0.261 0.093-0.106 0.186-0.212 0.279-0.318-0.173-0.138-0.346-0.276-0.519-0.413-0.042 0.048-0.085 0.096-0.127 0.144l-0.252-0.211zM19.171 23.75c-0.181 0.13-0.367 0.255-0.558 0.372l0.668 1.151c0.18-0.108 0.356-0.22 0.529-0.338-0.105-0.147-0.209-0.293-0.313-0.439-0.053 0.036-0.105 0.072-0.157 0.109-0.017-0.025-0.052-0.077-0.069-0.102 0.050-0.038 0.099-0.076 0.149-0.113-0.102-0.143-0.204-0.286-0.307-0.428 0.034-0.025 0.102-0.076 0.136-0.102-0.020-0.027-0.059-0.081-0.079-0.108zM12.836 23.782c-0.264 0.356-0.53 0.712-0.795 1.068 0.113 0.082 0.226 0.165 0.339 0.247 0.244-0.372 0.486-0.744 0.728-1.117-0.091-0.067-0.182-0.133-0.273-0.198zM19.88 23.288v0c-0.078 0.079-0.157 0.158-0.235 0.238-0.025-0.023-0.076-0.071-0.102-0.095-0.082 0.073-0.165 0.147-0.247 0.221 0.055 0.069 0.111 0.138 0.167 0.207-0.035 0.026-0.103 0.079-0.138 0.106 0.054 0.071 0.108 0.142 0.163 0.213 0.049-0.036 0.099-0.072 0.148-0.108 0.054 0.066 0.107 0.133 0.161 0.199-0.050 0.038-0.101 0.078-0.15 0.117 0.109 0.143 0.219 0.286 0.329 0.429 0.162-0.133 0.32-0.27 0.477-0.409-0.18-0.195-0.359-0.389-0.539-0.582 0.086-0.086 0.172-0.171 0.258-0.257-0.097-0.093-0.195-0.187-0.292-0.28zM12.21 23.242c-0.127 0.125-0.255 0.249-0.382 0.375 0.132 0.125 0.266 0.249 0.402 0.371-0.021 0.024-0.062 0.072-0.083 0.096-0.139-0.125-0.277-0.25-0.412-0.379-0.159 0.156-0.318 0.31-0.477 0.466 0.101 0.097 0.202 0.195 0.304 0.291 0.089-0.099 0.18-0.198 0.27-0.297 0.036 0.029 0.108 0.087 0.144 0.116-0.085 0.106-0.172 0.21-0.259 0.315 0.040 0.034 0.12 0.102 0.16 0.136 0.278-0.346 0.552-0.695 0.83-1.041-0.168-0.148-0.334-0.296-0.496-0.449zM21.872 23.588v0c-0.104 0.144-0.207 0.288-0.311 0.432 0.138 0.11 0.276 0.22 0.415 0.33 0.028-0.038 0.085-0.114 0.113-0.151 0.209 0.158 0.419 0.316 0.627 0.475 0.123-0.171 0.246-0.341 0.368-0.513-0.075-0.050-0.15-0.098-0.225-0.146-0.039 0.054-0.078 0.109-0.117 0.164-0.181-0.123-0.362-0.245-0.543-0.368-0.075 0.103-0.151 0.205-0.227 0.308-0.022-0.023-0.065-0.070-0.087-0.093 0.070-0.095 0.139-0.191 0.209-0.286-0.074-0.050-0.149-0.101-0.223-0.151zM9.89 23.277c-0.114 0.069-0.228 0.139-0.341 0.208 0.065 0.105 0.128 0.212 0.193 0.317-0.18 0.121-0.36 0.243-0.539 0.365-0.071-0.115-0.141-0.229-0.211-0.343-0.077 0.046-0.153 0.093-0.23 0.139 0.143 0.241 0.299 0.473 0.47 0.694 0.246-0.184 0.492-0.369 0.738-0.553 0.028 0.037 0.084 0.111 0.112 0.148 0.104-0.083 0.209-0.166 0.313-0.248-0.072-0.095-0.144-0.19-0.216-0.285-0.071 0.051-0.142 0.102-0.213 0.153-0.026-0.035-0.079-0.106-0.106-0.141 0.072-0.050 0.144-0.099 0.216-0.148-0.061-0.102-0.123-0.204-0.185-0.306zM20.305 22.555v0c-0.134 0.178-0.269 0.356-0.411 0.528 0.164 0.144 0.327 0.29 0.49 0.436-0.084 0.091-0.168 0.183-0.252 0.274 0.156 0.159 0.313 0.317 0.469 0.476 0.142-0.154 0.285-0.308 0.427-0.462-0.204-0.17-0.407-0.341-0.611-0.511 0.027-0.035 0.080-0.106 0.106-0.141 0.139 0.109 0.279 0.219 0.419 0.328 0.080-0.108 0.161-0.216 0.242-0.324-0.293-0.201-0.586-0.402-0.88-0.603zM16.633 22.704c-0.142 0.020-0.283 0.039-0.424 0.059 0.018 0.24 0.036 0.481 0.053 0.721-0.116 0.004-0.23 0.009-0.346 0.013-0.001 0.097-0.003 0.195-0.004 0.294 0.124-0.005 0.248-0.008 0.372-0.012 0.003 0.035 0.008 0.105 0.010 0.14-0.128 0.005-0.255 0.009-0.383 0.014-0.003 0.099-0.005 0.197-0.007 0.296 0.275-0.007 0.551-0.025 0.825-0.061-0.038-0.24-0.078-0.48-0.117-0.719 0.042-0.009 0.128-0.025 0.17-0.033-0.050-0.237-0.1-0.475-0.149-0.712zM15.508 22.735c-0.006 0.035-0.018 0.102-0.024 0.136-0.036-0.005-0.108-0.013-0.144-0.018-0.056 0.286-0.112 0.571-0.168 0.857-0.121-0.030-0.241-0.061-0.362-0.091-0.040 0.141-0.081 0.283-0.122 0.424 0.134 0.034 0.268 0.067 0.402 0.101 0.020-0.097 0.039-0.193 0.059-0.289 0.046 0.007 0.138 0.022 0.185 0.029-0.015 0.097-0.029 0.195-0.043 0.293 0.137 0.014 0.275 0.028 0.413 0.042 0.031-0.486 0.057-0.971 0.089-1.456-0.095-0.010-0.189-0.019-0.284-0.029zM17.039 22.584v0c-0.091 0.029-0.183 0.059-0.274 0.088 0.071 0.279 0.143 0.559 0.215 0.838-0.044 0.011-0.131 0.033-0.175 0.044 0.041 0.192 0.081 0.384 0.122 0.576 0.2-0.050 0.4-0.105 0.597-0.166-0.16-0.461-0.325-0.92-0.486-1.38zM11.538 22.711c-0.171 0.115-0.339 0.234-0.508 0.354 0.027 0.038 0.084 0.116 0.112 0.155-0.141 0.106-0.282 0.212-0.423 0.317 0.129 0.165 0.261 0.328 0.4 0.486 0.067-0.062 0.135-0.123 0.202-0.185-0.045-0.051-0.089-0.101-0.134-0.151 0.024-0.020 0.071-0.057 0.095-0.076 0.033 0.035 0.101 0.105 0.135 0.14 0.065-0.059 0.131-0.119 0.197-0.179-0.041-0.048-0.082-0.096-0.124-0.144l0.095-0.076c0.032 0.033 0.095 0.097 0.127 0.13 0.13-0.119 0.26-0.238 0.39-0.357-0.095-0.114-0.189-0.229-0.284-0.343-0.095-0.014-0.189-0.040-0.279-0.072zM14.959 22.603c-0.031 0.090-0.062 0.18-0.093 0.271-0.097-0.036-0.193-0.072-0.289-0.108-0.157 0.357-0.314 0.714-0.47 1.072 0.13 0.049 0.26 0.098 0.39 0.147 0.061-0.183 0.123-0.366 0.185-0.548 0.115 0.031 0.231 0.063 0.347 0.095 0.069-0.284 0.138-0.568 0.206-0.852-0.092-0.026-0.184-0.052-0.276-0.076zM22.326 22.836l-0.355 0.612c0.259 0.167 0.518 0.334 0.777 0.501 0.034-0.057 0.067-0.114 0.102-0.17 0.112 0.068 0.224 0.136 0.336 0.204 0.070-0.122 0.141-0.244 0.212-0.366-0.23-0.125-0.461-0.25-0.691-0.375 0.030-0.055 0.061-0.111 0.091-0.166-0.028-0.014-0.084-0.044-0.112-0.059-0.029 0.041-0.085 0.122-0.114 0.163l-0.095-0.067c0.029-0.052 0.058-0.104 0.086-0.155-0.079-0.041-0.158-0.082-0.237-0.122zM9.435 22.716c-0.069 0.033-0.136 0.067-0.204 0.102 0 0.095-0.001 0.191-0.007 0.287-0.088-0.122-0.162-0.253-0.235-0.385-0.029 0.013-0.086 0.039-0.115 0.052 0.055 0.115 0.11 0.23 0.166 0.345l-0.108 0.061c-0.058-0.118-0.117-0.236-0.174-0.353-0.161 0.073-0.323 0.146-0.484 0.219 0.023 0.048 0.070 0.144 0.093 0.192 0.079-0.038 0.159-0.076 0.238-0.113 0.021 0.044 0.063 0.131 0.084 0.176-0.079 0.041-0.157 0.082-0.236 0.123 0.065 0.123 0.132 0.247 0.199 0.37 0.116-0.067 0.232-0.133 0.348-0.198 0.068 0.113 0.136 0.225 0.205 0.339 0.112-0.072 0.224-0.144 0.336-0.215-0.065-0.108-0.131-0.215-0.196-0.323 0.153-0.088 0.308-0.177 0.461-0.265-0.084-0.123-0.14-0.298-0.317-0.304-0.014-0.027-0.041-0.082-0.055-0.109zM17.794 22.204c-0.123 0.074-0.246 0.147-0.369 0.221 0.089 0.174 0.178 0.347 0.267 0.522 0.096-0.056 0.192-0.112 0.288-0.167 0.076 0.121 0.153 0.243 0.229 0.365-0.108 0.062-0.215 0.125-0.322 0.187 0.067 0.131 0.134 0.262 0.201 0.394 0.18-0.103 0.358-0.21 0.533-0.319-0.275-0.402-0.552-0.802-0.828-1.203zM11.416 22.185c-0.385 0.222-0.772 0.44-1.157 0.662 0.112 0.176 0.225 0.353 0.34 0.528 0.109-0.078 0.219-0.155 0.328-0.232-0.025-0.042-0.077-0.125-0.103-0.166 0.259-0.169 0.516-0.339 0.774-0.509-0.061-0.095-0.122-0.189-0.182-0.284zM13.865 21.969c-0.095 0.106-0.189 0.214-0.283 0.321-0.031-0.025-0.092-0.078-0.122-0.104-0.237 0.245-0.475 0.491-0.711 0.737 0.155 0.138 0.312 0.273 0.475 0.402 0.203-0.273 0.404-0.547 0.605-0.821 0.034 0.023 0.101 0.069 0.134 0.093 0.080-0.122 0.161-0.244 0.242-0.366-0.114-0.087-0.227-0.174-0.339-0.261zM18.121 21.941c-0.073 0.061-0.146 0.121-0.219 0.182 0.294 0.388 0.588 0.777 0.883 1.165 0.215-0.174 0.42-0.358 0.612-0.556-0.144-0.133-0.288-0.266-0.432-0.399-0.084 0.084-0.169 0.168-0.254 0.252-0.024-0.026-0.073-0.078-0.097-0.105 0.033-0.029 0.097-0.089 0.129-0.119-0.137-0.137-0.274-0.274-0.409-0.411-0.029 0.022-0.087 0.067-0.117 0.089-0.023-0.024-0.071-0.073-0.095-0.098zM20.953 21.949c-0.019 0.039-0.057 0.117-0.076 0.156-0.077-0.039-0.154-0.078-0.23-0.117-0.086 0.144-0.172 0.288-0.257 0.432 0.298 0.191 0.597 0.383 0.896 0.575 0.035-0.057 0.071-0.113 0.107-0.169 0.076 0.046 0.152 0.091 0.229 0.138 0.104-0.181 0.204-0.366 0.296-0.553-0.083-0.040-0.165-0.079-0.247-0.118-0.022 0.045-0.065 0.134-0.087 0.179-0.076-0.040-0.152-0.079-0.228-0.118 0.025-0.058 0.052-0.117 0.078-0.175-0.16-0.076-0.321-0.152-0.481-0.229zM9.22 21.848c-0.209 0.070-0.418 0.14-0.626 0.211 0.016 0.045 0.048 0.136 0.065 0.181-0.206 0.074-0.411 0.149-0.616 0.225 0.049 0.131 0.099 0.263 0.148 0.395 0.282-0.119 0.563-0.238 0.846-0.357 0.020 0.042 0.060 0.125 0.080 0.167 0.119-0.054 0.239-0.106 0.358-0.159-0.089-0.219-0.172-0.441-0.254-0.663zM13.237 21.211c-0.084 0.050-0.167 0.101-0.25 0.151 0.055 0.086 0.11 0.172 0.166 0.259-0.315 0.227-0.629 0.453-0.943 0.681 0.127 0.163 0.259 0.323 0.397 0.479 0.281-0.266 0.562-0.532 0.842-0.799 0.029 0.027 0.088 0.079 0.116 0.105 0.067-0.070 0.133-0.14 0.2-0.21-0.065-0.070-0.13-0.14-0.195-0.21-0.073 0.063-0.147 0.126-0.22 0.19-0.032-0.038-0.063-0.075-0.095-0.113 0.075-0.060 0.151-0.119 0.227-0.18-0.082-0.117-0.164-0.235-0.245-0.353zM23.288 21.85c-0.016 0.044-0.047 0.133-0.063 0.178-0.166-0.056-0.332-0.112-0.499-0.168-0.020 0.057-0.039 0.114-0.058 0.172 0.205 0.075 0.41 0.15 0.616 0.225-0.015 0.046-0.046 0.137-0.061 0.182 0.206 0.080 0.411 0.161 0.616 0.242 0.069-0.198 0.138-0.397 0.207-0.595-0.253-0.079-0.505-0.157-0.757-0.235zM10.818 21.529c-0.084 0.032-0.167 0.064-0.25 0.097 0.017 0.042 0.052 0.127 0.069 0.168-0.246 0.101-0.492 0.203-0.737 0.306 0.084 0.191 0.172 0.381 0.266 0.567 0.12-0.063 0.24-0.126 0.36-0.189-0.030-0.058-0.059-0.116-0.089-0.173 0.116-0.057 0.233-0.114 0.35-0.171 0.023 0.040 0.067 0.119 0.090 0.159 0.078-0.041 0.156-0.084 0.234-0.124-0.020-0.039-0.057-0.117-0.077-0.157 0.078-0.038 0.155-0.076 0.232-0.114-0.045-0.103-0.089-0.206-0.134-0.308-0.082 0.033-0.163 0.067-0.244 0.1-0.018-0.040-0.052-0.12-0.070-0.161zM18.669 21.297c-0.113 0.153-0.229 0.303-0.349 0.45 0.178 0.163 0.356 0.326 0.533 0.491 0.030-0.032 0.090-0.095 0.12-0.127 0.185 0.157 0.371 0.313 0.558 0.469 0.084-0.111 0.167-0.221 0.251-0.332-0.118-0.084-0.236-0.166-0.355-0.249 0.065-0.106 0.131-0.211 0.197-0.316-0.212-0.122-0.424-0.244-0.635-0.366-0.054 0.087-0.108 0.174-0.161 0.261-0.029-0.020-0.086-0.060-0.115-0.080 0.020-0.032 0.059-0.095 0.079-0.127-0.031-0.019-0.092-0.057-0.122-0.075zM21.785 20.71c-0.011 0.045-0.033 0.136-0.044 0.181-0.215-0.050-0.431-0.099-0.646-0.148-0.027 0.108-0.054 0.217-0.080 0.326 0.212 0.063 0.424 0.125 0.637 0.189-0.061 0.175-0.123 0.349-0.185 0.524-0.029-0.012-0.087-0.038-0.117-0.050 0.040-0.115 0.081-0.229 0.121-0.343-0.169-0.056-0.338-0.112-0.507-0.168-0.057 0.157-0.116 0.314-0.176 0.47 0.405 0.178 0.81 0.357 1.216 0.534 0.028-0.065 0.056-0.129 0.085-0.193-0.082-0.034-0.165-0.068-0.247-0.101 0.144-0.372 0.255-0.755 0.341-1.145l-0.396-0.076zM8.986 21.001c-0.119 0.025-0.238 0.050-0.357 0.075-0.016 0.091-0.034 0.183-0.052 0.276-0.041-0.083-0.082-0.167-0.121-0.25l-0.078 0.031c-0.016 0.068-0.048 0.205-0.064 0.273-0.028-0.061-0.084-0.184-0.112-0.245-0.029 0.006-0.087 0.018-0.116 0.023 0.009 0.050 0.028 0.148 0.037 0.197-0.127 0.029-0.255 0.059-0.382 0.087 0.036 0.136 0.072 0.272 0.109 0.407 0.084-0.023 0.167-0.048 0.251-0.071 0.037 0.129 0.076 0.257 0.114 0.387 0.082-0.027 0.164-0.054 0.246-0.080-0.039-0.153-0.103-0.314-0.035-0.469 0.029 0.060 0.089 0.179 0.118 0.238 0.207-0.065 0.414-0.129 0.621-0.193-0.061-0.229-0.123-0.456-0.18-0.686zM12.945 20.57l-0.413 0.135c0.012 0.038 0.037 0.115 0.050 0.153-0.318 0.12-0.637 0.24-0.955 0.36 0.131 0.319 0.285 0.627 0.467 0.919 0.083-0.055 0.166-0.11 0.249-0.165-0.066-0.11-0.131-0.221-0.197-0.33 0.341-0.183 0.681-0.366 1.022-0.548-0.079-0.173-0.155-0.348-0.225-0.525zM19.013 20.62c-0.084 0.213-0.294 0.422-0.209 0.666 0.036-0.039 0.107-0.117 0.142-0.157 0.298 0.154 0.595 0.308 0.892 0.464-0.066 0.11-0.131 0.22-0.197 0.33 0.084 0.053 0.168 0.106 0.252 0.16 0.18-0.293 0.332-0.601 0.454-0.922-0.035-0.014-0.105-0.043-0.14-0.058-0.025 0.063-0.051 0.125-0.076 0.188-0.132-0.054-0.264-0.108-0.395-0.162 0.015-0.043 0.044-0.129 0.059-0.171-0.092-0.033-0.183-0.066-0.275-0.099-0.016 0.039-0.048 0.117-0.064 0.156-0.118-0.050-0.234-0.101-0.352-0.149-0.023-0.061-0.069-0.185-0.093-0.246zM10.741 20.833c-0.085 0.020-0.17 0.041-0.254 0.062 0.008 0.044 0.026 0.131 0.035 0.175-0.298 0.081-0.596 0.162-0.894 0.244 0.063 0.199 0.127 0.398 0.193 0.597 0.082-0.031 0.165-0.062 0.247-0.093-0.016-0.084-0.031-0.168-0.045-0.253 0.069 0.064 0.139 0.126 0.21 0.187 0.071-0.025 0.142-0.050 0.214-0.075-0.015-0.045-0.044-0.134-0.059-0.18 0.213-0.073 0.426-0.145 0.637-0.221-0.057-0.127-0.080-0.297-0.24-0.335-0.011-0.027-0.034-0.082-0.045-0.11zM23.733 21.172c-0.012 0.048-0.035 0.142-0.048 0.19-0.255-0.059-0.511-0.118-0.767-0.178-0.028 0.113-0.056 0.225-0.084 0.338 0.032 0.014 0.097 0.043 0.129 0.057-0.014 0.039-0.041 0.119-0.055 0.158 0.064 0.020 0.193 0.060 0.257 0.080 0.014-0.044 0.042-0.133 0.055-0.177 0.294 0.084 0.588 0.167 0.883 0.25 0.033-0.134 0.066-0.27 0.099-0.404-0.032-0.010-0.095-0.030-0.126-0.040 0.012-0.049 0.035-0.146 0.046-0.195-0.13-0.027-0.26-0.053-0.39-0.080zM22.308 20.808c-0.076 0.359-0.201 0.706-0.273 1.066 0.086-0.058 0.168-0.129 0.193-0.234 0.093-0.26 0.144-0.532 0.212-0.799l-0.132-0.033zM7.826 20.211v0c-0.067 0.005-0.202 0.016-0.269 0.022 0.024 0.348 0.080 0.693 0.144 1.036 0.087-0.018 0.174-0.035 0.261-0.052-0.008-0.050-0.024-0.151-0.032-0.201 0.258-0.045 0.516-0.091 0.774-0.136-0.007-0.044-0.020-0.131-0.027-0.174l0.116-0.030c0.011 0.045 0.033 0.136 0.044 0.181 0.031-0.005 0.093-0.016 0.125-0.021-0.027-0.176-0.054-0.353-0.078-0.529-0.084 0.008-0.166 0.016-0.25 0.025 0.001 0.046 0.001 0.138 0.002 0.184-0.258 0.033-0.517 0.065-0.774 0.098-0.012-0.134-0.023-0.268-0.034-0.402zM23.871 20.206c-0.005 0.048-0.014 0.146-0.019 0.195-0.261-0.027-0.522-0.055-0.784-0.082-0.018 0.116-0.035 0.232-0.052 0.349 0.033 0.007 0.099 0.022 0.131 0.029-0.019 0.116-0.038 0.232-0.057 0.349 0.172 0.035 0.344 0.070 0.516 0.106 0.010-0.047 0.029-0.141 0.039-0.188 0.215 0.039 0.43 0.078 0.645 0.116 0.007-0.052 0.022-0.157 0.029-0.21-0.087-0.014-0.174-0.028-0.26-0.042 0.008-0.048 0.023-0.145 0.030-0.193 0.087 0.010 0.174 0.022 0.262 0.033 0.016-0.139 0.033-0.278 0.048-0.417-0.177-0.015-0.354-0.029-0.53-0.044zM10.759 20.149c-0.176 0.020-0.353 0.039-0.529 0.059 0.006 0.045 0.017 0.136 0.023 0.181-0.129 0.018-0.259 0.037-0.387 0.055-0.007-0.048-0.021-0.145-0.028-0.193-0.134 0.015-0.268 0.029-0.401 0.045 0.035 0.276 0.080 0.55 0.143 0.821 0.26-0.062 0.52-0.125 0.78-0.187-0.009-0.044-0.028-0.134-0.037-0.178 0.171-0.036 0.343-0.071 0.514-0.106-0.027-0.165-0.053-0.331-0.077-0.497zM12.798 19.879c-0.24 0.026-0.481 0.048-0.722 0.071 0.015 0.114 0.031 0.229 0.047 0.343-0.239 0.044-0.478 0.089-0.716 0.134 0.047 0.201 0.098 0.402 0.153 0.601 0.279-0.090 0.557-0.182 0.836-0.272-0.011-0.041-0.033-0.121-0.045-0.162 0.185-0.052 0.37-0.104 0.556-0.154-0.041-0.186-0.076-0.373-0.108-0.562zM19.12 20.12c-0.032 0.138-0.065 0.276-0.098 0.415 0.090 0.027 0.181 0.054 0.272 0.082-0.012 0.037-0.035 0.11-0.047 0.146l0.131 0.054c0.017-0.038 0.050-0.114 0.067-0.152 0.138 0.043 0.276 0.087 0.415 0.13 0.044-0.176 0.087-0.351 0.127-0.527-0.038-0.007-0.114-0.022-0.152-0.029-0.008 0.042-0.023 0.127-0.031 0.168-0.034-0.006-0.102-0.019-0.135-0.025 0.006-0.042 0.019-0.125 0.025-0.166-0.035-0.007-0.106-0.021-0.141-0.028-0.010 0.044-0.032 0.132-0.042 0.176-0.127-0.041-0.276-0.073-0.291-0.235-0.024-0.002-0.073-0.006-0.098-0.009zM21.733 20.143c-0.018 0.121-0.035 0.244-0.052 0.366 0.263 0.042 0.527 0.085 0.79 0.128 0.020-0.139 0.040-0.277 0.059-0.417-0.266-0.026-0.532-0.052-0.797-0.077zM8.205 19.989c-0.178 0.009-0.089 0.004-0.267 0.014 0.011 0.133 0.021 0.266 0.032 0.4 0.088-0.009 0.176-0.018 0.265-0.025l-0.015-0.195-0.015-0.194zM11.933 19.246v0c-0.005 0.045-0.014 0.135-0.018 0.18-0.193-0.008-0.387-0.016-0.581-0.023 0 0.052 0.001 0.156 0.001 0.208 0.097 0.001 0.193 0.001 0.291 0.003 0.001 0.046 0.003 0.138 0.005 0.184-0.098 0.006-0.196 0.012-0.293 0.018 0.012 0.137 0.025 0.275 0.039 0.413 0.193-0.027 0.387-0.054 0.581-0.081-0.011-0.12-0.022-0.24-0.032-0.359 0.193-0.009 0.385-0.020 0.578-0.029 0-0.039 0.001-0.117 0.001-0.156 0.095-0.001 0.19 0 0.285 0 0.004-0.095 0.008-0.191 0.014-0.286-0.29-0.023-0.58-0.048-0.869-0.072zM24.416 19.208c-0.035 0.001-0.103 0.004-0.138 0.005 0.001 0.052 0.005 0.156 0.007 0.208-0.032-0.001-0.095-0.002-0.127-0.003-0.002-0.050-0.006-0.149-0.009-0.199-0.085 0.003-0.171 0.006-0.256 0.010-0.009 0.063-0.025 0.19-0.034 0.253-0.048-0.081-0.095-0.162-0.141-0.243-0.057 0.002-0.171 0.006-0.229 0.007 0.001 0.047 0.004 0.14 0.005 0.187-0.131 0.003-0.261 0.005-0.391 0.007 0.001 0.044 0.004 0.134 0.005 0.178 0.085 0.001 0.17 0.001 0.255 0.003 0.002 0.041 0.005 0.121 0.007 0.162-0.036 0.007-0.108 0.020-0.144 0.027-0.005 0.116-0.009 0.232-0.012 0.348 0.176 0.013 0.351 0.027 0.528 0.042 0.005-0.127 0.011-0.253 0.017-0.379l0.124-0.008c-0.001 0.051-0.003 0.151-0.003 0.202 0.087 0.004 0.176 0.009 0.263 0.014 0.003-0.050 0.009-0.15 0.012-0.2l0.125 0.004c-0.002 0.051-0.006 0.153-0.008 0.204 0.034 0.003 0.102 0.007 0.136 0.009 0.015-0.279 0.020-0.558 0.007-0.838zM20.615 19.339c-0.341 0.018-0.681 0.035-1.021 0.054 0.002 0.041 0.005 0.122 0.007 0.163 0.097-0.001 0.195-0.001 0.293 0-0.001 0.042-0.003 0.126-0.005 0.168-0.243-0.008-0.485-0.018-0.728-0.026-0.006 0.095-0.012 0.19-0.018 0.286 0.483 0.060 0.964 0.122 1.447 0.183 0.010-0.138 0.020-0.277 0.031-0.415-0.097-0.004-0.195-0.008-0.291-0.011 0.001-0.048 0.003-0.142 0.004-0.189 0.096-0.001 0.192-0.001 0.288 0-0.002-0.053-0.005-0.159-0.006-0.212zM7.54 19.191v0c-0.003 0.21-0.005 0.42-0.006 0.63 0.349-0.010 0.697-0.020 1.047-0.029 0.009 0.121 0.019 0.242 0.029 0.364 0.069-0.005 0.208-0.017 0.277-0.022-0.025-0.145-0.009-0.321-0.161-0.401-0.001-0.103-0.002-0.205-0.003-0.308-0.262-0.005-0.525-0.012-0.787-0.017 0.001-0.050 0.004-0.149 0.005-0.198-0.133-0.007-0.267-0.013-0.4-0.019zM9.41 19.259v0c-0.003 0.053-0.008 0.158-0.010 0.211 0.132 0.002 0.264 0.005 0.396 0.007 0.001 0.047 0.002 0.142 0.003 0.19-0.133 0.002-0.266 0.005-0.398 0.007 0.007 0.14 0.012 0.279 0.018 0.419 0.133-0.011 0.266-0.022 0.4-0.032-0.002-0.048-0.005-0.146-0.007-0.195 0.131-0.007 0.261-0.012 0.391-0.018 0.003 0.046 0.008 0.137 0.010 0.182 0.089-0.007 0.177-0.014 0.265-0.021-0.001-0.044-0.002-0.131-0.003-0.174 0.086-0.004 0.172-0.008 0.259-0.012-0.002-0.167-0.002-0.334 0-0.501-0.441-0.022-0.882-0.043-1.324-0.063zM22.56 19.391c-0.358 0.010-0.179 0.005-0.537 0.015-0.001 0.127-0.002 0.255-0.004 0.382-0.087-0.003-0.173-0.006-0.26-0.008 0.001-0.122 0.002-0.244 0.002-0.365-0.084 0.001-0.169 0.002-0.253 0.003-0.015 0.142-0.034 0.285-0.062 0.426-0.028-0.062-0.084-0.185-0.112-0.247-0.027-0.001-0.079-0.001-0.106-0.002-0.005 0.112-0.010 0.223-0.016 0.336 0.443 0.029 0.887 0.058 1.33 0.087l0.011-0.313 0.006-0.313zM24.365 18.585c-0.434 0.051-0.868 0.102-1.302 0.153 0.013 0.177 0.023 0.354 0.033 0.531 0.087-0.004 0.176-0.007 0.264-0.011-0.001-0.046-0.005-0.137-0.006-0.183 0.306-0.022 0.612-0.042 0.917-0.063-0.003-0.050-0.007-0.149-0.010-0.199 0.033-0.006 0.099-0.018 0.133-0.024-0.007-0.052-0.022-0.153-0.029-0.205zM22.478 18.564l-1.318 0.206c0.016 0.11 0.033 0.221 0.050 0.332 0.087-0.009 0.173-0.016 0.261-0.024 0.003 0.043 0.008 0.129 0.010 0.173 0.089-0.006 0.178-0.010 0.266-0.016-0.002-0.046-0.005-0.137-0.006-0.183 0.13-0.012 0.259-0.025 0.39-0.037 0.003 0.048 0.009 0.146 0.012 0.195 0.135-0.009 0.271-0.017 0.407-0.026-0.018-0.208-0.041-0.417-0.071-0.623zM8.529 18.494c-0.005 0.046-0.015 0.138-0.020 0.185-0.304-0.037-0.609-0.074-0.913-0.11-0.014 0.139-0.028 0.279-0.042 0.419 0.217 0.016 0.435 0.031 0.653 0.046-0.003 0.048-0.009 0.144-0.012 0.192 0.234 0.012 0.467 0.024 0.702 0.022-0.036-0.058-0.107-0.172-0.142-0.23-0.001-0.030-0.002-0.091-0.003-0.121 0.034 0.002 0.102 0.005 0.136 0.007 0.012-0.118 0.024-0.235 0.035-0.352-0.131-0.020-0.262-0.039-0.394-0.058zM11.491 18.388c-0.012 0.051-0.038 0.153-0.050 0.204 0.094 0.020 0.188 0.041 0.282 0.062-0.008 0.046-0.025 0.138-0.034 0.184-0.096-0.016-0.193-0.033-0.289-0.048-0.018 0.137-0.037 0.274-0.054 0.411 0.147 0.012 0.294 0.025 0.441 0.038 0.005-0.046 0.015-0.139 0.020-0.185 0.336 0.043 0.671 0.086 1.006 0.129 0.027-0.14 0.055-0.28 0.084-0.42-0.469-0.124-0.938-0.249-1.406-0.373zM10.125 18.733c-0.017 0.125-0.033 0.249-0.050 0.374l0.402 0.033c0.015-0.117 0.031-0.234 0.046-0.35-0.133-0.020-0.265-0.039-0.398-0.058zM9.469 18.638c-0.019 0.138-0.037 0.277-0.055 0.416 0.178 0.015 0.356 0.029 0.534 0.044 0.016-0.128 0.033-0.256 0.050-0.384-0.176-0.026-0.353-0.051-0.529-0.076zM20.16 17.559c-0.439 0.21-0.876 0.423-1.314 0.632 0.054 0.133 0.108 0.265 0.161 0.399 0.091-0.030 0.183-0.060 0.275-0.090-0.012-0.037-0.035-0.11-0.047-0.148 0.135-0.051 0.27-0.102 0.405-0.152 0.054 0.165 0.105 0.33 0.152 0.496 0.238-0.056 0.475-0.111 0.712-0.168-0.086-0.332-0.2-0.657-0.344-0.969zM10.448 17.469c-0.058 0.178-0.117 0.355-0.176 0.532-0.212-0.059-0.425-0.118-0.638-0.177-0.048 0.204-0.095 0.407-0.14 0.612 0.132 0.023 0.264 0.047 0.397 0.070 0.010-0.046 0.031-0.138 0.041-0.185 0.029 0.002 0.088 0.005 0.118 0.007-0.007 0.051-0.020 0.153-0.027 0.204 0.077 0.010 0.153 0.022 0.23 0.035 0.045-0.068 0.093-0.134 0.142-0.198 0.012 0.059 0.036 0.176 0.048 0.234 0.121 0.021 0.242 0.042 0.363 0.063 0.024-0.109 0.049-0.218 0.074-0.327-0.085-0.021-0.172-0.042-0.257-0.063 0.010-0.041 0.029-0.123 0.038-0.164 0.085 0.023 0.17 0.046 0.255 0.070 0.052-0.159 0.104-0.318 0.157-0.477-0.208-0.080-0.417-0.16-0.625-0.24zM11.857 17.431c-0.087 0.185-0.169 0.373-0.249 0.562 0.035 0.016 0.105 0.048 0.14 0.064-0.016 0.045-0.048 0.136-0.063 0.181 0.417 0.131 0.835 0.262 1.252 0.393 0.033-0.090 0.065-0.18 0.099-0.27-0.225-0.093-0.449-0.185-0.672-0.279 0.048-0.105 0.097-0.209 0.147-0.313-0.217-0.114-0.435-0.227-0.653-0.339zM22.092 18.021c-0.172 0.044-0.345 0.087-0.517 0.131 0.010 0.045 0.031 0.134 0.041 0.179-0.129 0.027-0.258 0.057-0.387 0.085 0.010 0.042 0.030 0.128 0.040 0.17 0.392-0.074 0.784-0.148 1.177-0.223-0.012-0.052-0.034-0.155-0.045-0.207-0.087 0.018-0.174 0.037-0.26 0.057-0.012-0.048-0.037-0.144-0.050-0.192zM24.274 17.967c-0.519 0.1-0.26 0.050-0.778 0.15 0.007 0.047 0.019 0.14 0.026 0.187-0.084 0.014-0.169 0.029-0.253 0.044-0.007-0.046-0.021-0.137-0.028-0.182-0.087 0.016-0.174 0.034-0.262 0.052 0.017 0.117 0.033 0.234 0.051 0.352 0.435-0.061 0.87-0.124 1.306-0.186l-0.031-0.209-0.030-0.208zM22.098 17.165c-0.084 0.032-0.168 0.065-0.251 0.098 0.016 0.047 0.049 0.141 0.065 0.189-0.247 0.089-0.494 0.177-0.742 0.266-0.015-0.041-0.046-0.123-0.061-0.163-0.084 0.033-0.166 0.065-0.249 0.099 0.074 0.21 0.146 0.421 0.208 0.636 0.127-0.034 0.254-0.067 0.382-0.099-0.010-0.043-0.029-0.131-0.039-0.174 0.298-0.086 0.596-0.172 0.894-0.259-0.067-0.198-0.136-0.395-0.206-0.592zM12.178 16.904c-0.074 0.117-0.149 0.234-0.223 0.351 0.252 0.146 0.504 0.291 0.756 0.437-0.052 0.099-0.103 0.198-0.154 0.296 0.176 0.082 0.353 0.165 0.53 0.247 0.112-0.21 0.234-0.413 0.369-0.609-0.153-0.117-0.306-0.236-0.459-0.353-0.025 0.033-0.078 0.099-0.103 0.132-0.238-0.168-0.476-0.336-0.715-0.502zM19.615 16.689c-0.268 0.212-0.535 0.425-0.804 0.637 0.063 0.086 0.127 0.172 0.19 0.258-0.122 0.080-0.244 0.16-0.365 0.24 0.049 0.082 0.098 0.165 0.147 0.247 0.215-0.116 0.43-0.231 0.645-0.347-0.059-0.1-0.118-0.199-0.176-0.298 0.029-0.020 0.086-0.058 0.115-0.077 0.062 0.103 0.123 0.206 0.185 0.309 0.172-0.093 0.345-0.185 0.518-0.279-0.138-0.239-0.289-0.471-0.455-0.691zM7.954 16.945c-0.015 0.051-0.045 0.153-0.060 0.203 0.084 0.025 0.168 0.052 0.251 0.078-0.013 0.046-0.040 0.14-0.053 0.187-0.086-0.023-0.172-0.046-0.258-0.069-0.036 0.135-0.071 0.27-0.104 0.406 0.258 0.059 0.516 0.116 0.774 0.172 0.031-0.122 0.063-0.243 0.095-0.364 0.17 0.046 0.34 0.093 0.51 0.139 0.033-0.114 0.066-0.229 0.099-0.343-0.418-0.137-0.836-0.274-1.254-0.41zM9.83 17.232c-0.045 0.133-0.089 0.266-0.133 0.399 0.17 0.053 0.34 0.106 0.511 0.16 0.040-0.123 0.082-0.245 0.122-0.367-0.166-0.065-0.334-0.128-0.5-0.192zM19.049 16.093c-0.131 0.147-0.261 0.294-0.39 0.443 0.033 0.031 0.099 0.092 0.131 0.122-0.131 0.137-0.262 0.273-0.392 0.409-0.042-0.031-0.084-0.063-0.126-0.095-0.062 0.071-0.123 0.143-0.185 0.215 0.169 0.165 0.328 0.34 0.476 0.524 0.078-0.057 0.157-0.115 0.236-0.172-0.063-0.082-0.126-0.163-0.189-0.244 0.293-0.254 0.585-0.508 0.877-0.762-0.141-0.152-0.287-0.299-0.438-0.441zM12.708 16.276v0c-0.14 0.152-0.277 0.308-0.411 0.466 0.193 0.151 0.387 0.3 0.582 0.45 0.027-0.033 0.082-0.101 0.11-0.134 0.185 0.156 0.37 0.312 0.555 0.469 0.065-0.072 0.129-0.143 0.194-0.214-0.345-0.344-0.686-0.692-1.030-1.037zM21.842 16.597c-0.396 0.201-0.792 0.402-1.188 0.603 0.048 0.102 0.095 0.204 0.143 0.306 0.121-0.053 0.244-0.105 0.366-0.157 0.018 0.040 0.054 0.122 0.071 0.163 0.165-0.065 0.331-0.131 0.497-0.197-0.018-0.045-0.055-0.135-0.074-0.18 0.121-0.052 0.242-0.104 0.364-0.156-0.059-0.127-0.119-0.255-0.178-0.381zM23.796 16.37c-0.083 0.034-0.166 0.069-0.248 0.102 0.017 0.048 0.050 0.142 0.067 0.19-0.202 0.077-0.404 0.155-0.606 0.232-0.017-0.045-0.052-0.135-0.069-0.18-0.142 0.077-0.371 0.103-0.362 0.312 0.047-0.005 0.141-0.013 0.188-0.018 0.037 0.108 0.074 0.216 0.112 0.325 0.209-0.069 0.417-0.136 0.626-0.205 0.016 0.046 0.048 0.138 0.063 0.185 0.128-0.038 0.256-0.077 0.385-0.115-0.017-0.046-0.052-0.138-0.069-0.185 0.031-0.014 0.093-0.042 0.124-0.055-0.071-0.196-0.142-0.392-0.212-0.588zM13.017 16.002c-0.053 0.046-0.106 0.092-0.16 0.138 0.326 0.36 0.653 0.72 0.979 1.081 0.074-0.061 0.148-0.121 0.223-0.181-0.088-0.118-0.176-0.234-0.263-0.352 0.032-0.020 0.097-0.062 0.129-0.082 0.082 0.119 0.165 0.239 0.247 0.359 0.080-0.053 0.16-0.105 0.24-0.157-0.096-0.171-0.193-0.342-0.289-0.513-0.187 0.121-0.373 0.245-0.552 0.376-0.184-0.223-0.368-0.446-0.553-0.669zM8.491 16.272c-0.019 0.046-0.056 0.14-0.075 0.187-0.081-0.033-0.162-0.067-0.243-0.1-0.051 0.131-0.102 0.262-0.153 0.393 0.415 0.147 0.829 0.294 1.244 0.441 0.043-0.111 0.087-0.221 0.13-0.332-0.162-0.067-0.324-0.134-0.486-0.2 0.023-0.059 0.045-0.118 0.068-0.176-0.161-0.071-0.323-0.142-0.485-0.213zM18.208 15.504c-0.071 0.129-0.142 0.259-0.212 0.389 0.039 0.025 0.119 0.073 0.158 0.098-0.175 0.288-0.349 0.577-0.524 0.864 0.118 0.082 0.235 0.164 0.351 0.247 0.090-0.112 0.18-0.225 0.27-0.336 0.031 0.025 0.094 0.075 0.126 0.101 0.064-0.074 0.128-0.147 0.193-0.22-0.033-0.029-0.098-0.086-0.131-0.115 0.152-0.189 0.304-0.378 0.456-0.567-0.22-0.166-0.45-0.32-0.688-0.46zM10.396 16.108c-0.028 0.045-0.083 0.136-0.11 0.182 0.267 0.155 0.535 0.309 0.802 0.464-0.031 0.052-0.061 0.102-0.090 0.155 0.118 0.063 0.236 0.127 0.355 0.191 0.087-0.144 0.174-0.287 0.261-0.431-0.259-0.172-0.518-0.344-0.778-0.517-0.025 0.042-0.077 0.125-0.102 0.166-0.112-0.070-0.225-0.139-0.337-0.209zM8.852 15.549c-0.024 0.044-0.071 0.134-0.095 0.178-0.077-0.041-0.153-0.082-0.23-0.122-0.063 0.126-0.127 0.251-0.189 0.377 0.277 0.131 0.555 0.261 0.832 0.392-0.027 0.055-0.054 0.111-0.081 0.166 0.069 0.030 0.138 0.061 0.208 0.091 0.082-0.052 0.166-0.097 0.253-0.139 0.048-0.088 0.096-0.177 0.144-0.266-0.155-0.084-0.311-0.166-0.466-0.249 0.021-0.042 0.064-0.127 0.085-0.168-0.153-0.087-0.307-0.174-0.461-0.261zM23.339 15.435c-0.383 0.215-0.766 0.432-1.15 0.648 0.056 0.105 0.112 0.211 0.166 0.317 0.076-0.039 0.153-0.078 0.23-0.117 0.052 0.11 0.105 0.219 0.157 0.33 0.082-0.037 0.163-0.072 0.245-0.108-0.054-0.114-0.108-0.228-0.162-0.341 0.076-0.038 0.153-0.076 0.23-0.114 0.055 0.117 0.111 0.234 0.166 0.352 0.082-0.036 0.164-0.072 0.246-0.108-0.058-0.121-0.115-0.243-0.172-0.364 0.079-0.040 0.158-0.080 0.238-0.12-0.065-0.125-0.13-0.25-0.196-0.374zM16.861 15.019c-0.008 0.037-0.024 0.109-0.031 0.146-0.049-0.008-0.146-0.023-0.195-0.031-0.042 0.286-0.085 0.572-0.127 0.858-0.041-0.004-0.121-0.012-0.161-0.016-0.015 0.143-0.029 0.286-0.044 0.43 0.233 0.041 0.465 0.090 0.693 0.151 0.134-0.401 0.271-0.801 0.403-1.203-0.085-0.065-0.153-0.146-0.189-0.247-0.116-0.030-0.232-0.059-0.349-0.087zM10.874 15.43c-0.126 0.166-0.252 0.334-0.376 0.503 0.075 0.050 0.15 0.101 0.225 0.151 0.029-0.040 0.089-0.12 0.118-0.16 0.289 0.205 0.577 0.41 0.865 0.615 0.067-0.090 0.134-0.18 0.202-0.27-0.345-0.28-0.69-0.559-1.034-0.839zM15.838 14.936c-0.206 0.016-0.413 0.037-0.618 0.062 0.016 0.095 0.032 0.19 0.048 0.285-0.124 0.027-0.248 0.056-0.372 0.084-0.025-0.095-0.050-0.191-0.075-0.285-0.198 0.060-0.394 0.126-0.589 0.194 0.056 0.137 0.11 0.274 0.166 0.411 0.117-0.041 0.234-0.081 0.352-0.122 0.098 0.323 0.198 0.644 0.294 0.967 0.185-0.042 0.371-0.082 0.558-0.116-0.041-0.336-0.081-0.673-0.121-1.009 0.123-0.010 0.247-0.019 0.371-0.027-0.005-0.148-0.010-0.295-0.016-0.443zM13.694 15.535c-0.174 0.112-0.349 0.225-0.521 0.34 0.146 0.195 0.294 0.39 0.441 0.585 0.146-0.096 0.293-0.191 0.44-0.286-0.018-0.033-0.054-0.098-0.072-0.131-0.039 0.023-0.117 0.070-0.156 0.095-0.017-0.029-0.052-0.086-0.069-0.115 0.052-0.036 0.102-0.071 0.154-0.106-0.072-0.127-0.144-0.255-0.217-0.382zM16.041 14.936c-0.003 0.193-0.006 0.387-0.008 0.581-0.12 0.004-0.24 0.008-0.359 0.013 0.021 0.291 0.043 0.581 0.065 0.872 0.143-0.003 0.285-0.004 0.428-0.005 0.010-0.191 0.022-0.382 0.033-0.573 0.042 0.002 0.125 0.007 0.167 0.008 0.030-0.291 0.059-0.58 0.090-0.87-0.139-0.009-0.277-0.018-0.415-0.026zM20.744 15.635c-0.173 0.141-0.345 0.283-0.517 0.425 0.070 0.095 0.14 0.189 0.211 0.284 0.18-0.131 0.361-0.262 0.542-0.392-0.079-0.106-0.157-0.212-0.236-0.317zM11.589 14.678c-0.154 0.142-0.303 0.289-0.447 0.44 0.065 0.061 0.13 0.123 0.195 0.184-0.033 0.037-0.1 0.111-0.133 0.148 0.2 0.172 0.399 0.343 0.598 0.517 0.102-0.098 0.208-0.194 0.325-0.275-0.031 0.146-0.123 0.262-0.212 0.376 0.024 0.019 0.071 0.057 0.094 0.077 0.152-0.164 0.306-0.324 0.467-0.477-0.297-0.329-0.592-0.661-0.888-0.99zM20.167 14.502c-0.198 0.24-0.396 0.48-0.594 0.72 0.087 0.080 0.175 0.161 0.262 0.242-0.090 0.095-0.179 0.191-0.268 0.287 0.118 0.118 0.234 0.239 0.349 0.361 0.332-0.293 0.664-0.586 0.996-0.879-0.094-0.105-0.188-0.209-0.283-0.313-0.095 0.095-0.191 0.189-0.286 0.285-0.034-0.032-0.103-0.096-0.137-0.127 0.091-0.097 0.181-0.195 0.272-0.291-0.103-0.095-0.207-0.189-0.311-0.283zM22.516 14.232c-0.070 0.057-0.139 0.114-0.208 0.17 0.031 0.040 0.091 0.121 0.121 0.161-0.069 0.054-0.138 0.108-0.207 0.162 0.038 0.052 0.078 0.105 0.117 0.157-0.024 0.018-0.073 0.054-0.097 0.072-0.031-0.038-0.091-0.114-0.122-0.152-0.104 0.082-0.209 0.163-0.313 0.244 0.109 0.146 0.218 0.291 0.326 0.437-0.074 0.050-0.148 0.1-0.221 0.149 0.062 0.102 0.123 0.204 0.185 0.306 0.378-0.225 0.755-0.45 1.134-0.676-0.074-0.121-0.147-0.241-0.219-0.361-0.182 0.121-0.364 0.242-0.546 0.363-0.036-0.051-0.072-0.101-0.107-0.151 0.179-0.126 0.357-0.251 0.536-0.377-0.126-0.168-0.252-0.336-0.379-0.504zM9.195 14.55c-0.084 0.113-0.166 0.226-0.248 0.34 0.074 0.050 0.148 0.1 0.222 0.15-0.071 0.114-0.142 0.229-0.213 0.343 0.076 0.046 0.153 0.091 0.23 0.137 0.069-0.11 0.138-0.221 0.207-0.331 0.108 0.071 0.215 0.143 0.323 0.215-0.065 0.105-0.131 0.211-0.196 0.316 0.076 0.046 0.153 0.091 0.23 0.137 0.063-0.101 0.125-0.202 0.188-0.302 0.027 0.017 0.080 0.051 0.107 0.068 0.070-0.097 0.139-0.193 0.21-0.288-0.354-0.261-0.706-0.524-1.060-0.785zM19.666 14.129c-0.248 0.368-0.497 0.736-0.746 1.104 0.179 0.134 0.357 0.268 0.532 0.407 0.058-0.069 0.116-0.136 0.175-0.204-0.090-0.073-0.18-0.146-0.27-0.218 0.215-0.279 0.43-0.558 0.646-0.836-0.112-0.084-0.225-0.168-0.337-0.253zM12.592 13.941c-0.119 0.074-0.237 0.149-0.355 0.225 0.076 0.11 0.151 0.221 0.227 0.331-0.038 0.028-0.114 0.084-0.151 0.112-0.080-0.108-0.16-0.215-0.24-0.322-0.111 0.084-0.222 0.169-0.333 0.255 0.284 0.341 0.571 0.68 0.855 1.021 0.134-0.101 0.268-0.2 0.403-0.3-0.101-0.147-0.202-0.293-0.302-0.44 0.102-0.065 0.204-0.131 0.308-0.195-0.138-0.229-0.274-0.458-0.413-0.687zM22.1 13.768c-0.128 0.12-0.255 0.24-0.383 0.36-0.044-0.048-0.089-0.095-0.133-0.142-0.188 0.185-0.375 0.372-0.561 0.559 0.079 0.087 0.157 0.174 0.237 0.261 0.026-0.021 0.078-0.063 0.104-0.084 0.029 0.031 0.086 0.093 0.115 0.124-0.024 0.021-0.072 0.063-0.095 0.084 0.073 0.093 0.147 0.187 0.22 0.281l0.105-0.076c-0.034-0.051-0.068-0.102-0.102-0.153 0.135-0.11 0.27-0.22 0.405-0.33-0.030-0.037-0.091-0.111-0.122-0.148 0.166-0.142 0.332-0.283 0.497-0.425-0.095-0.104-0.191-0.207-0.286-0.31zM9.58 14.059c-0.088 0.109-0.175 0.219-0.262 0.328 0.347 0.271 0.694 0.541 1.040 0.813 0.074-0.094 0.148-0.187 0.223-0.28-0.226-0.194-0.452-0.388-0.675-0.584-0.083 0.047-0.166 0.092-0.25 0.136 0.037-0.085 0.075-0.17 0.115-0.255-0.064-0.053-0.128-0.105-0.191-0.158zM12.953 13.737c-0.046 0.025-0.139 0.078-0.185 0.104 0.15 0.27 0.301 0.541 0.452 0.811-0.102 0.061-0.205 0.121-0.307 0.182 0.072 0.113 0.145 0.225 0.218 0.338 0.238-0.144 0.482-0.277 0.735-0.392-0.071-0.163-0.142-0.325-0.214-0.487-0.043 0.019-0.129 0.056-0.172 0.074-0.012-0.028-0.035-0.084-0.047-0.112 0.041-0.021 0.125-0.062 0.166-0.082-0.037-0.082-0.072-0.164-0.108-0.245-0.118 0.055-0.236 0.109-0.354 0.164-0.061-0.118-0.123-0.236-0.184-0.353zM18.187 13.385c-0.15 0.417-0.299 0.835-0.449 1.252 0.156 0.061 0.311 0.125 0.465 0.193 0.055-0.121 0.112-0.24 0.169-0.36 0.213 0.104 0.421 0.22 0.625 0.343 0.071-0.114 0.143-0.228 0.215-0.341-0.217-0.133-0.44-0.256-0.669-0.367 0.075-0.16 0.15-0.32 0.225-0.48-0.191-0.087-0.385-0.166-0.581-0.239zM10.627 13.041c-0.105 0.094-0.21 0.187-0.315 0.281l0.606 0.671c0.081-0.038 0.163-0.074 0.246-0.108-0.11 0.231-0.33 0.373-0.501 0.553 0.004 0.127 0 0.254-0.002 0.381 0.257-0.262 0.524-0.515 0.801-0.757-0.278-0.341-0.556-0.682-0.835-1.023zM14.106 13.271l-0.396 0.139c0.046 0.124 0.091 0.247 0.137 0.371-0.046 0.018-0.137 0.052-0.183 0.069 0.116 0.289 0.232 0.577 0.348 0.865 0.158-0.056 0.316-0.112 0.474-0.167-0.050-0.168-0.1-0.338-0.15-0.506 0.044-0.012 0.133-0.035 0.176-0.046-0.023-0.087-0.046-0.173-0.069-0.26-0.062 0.015-0.123 0.030-0.185 0.045-0.050-0.17-0.101-0.34-0.152-0.51zM17.389 13.158c-0.095 0.432-0.191 0.865-0.287 1.298 0.162 0.041 0.325 0.082 0.486 0.125 0.081-0.252 0.163-0.504 0.244-0.756-0.045-0.015-0.136-0.045-0.181-0.061 0.036-0.126 0.073-0.251 0.109-0.377-0.049-0.012-0.147-0.038-0.196-0.051 0.007-0.032 0.022-0.097 0.029-0.129-0.052-0.012-0.154-0.037-0.205-0.050zM10.158 13.455c-0.295 0.3-0.149 0.148-0.437 0.455 0.067 0.060 0.133 0.12 0.2 0.181 0.091-0.099 0.183-0.198 0.274-0.297 0.061 0.061 0.121 0.121 0.182 0.182-0.089 0.095-0.177 0.192-0.265 0.288 0.098 0.089 0.196 0.178 0.294 0.268 0.128-0.137 0.257-0.273 0.389-0.405-0.425-0.448-0.212-0.224-0.637-0.671zM15.122 13.060c-0.275 0.039-0.549 0.092-0.819 0.161 0.034 0.13 0.068 0.261 0.102 0.39 0.048-0.011 0.142-0.033 0.19-0.044 0.069 0.299 0.138 0.598 0.206 0.897 0.165-0.031 0.33-0.059 0.495-0.085-0.023-0.176-0.046-0.351-0.070-0.526-0.046 0.006-0.137 0.018-0.184 0.024-0.004-0.031-0.012-0.093-0.016-0.125 0.046-0.007 0.137-0.022 0.183-0.029-0.029-0.221-0.059-0.442-0.088-0.663zM21.496 13.192c-0.288 0.333-0.576 0.666-0.863 0.999 0.089 0.078 0.178 0.157 0.267 0.236 0.023-0.024 0.070-0.072 0.094-0.096-0.033-0.032-0.1-0.095-0.133-0.127 0.021-0.021 0.063-0.065 0.085-0.086 0.046 0.039 0.091 0.079 0.138 0.119 0.243-0.255 0.486-0.509 0.729-0.763-0.105-0.093-0.21-0.187-0.316-0.281zM16.569 13.025c-0.041 0.442-0.080 0.883-0.119 1.325 0.109 0.016 0.218 0.032 0.328 0.048 0.008-0.033 0.023-0.1 0.030-0.133 0.041 0.007 0.122 0.019 0.163 0.025 0.065-0.349 0.131-0.698 0.196-1.047-0.050-0.007-0.148-0.022-0.198-0.029 0.003-0.034 0.009-0.101 0.012-0.134-0.137-0.018-0.274-0.037-0.411-0.055zM18.951 13.709c-0.061 0.12-0.122 0.239-0.183 0.359 0.172 0.095 0.342 0.195 0.511 0.297 0.072-0.114 0.144-0.228 0.215-0.341-0.18-0.108-0.36-0.214-0.543-0.315zM15.743 13.010v0c-0.14 0.007-0.279 0.015-0.419 0.023 0.044 0.441 0.088 0.881 0.133 1.323 0.277-0.017 0.554-0.026 0.832-0.015 0.007-0.133 0.015-0.266 0.022-0.4-0.178-0.005-0.357-0.009-0.534-0.010-0.011-0.307-0.023-0.614-0.034-0.921zM21.010 12.8c-0.262 0.353-0.524 0.706-0.786 1.059 0.095 0.071 0.191 0.142 0.286 0.214 0.279-0.34 0.56-0.678 0.837-1.020-0.112-0.086-0.224-0.17-0.337-0.253zM15.945 13c0.003 0.266 0.005 0.533 0.005 0.8 0.123 0.006 0.246 0.011 0.369 0.017 0.012-0.222 0.025-0.445 0.038-0.667-0.051-0.003-0.153-0.007-0.204-0.009 0.001-0.033 0.003-0.099 0.004-0.133-0.053-0.002-0.16-0.007-0.213-0.008zM20.319 12.336c-0.069 0.115-0.138 0.23-0.207 0.345 0.056 0.035 0.113 0.069 0.17 0.104-0.045 0.071-0.091 0.142-0.136 0.214-0.042-0.024-0.125-0.071-0.167-0.095-0.091 0.15-0.181 0.301-0.271 0.452 0.026 0.017 0.078 0.050 0.104 0.067-0.015 0.176 0.154 0.249 0.268 0.343 0.076-0.105 0.15-0.21 0.227-0.315-0.056-0.069-0.111-0.138-0.165-0.207 0.065 0.017 0.197 0.050 0.262 0.067 0.147-0.211 0.296-0.421 0.444-0.631-0.172-0.121-0.348-0.236-0.528-0.344zM12.237 13.056c-0.215 0.13-0.107 0.065-0.322 0.195 0.072 0.112 0.144 0.224 0.216 0.336 0.101-0.062 0.203-0.123 0.306-0.185l-0.2-0.347zM19.584 11.943c-0.058 0.121-0.116 0.243-0.173 0.365 0.045 0.021 0.134 0.063 0.18 0.084-0.038 0.076-0.077 0.152-0.115 0.228-0.059-0.026-0.117-0.052-0.176-0.077-0.056 0.119-0.113 0.239-0.17 0.358 0.042 0.020 0.124 0.058 0.165 0.078-0.038 0.077-0.076 0.153-0.114 0.23 0.104 0.057 0.207 0.116 0.31 0.174 0.217-0.383 0.434-0.767 0.65-1.15-0.183-0.102-0.37-0.199-0.558-0.29zM12.332 11.969l-0.38 0.183c0.21 0.387 0.42 0.773 0.629 1.16 0.108-0.052 0.215-0.102 0.323-0.153-0.191-0.396-0.381-0.793-0.572-1.19zM11.779 12.259l-0.36 0.218c0.071 0.11 0.141 0.221 0.212 0.331-0.056 0.035-0.112 0.070-0.168 0.106 0.074 0.11 0.149 0.219 0.223 0.329 0.163-0.099 0.326-0.197 0.489-0.296-0.132-0.229-0.264-0.459-0.396-0.688zM18.813 11.627c-0.060 0.167-0.119 0.335-0.179 0.502 0.046 0.017 0.138 0.050 0.184 0.066-0.010 0.026-0.031 0.078-0.041 0.103-0.064-0.008-0.193-0.025-0.257-0.035 0.061 0.072 0.125 0.142 0.189 0.212-0.058 0.15-0.116 0.3-0.173 0.45 0.109 0.048 0.219 0.095 0.328 0.143 0.088-0.201 0.176-0.402 0.266-0.603-0.045-0.022-0.134-0.065-0.179-0.087l0.057-0.108c0.044 0.020 0.131 0.058 0.175 0.077 0.071-0.163 0.142-0.327 0.212-0.491-0.193-0.082-0.387-0.158-0.583-0.229zM13.296 11.576c-0.133 0.047-0.265 0.094-0.398 0.142 0.064 0.163 0.128 0.326 0.192 0.489-0.045 0.017-0.134 0.050-0.179 0.066-0.067-0.161-0.135-0.321-0.203-0.482-0.048 0.023-0.144 0.069-0.193 0.091 0.108 0.24 0.216 0.481 0.324 0.721 0.114-0.050 0.229-0.101 0.345-0.149l0.050 0.119c-0.044 0.017-0.13 0.052-0.173 0.069 0.051 0.122 0.102 0.244 0.153 0.366 0.167-0.060 0.334-0.12 0.501-0.18-0.021-0.062-0.062-0.185-0.083-0.248 0.042-0.016 0.128-0.048 0.17-0.064-0.026-0.085-0.052-0.17-0.078-0.255-0.044 0.016-0.134 0.046-0.179 0.062-0.084-0.249-0.168-0.498-0.251-0.746zM18.015 11.388c-0.106 0.426-0.212 0.852-0.318 1.278 0.229 0.059 0.455 0.129 0.678 0.207 0.043-0.121 0.086-0.242 0.129-0.363-0.141-0.057-0.292-0.108-0.385-0.237 0.063 0.008 0.189 0.024 0.252 0.031l0.047-0.111c-0.047-0.018-0.14-0.052-0.186-0.070 0.025-0.082 0.050-0.163 0.075-0.244 0.047 0.016 0.14 0.048 0.187 0.064 0.042-0.128 0.084-0.256 0.125-0.384l-0.301-0.091-0.304-0.081zM15.978 1.12c-2.262 3.912-4.524 7.826-6.785 11.739 0.747-0.74 1.604-1.371 2.548-1.835 1.806-0.902 3.904-1.197 5.891-0.847 1.936 0.33 3.747 1.294 5.132 2.682-2.262-3.912-4.524-7.826-6.786-11.739zM14.301 11.301c-0.272 0.067-0.543 0.134-0.814 0.204 0.065 0.211 0.13 0.421 0.194 0.633 0.047-0.012 0.14-0.035 0.187-0.047 0.047 0.166 0.093 0.332 0.14 0.499-0.042 0.012-0.128 0.036-0.171 0.048 0.009 0.032 0.027 0.097 0.037 0.129 0.23-0.058 0.46-0.115 0.689-0.174-0.006-0.033-0.019-0.098-0.025-0.131-0.044 0.010-0.133 0.031-0.177 0.041-0.048-0.211-0.096-0.422-0.144-0.633 0.048-0.012 0.142-0.038 0.189-0.051-0.035-0.172-0.070-0.345-0.104-0.518zM17.198 11.23c-0.020 0.129-0.039 0.259-0.058 0.389-0.066-0.009-0.132-0.018-0.198-0.026-0.016 0.131-0.031 0.262-0.046 0.394 0.046 0.007 0.139 0.021 0.186 0.029-0.026 0.173-0.051 0.346-0.076 0.519 0.118 0.016 0.236 0.033 0.354 0.050 0.050-0.257 0.101-0.513 0.151-0.769 0.047 0.011 0.142 0.033 0.189 0.044 0.015-0.065 0.044-0.195 0.059-0.26-0.049-0.012-0.147-0.036-0.196-0.048 0.016-0.087 0.033-0.174 0.050-0.26-0.138-0.021-0.277-0.041-0.415-0.061zM14.919 11.205v0c-0.139 0.020-0.278 0.040-0.417 0.061 0.076 0.433 0.153 0.866 0.229 1.299 0.176-0.025 0.351-0.052 0.527-0.078-0.027-0.263-0.053-0.526-0.080-0.789-0.065 0.009-0.129 0.018-0.194 0.027-0.022-0.174-0.043-0.347-0.065-0.521zM15.54 11.151c-0.053 0.003-0.159 0.010-0.212 0.014 0.033 0.438 0.067 0.876 0.101 1.314 0.045-0.002 0.135-0.007 0.18-0.009-0.022-0.439-0.045-0.879-0.068-1.318zM15.745 11.136c0.011 0.441 0.023 0.883 0.035 1.325 0.059-0.003 0.118-0.007 0.178-0.010 0-0.088 0.001-0.176 0.001-0.262 0.121 0.005 0.243 0.010 0.365 0.016 0.004-0.089 0.008-0.178 0.012-0.267-0.127-0.006-0.255-0.012-0.382-0.018 0.002-0.031 0.006-0.095 0.008-0.126 0.127 0.006 0.253 0.012 0.38 0.018 0.010-0.221 0.021-0.443 0.031-0.663-0.209-0.008-0.419-0.013-0.628-0.012z"></path>
</svg>
