<!-- Generated by IcoMoon.io -->
<svg version="1.1" xmlns="http://www.w3.org/2000/svg" width="31" height="32" viewBox="0 0 31 32">
<title>bbd</title>
<path fill="#444" d="M31.237 19.414c-3.050 3.105-5.743 5.836-8.080 8.192 0.381 2.113 1.077 3.445 2.088 3.997h-18.599c1.004-0.912 1.618-2.086 1.841-3.523l-8.474-8.666 15.669-19.016 15.555 19.016zM14.149 15.132c-0.259 6.228 0.319 10.206 1.733 11.935 2.15-2.804 1.733-9.613 1.733-11.935-0.913-0.278-2.068-0.278-3.466 0zM8.642 14.592c0.614-0.743 1.892-1.136 1.892-1.136 0.415-1.811 1.466-2.926 3.153-3.343 0.345 1.477 0.517 2.329 0.517 2.558 1.081-0.228 2.207-0.228 3.377 0 0.144-1.36 0.319-2.213 0.524-2.558 1.812 0.333 3.060 2.223 3.060 3.343 0.566 0.189 1.217 0.567 1.953 1.136v7.403l4.438-4.468-11.973-14.696-11.979 14.696 5.038 4.982v-7.917z"></path>
</svg>
