<!-- Generated by IcoMoon.io -->
<svg version="1.1" xmlns="http://www.w3.org/2000/svg" width="32" height="32" viewBox="0 0 32 32">
<title>bcore</title>
<path fill="#444" d="M22.85 2.598c0 0 1.688 0.183 1.688 1.929l6.266 1.746c0 0 1.565 0.604 1.082 2.652l-5.179 19.335c0 0-1.085 1.447-2.349 1.084l-8.356-2.298-8.358 2.298c-1.264 0.363-2.349-1.084-2.349-1.084l-5.182-19.335c-0.48-2.049 1.085-2.652 1.085-2.652l6.266-1.746c0-1.746 1.686-1.929 1.686-1.929h13.7zM22.795 3.322h-13.592c-0.077 0.014-0.32 0.068-0.546 0.22-0.323 0.214-0.472 0.526-0.472 0.984v0.549c0 0-6.647 1.855-6.744 1.88-0.175 0.080-0.696 0.395-0.696 1.227 0 0.169 0.023 0.358 0.072 0.573 0.009 0.032 5.053 18.859 5.136 19.162 0.22 0.252 0.875 0.907 1.494 0.733l8.555-2.355 8.553 2.355c0.618 0.174 1.271-0.48 1.494-0.733 0.084-0.303 5.128-19.131 5.136-19.162 0.048-0.215 0.072-0.404 0.072-0.573 0-0.832-0.524-1.147-0.696-1.227-0.097-0.026-6.747-1.88-6.747-1.88l-0-0.549c0-0.458-0.149-0.77-0.469-0.984-0.226-0.152-0.47-0.207-0.549-0.22v0zM8.042 6.072v18.593c0 0 0.158 1.208 1.124 1.208h5.219l-6.987 1.926c0 0-0.401 0.2-0.604-0.24l-5.139-19.077c0 0-0.203-0.601 0.281-0.761l6.106-1.648zM23.963 6.032l6.1 1.648c0.483 0.16 0.283 0.761 0.283 0.761l-5.142 19.077c-0.198 0.441-0.601 0.24-0.601 0.24l-6.987-1.929h5.221c0.962 0 1.125-1.204 1.125-1.204v-18.593zM22.738 4.226c0.281 0 0.32 0.36 0.32 0.36v19.998c0 0.321-0.32 0.401-0.32 0.401h-13.452c-0.283 0-0.283-0.401-0.283-0.401v-19.998c0-0.24 0.283-0.36 0.283-0.36h13.452z"></path>
</svg>
