<!-- Generated by IcoMoon.io -->
<svg version="1.1" xmlns="http://www.w3.org/2000/svg" width="20" height="32" viewBox="0 0 20 32">
<title>bfz</title>
<path fill="#444" d="M9.639 1.793c3.347 4.557 6.702 9.108 10.045 13.669-1.736-0.683-3.471-1.368-5.205-2.058-1.313 1.49-2.619 2.988-3.937 4.475-0.003-2.534-0.003-5.068 0-7.602-2.026 2.125-4.059 4.243-6.083 6.369-1.47-0.547-2.94-1.097-4.41-1.645 3.194-4.404 6.393-8.804 9.589-13.207z"></path>
<path fill="#444" d="M5.254 18.596c1.304-1.477 2.608-2.954 3.918-4.424 0.003 2.532 0.005 5.064-0.001 7.596 2.031-2.141 4.070-4.272 6.103-6.411 1.469 0.549 2.938 1.096 4.407 1.645-3.193 4.404-6.391 8.804-9.585 13.206-3.345-4.544-6.688-9.095-10.032-13.636 0.009-0.017 0.028-0.051 0.038-0.068 0.13 0.066 0.248 0.152 0.383 0.21 1.59 0.624 3.181 1.25 4.769 1.883z"></path>
</svg>
