<!-- Generated by IcoMoon.io -->
<svg version="1.1" xmlns="http://www.w3.org/2000/svg" width="27" height="32" viewBox="0 0 27 32">
<title>big</title>
<path fill="#444" d="M12.696 3.433c2.261-0.349 4.616-0.075 6.732 0.797 2.45 1 4.567 2.788 5.969 5.031 0.784 1.249 1.349 2.635 1.656 4.077 0.386 1.806 0.373 3.696-0.038 5.496-0.587 2.599-2.029 4.99-4.037 6.739-1.061 0.928-2.277 1.68-3.584 2.21-1.465 0.597-3.043 0.912-4.624 0.929-1.63 0.021-3.264-0.279-4.781-0.876-1.983-0.775-3.763-2.059-5.128-3.693 0.618-0.001 1.235 0 1.853-0.001 0.877 0.851 1.887 1.565 2.989 2.095 2.753 1.338 6.054 1.477 8.913 0.389 2.218-0.832 4.155-2.382 5.464-4.355 0.717-1.077 1.248-2.277 1.56-3.533 0.442-1.774 0.446-3.655 0.012-5.431-0.553-2.285-1.846-4.379-3.629-5.909-1.023-0.882-2.204-1.582-3.472-2.050-2.248-0.837-4.763-0.925-7.067-0.265-1.787 0.508-3.436 1.476-4.766 2.771-0.618 0-1.236 0-1.854 0 0.999-1.194 2.218-2.204 3.579-2.961 1.317-0.734 2.765-1.233 4.256-1.46zM11.001 5.924c2.394-0.86 5.097-0.83 7.468 0.092 2.085 0.802 3.901 2.279 5.119 4.152 0.747 1.143 1.272 2.431 1.533 3.771 0.342 1.744 0.243 3.574-0.292 5.27-0.675 2.158-2.061 4.083-3.884 5.419-1.050 0.772-2.242 1.352-3.499 1.695-1.76 0.483-3.644 0.503-5.416 0.066-1.601-0.393-3.104-1.172-4.354-2.246 1.695 0 3.39-0 5.085 0 0.211 0.525 0.671 0.938 1.217 1.089 0.629 0.174 1.351 0.098 1.885-0.296 0.372-0.27 0.621-0.685 0.728-1.128 0.101-0.394 0.098-0.804 0.072-1.206-0.037-0.615-0.12-1.225-0.205-1.835 1.328-0.51 2.419-1.597 2.927-2.927 0.606 0.084 1.213 0.167 1.824 0.204 0.576 0.041 1.184 0.020 1.707-0.254 0.488-0.247 0.844-0.723 0.964-1.255 0.138-0.62 0.044-1.316-0.358-1.822-0.297-0.386-0.751-0.628-1.225-0.716-0.394-0.079-0.799-0.062-1.197-0.034-0.574 0.041-1.145 0.119-1.714 0.197-0.508-1.329-1.598-2.417-2.927-2.924 0.076-0.553 0.153-1.107 0.194-1.665 0.049-0.61 0.058-1.256-0.218-1.818-0.249-0.528-0.76-0.914-1.331-1.026-0.542-0.102-1.133-0.044-1.606 0.254-0.332 0.202-0.585 0.517-0.735 0.874-1.694 0-3.389-0-5.083 0 0.978-0.838 2.109-1.498 3.323-1.931zM13.874 7.919c0.228-0.215 0.558-0.275 0.861-0.255 0.282 0.017 0.571 0.14 0.736 0.378 0.201 0.29 0.233 0.658 0.228 1.001-0.017 0.668-0.111 1.33-0.203 1.99-0.105 0.739-0.229 1.474-0.363 2.208-0.339-0.064-0.688-0.064-1.027 0-0.186-1.019-0.352-2.043-0.478-3.072-0.049-0.449-0.099-0.899-0.085-1.351 0.017-0.322 0.090-0.67 0.332-0.901zM0.983 8.837c3.86-0 7.72 0 11.58-0-0.012 0.804 0.11 1.602 0.217 2.397-1.328 0.51-2.416 1.599-2.927 2.927-0.707-0.098-1.415-0.196-2.129-0.218-0.178-0.008-0.356 0.002-0.533 0.021-0.003-0.409-0.005-0.818-0.013-1.227-0.009-0.383-0.132-0.772-0.389-1.061-0.293-0.333-0.735-0.509-1.172-0.529-1.872-0.005-3.745-0.003-5.617-0.004 0.264-0.794 0.593-1.566 0.983-2.307zM2.508 12.123c0.48 0 0.96-0 1.44 0-0.907 2.478-0.908 5.275-0 7.754-0.48-0-0.96 0-1.44-0-0.804-2.501-0.804-5.252 0.001-7.753zM4.645 12.125c0.312 0.001 0.624-0.001 0.936 0.001 0.178-0 0.365 0.064 0.479 0.207 0.109 0.133 0.139 0.31 0.141 0.477 0.005 0.473 0.016 0.946 0.005 1.418 0.013 0.008 0.040 0.023 0.053 0.030-0.485 0.251-0.812 0.751-0.914 1.28-0.102 0.543-0.031 1.135 0.271 1.606 0.158 0.252 0.382 0.457 0.638 0.605-0.012 0.012-0.036 0.035-0.048 0.046 0.011 0.459 0 0.919-0.004 1.378-0 0.178-0.029 0.37-0.15 0.509-0.123 0.146-0.322 0.195-0.505 0.195-0.3 0.002-0.6-0-0.899 0.001-0.969-2.463-0.97-5.29-0.001-7.754zM14.337 14.195c0.516-0.086 1.065 0.072 1.461 0.412 0.322 0.27 0.544 0.653 0.618 1.066 0.098 0.512-0.042 1.062-0.369 1.467-0.292 0.368-0.731 0.615-1.196 0.673-0.62 0.087-1.273-0.182-1.658-0.673-0.27-0.337-0.417-0.771-0.401-1.203 0.017-0.49 0.241-0.967 0.606-1.294 0.261-0.234 0.59-0.395 0.938-0.448zM6.763 15.086c0.414-0.213 0.897-0.17 1.346-0.143 1.259 0.107 2.507 0.322 3.75 0.544-0.061 0.339-0.061 0.688-0 1.027-0.937 0.171-1.877 0.33-2.823 0.449-0.509 0.058-1.020 0.123-1.534 0.116-0.317-0.009-0.658-0.066-0.907-0.279-0.244-0.211-0.332-0.55-0.314-0.862 0.003-0.34 0.168-0.695 0.482-0.852zM17.378 15.486c1.245-0.218 2.493-0.438 3.754-0.542 0.456-0.027 0.95-0.071 1.366 0.156 0.312 0.167 0.467 0.531 0.459 0.873 0.017 0.337-0.108 0.705-0.402 0.895-0.34 0.22-0.764 0.222-1.155 0.206-1.353-0.083-2.689-0.327-4.022-0.558 0.064-0.34 0.064-0.69-0-1.030zM8.359 18.020c0.5-0.042 0.997-0.111 1.494-0.18 0.509 1.329 1.598 2.417 2.927 2.927-0.106 0.795-0.229 1.593-0.217 2.397h-11.579c-0.391-0.74-0.72-1.512-0.984-2.307 1.849-0 3.697 0 5.547 0 0.465-0.005 0.942-0.186 1.251-0.542 0.255-0.291 0.373-0.68 0.381-1.062 0.006-0.405 0.012-0.811 0.012-1.216 0.388 0.045 0.78 0.014 1.168-0.017zM14.106 18.759c0.339 0.064 0.688 0.064 1.027 0 0.174 0.961 0.337 1.926 0.458 2.896 0.056 0.501 0.119 1.003 0.106 1.508-0.015 0.331-0.089 0.691-0.341 0.926-0.276 0.248-0.68 0.287-1.030 0.22-0.289-0.055-0.546-0.254-0.657-0.529-0.186-0.445-0.127-0.939-0.096-1.407 0.115-1.213 0.318-2.416 0.533-3.615z"></path>
</svg>
