<!-- Generated by IcoMoon.io -->
<svg version="1.1" xmlns="http://www.w3.org/2000/svg" width="27" height="32" viewBox="0 0 27 32">
<title>blb</title>
<path fill="#444" d="M13.332 1.837c0.483 1.123 1.242 2.124 2.189 2.896 0.637 0.523 1.355 0.947 2.115 1.263-0.425 0.74-0.778 1.542-0.875 2.397-0.068 0.595 0.040 1.236 0.418 1.716 0.381 0.5 0.981 0.778 1.582 0.91 0.569 0.133 1.2 0.122 1.718-0.173 0.461-0.253 0.792-0.695 0.985-1.177 0.224-0.549 0.306-1.146 0.325-1.735 1.55 0.441 3.248 0.495 4.775-0.066-0.282 0.895-0.456 1.831-0.438 2.772 0.015 0.794 0.183 1.592 0.541 2.305-0.855 0.147-1.714 0.439-2.379 1.015-0.5 0.427-0.838 1.028-0.958 1.673-0.155 0.552-0.104 1.152 0.112 1.681 0.306 0.763 0.942 1.346 1.651 1.734-0.479 1.279-0.712 2.709-0.34 4.046-1.331-0.032-2.721 0.201-3.846 0.952-1.127-0.914-2.584-1.438-4.040-1.367-0.87 0.039-1.72 0.296-2.488 0.7 0.651-1.579 1.548-3.044 2.536-4.433 1.565-2.186 3.36-4.203 5.289-6.073 0.086-0.094 0.227-0.141 0.264-0.275-0.295 0.274-0.614 0.523-0.915 0.791-1.422 1.235-2.774 2.552-4.036 3.951-1.425 1.591-2.756 3.288-3.768 5.176-0.127-4.663-0.256-9.326-0.383-13.989-0.016-0.402-0.016-0.805-0.022-1.207-0.052 0.876-0.057 1.754-0.086 2.631-0.114 4.188-0.227 8.377-0.342 12.565-0.751-1.404-1.687-2.701-2.697-3.93-1.806-2.183-3.846-4.168-6.029-5.972 1.516 1.45 2.951 2.986 4.263 4.624 0.908 1.129 1.759 2.307 2.509 3.548 0.502 0.832 0.952 1.696 1.322 2.595-0.799-0.422-1.688-0.685-2.593-0.708-1.421-0.038-2.833 0.483-3.932 1.375-1.127-0.75-2.517-0.983-3.85-0.952 0.375-1.337 0.142-2.768-0.34-4.046 0.647-0.355 1.233-0.865 1.563-1.536 0.219-0.44 0.323-0.94 0.281-1.431-0.016-0.216-0.077-0.424-0.124-0.634-0.146-0.611-0.505-1.163-0.994-1.556-0.654-0.531-1.476-0.806-2.297-0.948 0.484-0.961 0.613-2.067 0.507-3.128-0.062-0.662-0.208-1.314-0.408-1.948 1.528 0.561 3.227 0.506 4.778 0.066 0.026 0.811 0.168 1.664 0.655 2.335 0.385 0.535 1.039 0.851 1.697 0.831 0.664-0.021 1.343-0.21 1.879-0.613 0.54-0.404 0.829-1.082 0.815-1.749-0.014-0.979-0.416-1.905-0.893-2.743 1.285-0.535 2.448-1.382 3.307-2.482 0.403-0.513 0.735-1.080 0.995-1.678zM13.344 25.786c0.009 0.712 0.113 1.423 0.264 2.118 0.122 0.483 0.257 1.003 0.627 1.361-0.302 0.299-0.599 0.603-0.904 0.898-0.301-0.299-0.6-0.6-0.9-0.899 0.251-0.235 0.387-0.559 0.494-0.878 0.269-0.841 0.343-1.726 0.419-2.6z"></path>
</svg>
