<!-- Generated by IcoMoon.io -->
<svg version="1.1" xmlns="http://www.w3.org/2000/svg" width="23" height="32" viewBox="0 0 23 32">
<title>blc</title>
<path fill="#444" d="M10.439 2.852c0.268-0.496 0.566-0.976 0.893-1.436 0.722 1.025 1.33 2.143 1.706 3.342 0.181 0.592 0.305 1.207 0.308 1.828-0.286 0.823-0.495 1.676-0.567 2.546 0.221 0.099 0.435 0.216 0.637 0.351 0.126-1.972 0.89-3.902 2.162-5.416 0.533-0.635 1.153-1.196 1.831-1.672 0.282 0.92 0.462 1.874 0.501 2.836 0.034 0.846-0.045 1.704-0.297 2.515-0.203 0.656-0.529 1.275-0.968 1.804-0.489 0.593-1.114 1.063-1.794 1.416 0.118 0.183 0.228 0.371 0.33 0.565 1.061-0.55 1.985-1.389 2.558-2.444 0.552-0.998 0.793-2.144 0.819-3.279 1.102-0.34 2.313-0.384 3.416-0.024-0.339 1.571-1.063 3.063-2.106 4.288-1.096 1.294-2.583 2.233-4.202 2.725 0.059 0.211 0.11 0.424 0.152 0.64 1.327-0.403 2.573-1.080 3.607-2.007 0.489-0.434 0.928-0.923 1.32-1.447 0.669 0.098 1.363 0.246 1.923 0.647-0.476 1.283-1.372 2.419-2.547 3.131-1.239 0.76-2.739 0.987-4.172 0.868 0.016 0.227 0.012 0.455-0.006 0.681 1.37 0.242 2.736 0.715 3.835 1.588 0.431 0.346 0.811 0.759 1.1 1.231 0.256 0.497 0.319 1.062 0.367 1.612 0.038 0.45 0.25 0.866 0.554 1.195-0.491 0.239-1.005 0.451-1.548 0.534-0.212 0.030-0.431 0.033-0.639-0.024-0.24-0.73-0.717-1.365-1.301-1.857-0.873-0.736-1.943-1.203-3.035-1.508-0.095 0.206-0.199 0.407-0.315 0.601 0.716 0.185 1.414 0.449 2.059 0.811 0.592 0.336 1.143 0.766 1.541 1.324 0.313 0.436 0.514 0.954 0.569 1.49 0.061 0.572-0.026 1.152-0.202 1.698-0.243 0.701-0.391 1.434-0.438 2.174-0.796-0.389-1.719-0.607-2.595-0.392-0.198-1.576-0.798-3.075-1.566-4.456-0.218-0.388-0.451-0.768-0.7-1.136-0.175 0.129-0.356 0.25-0.547 0.354 0.793 1.172 1.449 2.446 1.858 3.803 0.257 0.86 0.409 1.759 0.365 2.658-0.033 0.691-0.191 1.379-0.487 2.006-0.276 0.589-0.67 1.118-1.135 1.572-0.236-0.594-0.683-1.102-1.252-1.395-0.505-0.271-0.77-0.853-0.771-1.409-0.003-2.267 0-4.534-0.002-6.8-0.22 0.024-0.442 0.024-0.661-0.003 0.006 2.269 0 4.537 0.004 6.806-0.001 0.57-0.283 1.161-0.805 1.426-0.556 0.292-0.989 0.793-1.221 1.375-0.512-0.499-0.938-1.093-1.215-1.753-0.321-0.755-0.444-1.584-0.409-2.401 0.063-1.398 0.521-2.749 1.129-4 0.319-0.654 0.689-1.284 1.099-1.885-0.19-0.106-0.373-0.226-0.547-0.357-0.82 1.223-1.493 2.553-1.92 3.965-0.159 0.532-0.278 1.076-0.346 1.627-0.877-0.212-1.797 0.009-2.592 0.395-0.045-0.734-0.19-1.462-0.431-2.157-0.242-0.744-0.322-1.567-0.082-2.323 0.215-0.696 0.694-1.283 1.263-1.726 0.815-0.631 1.788-1.031 2.78-1.29-0.116-0.194-0.22-0.396-0.315-0.601-0.82 0.225-1.617 0.547-2.338 0.998-0.889 0.553-1.668 1.356-1.999 2.367-0.475 0.119-0.963-0.025-1.412-0.178-0.265-0.094-0.523-0.209-0.775-0.333 0.212-0.238 0.393-0.511 0.481-0.82 0.11-0.389 0.090-0.799 0.175-1.192 0.058-0.269 0.135-0.536 0.259-0.782 0.605-1 1.599-1.703 2.657-2.162 0.73-0.316 1.501-0.534 2.285-0.668-0.017-0.227-0.022-0.455-0.006-0.682-1.292 0.104-2.633-0.062-3.797-0.658-1.355-0.684-2.397-1.922-2.919-3.34 0.559-0.402 1.252-0.549 1.921-0.647 0.753 1.016 1.706 1.886 2.799 2.525 0.668 0.394 1.386 0.701 2.127 0.929 0.043-0.215 0.091-0.429 0.152-0.64-1.398-0.428-2.702-1.181-3.735-2.22-1.298-1.304-2.184-2.999-2.572-4.793 1.103-0.359 2.314-0.315 3.416 0.024 0.029 1.327 0.363 2.678 1.129 3.777 0.568 0.827 1.362 1.482 2.248 1.945 0.101-0.194 0.211-0.382 0.33-0.565-0.641-0.333-1.235-0.77-1.71-1.318-0.75-0.849-1.17-1.952-1.299-3.070-0.165-1.407 0.040-2.837 0.451-4.185 1.054 0.738 1.962 1.688 2.63 2.789 0.788 1.296 1.262 2.784 1.362 4.298 0.202-0.134 0.416-0.251 0.637-0.351-0.076-0.843-0.263-1.677-0.55-2.473-0.041-0.116-0.011-0.241-0.009-0.36 0.089-1.217 0.542-2.376 1.112-3.444zM10.998 9.837c-0.617 0.078-1.188 0.383-1.642 0.8-0.762 0.701-1.234 1.668-1.473 2.665-0.293 1.248-0.244 2.58 0.166 3.796 0.246 0.72 0.626 1.404 1.163 1.95 0.425 0.429 0.958 0.766 1.552 0.897 0.519 0.116 1.072 0.067 1.564-0.134 0.583-0.234 1.076-0.655 1.459-1.148 0.514-0.665 0.846-1.458 1.023-2.276 0.303-1.427 0.172-2.961-0.45-4.287-0.347-0.73-0.858-1.405-1.548-1.841-0.534-0.341-1.184-0.507-1.815-0.422zM21.296 13.69c0.242 0.685 0.676 1.329 1.314 1.699-0.37 0.719-0.96 1.403-1.775 1.602-0.75-0.818-1.726-1.399-2.757-1.792 1.181-0.205 2.312-0.719 3.218-1.51zM1.369 13.692c0.913 0.788 2.048 1.319 3.24 1.504-1.038 0.38-2.013 0.971-2.77 1.783-0.176-0.011-0.348-0.103-0.507-0.181-0.568-0.313-0.981-0.844-1.276-1.41 0.638-0.368 1.072-1.012 1.314-1.696z"></path>
</svg>
