<!-- Generated by IcoMoon.io -->
<svg version="1.1" xmlns="http://www.w3.org/2000/svg" width="27" height="32" viewBox="0 0 27 32">
<title>bng</title>
<path fill="#444" d="M9.19 2.941c-0.151 2.814-0.186 5.605-2.241 8.058-1.936-2.852-4.392-3.151-6.938-3.167 2.276 1.571 6.41 4.759 2.238 13.041 0.612 2.686 2.249 4.777 4.387 6.173 2.015 1.382 4.421 2.028 6.818 2.013 0.013-0 0.025 0 0.038 0 2.4 0.015 4.811-0.632 6.827-2.018 2.134-1.396 3.768-3.485 4.379-6.167-4.172-8.282 0.053-11.47 2.329-13.041-2.546 0.016-5.091 0.316-7.027 3.167-2.055-2.453-2.092-5.244-2.242-8.058-1.024 1.408-3.68 7.258-1.176 10.881 2.138 3.093 0.288 6.427-3.048 6.557l-0.061 0.003-0.060-0.003c-3.336-0.131-5.186-3.465-3.048-6.557 2.504-3.622-0.151-9.473-1.176-10.881z"></path>
</svg>
