<!-- Generated by IcoMoon.io -->
<svg version="1.1" xmlns="http://www.w3.org/2000/svg" width="29" height="32" viewBox="0 0 29 32">
<title>bok</title>
<path fill="#444" d="M23.673 19.223c2.354 2.839 5.591 3.92 5.591 3.92-5.048 3.194-9.753 0.174-9.753 0.174 2.555-0.757 1.972-4.704-2.149-4.704s-3.138 4.238-3.138 4.238c-4.004 2.38-6.618 7.376-6.618 7.376-3.194-5.866 0-10.048 0-10.048 0.757 2.092 4.356 3.137 4.356-1.449s-4.413-3.312-4.413-3.312c-2.032-4.412-7.549-6.444-7.549-6.444 5.286-3.137 9.987 0.057 9.987 0.057-1.51 0.465-1.915 3.951 2.15 3.951s3.251-4.065 3.251-4.065c0 0 3.367-0.639 6.562-7.145 0 0 3.542 5.17 0.117 9.988 0 0-0.639-1.742-2.206-1.742s-2.381 2.033-2.381 2.903c0 0.871 0.813 3.951 3.077 3.951 0 0 0.81 0.113 1.279-0.697 0 0 0.483 1.413 1.838 3.047z"></path>
</svg>
