<!-- Generated by IcoMoon.io -->
<svg version="1.1" xmlns="http://www.w3.org/2000/svg" width="31" height="32" viewBox="0 0 31 32">
<title>boros</title>
<path fill="#444" d="M15.32 1.677c0.055-0.238 0.104-0.479 0.186-0.71 0.588 2.442 1.155 4.889 1.731 7.334 0.146 0.028 0.292 0.055 0.439 0.081 1.342-1.822 2.697-3.635 4.042-5.457 0.091-0.125 0.186-0.248 0.286-0.366-0.351 2.39-0.758 4.772-1.118 7.161 0.177 0.122 0.355 0.242 0.537 0.356 1.617-0.946 3.225-1.909 4.84-2.861 0.274-0.16 0.541-0.334 0.826-0.474-1.139 1.855-2.351 3.665-3.501 5.513 0.161 0.231 0.32 0.465 0.471 0.704 2.025-0.232 4.045-0.51 6.070-0.744-1.616 1.208-3.26 2.38-4.889 3.571 0.050 0.281 0.111 0.56 0.16 0.841 1.86 0.561 3.739 1.066 5.601 1.62-1.867 0.488-3.739 0.956-5.602 1.461-0.33 2.166-1.403 4.209-2.996 5.712 0.443 1.248 0.934 2.479 1.39 3.723-1.040 0.804-2.219 1.423-3.448 1.881-0.318-1.497-0.616-3-0.925-4.498-0.134-0.691-0.298-1.376-0.411-2.070 0.555-0.53 1.111-1.059 1.671-1.585 0.102-0.093 0.202-0.198 0.224-0.34 0.274-1.169 0.569-2.332 0.834-3.503-1.145 0.609-2.274 1.25-3.414 1.871-0.237 0.123-0.46 0.275-0.707 0.374-0.097-0.011-0.182-0.063-0.267-0.103-1.174-0.623-2.357-1.231-3.531-1.854-0.117-0.062-0.24-0.124-0.377-0.117-0.761-0.004-1.522 0.006-2.283-0.003-0.001-0.172-0.001-0.344-0.001-0.515 1.198-0.008 2.396 0.010 3.594-0.009-0.001-0.74 0.001-1.48-0.001-2.219-1.895-0.015-3.79-0.006-5.684-0.004-0.013 1.23 0.001 2.46-0.007 3.69 0.004 0.124-0.011 0.267 0.083 0.364 1.029 1.258 2.060 2.513 3.089 3.771-0.501 2.256-1.029 4.506-1.538 6.761-1.247-0.45-2.435-1.081-3.486-1.89 0.456-1.244 0.947-2.475 1.389-3.723-1.593-1.504-2.666-3.546-2.996-5.712-1.862-0.505-3.734-0.974-5.601-1.461 1.862-0.555 3.74-1.059 5.6-1.62 0.049-0.281 0.11-0.56 0.16-0.841-1.535-1.113-3.066-2.232-4.6-3.346-0.099-0.072-0.195-0.147-0.289-0.225 2.025 0.233 4.044 0.512 6.068 0.743 0.152-0.238 0.311-0.471 0.472-0.702-0.979-1.565-1.989-3.113-2.979-4.671-0.176-0.281-0.369-0.553-0.525-0.846 0.286 0.142 0.554 0.316 0.829 0.477 1.615 0.952 3.223 1.914 4.84 2.861 0.182-0.114 0.36-0.235 0.538-0.356-0.361-2.389-0.768-4.771-1.119-7.161 1.458 1.929 2.888 3.88 4.328 5.823 0.146-0.026 0.293-0.053 0.439-0.081 0.515-2.209 1.040-4.416 1.557-6.624zM13.899 11.831c0 1.328 0 2.656 0 3.984 0.514 0.011 1.029-0.009 1.543 0.012-0.001 0.855-0.006 1.71 0.001 2.565 0.283 0.009 0.566 0.009 0.849 0-0.001-2.188 0.003-4.377-0.002-6.565-0.797-0.003-1.594-0.009-2.391 0.004zM16.995 12.715c-0.001 1.894-0.006 3.788 0.003 5.682 0.756-0.001 1.513-0.001 2.269 0 0.017-1.894 0.008-3.788 0.004-5.682-0.759-0.007-1.518-0.006-2.276 0zM10.665 12.803c-0.007 1.004-0.003 2.008-0.003 3.012 0.859 0.004 1.719 0.004 2.578 0.001 0-1.005 0.005-2.009-0.003-3.014-0.858 0.001-1.715 0-2.572 0.001zM19.891 13.553c-0.006 1.615-0.014 3.23 0.004 4.844 0.648-0.001 1.298 0.003 1.947-0.002 0.003-1.613 0-3.226 0.001-4.839-0.651-0.008-1.301-0.004-1.952-0.002z"></path>
</svg>
