<!-- Generated by IcoMoon.io -->
<svg version="1.1" xmlns="http://www.w3.org/2000/svg" width="29" height="32" viewBox="0 0 29 32">
<title>bot</title>
<path fill="#444" d="M13.083 28.558c-0.029 1.114-0.037 2.225-0.023 3.339-0.769-0.006-1.54-0.006-2.309 0 0.233-1.108 0.432-2.222 0.613-3.339l1.718-0zM23.57 14.225c-2.018 2.455-4.079 4.873-6.12 7.309-0.501-1.318-1.008-2.637-1.595-3.918 2.556-1.163 5.155-2.234 7.714-3.391zM28.8 0.103c-1.082 1.477-2.021 3.069-3.207 4.459-1.885 0.838-3.86 1.457-5.769 2.239-0.193 1.103-0.389 2.202-0.599 3.302 1.831-0.861 3.676-1.687 5.504-2.553-0.017 0.21-0.049 0.628-0.063 0.838-1.805 0.855-3.662 1.609-5.432 2.53-0.409 0.59-0.317 1.436-0.512 2.122 1.822-0.887 3.685-1.684 5.504-2.582 0 0.201 0.006 0.599 0.009 0.797-1.819 0.878-3.687 1.658-5.495 2.562-1.425 1.022-2.66 2.283-4.033 3.374-0.046 4.888 0.003 9.778-0.003 14.666 3.926-5.55 7.752-11.172 11.655-16.736 0.302-0.443 0.659-0.892 0.688-1.454 0.584-4.519 1.218-9.036 1.753-13.564zM27.007 17.023c-0.245 0.282-0.486 0.567-0.702 0.872-3.103 4.499-6.218 8.99-9.344 13.475 2.833-1.523 5.705-2.974 8.558-4.462 0.461-3.299 0.921-6.6 1.488-9.885zM10.659 19.447c-0.812 0.653-1.626 1.304-2.432 1.969 0.043 2.974 0.043 5.95 0.066 8.924 0.492 0.245 0.982 0.492 1.471 0.746 0.199-1.29 0.426-2.573 0.659-3.857 0.884 0.026 1.767 0.032 2.654 0.032 0.009-0.458 0.020-0.912 0.032-1.37-0.826-0.012-1.652-0.006-2.476 0.009-0.017-2.15-0.012-4.301 0.026-6.451zM1.713 16.436c0.291 3.886 0.553 7.775 0.864 11.658 1.419 0.576 2.838 1.154 4.257 1.727-0.017-2.864 0.020-5.725-0.009-8.587-0.849-0.461-1.693-0.927-2.539-1.396-0.184-0.636-0.296-1.304-0.581-1.906-0.605-0.573-1.324-1.005-1.992-1.497zM10.846 12.849c0.32 1.71 0.797 3.397 1.016 5.124-0.003 2.202-0.029 4.407-0.003 6.609 0.412-0.012 0.82-0.023 1.232-0.035 0.014-3.644-0.017-7.291 0.006-10.939-0.748-0.256-1.5-0.512-2.251-0.76zM2.159 10.391c1.972 0.855 3.944 1.716 5.93 2.542 0.098 0.363 0.193 0.725 0.288 1.091-1.842-0.855-3.736-1.589-5.582-2.432-0.524-0.155-0.466-0.789-0.636-1.2zM2.596 12.818c1.952 0.93 3.964 1.716 5.933 2.602 0.078 0.337 0.153 0.671 0.23 1.008-1.98-0.855-3.967-1.698-5.941-2.565-0.072-0.348-0.147-0.697-0.222-1.045zM0 6.724c0.484 2.484 0.872 4.986 1.393 7.461 1.31 1.192 2.873 2.098 4.286 3.175 1.575-0.032 3.152-0.040 4.727 0.014-0.282-1.701-0.653-3.385-0.99-5.078-1.733-0.714-3.469-1.428-5.199-2.156-0.377-1.137-0.743-2.277-1.128-3.414-1.031 0.006-2.058 0.003-3.089-0.003zM19.358 0.44c-1.031 1.782-2.122 3.532-3.247 5.256-0.461-0.020-0.924-0.043-1.387-0.066 0 0.558-0.003 1.117-0.003 1.675 0.291-0.020 0.872-0.063 1.163-0.084-0.38 1.295-0.846 2.568-1.134 3.889-0.118 1.416-0.014 2.841-0.066 4.26 0.838-0.746 1.808-1.362 2.556-2.202 0.777-4.229 1.413-8.486 2.119-12.729zM13.046 5.627c-2.867 0.023-5.786 0.417-8.391 1.681l0.463 1.385c2.643 1.114 5.314 2.159 7.954 3.276 0.003-0.556 0.003-1.114 0.003-1.67-1.071-0.737-2.104-1.529-3.063-2.409 1.008-0.268 2.029-0.475 3.060-0.642-0.012-0.541-0.020-1.079-0.026-1.621z"></path>
</svg>
