<!-- Generated by IcoMoon.io -->
<svg version="1.1" xmlns="http://www.w3.org/2000/svg" width="29" height="32" viewBox="0 0 29 32">
<title>br</title>
<path fill="#444" d="M12.36 10.421c1.437 0.34 2.702 1.001 3.795 1.984 1.726 1.546 1.686 4.277 0.074 5.865-1.814 1.786-5.011 2.884-7.56 2.477-1.367-0.216-2.307 0.163-3.516 0.512-0.765 0.221-1.414-0.447-1.714-1.214-0.293-0.749-0.616-1.070-1.3-1.379-1.209-0.544-0.319-1.165 0.293-1.57 0.068-0.047 0.102-0.111 0.102-0.193v-4.937c0-0.075-0.033-0.147-0.091-0.195 0 0-0.968-0.731-1.064-0.989-0.133-0.36-0.015-0.647 0.173-0.983 0.003-0.005 0.006-0.010 0.008-0.015 0.122-0.24 0.024-0.538-0.216-0.661-0.005-0.002-0.010-0.005-0.015-0.007-0.665-0.309-1.126-0.414-1.321-1.223-0.002-0.009-0.004-0.017-0.005-0.026-0.031-0.188 0.099-0.367 0.288-0.398 0.009-0.001 0.018-0.003 0.027-0.003 0.811-0.071 1.519-0.377 2.123-0.916 0.059-0.053 0.091-0.131 0.091-0.211l0.001-3.555c0 0 0.116-0.003 0.168-0.004 2.998-0.012 6.627 0.068 8.667 0.407 2.329 0.387 4.842 1.309 4.074 4.181-0.353 1.323-1.767 2.16-3.102 2.916-0.113 0.063-0.107 0.11 0.019 0.14zM10.456 5.491c-0.755-0.479-2.080-0.39-3.072 0.277-0.054 0.036-0.081 0.086-0.081 0.151v2.491c0 0.087 0.043 0.137 0.128 0.151 1.277 0.202 2.649-0.014 3.391-1.144 0.447-0.684 0.276-1.519-0.365-1.926zM11.037 12.235c-0.955-0.343-2.088-0.397-3.4-0.163-0.068 0.012-0.102 0.053-0.102 0.123v3.123c0 0.062 0.029 0.105 0.086 0.13 1.591 0.684 3.718 1.226 4.844-0.344 0.872-1.216-0.305-2.47-1.428-2.87zM26.697 25.758c0.828 0.749 2.021 2.053 2.102 3.218 0.009 0.112-0.074 0.212-0.186 0.223-1.586 0.165-4.035-0.556-5.309-1.146-1.126-0.521-1.498-1.709-2.135-2.66-0.282-0.423-0.479-0.748-0.591-0.974-0.421-0.86-0.735-2.53-1.426-3.091-0.528-0.426-1.479 0.621-1.735 1.044-0.849 1.409-0.609 3.618 0.019 5.067 0.031 0.071 0.020 0.136-0.033 0.193-0.912 0.997-2.030 1.274-3.356 0.83-0.693-0.233-0.57-1.793-0.546-2.391 0.063-1.688-0.007-3.371-0.212-5.049-0.010-0.071 0.028-0.14 0.093-0.17 1.707-0.781 3.328-1.63 4.291-3.316 0.037-0.065 0.094-0.099 0.17-0.102 1.842-0.077 3.832-0.418 3.877-2.514 0.038-1.784-2.621-1.851-3.732-1.47-0.073 0.025-0.128 0.004-0.165-0.063-0.667-1.16-1.664-2.088-2.993-2.786-0.002-0-0.004-0.003-0.004-0.005s0.002-0.005 0.005-0.005c0 0 0.001 0 0.001 0 2.151 0.009 7.906-0.41 9.53 1.265 1.136 1.172 1.984 4.377 0.305 6.067-0.477 0.479-1.577 0.944-1.837 1.735-0.319 0.972 0.47 1.5 0.84 2.207 0.774 1.47 1.783 2.767 3.028 3.891z"></path>
</svg>
