<!-- Generated by IcoMoon.io -->
<svg version="1.1" xmlns="http://www.w3.org/2000/svg" width="32" height="32" viewBox="0 0 32 32">
<title>brb</title>
<path fill="#444" d="M25.551 7.233c1.309 0.006 2.451 0.368 3.394 0.853 1.933 0.993 3.033 2.499 3.033 2.499-2.933 0.141-3.341 2.009-3.355 2.567-0.023 0.951 0.421 1.625 0.421 1.625l1.258 0.593v1.26l-1.258 0.593c0 0-0.461 0.714-0.419 1.642 0.025 0.557 0.419 2.409 3.352 2.55 0 0-1.019 1.438-2.861 2.431-0.97 0.523-2.168 0.922-3.566 0.922-4.051 0-7.403-1.956-9.15-5.168 0 0 2.69 1.99 6.288 1.99 2.724 0 3.592-1.489 3.592-2.432 0-0.941-0.869-2.316-3.001-2.316-2.13 0-3.386 0.698-3.386 0.698s-0.315-0.734-2.933-0.734h-15.471l-0.7 0.314-0.767-1.12 0.767-1.117 0.7 0.315h15.471c2.619 0 2.933-0.734 2.933-0.734s1.256 0.698 3.386 0.698c2.132 0 3.001-1.186 3.001-2.129s-0.869-2.62-3.592-2.62c-3.598 0-6.288 1.992-6.288 1.992 1.747-3.214 5.099-5.188 9.15-5.17z"></path>
</svg>
