<!-- Generated by IcoMoon.io -->
<svg version="1.1" xmlns="http://www.w3.org/2000/svg" width="31" height="32" viewBox="0 0 31 32">
<title>brc</title>
<path fill="#444" d="M15.253 31.728l-12.537-11.763v-9.885l-2.716-2.617 7.627-7.19h4.654c0.457 1.27 1.433 1.911 2.927 1.924l0.045 0c1.52 0 2.511-0.641 2.973-1.924h4.654l7.627 7.19-2.716 2.617v9.885l-12.537 11.763zM15.253 9.86c2.515 0 4.554 2.041 4.554 4.558s-2.039 4.558-4.554 4.558-4.554-2.041-4.554-4.558c0-2.517 2.039-4.558 4.554-4.558zM15.253 11.1c-1.831 0-3.315 1.486-3.315 3.319s1.484 3.319 3.315 3.319c1.831 0 3.315-1.486 3.315-3.319s-1.484-3.319-3.315-3.319zM15.253 13.157c0.696 0 1.261 0.565 1.261 1.262s-0.564 1.262-1.261 1.262-1.261-0.565-1.261-1.262c0-0.697 0.564-1.262 1.261-1.262zM13.417 5.11l-0.156 2.586c-0.529 0.192-0.973 0.408-1.331 0.647l-2.109-1.628-2.389 2.329 1.681 2.259c-0.327 0.483-0.542 0.95-0.646 1.402l-2.584 0.179v3.248l2.576 0.234c0.259 0.675 0.524 1.142 0.794 1.402l-1.774 2.197 2.35 2.282 2.078-1.729c0.566 0.374 1.069 0.623 1.51 0.748l0.179 2.571h3.315l0.179-2.571c0.441-0.125 0.944-0.374 1.51-0.748l2.078 1.729 2.35-2.282-1.774-2.197c0.27-0.26 0.534-0.727 0.794-1.402l2.576-0.234v-3.248l-2.584-0.179c-0.104-0.452-0.319-0.919-0.646-1.402l1.681-2.259-2.389-2.329-2.109 1.628c-0.358-0.239-0.802-0.454-1.331-0.647l-0.156-2.586h-3.673z"></path>
</svg>
