<!-- Generated by IcoMoon.io -->
<svg version="1.1" xmlns="http://www.w3.org/2000/svg" width="32" height="32" viewBox="0 0 32 32">
<title>bro</title>
<path fill="#444" d="M13.646 2.79c1.667-0.178 3.333-0.354 4.999-0.534 0.301 1.244 0.607 2.486 0.906 3.73 0.777 0.14 1.54 0.358 2.27 0.66 0.921-0.88 1.845-1.756 2.766-2.635 1.305 1.055 2.609 2.113 3.912 3.171-0.66 1.091-1.323 2.179-1.982 3.27 0.447 0.649 0.824 1.347 1.115 2.079 1.277 0.036 2.554 0.066 3.832 0.105 0.178 1.669 0.354 3.339 0.536 5.008-1.261 0.312-2.524 0.618-3.786 0.93-0.144 0.745-0.366 1.476-0.67 2.172 1.035 2.171 2.073 4.34 3.115 6.507-2.472-2.025-4.957-4.036-7.43-6.060-0.073-0.058-0.147-0.115-0.211-0.183 0.888-1.032 1.443-2.342 1.592-3.693 0.169-1.488-0.155-3.028-0.918-4.317-0.732-1.247-1.867-2.253-3.195-2.825-1.554-0.676-3.355-0.748-4.961-0.212-1.283 0.423-2.441 1.232-3.26 2.309-1.872-1.53-3.749-3.055-5.624-4.583 0.517-0.644 1.036-1.287 1.554-1.931 1.12 0.679 2.231 1.374 3.355 2.045 0.613-0.448 1.284-0.814 1.982-1.112 0.035-1.301 0.065-2.602 0.102-3.903zM1.342 4.749c1.040 2.168 2.081 4.335 3.113 6.506-0.305 0.695-0.525 1.427-0.67 2.171-1.261 0.312-2.524 0.617-3.785 0.93 0.182 1.669 0.358 3.339 0.536 5.009 1.277 0.037 2.555 0.068 3.832 0.105 0.292 0.732 0.668 1.43 1.115 2.079-0.659 1.091-1.322 2.179-1.982 3.27 1.303 1.059 2.607 2.114 3.911 3.171 0.922-0.879 1.845-1.757 2.767-2.636 0.73 0.302 1.492 0.52 2.269 0.659 0.3 1.244 0.605 2.487 0.907 3.73 1.667-0.179 3.333-0.356 5-0.534 0.037-1.301 0.064-2.603 0.103-3.905 0.701-0.294 1.368-0.669 1.987-1.111 1.118 0.679 2.231 1.365 3.348 2.046 0.518-0.643 1.038-1.287 1.555-1.931-1.875-1.527-3.751-3.053-5.624-4.583-0.449 0.593-1.006 1.102-1.625 1.514-1.315 0.874-2.936 1.273-4.506 1.117-1.368-0.127-2.696-0.673-3.75-1.556-1.174-0.97-2.006-2.34-2.33-3.828-0.333-1.492-0.161-3.093 0.495-4.476 0.255-0.549 0.594-1.055 0.975-1.525-2.546-2.076-5.096-4.147-7.639-6.226zM16.391 11.603c-1.065 0.294-2.020 0.953-2.691 1.828 0.864 0.703 1.725 1.409 2.592 2.107 0.26-0.387 0.682-0.661 1.143-0.738 0.541-0.097 1.119 0.085 1.514 0.466 0.354 0.337 0.555 0.828 0.539 1.317-0.006 0.433-0.189 0.855-0.486 1.168 0.862 0.702 1.725 1.404 2.586 2.107 0.44-0.5 0.768-1.095 0.978-1.725 0.456-1.372 0.29-2.934-0.442-4.18-0.593-1.024-1.562-1.817-2.67-2.226-0.975-0.36-2.063-0.406-3.063-0.125zM9.276 14.469c-0.192 0.977-0.092 2.009 0.282 2.931 0.288 0.71 0.739 1.354 1.312 1.863 1.091 0.987 2.62 1.485 4.082 1.269 1.318-0.177 2.543-0.907 3.349-1.962-0.866-0.701-1.724-1.411-2.595-2.106-0.259 0.387-0.681 0.66-1.14 0.737-0.514 0.094-1.062-0.068-1.453-0.409-0.381-0.329-0.606-0.83-0.601-1.333-0.004-0.446 0.18-0.886 0.487-1.208-0.863-0.701-1.725-1.403-2.586-2.107-0.576 0.657-0.966 1.471-1.137 2.327z"></path>
</svg>
