<!-- Generated by IcoMoon.io -->
<svg version="1.1" xmlns="http://www.w3.org/2000/svg" width="29" height="32" viewBox="0 0 29 32">
<title>brr</title>
<path fill="#444" d="M17.134 1.252l0.384 4.193c1.057 0.288 1.829 0.619 2.315 0.992l3.444-2.713 3.805 3.761-3.076 3.497c0.561 0.71 0.934 1.403 1.121 2.081l4.205 0.472v5.065l-4.205 0.352c-0.262 0.987-0.635 1.768-1.121 2.345l2.748 3.417-3.525 3.465-3.388-2.785c-0.822 0.598-1.597 0.998-2.323 1.2l-0.457 4.153h-4.79l-0.457-4.153c-0.726-0.203-1.501-0.603-2.323-1.2l-3.388 2.785-3.524-3.465 2.748-3.417c-0.486-0.576-0.86-1.358-1.121-2.345l-4.205-0.352v-5.065l4.205-0.472c0.187-0.678 0.561-1.371 1.121-2.081l-3.076-3.497 3.805-3.761 3.444 2.713c0.486-0.373 1.258-0.704 2.315-0.992l0.385-4.193h4.934zM14.667 5.869c-0.104 1.21-0.306 2.312-0.608 3.305-3.33 0.292-5.978 2.962-6.231 6.3l0 0c-0.918 0.268-1.928 0.436-3.030 0.505 1.104 0.117 2.116 0.322 3.035 0.617l-0 0c0.285 3.306 2.92 5.94 6.228 6.23l0-0c0.3 0.962 0.498 2.024 0.592 3.185l0.014 0.184c0.088-1.233 0.29-2.356 0.606-3.369 3.308-0.289 5.943-2.924 6.228-6.23 0.919-0.295 1.931-0.5 3.035-0.617-1.101-0.069-2.111-0.237-3.030-0.505l0-0c-0.254-3.338-2.901-6.008-6.231-6.3-0.302-0.993-0.505-2.095-0.608-3.305zM14.667 7.71c0.68 4.973 3.374 7.733 8.081 8.279-4.837 0.873-7.531 3.662-8.081 8.365l-0.018-0.143c-0.607-4.696-3.295-7.437-8.064-8.223 4.722-0.621 7.416-3.381 8.081-8.279z"></path>
</svg>
