<!-- Generated by IcoMoon.io -->
<svg version="1.1" xmlns="http://www.w3.org/2000/svg" width="32" height="32" viewBox="0 0 32 32">
<title>btd</title>
<path fill="#444" d="M31.957 15.882c0-0.805-0.345-1.267-0.345-1.267h-6.338c-0.692 0-0.805 0.692-0.805 0.692h-11.754c0 0 0-1.499-2.42-1.499v-2.073c0 0-1.381 0.692-1.381 2.188h-1.728l-0.807-2.42-1.037 2.304h-1.383v1.039l-3.917 1.152v0.007l3.917 1.15v1.038h1.383l1.037 2.304 0.807-2.42h1.728c0 1.497 1.381 2.188 1.381 2.188v-2.073c2.42 0 2.42-1.499 2.42-1.499h11.754c0 0 0.113 0.692 0.805 0.692h6.338c0 0 0.345-0.461 0.345-1.268v-0.236z"></path>
</svg>
