<!-- Generated by IcoMoon.io -->
<svg version="1.1" xmlns="http://www.w3.org/2000/svg" width="25" height="32" viewBox="0 0 25 32">
<title>c13</title>
<path fill="#444" d="M12.116 1.724l-0.035 0.024-3.75 2.522v22.704l0.007 0.007 3.778 3.296 0.037-0.032 3.748-3.271v-22.704l-0.010-0.006-3.775-2.54zM6.659 5.278l-0.037 0.036-6.597 6.3 0.001 0.011c0.712 4.273 2.518 6.598 3.612 8.228 0.547 0.815 0.915 1.455 0.886 2.076s-0.454 1.23-1.508 1.987l-0.017 0.012 0.011 0.017c1.164 1.921 2.466 2.554 3.622 2.753l0.026 0.004v-21.423zM17.447 5.278v21.423l0.026-0.004c1.156-0.199 2.457-0.831 3.622-2.753l0.011-0.017-0.017-0.012c-1.054-0.757-1.478-1.367-1.508-1.987s0.338-1.261 0.886-2.076c1.095-1.63 2.9-3.955 3.612-8.228l0.001-0.011-0.008-0.008-6.626-6.328z"></path>
</svg>
