<!-- Generated by IcoMoon.io -->
<svg version="1.1" xmlns="http://www.w3.org/2000/svg" width="31" height="32" viewBox="0 0 31 32">
<title>c15</title>
<path fill="#444" d="M0.024 4.68c3.007 0.003 6.015-0.022 9.020 0.012 0.84 0.419 1.612 0.978 2.346 1.564-0.366 1.293-0.267 2.764 0.502 3.898 0.545 0.859 1.488 1.414 2.483 1.572 0.002 5.179 0 10.36 0.002 15.539-3.405-1.867-6.722-3.948-9.644-6.52-1.002-0.89-1.978-1.96-2.215-3.326-0.284-1.624 0.397-3.2 0.448-4.814 0.022-1.253-0.003-2.548-0.51-3.717-0.476-1.265-1.462-2.226-2.19-3.34-0.188-0.252-0.234-0.562-0.241-0.869z"></path>
<path fill="#444" d="M19.539 6.247c0.745-0.572 1.517-1.134 2.357-1.555 3.003-0.034 6.008-0.009 9.013-0.012-0.022 0.257-0.016 0.531-0.174 0.75-0.674 1.102-1.641 2.017-2.155 3.221-0.609 1.253-0.65 2.679-0.61 4.046 0.078 1.574 0.709 3.112 0.452 4.698-0.238 1.379-1.222 2.457-2.231 3.355-2.945 2.602-6.303 4.683-9.734 6.576-0.002-5.198-0.002-10.396-0.002-15.594 1.117-0.136 2.169-0.793 2.714-1.786 0.655-1.107 0.71-2.479 0.371-3.698z"></path>
</svg>
