<!-- Generated by IcoMoon.io -->
<svg version="1.1" xmlns="http://www.w3.org/2000/svg" width="23" height="32" viewBox="0 0 23 32">
<title>c16</title>
<path fill="#444" d="M6.367 3.356c1.449-0.32 2.759-1.037 4.104-1.642 0.262 1.198 0.736 2.867-0.439 3.719-2.035 1.553-4.721 1.437-7.145 1.426 0.127 3.765-0.763 7.711 0.728 11.307 1.399 3.457 4.332 5.9 7.072 8.285 0.035 1.272 0.085 2.543 0.066 3.819-4.401-3.603-9.11-7.696-10.301-13.542-0.701-4.174-0.173-8.44-0.37-12.652 2.089-0.312 4.239-0.131 6.285-0.721zM12.795 1.726c-0.208 1.195-0.713 2.813 0.439 3.68 2.031 1.588 4.752 1.464 7.187 1.441-0.139 3.569 0.644 7.26-0.52 10.721-1.295 3.742-4.386 6.405-7.314 8.879-0.031 1.279-0.081 2.555-0.062 3.838 1.811-1.534 3.649-3.037 5.295-4.752 2.952-2.998 5.175-6.944 5.326-11.226 0.042-3.411-0.023-6.825 0.031-10.235-1.249-0.096-2.489-0.266-3.746-0.293-2.351-0.1-4.555-1.017-6.636-2.054zM4.213 8.177c0.139 3.518-0.582 7.291 1.067 10.567 1.229 2.305 3.002 4.432 5.314 5.707-0.393-2.2-0.22-4.451-0.586-6.651-0.135-3.16-0.547-6.293-0.613-9.453-1.73 0.173-3.472 0.143-5.183-0.17zM13.889 8.35c-0.154 5.391-0.983 10.74-0.986 16.135 2.2-1.63 4.204-3.669 5.322-6.204 1.368-3.191 0.671-6.732 0.832-10.093-1.707 0.293-3.445 0.331-5.168 0.162z"></path>
</svg>
