<!-- Generated by IcoMoon.io -->
<svg version="1.1" xmlns="http://www.w3.org/2000/svg" width="24" height="32" viewBox="0 0 24 32">
<title>c17</title>
<path fill="#444" d="M8.971 1.815v0 0c-0.191 0.909-0.050 1.808 0.446 2.594 0.53 0.84 1.455 1.375 2.43 1.505 0.003 8.091 0 16.181 0.003 24.27-1.562-1.569-3.131-3.129-4.695-4.697 0.148-4.468 0.095-8.95-0.374-13.399-0.234-1.964-0.528-3.938-1.192-5.808-0.286-0.78-0.652-1.544-1.218-2.162-0.008-0.767-0.002-1.534-0.003-2.301 3.069 0 1.534 0.001 4.603-0.003v0zM15.404 1.817v0c0.155 0.765 0.1 1.587-0.27 2.285-0.491 0.999-1.511 1.674-2.606 1.813-0.003 8.088-0.002 16.176-0.002 24.264 1.567-1.561 3.129-3.125 4.692-4.69-0.145-4.376-0.097-8.764 0.344-13.122 0.206-1.859 0.479-3.72 1.027-5.511 0.309-0.976 0.708-1.956 1.404-2.728 0.007-0.769 0.002-1.538 0.003-2.308-1.531-0.002-3.062 0.003-4.593-0.002zM3.998 5.225v0c-1.164 0.978-2.524 1.694-3.925 2.267 0.994 3.503 1.959 7.079 2.002 10.742 1.238 1.743 2.599 3.411 4.165 4.873 0.041-4.305-0.072-8.629-0.723-12.89-0.305-1.71-0.604-3.485-1.519-4.991zM20.376 5.223c-0.93 1.547-1.251 3.362-1.552 5.116-0.634 4.218-0.709 8.496-0.678 12.755 1.562-1.459 2.92-3.121 4.155-4.863 0.043-3.663 1.006-7.238 2.002-10.74-1.403-0.573-2.764-1.289-3.926-2.268z"></path>
</svg>
