<!-- Generated by IcoMoon.io -->
<svg version="1.1" xmlns="http://www.w3.org/2000/svg" width="26" height="32" viewBox="0 0 26 32">
<title>c18</title>
<path fill="#444" d="M24.090 11.124c-0.344 2.813 0.177 5.617 1.070 8.273-2.266 5.228-7.597 8.568-12.13 11.693h-0.027c-3.378-2.287-6.817-4.559-9.485-7.685l7.961-6.247 0.317 3.808 12.294-9.843zM25.834 1.034l-9.883 0c-0.26 1.74-0.875 4.132-2.92 4.712l-0.001-0-0.026 0c-2.113-0.789-2.66-2.972-2.92-4.712l-9.883-0c-0.443 2.44-0.061 5.482 1.258 6.536 0.006 0.005 0.007 0.013 0.009 0.020 0.75 3.892 0.87 7.945-0.561 11.71l13.249-10.531 0.394 3.783 11.424-9.008c-0.017-1.887 0.056-1.052-0.141-2.51z"></path>
</svg>
