<!-- Generated by IcoMoon.io -->
<svg version="1.1" xmlns="http://www.w3.org/2000/svg" width="28" height="32" viewBox="0 0 28 32">
<title>c19</title>
<path fill="#444" d="M5.158 0.332c1.133-0.228 2.291-0.371 3.447-0.301-0.409 0.759-0.669 1.638-0.532 2.504 0.1 0.714 0.414 1.394 0.867 1.952 1.016 0.998 2.436 1.467 3.825 1.632 1.573 0.152 3.204 0.087 4.701-0.465 0.904-0.336 1.802-0.88 2.246-1.772 0.697-1.175 0.623-2.694-0.080-3.847 1.693-0.099 3.381 0.225 5.002 0.684 1.239 0.361 2.449 0.824 3.614 1.379-0.804 1.708-1.44 3.492-1.954 5.307-0.74 2.66-1.186 5.415-1.149 8.181 0.009 0.501 0.102 1.036-0.101 1.511-0.182 0.325-0.607 0.135-0.826-0.046-1.521-1.186-2.863-2.581-4.241-3.927-0.611-0.563-1.164-1.185-1.756-1.767-0.088-0.090-0.191-0.158-0.31-0.201-0.032 0.196 0.124 0.338 0.222 0.487 2.837 3.812 5.68 7.62 8.604 11.367-1.267 1.355-2.668 2.579-4.101 3.755-2.605 2.088-5.423 3.961-8.526 5.224-3.397-1.41-6.47-3.503-9.276-5.862-1.168-0.984-2.286-2.028-3.353-3.121 0.918-1.952 1.408-4.086 1.566-6.232 0.023-0.306 0.132-0.67 0.453-0.78 0.239-0.051 0.5-0.036 0.722 0.075 0.656 0.295 1.122 0.862 1.623 1.355 1.486 1.575 2.912 3.206 4.385 4.794 0.913 1.003 1.836 1.995 2.748 2.999 0.135 0.138 0.253 0.331 0.469 0.342-0.028-0.185-0.148-0.327-0.254-0.47-3.411-4.588-6.835-9.167-10.325-13.694-0.122-0.133-0.101-0.324-0.138-0.487-0.51-3.044-1.448-6.013-2.731-8.818 1.65-0.766 3.375-1.385 5.158-1.757zM1.542 2.765c3.019 4.132 6.077 8.236 9.11 12.357 2.225 3.003 4.442 6.012 6.676 9.007 0.86 1.315 0.731 3.016 0.266 4.448 0.79-0.614 1.654-1.121 2.454-1.722 0.801-0.596 1.624-1.177 2.317-1.903-4.814-6.605-9.629-13.212-14.443-19.818-0.747-1.101-1.244-2.446-1.086-3.792-1.823 0.202-3.61 0.697-5.294 1.422z"></path>
</svg>
