<!-- Generated by IcoMoon.io -->
<svg version="1.1" xmlns="http://www.w3.org/2000/svg" width="32" height="32" viewBox="0 0 32 32">
<title>c20</title>
<path fill="#444" d="M15.98 31.155c-0.13-0.034-0.256-0.086-0.377-0.144-1.32-0.551-2.555-1.29-3.726-2.108-0.497-0.396-1.040-0.746-1.462-1.227 0.774-1.371 1.326-2.919 1.272-4.513 0.072-1.953-0.676-3.866-1.835-5.415-0.002 0.015-0.006 0.029-0.005 0.044 0.044 0.616 0.073 1.536-0.189 2.264-0.235 0.822-0.876 1.506-1.674 1.809 0.201-0.4 0.519-0.84 0.35-1.307-0.253-0.885-0.982-1.496-1.549-2.18-1.689-1.811-3.567-3.452-5.097-5.408-0.292-0.348-0.652-0.831-0.864-1.236-0.388-0.747-0.705-1.385-0.824-2.226 0.934 0.299 2.060 0.45 2.915-0.14 0.908-0.605 1.401-1.61 2.006-2.482 0.786-1.192 1.697-2.312 2.793-3.234 1.3-1.286 2.934-2.183 4.64-2.81 0.001 0.016 0.005 0.032 0.003 0.049-0.136 1.049-0.095 2.131 0.040 3.196 0.195 1.54 1.436 2.917 2.987 3.026 0.515 0.011 0.31 0.014 0.616 0.006 0.205 0.009 0.411-0.001 0.616-0.006 1.551-0.109 2.793-1.487 2.987-3.026 0.135-1.065 0.176-2.147 0.040-3.196-0.002-0.016 0.002-0.032 0.003-0.049l0.319 0.121c1.603 0.612 3.079 1.503 4.321 2.689 1.096 0.922 2.007 2.043 2.793 3.234 0.605 0.872 1.098 1.877 2.006 2.482 0.855 0.59 1.98 0.439 2.915 0.14-0.119 0.842-0.436 1.479-0.824 2.226-0.212 0.405-0.572 0.888-0.864 1.236-1.53 1.956-3.408 3.597-5.097 5.408-0.567 0.684-1.296 1.295-1.549 2.179-0.169 0.467 0.149 0.907 0.35 1.307-0.799-0.303-1.439-0.987-1.674-1.809-0.262-0.729-0.234-1.648-0.189-2.264 0.001-0.015-0.003-0.029-0.005-0.044-1.159 1.549-1.907 3.462-1.835 5.415-0.054 1.594 0.497 3.142 1.272 4.513-0.422 0.481-0.964 0.831-1.462 1.227-1.17 0.818-2.406 1.557-3.726 2.108-0.098 0.050-0.365 0.157-0.394 0.145l-0.021-0.001zM16.064 9.823c-0.044 0.004-0.022 0.002-0.064 0.006v0l-0.031-0.003c-0.047-0.011-0.082 0.016-0.122 0.035-0.955 0.536-1.887 1.258-2.697 1.989-0.371 0.351-0.753 0.698-1.043 1.122 0.090 0.179 0.185 0.354 0.297 0.52 0.931 1.329 1.608 2.817 2.219 4.315 0.54 1.336 0.973 2.712 1.377 4.094 0.39-1.387 0.852-2.752 1.377-4.094 0.612-1.498 1.288-2.986 2.219-4.315 0.112-0.166 0.207-0.342 0.297-0.52-0.29-0.425-0.672-0.771-1.043-1.122-0.81-0.732-1.742-1.454-2.697-1.989-0.030-0.013-0.057-0.030-0.089-0.038zM21.722 4.417v0c-0.126 0.535-0.196 1.087-0.414 1.595-0.343 0.855-0.932 1.584-1.625 2.183 0.003 0.002 0.007 0.005 0.010 0.006 0.045 0.018 0.064 0.033 0.097 0.052 1.377 0.786 2.939 1.971 4.019 3.125 0.885 1.009 1.712 2.092 2.272 3.318 0.118 0.242 0.237 0.46 0.341 0.739 0.011 0.031 0.042 0.050 0.066 0.074 0.008-0.018 0.016-0.036 0.022-0.055 0.234-0.712 0.213-1.493 0.177-2.199-0.038-0.756-0.233-1.54-0.428-2.346-0.679-2.613-2.321-4.951-4.538-6.492v0zM10.278 4.417c-2.216 1.542-3.859 3.879-4.538 6.492-0.195 0.806-0.39 1.59-0.428 2.346-0.036 0.705-0.057 1.487 0.177 2.198 0.006 0.019 0.015 0.037 0.022 0.055 0.024-0.024 0.055-0.043 0.066-0.074 0.104-0.28 0.223-0.497 0.341-0.739 0.561-1.226 1.387-2.309 2.272-3.318 1.080-1.154 2.642-2.339 4.019-3.125 0.034-0.019 0.052-0.034 0.097-0.052 0.004-0.001 0.007-0.004 0.010-0.006-0.693-0.599-1.282-1.327-1.625-2.183-0.218-0.508-0.288-1.060-0.414-1.595v0z"></path>
</svg>
