<!-- Generated by IcoMoon.io -->
<svg version="1.1" xmlns="http://www.w3.org/2000/svg" width="27" height="32" viewBox="0 0 27 32">
<title>c21</title>
<path fill="#444" d="M5.399 23.941c-0.739-0.771-1.249-1.777-1.706-2.683-0.114-1.863 0.014-3.736-0.049-5.601-0.005-0.339-0.211-0.625-0.362-0.911-0.711-1.178-1.366-2.388-2.084-3.561 0.702-1.812 1.422-3.638 2.451-5.294 0.922 1.020 2.409 1.35 3.664 0.762v0c1.241-0.697 1.791-2.193 1.475-3.554 1.459-0.418 2.96-0.732 4.481-0.748 1.51 0.021 2.997 0.332 4.444 0.746-0.358 1.468 0.349 3.046 1.721 3.696 1.372 0.367 2.439 0.049 3.441-0.934 1.034 1.663 1.738 3.501 2.428 5.325-0.806 1.426-1.712 2.809-2.428 4.279-0.114 1.931 0.053 3.873-0.070 5.803-0.466 1.069-1.154 2.013-1.949 2.857v0l0.007 0.074c-2.035 2.414-4.646 4.354-7.615 5.457-2.967-1.106-5.578-3.043-7.608-5.459l-0.241-0.254zM6.767 11.894l-0.322-0.63c-1.403 1.64-1.91 3.835-1.803 5.954 0.211-0.002 0.637-0.007 0.848-0.009v0c1.507 0.781 2.936 1.702 4.388 2.579-1.475-0.051-2.969-0.23-4.34-0.811l-0-0c-0.619-0.31-0.311-0.153-0.925-0.472 0.297 1.206 0.688 2.386 1.169 3.531-0.038 1.060-0.004 0.695-0.042 1.098 0.002-0.019 0.004-0.039 0.005-0.058 0 0 0 0 0 0l0.037-1.040c0.255 0.376 0.541 0.732 0.836 1.078 1.255-0.771 2.706-1.113 4.072-1.64-0.808 1.331-2.13 2.3-3.668 2.6 1.104 1.148 2.432 2.216 4.084 2.358-0.132-1.412 0.75-2.597 1.322-3.812-0.695-0.369-1.426-0.767-1.849-1.461-0.741-1.076-0.704-2.616 0.128-3.629 0.513-0.706 1.338-1.059 2.121-1.375 0.035-4.172-0.026-8.347-0.112-12.519-1.087 0.883-2.272 1.705-3.057 2.892-0.574 0.797-0.946 1.717-1.194 2.662 0.504 0.59 0.948 1.261 1.083 2.042 0.465 2.191 0.62 4.432 0.767 6.663-1.254-1.673-2.321-3.485-3.229-5.366v-0l-0.319-0.634zM13.788 3.642c-0.1 4.172-0.13 8.345-0.107 12.517 0.783 0.311 1.603 0.664 2.119 1.366 0.832 1.013 0.871 2.553 0.13 3.629-0.425 0.695-1.155 1.099-1.854 1.466 0.574 1.213 1.45 2.4 1.324 3.81 1.647-0.146 2.978-1.208 4.082-2.353-1.538-0.302-2.857-1.271-3.668-2.602 1.366 0.525 2.82 0.869 4.077 1.645 0.572-0.714 0.294-0.351 0.834-1.090v0c0.476-1.141 0.869-2.316 1.157-3.517-0.608 0.312-0.303 0.157-0.915 0.465v0c-1.368 0.588-2.864 0.755-4.34 0.808 1.452-0.879 2.895-1.767 4.386-2.579v-0l0.191 0.003c0.523 0.008 0.307 0.004 0.65 0.010 0.123-2.121-0.395-4.312-1.791-5.957-0.43 0.845-0.216 0.422-0.643 1.271v0c-0.911 1.879-1.977 3.689-3.229 5.362 0.149-2.23 0.3-4.474 0.764-6.665 0.135-0.781 0.578-1.45 1.085-2.040-0.506-2.402-2.325-4.179-4.251-5.55z"></path>
</svg>
