<!-- Generated by IcoMoon.io -->
<svg version="1.1" xmlns="http://www.w3.org/2000/svg" width="32" height="32" viewBox="0 0 32 32">
<title>cc1</title>
<path fill="#444" d="M13.974 6.237c1.046-0.665 2.421-0.768 3.553-0.265 1.147 0.492 1.991 1.546 2.343 2.729 0.931-0.638 2.253-0.638 3.146 0.070 1.113 0.818 1.464 2.423 0.904 3.668 0.77 0.208 1.403 0.869 1.496 1.673 0.125 0.764-0.251 1.538-0.87 1.985 0.655 0.51 1.068 1.34 0.96 2.18-0.082 1.111-1.050 2.116-2.188 2.108-0.896 0.031-1.684-0.59-2.051-1.377-0.877 0.071-1.879-0.227-2.633 0.365-0.571 0.372-0.776 1.074-0.827 1.719-0.051 0.733-0.176 1.535 0.208 2.205 0.265 0.505 0.74 0.907 1.312 0.998 1.139 0.247 2.313 0.215 3.47 0.254-0.231 0.465-0.662 0.83-1.188 0.89-0.773 0.089-1.556-0.019-2.331 0.055-0.414 0.085-0.333 0.764-0.788 0.763-0.306 0.044-0.377-0.301-0.524-0.49-0.14-0.301-0.533-0.337-0.819-0.267-0.459 0.114-0.443 0.732-0.831 0.936-0.274 0.085-0.666 0.095-0.833-0.184-0.195-0.255-0.269-0.658-0.618-0.749-0.29-0.075-0.692-0.039-0.831 0.267-0.145 0.188-0.213 0.526-0.516 0.489-0.462 0.007-0.379-0.689-0.802-0.765-0.774-0.071-1.555 0.035-2.327-0.054-0.526-0.062-0.956-0.426-1.186-0.89 1.191-0.042 2.402-0.003 3.571-0.277 0.927-0.204 1.515-1.19 1.479-2.1-0.019-0.634-0.025-1.281-0.216-1.892-0.2-0.658-0.819-1.14-1.485-1.258-0.606-0.035-1.213-0.001-1.818-0.013-0.365 0.786-1.151 1.405-2.043 1.377-1.14 0.011-2.112-0.994-2.194-2.107-0.107-0.839 0.303-1.671 0.96-2.181-0.829-0.569-1.151-1.751-0.662-2.642 0.252-0.513 0.751-0.853 1.286-1.018-0.336-0.803-0.361-1.74 0.009-2.537 0.418-0.962 1.402-1.671 2.463-1.673 0.565-0.024 1.105 0.187 1.581 0.474 0.301-1.002 0.943-1.912 1.84-2.464zM13.012 13.211c0.749 0.494 1.383 1.142 1.9 1.873-0.005-0.976 0.001-1.953-0.004-2.929-0.702 0.205-1.348 0.571-1.896 1.056zM17.094 12.155c-0.005 0.976 0.001 1.953-0.003 2.929 0.516-0.732 1.151-1.379 1.899-1.875-0.551-0.481-1.192-0.85-1.896-1.054zM12.050 14.486c-0.278 0.568-0.457 1.178-0.545 1.804 0.916-0.054 1.855 0.087 2.658 0.551-0.49-0.947-1.179-1.813-2.112-2.354zM17.84 16.839c0.803-0.463 1.74-0.606 2.656-0.548-0.086-0.627-0.265-1.238-0.544-1.806-0.933 0.543-1.617 1.41-2.112 2.354zM5.254 8.224c-0.5 1.232-0.999 2.462-1.501 3.691 1.084 0.004 2.166 0.001 3.25 0.001-0.224-1.342 0.223-2.792 1.253-3.701-1 0.017-2.001 0.003-3.001 0.009zM23.747 8.216c1.031 0.908 1.477 2.358 1.253 3.701 1.084-0.001 2.167 0.001 3.251-0.001-0.502-1.23-1.003-2.46-1.503-3.692-1-0.007-2.001 0.008-3.001-0.008zM1.561 12.84c-0.518 1.030-1.045 2.056-1.559 3.089 0.524 1.021 1.037 2.049 1.559 3.071 1.402 0.001 2.805 0 4.207 0.001-0.291-0.976-0.121-2.049 0.43-2.903-0.622-0.975-0.647-2.263-0.064-3.261-1.524 0.007-3.048 0-4.573 0.003zM25.868 12.837c0.585 0.998 0.559 2.286-0.062 3.261 0.548 0.854 0.718 1.927 0.428 2.903 1.403-0.001 2.807 0 4.21 0 0.518-1.027 1.039-2.052 1.558-3.078-0.52-1.029-1.041-2.055-1.56-3.083-1.524-0.003-3.050 0.004-4.574-0.003zM3.754 19.933c0.501 1.227 1 2.455 1.499 3.682 2.345-0.048 4.706 0.134 7.037-0.175 0.595-0.021 1.082-0.532 1.092-1.123-0.012-0.641 0.023-1.323-0.244-1.919-0.406-0.658-1.261-0.436-1.902-0.463-0.62 0.894-1.707 1.479-2.808 1.354-0.902-0.079-1.695-0.633-2.21-1.358-0.821 0-1.642-0.001-2.463 0.001zM18.976 20.253c-0.368 0.457-0.301 1.097-0.355 1.646-0.066 0.529 0.093 1.156 0.604 1.413 0.666 0.22 1.378 0.236 2.073 0.277 1.816 0.052 3.634 0.020 5.451 0.028 0.498-1.229 0.998-2.456 1.499-3.684-0.821-0.003-1.641-0.001-2.462-0.001-0.517 0.724-1.309 1.279-2.212 1.358-1.101 0.125-2.188-0.459-2.808-1.355-0.598 0.043-1.329-0.183-1.791 0.318z"></path>
</svg>
