<!-- Generated by IcoMoon.io -->
<svg version="1.1" xmlns="http://www.w3.org/2000/svg" width="32" height="32" viewBox="0 0 32 32">
<title>cc2-border</title>
<path fill="#444" d="M30.527 13.161c1.151 2.229 0.661 1.273 1.473 2.864-0.644 1.237-1.274 2.481-1.915 3.721-0.557 0.002-1.116 0.005-1.673 0.002-0.587 1.431-1.18 2.858-1.778 4.285-1.879 0.002-3.757 0.002-5.636 0.005-0.039 0.644-0.084 1.415-0.698 1.79-0.902 0.593-1.977 0.064-2.942-0.009-1.813-0.235-3.6 0.582-5.403 0.21-0.854-0.247-1.023-1.226-1.014-1.991-1.883-0.002-3.764-0.009-5.645 0.002-0.628-1.42-1.185-2.869-1.81-4.289-0.55 0-1.098-0.002-1.646-0.005-0.582-1.178-1.251-2.312-1.785-3.513-0.164-0.292 0.096-0.589 0.189-0.858 0.541-1.048 1.104-2.122 1.664-3.158h0.795c0.53-0.003 0.264-0.003 0.797 0 0.614-1.402 1.166-2.784 1.782-4.183 1.493 0 2.984 0.005 4.474-0.002 1.332-1.296 3.134-1.972 4.968-2.124 0.282-0.023 0.566-0.022 0.849-0.034l0.424 0.010c2.23-0.089 4.522 0.584 6.157 2.146 1.5 0.011 3.002 0 4.502 0.011 1.157 2.797 0.58 1.405 1.729 4.176h1.643l0.5 0.944zM15.817 6.687v0c-1.454 0.004-2.89 0.302-4.183 0.97 0.046 0.801 0.062 1.623 0.315 2.392 0.477 0.52 1.169 0.753 1.769 1.102-0.813-0.050-1.712 0.037-2.436-0.399-0.429-0.685-0.543-1.504-0.74-2.274-1.477 1.529-2.561 3.465-2.977 5.558-0.224 1.237-0.413 2.739 0.598 3.696 0.95 0.883 2.386 0.781 3.525 1.283 0.292 0.189 0.272 0.603 0.294 0.911-0.011 1.6-0.217 3.198-0.158 4.801 0.103 0.698 0.966 0.525 1.47 0.562 0.201-1.073-0.478-3.166 0.491-3.168 0.536-0.002 0.344 1.991 0.586 3.009 0.397-0.089 0.794-0.176 1.194-0.262 0.055-0.87 0.015-1.65 0.133-2.515 0.047-0.347 0.579-0.614 0.684 0.035 0.129 0.793 0.018 1.512 0.007 2.317 0.443-0.164 0.886-0.329 1.326-0.502 0.014-0.614-0.027-0.78 0.030-1.394 0.093-1.008 0.69-0.664 0.788 0.059 0.131 0.968 0.025 1.49 0.121 2.463 0.463-0.112 1.080 0.011 1.402-0.418 0.187-1.799-0.221-3.614-0.059-5.415 0.039-0.105 0.121-0.31 0.16-0.413 1.018-0.53 2.255-0.491 3.269-1.052 0.63-0.461 1.084-1.198 1.1-1.993 0.1-2.573-1.043-5.017-2.616-6.992-0.847 0.603-1.801 1.046-2.826 1.235 0.783-0.571 1.552-1.185 2.066-2.027-1.002-0.715-2.143-1.253-3.367-1.436-0.458-0.056-0.646-0.085-1.176-0.113-0.263-0.014-0.527-0.013-0.79-0.019v-0zM24.969 19.703v0c-3.063 0.005-1.671 0.005-4.177 0.002 0.028 1.915-0.011-0.388 0.067 2.581 0.007 0.275 0.008 0.549 0.012 0.824h5.199c0.534-1.048 0.902-2.299 1.326-3.394-1.391-0.030-0.479 0.004-2.427-0.013v0zM4.523 19.744h-0c0.383 1.153 0.921 2.245 1.385 3.366h5.090c0.003-0.459 0.001-0.918 0.018-1.377 0.009-0.245 0.025-0.489 0.032-0.734 0.012-0.415 0.012-0.829 0.013-1.244l-6.539-0.011zM25.121 13.102c0.011 0.994 0.104 1.984 0.173 2.975 0.082 1.091-0.799 1.879-1.356 2.714 1.897 0 3.726 0.008 5.623 0.008 0.463-0.927 1.068-1.817 1.44-2.787-0.388-1.009-1.007-1.939-1.48-2.911h-4.399zM4.601 13.084l-2.147 0.004c-0.501 0.971-1.088 1.927-1.472 2.955 0.336 0.959 0.934 1.834 1.365 2.752 1.936 0 3.79-0.003 5.728-0.003-0.557-0.769-1.363-1.472-1.451-2.493-0.090-1.056 0.021-2.112 0.225-3.211l-2.248-0.003zM26.083 8.974v0c0 0 0 0 0 0-1.027 0.007-2.054-0.009-3.082 0.030 0.010 0.022 0.018 0.045 0.031 0.065 0.687 1.065 1.314 2.118 1.781 3.148h2.52c-0.168-1.163-0.721-2.137-1.264-3.243h0.014zM8.951 8.976v0l-3.117 0.005c-0.435 1.067-0.907 2.155-1.277 3.235h2.576c0.579-1.070 1.123-2.19 1.818-3.24v0zM10.837 13.003c-1.075 0.363-1.787 1.493-1.838 2.6-0.039 0.628 0.395 1.251 1.036 1.338 1.13 0.208 2.296 0.114 3.438 0.087 0.737 0.037 0.961-0.849 0.776-1.422-0.315-1.491-1.796-2.981-3.413-2.602zM19.988 13.014c-1.31 0.397-2.312 1.68-2.388 3.045-0.057 0.52 0.361 1.041 0.909 0.975 1.194 0.002 2.424 0.157 3.588-0.162 0.804-0.235 0.968-1.251 0.708-1.943-0.32-1.18-1.52-2.342-2.817-1.915zM14.654 20.712c0.854-0.237 1.744-0.249 2.6-0.016 0.162-1.463 0.094-3.082-0.836-4.301-0.103 1.137-0.048 2.303-0.402 3.404-0.632-1.034-0.356-2.303-0.516-3.449-0.904 1.255-0.995 2.872-0.847 4.362z"></path>
</svg>
