<!-- Generated by IcoMoon.io -->
<svg version="1.1" xmlns="http://www.w3.org/2000/svg" width="32" height="32" viewBox="0 0 32 32">
<title>cc2</title>
<path fill="#444" d="M15.817 6.687v0c0.263 0.006 0.527 0.005 0.79 0.019 0.53 0.028 0.718 0.057 1.176 0.113 1.224 0.183 2.365 0.721 3.367 1.436-0.514 0.842-1.283 1.456-2.066 2.027 1.025-0.189 1.979-0.632 2.826-1.235 1.573 1.975 2.716 4.419 2.616 6.992-0.016 0.794-0.47 1.532-1.1 1.993-1.014 0.562-2.251 0.523-3.269 1.052-0.039 0.103-0.121 0.308-0.16 0.413-0.162 1.801 0.247 3.616 0.059 5.415-0.322 0.429-0.938 0.306-1.402 0.418-0.096-0.972 0.010-1.495-0.121-2.463-0.098-0.723-0.694-1.067-0.788-0.059-0.057 0.614-0.016 0.78-0.030 1.394-0.441 0.174-0.883 0.338-1.326 0.502 0.011-0.806 0.122-1.524-0.007-2.317-0.105-0.649-0.637-0.382-0.684-0.035-0.118 0.864-0.078 1.645-0.133 2.515-0.399 0.087-0.797 0.174-1.194 0.262-0.242-1.018-0.050-3.010-0.586-3.009-0.969 0.003-0.29 2.096-0.491 3.168-0.504-0.037-1.367 0.137-1.47-0.562-0.059-1.602 0.146-3.2 0.158-4.801-0.023-0.308-0.002-0.721-0.294-0.911-1.139-0.502-2.575-0.399-3.525-1.283-1.011-0.956-0.822-2.459-0.598-3.696 0.415-2.093 1.5-4.029 2.977-5.558 0.196 0.769 0.31 1.589 0.74 2.274 0.724 0.436 1.623 0.349 2.436 0.399-0.6-0.349-1.292-0.582-1.769-1.103-0.253-0.769-0.269-1.591-0.315-2.392 1.294-0.668 2.729-0.966 4.183-0.97v0zM15.5 16.349c-0.904 1.256-0.995 2.872-0.847 4.362 0.854-0.237 1.744-0.249 2.6-0.016 0.162-1.463 0.094-3.082-0.836-4.301-0.103 1.137-0.048 2.303-0.402 3.404-0.632-1.034-0.356-2.303-0.516-3.449v-0zM20.586 12.925c-0.205-0.009-0.403 0.033-0.598 0.090-1.31 0.397-2.312 1.68-2.388 3.045-0.057 0.52 0.361 1.041 0.909 0.975 1.194 0.002 2.424 0.157 3.588-0.162 0.804-0.235 0.968-1.251 0.708-1.943-0.326-1.053-1.080-1.9-2.219-2.005zM11.287 12.944c-0.35 0.034-0.201 0.009-0.45 0.059-1.075 0.363-1.787 1.493-1.838 2.6-0.039 0.628 0.395 1.251 1.036 1.338 1.13 0.208 2.296 0.114 3.438 0.087 0.737 0.037 0.961-0.849 0.776-1.422-0.275-1.174-1.163-2.321-2.382-2.602-0.258-0.059-0.317-0.049-0.58-0.059zM24.969 19.703v0c1.948 0.016 1.036-0.017 2.427 0.013-0.425 1.096-0.792 2.347-1.326 3.394h-5.199c-0.004-0.275-0.005-0.549-0.012-0.824-0.077-2.969-0.039-0.666-0.067-2.581 2.506 0.003 1.114 0.003 4.177-0.002v0zM4.523 19.744l6.539 0.011c-0.001 0.415-0.002 0.83-0.013 1.244-0.007 0.245-0.023 0.489-0.032 0.734-0.018 0.459-0.015 0.918-0.018 1.377h-5.090c-0.464-1.121-1.001-2.213-1.385-3.366h0zM29.52 13.102c0.473 0.972 1.092 1.902 1.48 2.911-0.372 0.97-0.977 1.86-1.44 2.787-1.897 0-3.726-0.008-5.623-0.008 0.557-0.835 1.438-1.623 1.356-2.714-0.069-0.991-0.161-1.982-0.173-2.975h4.399zM4.601 13.084l2.248 0.003c-0.204 1.099-0.315 2.155-0.225 3.211 0.087 1.021 0.894 1.724 1.451 2.493-1.938 0-3.792 0.003-5.728 0.003-0.431-0.918-1.030-1.793-1.365-2.752 0.384-1.027 0.971-1.984 1.472-2.955l2.147-0.004zM8.951 8.976v0c-0.695 1.051-1.239 2.171-1.818 3.24h-2.576c0.37-1.081 0.842-2.168 1.277-3.235l3.117-0.005zM26.069 8.974c0.534 1.037 1.071 2.082 1.264 3.243h-2.52c-0.467-1.030-1.093-2.083-1.781-3.148-0.013-0.020-0.021-0.043-0.031-0.065 1.022-0.036 2.045-0.027 3.067-0.030z"></path>
</svg>
