<!-- Generated by IcoMoon.io -->
<svg version="1.1" xmlns="http://www.w3.org/2000/svg" width="30" height="32" viewBox="0 0 30 32">
<title>chk</title>
<path fill="#444" d="M20.982 8.258h-4.023l0.132 1.708h4.023l-0.131-1.708zM8.431 9.965h4.023l0.132-1.708h-4.023l-0.131 1.708zM12.367 13.375l0.044-1.445h-4.023l-1.226 14.215 0.438 0.219-0.26 0.963h-3.019c0 0-0.219-0.744 0.351-1.226l1.311-14.212h-4.242v-1.882h4.418l0.175-1.705h-4.242c0 0-0.657-0.175-0.657-0.789v-0.785h-0.789c0 0-0.611-0.131-0.611-0.657v-1.399c0 0 3.060 1.53 13.775 1.53h1.924c10.717 0 13.779-1.53 13.779-1.53v1.399c0 0.526-0.613 0.657-0.613 0.657h-0.789v0.785c0 0.613-0.657 0.789-0.657 0.789h-4.242l0.175 1.705h4.418v1.882h-4.242l1.311 14.212c0.57 0.481 0.351 1.226 0.351 1.226h-3.019l-0.26-0.963 0.435-0.219-1.223-14.215h-4.023l0.044 1.445h-4.811z"></path>
</svg>
