<!-- Generated by IcoMoon.io -->
<svg version="1.1" xmlns="http://www.w3.org/2000/svg" width="23" height="32" viewBox="0 0 23 32">
<title>chr</title>
<path fill="#444" d="M12.681 25.821l-0.811-1.346c3.897-1.123 6.746-4.713 6.746-8.97 0-5.158-4.178-9.337-9.337-9.337-1.712 0-3.32 0.465-4.7 1.269l-0.309-1.571c1.5-0.78 3.207-1.225 5.010-1.225 5.992 0 10.865 4.872 10.865 10.864 0 4.802-3.133 8.886-7.463 10.316zM3.253 17.895c-1.1-2.759-0.73-6.834 3.927-8.687 0.942-0.377 2.803-0.764 4.481-0.683l1.218 3.048-0.39 0.155c-1.309-2.322-3.496-2.497-5.289-1.78-1.991 0.794-3.209 3.351-1.894 6.655 1.275 3.2 4.054 5.467 6.645 4.434 1.121-0.447 2.574-1.894 2.941-4.724l0.935 1.954c-1.057 1.922-2.469 3.039-4.071 3.674-5.181 2.065-7.761-2.194-8.502-4.047zM9.278 2.35c-2.065 0-4.061 0.475-5.86 1.373 0 0-1.568-0.593-2.43-2.406 0 0-1.191 2.627 1.003 4.010l0.741 3.556c-1.679 1.682-2.712 4.003-2.712 6.568 0 5.097 4.098 9.239 9.182 9.309l1.767 2.578c0.525 1.672 0.047 3.344 0.047 3.344 1.433-0.528 2.6-2.755 2.6-2.755 1.844-0.643 3.537-1.699 4.963-3.126 2.487-2.486 3.856-5.786 3.856-9.296 0-7.254-5.902-13.155-13.156-13.155z"></path>
</svg>
