<!-- Generated by IcoMoon.io -->
<svg version="1.1" xmlns="http://www.w3.org/2000/svg" width="22" height="32" viewBox="0 0 22 32">
<title>clb</title>
<path fill="#444" d="M0.353 6.004c2.040-1.539 4.078-3.080 6.116-4.623 0.635 1.034 1.547 1.961 2.716 2.364 0.74 0.28 1.367 0.249 2.187 0.211 1.55-0.072 2.928-1.303 3.703-2.576 1.777 1.344 3.557 2.685 5.33 4.035 0.333 0.262 0.692 0.492 0.995 0.79-1.029 1.302-1.875 2.758-2.433 4.324-0.414 1.217-0.655 2.548-0.346 3.817 0.219 0.876 0.691 1.658 1.178 2.408-0.153 0.739-0.478 1.428-0.786 2.112-1.251 2.565-3.019 4.845-4.99 6.896-0.688 0.74-1.464 1.452-2.423 1.812-0.554 0.026-1.113 0.034-1.666-0.005-0.721-0.267-1.338-0.756-1.895-1.276-1.384-1.395-2.681-2.882-3.788-4.506-0.982-1.439-1.853-2.971-2.408-4.628-0.043-0.168-0.147-0.37-0.016-0.525 0.615-0.956 1.189-2.003 1.229-3.168 0.078-1.78-0.583-3.501-1.431-5.035-0.407-0.762-0.907-1.468-1.423-2.159-0.098-0.112 0.086-0.201 0.151-0.267zM10.771 4.44c-0.339 0.993-0.645 1.997-0.982 2.99-1.176 0.649-2.324 1.349-3.501 1.996-1.020-0.238-2.047-0.457-3.075-0.658 0.715 0.785 1.423 1.575 2.135 2.365-0.002 1.32-0.011 2.641 0.004 3.961-0.712 0.811-1.435 1.613-2.167 2.406 1.047-0.231 2.094-0.464 3.144-0.671 1.157 0.678 2.332 1.327 3.482 2.018 0.3 0.987 0.634 1.964 0.956 2.944 0.337-0.975 0.659-1.957 0.963-2.944 1.151-0.68 2.308-1.354 3.474-2.002 1.050 0.153 2.080 0.444 3.126 0.634-0.688-0.756-1.374-1.514-2.054-2.276-0.129-0.12-0.067-0.312-0.085-0.465 0.005-1.202 0.005-2.405 0-3.606 0.714-0.786 1.417-1.582 2.139-2.36-1.030 0.198-2.055 0.422-3.076 0.657-1.178-0.643-2.322-1.349-3.499-1.995-0.341-0.993-0.643-2-0.985-2.993zM0 7.565c-0.001 1.202 0.126 2.397 0.108 3.6 0.153 1.291 0.036 2.6 0.187 3.894-0.022 0.624 0.095 1.239 0.097 1.861 0.32-0.775 0.896-1.403 1.254-2.158 0.378-0.713 0.513-1.546 0.39-2.343-0.206-1.774-1.086-3.375-2.036-4.854zM19.462 13.047c-0.015 0.969 0.451 1.851 0.975 2.635 0.258 0.406 0.569 0.79 0.698 1.262 0.060-0.628 0.117-1.256 0.111-1.888 0.104-1.050 0.104-2.106 0.109-3.16 0.144-0.873 0.057-1.764 0.123-2.643 0.069-0.564 0.047-1.134 0.068-1.7-1.049 1.659-2.050 3.479-2.085 5.494zM20.457 17.896c-1.26 3.226-3.431 6.008-5.811 8.488-0.777 0.826-1.673 1.581-2.745 1.983-0.404 0.090-0.768 0.063-1.178 0.082-0.391-0.020-0.866 0.032-1.233-0.139-1.006-0.419-1.854-1.134-2.593-1.922-2.383-2.474-4.537-5.258-5.812-8.474-0.369 1.046-0.099 2.194 0.468 3.115 1.106 1.901 2.381 3.724 3.943 5.28 1.525 1.54 3.168 2.965 4.902 4.263 0.307 0.062 0.699 0.11 0.946-0.138 1.471-1.139 2.896-2.343 4.225-3.647 1.801-1.712 3.281-3.741 4.498-5.901 0.533-0.89 0.727-1.994 0.39-2.989z"></path>
</svg>
