<!-- Generated by IcoMoon.io -->
<svg version="1.1" xmlns="http://www.w3.org/2000/svg" width="21" height="32" viewBox="0 0 21 32">
<title>clu</title>
<path fill="#444" d="M11.895 3.527c-3.667 0.158-7.123 1.987-9.381 4.966-2.097 2.771-2.937 6.322-2.312 9.769 0.703 3.864 3.241 7.215 6.789 8.958 1.385 0.679 2.803 1.081 4.352 1.227 0.685 0.066 2.121 0.042 2.756-0.045 2.365-0.322 4.403-1.192 6.226-2.657 0.369-0.295 0.938-0.819 0.938-0.861 0-0.024-4.725-4.409-4.749-4.409-0.009 0-0.14 0.098-0.292 0.215-1.531 1.198-3.426 1.591-5.285 1.096-2.103-0.557-3.742-2.246-4.269-4.394-0.119-0.492-0.137-0.673-0.137-1.385s0.018-0.894 0.137-1.385c0.149-0.608 0.42-1.257 0.736-1.764 0.98-1.576 2.634-2.613 4.49-2.812 0.402-0.042 1.177-0.018 1.549 0.048 1.093 0.194 2.059 0.635 2.884 1.317l0.235 0.194 0.155-0.146c0.083-0.083 1.156-1.078 2.383-2.213l2.231-2.068-0.307-0.295c-0.593-0.566-1.588-1.302-2.339-1.725-2.085-1.18-4.385-1.731-6.792-1.63z"></path>
</svg>
