<!-- Generated by IcoMoon.io -->
<svg version="1.1" xmlns="http://www.w3.org/2000/svg" width="23" height="32" viewBox="0 0 23 32">
<title>cm2</title>
<path fill="#444" d="M14.789 19.871l3.584 4.161c-1.524 2.439-3.555 4.525-6.022 6.008-0.441 0.214-0.184 0.11-0.784 0.277v0c-0.6-0.167-0.343-0.063-0.784-0.277-2.452-1.466-4.579-3.566-6.049-6.024l3.513-4.078c0.823 1.282 1.778 2.472 2.758 3.636 0.248 0.283 0.709 0.319 0.957 0 1.042-1.156 1.98-2.398 2.828-3.702zM23.105 8.979l-5.14 3.829c-0.543 1.996-1.285 3.942-2.356 5.719l3.575 4.151c0.482-0.833 0.905-1.699 1.294-2.579 1.517-3.426 2.715-7.326 2.626-11.12zM0.022 9.053c-0.090 3.117 0.811 6.335 1.89 9.217 0.583 1.5 1.205 2.992 2.012 4.389l3.488-4.049c-1.066-1.812-1.987-3.733-2.37-5.818l-5.019-3.74zM18.231 1.684l-13.328 0c-0.866 0-1.568 0.702-1.568 1.568 0.032 0.632 0.366 1.21 0.975 1.444 0.22 0.151 0.317 0.194 0.485 0.456 0.522 0.814-0.060 1.865-0.876 2.188l-1.281 0.095c-0.638 0.056-1.285 0.094-1.902 0.281l4.825 3.595c1.325-0.959 2.753-2.114 3.211-3.753 0.074-0.122 0.277-0.15 0.399-0.173 0.625-0.119 1.27-0.096 1.901-0.125 0.941 0.006 1.069-0.004 1.992 0.044 0.146 0.008 1.132 0.036 1.306 0.184 0.488 1.625 1.76 2.853 3.108 3.814l4.839-3.605c-0.137-0.034-0.271-0.077-0.41-0.1-0.562-0.095-0.877-0.114-1.412-0.161l-1.28-0.095c-1.101-0.502-1.546-1.915-0.391-2.644 0.589-0.249 0.966-0.8 0.975-1.444 0-0.866-0.702-1.568-1.568-1.568z"></path>
</svg>
