<!-- Generated by IcoMoon.io -->
<svg version="1.1" xmlns="http://www.w3.org/2000/svg" width="25" height="32" viewBox="0 0 25 32">
<title>cma</title>
<path fill="#444" d="M12.066 0.4c0.064-0.124 0.303-0.124 0.368 0 0.666 0.924 1.38 1.811 2.081 2.708 0.084 0.136 0.252 0.275 0.156 0.45-0.508 0.258-1.081 0.588-1.168 1.209 0.025 0.769 0.634 1.342 1.172 1.818 0.84 0.558 1.838 0.955 2.862 0.898 0.735 0.033 1.435-0.224 2.15-0.356 1.057-0.207 2.054-0.626 3.033-1.060-0.024 0.128-0.013 0.274-0.024 0.403-0.018 0.226-0.048 0.437-0.058 0.665-0.11 1.119-0.453 2.198-0.827 3.254-0.044 0.195-0.264 0.147-0.41 0.159-6.136-0.007-12.271 0.001-18.407-0.003-0.168 0.033-0.308-0.069-0.335-0.238-0.296-0.88-0.597-1.764-0.728-2.685-0.081-0.39-0.093-0.728-0.136-1.177-0.012-0.12-0.013-0.246-0.042-0.364 0.522 0.122 0.96 0.456 1.477 0.591 0.906 0.341 1.859 0.511 2.799 0.725 1.336 0.289 2.766-0.053 3.861-0.86 0.511-0.47 1.091-1.025 1.11-1.768-0.084-0.583-0.601-0.93-1.092-1.163-0.2-0.081-0.070-0.317 0.030-0.427 0.71-0.925 1.45-1.829 2.131-2.777zM3.308 14.64c5.99-0.011 11.98-0.001 17.971-0.006-0.58 1.325-1.117 2.668-1.681 3.999-0.065 1.794 0.035 3.598-0.047 5.39-1.606 1.817-3.665 3.216-5.922 4.095-0.566 0.15-1.132 0.516-1.733 0.34-2.667-0.799-5.071-2.392-6.948-4.434-0.069-1.383-0.008-2.774-0.028-4.16-0.024-0.498 0.081-1.018-0.097-1.496-0.51-1.24-1.072-2.46-1.515-3.727zM0.003 11.916c0.196 0.533 0.541 0.985 0.824 1.472 0.089 0.133 0.122 0.291 0.117 0.449 0.001 3.895-0.007 7.788 0.003 11.681 0.456 0.302 0.827 0.701 1.231 1.065 1.604 1.285 3.298 2.485 5.166 3.356 1.432 0.759 2.971 1.298 4.532 1.721 0.399 0.080 0.809 0.010 1.188-0.125 0.949-0.26 1.876-0.592 2.783-0.971 2.174-0.965 4.27-2.142 6.095-3.68 0.576-0.409 1.017-0.976 1.611-1.365 0.011-3.628 0.002-7.256 0.003-10.884 0.012-0.364-0.042-0.736 0.040-1.093 0.278-0.555 0.691-1.036 0.901-1.626-8.165-0.014-16.331-0.014-24.495 0zM5.355 16.004c0.222 0.73 0.573 1.41 0.852 2.118 0.086 0.189 0.076 0.399 0.081 0.6-0.010 1.443 0.001 2.885-0.008 4.329 0.010 0.184-0.028 0.409 0.143 0.535 0.941 0.979 2.042 1.794 3.221 2.466 0.62 0.418 1.344 0.631 2.026 0.926 0.257 0.098 0.54 0.227 0.817 0.119 2.171-0.69 4.173-1.95 5.7-3.642 0.084-1.678-0.020-3.368 0.047-5.048 0.247-0.82 0.705-1.566 0.919-2.399-4.599-0.019-9.199-0.008-13.799-0.005z"></path>
</svg>
