<!-- Generated by IcoMoon.io -->
<svg version="1.1" xmlns="http://www.w3.org/2000/svg" width="31" height="32" viewBox="0 0 31 32">
<path fill="#444" d="M4.704 3.437c1.634-0.604 3.267-1.214 4.901-1.819 0.455 1.241 1.369 2.295 2.511 2.955 1.846 1.072 4.173 1.228 6.172 0.5 1.174-0.427 2.237-1.197 2.943-2.235 0.261-0.379 0.47-0.792 0.635-1.221 1.632 0.607 3.265 1.215 4.898 1.82 0.002 2.166 0.001 4.332 0.001 6.498-2.377 1.575-4.754 3.151-7.131 4.727 0-0.683-0-1.366 0-2.049-1.298-1.313-2.6-2.622-3.901-3.933-1.303 1.308-2.603 2.621-3.903 3.932 0.001 0.703 0 1.407 0 2.111-2.373-1.598-4.749-3.192-7.123-4.788 0.003-2.166-0.006-4.332-0.005-6.499zM0 7.795c1.522 2.914 2.397 6.159 2.567 9.441 1.182 0.434 2.362 0.874 3.542 1.312 0-2.286 0-4.571 0-6.857-0.692-0.465-1.384-0.929-2.076-1.394 0.002-1.335-0-2.669 0.001-4.004-1.344 0.503-2.69 0.999-4.034 1.501zM27.436 6.296c0 1.336 0.001 2.671 0 4.007-0.691 0.454-1.378 0.913-2.069 1.366-0.002 2.292 0 4.583-0.001 6.875 1.179-0.436 2.356-0.875 3.534-1.312 0.166-3.281 1.044-6.526 2.567-9.438-1.343-0.502-2.687-0.999-4.030-1.499zM6.78 12.142c-0.002 3.071-0.008 6.142-0.002 9.213 2.985 3.009 5.97 6.018 8.955 9.027 2.986-3.008 5.97-6.018 8.955-9.026 0.006-3.080 0-6.161 0.004-9.241-1.685 1.119-3.37 2.236-5.057 3.354-0.001 1.86-0.001 3.719 0 5.579-1.298 1.314-2.602 2.621-3.903 3.932-1.293-1.302-2.586-2.602-3.878-3.906-0.041-0.033-0.020-0.091-0.026-0.135 0.002-1.801 0-3.602 0.001-5.403-1.684-1.131-3.366-2.264-5.050-3.394z"></path>
</svg>
