<svg xmlns="http://www.w3.org/2000/svg" viewBox="0 0 196 175"><path fill="#000" fill-rule="evenodd" d="m45 69.5 24 17V119l29 27.5v28l-53-53v-52Zm-19-38v25l13 9V103c-8.667-2.667-15.667-6.167-21-10.5-.333-23.667-6.167-41.333-17.5-53 8-4 16.5-6.667 25.5-8ZM62 0c6 17 18 25.5 36 25.5v14l-29 25V79L31.5 53V13l.027-.012.05-.02L62 0Zm89 69.5-24 17V119l-29 27.5v28l53-53v-52Zm19-38v25l-13 9V103c8.667-2.667 15.667-6.167 21-10.5.333-23.667 6.167-41.333 17.5-53-8-4-16.5-6.667-25.5-8ZM134 0c-6 17-18 25.5-36 25.5v14l29 25V79l37.5-26V13l-.027-.012-.05-.02L134 0Z"/></svg>
