<!-- Generated by IcoMoon.io -->
<svg version="1.1" xmlns="http://www.w3.org/2000/svg" width="29" height="32" viewBox="0 0 29 32">
<title>cmr</title>
<path fill="#444" d="M12.125 0.517c1.929-0.881 4.326-0.623 6.009 0.672 0.644 0.486 0.997 1.23 1.373 1.921 1.62-0.057 3.165-0.687 4.473-1.626 0.932 0.823 1.079 2.139 1.046 3.31 1.281 0.141 2.491-0.358 3.553-1.024 0.429 1.197 0.684 2.511 0.392 3.77-0.208 0.889-0.836 1.606-1.573 2.115-0.376-0.38-0.836-0.736-1.406-0.682-2.722-0.020-5.443 0.008-8.163-0.010-0.662-0.002-1.328-0.302-1.716-0.846-0.727-1.001-1.12-2.19-1.534-3.343-0.482 1.14-0.832 2.36-1.586 3.361-0.396 0.543-1.069 0.832-1.731 0.83-2.722 0.014-5.443-0.014-8.163 0.010-0.566-0.051-1.005 0.329-1.402 0.676-0.711-0.519-1.332-1.216-1.545-2.092-0.288-1.261-0.047-2.579 0.382-3.778 1.075 0.644 2.272 1.156 3.559 1.018-0.037-1.175 0.131-2.472 1.040-3.316 1.332 0.924 2.899 1.651 4.556 1.584 0.402-1.152 1.295-2.098 2.434-2.548zM2.478 12.883v0c-0.356 0.020-0.774-0.031-1.054 0.241-0.281 0.356-0.272 0.566-0.278 1.028v3.273l0.003 0.058c0.736 1.185 1.587 2.387 2.38 3.537 0.364-0.11 0.725-0.295 0.84-0.721 0.014-0.082 0.037-0.162 0.043-0.245 0.060-0.819-0.042-1.64 0.020-2.508 0-0.485 0.389-0.879 0.869-0.879s0.869 0.394 0.869 0.879l0.019 1.667c0.013 5.175-0.068 1.842 0.037 5.31 0.883 1.097 1.847 2.139 2.852 3.128 0.47 0.074 0.915-0.374 0.885-0.842 0.047-1.823-0.049-3.651 0.039-5.474 0.1-0.922 1.635-0.926 1.731 0 0.059 2.904 0.012 5.813 0.018 8.719 0.856 0.748 1.806 1.385 2.793 1.945 0.987-0.558 1.933-1.199 2.787-1.945-0.012-2.707 0.002-5.415-0.008-8.122 0.002-0.405-0.031-0.915 0.38-1.148 0.548-0.411 1.463 0.029 1.391 0.74 0.033 1.761-0.024 3.527 0.018 5.288-0.020 0.47 0.421 0.905 0.893 0.842 1.003-0.989 1.97-2.029 2.846-3.132 0.121-2.352-0.024-4.72 0.067-7.076 0.039-0.86 1.369-1.038 1.688-0.264 0.219 1.079-0.072 2.209 0.153 3.288 0.114 0.351 0.494 0.435 0.797 0.552 0.795-1.148 1.604-2.291 2.342-3.478 0.088-1.24 0.031-2.493 0.031-3.737 0.027-0.505-0.407-0.952-0.917-0.909-3.069-0.024-6.14-0.008-9.209-0.008-0.85-0.024-1.712 0.45-2.047 1.251-0.711 1.62-0.938 3.392-1.187 5.129-0.384-1.757-0.501-3.615-1.308-5.257-0.378-0.713-1.179-1.15-1.982-1.122-2.932-0.008-5.866 0.004-8.8-0.006z"></path>
</svg>
