<!-- Generated by IcoMoon.io -->
<svg version="1.1" xmlns="http://www.w3.org/2000/svg" width="26" height="32" viewBox="0 0 26 32">
<title>cn2</title>
<path fill="#444" d="M9.438 2.58c1.159-0.929 2.663-1.417 4.148-1.324 1.586 0.085 3.093 0.853 4.177 2 0.762 0.79 1.299 1.767 1.677 2.791 1.61-0.309 3.22-0.622 4.83-0.931-0.533 1.294-1.065 2.588-1.603 3.879-3.215-2.081-6.428-4.169-9.646-6.248-2.99 2.065-5.984 4.126-8.977 6.189-0.532-1.254-1.061-2.508-1.591-3.762 1.55 0.243 3.099 0.491 4.649 0.733 0.484-1.28 1.251-2.477 2.337-3.328zM12.136 8.393c1.422-0.213 2.91-0.012 4.208 0.611 1.514 0.722 2.759 1.97 3.522 3.46 0.782 1.512 1.043 3.272 0.815 4.953-0.242 1.775-1.084 3.468-2.378 4.709-1.031 0.994-2.351 1.689-3.76 1.949-1.587 0.291-3.275 0.056-4.702-0.706-1.848-0.974-3.239-2.738-3.818-4.739-0.387-1.353-0.439-2.804-0.139-4.179 0.366-1.679 1.275-3.241 2.582-4.361 1.035-0.89 2.318-1.494 3.669-1.697zM4.349 10.319c0.019 3.97 0.024 7.942 0.036 11.913 2.968 1.953 5.937 3.905 8.904 5.86 2.939-1.999 5.875-4.003 8.812-6.006-0.017-3.973-0.021-7.945-0.040-11.918-3.006-1.947-6.010-3.895-9.017-5.842-2.898 1.997-5.797 3.994-8.695 5.993zM0.502 13.235c-0.701 1.9-0.661 4.061 0.11 5.933 0.517 1.266 1.398 2.379 2.517 3.167-0.016-4.173-0.028-8.346-0.037-12.519-1.19 0.835-2.094 2.055-2.589 3.419zM23.324 9.942c0.013 4.136 0.026 8.273 0.033 12.409 1.145-0.833 2.020-2.019 2.506-3.347 0.707-1.895 0.678-4.056-0.095-5.927-0.504-1.246-1.357-2.345-2.444-3.136zM12.299 10.501c-2.157 0.344-3.926 2.131-4.422 4.232-0.359 1.448-0.194 3.029 0.51 4.35 0.632 1.207 1.704 2.19 2.986 2.667 1.439 0.544 3.113 0.419 4.454-0.334 1.282-0.708 2.243-1.946 2.666-3.343 0.412-1.372 0.348-2.89-0.22-4.21-0.505-1.19-1.413-2.213-2.559-2.819-1.035-0.556-2.257-0.749-3.414-0.543zM2.288 27.019c1.568-0.3 3.137-0.604 4.705-0.904 0.397 1 0.933 1.959 1.696 2.727 1.072 1.108 2.555 1.825 4.101 1.902 1.526 0.095 3.069-0.427 4.24-1.406 1.005-0.816 1.718-1.934 2.2-3.124 1.564 0.248 3.127 0.499 4.692 0.747-0.501-1.168-0.999-2.338-1.5-3.506-3.041 2.069-6.078 4.143-9.117 6.214-3.167-2.084-6.335-4.166-9.501-6.253-0.505 1.202-1.011 2.402-1.516 3.604z"></path>
</svg>
