<!-- Generated by IcoMoon.io -->
<svg version="1.1" xmlns="http://www.w3.org/2000/svg" width="21" height="32" viewBox="0 0 21 32">
<title>cns</title>
<path fill="#444" d="M15.738 21.428c0.040 2.422 0.319 4.085 0.522 4.853l-5.727 4.384-6.321-3.652c-0.352-1.529-0.477-3.215-0.52-4.898l4.948 3.106 7.098-3.794z"></path>
<path fill="#444" d="M11.985 1.335l8.707 5.466-1.553 11.061-10.438 5.575-8.699-5.466 1.549-11.057 10.434-5.579zM11.317 4.403c-4.331-0.002-8.345 3.518-8.95 7.84-0.305 2.17 0.271 4.218 1.61 5.763 1.322 1.521 3.244 2.366 5.395 2.362 4.332 0 8.344-3.512 8.946-7.834 0.303-2.172-0.267-4.218-1.606-5.763-1.331-1.531-3.244-2.37-5.395-2.368zM11.317 6.51c1.529 0 2.876 0.588 3.802 1.644 0.93 1.076 1.326 2.528 1.112 4.091-0.469 3.316-3.543 6.016-6.859 6.014-1.533 0.004-2.88-0.58-3.802-1.636-0.934-1.080-1.333-2.536-1.112-4.095 0.465-3.316 3.539-6.016 6.859-6.018z"></path>
</svg>
