<!-- Generated by IcoMoon.io -->
<svg version="1.1" xmlns="http://www.w3.org/2000/svg" width="29" height="32" viewBox="0 0 29 32">
<title>con</title>
<path fill="#444" d="M4.823 8.963c-1.18-0.201-2.158-0.81-2.89-1.669 0 0-1.925 1.689-1.925 5.059 0 1.361 0.392 2.7 0.939 3.892 2.72-1.911 4.107-4.524 3.876-7.282zM18.995 7.618c-3.48-2.236-4.54-5.374-4.54-5.374s-1.060 3.138-4.544 5.374c4.145 4.799 3.607 12.941 0.042 16.59 1.066 0.748 2.087 1.637 2.54 2.213 0.756 0.962 1.375 1.821 1.961 3.335 0.583-1.514 1.202-2.373 1.96-3.335 0.46-0.587 1.507-1.491 2.593-2.249-3.614-3.623-4.174-11.731-0.013-16.554zM22.22 8.95c-0.444-0.075-0.911-0.205-1.394-0.389-3.876 3.535-3.63 11.398 0.056 14.502 0.036-0.016 0.071-0.032 0.107-0.048 1.481-0.619 3.166-1.65 4.336-2.856 0.454-0.466 1.093-1.238 1.705-2.204-3.866-2.583-5.386-5.331-4.809-9.006zM26.974 7.293c-0.728 0.86-1.707 1.465-2.884 1.669-0.253 2.787 1.108 5.347 3.876 7.273 0.544-1.19 0.933-2.525 0.933-3.883 0-3.37-1.926-5.059-1.926-5.059zM7.934 23.021c-0.003 0-0.009-0.003-0.016-0.006-1.478-0.619-3.163-1.65-4.333-2.856-0.464-0.476-1.121-1.273-1.746-2.268 3.801-2.567 5.415-5.296 4.851-8.941 0.444-0.075 0.911-0.205 1.394-0.389 3.853 3.519 3.497 11.333-0.149 14.46z"></path>
</svg>
