<!-- Generated by IcoMoon.io -->
<svg version="1.1" xmlns="http://www.w3.org/2000/svg" width="29" height="32" viewBox="0 0 29 32">
<title>dd2</title>
<path fill="#444" d="M15.514 3.979v24.042l8.841-8.688c0 0-5.35-1.936-5.35-5.041v-4.574c0 0 7.911 2.558 7.911 10.934 0 1.863-0.778 4.112-0.778 4.112s2.637-1.936 2.637-7.366c0-5.972-4.806-13.418-13.261-13.418zM0 14.604c0-5.43 2.637-7.369 2.637-7.369s-0.774 2.251-0.774 4.112c0 8.376 7.911 10.936 7.911 10.936v-4.576c0-3.102-5.354-5.041-5.354-5.041l8.844-8.686v24.042c-8.455 0-13.264-7.446-13.264-13.417z"></path>
</svg>
