<!-- Generated by IcoMoon.io -->
<svg version="1.1" xmlns="http://www.w3.org/2000/svg" width="32" height="32" viewBox="0 0 32 32">
<title>ddc</title>
<path fill="#444" d="M24.186 21.873c0 0-1.217-0.788-3.648-1.149 0 0-1.013 2.093-4.536 2.1-3.526-0.007-4.54-2.1-4.54-2.1-2.43 0.362-3.645 1.149-3.645 1.149s3.097 4.069 8.184 4.069c5.084 0 8.184-4.069 8.184-4.069zM31.972 21.199c0 3.496-6.482 4.434-9.455 4.612 0 0 5.092-2.247 5.092-4.265 0-1.821-6.138-3.457-11.729-3.526-5.588 0.069-11.486 1.705-11.486 3.526 0 2.018 5.089 4.265 5.089 4.265-2.973-0.178-9.455-1.116-9.455-4.612 0-4.96 7.936-8.055 15.852-8.055 7.921 0 16.092 3.094 16.092 8.055zM27.337 13.268c0 0 0.344-5.366-5.024-8.766 0 0 1.968 2.661 2.413 7.536 0 0 1.38 0.589 2.612 1.229zM7.274 12.038c0.444-4.875 2.413-7.536 2.413-7.536-5.366 3.4-5.022 8.766-5.022 8.766 1.232-0.641 2.609-1.229 2.609-1.229z"></path>
</svg>
