<!-- Generated by IcoMoon.io -->
<svg version="1.1" xmlns="http://www.w3.org/2000/svg" width="31" height="32" viewBox="0 0 31 32">
<title>ddd</title>
<path fill="#444" d="M21.96 6.244c0 0 3.057 3.060 3.057 8.061 0 5.238-3.834 10.971-9.976 11.056-6.146-0.085-9.976-5.819-9.976-11.056 0-5.001 3.055-8.061 3.055-8.061-6.502 3.114-8.115 10.951-8.115 10.951 1.167 0 1.668 0.389 2.89 2.057 1.224 1.665 1.892 2.89 4.503 5.78 2.253 2.493 6.401 2.877 7.504 2.936v0.011c0 0 0.049 0 0.139-0.005 0.088 0.005 0.139 0.005 0.139 0.005v-0.011c1.103-0.059 5.251-0.443 7.501-2.936 2.614-2.89 3.279-4.115 4.503-5.78 1.222-1.668 1.722-2.057 2.89-2.057 0 0-1.611-7.837-8.115-10.951zM10.484 7.912c0.721 1.279 1.943 2.5 1.943 2.5v2.114c-2.444-1.614-3.501-4.336-3.501-4.336-1 1.222-1.389 3.614-1.389 3.614 1.833 3.222 4.89 4.722 4.89 4.722v2.222c-3.89-1.776-5.836-5.336-5.836-5.336 0 8.618 8.061 10.118 8.061 10.118v-19.509c-2.89 1.278-4.168 3.89-4.168 3.89zM19.599 7.912c-0.725 1.279-1.946 2.5-1.946 2.5v2.114c2.446-1.614 3.501-4.336 3.501-4.336 1.002 1.222 1.392 3.614 1.392 3.614-1.835 3.222-4.893 4.722-4.893 4.722v2.222c3.89-1.776 5.836-5.336 5.836-5.336 0 8.618-8.058 10.118-8.058 10.118v-19.509c2.89 1.278 4.168 3.89 4.168 3.89z"></path>
</svg>
