<!-- Generated by IcoMoon.io -->
<svg version="1.1" xmlns="http://www.w3.org/2000/svg" width="26" height="32" viewBox="0 0 26 32">
<title>dde</title>
<path fill="#444" d="M12.794 8.588v0.003c-0.012 0-0.023 0-0.035 0-0.015 0-0.026 0-0.038 0v-0.003c-0.59-0.035-1-0.517-1-1.476 0-1.002 1.038-2.37 1.038-2.37s1.038 1.368 1.038 2.37c0 0.959-0.412 1.441-1.003 1.476zM15.953 6.925c-0.076-0.739-0.111-1.481-0.444-2.516-0.334-1.038-1.389-2.262-2.715-2.262-1.333 0-2.37 1.224-2.703 2.262-0.334 1.035-0.372 1.777-0.444 2.516-0.073 0.743-0.515 4.039 3.154 4.039 3.665 0 3.226-3.296 3.153-4.039zM23.52 23.87c0.707-1.116 1.291-2.408 1.654-3.896 0 0-1-0.392-1.596-0.529-0.596-0.141-1.628-0.392-1.628-0.392-0.29 1.549-1.017 2.853-1.19 3.145l2.759 1.672zM20.773 22.997c-0.958 3.995-5.194 6.856-5.194 6.856 0.561 0 4.758-1.493 7.532-5.378l-2.338-1.478zM25.344 19.182c0.152-0.83 0.234-1.719 0.234-2.662 0-0.938-0.079-1.809-0.219-2.625l-2.891 0.438v-0.816l2.669-0.658c-0.193-0.763-0.441-1.473-0.731-2.131l-0.976 0.38-0.483-0.444-0.035-0.59 0.892-0.537c-0.395-0.693-0.831-1.318-1.286-1.891l-1.347 1.131-0.409-0.555 1.286-1.14c-0.228-0.263-0.459-0.511-0.693-0.751-0.795-0.812-1.593-1.777-2.259-2.183-1.33-0.815-2.482-1.187-2.482-1.187 0.555 1.111 0.465 1.909 0.687 2.964s0.5 2.111-0.281 4.113c-0.777 1.998-3.442 1.888-3.442 1.888v1.499c5.889 0.204 7.925 3.206 7.925 3.206 0.027 0.801-0.061 1.487-0.114 1.806 0 0 1.228 0.175 1.891 0.304s2.063 0.441 2.063 0.441zM13.578 14.761v12.555c0 0 3.668-9.279 6.611-10.667 0 0-1.777-1.888-6.611-1.888zM4.836 22.198c-0.169-0.292-0.897-1.595-1.187-3.145 0 0-1.032 0.251-1.628 0.392-0.596 0.137-1.595 0.529-1.595 0.529 0.362 1.487 0.946 2.779 1.653 3.896l2.756-1.672zM2.486 24.475c2.776 3.885 6.971 5.378 7.535 5.378 0 0-4.235-2.861-5.194-6.856l-2.341 1.478zM2.317 18.741c0.667-0.129 1.894-0.304 1.894-0.304-0.052-0.319-0.14-1.006-0.114-1.806 0 0 2.037-3.002 7.926-3.206v-1.499c0 0-2.669 0.111-3.446-1.888-0.777-2.002-0.5-3.057-0.278-4.113s0.129-1.852 0.687-2.964c0 0-1.151 0.372-2.481 1.187-0.67 0.406-1.464 1.371-2.263 2.183-0.23 0.24-0.462 0.489-0.693 0.751l1.286 1.14-0.406 0.555-1.35-1.131c-0.456 0.573-0.891 1.199-1.282 1.891l0.891 0.537-0.038 0.59-0.479 0.444-0.976-0.38c-0.29 0.658-0.541 1.368-0.734 2.131l2.672 0.658v0.816l-2.891-0.438c-0.143 0.816-0.219 1.686-0.219 2.625 0 0.943 0.082 1.832 0.234 2.662 0 0 1.397-0.313 2.060-0.441zM12.023 14.761v12.555c0 0-3.668-9.279-6.611-10.667 0 0 1.777-1.888 6.611-1.888z"></path>
</svg>
