<!-- Generated by IcoMoon.io -->
<svg version="1.1" xmlns="http://www.w3.org/2000/svg" width="28" height="32" viewBox="0 0 28 32">
<title>ddg</title>
<path fill="#444" d="M18.702 2.708c0 0 4.474 3.256 4.474 8.134s-3.713 6-4.678 6c-0.964 0-2.746-1.425-2.746-4.271 0-2.032 1.578-3.049 1.578-3.049s0.2-1.779-0.511-3.1c-0.711-1.325-2.843-3.764-2.843-3.764s-2.139 2.439-2.849 3.764c-0.713 1.321-0.51 3.1-0.51 3.1s1.577 1.017 1.577 3.049c0 2.846-1.781 4.271-2.745 4.271s-4.678-1.121-4.678-6 4.474-8.134 4.474-8.134c0 0-9.227 3.281-9.227 13.115 0 8.488 7.17 12.123 7.17 12.123s-0.485-1.143-0.485-1.853c0-0.714 0.611-1.375 1.578-1.375 0.964 0 4.217 0.764 5.692 4.624v0c1.475-3.86 4.728-4.624 5.692-4.624 0.967 0 1.577 0.66 1.577 1.375 0 0.71-0.485 1.853-0.485 1.853s7.17-3.635 7.17-12.123c0-9.834-9.226-13.115-9.226-13.115z"></path>
</svg>
