<!-- Generated by IcoMoon.io -->
<svg version="1.1" xmlns="http://www.w3.org/2000/svg" width="27" height="32" viewBox="0 0 27 32">
<title>ddh</title>
<path fill="#444" d="M13.413 29.315c6.945 0 12.315-2.559 12.29-7.905-0.012-2.49-5.072-6.671-5.346-9.184-0.208-1.903 1.761-6.398 2.473-8.42 0.081-0.23-0.042-0.358-0.162-0.438-0.106-0.071-0.375-0.035-0.478 0.135-1.274 2.098-4.313 7.371-4.255 9.591 0.091 3.518 3.731 5.907 3.747 8.088 0.025 3.381-3.746 3.838-8.269 3.838s-8.294-0.457-8.269-3.838c0.016-2.181 3.655-4.569 3.747-8.088 0.058-2.22-2.982-7.493-4.255-9.591-0.103-0.17-0.371-0.206-0.478-0.135-0.12 0.080-0.243 0.208-0.162 0.438 0.712 2.022 2.681 6.517 2.473 8.42-0.274 2.513-5.335 6.694-5.346 9.184-0.025 5.346 5.345 7.905 12.29 7.905z"></path>
<path fill="#444" d="M13.413 22.946c0 0 0.94 0.001 1.129 0.001 0.032 0 0.080-0.035 0.080-0.1-0.002-0.691-0.001-5.167-0.001-6.628 0-0.085 0.053-0.13 0.134-0.13 0.222-0.002 0.66-0.005 0.851-0.006 0.174-0.001 0.536 0.044 0.663-0.211 0.118-0.238-0.019-0.505-0.151-0.573-0.339-0.174-0.832-0.103-0.844-0.784-0.008-0.445 0.408-0.696 0.646-0.696 0.171 0 0.254-0.091 0.259-0.312 0.010-0.472 0.026-1.568 0.227-2.212 0.663-2.367 2.679-6.177 3.284-6.942 0.068-0.087-0.022-0.165-0.022-0.165s-2.063-1.503-6.254-1.503c-4.191 0-6.254 1.503-6.254 1.503s-0.090 0.079-0.022 0.165c0.605 0.765 2.62 4.574 3.284 6.942 0.201 0.643 0.217 1.74 0.227 2.212 0.005 0.221 0.088 0.312 0.259 0.312 0.237 0 0.653 0.251 0.646 0.696-0.012 0.681-0.505 0.61-0.844 0.784-0.132 0.067-0.269 0.335-0.151 0.573 0.127 0.256 0.489 0.21 0.663 0.211 0.191 0.001 0.628 0.004 0.851 0.006 0.081 0.001 0.134 0.045 0.134 0.13 0 1.461 0 5.937-0.001 6.628-0 0.064 0.048 0.1 0.080 0.1 0.19 0 1.129-0.001 1.129-0.001z"></path>
<path fill="#444" d="M0.013 15.444c0.016-4.113 2.488-7.4 3.244-8.174 0.033-0.038 0.077-0.018 0.101 0.036 0.365 0.848 0.992 2.808 1.263 3.848 0.018 0.077 0.001 0.136-0.063 0.184-1.132 0.734-3.128 2.442-3.136 4.093-0.002 0.063-0.038 0.117-0.116 0.116-0.388 0.002-0.832-0.004-1.2-0.008-0.046-0.001-0.092-0.044-0.093-0.095z"></path>
<path fill="#444" d="M26.813 15.444c-0.016-4.113-2.488-7.4-3.244-8.174-0.033-0.038-0.077-0.018-0.101 0.036-0.365 0.848-0.992 2.808-1.263 3.848-0.018 0.077-0.001 0.136 0.063 0.184 1.132 0.734 3.127 2.442 3.136 4.093 0.002 0.063 0.038 0.117 0.116 0.116 0.388 0.002 0.832-0.004 1.2-0.008 0.041-0.002 0.093-0.050 0.093-0.095z"></path>
</svg>
