<!-- Generated by IcoMoon.io -->
<svg version="1.1" xmlns="http://www.w3.org/2000/svg" width="24" height="32" viewBox="0 0 24 32">
<title>ddj</title>
<path fill="#444" d="M19.878 22.658c2.23-2.36 3.576-3.962 3.576-7.704 0-2.453-0.277-4.284-0.787-5.537-0.091 0.2-0.32 0.266-1.301-0.487-2.015-1.546-2.726-4.501-2.803-6.834-0.029-0.881 0.438-1.622 0.877-2.096-1.65 0.679-3.642 3.008-3.642 6.728 0 1.25 0.368 2.529 1.054 3.43 2.064-0.269 2.922 1.039 2.922 1.729 0 0.719-0.676 1.112-1.603 0.737l1.799 2.256c0 2.55-1.425 4.637-2.965 4.637-0.901 0-1.564-0.196-1.806-1.003-0.162-0.543-0.209-1.122-0.256-1.704-0.102-1.246 0.734-2.249 2.442-3.030-0.909-0.17-1.699-0.484-2.257-1.079 0.442-0.817 1.107-1.673 1.826-2.392-0.485-0.055-1.581 0.283-2.246 0.649-0.478 0.263-0.818 0.381-1.361 0.516-0.225-0.261-0.243-0.855-0.044-1.344 0.425-1.046 0.959-2.013 0.894-3.088-0.598 0.603-1.119 1.041-1.476 1.213-1.612 0.781-2.362 1.504-2.95 2.283-1.419 0.885-2.412 2.496-3.647 4.568-0.373 0.626-0.352 1.505-0.087 2.091 0.402 0.889 1.029 2.060 2.608 2.29-0.444-0.31-0.781-0.86-0.758-1.473 0.019-0.488 0.309-0.811 1.119-0.777 0.681 0.028 1.163 0.473 1.163 1.279 0 1.039-0.947 1.593-2.195 1.613-2.074 0.034-4.514-2.096-4.514-5.246l1.799-2.256c-0.927 0.374-1.603-0.018-1.603-0.737 0-0.69 0.858-1.998 2.922-1.729 0.686-0.901 1.054-2.18 1.054-3.43 0-3.72-1.992-6.049-3.642-6.728 0.439 0.474 0.906 1.215 0.877 2.096-0.078 2.333-0.788 5.288-2.803 6.834-0.981 0.753-1.21 0.687-1.301 0.487-0.51 1.252-0.754 3.083-0.754 5.537 0 4.418 0.995 4.342 4.53 7.96 1.825 1.867 3.357 3.49 3.464 5.686 0.087 1.795-0.4 3.4 0.087 3.4l4.129-4.398 4.129 4.398c0.487 0 0.016-1.605 0.087-3.4 0.071-1.783 1.332-3.711 3.44-5.942z"></path>
</svg>
