<!-- Generated by IcoMoon.io -->
<svg version="1.1" xmlns="http://www.w3.org/2000/svg" width="28" height="32" viewBox="0 0 28 32">
<title>ddk</title>
<path fill="#444" d="M13.785 32c-0.052-0.17-0.074-0.385-0.101-0.675-0.032-0.364-0.070-0.775-0.222-1.207-0.054-0.153-0.164-0.279-0.308-0.354-0.437-0.229-1.018-0.586-1.48-0.943 0.547-1.010-0.195-1.939-0.688-2.539 0.146-0.129 0.319-0.249 0.488-0.366 0.375-0.262 0.763-0.532 0.938-0.956 0.084-0.204 0.057-0.437-0.071-0.617-0.12-0.167-0.274-0.287-0.423-0.403-0.142-0.11-0.255-0.202-0.338-0.307 1.009-0.57 1.714-2.054 1.749-2.619 0.019-0.318-0.071-0.726-0.575-0.951 0.025-0.112 0.052-0.214 0.079-0.313 0.128-0.477 0.248-0.929-0.12-1.67-0.074-0.15-0.203-0.264-0.361-0.32-0.401-0.141-1.509-0.366-2.779-0.366-1.079 0-2.067 0.155-2.933 0.461-1.526 0.539-1.899 1.632-2.123 2.285-0.013 0.037-0.027 0.078-0.042 0.119-0.243-0.26-0.578-0.901-0.721-1.172-0.128-0.243-0.248-0.473-0.366-0.65-0.129-0.196-0.26-0.36-0.376-0.505-0.285-0.358-0.402-0.515-0.402-0.821 0-0.193 0.067-0.276 0.351-0.544 0.252-0.239 0.599-0.567 0.801-1.111 0.305-0.825 0.577-1.235 0.737-1.41 0.013 0.034 0.026 0.069 0.037 0.1 0.202 0.548 0.54 1.465 1.89 2.2 0.986 0.537 2.19 0.541 4.185 0.551 0 0 0.181 0.001 0.182 0.001 0.302 0 0.563-0.21 0.627-0.504 0.065-0.295-0.086-0.596-0.361-0.721-3.271-1.488-4.125-4.641-4.879-7.423-0.726-2.679-1.476-5.45-4.554-5.45-0.494 0-1.030 0.072-1.62 0.216 0.035-0.044 0.070-0.084 0.105-0.121 0.575-0.615 1.577-0.996 2.617-0.996 0.762 0 1.512 0.204 2.169 0.591 2.395 1.408 3.203 3.602 3.915 5.538 0.688 1.868 1.336 3.633 3.344 3.815 0.019 0.001 0.039 0.003 0.058 0.003 0.177 0 0.347-0.073 0.469-0.204 0.135-0.145 0.196-0.344 0.164-0.539-0.269-1.67 0.094-7.073 1.086-11.101 0.964 3.937 1.062 9.35 0.898 11.112-0.017 0.186 0.047 0.371 0.178 0.506 0.121 0.125 0.288 0.195 0.461 0.195 0.013 0 0.025-0.001 0.039-0.001 2.183-0.133 2.843-1.983 3.541-3.941 0.74-2.076 1.579-4.429 4.341-5.738 0.445-0.211 0.942-0.318 1.475-0.318 1.063 0 2.148 0.435 2.767 1.106 0.030 0.032 0.060 0.067 0.090 0.104-0.621-0.16-1.181-0.239-1.69-0.239-2.975 0-3.648 2.564-4.36 5.278-0.745 2.839-1.588 6.056-5.091 7.621-0.274 0.122-0.425 0.417-0.366 0.711s0.312 0.508 0.611 0.515c0.385 0.011 0.745 0.016 1.070 0.016 2.636 0 3.573-0.351 4.468-1.041 0.639-0.494 0.945-1.118 1.167-1.574 0.041-0.083 0.090-0.184 0.134-0.264 0.12 0.138 0.323 0.48 0.618 1.321 0.008 0.024 0.018 0.047 0.030 0.070 0.162 0.331 0.399 0.595 0.63 0.849 0.272 0.302 0.507 0.563 0.511 0.816 0.006 0.401-0.152 0.579-0.509 0.942-0.172 0.176-0.367 0.373-0.54 0.625-0.203 0.297-0.34 0.645-0.461 0.952-0.074 0.189-0.203 0.515-0.304 0.65-0.030-0.072-0.063-0.163-0.091-0.238-0.246-0.679-0.658-1.814-2.45-2.426-0.537-0.183-1.173-0.271-1.946-0.271-0.867 0-1.749 0.111-2.527 0.209-0.376 0.047-0.731 0.092-1.025 0.116-0.257 0.020-0.476 0.192-0.558 0.437-0.195 0.586-0.125 1.113-0.068 1.539 0.023 0.175 0.058 0.439 0.027 0.508v0c-0.001 0-0.030 0.027-0.119 0.063-0.328 0.129-0.492 0.498-0.366 0.827 0.352 0.916 0.878 1.335 1.342 1.706 0.177 0.141 0.348 0.278 0.514 0.442-0.046 0.011-0.094 0.012-0.151 0.012-0.108 0-0.252-0.015-0.439-0.045-0.034-0.006-0.069-0.008-0.103-0.008-0.153 0-0.303 0.055-0.421 0.157-0.144 0.124-0.225 0.307-0.221 0.498 0.059 2.91 0.131 6.472-1.256 8.201z"></path>
</svg>
