<!-- Generated by IcoMoon.io -->
<svg version="1.1" xmlns="http://www.w3.org/2000/svg" width="27" height="32" viewBox="0 0 27 32">
<title>ddl</title>
<path fill="#444" d="M11.166 8.627c0.11-1.994 1.052-3.643 1.96-5.306 1.067 1.627 1.678 3.367 1.923 5.198 2.452-1.065 3.221-3.538 1.134-6.195 3.713-0.19 7.932 3.495 9.354 7.892 1.571 4.854 0.019 9.223 0.726 13.247l-3.303-1.299c-0.915 2.175-2.715 4.823-4.648 6.318 0.657-2.231 0.333-5.254-0.397-7.364 3.226-3.618 0.632-8.592-2.914-9.278l-0.026 16.931c-0.002 1.319-3.613 1.272-3.625-0.032l-0.15-16.897c-3.158 0.989-5.963 4.68-2.831 9.277-0.712 1.929-0.975 4.825-0.495 7.071-1.678-1.274-3.409-3.683-4.513-5.952l-3.048 1.191c0.574-3.876-1.162-8.464 0.327-12.886 2.139-6.354 6.466-8.446 9.581-8.266-2.443 2.726-0.986 5.393 0.944 6.353z"></path>
</svg>
