<!-- Generated by IcoMoon.io -->
<svg version="1.1" xmlns="http://www.w3.org/2000/svg" width="23" height="32" viewBox="0 0 23 32">
<title>ddm</title>
<path fill="#444" d="M9.598 0.684l-0.088 0.015c-4.56 0.721-7.956 4.178-9.093 8.3-1.134 4.113-0.011 8.888 4.439 12.268 0.002 0.001 0.003 0.003 0.005 0.005l4.716 9.389v-0.326l0.019-11.446v-0.058l-0.058-0.015c-3.414-0.9-5.284-3.781-5.368-6.739s1.615-5.993 5.373-7.206l0.053-0.015v-4.172zM12.914 0.684v4.167l0.049 0.019c4.84 1.77 6.055 5.739 5.417 8.684-0.457 2.11-2.018 3.369-3.263 4.444-4.239 3.662-4.094 8.021-2.169 10.726 0.963 1.353 2.366 2.295 3.89 2.533 1.518 0.237 3.15-0.234 4.556-1.677 0.001-0.001 0.004 0.001 0.005 0 0.005-0.005 0.010-0.010 0.015-0.015l0.462-0.477-0.559 0.36c-0.005 0.003-0.009 0.006-0.015 0.010-2.189 1.393-4.611 0.564-5.742-1.211-1.134-1.779-0.978-4.512 2.076-6.958 4.341-3.477 5.563-8.192 4.507-12.253s-4.388-7.47-9.136-8.339l-0.092-0.015zM11.276 7.121c-2.648 0-4.794 2.142-4.794 4.789s2.147 4.794 4.794 4.794c2.648 0 4.794-2.146 4.794-4.794s-2.146-4.789-4.794-4.789z"></path>
</svg>
