<!-- Generated by IcoMoon.io -->
<svg version="1.1" xmlns="http://www.w3.org/2000/svg" width="32" height="32" viewBox="0 0 32 32">
<title>ddn</title>
<path fill="#444" d="M23.299 19.38c0.125 0 0.253 0.004 0.383 0.012 0.853 0.050 1.476 0.081 2.053 0.081 0.655 0 1.252-0.039 2.063-0.133-0.387-0.558-0.666-0.905-1.208-1.352 1.907-0.201 2.955-0.53 4.418-1.296-0.709-0.448-1.143-0.75-2.068-1.096 1.241-0.663 2.247-1.324 2.995-2.065-0.825-0.403-1.596-0.577-2.548-0.802 1.108-1.081 1.948-2.312 2.548-4.11-3.404 0.375-4.832 1.576-5.955 1.595-0.952 0-1.894-1.485-2.72-2.357-2.437-2.574-5.075-3.388-7.262-3.388s-4.824 0.814-7.262 3.388c-0.826 0.872-1.767 2.357-2.72 2.357-1.123-0.019-2.551-1.22-5.955-1.595 0.6 1.798 1.44 3.029 2.548 4.11-0.953 0.225-1.724 0.399-2.548 0.802 0.748 0.741 1.754 1.402 2.995 2.065-0.925 0.346-1.36 0.648-2.068 1.096 1.463 0.766 2.511 1.095 4.418 1.296-0.542 0.447-0.821 0.794-1.208 1.352 0.811 0.094 1.408 0.133 2.063 0.133 0.577 0 1.2-0.030 2.053-0.081 0.13-0.008 0.258-0.012 0.383-0.012 2.454 0 3.843 1.468 3.245 3.956l2.565 4.196v-9.781c-4.31-0.618-5.908-3.877-5.908-5.654 0-0.242 0.019-0.481 0.057-0.715 0.754-0.875 1.955-1.596 3.43-2.062-0.262 0.535-0.409 1.131-0.409 1.761 0 2.288 1.934 4.143 4.319 4.143s4.319-1.855 4.319-4.143c0-0.63-0.147-1.227-0.409-1.761 1.475 0.466 2.676 1.188 3.43 2.062 0.037 0.234 0.057 0.473 0.057 0.715 0 1.777-1.598 5.036-5.908 5.654v9.781l2.565-4.196c-0.598-2.488 0.791-3.956 3.245-3.956z"></path>
</svg>
