<!-- Generated by IcoMoon.io -->
<svg version="1.1" xmlns="http://www.w3.org/2000/svg" width="27" height="32" viewBox="0 0 27 32">
<title>ddp</title>
<path fill="#444" d="M14.43 2.217c2.19 1.376 4.281 2.906 6.275 4.55 1.507 1.271 2.982 2.61 4.164 4.197 0.652 0.907 1.27 1.961 1.177 3.121-0.050 1.514-0.928 2.853-2.001 3.862-1.577 1.524-3.533 2.619-4.972 4.291-0.803 0.926-1.344 2.118-1.317 3.36 0.026 0.669 0.077 1.39 0.455 1.965 0.26 0.392 0.791 0.461 1.209 0.319 0.588-0.192 1.146-0.612 1.37-1.205 0.132-0.302-0.075-0.686-0.404-0.726-0.274-0.025-0.547 0.037-0.817 0.073 0.025-0.273 0.195-0.505 0.471-0.563 0.487-0.13 1.144-0.203 1.493 0.245 0.425 0.551 0.394 1.327 0.13 1.942-0.351 0.822-0.968 1.586-1.821 1.916-0.906 0.323-1.962 0.304-2.821-0.146-0.934-0.525-1.55-1.463-1.978-2.421-0.4-0.957-0.741-1.998-0.564-3.047 0.253-1.537 1.083-2.93 2.122-4.068 0.963-1.089 2.354-1.701 3.256-2.851 0.405-0.499 0.677-1.16 0.525-1.808-0.11-0.424-0.316-0.87-0.714-1.093-0.41-0.216-0.9-0.108-1.308 0.056-0.904 0.384-1.621 1.074-2.366 1.692-0.54 0.442-1.045 0.923-1.564 1.387-0.003-5.016-0.001-10.031-0.001-15.047z"></path>
<path fill="#444" d="M8.768 4.136c0.521-0.465 1.005-0.97 1.555-1.402 0.027 5.851 0.003 11.703 0.011 17.555-0.008 2.349 0.017 4.698-0.012 7.047-0.138-0.169-0.27-0.343-0.393-0.522-3.277-4.884-6.589-9.743-9.859-14.631 2.903-2.679 5.799-5.365 8.698-8.046z"></path>
</svg>
