<!-- Generated by IcoMoon.io -->
<svg version="1.1" xmlns="http://www.w3.org/2000/svg" width="32" height="32" viewBox="0 0 32 32">
<title>ddq</title>
<path fill="#444" d="M20.604 3.344c2.231 0.374 4.433 0.997 6.485 1.959 1.912 0.909 3.772 2.17 4.844 4.044-0.976-0.287-2.013-0.415-3.026-0.282-0.792 0.111-1.606 0.531-1.935 1.297-0.091 0.247-0.264 0.535-0.127 0.795 0.592 1.313 1.004 2.716 1.137 4.152 0.365 4.197-1.498 8.527-4.822 11.123-1.267 0.955-2.736 1.643-4.28 2.006-0.687 0.127-1.386 0.201-2.085 0.219 0.018-1.543 0.003-3.086 0.008-4.629 2.042 0.011 4.027-1.046 5.228-2.685 0.583-0.764 0.947-1.663 1.274-2.559 0.297-0.811 0.523-1.649 0.651-2.503-0.778 0.444-1.505 0.975-2.264 1.453-1.569 1.018-3.126 2.055-4.703 3.063 0.463-3.26 0.582-6.573 0.311-9.855-0.131-1.449-0.349-2.893-0.608-4.322 1.223 2.831 2.366 5.705 3.571 8.548 1.152-0.851 1.836-2.218 2.010-3.623 0.22-1.532-0.012-3.090-0.379-4.581-0.317-1.242-0.751-2.454-1.289-3.618zM0.341 3.904c-0.081 2.854-0.176 5.707-0.273 8.561 1.37-1.453 2.734-2.913 4.106-4.364 0.126-0.091 0.314-0.052 0.461-0.031 0.421 0.303 0.826 0.63 1.24 0.942-2.024 2.156-3.119 5.114-3.12 8.059 0.011 2.32 0.686 4.641 1.981 6.571 1.068 1.619 2.56 2.959 4.296 3.825 1.458 0.734 3.088 1.123 4.721 1.121 0.004-1.521 0.001-3.042 0.002-4.562-2.269 0.013-4.447-1.297-5.598-3.235-0.868-1.426-1.22-3.164-0.959-4.814 0.236-1.613 1.037-3.147 2.262-4.229 0.702 0.517 1.38 1.065 2.087 1.576-0.004-2.084-0.003-4.167-0.001-6.249-1.243-1.055-2.486-2.112-3.728-3.169-2.493-0.009-4.985-0.003-7.478-0.003z"></path>
</svg>
