<!-- Generated by IcoMoon.io -->
<svg version="1.1" xmlns="http://www.w3.org/2000/svg" width="30" height="32" viewBox="0 0 30 32">
<title>ddr</title>
<path fill="#444" d="M4.058 3.553c0.32-0.423 0.675-0.822 0.987-1.253 0.137 0.986 0.003 2.008 0.315 2.964 0.008 0.303 0.308 0.458 0.568 0.514 1.266 0.43 2.468 1.049 3.75 1.43-0.332 0.768-0.798 1.469-1.203 2.2-0.974 1.733-1.97 3.453-2.94 5.188-0.203 0.327-0.34 0.752-0.735 0.891-1.582 0.778-3.148 1.593-4.737 2.355 0.012-0.303-0.008-0.619 0.124-0.899 0.179-0.391 0.1-0.842 0.272-1.234 0.173-0.392 0.081-0.846 0.255-1.237 0.26-0.563 0.005-1.307 0.544-1.742 1.43-1.255 2.82-2.552 4.18-3.883-0.352-0.751-0.792-1.459-1.177-2.196-0.376-0.475-0.26-1.105-0.241-1.664 0.028-0.478-0.039-0.96 0.039-1.434zM24.42 2.365c-0.065 0.795-0.079 1.594-0.139 2.391-0.071 0.368-0.143 0.829-0.547 0.969-1.33 0.446-2.593 1.078-3.931 1.494 1.487 2.729 3.063 5.411 4.59 8.119 1.672 0.852 3.345 1.717 5.044 2.509-0.025-0.327-0.015-0.668-0.153-0.973-0.205-0.418-0.075-0.915-0.272-1.334-0.207-0.414-0.081-0.907-0.284-1.322-0.153-0.359-0.108-0.76-0.196-1.134-0.824-0.919-1.797-1.686-2.689-2.536-0.635-0.532-1.189-1.153-1.814-1.697 0.459-0.854 0.948-1.693 1.394-2.552 0.097-0.912 0.053-1.844-0.015-2.757-0.263-0.439-0.634-0.807-0.987-1.177zM14.37 5.841c-1.394 2.401-2.879 4.755-4.229 7.18 1.378-0.718 2.723-1.506 4.073-2.279 0.283-0.196 0.671-0.295 0.989-0.121 0.951 0.58 1.932 1.113 2.895 1.673 0.432 0.263 0.871 0.522 1.347 0.695-1.533-2.6-3.071-5.199-4.572-7.818-0.183 0.212-0.373 0.419-0.503 0.67zM13.553 14.873c-1.385 0.748-2.795 1.447-4.181 2.192 0.222 0.704 0.578 1.358 0.843 2.048 1.458 3.429 2.919 6.86 4.376 10.29 0.075 0.063 0.224 0.191 0.299 0.253 0.387-1.23 0.971-2.391 1.437-3.594 0.918-2.233 1.85-4.46 2.77-6.693 0.339-0.758 0.591-1.555 0.997-2.283-1.704-1.001-3.491-1.856-5.232-2.788-0.486 0.040-0.866 0.399-1.307 0.575zM23.351 18.663c-0.35 0.915-0.826 1.774-1.214 2.672-1.109 2.443-2.241 4.873-3.359 7.311-0.129 0.289-0.305 0.567-0.309 0.895 0.048-0.019 0.147-0.057 0.196-0.076 0.86-0.927 1.917-1.638 2.808-2.531 0.666-0.627 1.417-1.157 2.064-1.804 0.67-0.67 1.462-1.202 2.134-1.869 0.743-0.748 1.625-1.343 2.371-2.090 0.035-0.084 0.104-0.252 0.139-0.336-1.11-0.555-2.188-1.171-3.284-1.75-0.426-0.24-0.895-0.414-1.265-0.74-0.093 0.105-0.191 0.208-0.28 0.319zM5.451 18.617c-0.612 0.329-1.211 0.688-1.834 0.999-0.814 0.41-1.578 0.931-2.443 1.231 0.623 0.791 1.513 1.302 2.216 2.014 0.727 0.747 1.604 1.326 2.336 2.068 0.426 0.422 0.901 0.79 1.358 1.175 0.62 0.49 1.138 1.095 1.769 1.573 0.812 0.638 1.51 1.406 2.34 2.021-1.098-2.436-2.228-4.86-3.347-7.288-0.54-1.293-1.239-2.52-1.71-3.839-0.229-0.057-0.468-0.065-0.684 0.045z"></path>
</svg>
