<!-- Generated by IcoMoon.io -->
<svg version="1.1" xmlns="http://www.w3.org/2000/svg" width="32" height="32" viewBox="0 0 32 32">
<title>dds</title>
<path fill="#444" d="M0.001 16.736c0 0 2.793 4.369 3.636 4.66 0.308 0.106 2.015-1.506 4.132-3.688l1.875 2.373-3.654 3.639c0 0 2.916 3.092 3.58 2.519 3.253-2.807 6.215-5.732 8.759-8.548l2.485 2.518c-3.716 4.5-8.241 9.138-10.818 9.32-4.775 0.339-9.995-7.186-9.995-7.186v-5.608zM16.236 7.893l-0.011 0.007c-0.277 0.542-0.653 0.982-0.993 1.413-1.16 1.472-2.396 2.883-3.645 4.28l2.108 2.473 2.285-2.299 9.961 9.93c0 0-2.916 3.092-3.579 2.519-0.969-0.836-1.923-1.696-2.852-2.566l-2.685 2.641c1.98 1.845 3.807 3.123 5.111 3.216 4.775 0.339 10.064-7.097 10.064-7.097v-5.672c0 0-2.861 4.345-3.705 4.636s-11.886-12.493-12.027-13.39c-0.005-0.029-0.022-0.065-0.031-0.089zM10.036 0.76c-0.608 0.033-1.21 0.401-1.71 0.715-1.501 0.943-2.771 2.276-3.568 3.863-0.625 1.286-0.928 2.428-0.516 4.254 0.113 0.5 0.319 1.084 0.536 1.595 0.543 1.281 3.894 6.1 7.875 10.704l2.482-2.589c-4.001-4.217-6.944-7.959-7.828-9.896-1.365-2.993 2.942-7.447 2.942-8.496-0.011-0.117-0.108-0.147-0.213-0.15zM22.060 0.738c-0.162 0.003-0.342 0.006-0.377 0.197 0 0.594 1.741 1.909 2.617 3.903 0.645 1.467 0.906 3.142 0.393 4.381-0.423 1.019-1.258 2.361-2.702 4.188l2.219 2.437c1.58-2.028 2.263-2.993 2.64-4.018 0.856-2.324 0.842-3.096 0.678-4.714-0.223-2.192-1.397-4.182-3.207-5.435-0.654-0.453-1.399-0.839-2.197-0.938l-0.063-0z"></path>
</svg>
