<!-- Generated by IcoMoon.io -->
<svg version="1.1" xmlns="http://www.w3.org/2000/svg" width="32" height="32" viewBox="0 0 32 32">
<title>ddt</title>
<path fill="#444" d="M4.386 11.096c2.223-3.174 5.417-6.015 9.335-6.717-0.304 0.443-0.733 0.939-0.606 1.516 0.133 0.476 0.68 0.653 1.125 0.547 1.496-0.224 3.084-0.269 4.515 0.294 1.059 0.423 1.929 1.233 2.514 2.202-0.739 0.361-1.447 0.937-1.659 1.768-0.255 0.959 0.276 1.97 1.072 2.502 0.825 0.594 1.874 0.68 2.857 0.676-1.043-0.347-1.982-0.99-2.635-1.878 2.268-1.884 3.813-4.621 4.208-7.545 2.576 1.347 4.635 3.627 5.796 6.284 1.284 2.919 1.439 6.311 0.447 9.337-1.023 3.161-3.298 5.896-6.229 7.464-0.422-2.925-1.947-5.664-4.221-7.552 0.651-0.892 1.594-1.535 2.639-1.878-1.031-0.012-2.139 0.098-2.978 0.757-0.771 0.569-1.245 1.62-0.914 2.561 0.251 0.761 0.92 1.28 1.612 1.627-0.649 1.1-1.688 1.976-2.917 2.349-1.4 0.427-2.89 0.331-4.321 0.129-0.488-0.084-0.998 0.345-0.939 0.849 0.063 0.474 0.365 0.861 0.639 1.233-3.921-0.7-7.119-3.541-9.339-6.715 2.137 1.663 4.853 2.743 7.592 2.461 1.27-0.141 2.684-0.565 3.374-1.735 0.657-0.943 0.657-2.437-0.347-3.141-0.788-0.616-2.323-0.48-2.59 0.616-0.018 0.922 1.18 1.308 1.886 0.859-0.39 1.527-2.145 2.059-3.547 1.929-1.847-0.208-3.51-1.129-5.106-2.019-1.976-1.151-3.849-2.472-5.649-3.878 2.282-1.772 4.664-3.441 7.25-4.739 1.474-0.704 3.098-1.412 4.768-1.088 1.029 0.143 2.023 0.814 2.286 1.861-0.731-0.496-2.061 0.014-1.855 0.992 0.447 1.082 2.049 1.067 2.784 0.292 0.829-0.806 0.7-2.174 0.055-3.053-0.71-1.104-2.082-1.494-3.317-1.635-2.737-0.275-5.449 0.802-7.584 2.466zM25.973 6.428c0.167 0.404 0.312 0.822 0.539 1.202 1.206 2.051 2.053 4.337 2.323 6.711 0.427 3.439-0.529 6.945-2.255 9.913-0.253 0.406-0.42 0.857-0.594 1.302 2.888-2.427 4.672-6.178 4.529-9.968-0.118-3.519-1.863-6.899-4.541-9.16z"></path>
</svg>
