<!-- Generated by IcoMoon.io -->
<svg version="1.1" xmlns="http://www.w3.org/2000/svg" width="29" height="32" viewBox="0 0 29 32">
<title>ddu</title>
<path fill="#444" d="M12.212 1.79c2.062-0.016 4.125-0.027 6.188-0.040 0.058 0.882 0.116 1.764 0.174 2.647 0.393 0.133 0.771 0.307 1.14 0.496 1.343-0.365 2.681-0.754 4.021-1.128 1.48-0.417 2.959-0.835 4.44-1.252-0.794 2.82-1.591 5.638-2.384 8.458 0.194 0.368 0.365 0.749 0.5 1.142 0.882 0.058 1.765 0.117 2.647 0.175-0.013 2.062-0.025 4.125-0.040 6.187-0.873 0.061-1.747 0.123-2.62 0.185-0.205 0.855-0.531 1.683-0.979 2.441 0.567 0.663 1.137 1.324 1.704 1.988-1.243 1.2-2.486 2.398-3.728 3.599 0.431 0.32 0.959 0.5 1.494 0.527 0.625 0.034 1.253-0.11 1.817-0.375 0.238-0.114 0.469-0.251 0.662-0.433-0.356 1.041-1.066 1.963-1.993 2.559-1.070 0.685-2.411 0.917-3.653 0.662-1.388-0.276-2.631-1.113-3.489-2.228-0.066 0.659-0.133 1.317-0.199 1.976-1.986-0.051-3.973-0.104-5.959-0.156-0.063-0.876-0.125-1.751-0.188-2.626-0.685-0.201-1.358-0.449-2.002-0.76-1.64 1.639-3.279 3.279-4.919 4.918 0.001-1.636-0.004-3.272-0.003-4.908-1.636 0-3.272-0.004-4.908-0.003 1.639-1.64 3.279-3.279 4.918-4.919-0.312-0.643-0.559-1.317-0.76-2.002-0.875-0.063-1.751-0.125-2.626-0.188-0.052-1.986-0.105-3.973-0.156-5.959 0.658-0.066 1.316-0.133 1.974-0.199-0.941-0.727-1.683-1.724-2.054-2.858-0.318-0.954-0.356-2.003-0.082-2.973 0.264-0.973 0.85-1.853 1.643-2.476 0.448-0.353 0.952-0.64 1.494-0.82-0.237 0.254-0.4 0.567-0.53 0.886-0.25 0.63-0.357 1.33-0.226 1.999 0.075 0.389 0.237 0.76 0.471 1.080 1.199-1.243 2.398-2.485 3.597-3.728 0.664 0.567 1.325 1.137 1.988 1.705 0.758-0.448 1.585-0.775 2.441-0.979 0.063-0.873 0.124-1.747 0.185-2.62zM12.968 2.595c-0.060 0.832-0.117 1.664-0.176 2.495-1.172 0.176-2.303 0.629-3.274 1.307-0.622-0.533-1.244-1.068-1.866-1.601-1.030 1.068-2.061 2.135-3.091 3.203 0.416 0.347 0.917 0.595 1.452 0.689 0.794 0.147 1.602-0.012 2.377-0.191 0.992-0.232 1.99-0.491 3.016-0.496 0.916-0.012 1.847 0.199 2.632 0.682 0.6 0.36 1.103 0.863 1.527 1.416 0.444 0.585 0.778 1.262 0.915 1.987 1.665-1.664 3.328-3.329 4.994-4.992-0.527-0.452-1.086-0.869-1.681-1.228-0.62-0.371-1.284-0.683-1.989-0.849-0.054-0.818-0.108-1.636-0.162-2.454-1.558 0.013-3.115 0.019-4.673 0.031zM18.594 14.212c0.999 0.185 1.894 0.743 2.613 1.446 0.523 0.5 0.94 1.115 1.187 1.795 0.263 0.714 0.335 1.486 0.284 2.241-0.059 0.912-0.293 1.798-0.498 2.685-0.164 0.717-0.303 1.459-0.192 2.195 0.081 0.571 0.334 1.11 0.701 1.552 1.068-1.030 2.135-2.060 3.203-3.090-0.534-0.622-1.068-1.244-1.601-1.866 0.678-0.971 1.131-2.102 1.307-3.274 0.832-0.060 1.664-0.117 2.496-0.177 0.012-1.558 0.019-3.115 0.031-4.673-0.818-0.055-1.636-0.108-2.454-0.162-0.342-1.386-1.167-2.594-2.078-3.67-1.667 1.665-3.332 3.332-4.998 4.998zM7.233 12.838c-0.401 0.226-0.691 0.632-0.78 1.082-0.667-0.111-1.321-0.307-1.932-0.598-0.061-0.026-0.12-0.074-0.19-0.055-0.73 0.081-1.46 0.16-2.189 0.241 0.039 1.489 0.079 2.978 0.118 4.468 0.822 0.059 1.645 0.118 2.467 0.176 0.257 0.998 0.593 1.986 1.108 2.882 0.514 0.052 1.028 0.104 1.542 0.156 0.866-0.865 1.731-1.731 2.598-2.595-0.611-0.898-0.949-1.966-1.035-3.045 0.523-0.356 0.795-1.037 0.654-1.655-0.101-0.491-0.449-0.921-0.906-1.125-0.459-0.211-1.018-0.185-1.455 0.068zM14.698 12.683c-0.585 0.087-1.14 0.36-1.566 0.769-0.463 0.438-0.774 1.032-0.868 1.662-0.098 0.633 0.019 1.298 0.332 1.857 0.3 0.54 0.777 0.98 1.34 1.234 0.576 0.263 1.24 0.328 1.857 0.185 0.576-0.131 1.108-0.445 1.503-0.884 0.742-0.801 0.956-2.035 0.537-3.042-0.255-0.634-0.744-1.17-1.35-1.485-0.543-0.285-1.178-0.388-1.784-0.296zM9.497 23.309c0.052 0.515 0.103 1.030 0.156 1.545 0.897 0.514 1.884 0.851 2.882 1.107 0.058 0.822 0.117 1.645 0.176 2.467 1.489 0.039 2.978 0.079 4.468 0.118 0.078-0.706 0.154-1.413 0.233-2.119 0-0.058 0.029-0.122-0.004-0.175-0.31-0.634-0.519-1.315-0.635-2.010 0.634-0.119 1.163-0.653 1.267-1.291 0.094-0.505-0.074-1.051-0.44-1.412-0.348-0.357-0.871-0.531-1.364-0.457-0.438 0.058-0.841 0.313-1.093 0.674-1.082-0.087-2.153-0.426-3.053-1.040-0.866 0.864-1.73 1.729-2.595 2.594z"></path>
</svg>
