<!-- Generated by IcoMoon.io -->
<svg version="1.1" xmlns="http://www.w3.org/2000/svg" width="32" height="32" viewBox="0 0 32 32">
<path fill="#444" d="M7.742 7.111c0.685 0.004 1.37 0.001 2.055 0.001-2.202 5.924-4.409 11.846-6.608 17.77-0.687 0.004-1.373 0.001-2.059 0.001 2.204-5.924 4.405-11.85 6.613-17.773zM16.017 7.117c1.655-0.009 3.311-0.002 4.966-0.004-0.568 1.532-1.14 3.062-1.706 4.595-1.655 0-3.309 0-4.965 0 0.567-1.531 1.142-3.059 1.705-4.591zM25.91 10.319c1.654 0.001 3.308 0 4.963 0-0.567 1.533-1.139 3.064-1.708 4.596-1.654-0-3.309 0-4.964-0 0.569-1.532 1.139-3.064 1.709-4.596zM8.827 11.968c1.703-0.002 3.406-0 5.109-0.001-0.602 1.619-1.204 3.238-1.806 4.857-1.703 0.001-3.406 0-5.109 0 0.602-1.619 1.205-3.237 1.807-4.856zM17.041 20.031c0.598-1.619 1.197-3.238 1.796-4.857 1.663-0.001 3.325-0.001 4.988 0-0.6 1.62-1.203 3.238-1.805 4.857-1.659-0-3.319 0-4.978 0zM12.309 17.086c1.655-0.003 3.311-0 4.966-0.001-0.57 1.532-1.14 3.063-1.709 4.596-1.655 0-3.311 0.001-4.967-0.001 0.571-1.531 1.142-3.062 1.71-4.594zM22.201 20.289c1.653-0.001 3.307 0.002 4.96-0.002-0.56 1.535-1.138 3.064-1.705 4.597-1.655-0.002-3.31 0.005-4.965-0.004 0.574-1.529 1.139-3.061 1.71-4.591z"></path>
</svg>
