<!-- Generated by IcoMoon.io -->
<svg version="1.1" xmlns="http://www.w3.org/2000/svg" width="32" height="32" viewBox="0 0 32 32">
<path fill="#444" d="M7.187 6.329c4.979 0.001 9.957 0 14.935 0-0.396 1.066-0.794 2.132-1.189 3.199 3.689 0.002 7.378 0 11.067 0.001v0.041c-1.151 3.073-2.288 6.15-3.434 9.225-0.851 2.292-1.708 4.582-2.554 6.876-3.967 0.003-7.933 0-11.899 0.001 0.396-1.066 0.787-2.134 1.181-3.2-3.457 0.003-6.913-0.005-10.37 0.004-0.287 0.793-0.586 1.581-0.877 2.373-0.108 0.272-0.193 0.554-0.314 0.82-1.244 0.007-2.489 0.001-3.733 0.003v-0.036c0.477-1.259 0.939-2.523 1.411-3.783 1.925-5.174 3.847-10.35 5.776-15.523zM7.742 7.111c-2.207 5.923-4.408 11.849-6.613 17.773 0.687-0 1.373 0.003 2.059-0.001 2.2-5.924 4.406-11.846 6.608-17.77-0.685-0-1.37 0.002-2.055-0.001zM16.017 7.117c-0.563 1.532-1.137 3.061-1.705 4.591 1.655 0 3.31 0 4.965 0 0.566-1.532 1.138-3.063 1.706-4.595-1.655 0.001-3.311-0.005-4.966 0.004zM25.91 10.319c-0.57 1.532-1.14 3.064-1.709 4.596 1.655 0.001 3.309 0 4.964 0 0.569-1.532 1.141-3.063 1.708-4.596-1.654-0-3.308 0-4.963-0zM8.827 11.968c-0.601 1.619-1.205 3.237-1.807 4.856 1.703 0 3.406 0.001 5.109 0 0.602-1.619 1.204-3.238 1.806-4.857-1.703 0-3.406-0.001-5.109 0.001zM17.041 20.031c1.659 0 3.319-0 4.978 0 0.602-1.619 1.205-3.237 1.805-4.857-1.663-0.001-3.325-0.001-4.988 0-0.598 1.619-1.197 3.238-1.796 4.857zM12.309 17.086c-0.568 1.532-1.139 3.063-1.71 4.594 1.655 0.002 3.311 0.001 4.967 0.001 0.569-1.532 1.139-3.064 1.709-4.596-1.655 0.001-3.31-0.001-4.966 0.001zM22.201 20.289c-0.571 1.53-1.136 3.062-1.71 4.591 1.655 0.009 3.31 0.002 4.965 0.004 0.567-1.533 1.145-3.062 1.705-4.597-1.653 0.004-3.307 0-4.96 0.002z"></path>
</svg>
