<!-- Generated by IcoMoon.io -->
<svg version="1.1" xmlns="http://www.w3.org/2000/svg" width="32" height="32" viewBox="0 0 32 32">
<title>dgm</title>
<path fill="#444" d="M16.010 4.27l2.251 3.975h2.423l-3.183 4.782 5.657 5.916c-1.072 1.723-1.832 5.34-0.859 7.934h-12.69c1.020-2.357 0.271-6.157-0.786-7.928l5.672-5.921-3.157-4.782h2.277l2.396-3.975zM20.031 13.317c1.365 0.406 7.819 5.248 7.256 13.559h4.668l-9.367-17.472-2.557 3.913zM9.412 9.404l-9.367 17.472h4.668c-0.563-8.312 5.891-13.154 7.256-13.56l-2.556-3.913zM19.343 20.405c0-1.358-0.808-2.529-1.969-3.055l-0.024-4.338-1.361-8.136-1.372 8.167-0.039 4.319c-1.147 0.533-1.943 1.696-1.943 3.044 0 1.852 1.501 3.354 3.354 3.354s3.354-1.501 3.354-3.353z"></path>
</svg>
