<!-- Generated by IcoMoon.io -->
<svg version="1.1" xmlns="http://www.w3.org/2000/svg" width="30" height="32" viewBox="0 0 30 32">
<title>dimir</title>
<path fill="#444" d="M11 1.2c1.274 0.31 2.369 1.268 2.872 2.477-0.879 0.2-1.687 0.636-2.373 1.215 0.239-0.968 0.206-2.006-0.154-2.94-0.095-0.259-0.231-0.501-0.344-0.752zM15.752 3.676c0.879 0.201 1.688 0.636 2.375 1.215-0.144-0.631-0.207-1.288-0.106-1.93 0.081-0.622 0.318-1.207 0.604-1.761-1.275 0.31-2.368 1.269-2.873 2.476zM0.028 12.132c0.42-1.54 1.13-3.033 2.251-4.188 0.724-0.764 1.726-1.27 2.779-1.354 0.968-0.086 1.964 0.202 2.73 0.801 0.544 0.407 0.944 0.971 1.247 1.573 0.309-1.060 0.783-2.079 1.447-2.964 0.17-0.228 0.365-0.438 0.539-0.662-1.174 0.142-2.392-0.088-3.42-0.677-1.159-0.652-2.057-1.736-2.501-2.988-2.942 2.665-4.811 6.494-5.072 10.459zM24.525 1.673c-0.434 1.224-1.302 2.288-2.425 2.943-1.043 0.621-2.293 0.868-3.496 0.721 0.176 0.225 0.369 0.434 0.54 0.663 0.664 0.885 1.137 1.904 1.447 2.963 0.274-0.537 0.613-1.049 1.080-1.438 0.739-0.645 1.729-0.99 2.71-0.948 1.090 0.037 2.145 0.528 2.906 1.304 1.155 1.162 1.883 2.683 2.311 4.249-0.261-3.964-2.129-7.793-5.072-10.459zM14.079 10.527c1.041-0.131 2.14 0.004 3.074 0.501 0.549 0.297 1.062 0.755 1.235 1.374 0.152 0.522-0.022 1.093-0.371 1.496-0.503 0.59-1.242 0.925-1.985 1.097-1.134 0.251-2.363 0.164-3.417-0.34-0.587-0.287-1.147-0.74-1.357-1.38-0.187-0.544-0.010-1.157 0.364-1.579 0.617-0.705 1.55-1.046 2.458-1.17zM14.444 5.296c-0.968 0.094-1.858 0.598-2.532 1.284-1.117 1.139-1.727 2.698-1.926 4.264-0.224 1.831 0.077 3.759 1.015 5.364 0.582 0.99 1.444 1.863 2.537 2.266 0.944 0.356 2.030 0.289 2.929-0.164 1.109-0.549 1.927-1.557 2.451-2.659 0.811-1.722 0.981-3.715 0.591-5.569-0.314-1.444-1.002-2.854-2.143-3.821-0.8-0.684-1.866-1.082-2.923-0.964zM20.795 9.761c0.293 1.495 0.322 3.048 0.022 4.544 0.245-0.315 0.53-0.628 0.919-0.761 0.458-0.175 0.978-0.051 1.373 0.218 0.698 0.475 1.139 1.232 1.475 1.989 1.004 2.334 1.076 4.994 0.479 7.442 0.964-1.807 1.588-3.79 1.919-5.808 0.249-1.597 0.333-3.232 0.129-4.839-0.902 0.259-1.86 0.077-2.719-0.25-1.38-0.534-2.66-1.38-3.597-2.535zM5.408 12.228c-0.907 0.369-1.929 0.595-2.893 0.318-0.248 2.022-0.074 4.083 0.367 6.068 0.366 1.587 0.909 3.143 1.681 4.578-0.596-2.448-0.525-5.108 0.479-7.441 0.319-0.719 0.732-1.431 1.368-1.914 0.4-0.306 0.942-0.476 1.434-0.309 0.41 0.125 0.711 0.448 0.965 0.776-0.3-1.486-0.269-3.027 0.013-4.512-0.917 1.075-2.105 1.907-3.414 2.435zM14.563 11.612c-0.483 0.094-0.881 0.51-0.952 0.998-0.086 0.486 0.16 1.006 0.589 1.248 0.432 0.258 1.023 0.207 1.402-0.125 0.38-0.315 0.529-0.87 0.36-1.333-0.185-0.563-0.82-0.921-1.399-0.787zM8.264 16.419c-0.521 0.849-1.28 1.576-2.221 1.935 0 0.139 0.012 0.278 0.037 0.415 0.273 1.642 0.763 3.245 1.411 4.777 0.85 1.997 1.991 3.876 3.419 5.514 0.546 0.613 1.106 1.221 1.745 1.74-0.197-0.331-0.436-0.634-0.636-0.962-1.007-1.587-1.822-3.31-2.285-5.136-0.385-1.54-0.503-3.179-0.109-4.73 0.117-0.414 0.275-0.872 0.658-1.113 0.202-0.131 0.451-0.090 0.676-0.064-0.99-1.076-1.63-2.43-2.009-3.832-0.185 0.504-0.396 1.001-0.684 1.456zM18.668 18.795c0.198-0.019 0.408-0.063 0.596 0.024 0.261 0.115 0.43 0.363 0.547 0.612 0.185 0.405 0.272 0.846 0.34 1.285 0.217 1.445 0.040 2.925-0.348 4.326-0.351 1.258-0.871 2.465-1.495 3.611-0.396 0.746-0.873 1.444-1.337 2.148 0.314-0.236 0.584-0.523 0.865-0.796 1.525-1.526 2.778-3.316 3.739-5.246 0.89-1.793 1.55-3.704 1.915-5.673 0.042-0.242 0.096-0.484 0.092-0.73-0.338-0.137-0.663-0.307-0.955-0.527-0.949-0.704-1.565-1.764-1.951-2.864-0.38 1.402-1.019 2.756-2.009 3.832z"></path>
</svg>
