<!-- Generated by IcoMoon.io -->
<svg version="1.1" xmlns="http://www.w3.org/2000/svg" width="29" height="32" viewBox="0 0 29 32">
<title>dis</title>
<path fill="#444" d="M11.794 11.646c0.145-1.44 1.365-2.569 2.843-2.569 0.136 0 0.274 0.012 0.407 0.030l0.427-1.755-0.387-1.588c-0.147-0.012-0.297-0.017-0.447-0.017-1.579 0-3.016 0.591-4.109 1.564l-2.846-1.674 1.042-0.834c0 0-3.615-2.539-8.709-1.737 0 0 0.713 4.074 5.725 6.813l0.222-1.319 2.741 1.613c-0.165 0.557-0.254 1.149-0.254 1.758 0 1.31 0.407 2.522 1.099 3.52l1.458-3.52 0.788-0.286zM20.613 4.803l1.042 0.834-2.886 1.694c-0.384-0.346-0.817-0.646-1.287-0.889l-0.228 1.804-0.961 1.364c0.725 0.516 1.2 1.365 1.2 2.32 0 0.499-0.13 0.963-0.355 1.373l1.007 0.828h2.274c0.26-0.684 0.404-1.425 0.404-2.201 0-0.598-0.086-1.178-0.248-1.726l2.796-1.645 0.222 1.319c5.015-2.739 5.725-6.813 5.725-6.813-5.093-0.802-8.706 1.737-8.706 1.737zM17.136 15.741l1.428 0.97c-0.655 0.539-1.422 0.946-2.262 1.18v3.5l1.249-0.476c0.177 5.711-2.975 8.389-2.975 8.389-3.273-3.985-2.914-8.389-2.914-8.389l1.249 0.476v-3.517c-0.834-0.239-1.593-0.652-2.242-1.195l0.814-0.344 0.984-2.548c0.522 0.612 1.301 1.001 2.17 1.001 0.626 0 1.209-0.205 1.682-0.551l0.817 1.503z"></path>
</svg>
