<!-- Generated by IcoMoon.io -->
<svg version="1.1" xmlns="http://www.w3.org/2000/svg" width="32" height="32" viewBox="0 0 32 32">
<title>dka</title>
<path fill="#444" d="M16 6.503l1.804 6.314 3.873-0.637c-0.743-4.404-3.661-7.799-3.661-7.799 6.314 1.114 8.117 5.73 8.117 5.73s3.13-0.743 5.836 0.371c-5.040 3.608-6.314 7.799-11.248 14.802l0.955-9.391-3.077 2.387-2.6 9.338-2.653-9.232-3.024-2.494 0.955 9.391c-0.329-0.506-0.646-0.997-0.952-1.473-4.841-7.525-7.052-11.483-10.295-13.329 1.963-0.849 5.836-0.371 5.836-0.371s1.592-4.351 8.117-5.73c-2.441 2.387-3.661 7.799-3.661 7.799l3.873 0.637z"></path>
</svg>
