<!-- Generated by IcoMoon.io -->
<svg version="1.1" xmlns="http://www.w3.org/2000/svg" width="23" height="32" viewBox="0 0 23 32">
<title>dkm</title>
<path fill="#444" d="M0.778 2.744l-0.215 0.021 2.605 7.443c0 0 0.967-4.208 1.024-4.452 0.7 0 1.776 0.009 2.963 0.118 0.014 0.25 0.548 19.732 0.548 19.732l0.883-0.086c0 0 0.393-6.084 0.413-6.374h2.802l0.422-1.589h-3.23v-1.603h3.147l-3.147-1.524v-8.298c2.539 0.464 4.584 1.371 6.072 2.708 2.022 1.816 3.050 4.438 3.050 7.796 0 2.837-0.841 5.107-2.499 6.735-1.83 1.801-4.346 2.507-6.135 2.782-1.019 0.155-1.911 0.189-2.484 0.195 0 0-0.617-0.020-0.849-0.029v-18.155c0 0-1.007 6.305-1.056 6.549-2.030 0.029-2.266 0.714-2.286 0.792l-0.075 0.347h2.195l-0.247 1.704h-1.75l-0.528 1.589h2.042c-0.068 0.367-1.265 7.008-1.308 7.258-1.434 0.054-2.395-0.057-2.406-0.060l-0.155-0.017-0.032 0.152-0.536 2.688 0.181 0.023c0.032 0.003 3.135 0.344 6.967-0.006 3.545-0.324 8.459-1.328 11.738-4.257 2.427-2.166 3.661-5.097 3.661-8.709 0-3.68-1.245-6.681-3.7-8.918-3.211-2.926-7.954-4.010-11.371-4.404-3.692-0.421-6.675-0.155-6.704-0.152z"></path>
</svg>
