<!-- Generated by IcoMoon.io -->
<svg version="1.1" xmlns="http://www.w3.org/2000/svg" width="25" height="32" viewBox="0 0 25 32">
<title>dmc-white</title>
<path fill="#444" d="M11.16 9.434c0.291-1.134 0.876-2.165 1.485-3.155 0.555 0.897 1.079 1.829 1.404 2.837 0.193 0.601 0.219 1.305-0.156 1.844-0.416 0.64-1.339 0.755-1.993 0.447-0.693-0.367-0.92-1.251-0.74-1.973zM9.054 8.823c-0.932 0.8-1.467 1.957-1.765 3.128-0.361-0.245-0.679-0.546-0.952-0.885-0.291 0.421-0.554 0.868-0.699 1.362-0.365 1.089-0.191 2.302 0.321 3.313 1.847-1.196 4.017-1.866 6.213-1.969-0.005-0.413-0.004-0.825-0.005-1.236-1.138-0.188-2.028-1.287-1.999-2.435-0.018-0.778 0.284-1.516 0.61-2.208-0.632 0.185-1.233 0.49-1.724 0.931zM14.533 7.896c0.352 0.814 0.717 1.697 0.562 2.601-0.145 1.002-0.969 1.855-1.962 2.049 0.001 0.408 0.002 0.817-0.002 1.225 2.197 0.103 4.363 0.782 6.213 1.972 0.754-1.477 0.649-3.36-0.388-4.676-0.276 0.337-0.585 0.651-0.965 0.872-0.384-1.802-1.607-3.552-3.457-4.043zM7.528 15.909c2.249 1.431 3.76 3.797 4.626 6.277 0.034-2.484 0.005-4.969 0.016-7.453-1.6 0.103-3.222 0.4-4.642 1.176zM13.138 22.087c0.942-2.416 2.381-4.765 4.618-6.175-1.406-0.789-3.031-1.062-4.619-1.181-0.004 2.452-0.006 4.904 0.001 7.356z"></path>
</svg>
