<!-- Generated by IcoMoon.io -->
<svg version="1.1" xmlns="http://www.w3.org/2000/svg" width="25" height="32" viewBox="0 0 25 32">
<title>dmc-border</title>
<path fill="#444" d="M15.5 1.335l4.353 2.49c-0.023 0.759-0.014 0.309-0.015 1.379-0 0.154-0 0.308-0 0.462 0.77 0.33 1.421 0.712 2.19 1.042 0.036 0.015 0.221 0.119 0.257 0.134 0.202 0.124 0.36 0.226 0.56 0.353l0.009 0.005 0.010 0.006c0.089 0.059 0.267 0.176 0.356 0.235l0.009 0.006 0.010 0.006c0.087 0.059 0.262 0.176 0.35 0.234l0.011 0.007 0.010 0.006c0.611 0.4 1.182 0.861 1.723 1.351 0.135 0.618-0.017 1.176-0.062 1.847-0.030 0.448-0.108 0.922-0.13 1.37-0.006 0.066-0.016 0.201-0.022 0.267-0.041 0.382-0.066 0.751-0.094 1.134-0.007 0.079-0.016 0.245-0.022 0.324-0.041 0.367-0.067 0.694-0.078 1.062-0.005 0.069-0.036 0.252-0.041 0.321-0.102 0.422-0.478 0.676-0.739 0.996-0.831 0.969-1.286 1.341-1.68 1.768-0.211 0.179-0.148 0.472-0.163 0.714 0.027 1.304-0.023 2.608 0.025 3.913l0.102 0.082c0.184 0.137 0.363 0.278 0.538 0.427-1.495 1.659-3.289 3.023-5.139 4.26l-0.015 0.009-0.014 0.011c-1.645 1.155-3.389 2.169-5.165 3.108-1.151-0.658-2.329-1.271-3.432-2.006l-0.012-0.009-0.012-0.007c-2.068-1.233-3.999-2.691-5.805-4.281-0.339-0.335-0.706-0.649-0.996-1.026 0.177-0.216 0.385-0.404 0.587-0.596 0-1.472 0-2.943 0-4.415-0.837-0.846-1.702-1.671-2.462-2.59l-0.033-0.325c-0.067-0.543-0.083-0.668-0.094-0.73-0.028-0.39-0.063-0.78-0.103-1.167-0.006-0.081-0.018-0.241-0.025-0.323-0.027-0.387-0.062-0.772-0.103-1.158-0.006-0.065-0.016-0.197-0.021-0.264-0.019-0.525-0.060-1.048-0.102-1.571-0.025-0.393-0.012-0.787-0.005-1.181 1.589-1.429 3.452-2.544 5.411-3.384 0-0.594 0.002-1.186-0.004-1.78 1.433-0.854 2.89-1.667 4.337-2.496l0.041 0.028c0.108 0.069 0.21 0.148 0.313 0.225l-0.001 0.028c0 1.397 1.132 2.529 2.529 2.529s2.529-1.132 2.529-2.529l-0-0.010 0.024-0.020 0.307-0.273zM18.74 16.402v0c-1.353 0.718-2.497 1.805-3.312 3.101-0.813 1.292-1.365 2.728-1.849 4.169-0.549 1.718-0.537 3.534-0.501 5.316 1.482-0.793 2.942-1.633 4.345-2.56 0.489-0.36 1.037-0.695 1.358-1.224 0.097-0.547 0.011-1.112 0.047-1.666 0.878-0.514 1.504-1.356 2.289-1.993 0.006-1.095 0.046-2.195-0.016-3.287-0.666-0.754-1.531-1.3-2.362-1.856zM6.53 16.404c-0.809 0.565-1.65 1.105-2.329 1.831 0.009 1.105 0 2.208 0.005 3.313 0.522 0.505 1.066 0.986 1.582 1.499 0.193 0.2 0.421 0.358 0.666 0.489 0.014 0.489-0.014 0.978 0.009 1.467-0.010 0.183 0.126 0.321 0.236 0.45 0.499 0.548 1.127 0.954 1.748 1.35 1.223 0.771 2.479 1.491 3.749 2.182-0.001-0.834 0.002-1.669 0-2.502-0.041-1.772-0.643-3.464-1.335-5.076-0.861-2.065-2.288-3.991-4.331-5.001v0zM12.172 14.733v0c-1.6 0.103-3.222 0.4-4.642 1.176 2.249 1.431 3.76 3.797 4.626 6.277 0.034-2.484 0.005-4.969 0.016-7.453zM13.139 14.731h-0c-0.004 2.452-0.006 4.904 0.001 7.356 0.942-2.416 2.381-4.765 4.618-6.175-1.406-0.789-3.031-1.062-4.619-1.181v0zM16.113 3.113v0c-0.504 1.216-1.642 2.083-2.904 2.395 0.244 0.415 0.477 0.837 0.725 1.25 1.041 0.224 2.116 0.542 2.92 1.275 0.639 0.594 1.11 1.34 1.522 2.101 0.249-0.294 0.464-0.616 0.638-0.961 0.871 0.954 1.496 2.139 1.738 3.411 0.292 1.287 0.048 2.635-0.52 3.813 0.427 0.303 0.842 0.623 1.225 0.982 0.8-0.824 1.679-1.584 2.372-2.505 0.032-1.746 0.266-3.482 0.281-5.23-1.574-1.358-3.44-2.33-5.342-3.143 0.005-0.617-0.002-1.233 0.011-1.85-0.883-0.523-1.773-1.034-2.666-1.538v0zM9.179 3.111v0c-0.872 0.499-1.74 1.005-2.614 1.499-0.016 0.632 0.005 1.264-0.021 1.894-1.921 0.81-3.8 1.794-5.385 3.165 0.069 1.339 0.172 2.676 0.26 4.014 0.046 0.502-0.092 1.096 0.287 1.504 0.65 0.778 1.393 1.475 2.121 2.182 0.394-0.346 0.809-0.666 1.234-0.974-0.372-0.817-0.64-1.693-0.639-2.597 0.012-1.664 0.669-3.315 1.794-4.539 0.329 0.154 0.421 0.632 0.698 0.881 0.479-0.874 1.034-1.741 1.835-2.357 0.775-0.57 1.723-0.824 2.645-1.043 0.223-0.415 0.459-0.824 0.683-1.238-1.262-0.304-2.397-1.174-2.898-2.389v0zM14.535 7.896v0c0.352 0.814 0.717 1.697 0.562 2.601-0.145 1.002-0.969 1.855-1.962 2.049 0.001 0.408 0.002 0.817-0.002 1.225 2.197 0.103 4.363 0.782 6.213 1.972 0.754-1.477 0.649-3.36-0.388-4.676-0.276 0.337-0.585 0.651-0.965 0.872-0.384-1.802-1.607-3.552-3.457-4.043zM10.78 7.892v0c-0.632 0.185-1.233 0.49-1.724 0.931-0.932 0.8-1.467 1.957-1.765 3.128-0.361-0.245-0.679-0.546-0.952-0.885-0.291 0.421-0.554 0.868-0.699 1.362-0.365 1.089-0.191 2.302 0.321 3.313 1.847-1.196 4.017-1.866 6.213-1.969-0.005-0.413-0.004-0.825-0.005-1.236-1.138-0.188-2.028-1.287-1.999-2.435-0.018-0.778 0.284-1.516 0.61-2.208v-0zM12.647 6.279v0c-0.61 0.99-1.195 2.021-1.485 3.155-0.18 0.722 0.047 1.606 0.74 1.973 0.654 0.308 1.576 0.193 1.993-0.447 0.376-0.538 0.35-1.243 0.156-1.844-0.325-1.009-0.849-1.941-1.404-2.837v0z"></path>
</svg>
