<!-- Generated by IcoMoon.io -->
<svg version="1.1" xmlns="http://www.w3.org/2000/svg" width="25" height="32" viewBox="0 0 25 32">
<title>dmc-color</title>
<path fill="#444" d="M6.563 4.61c0.874-0.494 1.743-1 2.615-1.499 0.501 1.216 1.635 2.085 2.898 2.389-0.224 0.414-0.461 0.823-0.683 1.238-0.922 0.219-1.871 0.473-2.645 1.043-0.8 0.616-1.356 1.483-1.835 2.357-0.277-0.249-0.37-0.727-0.698-0.881-1.126 1.224-1.782 2.876-1.794 4.539-0.001 0.904 0.267 1.781 0.639 2.597-0.425 0.308-0.84 0.628-1.234 0.974-0.728-0.707-1.47-1.404-2.121-2.182-0.379-0.408-0.241-1.001-0.287-1.504-0.087-1.337-0.191-2.675-0.26-4.013 1.585-1.371 3.464-2.355 5.385-3.165 0.026-0.631 0.005-1.262 0.021-1.894zM16.111 3.113c-0.504 1.216-1.642 2.083-2.904 2.395 0.244 0.415 0.477 0.837 0.725 1.25 1.041 0.224 2.116 0.542 2.92 1.275 0.639 0.594 1.11 1.34 1.522 2.101 0.249-0.294 0.464-0.616 0.638-0.961 0.871 0.954 1.496 2.139 1.738 3.411 0.292 1.287 0.048 2.635-0.52 3.813 0.427 0.303 0.842 0.623 1.225 0.982 0.8-0.824 1.679-1.584 2.372-2.505 0.032-1.746 0.266-3.482 0.281-5.23-1.574-1.358-3.44-2.33-5.342-3.143 0.005-0.617-0.002-1.233 0.011-1.85-0.883-0.523-1.773-1.034-2.666-1.538zM4.199 18.236c0.009 1.105 0 2.208 0.005 3.313 0.522 0.505 1.066 0.986 1.582 1.499 0.193 0.2 0.421 0.358 0.666 0.489 0.014 0.489-0.014 0.978 0.009 1.467-0.010 0.183 0.126 0.321 0.236 0.45 0.499 0.548 1.127 0.954 1.748 1.35 1.223 0.771 2.479 1.491 3.749 2.182-0.001-0.834 0.002-1.669 0-2.502-0.041-1.772-0.643-3.464-1.335-5.076-0.861-2.065-2.288-3.991-4.331-5.001-0.809 0.565-1.65 1.105-2.329 1.831zM15.426 19.503c-0.813 1.292-1.365 2.728-1.849 4.169-0.549 1.718-0.537 3.534-0.501 5.316 1.482-0.793 2.942-1.633 4.345-2.56 0.489-0.36 1.037-0.695 1.358-1.224 0.097-0.547 0.011-1.112 0.047-1.666 0.878-0.514 1.504-1.356 2.289-1.993 0.006-1.095 0.046-2.195-0.016-3.287-0.666-0.754-1.531-1.3-2.362-1.856-1.353 0.718-2.497 1.805-3.312 3.101z"></path>
</svg>
