<!-- Generated by IcoMoon.io -->
<svg version="1.1" xmlns="http://www.w3.org/2000/svg" width="26" height="32" viewBox="0 0 26 32">
<title>dmc</title>
<path fill="#444" d="M6.131 3.028c0.992-0.56 1.976-1.134 2.965-1.7 0.568 1.378 1.855 2.364 3.286 2.709-0.254 0.469-0.522 0.933-0.775 1.403-1.046 0.249-2.121 0.536-3 1.183-0.908 0.698-1.538 1.681-2.081 2.673-0.314-0.282-0.419-0.824-0.792-0.998-1.276 1.388-2.021 3.261-2.035 5.148-0.001 1.025 0.303 2.019 0.725 2.945-0.482 0.349-0.952 0.712-1.399 1.105-0.825-0.802-1.667-1.592-2.405-2.475-0.43-0.462-0.274-1.135-0.325-1.705-0.099-1.517-0.216-3.033-0.295-4.551 1.797-1.554 3.928-2.67 6.107-3.589 0.029-0.715 0.006-1.431 0.024-2.148zM16.958 1.33c-0.571 1.378-1.862 2.361-3.293 2.716 0.277 0.471 0.54 0.95 0.823 1.417 1.18 0.254 2.399 0.614 3.311 1.445 0.725 0.673 1.258 1.519 1.726 2.382 0.282-0.334 0.526-0.698 0.723-1.089 0.987 1.082 1.697 2.426 1.97 3.868 0.331 1.459 0.054 2.989-0.589 4.324 0.485 0.344 0.955 0.707 1.39 1.113 0.908-0.934 1.903-1.796 2.69-2.84 0.036-1.98 0.302-3.948 0.318-5.931-1.785-1.54-3.9-2.642-6.058-3.564 0.006-0.7-0.003-1.398 0.013-2.098-1.001-0.594-2.011-1.173-3.023-1.744zM3.451 18.479c0.010 1.253 0 2.504 0.006 3.757 0.592 0.573 1.209 1.119 1.794 1.7 0.219 0.226 0.478 0.406 0.755 0.554 0.015 0.554-0.015 1.109 0.010 1.663-0.011 0.208 0.142 0.364 0.268 0.51 0.566 0.621 1.278 1.082 1.982 1.531 1.387 0.874 2.811 1.691 4.251 2.475-0.001-0.945 0.003-1.892 0-2.838-0.046-2.010-0.729-3.928-1.514-5.756-0.976-2.342-2.595-4.526-4.911-5.671-0.918 0.641-1.871 1.253-2.641 2.077zM16.181 19.916c-0.922 1.465-1.547 3.093-2.096 4.727-0.623 1.948-0.609 4.008-0.568 6.029 1.68-0.899 3.336-1.852 4.927-2.903 0.554-0.408 1.176-0.788 1.54-1.388 0.11-0.62 0.013-1.261 0.053-1.889 0.996-0.582 1.705-1.538 2.596-2.26 0.007-1.241 0.052-2.489-0.018-3.727-0.755-0.855-1.736-1.475-2.678-2.105-1.535 0.814-2.832 2.047-3.755 3.516zM13.587 22.846c-0.008-2.78-0.006-5.561-0.001-8.341 1.802 0.135 3.643 0.444 5.238 1.339-2.538 1.599-4.169 4.262-5.237 7.002zM7.226 15.841c1.61-0.88 3.449-1.216 5.263-1.334-0.013 2.817 0.021 5.635-0.018 8.452-0.982-2.813-2.695-5.495-5.245-7.118zM15.169 6.754c2.098 0.557 3.484 2.542 3.92 4.585 0.432-0.25 0.782-0.606 1.095-0.989 1.176 1.493 1.295 3.628 0.44 5.303-2.098-1.349-4.554-2.119-7.045-2.236 0.006-0.464 0.004-0.927 0.003-1.39 1.126-0.221 2.060-1.187 2.225-2.324 0.176-1.025-0.237-2.026-0.637-2.949zM8.956 7.805c0.557-0.5 1.239-0.846 1.955-1.056-0.369 0.785-0.712 1.621-0.691 2.504-0.034 1.302 0.976 2.547 2.267 2.761 0.001 0.466 0 0.934 0.006 1.402-2.49 0.117-4.951 0.877-7.045 2.233-0.581-1.147-0.778-2.522-0.364-3.757 0.165-0.56 0.464-1.067 0.793-1.545 0.31 0.385 0.67 0.726 1.080 1.004 0.338-1.328 0.944-2.639 2.001-3.547zM11.344 8.498c-0.204 0.818 0.053 1.821 0.839 2.237 0.742 0.349 1.788 0.219 2.26-0.507 0.426-0.61 0.397-1.409 0.177-2.091-0.369-1.144-0.962-2.201-1.592-3.218-0.691 1.123-1.355 2.292-1.684 3.578z"></path>
</svg>
