<!-- Generated by IcoMoon.io -->
<svg version="1.1" xmlns="http://www.w3.org/2000/svg" width="32" height="32" viewBox="0 0 32 32">
<title>dmr</title>
<path fill="#444" d="M12.844 5.512c2.059-0.536 4.252-0.533 6.312-0.003-0.818 1.856-0.989 3.987-0.488 5.951-0.89-0.596-1.778-1.193-2.669-1.787-0.892 0.59-1.776 1.191-2.666 1.785 0.497-1.963 0.332-4.092-0.49-5.946zM5.92 10.177c1.375 1.104 2.608 2.383 3.659 3.799 1.107-0.742 2.215-1.483 3.321-2.226 0.6-2.008 0.473-4.232-0.391-6.145-2.616 0.755-4.959 2.396-6.589 4.573zM19.1 11.749c1.106 0.744 2.215 1.485 3.322 2.227 1.051-1.416 2.284-2.694 3.658-3.799-1.63-2.178-3.974-3.819-6.589-4.573-0.863 1.913-0.991 4.136-0.391 6.144zM12.512 12.634c-0.002 3.094 0 6.188-0.001 9.282 1.168 1.658 2.335 3.315 3.502 4.973 1.14-1.627 2.285-3.249 3.42-4.879 0.084-0.085 0.052-0.206 0.057-0.314 0-3.018 0-6.035 0-9.053-1.163-0.784-2.327-1.565-3.491-2.347-1.162 0.779-2.324 1.559-3.487 2.338zM0 16.261c4.105 0.369 8.076 2.045 11.215 4.713-1.343-1.905-2.682-3.813-4.028-5.715-1.44-1.436-3.076-2.683-4.875-3.635-1.074 1.368-1.863 2.956-2.312 4.636zM25.011 15.068c-0.095 0.099-0.207 0.183-0.275 0.304-1.316 1.873-2.637 3.742-3.953 5.615 3.14-2.668 7.108-4.365 11.217-4.727-0.446-1.68-1.236-3.268-2.309-4.636-1.72 0.907-3.287 2.091-4.68 3.444zM8.072 15.613c1.365 1.939 2.729 3.879 4.096 5.817 0-2.854 0-5.709 0-8.564-1.366 0.914-2.732 1.829-4.096 2.746zM19.83 12.867c-0 2.855 0 5.71-0 8.565 1.366-1.939 2.733-3.878 4.096-5.819-1.365-0.916-2.729-1.833-4.096-2.746zM3.225 17.184c-1.13 1.277-1.862 2.892-2.136 4.572 3.16-0.433 6.438-0.032 9.387 1.19 1.308 0.547 2.55 1.264 3.65 2.162-1.143-1.929-2.679-3.625-4.5-4.936-1.918-1.394-4.121-2.36-6.401-2.988zM24.405 18.931c-1.388 0.748-2.681 1.677-3.815 2.773-1.055 1.018-1.968 2.181-2.718 3.44 1.97-1.622 4.381-2.646 6.867-3.167 2.040-0.428 4.153-0.51 6.218-0.222-0.277-1.68-0.997-3.3-2.139-4.572-1.529 0.419-3.018 0.994-4.414 1.747z"></path>
</svg>
