<!-- Generated by IcoMoon.io -->
<svg version="1.1" xmlns="http://www.w3.org/2000/svg" width="26" height="32" viewBox="0 0 26 32">
<title>dmu</title>
<path fill="#444" d="M5.551 3.842c1.712-1.316 3.765-2.184 5.902-2.491 0.094-0.015 0.188-0.018 0.283-0.018-1.053 1.607-1.84 3.416-2.12 5.325-0.133 0.773 0.020 1.567 0.283 2.296-0.352 0.157-0.706 0.309-1.073 0.43-0.945-1.027-1.82-2.13-2.485-3.36-0.366-0.683-0.678-1.41-0.79-2.182zM14.699 1.334c1.071 1.61 1.868 3.433 2.128 5.359 0.114 0.761-0.025 1.537-0.261 2.262 0.339 0.164 0.684 0.314 1.043 0.429 0.209-0.214 0.409-0.437 0.604-0.664 0.43-0.511 0.863-1.022 1.23-1.581 0.666-1.005 1.254-2.097 1.471-3.296-0.624-0.452-1.273-0.874-1.961-1.224-1.217-0.617-2.529-1.056-3.88-1.258-0.124-0.022-0.25-0.031-0.375-0.027zM12.24 2.897c-0.627 1.090-1.157 2.263-1.341 3.515-0.101 0.775-0.082 1.596 0.243 2.32 0.151 0.37 0.394 0.717 0.746 0.92 0.445 0.258 0.978 0.288 1.48 0.28 0.409-0.010 0.831-0.071 1.19-0.281 0.286-0.166 0.509-0.426 0.665-0.715 0.33-0.618 0.44-1.334 0.406-2.028-0.049-0.945-0.344-1.86-0.727-2.719-0.45-0.999-1.030-1.935-1.667-2.825-0.354 0.496-0.689 1.005-0.994 1.532zM22.015 4.699c-0.359 1.191-0.945 2.304-1.653 3.323-0.701 1.018-1.539 1.932-2.418 2.797-0.691-0.213-1.375-0.46-2.017-0.796-0.503 0.638-1.278 1.027-2.082 1.103-0 0.847-0 1.694 0 2.541 1.208 0.026 2.414 0.131 3.606 0.328 3.045 0.497 6.015 1.58 8.576 3.315 0.279-1.134 0.401-2.302 0.428-3.468-0-0.856-0.036-1.71-0.091-2.564-1.28 0.456-2.644 0.673-4.003 0.643 1.323-0.587 2.563-1.406 3.514-2.507-0.389-0.705-0.867-1.357-1.354-1.997-0.759-0.971-1.564-1.916-2.504-2.717zM3.022 6.094c-0.503 0.559-0.978 1.144-1.426 1.748-0.371 0.506-0.733 1.020-1.034 1.571 0.956 1.107 2.207 1.928 3.543 2.506-1.369 0.034-2.74-0.191-4.032-0.642-0.056 0.853-0.093 1.708-0.062 2.563 0.003 1.167 0.114 2.342 0.43 3.469 1.784-1.22 3.781-2.114 5.856-2.709 2.045-0.588 4.169-0.888 6.296-0.934 0-0.847 0-1.694 0-2.541-0.804-0.075-1.58-0.465-2.083-1.103-0.638 0.347-1.327 0.584-2.019 0.796-0.732-0.729-1.439-1.487-2.054-2.319-0.857-1.15-1.57-2.423-1.986-3.801-0.515 0.424-0.983 0.901-1.429 1.395zM7.093 15.681c-0.332 0.1-0.662 0.207-0.994 0.309 0.813 0.452 1.56 1.017 2.24 1.65 0.89 0.829 1.67 1.774 2.341 2.787 0.796 1.222 1.42 2.55 1.911 3.921 0.001-3.143 0-6.286 0-9.429-1.855 0.030-3.705 0.29-5.499 0.763zM13.844 14.919c0 3.143 0 6.286 0 9.429 0.426-1.193 0.974-2.344 1.631-3.427 1.198-1.994 2.834-3.763 4.861-4.93-0.423-0.13-0.838-0.288-1.27-0.387-1.709-0.418-3.463-0.656-5.222-0.685zM1.601 18.041c1.284 0.691 2.411 1.668 3.298 2.823 0.786 1.024 1.387 2.203 1.668 3.467 0.154 0.706 0.196 1.454-0.007 2.154 1.588 1.892 3.704 3.306 6 4.193-0.089-1.801-0.375-3.598-0.922-5.319-0.453-1.43-1.087-2.803-1.891-4.069-0.665-1.051-1.457-2.027-2.387-2.855-0.867-0.771-1.854-1.418-2.94-1.835-0.983 0.388-1.929 0.87-2.819 1.44zM18.475 19.021c-0.88 0.906-1.601 1.953-2.224 3.049-0.699 1.235-1.244 2.557-1.63 3.923-0.433 1.526-0.668 3.103-0.747 4.686 2.303-0.874 4.413-2.301 6-4.193-0.284-0.997-0.092-2.058 0.239-3.019 0.582-1.677 1.685-3.149 3.051-4.272 0.516-0.453 1.086-0.846 1.7-1.154-0.896-0.557-1.839-1.039-2.815-1.44-1.363 0.506-2.567 1.38-3.575 2.419z"></path>
</svg>
