<!-- Generated by IcoMoon.io -->
<svg version="1.1" xmlns="http://www.w3.org/2000/svg" width="24" height="32" viewBox="0 0 24 32">
<title>dom</title>
<path fill="#444" d="M5.732 2.001c1.819-1.086 3.908-1.702 6.022-1.812 0.536-0.039 1.074 0.007 1.608 0.061 2.448 0.258 4.821 1.22 6.742 2.762 0.881 0.71 1.684 1.526 2.331 2.456-1.975 1.893-3.606 4.143-4.784 6.612-0.483-0.737-1.091-1.394-1.806-1.91-1.040-0.757-2.311-1.204-3.6-1.212-1.264-0.016-2.521 0.389-3.561 1.103-0.797 0.543-1.469 1.258-1.991 2.067-1.149-2.491-2.747-4.784-4.752-6.661 0.992-1.413 2.314-2.582 3.792-3.467zM1.461 8.927c-0.19 0.235-0.373 0.485-0.457 0.778 1.183 1.467 2.292 2.993 3.359 4.546-1.003-0.785-2-1.576-3.009-2.353-0.405 0.43-0.692 0.962-0.871 1.524 1.354 0.75 2.665 1.578 3.913 2.494 1.023 0.758 2.012 1.575 2.857 2.531-0.154-0.776-0.355-1.543-0.59-2.298-0.919-2.936-2.34-5.751-4.386-8.066-0.29 0.264-0.569 0.542-0.818 0.845zM18.834 13.195c-0.761 1.681-1.348 3.443-1.714 5.252 0.832-0.941 1.803-1.747 2.808-2.495 1.262-0.93 2.59-1.77 3.962-2.53-0.179-0.561-0.466-1.093-0.871-1.524-1.009 0.778-2.007 1.568-3.009 2.354 1.067-1.555 2.177-3.080 3.36-4.549-0.085-0.29-0.265-0.538-0.452-0.77-0.25-0.306-0.531-0.585-0.823-0.851-1.347 1.52-2.422 3.267-3.262 5.112zM10.068 11.198c-1.183 0.636-2.059 1.752-2.535 2.995 0.71 2.010 1.185 4.109 1.35 6.235 0.413 0.543 0.803 1.106 1.145 1.699 0.892 1.536 1.59 3.178 2.159 4.858 0.248-0.739 0.525-1.469 0.831-2.187 0.661-1.539 1.435-3.047 2.476-4.366 0.083-2.165 0.574-4.303 1.308-6.337-0.268-0.659-0.641-1.276-1.119-1.804-0.706-0.785-1.654-1.369-2.697-1.564-0.989-0.192-2.037-0.012-2.919 0.469zM0.119 19.429c1.192 0.768 2.308 1.663 3.267 2.711 1.069 1.169 1.947 2.537 2.425 4.054 0.238 0.77 0.395 1.576 0.36 2.385 1.239 1.663 3.138 2.749 5.13 3.247-0.010-1.921-0.355-3.838-1.014-5.641-1.098-3.022-3.035-5.696-5.4-7.856-1.115-1.015-2.317-1.94-3.616-2.71-0.576 1.202-0.912 2.504-1.153 3.81zM19.369 18.437c-2.253 2.085-4.107 4.641-5.199 7.522-0.712 1.869-1.087 3.866-1.097 5.866 1.99-0.497 3.889-1.584 5.129-3.245-0.032-0.738 0.098-1.474 0.299-2.181 0.401-1.389 1.143-2.662 2.062-3.771 1.045-1.26 2.32-2.314 3.693-3.199-0.241-1.306-0.577-2.608-1.153-3.81-1.345 0.797-2.586 1.76-3.734 2.819z"></path>
</svg>
