<!-- Generated by IcoMoon.io -->
<svg version="1.1" xmlns="http://www.w3.org/2000/svg" width="32" height="32" viewBox="0 0 32 32">
<title>drb</title>
<path fill="#444" d="M23.998 15.951c0-5.508 4.312-6.561 5.891-6.561 1.053 0 2.058 0.431 2.058 0.431-4.357-4.166-8.523-1.151-8.523-1.151-0.096-2.632-1.773-4.452-1.773-4.452 1.241 5.748-2.339 8.14-3.339 8.686-0.401-2.595-1.284-4.399-2.312-4.399s-1.912 1.805-2.311 4.399c-1.003-0.547-4.583-2.938-3.339-8.686 0 0-1.678 1.82-1.773 4.452 0 0-4.166-3.016-8.526 1.151 0 0 1.005-0.431 2.058-0.431 1.582 0 5.891 1.053 5.891 6.561s-3.926 6.754-5.841 6.754c-1.534 0-2.061-0.431-2.061-0.431s3.352 3.976 8.478 1.246c0 0 0.238 2.537 1.868 4.262 0 0-1.857-5.753 3.244-8.674 0.401 2.59 1.284 4.387 2.311 4.387 1.026 0 1.911-1.798 2.309-4.387 5.101 2.921 3.247 8.674 3.247 8.674 1.627-1.725 1.868-4.262 1.868-4.262 5.124 2.73 8.478-1.246 8.478-1.246s-0.529 0.431-2.061 0.431c-1.916 0-5.844-1.246-5.844-6.754z"></path>
</svg>
