<!-- Generated by IcoMoon.io -->
<svg version="1.1" xmlns="http://www.w3.org/2000/svg" width="25" height="32" viewBox="0 0 25 32">
<path fill="#444" d="M10.499 8.515h4.175c-0.001 1.467-0.001 2.934 0 4.401-1.392 0-2.783 0.001-4.175 0 0.001-1.467 0.001-2.934 0-4.401zM5.913 13.22h4.29c0.001 1.52 0.001 3.041 0 4.561-1.035 0.001-2.069-0.002-3.104 0.001-0.4-1.519-0.79-3.042-1.185-4.562zM14.971 13.22h4.29c-0.398 1.521-0.781 3.046-1.189 4.564-1.034-0.008-2.067-0.001-3.1-0.003 0-1.52-0.001-3.041 0-4.561zM10.499 18.081h4.175c-0.007 1.116 0.010 2.231-0.008 3.347-0.703 0.628-1.385 1.279-2.079 1.914-0.695-0.635-1.376-1.286-2.079-1.914-0.017-1.116-0.001-2.231-0.008-3.347z"></path>
</svg>
