<!-- Generated by IcoMoon.io -->
<svg version="1.1" xmlns="http://www.w3.org/2000/svg" width="25" height="32" viewBox="0 0 25 32">
<path fill="#444" d="M9.972 4.348c0.872-0.006 4.358-0.006 5.23 0 0.379 0.058 0.641-0.278 0.822-0.561 0.324-0.484 0.15-1.090 0.187-1.632h0.064c2.252 1.16 4.512 2.304 6.768 3.457-0.2 1.146-0.043 2.401 0.603 3.385 0.358 0.555 0.952 0.866 1.528 1.145v0.082c-1.711 3.066-2.791 6.511-2.965 10.026-0.86 0.699-1.713 1.407-2.579 2.097 0.409 0.742 0.858 1.462 1.235 2.221-0.971 0.412-1.871 0.968-2.763 1.524-1.87 1.186-3.683 2.459-5.48 3.753h-0.068c-1.796-1.294-3.61-2.567-5.48-3.753-0.892-0.557-1.792-1.113-2.763-1.524 0.377-0.759 0.826-1.479 1.234-2.221-0.866-0.691-1.719-1.399-2.579-2.097-0.174-3.515-1.255-6.96-2.965-10.026v-0.082c0.576-0.279 1.169-0.59 1.528-1.145 0.646-0.985 0.804-2.239 0.603-3.385 2.256-1.153 4.516-2.297 6.768-3.457h0.064c0.037 0.543-0.137 1.148 0.187 1.632 0.18 0.283 0.443 0.619 0.822 0.561zM12.587 28.716c1.841-1.325 3.701-2.624 5.632-3.817 0.427-0.255 0.847-0.526 1.301-0.731-0.14-0.418-0.418-0.774-0.607-1.17-0.095 0.026-0.179 0.072-0.255 0.134-0.728 0.588-1.443 1.195-2.186 1.764 0.286-0.388 0.643-0.715 0.966-1.071 1.291-1.33 2.556-2.686 3.859-4.006 0.191-3.235 1.183-6.39 2.639-9.272-1.438-0.917-1.999-2.746-1.876-4.376-1.642-0.87-3.307-1.702-4.963-2.547-0.196 0.711-0.701 1.341-1.376 1.645-1.044 0.007-5.221 0.007-6.265 0-0.676-0.304-1.18-0.934-1.376-1.645-1.656 0.845-3.321 1.677-4.963 2.547 0.123 1.63-0.438 3.459-1.876 4.376 1.456 2.882 2.448 6.037 2.639 9.272 1.303 1.319 2.568 2.675 3.859 4.006 0.322 0.356 0.68 0.684 0.966 1.071-0.743-0.569-1.458-1.176-2.186-1.764-0.076-0.062-0.16-0.108-0.255-0.134-0.189 0.396-0.467 0.752-0.607 1.17 0.454 0.205 0.874 0.476 1.301 0.731 1.93 1.193 3.791 2.492 5.632 3.817zM12.587 24.164c-1.932-1.784-3.863-3.57-5.794-5.355-0.106-0.082-0.108-0.228-0.149-0.344-0.661-2.603-1.358-5.197-2.006-7.803 0.96-0.904 1.883-1.848 2.837-2.759 1.704 0 8.52 0 10.224 0 0.954 0.911 1.877 1.855 2.837 2.759-0.647 2.606-1.345 5.2-2.006 7.803-0.041 0.117-0.043 0.263-0.149 0.344-1.931 1.785-3.862 3.571-5.794 5.355zM10.499 18.081c0.007 1.116-0.009 2.231 0.008 3.347 0.703 0.628 1.385 1.279 2.079 1.914 0.695-0.635 1.376-1.286 2.079-1.914 0.018-1.116 0.001-2.231 0.008-3.347h-4.175zM10.499 8.515c0.001 1.467 0.001 2.934 0 4.401 1.392 0.001 2.783 0 4.175 0-0.001-1.467-0.001-2.934 0-4.401h-4.175zM14.971 13.22c-0.001 1.52 0 3.041 0 4.561 1.033 0.002 2.066-0.005 3.1 0.003 0.408-1.518 0.791-3.043 1.189-4.564h-4.29zM5.913 13.22c0.395 1.52 0.785 3.043 1.185 4.562 1.035-0.003 2.069 0 3.104-0.001 0.001-1.52 0.001-3.041 0-4.561h-4.29z"></path>
</svg>
