<!-- Generated by IcoMoon.io -->
<svg version="1.1" xmlns="http://www.w3.org/2000/svg" width="25" height="32" viewBox="0 0 25 32">
<path fill="#444" d="M9.454 5.269c1.044 0.007 5.221 0.007 6.265 0 0.676-0.304 1.18-0.934 1.376-1.645 1.656 0.845 3.321 1.677 4.963 2.547-0.123 1.63 0.438 3.459 1.876 4.376-1.456 2.882-2.448 6.037-2.639 9.272-1.303 1.319-2.568 2.675-3.859 4.006-0.322 0.356-0.68 0.684-0.966 1.071 0.743-0.569 2.374-1.945 2.468-1.971 0.189 0.396 0.639 1.207 0.639 1.207s-0.933 0.512-1.36 0.767c-1.93 1.193-3.791 2.492-5.632 3.817-1.841-1.325-3.701-2.624-5.632-3.817-0.427-0.255-1.36-0.767-1.36-0.767s0.449-0.811 0.639-1.207c0.095 0.026 1.725 1.402 2.468 1.971-0.286-0.388-0.643-0.715-0.966-1.071-1.291-1.33-2.556-2.686-3.859-4.006-0.191-3.235-1.183-6.39-2.639-9.272 1.438-0.917 1.999-2.746 1.876-4.376 1.642-0.87 3.307-1.702 4.963-2.547 0.196 0.711 0.701 1.341 1.376 1.645zM12.587 24.164c1.932-1.784 3.863-3.57 5.794-5.355 0.106-0.082 0.108-0.228 0.149-0.344 0.661-2.603 1.358-5.197 2.006-7.803-0.96-0.904-1.883-1.848-2.837-2.759-1.704 0-8.52 0-10.224 0-0.954 0.911-1.877 1.855-2.837 2.759 0.647 2.606 1.345 5.2 2.006 7.803 0.041 0.117 0.043 0.263 0.149 0.344 1.931 1.785 3.862 3.571 5.794 5.355z"></path>
</svg>
