<!-- Generated by IcoMoon.io -->
<svg version="1.1" xmlns="http://www.w3.org/2000/svg" width="25" height="32" viewBox="0 0 25 32">
<path fill="#444" d="M9.274 4.473c1.104 0.007 5.521 0.007 6.625 0 0.714-0.322 1.248-0.988 1.456-1.74 1.752 0.893 3.512 1.773 5.248 2.693-0.13 1.724 0.463 3.657 1.984 4.628-1.54 3.047-2.588 6.383-2.791 9.804-1.378 1.395-2.715 2.829-4.080 4.236-0.341 0.377-0.719 0.723-1.021 1.133 0.786-0.602 2.51-2.056 2.61-2.084 0.2 0.418 0.675 1.276 0.675 1.276s-0.986 0.542-1.438 0.811c-2.041 1.262-4.009 2.635-5.955 4.037-1.946-1.401-3.914-2.775-5.955-4.037-0.451-0.269-1.438-0.811-1.438-0.811s0.475-0.858 0.675-1.276c0.1 0.028 1.824 1.482 2.61 2.084-0.302-0.41-0.68-0.756-1.021-1.133-1.365-1.407-2.702-2.841-4.080-4.236-0.202-3.421-1.251-6.757-2.791-9.804 1.521-0.97 2.114-2.904 1.984-4.628 1.737-0.92 3.497-1.799 5.248-2.693 0.208 0.752 0.741 1.418 1.456 1.74zM10.379 18.021c0.007 1.18-0.010 2.36 0.009 3.539 0.743 0.664 1.464 1.352 2.199 2.024 0.735-0.672 1.456-1.36 2.199-2.024 0.019-1.18 0.001-2.36 0.009-3.539h-4.415zM5.529 12.881c0.417 1.608 0.831 3.218 1.253 4.824 1.095-0.003 2.188 0 3.283-0.001 0.001-1.608 0.001-3.216 0-4.823h-4.536zM10.379 7.906c0.001 1.551 0.001 3.103 0 4.654 1.472 0.001 2.943 0 4.415 0-0.001-1.551-0.001-3.103 0-4.654h-4.415zM15.108 12.881c-0.001 1.608 0 3.216 0 4.823 1.092 0.002 2.185-0.005 3.278 0.003 0.431-1.606 0.837-3.218 1.258-4.827h-4.536z"></path>
</svg>
