<!-- Generated by IcoMoon.io -->
<svg version="1.1" xmlns="http://www.w3.org/2000/svg" width="32" height="32" viewBox="0 0 32 32">
<path fill="#444" d="M3.716 11.042c0.919-0.254 1.901-0.18 2.81 0.079 1.167 0.333 2.243 0.92 3.25 1.588 0.609 0.39 1.174 0.845 1.781 1.239 0.958 0.579 2.063 0.873 3.165 1.022-0.147 0.33-0.28 0.668-0.362 1.021-0.078 0.319-0.046 0.651-0.084 0.975-0.049 0.474-0.141 0.968-0.424 1.363-0.223 0.316-0.609 0.516-0.998 0.49-0.164-0.002-0.322-0.052-0.483-0.077-0.968-0.163-1.962-0.118-2.926 0.049-0.635 0.111-1.262 0.273-1.87 0.488-0.182 0.068-0.365 0.135-0.536 0.227 0.081-0.916 0.055-1.849-0.161-2.745-0.225-0.999-0.706-1.943-1.406-2.693-0.957-1.028-2.264-1.707-3.637-1.971 0.537-0.487 1.181-0.862 1.883-1.053zM5.957 12.833c0.315 0.13 0.627 0.284 0.871 0.527 0.433 0.41 0.678 1.015 0.64 1.612 0.38 0.705 0.959 1.292 1.637 1.716 0.683 0.43 1.451 0.708 2.236 0.883 0.698 0.151 1.413 0.232 2.128 0.221-0.242-0.12-0.487-0.239-0.707-0.399-0.46-0.318-0.815-0.762-1.115-1.23-0.371-0.576-0.726-1.178-1.241-1.641-0.506-0.466-1.124-0.792-1.761-1.040-0.863-0.33-1.77-0.541-2.687-0.648zM25.521 11.109c0.791-0.22 1.632-0.297 2.443-0.142 0.822 0.158 1.586 0.566 2.202 1.129-1.315 0.254-2.566 0.887-3.512 1.842-0.457 0.461-0.831 1.003-1.108 1.59-0.577 1.236-0.706 2.635-0.582 3.98-0.638-0.31-1.332-0.487-2.021-0.642-1.185-0.245-2.424-0.323-3.613-0.064-0.299 0.056-0.618 0.001-0.87-0.17-0.28-0.186-0.456-0.489-0.563-0.801-0.147-0.439-0.188-0.905-0.201-1.365-0.006-0.525-0.214-1.018-0.415-1.494 1.060-0.143 2.119-0.422 3.053-0.956 0.523-0.317 0.999-0.704 1.506-1.046 1.134-0.781 2.346-1.489 3.681-1.861zM23.826 13.313c-0.711 0.235-1.409 0.545-2 1.011-0.41 0.323-0.749 0.727-1.035 1.162-0.377 0.562-0.704 1.173-1.212 1.632-0.304 0.286-0.669 0.493-1.042 0.672 1.213 0.010 2.44-0.2 3.558-0.681 0.997-0.428 1.898-1.145 2.419-2.109 0.028-0.046 0.012-0.102 0.016-0.152-0.005-0.668 0.348-1.323 0.899-1.7 0.189-0.136 0.405-0.227 0.618-0.318-0.754 0.085-1.499 0.25-2.222 0.482zM15.49 14.577c0.139-0.301 0.298-0.597 0.511-0.852 0.345 0.431 0.569 0.945 0.751 1.463 0.119 0.349 0.216 0.705 0.294 1.066-0.349 0.37-0.549 0.853-0.71 1.328-0.158 0.483-0.261 0.982-0.334 1.484-0.102-0.669-0.248-1.338-0.515-1.962-0.133-0.307-0.296-0.607-0.531-0.848 0.123-0.574 0.293-1.141 0.534-1.678zM14.755 17.096c0.382 0.556 0.56 1.257 0.454 1.927-0.089 0.59-0.391 1.129-0.782 1.572-0.387 0.455-0.884 0.796-1.339 1.178-0.218 0.174-0.428 0.359-0.648 0.532-0.856 0.063-1.678 0.394-2.378 0.884-0.4-0.672-0.571-1.453-0.648-2.224-0.003-0.067-0.022-0.138 0.005-0.202 0.143-0.386 0.342-0.75 0.551-1.104 0.606-0.178 1.25-0.183 1.875-0.131 0.405 0.050 0.812 0.097 1.22 0.091 0.204-0.001 0.397-0.081 0.581-0.162 0.428-0.196 0.786-0.55 0.959-0.99 0.176-0.433 0.192-0.911 0.148-1.372zM16.86 19.341c-0.222-0.757-0.061-1.602 0.385-2.247-0.054 0.547-0.018 1.132 0.268 1.616 0.269 0.466 0.758 0.78 1.277 0.896 0.649 0.059 1.291-0.114 1.939-0.108 0.435 0.003 0.879 0.025 1.295 0.164 0.215 0.34 0.4 0.701 0.549 1.075 0.039 0.084 0.012 0.177 0.008 0.265-0.078 0.758-0.25 1.524-0.643 2.185-0.701-0.488-1.522-0.828-2.38-0.881-0.454-0.385-0.917-0.759-1.382-1.131-0.584-0.484-1.101-1.095-1.315-1.836z"></path>
</svg>
