<!-- Generated by IcoMoon.io -->
<svg version="1.1" xmlns="http://www.w3.org/2000/svg" width="32" height="32" viewBox="0 0 32 32">
<path fill="#444" d="M9.113 5.105c0.219-0.124 0.433-0.257 0.655-0.374-0.254 0.551-0.527 1.093-0.782 1.643-0.211 0.513-0.349 1.055-0.444 1.601-0.026 0.181-0.085 0.369-0.018 0.548 0.176 0.579 0.679 0.98 1.186 1.267 0.959 0.523 2.034 0.783 3.103 0.972 1.011 0.174 2.035 0.254 3.061 0.273 1.133-0.003 2.266-0.1 3.383-0.289 0.765-0.132 1.525-0.309 2.252-0.585 0.502-0.193 0.996-0.435 1.403-0.793 0.276-0.244 0.501-0.56 0.583-0.923 0.020-0.090 0.008-0.182-0.006-0.271-0.117-0.727-0.289-1.456-0.623-2.116-0.206-0.441-0.42-0.877-0.619-1.32 0.588 0.333 1.173 0.672 1.756 1.014 1.832 1.097 3.448 2.558 4.696 4.291 0.085 0.108 0.149 0.232 0.243 0.332 0.097 0.047 0.2 0.079 0.295 0.13 0.002 0.001 0.006 0.003 0.008 0.004l0.065 0.032c0.003 0.001 0.007 0.003 0.009 0.004l0.065 0.031c0.002 0.001 0.006 0.003 0.009 0.004l0.061 0.032c0.002 0.001 0.006 0.003 0.008 0.004l0.061 0.033 0.009 0.004 0.060 0.032c0.002 0.001 0.006 0.003 0.008 0.005 0.060 0.032 0.118 0.067 0.177 0.103 0.002 0.001 0.005 0.004 0.007 0.005 0.026 0.016 0.077 0.049 0.102 0.065 0.002 0.001 0.005 0.004 0.007 0.005 0.026 0.017 0.076 0.050 0.101 0.067 0.002 0.001 0.005 0.004 0.007 0.005 0.517 0.345 0.946 0.799 1.416 1.203 0.19 0.185 0.401 0.346 0.583 0.54-0.558 0.090-1.119 0.158-1.676 0.248 0.207 0.493 0.388 0.998 0.506 1.52 0.032 0.081-0.052 0.133-0.094 0.189-0.829 0.907-1.275 2.102-1.46 3.303-0.187 1.259-0.15 2.553 0.126 3.796-0.149 0.050-0.309 0.074-0.45 0.147-1.888 1.388-3.881 2.635-5.957 3.722-0.056 0.041-0.078 0.114-0.116 0.172-0.247 0.443-0.595 0.818-0.899 1.221-0.075 0.091-0.137 0.193-0.228 0.269-0.035-0.151-0.116-0.292-0.126-0.447-0.007-0.017-0.021-0.052-0.028-0.069l-0.004-0.029c-0.006-0.018-0.020-0.055-0.026-0.073l-0.013-0.044c-0.006-0.018-0.019-0.053-0.026-0.071l-0.013-0.039c-0.005-0.018-0.014-0.055-0.019-0.073-0.012-0.013-0.037-0.038-0.049-0.051-0.5 0.222-1 0.445-1.509 0.647-0.331-0.487-0.651-0.983-1.034-1.431-0.424-0.501-0.919-0.955-1.507-1.257-0.552-0.282-1.192-0.415-1.809-0.317-0.649 0.087-1.247 0.407-1.745 0.823-0.733 0.602-1.258 1.403-1.783 2.182-0.513-0.201-1.016-0.426-1.519-0.652-0.102 0.299-0.201 0.6-0.297 0.901-0.115-0.103-0.195-0.237-0.294-0.353-0.301-0.396-0.641-0.766-0.874-1.209-0.050-0.122-0.188-0.15-0.29-0.213-1.961-1.041-3.846-2.224-5.637-3.535-0.151-0.14-0.361-0.161-0.548-0.224 0.060-0.354 0.141-0.704 0.174-1.061 0.147-1.482 0.052-3.021-0.508-4.414-0.245-0.6-0.585-1.164-1.025-1.642-0.039-0.049-0.106-0.097-0.075-0.168 0.119-0.52 0.298-1.026 0.506-1.517-0.556-0.097-1.118-0.159-1.675-0.251 0.421-0.409 0.871-0.788 1.3-1.188 0.254-0.227 0.517-0.445 0.807-0.626 0.002-0.001 0.005-0.004 0.007-0.005 0.114-0.077 0.232-0.149 0.355-0.209 0.002-0.001 0.007-0.004 0.009-0.005l0.059-0.031c0.003-0.001 0.007-0.003 0.009-0.005l0.061-0.031c0.002-0.001 0.007-0.003 0.009-0.005l0.065-0.032c0.002-0.001 0.006-0.004 0.009-0.005 0.118-0.066 0.246-0.109 0.368-0.165 0.056-0.054 0.094-0.122 0.139-0.185 1.136-1.62 2.593-3.011 4.248-4.093 0.54-0.357 1.109-0.668 1.667-0.995zM6.933 7.568c-0.936 0.728-1.779 1.574-2.512 2.505 0.839-0.077 1.681 0.060 2.485 0.293l-0.003 0.008c0.222 0.056 0.434 0.143 0.649 0.222-0.1-1.239-0.009-2.498 0.316-3.7-0.32 0.212-0.629 0.44-0.934 0.673zM8.19 9.732c-0.007 0.39 0.018 0.779 0.050 1.167 0.672 0.318 1.311 0.702 1.933 1.11 0.508 0.332 0.993 0.697 1.489 1.047 0.307 0.224 0.646 0.401 0.999 0.54 0.175 0.068 0.351 0.134 0.53 0.191 0.001 0.001 0.005 0.001 0.006 0.002 0.626 0.196 1.272 0.33 1.926 0.382 0.107-0.212 0.219-0.422 0.356-0.616 0.146-0.218 0.345-0.392 0.52-0.585 0.129 0.134 0.261 0.265 0.385 0.404 0.2 0.241 0.352 0.517 0.492 0.796 0.932-0.081 1.856-0.3 2.711-0.683 0.349-0.154 0.666-0.367 0.973-0.591l-0.001-0.004c0.519-0.356 1.022-0.737 1.557-1.071 0.531-0.336 1.078-0.649 1.644-0.923 0.029-0.388 0.056-0.777 0.049-1.166-0.465 0.529-1.089 0.886-1.728 1.166-0.502 0.215-1.027 0.371-1.555 0.507-0.97 0.239-1.962 0.374-2.957 0.454-1.625 0.139-3.263 0.047-4.872-0.201l0.001-0.007c-0.845-0.137-1.686-0.329-2.487-0.636-0.746-0.29-1.482-0.676-2.020-1.282zM24.133 6.895c0.321 1.203 0.42 2.462 0.313 3.702 0.263-0.099 0.526-0.199 0.799-0.268l-0-0.007c0.759-0.204 1.549-0.319 2.336-0.248-0.687-0.873-1.47-1.671-2.338-2.366-0.359-0.286-0.728-0.559-1.11-0.813zM3.716 11.042c-0.701 0.191-1.345 0.566-1.883 1.053 1.374 0.264 2.68 0.943 3.637 1.971 0.7 0.75 1.181 1.694 1.406 2.693 0.216 0.896 0.242 1.83 0.161 2.745 0.171-0.092 0.354-0.159 0.536-0.227 0.608-0.215 1.234-0.377 1.87-0.488 0.964-0.167 1.958-0.213 2.926-0.049 0.161 0.025 0.319 0.075 0.483 0.077 0.389 0.026 0.775-0.174 0.998-0.49 0.283-0.395 0.375-0.889 0.424-1.363 0.039-0.324 0.006-0.655 0.084-0.975 0.082-0.352 0.215-0.691 0.362-1.021-1.102-0.149-2.207-0.443-3.165-1.022-0.607-0.394-1.172-0.849-1.781-1.239-1.006-0.669-2.083-1.255-3.25-1.588-0.909-0.259-1.891-0.333-2.81-0.079zM5.957 12.833c0.917 0.107 1.824 0.318 2.687 0.648 0.637 0.249 1.255 0.574 1.761 1.040 0.515 0.463 0.87 1.064 1.241 1.641 0.299 0.468 0.654 0.911 1.115 1.23 0.22 0.16 0.465 0.279 0.707 0.399-0.715 0.012-1.43-0.069-2.128-0.221-0.785-0.175-1.553-0.453-2.236-0.883-0.677-0.423-1.256-1.011-1.637-1.716 0.039-0.597-0.206-1.202-0.64-1.612-0.245-0.242-0.556-0.397-0.871-0.527zM7.885 13.986c0.077 0.31 0.172 0.618 0.323 0.901 0.362 0.7 0.981 1.236 1.672 1.598 0.554 0.297 1.161 0.476 1.772 0.611-0.453-0.502-0.878-1.030-1.252-1.595-0.198-0.309-0.468-0.567-0.771-0.772-0.526-0.359-1.129-0.588-1.744-0.743zM22.979 21.998c-0.167 0.716-0.455 1.416-0.939 1.979-0.58-0.526-1.301-0.904-2.069-1.062 0.491 0.402 0.967 0.835 1.339 1.354 0.312 0.429 0.531 0.916 0.717 1.41 0.813-1.019 1.197-2.394 0.951-3.682zM25.521 11.109c-1.336 0.371-2.547 1.079-3.681 1.861-0.507 0.342-0.982 0.729-1.506 1.046-0.934 0.534-1.993 0.813-3.053 0.956 0.202 0.476 0.41 0.969 0.415 1.494 0.012 0.46 0.054 0.926 0.201 1.365 0.106 0.312 0.283 0.615 0.563 0.801 0.253 0.171 0.572 0.226 0.87 0.17 1.189-0.259 2.428-0.181 3.613 0.064 0.69 0.155 1.383 0.332 2.021 0.642-0.124-1.345 0.004-2.744 0.582-3.98 0.277-0.587 0.651-1.128 1.108-1.59 0.945-0.955 2.197-1.588 3.512-1.842-0.616-0.563-1.38-0.97-2.202-1.129-0.811-0.155-1.652-0.078-2.443 0.142zM23.826 13.313c0.723-0.232 1.468-0.397 2.222-0.482-0.213 0.091-0.429 0.181-0.618 0.318-0.551 0.376-0.904 1.031-0.899 1.7-0.005 0.050 0.012 0.106-0.016 0.152-0.522 0.964-1.422 1.68-2.419 2.109-1.118 0.481-2.344 0.691-3.558 0.681 0.373-0.179 0.738-0.386 1.042-0.672 0.508-0.459 0.835-1.069 1.212-1.632 0.286-0.434 0.625-0.839 1.035-1.162 0.591-0.466 1.289-0.777 2-1.011zM22.011 15.013c-0.3 0.261-0.484 0.619-0.722 0.932-0.287 0.404-0.612 0.778-0.941 1.148 1.044-0.215 2.089-0.624 2.85-1.395 0.468-0.464 0.776-1.072 0.917-1.712-0.76 0.193-1.515 0.497-2.105 1.027zM2.566 13.143c-0.163 0.374-0.314 0.755-0.428 1.146 0.641 0.772 1.046 1.708 1.315 2.667 0.341 1.384 0.368 2.833 0.164 4.24 1.1 0.8 2.229 1.561 3.394 2.262 0.503 0.303 1.010 0.599 1.523 0.884-0.074-0.284-0.137-0.57-0.171-0.862-0.168-1.283 0.108-2.6 0.692-3.748-0.514 0.092-1.022 0.225-1.503 0.43-0.189 0.077-0.356 0.198-0.533 0.297-0.286 0.167-0.567 0.342-0.852 0.51 0.054-0.577 0.108-1.155 0.157-1.732 0.068-0.988-0.008-2.003-0.359-2.937-0.357-0.979-1.041-1.824-1.902-2.406-0.001-0.001-0.004-0.003-0.006-0.004-0.185-0.127-0.378-0.239-0.573-0.348-0.294-0.16-0.603-0.292-0.919-0.4zM28.674 13.459l0.001 0.007c-0.215 0.104-0.423 0.223-0.624 0.352-0.001 0.001-0.004 0.003-0.005 0.003-0.026 0.017-0.077 0.051-0.102 0.068-0.002 0.001-0.005 0.003-0.006 0.004-0.182 0.125-0.358 0.26-0.523 0.406-0.758 0.658-1.295 1.553-1.543 2.523-0.234 0.879-0.257 1.801-0.171 2.703 0.046 0.481 0.086 0.963 0.133 1.443-0.197-0.115-0.39-0.236-0.588-0.35-0.353-0.202-0.687-0.445-1.078-0.567-0.397-0.143-0.808-0.246-1.222-0.32 0.107 0.218 0.21 0.439 0.297 0.666 0.492 1.246 0.586 2.651 0.224 3.944 0.599-0.331 1.188-0.681 1.774-1.036 1.077-0.658 2.123-1.367 3.144-2.109-0.231-1.607-0.167-3.276 0.339-4.826 0.062-0.127 0.102-0.263 0.156-0.393 0.245-0.606 0.57-1.183 0.986-1.688-0.114-0.392-0.267-0.773-0.431-1.147-0.261 0.087-0.513 0.198-0.761 0.316zM15.49 14.577c-0.241 0.537-0.411 1.103-0.534 1.678 0.235 0.241 0.398 0.541 0.531 0.848 0.267 0.624 0.413 1.293 0.515 1.962 0.073-0.502 0.176-1.001 0.334-1.484 0.162-0.476 0.361-0.958 0.71-1.328-0.078-0.36-0.175-0.716-0.294-1.066-0.182-0.518-0.406-1.031-0.751-1.463-0.213 0.256-0.372 0.551-0.511 0.852zM14.755 17.096c0.045 0.46 0.028 0.938-0.148 1.372-0.173 0.44-0.531 0.794-0.959 0.99-0.184 0.081-0.377 0.161-0.581 0.162-0.409 0.006-0.816-0.041-1.22-0.091-0.626-0.052-1.269-0.047-1.875 0.131-0.21 0.354-0.408 0.718-0.551 1.104-0.027 0.064-0.008 0.135-0.005 0.202 0.077 0.771 0.248 1.552 0.648 2.224 0.7-0.491 1.522-0.822 2.378-0.884 0.219-0.172 0.429-0.358 0.648-0.532 0.455-0.382 0.951-0.723 1.339-1.178 0.391-0.443 0.693-0.982 0.782-1.572 0.106-0.669-0.072-1.37-0.454-1.927zM16.86 19.341c0.213 0.741 0.731 1.352 1.315 1.836 0.465 0.372 0.928 0.746 1.382 1.131 0.858 0.053 1.679 0.393 2.38 0.881 0.393-0.661 0.565-1.428 0.643-2.185 0.004-0.088 0.031-0.182-0.008-0.265-0.149-0.374-0.334-0.735-0.549-1.075-0.415-0.139-0.86-0.161-1.295-0.164-0.649-0.007-1.29 0.167-1.939 0.108-0.519-0.116-1.008-0.429-1.277-0.896-0.286-0.484-0.322-1.069-0.268-1.616-0.446 0.645-0.607 1.489-0.385 2.247zM16 19.683c-0.317 0.642-0.781 1.2-1.271 1.717-0.442 0.463-0.971 0.828-1.456 1.242-0.585 0.489-1.175 0.98-1.674 1.559-0.335 0.386-0.594 0.833-0.777 1.309 0.301 0.139 0.604 0.276 0.91 0.406 0.553-0.806 1.19-1.579 2.012-2.121 0.579-0.386 1.252-0.638 1.948-0.689 0.797-0.067 1.608 0.126 2.299 0.525 0.95 0.541 1.67 1.394 2.279 2.286 0.305-0.131 0.608-0.265 0.908-0.406-0.151-0.387-0.344-0.76-0.598-1.090-0.386-0.507-0.864-0.933-1.342-1.35-0.472-0.406-0.957-0.795-1.442-1.186-0.347-0.287-0.659-0.614-0.95-0.957-0.321-0.386-0.625-0.792-0.845-1.244zM9.017 21.98c-0.237 1.295 0.133 2.676 0.954 3.699 0.184-0.487 0.4-0.967 0.705-1.392 0.374-0.527 0.855-0.966 1.352-1.374-0.769 0.16-1.488 0.54-2.072 1.064-0.122-0.159-0.245-0.318-0.351-0.488-0.287-0.462-0.462-0.983-0.588-1.509z"></path>
</svg>
