<!-- Generated by IcoMoon.io -->
<svg version="1.1" xmlns="http://www.w3.org/2000/svg" width="32" height="32" viewBox="0 0 32 32">
<path fill="#444" d="M6.906 10.367c-0.805-0.233-1.646-0.37-2.485-0.293 0.733-0.932 1.577-1.777 2.512-2.505 0.305-0.233 0.614-0.461 0.934-0.673-0.325 1.202-0.416 2.461-0.316 3.7-0.215-0.078-0.427-0.166-0.649-0.222l0.003-0.008zM25.245 10.322l0 0.007c-0.273 0.069-0.536 0.169-0.799 0.268 0.106-1.24 0.008-2.499-0.313-3.702 0.382 0.254 0.751 0.527 1.11 0.813 0.868 0.694 1.651 1.492 2.338 2.366-0.787-0.070-1.577 0.044-2.336 0.248zM12.661 13.596c-0.352-0.139-0.692-0.316-0.999-0.54-0.496-0.35-0.981-0.715-1.489-1.047-0.622-0.408-1.261-0.792-1.933-1.11-0.032-0.388-0.057-0.778-0.050-1.167 0.539 0.606 1.274 0.992 2.020 1.282 0.801 0.306 1.642 0.498 2.487 0.636l-0.001 0.007c1.61 0.249 3.248 0.341 4.872 0.201 0.995-0.080 1.988-0.215 2.957-0.454 0.528-0.136 1.053-0.292 1.555-0.507 0.638-0.28 1.262-0.637 1.728-1.166 0.008 0.39-0.019 0.778-0.049 1.166-0.567 0.274-1.113 0.587-1.644 0.923-0.535 0.334-1.038 0.715-1.557 1.071l0.001 0.004c-0.307 0.224-0.624 0.437-0.973 0.591-0.854 0.383-1.779 0.602-2.711 0.683-0.14-0.279-0.292-0.556-0.492-0.796-0.124-0.139-0.256-0.27-0.385-0.404-0.175 0.193-0.373 0.367-0.52 0.585-0.137 0.194-0.249 0.404-0.356 0.616-0.654-0.052-1.3-0.187-1.926-0.382-0.001-0.001-0.005-0.001-0.006-0.002-0.179-0.057-0.355-0.122-0.53-0.191zM7.011 23.458c-1.166-0.701-2.294-1.462-3.394-2.262 0.204-1.407 0.177-2.857-0.164-4.24-0.27-0.959-0.675-1.895-1.315-2.667 0.115-0.392 0.266-0.772 0.428-1.146 0.316 0.108 0.625 0.24 0.919 0.4 0.195 0.109 0.389 0.221 0.573 0.348 0.001 0.001 0.004 0.003 0.006 0.004 0.861 0.582 1.545 1.427 1.902 2.406 0.351 0.933 0.427 1.948 0.359 2.937-0.049 0.578-0.103 1.155-0.157 1.732 0.286-0.168 0.567-0.343 0.852-0.51 0.178-0.099 0.344-0.219 0.533-0.297 0.481-0.205 0.989-0.338 1.503-0.43-0.585 1.147-0.86 2.465-0.692 3.748 0.034 0.291 0.097 0.578 0.171 0.862-0.513-0.285-1.020-0.581-1.523-0.884zM25.24 23.306c-0.585 0.356-1.174 0.705-1.774 1.036 0.361-1.293 0.268-2.698-0.224-3.944-0.087-0.227-0.19-0.448-0.297-0.666 0.415 0.074 0.825 0.176 1.222 0.32 0.392 0.123 0.726 0.365 1.078 0.567 0.198 0.113 0.391 0.235 0.588 0.35-0.047-0.481-0.088-0.962-0.133-1.443-0.086-0.902-0.064-1.824 0.171-2.703 0.249-0.97 0.786-1.865 1.543-2.523 0.165-0.146 0.341-0.281 0.523-0.406 0.001-0.001 0.005-0.003 0.006-0.004 0.026-0.017 0.077-0.051 0.102-0.068 0.001-0.001 0.004-0.003 0.005-0.003 0.201-0.13 0.409-0.249 0.624-0.352l-0.001-0.007c0.248-0.118 0.5-0.229 0.761-0.316 0.163 0.374 0.316 0.755 0.431 1.147-0.417 0.505-0.741 1.082-0.986 1.688-0.054 0.13-0.094 0.266-0.156 0.393-0.506 1.55-0.57 3.219-0.339 4.826-1.021 0.742-2.067 1.451-3.144 2.109zM16 19.683c0.22 0.453 0.524 0.858 0.845 1.244 0.291 0.343 0.602 0.67 0.95 0.957 0.485 0.391 0.97 0.779 1.442 1.186 0.479 0.417 0.956 0.843 1.342 1.35 0.254 0.33 0.447 0.703 0.598 1.090-0.3 0.141-0.604 0.276-0.908 0.406-0.609-0.892-1.329-1.745-2.279-2.286-0.691-0.399-1.503-0.592-2.3-0.525-0.696 0.051-1.369 0.304-1.948 0.689-0.823 0.543-1.459 1.316-2.012 2.121-0.306-0.13-0.608-0.267-0.91-0.406 0.183-0.476 0.442-0.924 0.777-1.309 0.5-0.579 1.089-1.070 1.674-1.559 0.485-0.414 1.014-0.78 1.456-1.242 0.491-0.517 0.954-1.074 1.271-1.717zM9.017 21.98c0.126 0.526 0.301 1.047 0.588 1.509 0.106 0.17 0.229 0.329 0.351 0.488 0.584-0.524 1.303-0.904 2.072-1.064-0.497 0.408-0.979 0.847-1.352 1.374-0.305 0.425-0.521 0.905-0.705 1.392-0.821-1.024-1.191-2.405-0.954-3.699zM22.979 21.998c0.246 1.287-0.138 2.663-0.951 3.682-0.186-0.495-0.405-0.982-0.717-1.41-0.372-0.519-0.848-0.952-1.339-1.354 0.768 0.158 1.488 0.536 2.069 1.062 0.483-0.563 0.772-1.263 0.939-1.979zM21.497 26.424c0.005 0.018 0.014 0.055 0.019 0.073l-0.031-0.011-0.009-0.037 0.021-0.025zM21.529 26.537c0.007 0.018 0.020 0.053 0.026 0.071l-0.032-0.008-0.013-0.036 0.019-0.027zM21.568 26.651c0.006 0.018 0.020 0.055 0.026 0.073l-0.032-0.009-0.014-0.037 0.019-0.027zM21.599 26.754c0.007 0.017 0.021 0.052 0.028 0.069l-0.032-0.006-0.014-0.035 0.018-0.028zM3.716 11.042c0.919-0.254 1.901-0.18 2.81 0.079 1.167 0.333 2.243 0.92 3.25 1.588 0.609 0.39 1.174 0.845 1.781 1.239 0.958 0.579 2.063 0.873 3.165 1.022-0.147 0.33-0.28 0.668-0.362 1.021-0.078 0.319-0.046 0.651-0.084 0.975-0.049 0.474-0.141 0.968-0.424 1.363-0.223 0.316-0.609 0.516-0.998 0.49-0.164-0.002-0.322-0.052-0.483-0.077-0.968-0.163-1.962-0.118-2.926 0.049-0.635 0.111-1.262 0.273-1.87 0.488-0.182 0.068-0.365 0.135-0.536 0.227 0.081-0.916 0.055-1.849-0.161-2.745-0.225-0.999-0.706-1.943-1.406-2.693-0.957-1.028-2.264-1.707-3.637-1.971 0.537-0.487 1.181-0.862 1.883-1.053zM5.957 12.833c0.315 0.13 0.627 0.284 0.871 0.527 0.433 0.41 0.678 1.015 0.64 1.612 0.38 0.705 0.959 1.292 1.637 1.716 0.683 0.43 1.451 0.708 2.236 0.883 0.698 0.151 1.413 0.232 2.128 0.221-0.242-0.12-0.487-0.239-0.707-0.399-0.46-0.318-0.815-0.762-1.115-1.23-0.371-0.576-0.726-1.178-1.241-1.641-0.506-0.466-1.124-0.792-1.761-1.040-0.863-0.33-1.77-0.541-2.687-0.648zM7.885 13.986c0.615 0.155 1.218 0.385 1.744 0.743 0.303 0.205 0.573 0.463 0.771 0.772 0.373 0.564 0.799 1.092 1.252 1.595-0.611-0.135-1.218-0.314-1.772-0.611-0.691-0.362-1.31-0.899-1.672-1.598-0.151-0.283-0.246-0.591-0.323-0.901zM25.521 11.109c0.791-0.22 1.632-0.297 2.443-0.142 0.822 0.158 1.586 0.566 2.202 1.129-1.315 0.254-2.566 0.887-3.512 1.842-0.457 0.461-0.831 1.003-1.108 1.59-0.577 1.236-0.706 2.635-0.582 3.98-0.638-0.31-1.332-0.487-2.021-0.642-1.185-0.245-2.424-0.323-3.613-0.064-0.299 0.056-0.618 0.001-0.87-0.17-0.28-0.186-0.456-0.489-0.563-0.801-0.147-0.439-0.188-0.905-0.201-1.365-0.006-0.525-0.214-1.018-0.415-1.494 1.060-0.143 2.119-0.422 3.053-0.956 0.523-0.317 0.999-0.704 1.506-1.046 1.134-0.781 2.346-1.489 3.681-1.861zM23.826 13.313c-0.711 0.235-1.409 0.545-2 1.011-0.41 0.323-0.749 0.727-1.035 1.162-0.377 0.562-0.704 1.173-1.212 1.632-0.304 0.286-0.669 0.493-1.042 0.672 1.213 0.010 2.44-0.2 3.558-0.681 0.997-0.428 1.898-1.145 2.419-2.109 0.028-0.046 0.012-0.102 0.016-0.152-0.005-0.668 0.348-1.323 0.899-1.7 0.189-0.136 0.405-0.227 0.618-0.318-0.754 0.085-1.499 0.25-2.222 0.482zM22.011 15.013c0.589-0.53 1.345-0.834 2.105-1.027-0.141 0.641-0.449 1.248-0.917 1.712-0.761 0.77-1.806 1.18-2.85 1.394 0.329-0.37 0.653-0.744 0.941-1.148 0.237-0.313 0.422-0.671 0.722-0.932zM15.49 14.577c0.139-0.301 0.298-0.597 0.511-0.852 0.345 0.431 0.569 0.945 0.751 1.463 0.119 0.349 0.216 0.705 0.294 1.066-0.349 0.37-0.549 0.853-0.71 1.328-0.158 0.483-0.261 0.982-0.334 1.484-0.102-0.669-0.248-1.338-0.515-1.962-0.133-0.307-0.296-0.607-0.531-0.848 0.123-0.574 0.293-1.141 0.534-1.678zM14.755 17.096c0.382 0.556 0.56 1.257 0.454 1.927-0.089 0.59-0.391 1.129-0.782 1.572-0.387 0.455-0.884 0.796-1.339 1.178-0.218 0.174-0.428 0.359-0.648 0.532-0.856 0.063-1.678 0.394-2.378 0.884-0.4-0.672-0.571-1.453-0.648-2.224-0.003-0.067-0.022-0.138 0.005-0.202 0.143-0.386 0.342-0.75 0.551-1.104 0.606-0.178 1.25-0.183 1.875-0.131 0.405 0.050 0.812 0.097 1.22 0.091 0.204-0.001 0.397-0.081 0.581-0.162 0.428-0.196 0.786-0.55 0.959-0.99 0.176-0.433 0.192-0.911 0.148-1.372zM16.86 19.341c-0.222-0.757-0.061-1.602 0.385-2.247-0.054 0.547-0.018 1.132 0.268 1.616 0.269 0.466 0.758 0.78 1.277 0.896 0.649 0.059 1.291-0.114 1.939-0.108 0.435 0.003 0.879 0.025 1.295 0.164 0.215 0.34 0.4 0.701 0.549 1.075 0.039 0.084 0.012 0.177 0.008 0.265-0.078 0.758-0.25 1.524-0.643 2.185-0.701-0.488-1.522-0.828-2.38-0.881-0.454-0.385-0.917-0.759-1.382-1.131-0.584-0.484-1.101-1.095-1.315-1.836z"></path>
</svg>
