<svg xmlns="http://www.w3.org/2000/svg" width="32" height="32" viewBox="0 0 656 438">
<g fill="#000" fill-rule="nonzero">
<path d="M131.1 10.6c-14.3 13.8-26 27.1-39.3 44.7-5.8 7.8-10.5 14.3-10.5 14.4.1 0 6.5.6 14.3 1.2 32.4 2.5 59.9 9.8 84.5 22.4 10.6 5.5 34.5 20.7 44.1 28.2 4 3.1 11.5 9.4 16.7 13.8 5.1 4.5 9.6 8.2 10 8.2.3 0 2.2 1 4.2 2.2 5.7 3.6 15.1 5.3 28.9 5.3 6.9 0 13.9-.4 15.5-.9 1.7-.5 6.8-4.7 11.5-9.3 4.7-4.5 10.6-9.4 13.3-10.8l4.7-2.5 4.7 2.5c2.7 1.4 8.6 6.3 13.3 10.8 4.7 4.6 9.8 8.8 11.5 9.3 1.6.5 8.6.9 15.5.9 13.8 0 23.2-1.7 28.9-5.3 2-1.2 3.9-2.2 4.2-2.2.4 0 4.9-3.7 10-8.2 5.2-4.4 12.7-10.7 16.7-13.8 9.6-7.5 33.5-22.7 44.1-28.2 24.6-12.6 52.1-19.9 84.5-22.4 7.8-.6 14.2-1.2 14.3-1.2.5-.5-22.5-30.1-29.9-38.5C537.3 20.4 516.1-.4 515.4.3c-.3.2 0 2.4.6 4.8 1.7 7.3 2.3 26.7 1.1 36.3-1.4 11.4-3.1 13.6-15.2 20.2-5.2 2.9-17.3 9.5-26.9 14.7-18.4 10.1-32.5 16-54.3 22.8l-13.2 4.1-39.3 1.1c-27.2.7-51.2.7-78.5 0l-39.2-1.1-13.2-4.1c-21.8-6.8-35.9-12.7-54.3-22.8-9.6-5.2-21.7-11.8-26.9-14.7-12.1-6.6-13.8-8.8-15.2-20.2-1.2-9.6-.6-29 1.1-36.3.6-2.4.9-4.6.6-4.8-.2-.3-5.4 4.4-11.5 10.3Z"/>
<path d="M65.3 79.1c-25.4 2.4-49.9 11.6-60.6 22.7l-3.8 3.9 6.8.7c14.5 1.5 36.2 8.4 48.3 15.6 9.7 5.7 14.1 9.1 21.6 16.7 14.1 14.2 25.9 35 34.8 61.3 6.4 19.1 8 29.1 7.2 47-.3 8-.8 15.5-1.2 16.8l-.7 2.3 5.4-2.2c9-3.6 15.9-5.6 29-8.3 20.3-4.1 34.5-5.6 70.9-7.1 19-.8 36.3-1.9 38.6-2.5 19-4.5 26.5-16.6 30.9-49.9 2.3-17.1 4.3-24.7 8.6-33.4 2.2-4.2 3.8-7.7 3.6-7.7-.2 0-3 .9-6.3 2.1-7.5 2.7-24.3 3.7-32.3 1.9-10.3-2.3-19.4-7.6-42.3-24.9-26.7-20-37.1-26-62.3-36.2-32.2-13-45.9-16.9-67.1-18.9-12.1-1.1-17-1.1-29.1.1Zm68.7 50.4c6.9.8 15.7 2.2 19.6 3 25.7 5.1 44.9 20.5 65.8 52.8 4.2 6.5 9.6 13.9 11.9 16.4 4.1 4.5 12.3 9.2 16.2 9.4 1.7 0 1.6.2-.5 1.1-4 1.7-31.9 2.2-40.8.8-35.2-5.6-55.6-22.7-76.9-64.4-3.9-7.8-8.3-14.9-11-17.7l-4.4-4.7 3.8.8c2.1.5 9.4 1.6 16.3 2.5Z"/>
<path d="M141 145.6c0 1.8 9.9 15.2 16.1 21.8 11.5 12.3 23 20.7 36 26.1 7.5 3.2 18.4 5.8 17.1 4.2-20.2-27-39.6-42.8-61.2-50.2-8.2-2.8-8-2.7-8-1.9ZM566.5 78.7C547 80.3 532 84 507 93.6c-33.2 12.7-45.6 19.5-72 39.8-22.7 17.5-29.7 21.7-41.5 25.1-8 2.4-25.5 1.6-33.9-1.4-3.3-1.1-6.1-2.1-6.3-2.1-.2 0 1.2 3 3.1 6.8 4.6 9.1 6.3 15.3 8.1 29.6 4.1 31.3 10.1 45.4 21.9 51 8.6 4.1 12.5 4.6 48.1 6.1 46.5 2 71.8 5.4 92.4 12.7 14 4.9 12.9 5.2 11.8-3.4-1.5-12.5-.3-33.9 2.7-44.9 9-34.1 26.9-65.4 46.2-81 16.5-13.3 40.2-23.1 61.7-25.4 3.7-.4 6.7-1.1 6.7-1.5 0-1.2-7.4-7.6-12.2-10.6-17.2-10.9-51.5-17.9-77.3-15.7Zm-25.7 51.8c-3.2 3.1-6.8 8.8-11.7 18.4-18.5 35.9-34.1 51.7-59.6 59.9-13.7 4.5-22.3 5.5-39.7 4.9-8.4-.3-16.6-1-18.3-1.5-2.9-1-2.9-1-.4-1.1 4.6-.2 12.7-5.1 17.2-10.4 2.4-2.9 8.3-11.2 13-18.4 14-21.4 30.6-37.3 45.9-44.2 9-4.1 15.5-5.6 37.3-8.6 10.4-1.5 19.2-2.8 19.4-3.1.2-.2.7-.4.9-.4.3 0-1.5 2-4 4.5Z"/>
<path d="M509.8 147.4c-14.9 5.3-31.5 16.2-42.9 28.4-7.5 7.9-19.3 22.2-18.8 22.6.2.2 3.4-.4 7.2-1.4 15.1-4 33.3-15.3 45.3-28.2 9-9.8 18.9-23.8 16.7-23.8-.5 0-3.8 1.1-7.5 2.4ZM46 136.7c0 4.3-.5 15-1.1 23.7l-1 15.8 3 7.3c3.9 9.3 8.4 26.8 10.7 41 2.3 14.9 2.3 48 .1 62-1.6 9.4-1.6 10.1.1 11.3.9.7 10 6.3 20.2 12.4 25.7 15.5 63.3 38.9 76.9 48.1 6.3 4.2 11.6 7.5 11.8 7.3.2-.2-.7-4.1-2.1-8.8-3.9-13.4-4.9-23.3-4.3-40.7.4-12.8 1-17.2 3.1-24.4 3.2-10.8 7.2-19.6 12-26.8 2-3 3.2-5.5 2.6-5.7-1.8-.6-21.5 2.8-33.3 5.8-10.3 2.6-16.9 4.9-34.3 11.8l-5 2 1.7-5.1c3.9-11.5 5.2-21.6 4.5-33.7-1.6-29.4-8.1-50-22.2-71.1-9.6-14.5-26.1-30.3-39.5-37.9l-3.9-2.1v7.8ZM605 133.1c-15.2 9.8-27.5 22.1-37.7 37.6-13 19.8-19.3 40.8-20.9 69.3-.7 12.1.6 22.2 4.5 33.7l1.7 5.1-5-2c-17.4-6.9-24-9.2-34.3-11.8-11.8-3-31.5-6.4-33.3-5.8-.6.2.6 2.7 2.6 5.7 4.8 7.2 8.8 16 12 26.8 2.1 7.2 2.7 11.6 3.1 24.4.6 17.4-.4 27.3-4.3 40.7-1.4 4.7-2.3 8.6-2.1 8.8.2.2 5.5-3.1 11.8-7.3 13.6-9.2 51.2-32.6 76.9-48.1 10.2-6.1 19.3-11.7 20.2-12.4 1.7-1.2 1.7-1.9.1-11.3-2.2-14-2.2-47.1.1-62 2.2-14.1 6.8-31.7 10.6-40.9l3.1-7.3-1.1-17.9c-.6-9.9-1.1-20.5-1.3-23.7l-.2-5.8-6.5 4.2ZM324.1 142.2c-4.8 6.6-12.7 22.5-16.1 32.6-4.7 14-3.8 21.7 3.7 32.8 6.7 9.9 9.2 14.7 13.2 25.5 3.9 10.1 4 10.3 5.1 7.4 4.2-11.7 7.9-19.6 12.1-26.3 8.9-14.1 10.4-17.9 10.3-25.7 0-10.3-6.3-26.9-16.1-42.5-5.9-9.4-7.7-9.9-12.2-3.8ZM298 210.2c0 3.8-5.6 19.3-9.3 25.8-9.3 16.3-17.2 20-47.7 22-21.8 1.4-33.9 2.7-37.8 4.1-2.5.8-3.3 1.8-3.9 4.7-.9 4.1-1.1 37.8-.2 38.6.3.3 3.6-.5 7.5-1.9 21.2-7.3 40.6-10.7 61.5-10.7h15.7l7.9-6.3c13.8-11 19.5-20.3 21.4-34.6 1.7-12.2.1-20-6.2-31-2.7-4.8-5.8-9.8-6.9-11.1l-1.9-2.3-.1 2.7ZM354.6 214.8c-8.9 13.7-10.1 17.2-10.1 29.7.1 13.9 1.9 20.3 8.3 28.7 2.6 3.5 8.5 9.4 13.2 13.1l8.5 6.9 8.9-.5c19.1-1 41.3 2.3 63 9.4 6.6 2.2 12.1 3.7 12.3 3.5 1.2-1.1 1.4-28.9.4-35.3-1.2-6.8-1.4-7.3-4.4-8.2-5.6-1.7-8.7-2.1-31.8-3.6-24.4-1.6-36-3.8-41.7-7.9-8.4-6-17.6-22.5-20.6-37.1l-1.3-6-4.7 7.3Z"/>
<path d="M328 253.1c0 6.5-14.6 26-28 37.6-10.9 9.3-16.6 13.3-32.2 22.4-19.4 11.3-29.5 18.6-40.4 29.4-10.9 10.8-19.7 23.2-23.3 32.8-2.5 6.9-3.9 16.7-2.3 16.7.6 0 4.5 2.7 8.6 6 4.2 3.3 7.9 6 8.3 6 .5 0 4.9-3.7 9.8-8.2 18.3-16.5 50.2-43.5 56-47.5 15.3-10.3 28.4-14.7 44.5-14.7 15.9-.1 29.1 4.3 44.5 14.7 5.8 4 37.7 31 56 47.5 5 4.5 9.3 8.2 9.8 8.2.4 0 4.1-2.7 8.3-6 4.1-3.3 8-6 8.6-6 1.6 0 .2-9.8-2.3-16.7-3.6-9.6-12.4-22-23.3-32.8-10.9-10.8-21-18.1-40.4-29.4-15.6-9.1-21.3-13.1-32.2-22.4-13.4-11.6-28-31.1-28-37.6 0-1.2-.4-2.1-1-2.1-.5 0-1 .9-1 2.1Z"/>
<path d="M184 273.9c-7 6.9-12.1 16.5-14.6 27.8-2.4 10.9-1.5 32.4 1.9 45.3 3.1 12.1 9.3 26.5 16 37.8l5.2 8.7.7-8.1c.8-10.1 2.2-15.2 6-22.9 8.4-16.6 23.5-33.6 38.8-43.7 4.7-3.1 13.5-8.1 19.7-11.2 6.1-3.1 11.5-6.1 11.9-6.8.5-.8-1.6-1-8.6-.5-16.9 1.2-42.9 7.5-59.2 14.3-3.2 1.3-6.2 2.4-6.7 2.4-1.9 0-4.4-22.4-3.9-35.9.2-7.2 0-13.1-.4-13.1s-3.5 2.6-6.8 5.9ZM466.7 280.7c.4 9.3.1 15.7-1.2 23.7-2.3 14.7-1.8 14-7.3 11.2-7.2-3.6-25.7-9.3-39.5-12.1-14.7-3-31.4-4.4-30.3-2.7.4.7 6 3.9 12.5 7.2 14.7 7.5 21.7 12 30.6 19.7 12 10.3 24.8 27.7 29.6 40.3 1.2 3 2.7 10 3.3 15.5l1.1 10 4.7-8c25.2-42.9 26.6-89.1 3.6-111.6-3.4-3.2-6.4-5.9-6.8-5.9-.4 0-.5 5.7-.3 12.7Z"/>
</g>
</svg>