<!-- Generated by IcoMoon.io -->
<svg version="1.1" xmlns="http://www.w3.org/2000/svg" width="32" height="32" viewBox="0 0 32 32">
<path fill="#444" d="M3.146 8.343c0.591-0.059 0.83-0.059 1.421-0.005 1.036 0.098 1.705 0.288 3.278 0.923 1.231 0.498 1.739 0.791 3.043 1.768 1.119 0.845 1.563 1.104 2.066 1.216 0.391 0.088 1.211 0.039 1.578-0.093 0.161-0.059 0.298-0.103 0.308-0.103s-0.068 0.171-0.176 0.376c-0.21 0.425-0.308 0.796-0.42 1.632-0.215 1.627-0.581 2.218-1.509 2.438-0.112 0.029-0.957 0.083-1.886 0.122-1.778 0.073-2.472 0.147-3.463 0.347-0.64 0.132-0.977 0.23-1.417 0.405l-0.264 0.107 0.034-0.112c0.020-0.064 0.044-0.43 0.059-0.821 0.039-0.874-0.039-1.363-0.352-2.296-0.435-1.285-1.011-2.301-1.7-2.994-0.366-0.371-0.581-0.537-1.055-0.816-0.591-0.352-1.651-0.689-2.359-0.762l-0.332-0.034 0.186-0.191c0.523-0.542 1.719-0.992 2.96-1.109zM6.502 10.805c-0.337-0.044-0.694-0.098-0.796-0.122l-0.186-0.039 0.215 0.23c0.132 0.137 0.347 0.484 0.537 0.865 1.040 2.037 2.037 2.872 3.756 3.146 0.435 0.068 1.798 0.044 1.993-0.039 0.103-0.044 0.107-0.054 0.024-0.054-0.191-0.010-0.591-0.239-0.791-0.459-0.112-0.122-0.376-0.484-0.581-0.801-1.021-1.578-1.959-2.33-3.214-2.579-0.191-0.039-0.62-0.107-0.957-0.147zM6.844 11.592c0-0.039-0.010-0.044 0.391 0.093 1.055 0.361 2.003 1.133 2.989 2.452 0.063 0.078-0.469-0.049-0.835-0.205-0.635-0.264-1.197-0.674-1.758-1.275-0.303-0.322-0.786-0.977-0.786-1.065zM27.628 8.324c1.26-0.107 2.936 0.234 3.776 0.767 0.234 0.147 0.596 0.459 0.596 0.518 0 0.020-0.147 0.054-0.327 0.073-1.050 0.112-2.208 0.591-3.014 1.241-0.943 0.762-1.817 2.291-2.257 3.957-0.147 0.537-0.205 1.583-0.132 2.193 0.054 0.42 0.107 0.405-0.576 0.166-1.006-0.357-2.242-0.523-4.514-0.62-1.739-0.073-1.929-0.098-2.35-0.298-0.576-0.274-0.869-0.962-1.070-2.491-0.088-0.699-0.171-1.001-0.396-1.446-0.093-0.186-0.161-0.332-0.151-0.332s0.147 0.049 0.308 0.103c0.41 0.147 1.265 0.186 1.656 0.068 0.576-0.166 0.918-0.371 2.027-1.226 1.29-0.992 1.895-1.324 3.517-1.944 1.221-0.469 1.954-0.65 2.906-0.728zM26.373 10.854c0.122-0.122 0.21-0.22 0.195-0.22-0.010 0-0.034 0.010-0.044 0.020-0.010 0.015-0.44 0.078-0.948 0.151-1.065 0.147-1.382 0.22-1.822 0.42-0.747 0.337-1.558 1.114-2.242 2.159-0.23 0.352-0.518 0.757-0.635 0.899-0.22 0.259-0.615 0.498-0.84 0.508-0.122 0.005-0.122 0.005 0.020 0.054 0.083 0.024 0.484 0.059 0.894 0.073 0.85 0.029 1.27-0.020 1.939-0.239 1.246-0.401 2.008-1.172 2.911-2.926 0.239-0.469 0.415-0.747 0.572-0.899zM24.858 11.68c0.181-0.063 0.342-0.117 0.366-0.117 0.107 0-0.376 0.684-0.816 1.163-0.586 0.63-1.475 1.182-2.213 1.377-0.186 0.049-0.342 0.078-0.352 0.068-0.024-0.020 0.552-0.718 0.918-1.104 0.557-0.596 1.368-1.128 2.096-1.387zM15.788 11.426c0.22-0.298 0.308-0.274 0.596 0.186 0.479 0.762 0.786 1.573 0.786 2.076 0.005 0.381-0.068 0.567-0.503 1.255-0.205 0.327-0.386 0.713-0.591 1.285-0.054 0.142-0.059 0.132-0.249-0.361-0.195-0.528-0.318-0.762-0.645-1.246-0.366-0.542-0.41-0.918-0.181-1.602 0.166-0.493 0.552-1.27 0.786-1.592zM14.513 14.747l0.005-0.132 0.093 0.112c0.054 0.063 0.205 0.308 0.337 0.542 0.308 0.537 0.386 0.918 0.303 1.514-0.093 0.699-0.371 1.153-1.045 1.69l-0.386 0.308h-0.767c-1.021 0-1.969 0.166-3.004 0.523-0.191 0.068-0.352 0.107-0.366 0.093-0.044-0.039-0.034-1.685 0.010-1.886 0.029-0.142 0.068-0.191 0.191-0.23 0.191-0.068 0.782-0.132 1.846-0.2 1.49-0.098 1.876-0.278 2.33-1.075 0.181-0.318 0.454-1.075 0.454-1.26zM17.277 14.972l0.23-0.357 0.064 0.293c0.147 0.713 0.596 1.519 1.006 1.812 0.278 0.2 0.845 0.308 2.037 0.386 1.128 0.073 1.28 0.093 1.553 0.176 0.147 0.044 0.156 0.068 0.215 0.401 0.049 0.313 0.039 1.671-0.020 1.724-0.010 0.010-0.278-0.064-0.601-0.171-1.060-0.347-2.144-0.508-3.077-0.459l-0.435 0.024-0.415-0.337c-0.23-0.181-0.518-0.469-0.645-0.64-0.313-0.41-0.401-0.723-0.405-1.402 0-0.611 0.059-0.782 0.493-1.451zM8.944 17.859c0.161-0.161 0.313-0.288 0.332-0.288s0.029 0.288 0.020 0.64c-0.024 0.659 0.098 1.754 0.191 1.754 0.024 0 0.171-0.054 0.327-0.117 0.796-0.332 2.066-0.64 2.892-0.699 0.342-0.024 0.444-0.015 0.42 0.024-0.020 0.034-0.283 0.181-0.581 0.332-0.303 0.151-0.733 0.396-0.962 0.547-0.747 0.493-1.485 1.324-1.895 2.135-0.186 0.376-0.254 0.625-0.293 1.119l-0.034 0.396-0.254-0.425c-0.327-0.552-0.63-1.255-0.782-1.846-0.166-0.63-0.21-1.68-0.093-2.213 0.122-0.552 0.371-1.021 0.713-1.358zM22.753 18.191c-0.010-0.342-0.005-0.62 0.015-0.62s0.166 0.132 0.332 0.288c1.123 1.099 1.055 3.356-0.176 5.451l-0.23 0.391-0.054-0.488c-0.029-0.269-0.103-0.611-0.161-0.757-0.234-0.615-0.86-1.465-1.446-1.969-0.435-0.376-0.777-0.596-1.495-0.962-0.317-0.161-0.591-0.317-0.611-0.352-0.054-0.083 0.762-0.015 1.48 0.132 0.674 0.137 1.578 0.415 1.929 0.591 0.269 0.137 0.244 0.171 0.357-0.547 0.064-0.391 0.078-0.703 0.059-1.158z"></path>
</svg>
