<!-- Generated by IcoMoon.io -->
<svg version="1.1" xmlns="http://www.w3.org/2000/svg" width="1169" height="1024" viewBox="0 0 1169 1024">
<g id="icomoon-ignore">
</g>
<path fill="#000" d="M135.339 298.837c-43.349 4.096-85.163 19.797-103.424 38.741l-6.485 6.656 11.605 1.195c24.747 2.56 61.781 14.336 82.432 26.624 16.555 9.728 24.064 15.531 36.864 28.501 24.064 24.235 44.203 59.733 59.392 104.619 10.923 32.597 13.653 49.664 12.288 80.213-0.512 13.653-1.365 26.453-2.048 28.672l-1.195 3.925 9.216-3.755c15.36-6.144 27.136-9.557 49.493-14.165 34.645-6.997 58.88-9.557 121.003-12.117 32.427-1.365 61.952-3.243 65.877-4.267 32.427-7.68 45.227-28.331 52.736-85.163 3.925-29.184 7.339-42.155 14.677-57.003 3.755-7.168 6.485-13.141 6.144-13.141s-5.12 1.536-10.752 3.584c-12.8 4.608-41.472 6.315-55.125 3.243-17.579-3.925-33.109-12.971-72.192-42.496-45.568-34.133-63.317-44.373-106.325-61.781-54.955-22.187-78.336-28.843-114.517-32.256-20.651-1.877-29.013-1.877-49.664 0.171zM252.587 384.853c11.776 1.365 26.795 3.755 33.451 5.12 43.861 8.704 76.629 34.987 112.299 90.112 7.168 11.093 16.384 23.723 20.309 27.989 6.997 7.68 20.992 15.701 27.648 16.043 2.901 0 2.731 0.341-0.853 1.877-6.827 2.901-54.443 3.755-69.632 1.365-60.075-9.557-94.891-38.741-131.243-109.909-6.656-13.312-14.165-25.429-18.773-30.208l-7.509-8.021 6.485 1.365c3.584 0.853 16.043 2.731 27.819 4.267z"></path>
<path fill="#000" d="M264.533 412.331c0 3.072 16.896 25.941 27.477 37.205 19.627 20.992 39.253 35.328 61.44 44.544 12.8 5.461 31.403 9.899 29.184 7.168-34.475-46.080-67.584-73.045-104.448-85.675-13.995-4.779-13.653-4.608-13.653-3.243zM990.72 298.155c-33.28 2.731-58.88 9.045-101.547 25.429-56.661 21.675-77.824 33.28-122.88 67.925-38.741 29.867-50.688 37.035-70.827 42.837-13.653 4.096-43.52 2.731-57.856-2.389-5.632-1.877-10.411-3.584-10.752-3.584s2.048 5.12 5.291 11.605c7.851 15.531 10.752 26.112 13.824 50.517 6.997 53.419 17.237 77.483 37.376 87.040 14.677 6.997 21.333 7.851 82.091 10.411 79.36 3.413 122.539 9.216 157.696 21.675 23.893 8.363 22.016 8.875 20.139-5.803-2.56-21.333-0.512-57.856 4.608-76.629 15.36-58.197 45.909-111.616 78.848-138.24 28.16-22.699 68.608-39.424 105.301-43.349 6.315-0.683 11.435-1.877 11.435-2.56 0-2.048-12.629-12.971-20.821-18.091-29.355-18.603-87.893-30.549-131.925-26.795zM946.859 386.56c-5.461 5.291-11.605 15.019-19.968 31.403-31.573 61.269-58.197 88.235-101.717 102.229-23.381 7.68-38.059 9.387-67.755 8.363-14.336-0.512-28.331-1.707-31.232-2.56-4.949-1.707-4.949-1.707-0.683-1.877 7.851-0.341 21.675-8.704 29.355-17.749 4.096-4.949 14.165-19.115 22.187-31.403 23.893-36.523 52.224-63.659 78.336-75.435 15.36-6.997 26.453-9.557 63.659-14.677 17.749-2.56 32.768-4.779 33.109-5.291 0.341-0.341 1.195-0.683 1.536-0.683 0.512 0-2.56 3.413-6.827 7.68z"></path>
<path fill="#000" d="M893.952 415.403c-25.429 9.045-53.76 27.648-73.216 48.469-12.8 13.483-32.939 37.888-32.085 38.571 0.341 0.341 5.803-0.683 12.288-2.389 25.771-6.827 56.832-26.112 77.312-48.128 15.36-16.725 32.256-40.619 28.501-40.619-0.853 0-6.485 1.877-12.8 4.096zM577.024 406.528c-8.192 11.264-21.675 38.4-27.477 55.637-8.021 23.893-6.485 37.035 6.315 55.979 11.435 16.896 15.701 25.088 22.528 43.52 6.656 17.237 6.827 17.579 8.704 12.629 7.168-19.968 13.483-33.451 20.651-44.885 15.189-24.064 17.749-30.549 17.579-43.861 0-17.579-10.752-45.909-27.477-72.533-10.069-16.043-13.141-16.896-20.821-6.485zM532.48 522.581c0 6.485-9.557 32.939-15.872 44.032-15.872 27.819-29.355 34.133-81.408 37.547-37.205 2.389-57.856 4.608-64.512 6.997-4.267 1.365-5.632 3.072-6.656 8.021-1.536 6.997-1.877 64.512-0.341 65.877 0.512 0.512 6.144-0.853 12.8-3.243 36.181-12.459 69.291-18.261 104.96-18.261h26.795l13.483-10.752c23.552-18.773 33.28-34.645 36.523-59.051 2.901-20.821 0.171-34.133-10.581-52.907-4.608-8.192-9.899-16.725-11.776-18.944l-3.243-3.925-0.171 4.608zM629.077 530.432c-15.189 23.381-17.237 29.355-17.237 50.688 0.171 23.723 3.243 34.645 14.165 48.981 4.437 5.973 14.507 16.043 22.528 22.357l14.507 11.776 15.189-0.853c32.597-1.707 70.485 3.925 107.52 16.043 11.264 3.755 20.651 6.315 20.992 5.973 2.048-1.877 2.389-49.323 0.683-60.245-2.048-11.605-2.389-12.459-7.509-13.995-9.557-2.901-14.848-3.584-54.272-6.144-41.643-2.731-61.44-6.485-71.168-13.483-14.336-10.24-30.037-38.4-35.157-63.317l-2.219-10.24-8.021 12.459z"></path>
<path fill="#000" d="M337.92 631.296c-11.947 11.776-20.651 28.16-24.917 47.445-4.096 18.603-2.56 55.296 3.243 77.312 5.291 20.651 15.872 45.227 27.307 64.512l8.875 14.848 1.195-13.824c1.365-17.237 3.755-25.941 10.24-39.083 14.336-28.331 40.107-57.344 66.219-74.581 8.021-5.291 23.040-13.824 33.621-19.115 10.411-5.291 19.627-10.411 20.309-11.605 0.853-1.365-2.731-1.707-14.677-0.853-28.843 2.048-73.216 12.8-101.035 24.405-5.461 2.219-10.581 4.096-11.435 4.096-3.243 0-7.509-38.229-6.656-61.269 0.341-12.288 0-22.357-0.683-22.357s-5.973 4.437-11.605 10.069zM820.395 642.901c0.683 15.872 0.171 26.795-2.048 40.448-3.925 25.088-3.072 23.893-12.459 19.115-12.288-6.144-43.861-15.872-67.413-20.651-25.088-5.12-53.589-7.509-51.712-4.608 0.683 1.195 10.24 6.656 21.333 12.288 25.088 12.8 37.035 20.48 52.224 33.621 20.48 17.579 42.325 47.275 50.517 68.779 2.048 5.12 4.608 17.067 5.632 26.453l1.877 17.067 8.021-13.653c43.008-73.216 45.397-152.064 6.144-190.464-5.803-5.461-10.923-10.069-11.605-10.069s-0.853 9.728-0.512 21.675z"></path>
</svg>
