<!-- Generated by IcoMoon.io -->
<svg version="1.1" xmlns="http://www.w3.org/2000/svg" width="22" height="32" viewBox="0 0 22 32">
<title>dst</title>
<path fill="#444" d="M21.262 12.506c-0.702-3.598-2.25-6.142-2.25-6.142l-4.754 13.535c0 0 0.347 0.102 0.818 0.33l6.187-7.723zM21.519 17.934c0.048-0.65 0.075-1.339 0.075-2.065 0-0.731-0.051-1.443-0.135-2.127l-5.581 6.983c0.413 0.3 0.941 0.734 1.255 1.216l4.385-4.008zM10.746 25.582c-1.756 0-2.301 1.588-2.301 1.588-2.478-1.345-4.518-3.655-4.518-3.655 0.021-0.302 0.084-0.581 0.171-0.836l-3.871-3.244c0.407 3.151 1.219 5.009 1.219 5.009s3.409 2.48 6.923 3.203c0 0-0.21 2.894 2.271 2.894h0.311c2.478 0 2.271-2.891 2.271-2.891 3.514-0.726 6.923-3.203 6.923-3.203s0.812-1.858 1.219-5.012l-3.871 3.244c0.087 0.258 0.15 0.537 0.171 0.836 0 0-2.040 2.313-4.521 3.655 0 0-0.542-1.588-2.298-1.588h-0.101zM6.519 20.229c0.47-0.231 0.818-0.33 0.818-0.33l-4.754-13.535c0 0-1.548 2.543-2.25 6.142l6.187 7.723zM4.461 21.942c0.314-0.485 0.842-0.916 1.255-1.216l-5.578-6.983c-0.087 0.683-0.138 1.396-0.138 2.127 0 0.725 0.027 1.414 0.075 2.065l4.385 4.008zM2.894 3.059h15.807l-5.89 17.769h-4.026l-5.89-17.769z"></path>
</svg>
