<!-- Generated by IcoMoon.io -->
<svg version="1.1" xmlns="http://www.w3.org/2000/svg" width="24" height="32" viewBox="0 0 24 32">
<title>dtk</title>
<path fill="#444" d="M10.468 5.318c0.548-0.824 0.926-1.746 1.326-2.648 0.299 0.764 0.646 1.51 1.041 2.231 0.191 0.319 0.38 0.702 0.768 0.806 1.933 0.759 3.707 1.847 5.538 2.811 0.731 0.45 1.571-0.001 2.184-0.442 0.709-0.524 1.455-1.254 1.41-2.209 0.61 0.028 0.961 0.683 0.784 1.236-0.554 2.19-1.164 4.366-1.778 6.54-0.031 0.161-0.154 0.272-0.26 0.386-0.881 0.909-1.753 1.827-2.627 2.743-0.242 0.235-0.408 0.567-0.378 0.911 0.048 0.473 0.498 0.823 0.952 0.875 0.303 0.047 0.598-0.056 0.881-0.15-0.451 1.188-1.143 2.266-1.873 3.299-1.075-0.174-2.251 0.179-2.944 1.044-0.699 0.8-0.774 1.993-0.349 2.941-1.081 1.245-2.197 2.461-3.349 3.64-1.174-1.164-2.273-2.401-3.374-3.633 0.235-0.584 0.349-1.236 0.2-1.856-0.226-1.005-1.078-1.8-2.060-2.063-0.473-0.141-0.972-0.111-1.459-0.087-0.7-1.046-1.408-2.107-1.852-3.293 0.497 0.235 1.163 0.258 1.561-0.176 0.413-0.358 0.333-1.018-0.028-1.382-0.936-0.964-1.856-1.945-2.792-2.909-0.087-0.080-0.145-0.177-0.173-0.291-0.603-2.143-1.19-4.292-1.75-6.447-0.082-0.329-0.097-0.716 0.124-0.996 0.15-0.209 0.409-0.272 0.638-0.356-0.033 1.027 0.783 1.798 1.562 2.338 0.563 0.376 1.314 0.751 1.969 0.367 1.681-0.866 3.292-1.875 5.042-2.606 0.366-0.187 0.84-0.244 1.069-0.624zM5.759 11.708c-0.005 0.627-0.002 1.253-0.003 1.88-0.024 0.153 0.083 0.271 0.161 0.389 1.052 1.494 2.087 3.003 3.134 4.5 0.171 0.241 0.321 0.497 0.53 0.709-0.005-1.413-0.003-2.827 0-4.24-1.272-1.082-2.544-2.162-3.821-3.237zM13.971 14.955c0.015 1.411-0.003 2.822 0.010 4.235 0.292-0.324 0.508-0.703 0.766-1.052 1.013-1.467 2.046-2.92 3.048-4.394 0.063-0.674 0.006-1.36 0.024-2.039-1.293 1.072-2.569 2.162-3.848 3.251z"></path>
<path fill="#444" d="M3.8 23.742c0.782-0.652 2.068-0.704 2.801 0.048 0.78 0.807 0.562 2.217-0.269 2.906-1.151 0.982-2.467 1.762-3.837 2.395 0.934-1.613 1.369-3.489 1.305-5.348z"></path>
<path fill="#444" d="M16.824 23.954c0.678-0.915 2.117-0.914 2.946-0.205-0.085 1.863 0.394 3.714 1.279 5.346-1.341-0.657-2.656-1.401-3.791-2.379-0.794-0.641-1.070-1.922-0.433-2.762z"></path>
</svg>
