<!-- Generated by IcoMoon.io -->
<svg version="1.1" xmlns="http://www.w3.org/2000/svg" width="22" height="32" viewBox="0 0 22 32">
<path fill="#444" d="M12.325 0.509c0.647 0.689 1.419 1.264 1.997 2.016-0.042 1.305-0.461 2.574-0.405 3.89 0.2-0.925 0.422-1.844 0.705-2.746 0.428 0.666 0.85 1.338 1.272 2.008 0.897 0.061 1.788 0.153 2.674 0.308 0.622 1.025 1.255 2.047 1.705 3.166-1.264 0.022-2.524-0.128-3.788-0.081 1.766 0.811 3.81 0.591 5.704 0.575 0.133 1.602 0.097 3.21 0.211 4.812-0.941 1.005-1.891 2.002-2.835 3.005-0.103 1.33 0.094 2.702-0.164 4.004-1.769 2.48-3.51 5.010-5.662 7.181 0.467-4.218 0.686-8.458 1.064-12.685 1.161-0.675 2.322-1.355 3.407-2.144 0.455-0.261 0.386-0.853 0.522-1.289-1.633 0.297-3.216 0.803-4.826 1.2-0.111 1.738-0.158 3.477-0.208 5.221-0.475 0.314-0.947 0.636-1.411 0.969 0.050-6.47-0.031-12.943 0.039-19.411zM4.542 5.074c1.924-1.369 3.929-2.613 5.845-3.993 0.069 2.632-0.031 5.271 0.119 7.903-0.514-1.233-1.216-2.499-2.435-3.152-1.069-0.619-2.327-0.691-3.529-0.758zM3.931 6.554c1.666-0.986 3.921-0.425 5.126 1.025 0.941 1.15 1.502 2.616 1.488 4.107 0.031 2.658 0.031 5.315 0.111 7.973-0.966 0.047-1.886 0.355-2.791 0.666 0.933 0.039 1.861 0.133 2.791 0.208 0.019 3.652 0.119 7.3 0.169 10.949-0.444-0.192-0.93-0.317-1.313-0.622-0.267-0.955-0.272-2.022-0.908-2.835-1.061-1.511-2.535-3.188-4.587-2.919-0.039-0.083-0.114-0.253-0.153-0.336 0.203-1.674 0.6-3.38 0.222-5.062-0.314-2.205-1.944-3.965-3.765-5.11-0.422-0.153-0.408-0.672-0.072-0.911 0.78-0.778 1.43-1.744 1.511-2.874 0.164-1.116-0.478-2.108-1.008-3.030 0.4-0.292 0.8-0.583 1.202-0.869 0.678 0.011 1.386 0.019 1.977-0.361zM5.372 13.113c0.658 0.961 1.688 1.638 2.891 1.53 0.505-0.578 0.566-1.302 0.092-1.916-1.014-0.094-2.030 0.014-2.982 0.386zM4.844 17.923c0.639 1.93 0.558 3.993 0.63 5.998 0.816 0.478 1.663 0.925 2.36 1.575 1.005 1.008 1.602 2.333 2.119 3.638-0.208-1.308-0.258-2.752-1.139-3.821-0.747-1.008-1.888-1.788-2.188-3.071-0.811-2.477-1.4-5.296-3.51-7.034 0.666 0.841 1.4 1.672 1.727 2.716zM16.041 26.709c0.619-0.78 1.225-1.572 1.83-2.363-0.358 1.361-0.517 2.821-1.2 4.074-0.886 1.122-1.972 2.072-2.988 3.071 0.764-1.602 1.211-3.388 2.358-4.782z"></path>
</svg>
