<!-- Generated by IcoMoon.io -->
<svg version="1.1" xmlns="http://www.w3.org/2000/svg" width="26" height="32" viewBox="0 0 26 32">
<title>e01</title>
<path fill="#444" d="M17.96 1.228c0.021-0.011 0.187-0.063 0.178-0.041-0.151 0.342-0.249 0.609-0.287 0.739-1.063 3.375-0.985 5.669 1.952 7.669 2.558 1.741 6.036 4.013 6.438 7.437-0.148 2.938-3.272 4.595-5.519 5.906-3.142 1.726-6.585 4.117-7.543 7.844-1.325-3.974-5.097-6.407-8.542-8.288-2.093-1.254-5.013-3.040-4.583-5.837 1.127-3.939 3.868-4.983 6.75-7.625 2.25-2.063 2.523-4.317 1.402-7.033-0.192-0.465-0.42-0.798-0.301-0.78 0.178 0.027 0.614 0.276 0.987 0.701 1.379 1.576 3.518 6.005-0.088 9.611-1.685 1.685-4.583 4.393-3.899 6.157s5.742 3.044 8.18 5.207c2.417-2.494 8.293-3.836 8.413-5.82s-3.265-4.171-4.943-6.106c-1.952-2.33-1.246-5.678 0.108-8.124 0.131-0.237 0.489-0.889 0.848-1.264 0.156-0.163 0.301-0.271 0.451-0.353zM13.152 2.785c0 0-0.053 1.735-0.778 4.090-0.498 1.619-0.733 2.272-1.061 2.977-0.557 1.198-0.95 1.718-1.44 2.749-0.32 0.658-0.645 1.325-0.803 2.054-0.134 0.895-0.038 1.84 0.353 2.65 0.478 1.076 1.398 1.898 2.458 2.228 0.527 0.2 1.095 0.136 1.643 0.131 1.607-0.186 3.017-1.567 3.362-3.272 0.298-1.112-0.074-2.604-0.572-3.599-0.372-0.78-1.017-1.69-1.438-2.75-0.469-1.181-0.729-2.219-1-3.24-0.494-1.863-0.561-3.239-0.724-4.018z"></path>
</svg>
