<!-- Generated by IcoMoon.io -->
<svg version="1.1" xmlns="http://www.w3.org/2000/svg" width="32" height="32" viewBox="0 0 32 32">
<path fill="#444" d="M15.989 31.756c-0.193-0.085-1.589-0.701-2.22-1.059-1.91-1.054-3.638-2.435-5.104-4.048-1.374-1.516-2.525-3.225-3.477-5.033-1.664-3.201-2.723-6.69-3.347-10.235-0.165-0.867-0.403-3.138-0.403-3.138 0.781-0.11 1.562-0.269 2.291-0.579 2.465-0.973 4.394-3.258 4.878-5.868 0.026-0.104 0.089-0.301 0.089-0.301s0.705-0.184 1.055-0.284c0.715-0.197 1.435-0.379 2.164-0.518 0.925-0.199 1.818-0.306 2.804-0.392 0.425-0.041 0.848-0.062 1.269-0.063v-0.001c0.429 0 0.86 0.021 1.292 0.063 0.986 0.087 1.879 0.193 2.804 0.392 0.729 0.139 1.449 0.321 2.164 0.518 0.35 0.101 1.055 0.284 1.055 0.284s2.502 5.196 4.967 6.169c0.729 0.31 1.51 0.469 2.291 0.579 0 0-0.238 2.271-0.403 3.138-0.624 3.545-1.683 7.035-3.347 10.235-0.953 1.808-2.103 3.517-3.477 5.033-1.466 1.614-3.194 2.994-5.104 4.048-0.631 0.359-2.027 0.975-2.22 1.059v0.011l-0.013-0.006-0.010 0.004v-0.009zM11.343 6.318c0.294-0.051 0.542-0.119 0.713-0.181 0.581-0.209 1.147-0.484 1.616-0.891 0.452-0.327 0.788-0.782 1.084-1.22 0.288-0.427 0.506-0.864 0.692-1.41 0.156-0.457 0.106-1.254 0.106-1.254s0.138-0.036-0.944 0.056c-0.502 0.043-1.063 0.119-1.614 0.21-0.867 0.143-1.709 0.322-2.256 0.463-0.099 0.026-0.188 0.050-0.266 0.072-0.030 0.009-0.064 0.018-0.1 0.028-0.197 0.054-0.462 0.117-0.621 0.155-0.085 0.020-0.141 0.033-0.141 0.033l-0.017 0.057c-0.033 0.114-0.109 0.37-0.151 0.506-0.296 1-0.796 1.93-1.408 2.771 0.29 0.178 0.611 0.292 0.929 0.407 0.692 0.3 1.478 0.315 2.115 0.236 0.088-0.009 0.176-0.023 0.264-0.039zM20.921 6.357c0.636 0.079 1.423 0.064 2.115-0.236 0.318-0.115 0.639-0.23 0.929-0.407-0.613-0.841-1.112-1.771-1.408-2.771-0.042-0.136-0.117-0.392-0.151-0.506l-0.017-0.057c0 0-0.055-0.013-0.141-0.033-0.16-0.038-0.424-0.102-0.622-0.155-0.036-0.010-0.070-0.019-0.1-0.028-0.078-0.023-0.167-0.047-0.266-0.072-0.547-0.141-1.389-0.32-2.256-0.463-0.551-0.091-1.113-0.167-1.614-0.21-1.082-0.092-0.944-0.056-0.944-0.056s-0.050 0.796 0.106 1.254c0.186 0.546 0.404 0.983 0.692 1.41 0.296 0.438 0.632 0.893 1.084 1.22 0.469 0.407 1.035 0.683 1.616 0.891 0.171 0.061 0.418 0.129 0.713 0.181 0.088 0.016 0.176 0.030 0.264 0.039zM7.811 23.748c0.485 0.732 1.050 1.408 1.629 2.067 0.415 0.42 0.835 0.836 1.251 1.255 1.172 1.059 2.458 2 3.861 2.73 0.32 0.175 0.629 0.385 0.99 0.468 0.022-0.916-0.002-1.833 0.012-2.749 0.018-0.281-0.311-1.247-0.565-1.807-0.451-0.992-1.385-1.799-2.415-2.275-0.622-0.284-1.3-0.427-1.981-0.467-0.98-0.010-1.918 0.342-2.781 0.778zM6.609 7.218c-1.136 0.969-2.517 1.637-3.973 1.964 0.223 1.668 0.541 3.323 0.946 4.957 0.792-0.24 1.584-0.544 2.238-1.064 0.564-0.412 0.985-0.986 1.324-1.59 0.356-0.703 0.543-1.483 0.585-2.268-0.030-0.834-0.234-1.666-0.632-2.402-0.184 0.107-0.333 0.26-0.488 0.403zM24.189 23.747c-0.863-0.437-1.801-0.788-2.781-0.778-0.681 0.040-1.359 0.183-1.981 0.467-1.031 0.477-1.964 1.284-2.415 2.275-0.255 0.56-0.583 1.526-0.565 1.807 0.014 0.916-0.010 1.833 0.012 2.749 0.361-0.082 0.67-0.293 0.99-0.468 1.403-0.73 2.688-1.672 3.861-2.73 0.416-0.419 0.836-0.835 1.251-1.255 0.579-0.659 1.144-1.335 1.629-2.067zM3.947 15.36c0.083 0.376 0.217 0.738 0.338 1.103 0.599 1.855 1.393 3.645 2.347 5.343 0.164 0.254 0.275 0.545 0.486 0.765 0.133-0.328 0.289-0.648 0.388-0.989 0.125-0.399 0.174-0.818 0.219-1.232 0.032-1.583-0.715-3.171-1.991-4.118-0.536-0.397-1.154-0.67-1.786-0.872zM25.391 7.217c-0.155-0.143-0.304-0.296-0.488-0.403-0.398 0.736-0.602 1.568-0.632 2.402 0.042 0.785 0.23 1.565 0.585 2.268 0.339 0.603 0.76 1.178 1.324 1.59 0.655 0.521 1.446 0.825 2.238 1.064 0.405-1.634 0.722-3.288 0.945-4.957-1.456-0.328-2.837-0.995-3.973-1.964zM28.053 15.359c-0.632 0.202-1.25 0.475-1.786 0.872-1.276 0.947-2.023 2.535-1.991 4.118 0.045 0.414 0.093 0.833 0.219 1.232 0.1 0.341 0.255 0.662 0.388 0.989 0.211-0.22 0.322-0.512 0.486-0.765 0.954-1.698 1.748-3.488 2.347-5.343 0.12-0.365 0.255-0.727 0.337-1.103zM15.99 3.747c-0.271 0.661-0.681 1.255-1.159 1.783-1.142 1.171-2.771 1.884-4.416 1.821-0.738 0.016-1.464-0.164-2.152-0.418 0.258 0.711 0.443 1.464 0.402 2.226 0.047 0.897-0.178 1.789-0.544 2.603-0.588 1.226-1.605 2.24-2.838 2.814-0.065 0.043-0.182 0.055-0.169 0.157 0.792 0.311 1.476 0.846 2.051 1.464 0.772 0.84 1.27 1.918 1.448 3.043 0.086 0.483 0.041 0.975 0.051 1.463-0.042 0.598-0.188 1.188-0.417 1.742 0.722-0.278 1.489-0.366 2.168-0.401 2.171-0.112 4.568 1.324 5.495 3.422 0.006 0.049 0.064 0.149 0.089 0.19 0.025-0.041 0.084-0.142 0.090-0.191 0.927-2.099 3.324-3.534 5.495-3.422 0.68 0.035 1.446 0.123 2.168 0.401-0.229-0.554-0.375-1.144-0.417-1.742 0.009-0.488-0.036-0.98 0.051-1.463 0.178-1.124 0.676-2.203 1.448-3.043 0.575-0.618 1.26-1.154 2.051-1.464 0.013-0.102-0.104-0.114-0.169-0.157-1.233-0.575-2.25-1.588-2.838-2.814-0.366-0.814-0.59-1.706-0.544-2.603-0.041-0.762 0.144-1.514 0.402-2.226-0.688 0.254-1.414 0.434-2.152 0.418-1.644 0.063-3.274-0.65-4.416-1.821-0.477-0.527-0.887-1.12-1.158-1.78v0.002l-0.011-0.024-0.010 0.020zM16 7.316c4.039 0 7.318 3.279 7.318 7.318s-3.279 7.318-7.318 7.318c-4.039 0-7.318-3.279-7.318-7.318s3.279-7.318 7.318-7.318zM16 8.288c-3.502 0-6.345 2.843-6.345 6.345s2.843 6.345 6.345 6.345c3.502 0 6.345-2.843 6.345-6.345s-2.843-6.345-6.345-6.345zM14.015 9.762c1.708-0.755 3.827-0.38 5.239 0.816 1.27 1.024 2.011 2.676 1.919 4.304-0.056 1.674-1.013 3.256-2.407 4.16-0.778 0.529-1.715 0.797-2.66 0.855l-0.013 0c-0.701 0.024-1.395-0.135-2.053-0.362-0.866-0.389-1.555-0.87-2.137-1.408 0 0 1.008-0.029 2.078-0.407 1.012-0.358 1.764-1.332 1.965-2.408l0.004-0.016c0.274-1.233-0.287-2.549-1.268-3.346-0.428-0.347-0.516-0.338-0.786-0.454-0.253-0.11-2.032-0.367-2.032-0.367 0.6-0.527 1.292-0.999 2.153-1.366zM14.409 10.651c0.284 0.164 0.585 0.301 0.841 0.509 1.332 0.96 2.005 2.743 1.649 4.345-0.257 1.376-1.256 2.57-2.541 3.11 0.546 0.189 1.121 0.329 1.703 0.31 0.763-0.046 1.532-0.258 2.167-0.692 1.141-0.736 1.932-2.025 1.974-3.393 0.079-1.33-0.527-2.678-1.565-3.511-1.138-0.97-2.849-1.287-4.228-0.677z"></path>
</svg>
