<!-- Generated by IcoMoon.io -->
<svg version="1.1" xmlns="http://www.w3.org/2000/svg" width="32" height="32" viewBox="0 0 32 32">
<path fill="#444" d="M16 8.288c3.502 0 6.345 2.843 6.345 6.345s-2.843 6.345-6.345 6.345c-3.502 0-6.345-2.843-6.345-6.345s2.843-6.345 6.345-6.345zM14.015 9.762c-0.861 0.368-1.553 0.839-2.153 1.366 0 0 1.779 0.257 2.032 0.367 0.27 0.117 0.358 0.107 0.786 0.454 0.981 0.797 1.542 2.112 1.268 3.346l-0.004 0.016c-0.201 1.076-0.953 2.050-1.965 2.408-1.070 0.379-2.078 0.407-2.078 0.407 0.582 0.538 1.271 1.019 2.137 1.408 0.658 0.228 1.353 0.386 2.054 0.362l0.013-0c0.946-0.057 1.882-0.325 2.66-0.855 1.394-0.904 2.351-2.486 2.407-4.16 0.093-1.628-0.649-3.279-1.919-4.304-1.412-1.196-3.531-1.571-5.239-0.816zM24.189 23.747c-0.485 0.732-1.050 1.408-1.629 2.067-0.415 0.42-0.835 0.836-1.251 1.255-1.172 1.059-2.458 2-3.861 2.73-0.32 0.175-0.629 0.385-0.99 0.468-0.022-0.916 0.002-1.833-0.012-2.749-0.017-0.281 0.311-1.247 0.565-1.807 0.451-0.992 1.385-1.799 2.415-2.275 0.622-0.284 1.3-0.427 1.981-0.467 0.98-0.010 1.918 0.342 2.781 0.778zM7.811 23.748c0.863-0.437 1.801-0.788 2.781-0.778 0.681 0.040 1.359 0.183 1.981 0.467 1.031 0.477 1.964 1.284 2.415 2.275 0.255 0.56 0.583 1.526 0.565 1.807-0.014 0.916 0.010 1.833-0.012 2.749-0.361-0.082-0.67-0.293-0.99-0.468-1.403-0.73-2.688-1.672-3.861-2.73-0.416-0.419-0.836-0.835-1.251-1.255-0.579-0.659-1.144-1.335-1.629-2.067zM11.079 6.358c-0.636 0.079-1.423 0.064-2.115-0.236-0.318-0.115-0.639-0.23-0.929-0.407 0.613-0.841 1.112-1.771 1.408-2.771 0.042-0.136 0.117-0.392 0.151-0.506 0.008-0.027 0.014-0.048 0.017-0.057 0 0 0.056-0.013 0.141-0.033 0.16-0.038 0.424-0.102 0.621-0.155 0.036-0.010 0.070-0.019 0.1-0.028 0.078-0.023 0.167-0.047 0.266-0.072 0.547-0.141 1.389-0.32 2.256-0.463 0.551-0.091 1.113-0.167 1.614-0.21 1.082-0.092 0.944-0.056 0.944-0.056s0.050 0.796-0.106 1.254c-0.186 0.546-0.404 0.984-0.692 1.41-0.296 0.438-0.632 0.893-1.084 1.22-0.469 0.407-1.035 0.683-1.616 0.891-0.171 0.061-0.418 0.129-0.713 0.181-0.084 0.015-0.173 0.028-0.264 0.039zM6.609 7.218c0.155-0.143 0.304-0.296 0.488-0.403 0.398 0.736 0.602 1.568 0.632 2.402-0.042 0.785-0.23 1.565-0.585 2.268-0.339 0.603-0.76 1.178-1.324 1.59-0.655 0.521-1.446 0.825-2.238 1.064-0.405-1.634-0.722-3.288-0.946-4.957 1.456-0.328 2.836-0.995 3.973-1.964zM3.947 15.36c0.632 0.202 1.25 0.475 1.786 0.872 1.276 0.947 2.023 2.535 1.991 4.118-0.045 0.414-0.093 0.833-0.219 1.232-0.1 0.341-0.255 0.662-0.388 0.989-0.211-0.22-0.322-0.512-0.486-0.765-0.954-1.698-1.748-3.488-2.347-5.343-0.12-0.365-0.255-0.727-0.337-1.103zM25.391 7.217c1.136 0.969 2.517 1.637 3.973 1.964-0.223 1.668-0.541 3.323-0.945 4.957-0.792-0.24-1.584-0.544-2.238-1.064-0.564-0.412-0.985-0.986-1.324-1.59-0.356-0.703-0.543-1.483-0.585-2.268 0.030-0.834 0.234-1.666 0.632-2.402 0.184 0.107 0.333 0.26 0.488 0.403zM28.053 15.359c-0.083 0.376-0.217 0.738-0.337 1.103-0.599 1.855-1.393 3.645-2.347 5.343-0.164 0.254-0.275 0.545-0.486 0.765-0.134-0.328-0.289-0.648-0.388-0.989-0.125-0.399-0.174-0.818-0.219-1.232-0.032-1.583 0.715-3.171 1.991-4.118 0.536-0.397 1.154-0.67 1.786-0.872zM20.657 6.317c-0.294-0.051-0.542-0.119-0.713-0.181-0.581-0.209-1.147-0.484-1.616-0.891-0.452-0.327-0.788-0.782-1.084-1.22-0.288-0.427-0.506-0.864-0.692-1.41-0.156-0.458-0.106-1.254-0.106-1.254s-0.138-0.036 0.944 0.056c0.502 0.043 1.063 0.119 1.614 0.21 0.867 0.143 1.709 0.322 2.256 0.463 0.099 0.026 0.188 0.050 0.266 0.072 0.031 0.009 0.064 0.018 0.1 0.028 0.198 0.054 0.462 0.117 0.622 0.155 0.085 0.020 0.141 0.033 0.141 0.033 0.003 0.010 0.009 0.030 0.017 0.057 0.033 0.114 0.109 0.37 0.151 0.506 0.296 1 0.796 1.93 1.408 2.771-0.29 0.178-0.611 0.292-0.929 0.407-0.692 0.3-1.478 0.315-2.115 0.236-0.091-0.011-0.179-0.025-0.264-0.039z"></path>
</svg>
