<!-- Generated by IcoMoon.io -->
<svg version="1.1" xmlns="http://www.w3.org/2000/svg" width="32" height="32" viewBox="0 0 32 32">
<path fill="#444" d="M11.343 6.318c-0.088 0.017-0.175 0.030-0.264 0.039 0.091-0.011 0.179-0.025 0.264-0.039zM20.921 6.357c-0.088-0.009-0.176-0.023-0.264-0.039 0.084 0.015 0.173 0.028 0.264 0.039zM15.99 3.747l0.010-0.020 0.011 0.024v-0.002c0.271 0.66 0.681 1.253 1.158 1.78 1.142 1.171 2.771 1.884 4.416 1.821 0.738 0.016 1.464-0.164 2.152-0.418-0.258 0.711-0.443 1.464-0.402 2.226-0.047 0.897 0.178 1.789 0.544 2.603 0.588 1.226 1.605 2.24 2.838 2.814 0.065 0.043 0.182 0.055 0.169 0.157-0.792 0.311-1.476 0.846-2.051 1.464-0.772 0.84-1.27 1.918-1.448 3.043-0.086 0.483-0.041 0.975-0.051 1.463 0.042 0.597 0.188 1.188 0.417 1.742-0.722-0.278-1.489-0.366-2.168-0.401-2.171-0.112-4.568 1.324-5.495 3.422-0.006 0.049-0.065 0.151-0.090 0.191-0.025-0.041-0.083-0.141-0.089-0.19-0.927-2.099-3.324-3.534-5.495-3.422-0.68 0.035-1.446 0.123-2.168 0.401 0.229-0.554 0.375-1.144 0.417-1.742-0.009-0.488 0.036-0.98-0.051-1.463-0.178-1.124-0.676-2.203-1.448-3.043-0.575-0.618-1.26-1.154-2.051-1.464-0.013-0.102 0.104-0.114 0.169-0.157 1.233-0.575 2.25-1.588 2.838-2.814 0.366-0.814 0.591-1.706 0.544-2.603 0.041-0.762-0.144-1.514-0.402-2.226 0.688 0.254 1.414 0.434 2.152 0.418 1.644 0.063 3.274-0.65 4.416-1.821 0.478-0.528 0.889-1.122 1.159-1.783zM16 7.316c-4.039 0-7.318 3.279-7.318 7.318s3.279 7.318 7.318 7.318c4.039 0 7.318-3.279 7.318-7.318s-3.279-7.318-7.318-7.318zM14.409 10.651c1.379-0.61 3.089-0.293 4.228 0.677 1.038 0.833 1.644 2.181 1.565 3.511-0.043 1.368-0.833 2.656-1.974 3.393-0.635 0.435-1.404 0.646-2.167 0.693-0.582 0.020-1.157-0.121-1.703-0.31 1.285-0.54 2.284-1.734 2.541-3.11 0.356-1.602-0.317-3.385-1.649-4.345-0.256-0.209-0.557-0.346-0.841-0.509z"></path>
</svg>
