<!-- Generated by IcoMoon.io -->
<svg version="1.1" xmlns="http://www.w3.org/2000/svg" width="32" height="32" viewBox="0 0 32 32">
<path fill="#444" d="M15.989 31.756c-0.193-0.085-1.589-0.701-2.22-1.059-1.91-1.054-3.638-2.435-5.104-4.048-1.374-1.516-2.525-3.225-3.477-5.033-1.664-3.201-2.723-6.69-3.347-10.235-0.165-0.867-0.403-3.138-0.403-3.138 0.781-0.11 1.562-0.269 2.291-0.579 2.465-0.973 4.394-3.258 4.878-5.868 0.026-0.104 0.089-0.301 0.089-0.301s0.705-0.184 1.055-0.284c0.715-0.197 1.435-0.379 2.164-0.518 0.925-0.199 1.818-0.306 2.804-0.392 0.425-0.041 0.848-0.062 1.269-0.063v-0.001c0.429 0 0.86 0.021 1.292 0.063 0.986 0.087 1.879 0.193 2.804 0.392 0.729 0.139 1.449 0.321 2.164 0.518 0.35 0.101 1.055 0.284 1.055 0.284s2.502 5.196 4.967 6.169c0.729 0.31 1.51 0.469 2.291 0.579 0 0-0.238 2.271-0.403 3.138-0.624 3.545-1.683 7.035-3.347 10.235-0.953 1.808-2.103 3.517-3.477 5.033-1.466 1.614-3.194 2.994-5.104 4.048-0.631 0.359-2.027 0.975-2.22 1.059v0.011l-0.013-0.006-0.010 0.004v-0.009zM27.122 14.938l0.601-0.182-0.65-0.308c0 0-0.157-0.073-0.204-0.104l-0.017-0.011-0.018-0.009c-1.174-0.547-2.142-1.512-2.703-2.679-0.347-0.774-0.563-1.621-0.519-2.473l0.001-0.015-0.001-0.015c-0.039-0.725 0.14-1.44 0.385-2.116l0.203-0.562-0.561 0.207c-0.656 0.242-1.347 0.416-2.050 0.401l-0.008-0-0.008 0c-1.565 0.060-3.114-0.62-4.201-1.733-0.455-0.503-0.825-1.072-1.082-1.701l-0.001-0.002-0.309-0.715-0.25 0.727c-0.258 0.627-0.648 1.19-1.101 1.69-1.088 1.114-2.638 1.794-4.203 1.734l-0.008-0-0.008 0c-0.703 0.015-1.394-0.159-2.050-0.401l-0.561-0.207 0.204 0.562c0.246 0.679 0.419 1.405 0.397 2.124-0.023 0.771-0.181 1.712-0.53 2.492-0.561 1.168-1.53 2.134-2.704 2.681l-0.018 0.009-0.017 0.011c-0.051 0.033-0.207 0.113-0.207 0.113l-0.617 0.319 0.552 0.152 0 0.003 0.154 0.060c0.753 0.295 1.402 0.806 1.949 1.394 0.735 0.8 1.208 1.827 1.378 2.898l0 0.003c0.083 0.467 0.039 0.94 0.047 1.41-0.041 0.563-0.18 1.12-0.396 1.642l-0.247 0.597 0.604-0.232c0.694-0.267 1.43-0.349 2.083-0.383 2.063-0.106 4.34 1.258 5.224 3.251 0.031 0.099 0.091 0.249 0.091 0.249l0.257 0.609 0.256-0.61c0 0 0.059-0.151 0.091-0.251 0.884-1.992 3.16-3.356 5.224-3.25 0.653 0.034 1.389 0.116 2.083 0.383l0.603 0.232-0.247-0.597c-0.216-0.522-0.355-1.079-0.396-1.643 0.008-0.47-0.037-0.943 0.046-1.407l0-0.003c0.17-1.073 0.643-2.101 1.378-2.901 0.547-0.588 1.196-1.099 1.949-1.394l0.135-0.053zM16 7.316c4.039 0 7.318 3.279 7.318 7.318s-3.279 7.318-7.318 7.318c-4.039 0-7.318-3.279-7.318-7.318s3.279-7.318 7.318-7.318zM16 8.288c-3.502 0-6.345 2.843-6.345 6.345s2.843 6.345 6.345 6.345c3.502 0 6.345-2.843 6.345-6.345s-2.843-6.345-6.345-6.345zM14.015 9.762c1.708-0.755 3.827-0.38 5.239 0.816 1.27 1.024 2.011 2.676 1.919 4.304-0.056 1.674-1.013 3.256-2.407 4.16-0.778 0.529-1.715 0.797-2.66 0.855l-0.013 0c-0.701 0.024-1.395-0.135-2.053-0.362-0.866-0.389-1.555-0.87-2.137-1.408 0 0 1.008-0.029 2.078-0.407 1.012-0.358 1.764-1.332 1.965-2.408l0.004-0.016c0.274-1.233-0.287-2.549-1.268-3.346-0.428-0.347-0.516-0.338-0.786-0.454-0.253-0.11-2.032-0.367-2.032-0.367 0.6-0.527 1.292-0.999 2.153-1.366z"></path>
</svg>
