<!-- Generated by IcoMoon.io -->
<svg version="1.1" xmlns="http://www.w3.org/2000/svg" width="31" height="32" viewBox="0 0 31 32">
<path fill="#444" d="M16.489 2.115h0.529c1.629 0.030 3.255 0.343 4.773 0.938 2.17 0.842 4.114 2.249 5.608 4.032 0.29 0.349 0.568 0.708 0.833 1.076 0.776 1.124 1.316 2.39 1.774 3.671 0.403 1.252 0.624 2.562 0.66 3.877v0.498c-0.035 1.211-0.195 2.422-0.531 3.587-0.566 1.993-1.59 3.851-2.964 5.4-1.297 1.465-2.905 2.653-4.689 3.457-1.478 0.668-3.076 1.073-4.694 1.186-0.285 0.014-0.571 0.026-0.855 0.048h-0.435c-1.437-0.034-2.869-0.285-4.226-0.76-2.25-0.782-4.283-2.165-5.852-3.956-0.797-0.907-1.476-1.918-2.017-2.998-1.246-0.431-2.355-1.249-3.135-2.312-0.783-1.056-1.227-2.355-1.267-3.668v-0.294c0.017-1.401 0.51-2.788 1.377-3.887 0.771-0.988 1.832-1.744 3.015-2.159 0.632-1.268 1.455-2.44 2.434-3.464 1.617-1.693 3.666-2.974 5.905-3.663 1.216-0.378 2.485-0.577 3.758-0.609zM16.243 3.173c0.224 0.747 0.739 1.359 1.264 1.916 0.381 0.418 0.868 0.718 1.292 1.087 0.7 0.645 1.17 1.536 1.3 2.48 0.11 0.77-0.001 1.558-0.247 2.291 0.715 1.085 1.199 2.321 1.406 3.604 0.25 1.556 0.091 3.177-0.458 4.655-0.737 1.999-2.192 3.721-4.035 4.786-1.202 0.7-2.565 1.122-3.952 1.219-1.415 0.105-2.855-0.123-4.167-0.666-1.037-0.427-1.993-1.047-2.81-1.814 1.274 2.068 3.146 3.762 5.334 4.816 1.451 0.706 3.038 1.128 4.646 1.253-0.035-0.47 0.025-0.946 0.184-1.39 0.191-0.542 0.519-1.028 0.913-1.443 0.79-0.817 1.795-1.404 2.856-1.796 1.37-0.48 2.665-1.189 3.775-2.129 0.786-0.668 1.491-1.443 2.025-2.328 0.196-0.318 0.333-0.666 0.46-1.016 0.254-0.709 0.421-1.452 0.478-2.204 0.115-1.423-0.179-2.866-0.787-4.154-0.477-1.006-1.118-1.941-1.921-2.715-0.853-0.876-1.589-1.904-1.952-3.083-0.237-0.77-0.3-1.603-0.114-2.391-1.128-0.474-2.32-0.796-3.537-0.933-0.648-0.070-1.302-0.111-1.952-0.047zM10.958 4.551c-2.1 1.063-3.892 2.718-5.126 4.722 0.817-0.77 1.775-1.39 2.812-1.817 1.323-0.547 2.776-0.775 4.202-0.663 2.216 0.16 4.347 1.174 5.892 2.766 0.061-1.304-0.477-2.628-1.46-3.493-0.355-0.303-0.707-0.613-1.011-0.969-0.455-0.524-0.839-1.158-0.882-1.866-1.539 0.172-3.049 0.616-4.428 1.321zM22.528 4.502c0.015 0.452 0.071 0.903 0.178 1.342 0.259 1.061 0.817 2.068 1.655 2.78 0.314 0.252 0.625 0.508 0.911 0.792 0.454 0.44 0.843 0.941 1.194 1.466 0.726 1.089 1.241 2.32 1.49 3.606 0.296 1.546 0.243 3.168-0.2 4.681-0.468 1.406-1.391 2.633-2.529 3.57-0.992 0.816-2.134 1.441-3.336 1.888-0.527 0.201-1.079 0.327-1.607 0.53-0.701 0.263-1.376 0.609-1.968 1.069-0.841 0.648-1.516 1.566-1.716 2.624 0.509 0.035 1.020-0.011 1.527-0.057 0.716-0.077 1.427-0.205 2.118-0.41 0.99-0.293 1.953-0.685 2.85-1.197 1.715-0.971 3.199-2.345 4.304-3.977 1.156-1.702 1.897-3.685 2.128-5.73 0.068-0.565 0.132-1.132 0.115-1.702-0.015-0.807-0.109-1.612-0.278-2.402-0.132-0.598-0.288-1.193-0.524-1.759-0.242-0.609-0.494-1.214-0.803-1.792-0.535-1.028-1.245-1.959-2.050-2.789-1.002-1.028-2.178-1.885-3.459-2.532zM10.645 7.933c-1.258 0.246-2.444 0.811-3.455 1.594 1.317 0.132 2.589 0.674 3.594 1.535 0.833 0.708 1.484 1.628 1.869 2.652 0.511 1.348 0.553 2.869 0.109 4.241-0.417 1.296-1.246 2.458-2.342 3.268-0.941 0.698-2.074 1.127-3.239 1.244 0.69 0.534 1.458 0.968 2.277 1.268 1.28 0.474 2.684 0.593 4.029 0.367 1.383-0.227 2.702-0.823 3.793-1.703 0.929-0.747 1.693-1.697 2.221-2.765 0.664-1.335 0.948-2.853 0.819-4.338-0.107-1.275-0.521-2.524-1.197-3.611-0.683-1.103-1.629-2.041-2.739-2.714-1.698-1.036-3.785-1.424-5.739-1.039zM3.702 11.269c-0.975 0.585-1.762 1.476-2.218 2.518-0.481 1.089-0.591 2.336-0.313 3.493 0.326 1.388 1.22 2.628 2.426 3.386 1.159 0.735 2.605 1.026 3.952 0.742 0.652-0.215 1.238-0.616 1.697-1.124 0.885-0.984 1.263-2.381 1.055-3.682-0.132-0.83-0.521-1.637-1.163-2.192-0.536-0.472-1.234-0.737-1.942-0.795-0.389-0.031-0.788-0.033-1.164 0.084-0.589 0.177-1.088 0.586-1.436 1.087-0.487 0.701-0.713 1.596-0.548 2.44 0.141 0.722 0.518 1.378 0.985 1.939 0.094 0.107 0.183 0.221 0.297 0.308-0.010 0-0.028-0-0.037-0-0.41-0.144-0.799-0.35-1.135-0.626-0.574-0.458-0.975-1.124-1.104-1.847-0.31-1.694 0.577-3.542 2.105-4.343 0.762-0.404 1.655-0.492 2.502-0.398 1.225 0.147 2.394 0.75 3.209 1.679 0.586 0.654 0.979 1.469 1.15 2.328 0.052-0.357 0.014-0.72-0.033-1.075-0.204-1.428-1.004-2.755-2.161-3.614-0.921-0.692-2.065-1.083-3.217-1.093-1.017-0.016-2.036 0.259-2.906 0.784z"></path>
</svg>
