<!-- Generated by IcoMoon.io -->
<svg version="1.1" xmlns="http://www.w3.org/2000/svg" width="31" height="32" viewBox="0 0 31 32">
<path fill="#444" d="M3.702 11.269c0.87-0.526 1.889-0.801 2.906-0.784 1.153 0.011 2.296 0.401 3.217 1.093 1.158 0.859 1.957 2.186 2.161 3.614 0.047 0.355 0.086 0.718 0.033 1.075-0.172-0.859-0.565-1.674-1.15-2.328-0.815-0.929-1.984-1.532-3.209-1.679-0.847-0.095-1.74-0.006-2.502 0.398-1.529 0.8-2.416 2.649-2.105 4.343 0.13 0.723 0.531 1.39 1.104 1.847 0.336 0.276 0.725 0.481 1.135 0.626 0.009 0 0.028 0 0.037 0-0.114-0.087-0.202-0.201-0.297-0.308-0.467-0.561-0.844-1.217-0.985-1.939-0.165-0.844 0.062-1.739 0.548-2.44 0.347-0.501 0.847-0.91 1.436-1.087 0.376-0.118 0.776-0.116 1.164-0.084 0.708 0.058 1.407 0.323 1.942 0.795 0.642 0.555 1.031 1.362 1.163 2.192 0.209 1.301-0.17 2.698-1.055 3.682-0.458 0.509-1.045 0.909-1.697 1.124-1.347 0.284-2.793-0.006-3.952-0.742-1.207-0.758-2.1-1.998-2.426-3.386-0.278-1.157-0.168-2.404 0.313-3.493 0.456-1.042 1.243-1.933 2.218-2.518zM29.645 15.981c-0.001 0.501-0.058 1-0.118 1.498-0.231 2.045-0.972 4.028-2.128 5.73-1.105 1.632-2.589 3.005-4.304 3.977-0.898 0.512-1.86 0.904-2.85 1.197-0.691 0.205-1.403 0.333-2.118 0.41-0.155 0.014-0.311 0.028-0.467 0.040-0.252 0.017-0.506 0.027-0.762 0.029-0.099-0.001-0.199-0.005-0.298-0.012 0.2-1.058 0.875-1.976 1.716-2.624 0.593-0.461 1.268-0.807 1.968-1.069 0.527-0.203 1.079-0.329 1.607-0.53 1.202-0.447 2.344-1.072 3.336-1.888 1.138-0.937 2.061-2.164 2.529-3.57 0.443-1.513 0.495-3.134 0.2-4.681-0.249-1.286-0.764-2.517-1.49-3.606-0.351-0.524-0.74-1.026-1.194-1.466-0.286-0.284-0.597-0.54-0.911-0.792-0.838-0.712-1.396-1.719-1.655-2.78-0.107-0.439-0.164-0.89-0.178-1.342 1.281 0.648 2.456 1.504 3.459 2.532 0.805 0.831 1.515 1.761 2.050 2.789 0.309 0.578 0.562 1.184 0.803 1.792 0.237 0.566 0.393 1.161 0.524 1.759 0.169 0.79 0.263 1.595 0.278 2.402 0.001 0.035 0.002 0.070 0.002 0.104 0 0.033 0.001 0.066 0.001 0.1zM16.863 3.141c0.275 0.002 0.548 0.012 0.819 0.031 0.171 0.013 0.342 0.029 0.512 0.048 1.216 0.137 2.409 0.458 3.537 0.933-0.185 0.788-0.122 1.621 0.114 2.391 0.363 1.179 1.099 2.207 1.952 3.083 0.804 0.773 1.444 1.708 1.921 2.715 0.608 1.288 0.902 2.731 0.787 4.154-0.058 0.752-0.224 1.494-0.478 2.204-0.127 0.35-0.263 0.699-0.46 1.016-0.534 0.885-1.239 1.66-2.025 2.328-1.109 0.94-2.405 1.648-3.775 2.129-1.061 0.392-2.067 0.979-2.856 1.796-0.394 0.415-0.722 0.901-0.913 1.443-0.159 0.443-0.218 0.92-0.184 1.39-1.608-0.125-3.195-0.547-4.646-1.253-2.189-1.054-4.061-2.748-5.334-4.816 0.817 0.767 1.773 1.387 2.81 1.814 1.312 0.542 2.751 0.771 4.167 0.666 1.387-0.097 2.75-0.519 3.952-1.219 1.844-1.066 3.299-2.787 4.035-4.786 0.55-1.478 0.709-3.098 0.458-4.655-0.207-1.283-0.691-2.519-1.406-3.604 0.246-0.733 0.357-1.521 0.247-2.291-0.129-0.944-0.599-1.835-1.3-2.48-0.425-0.369-0.911-0.669-1.292-1.087-0.525-0.557-1.041-1.169-1.265-1.916 0.207-0.020 0.414-0.030 0.621-0.032zM10.958 4.551c1.38-0.705 2.889-1.15 4.428-1.321 0.043 0.708 0.427 1.342 0.882 1.866 0.304 0.355 0.655 0.666 1.011 0.969 0.983 0.865 1.521 2.19 1.46 3.493-1.545-1.592-3.676-2.606-5.892-2.766-1.427-0.111-2.88 0.116-4.202 0.663-1.038 0.428-1.996 1.048-2.812 1.817 1.234-2.004 3.026-3.659 5.126-4.722z"></path>
</svg>
