<!-- Generated by IcoMoon.io -->
<svg version="1.1" xmlns="http://www.w3.org/2000/svg" width="26" height="32" viewBox="0 0 26 32">
<title>eld</title>
<path fill="#444" d="M12.993 0c1.551 1.232 2.944 2.803 3.537 4.727-1.409 0.815-2.215 2.55-1.878 4.148 1.037-0.217 1.98-0.859 2.537-1.764 0.338-0.527 0.529-1.137 0.599-1.757 0.759-0.398 1.516-0.8 2.284-1.182-0.059 1.333-0.122 2.667-0.075 4.003 0.367 0.268 0.648 0.655 0.763 1.098-1.111 1.217-2.642 1.949-4.201 2.405-2.434 0.739-5.088 0.691-7.496-0.12-1.423-0.455-2.805-1.168-3.819-2.288 0.115-0.424 0.37-0.81 0.731-1.063 0.071-0.26 0.033-0.533 0.041-0.799 0.012-1.082-0.024-2.166-0.108-3.243 0.778 0.377 1.539 0.793 2.309 1.188 0.128 1.696 1.464 3.207 3.139 3.521 0.157-0.935 0.014-1.926-0.482-2.741-0.339-0.574-0.826-1.059-1.4-1.399 0.58-1.929 1.983-3.487 3.519-4.733zM3.426 7.087c-0.77 0.185-1.45 0.726-1.784 1.447-0.335 0.686-0.358 1.503-0.102 2.219-0.8 0.612-1.448 1.508-1.519 2.538-0.059 0.903 0.285 1.806 0.846 2.506 0.152-0.791 0.532-1.549 1.131-2.095 0.7-0.588 1.755-0.788 2.585-0.365 0.532 0.271 0.886 0.82 0.98 1.402 0.068 0.54 0.002 1.091-0.166 1.608-0.352 1.105-0.956 2.107-1.574 3.081-0.391 0.625-0.585 1.37-0.558 2.107-0.027 0.817 0.165 1.632 0.481 2.382 0.378-0.863 1.14-1.547 2.049-1.803 1.109-0.308 2.369-0.217 3.353 0.412-0.002-1.456 0-2.912-0.001-4.368-0.526 0.591-1.285 0.919-2.056 1.036 1.23-1.265 1.917-3 2.041-4.748 0.027-0.559 0.010-1.118 0.014-1.677-1.318-0.405-2.575-1.011-3.702-1.804-0.322-0.238-0.648-0.482-0.901-0.796-0.401-0.462-0.465-1.163-0.223-1.715 0.189-0.437 0.548-0.771 0.95-1.014-0.487-0.468-1.222-0.501-1.846-0.352zM20.736 7.432c0.656 0.396 1.198 1.121 1.072 1.922-0.054 0.629-0.552 1.074-1.018 1.435-1.178 0.885-2.523 1.538-3.928 1.976 0.020 0.785-0.054 1.578 0.084 2.356 0.225 1.509 0.897 2.961 1.952 4.069-0.76-0.123-1.526-0.435-2.036-1.032 0.002 1.454 0.002 2.907 0 4.36 0.969-0.613 2.202-0.709 3.297-0.42 0.927 0.249 1.709 0.94 2.098 1.815 0.564-1.357 0.745-3.005 0.009-4.334-0.585-0.945-1.186-1.894-1.565-2.944-0.212-0.603-0.367-1.253-0.261-1.893 0.090-0.601 0.467-1.169 1.025-1.428 0.843-0.403 1.891-0.177 2.581 0.424 0.574 0.548 0.937 1.292 1.093 2.066 0.558-0.732 0.924-1.652 0.83-2.585-0.086-1.001-0.726-1.871-1.506-2.463 0.27-0.769 0.225-1.656-0.18-2.372-0.438-0.816-1.334-1.351-2.257-1.371-0.464-0.040-0.942 0.106-1.29 0.419zM10.191 13.033c-0.002 4.873 0.002 9.744-0.002 14.616-0.016 0.241 0.102 0.46 0.186 0.679 0.597 1.396 1.515 2.648 2.633 3.672 1.202-1.155 2.245-2.538 2.778-4.132 0.015-4.953 0.003-9.907 0.006-14.861-0.662 0.152-1.337 0.223-2.011 0.288-0.106 3.738-0.198 7.477-0.337 11.214-0.044 1.269-0.046 2.567-0.442 3.786-0.296-0.838-0.349-1.732-0.41-2.612-0.143-4.126-0.27-8.251-0.366-12.378-0.684-0.053-1.365-0.134-2.036-0.273z"></path>
</svg>
