<!-- Generated by IcoMoon.io -->
<svg version="1.1" xmlns="http://www.w3.org/2000/svg" width="25" height="32" viewBox="0 0 25 32">
<title>eld</title>
<path fill="#444" d="M6.819 19.319c1.952-2.187 1.602-6.309 1.602-6.309-1.752-0.641-3.249-1.356-4.283-2.594-1.402-1.689 0.55-2.965 0.55-2.965-4.294-0.242-3.154 3.256-3.154 3.256-2.709 2.103-0.932 4.795-0.932 4.795 0.438-1.532 2.362-3.154 4.024-2.103s0.582 3.526 0.582 3.526c-0.406 0.828-0.891 1.616-1.447 2.352-1.108 1.546-0.291 4.108-0.291 4.108 2.418-2.804 5.257-0.873 5.257-0.873v-3.855c-0.478 0.536-1.199 0.786-1.907 0.662zM23.341 10.694c0 0 1.15-3.505-3.154-3.256 0 0 1.963 1.276 0.55 2.965-1.034 1.237-2.534 1.952-4.283 2.594 0 0-0.351 4.136 1.602 6.309-0.702 0.122-1.417-0.126-1.893-0.655v3.855c0 0 2.839-1.924 5.257 0.873 0 0 0.817-2.562-0.291-4.108-0.562-0.741-1.052-1.534-1.462-2.369s-1.076-2.478 0.585-3.526c1.661-1.048 3.582 0.582 4.020 2.103 0 0.011 1.777-2.685-0.932-4.784zM13.258 19.978c0 0 0.070 5.37-0.203 7.255-0.075 0.378-0.294 0.712-0.61 0.932-0.318-0.22-0.537-0.554-0.613-0.932-0.273-1.886-0.203-7.255-0.203-7.255v-6.309c-0.594-0.023-1.183-0.121-1.752-0.291v14.661c0.524 1.508 1.404 2.866 2.566 3.961 1.161-1.095 2.041-2.453 2.566-3.961v-14.665c-0.57 0.17-1.158 0.268-1.752 0.291zM19.875 9.285c-2.828 3.235-7.43 3.060-7.43 3.060s-4.605 0.175-7.43-3.060l0.873-0.873v-3.894l1.805 1.164c0 0 0 2.73 3.382 3.526 0 0 0.032-1.826-0.175-2.369-0.266-0.694-1.805-2.177-1.805-2.177s0.726-2.208 3.351-4.662c0.326 0.305 0.624 0.61 0.897 0.904 0.373 0.401 0.725 0.822 1.052 1.262 0.583 0.761 1.055 1.602 1.402 2.495 0 0-1.542 1.476-1.809 2.177-0.133 0.592-0.192 1.198-0.175 1.805v0.564c3.382-0.785 3.382-3.526 3.382-3.526l1.805-1.164v3.894z"></path>
</svg>
