<!-- Generated by IcoMoon.io -->
<svg version="1.1" xmlns="http://www.w3.org/2000/svg" width="24" height="32" viewBox="0 0 24 32">
<title>ema</title>
<path fill="#444" d="M0.031 4.785c1.878 0.051 3.786-0.876 4.779-2.494 4.729 0 9.459-0.010 14.189-0.005 0.722 1.166 1.928 2.011 3.259 2.329 0.496 0.125 1.010 0.165 1.521 0.171-0.033 2.452-0.787 4.903-2.211 6.907-0.831 1.175-1.884 2.187-3.074 2.993-0.731 0.509-1.531 0.902-2.315 1.32 1.478 0.72 2.925 1.555 4.098 2.724 2.275 2.186 3.528 5.343 3.505 8.486-1.883-0.056-3.801 0.872-4.79 2.499-4.728 0.002-9.456 0.001-14.183 0-0.989-1.622-2.899-2.553-4.779-2.5 0.034-2.514 0.817-5.031 2.303-7.067 0.904-1.243 2.066-2.293 3.371-3.101 0.623-0.393 1.289-0.709 1.94-1.052-0.778-0.4-1.575-0.77-2.303-1.26-1.842-1.198-3.333-2.932-4.221-4.945-0.7-1.57-1.065-3.286-1.091-5.005zM10.569 9.384c-1.204 0.419-2.182 1.45-2.504 2.687-0.15 0.583-0.204 1.223 0.025 1.794 0.323 0.829 0.917 1.514 1.533 2.142-0.715 0.692-1.413 1.492-1.641 2.488-0.177 1.071 0.208 2.195 0.921 3 0.844 0.962 2.168 1.48 3.441 1.329 1.254-0.135 2.425-0.893 3.054-1.987 0.417-0.736 0.609-1.637 0.383-2.464-0.287-0.913-0.908-1.671-1.538-2.372 0.682-0.772 1.414-1.605 1.609-2.648 0.093-1.429-0.671-2.873-1.892-3.62-0.999-0.626-2.285-0.753-3.391-0.349z"></path>
</svg>
