<!-- Generated by IcoMoon.io -->
<svg version="1.1" xmlns="http://www.w3.org/2000/svg" width="32" height="32" viewBox="0 0 32 32">
<title>emn</title>
<path fill="#444" d="M14.432 5.171c0.702-0.264 1.474-0.467 2.221-0.274 0.934 0.17 1.742 0.693 2.558 1.148 2.382 1.392 4.716 2.865 7.027 4.372 0.203 0.117 0.342 0.314 0.417 0.534-1.029 0.89-2.055 1.788-3.014 2.754-0.588 0.62-1.151 1.315-1.384 2.152-0.166 0.573-0.047 1.211 0.303 1.693 0.524 0.74 1.363 1.188 2.212 1.453 1.006 0.307 2.078 0.351 3.119 0.235 0.47-0.052 0.947-0.205 1.307-0.522 0.299-0.261 0.508-0.645 0.494-1.049-0.013-0.375-0.284-0.704-0.619-0.852-0.375-0.166-0.8-0.161-1.198-0.105-0.572 0.090-1.060 0.468-1.379 0.94-0.114-0.21-0.176-0.463-0.061-0.687 0.301-0.69 1.003-1.126 1.702-1.331 1.023-0.209 2.143-0.001 2.994 0.613 0.349 0.247 0.631 0.597 0.748 1.012 0.223 0.679 0.001 1.421-0.383 1.997-0.524 0.775-1.361 1.278-2.23 1.582-1.295 0.448-2.694 0.508-4.047 0.367-1.694-0.183-3.341-0.693-4.885-1.403-0.22-0.092-0.429-0.226-0.669-0.253-0.273-0.003-0.479 0.248-0.53 0.498-0.073 0.354 0.054 0.708 0.172 1.037 0.361 0.911 0.999 1.71 1.8 2.272 0.45 0.303 0.985 0.559 1.542 0.486 0.211-0.022 0.418-0.176 0.438-0.399 0.037-0.368-0.142-0.71-0.301-1.028 0.367 0.143 0.721 0.367 0.933 0.708 0.384 0.604 0.231 1.495-0.354 1.917-0.569 0.417-1.327 0.453-2 0.337-1.081-0.206-2.075-0.762-2.895-1.487-0.834-0.747-1.505-1.748-1.637-2.882-0.088-1.1 0.043-2.263 0.645-3.213 0.092-0.199 0.316-0.359 0.282-0.598-0.041-0.427-0.247-0.816-0.454-1.183 0.307-0.447 0.618-0.892 0.926-1.338 0.128-0.17 0.123-0.398 0.088-0.598-0.132-0.746-0.594-1.466-1.308-1.768-0.885-0.379-2.029-0.242-2.704 0.479-0.359 0.392-0.589 0.904-0.646 1.431-0.027 0.195 0.037 0.389 0.162 0.54 0.292 0.417 0.579 0.835 0.87 1.253-0.205 0.37-0.416 0.757-0.453 1.186-0.035 0.239 0.189 0.398 0.281 0.597 0.601 0.949 0.733 2.111 0.646 3.21-0.136 1.167-0.839 2.193-1.71 2.949-0.804 0.691-1.769 1.221-2.816 1.422-0.66 0.115-1.397 0.085-1.966-0.305-0.601-0.402-0.782-1.286-0.42-1.904 0.208-0.364 0.575-0.603 0.958-0.751-0.165 0.334-0.366 0.703-0.288 1.090 0.056 0.248 0.329 0.349 0.558 0.35 0.613 0.014 1.174-0.307 1.645-0.671 0.821-0.662 1.468-1.572 1.722-2.603 0.088-0.335 0.043-0.769-0.279-0.966-0.21-0.14-0.456-0.016-0.657 0.075-2.107 0.998-4.425 1.656-6.774 1.577-1.284-0.053-2.605-0.33-3.682-1.064-0.643-0.44-1.173-1.084-1.36-1.852-0.19-0.691 0.029-1.489 0.584-1.953 0.717-0.618 1.694-0.885 2.628-0.837 0.739 0.016 1.447 0.38 1.946 0.915 0.286 0.308 0.512 0.784 0.247 1.177-0.319-0.472-0.806-0.851-1.378-0.94-0.398-0.056-0.822-0.061-1.196 0.104-0.36 0.156-0.644 0.524-0.623 0.927 0.018 0.516 0.377 0.965 0.819 1.203 0.53 0.297 1.153 0.324 1.745 0.349 1.265 0.039 2.581-0.192 3.659-0.887 0.583-0.379 1.108-0.933 1.25-1.634 0.131-0.635-0.106-1.277-0.432-1.814-0.343-0.565-0.786-1.063-1.259-1.522-0.884-0.861-1.81-1.679-2.744-2.485 0.074-0.22 0.215-0.417 0.418-0.534 2.17-1.417 4.365-2.798 6.594-4.12 0.681-0.394 1.357-0.799 2.073-1.125z"></path>
</svg>
