<!-- Generated by IcoMoon.io -->
<svg version="1.1" xmlns="http://www.w3.org/2000/svg" width="32" height="32" viewBox="0 0 32 32">
<path fill="#444" d="M12.364 9.753c1.078-0.646 2.332-0.996 3.589-0.995 1.443-0.010 2.881 0.446 4.060 1.276 1.192 0.831 2.12 2.031 2.629 3.391 0.284 0.753 0.44 1.553 0.465 2.357-2.294 0.459-4.586 0.921-6.88 1.38-0.091 0.014-0.182 0.052-0.275 0.033-2.372-0.478-4.745-0.951-7.116-1.431 0.035-1.044 0.293-2.083 0.761-3.018 0.612-1.234 1.582-2.288 2.766-2.993zM9.919 19.851c2.027 0.686 4.052 1.374 6.078 2.063 2.003-0.683 4.008-1.36 6.011-2.042-0.797 1.305-2.033 2.333-3.454 2.894-1.489 0.596-3.184 0.654-4.71 0.162-1.621-0.512-3.034-1.631-3.924-3.077z"></path>
</svg>
