<svg viewBox="0 0 300 200" width="300" height="200" xmlns="http://www.w3.org/2000/svg">
<path d="M39.67,0M151.67,10c1.39,0.74 2.77,1.5 4.15,2.27c0.81,0.45 1.61,0.9 2.45,1.37c2.71,1.53 5.41,3.06 8.12,4.59c2.15,1.21 4.3,2.41 6.46,3.6c2.78,1.54 5.56,3.1 8.33,4.67c4.26,2.42 8.55,4.79 12.83,7.17c0.54,0.33 1.08,0.66 1.64,1c1.42,0.86 1.42,0.86 3.36,0.33c1.76,-0.79 3.51,-1.6 5.25,-2.44c1.54,-0.73 1.54,-0.73 3.11,-1.48c0.98,-0.47 1.97,-0.94 2.98,-1.42c1.41,-0.66 2.82,-1.31 4.23,-1.96c1.04,-0.48 1.04,-0.48 2.1,-0.96c0.77,-0.36 1.55,-0.71 2.34,-1.08c6.73,-3.1 13.46,-6.21 20.19,-9.33c13.66,-6.33 13.66,-6.33 14.15,-6.33c0,16.28 0,32.56 0,49.33c-2.31,0.66 -2.31,0.66 -4.67,1.33c-9.72,4.02 -16.35,11.14 -20.42,20.77c-1.75,4.62 -2.8,9.32 -3.25,14.23c-3.26,0.93 -6.56,1.54 -9.88,2.21c-1.35,0.27 -2.7,0.54 -4.1,0.83c-3.36,0.63 -3.36,0.63 -5.03,0.63c0,-0.24 0,-0.48 -0.01,-0.73c-0.38,-8.6 -2.86,-17.07 -6.99,-24.61c-0.21,-0.4 -0.43,-0.8 -0.64,-1.21c-2.26,-4.12 -5.13,-7.71 -8.36,-11.12c-0.29,-0.31 -0.59,-0.63 -0.89,-0.95c-9.36,-9.73 -22.82,-15.61 -36.26,-16.18c-1.05,0 -2.1,0 -3.19,0.01c-1.58,0 -1.58,0 -3.19,-0.01c-12.78,0.54 -24.72,5.8 -34.07,14.45c-0.62,0.57 -1.27,1.11 -1.93,1.64c-1.57,1.43 -2.84,3.04 -4.15,4.71c-0.24,0.31 -0.49,0.61 -0.74,0.93c-7.39,9.49 -11.42,21.1 -11.93,33.07c-3.83,-0.35 -7.44,-1.06 -11.21,-1.83c-1.32,-0.27 -2.65,-0.54 -4.01,-0.82c-3.11,-0.68 -3.11,-0.68 -3.45,-1.01c-0.08,-0.72 -0.14,-1.44 -0.21,-2.17c-1.21,-9.97 -5.43,-20.18 -13.27,-26.77c-4.63,-3.6 -9.19,-5.63 -14.85,-7.4c0,-16.28 0,-32.56 0,-49.33c4.14,1.84 8.25,3.7 12.35,5.6c1.2,0.56 2.39,1.11 3.63,1.68c1.82,0.85 1.82,0.85 3.69,1.71c2.28,1.06 4.56,2.11 6.83,3.17c3.48,1.61 6.97,3.23 10.45,4.84c2.32,1.08 4.64,2.15 6.96,3.22c1.89,0.88 3.77,1.76 5.65,2.66c1.07,0.51 1.07,0.51 2.16,1.03c0.6,0.29 1.19,0.57 1.81,0.87c1.52,0.71 1.52,0.71 3.46,0.21c1.51,-0.77 3,-1.59 4.48,-2.42c0.87,-0.49 1.74,-0.97 2.63,-1.47c0.84,-0.48 1.69,-0.95 2.56,-1.44c1,-0.57 1,-0.57 2.02,-1.14c1.24,-0.7 2.47,-1.4 3.71,-2.1c2.14,-1.21 4.29,-2.4 6.43,-3.59c2.78,-1.54 5.56,-3.1 8.33,-4.67c4.26,-2.42 8.55,-4.79 12.83,-7.17c0.54,-0.34 1.08,-0.67 1.64,-1.02c1.36,-0.65 1.36,-0.65 3.36,0.02zM73.33,122c3.15,0.63 6.18,1.78 9.23,2.77c2.05,0.67 2.05,0.67 4.15,1.35c2.34,0.78 4.66,1.63 6.95,2.55c1.35,0.41 2.69,0.81 4.04,1.21c3.24,1.07 4.99,1.83 6.63,4.79c0.46,0.65 0.92,1.28 1.4,1.92c0.37,0.5 0.37,0.5 0.76,1.01c2.6,3.29 5.49,6.23 8.85,8.74c0.36,0.27 0.71,0.54 1.08,0.82c10.1,7.45 21.13,10.87 33.59,10.93c1.05,0 2.1,0 3.19,0.03c12.37,-0.43 24.17,-5.77 33.48,-13.78c0.36,-0.3 0.36,-0.3 0.74,-0.61c1.58,-1.33 2.95,-2.79 4.26,-4.39c0.32,-0.39 0.64,-0.78 0.98,-1.19c2.05,-2.43 2.05,-2.43 3.61,-5.17c1.82,-2.2 4.31,-2.57 6.98,-3.39c3.2,-1 6.34,-2 9.44,-3.25c2.21,-0.76 4.43,-1.51 6.65,-2.25c1.16,-0.39 2.33,-0.78 3.53,-1.18c2.82,-0.9 2.82,-0.9 3.82,-0.9c0.2,0.53 0.4,1.06 0.61,1.61c2.17,5.58 4.6,10.81 8.05,15.72c-1.61,1.61 -3.34,2.61 -5.29,3.79c-3.46,2.11 -6.9,4.26 -10.32,6.44c-2.68,1.71 -5.37,3.41 -8.06,5.1c-1.06,0.67 -2.11,1.33 -3.17,2c-0.52,0.33 -1.05,0.66 -1.59,1c-1.03,0.65 -2.07,1.31 -3.1,1.96c-3.61,2.28 -7.23,4.55 -10.85,6.81c-2.77,1.73 -5.53,3.48 -8.29,5.22c-1.06,0.67 -2.11,1.33 -3.17,2c-0.52,0.33 -1.05,0.66 -1.58,1c-4.75,3 -4.75,3 -6.34,4c-1.03,0.65 -2.07,1.31 -3.1,1.96c-3.6,2.28 -7.22,4.54 -10.84,6.8c-2.36,1.48 -4.7,2.97 -7.04,4.47c-0.42,0.25 -0.84,0.5 -1.27,0.76c-0.41,0.27 -0.41,0.27 -0.83,0.55c-1.51,0.21 -2.5,-0.77 -3.71,-1.59c-0.56,-0.37 -1.13,-0.74 -1.71,-1.13c-0.58,-0.38 -1.15,-0.77 -1.75,-1.16c-1.05,-0.67 -2.11,-1.34 -3.17,-2c-1.56,-0.99 -3.13,-1.98 -4.69,-2.96c-2.93,-1.85 -5.87,-3.7 -8.81,-5.54c-3.45,-2.16 -6.89,-4.32 -10.33,-6.5c-1.06,-0.67 -2.11,-1.33 -3.17,-2c-1.56,-0.99 -3.13,-1.98 -4.69,-2.96c-2.93,-1.85 -5.87,-3.7 -8.81,-5.54c-3.45,-2.16 -6.89,-4.32 -10.33,-6.5c-1.06,-0.67 -2.11,-1.33 -3.17,-2c-6.33,-4 -6.33,-4 -7.91,-5c-1.06,-0.67 -2.13,-1.34 -3.19,-2.01c-3.48,-2.19 -6.94,-4.41 -10.39,-6.65c0.93,-1.72 1.91,-3.39 2.96,-5.04c2.46,-3.97 4.14,-8.24 5.71,-12.63zM66.33,86c1.28,4.59 2.06,8.58 2,13.33c0.45,0 0.91,0.07 1.38,0.11c2.23,0.25 4.38,0.67 6.58,1.12c1.18,0.24 1.18,0.24 2.39,0.48c4.11,0.86 8.21,1.74 12.32,2.62c9,1.81 18.01,3.62 27.02,5.42c4.82,0.96 9.65,1.93 14.62,2.92c14.23,2.83 17.89,3.38 32.36,0.33c11.12,-2.23 22.25,-4.45 33.38,-6.67c5.93,-1.18 11.87,-2.37 17.98,-3.58c13.98,-2.75 13.98,-2.75 15.31,-2.75c-0.02,-0.75 -0.02,-0.75 -0.04,-1.52c0.01,-4.09 0.81,-7.92 2.04,-11.81c1.95,-0.49 3.34,0.13 5.27,0.67c1.18,0.33 1.18,0.33 2.39,0.66c2.6,0.75 5.19,1.53 7.78,2.33c7.35,2.21 14.75,4.24 22.17,6.19c1.6,0.44 3.16,0.94 4.73,1.48c-2.96,2.96 -10.13,3.94 -14.02,5.23c-5.01,1.65 -5.01,1.65 -9.98,3.44c-4.11,1.38 -8.22,2.74 -12.33,4.1c-2.12,0.71 -4.24,1.44 -6.33,2.23c-4.11,1.38 -8.22,2.74 -12.33,4.1c-2.12,0.71 -4.24,1.44 -6.33,2.23c-4.11,1.38 -8.22,2.74 -12.33,4.1c-2.12,0.71 -4.24,1.44 -6.33,2.23c-2.6,0.87 -5.21,1.74 -7.81,2.6c-6.67,2.22 -13.33,4.46 -19.97,6.74c-1.86,0.64 -3.73,1.27 -5.59,1.89c-1.67,0.56 -3.31,1.14 -4.95,1.77c-1.16,0.42 -2.33,0.84 -3.5,1.25c-0.59,0.21 -1.19,0.42 -1.8,0.64c-3.25,0.85 -5.74,-0.29 -8.86,-1.35c-0.78,-0.26 -1.56,-0.53 -2.36,-0.8c-1.61,-0.56 -3.21,-1.14 -4.8,-1.74c-2.67,-0.89 -5.33,-1.78 -8,-2.67c-7.7,-2.56 -7.7,-2.56 -10.67,-3.67c-2.67,-0.89 -5.33,-1.78 -8,-2.67c-7.7,-2.56 -7.7,-2.56 -10.67,-3.67c-2.67,-0.89 -5.33,-1.78 -8,-2.67c-7.7,-2.56 -7.7,-2.56 -10.67,-3.67c-2.44,-0.82 -4.87,-1.63 -7.31,-2.44c-6.16,-2.05 -12.31,-4.13 -18.46,-6.23c-6.92,-2.36 -13.85,-4.69 -20.79,-7.03c-3.4,-1.16 -6.77,-2.34 -10.11,-3.64c1.46,-0.97 3,-1.27 4.69,-1.73c0.75,-0.21 1.5,-0.42 2.28,-0.63c2.25,-0.61 4.49,-1.21 6.74,-1.81c3.36,-0.9 6.68,-1.89 10.01,-2.92c2.82,-0.84 5.66,-1.59 8.5,-2.35c2.6,-0.7 5.18,-1.47 7.76,-2.25c1.36,-0.32 1.36,-0.32 2.69,0.01z" />
</svg>