<svg version="1.0" xmlns="http://www.w3.org/2000/svg" viewBox="0 0 404 352"><path d="M166 37.2c-22.5 16.8-42.6 35.3-55.4 51.3-27.4 33.8-43.1 72.2-46.6 113.8-1.1 12.1-3.6 32.1-4.7 36.4-.4 1.6-1.3 2.3-2.9 2.3-2.8 0-4.2-2.7-5.2-9.9l-.7-4.5-9.3 8.9c-9.5 9-20.1 22.1-31.1 38.3-6.8 9.9-8.7 14-7.2 15.5 1.9 1.9 31.7 2 47.1.3 69-7.9 157.4-39.7 227.5-81.9 55.1-33.1 97.7-69.4 117.7-100.1 4.3-6.7 4.5-7.5 2.1-7.4-1 0-19.4-.2-41-.6-23.2-.4-39.3-.3-39.7.2-.3.5.6 2 2.1 3.3 3 2.8 6.2 9.4 6.3 12.7 0 1.9-2.9-.5-14.2-12-31.2-31.5-53.8-43.8-86-47-11.4-1.1-24.4-.6-47.4 1.9l-5.1.5-.6-4.7c-.6-4.3-.3-11.5.8-18.8.3-1.5.1-2.7-.3-2.6-.4 0-3.2 1.9-6.2 4.1zm52 52.9c23.6 6.5 44.3 25.1 56.1 50.3 1.7 3.6 3.5 6.6 4.2 6.9.7.2 3.9.1 7.2-.3 3.3-.4 6.1-.6 6.3-.4.7.5-16 11.7-31.3 20.9-17.3 10.4-69.2 36.6-87.5 44-17 7-31.3 12-47.1 16.3-21.6 6-20.6 5.9-15.9 1.5l4-3.8-2.5-9.8c-4.7-18.7-5.4-39.8-1.8-57.7 4.5-22.5 18.1-43 37.1-55.9 7.5-5.1 18.9-10.7 24.4-12.1 13.2-3.4 34.6-3.3 46.8.1zM311.5 201.6c-1.1.9-10.6 6.7-21.2 13-16.5 9.9-19.3 12-20.2 14.7-4.2 12.5-22.2 30.1-39.8 39.1-13 6.5-36.2 9.5-52.4 6.6-6.5-1.1-6.9-1.1-16 2.3-12.7 4.7-31 10.3-38.6 11.8-3.5.6-6.3 1.7-6.3 2.3 0 2.3 27.9 12.1 41.4 14.5 12.4 2.2 29.2.7 47.1-4.4l9.8-2.8 1.8 2.4c1.1 1.3 2.4 4.2 3 6.4 1 3.5.8 5.1-1.6 12.3-1.5 4.6-2.5 8.5-2.3 8.7.7.7 18.2-11.7 29.8-21 23.4-18.9 39.5-37.9 54.4-64.3 7.7-13.6 15.1-32.1 15.8-39.7.4-3.5-1.7-4.3-4.7-1.9z"/></svg>
