<!-- Generated by IcoMoon.io -->
<svg version="1.1" xmlns="http://www.w3.org/2000/svg" width="32" height="32" viewBox="0 0 32 32">
<path fill="#444" d="M9.232 8.29c1.398-1.496 3.082-2.699 4.86-3.702-0.393 0.701-0.618 1.561-0.341 2.343 0.407-0.082 0.805-0.2 1.214-0.275 1.814-0.353 3.724-0.255 5.474 0.354 0.802 0.278 1.568 0.66 2.273 1.134 1.307 0.871 2.322 2.092 3.518 3.098-0.147-0.569-0.398-1.109-0.727-1.596 2.166-0.159 4.363-0.114 6.497 0.317-0.302 0.626-0.715 1.191-1.157 1.725-0.935 1.112-2.032 2.077-3.183 2.96-2.278 1.733-4.777 3.153-7.337 4.422-1.416 0.698-2.856 1.347-4.313 1.955-1.672 0.696-3.37 1.332-5.098 1.873-1.715 0.536-3.462 0.98-5.238 1.254-0.854 0.129-1.715 0.22-2.579 0.244-1.038 0.022-2.092-0.024-3.095-0.316 0.716-1.203 1.585-2.308 2.519-3.348 0.498-0.551 1.017-1.083 1.558-1.592 0.055 0.579 0.18 1.153 0.39 1.697 0.278-1.801 0.367-3.635 0.831-5.404 0.677-2.665 2.056-5.141 3.935-7.145zM14.026 9.111c-1.288 0.283-2.493 0.938-3.426 1.871-0.907 0.9-1.555 2.053-1.863 3.293-0.424 1.674-0.198 3.5 0.625 5.018-0.643 0.22-1.283 0.448-1.931 0.65 0.527-0.081 1.046-0.208 1.566-0.323 5.345-1.252 10.429-3.613 14.826-6.901-0.569 0.313-1.135 0.632-1.707 0.94-0.556-1.641-1.755-3.050-3.282-3.867-1.454-0.79-3.193-1.042-4.809-0.681zM21.663 19.314c1.355-0.707 2.693-1.448 3.983-2.268-0.407 1.454-1.013 2.853-1.811 4.134-0.779 1.257-1.738 2.401-2.829 3.397-1.225 1.124-2.613 2.061-4.082 2.835 0.291-0.532 0.519-1.124 0.506-1.739 0-0.242-0.092-0.469-0.152-0.699-1.543 0.5-3.193 0.74-4.809 0.513-1.207-0.162-2.373-0.581-3.422-1.196 1.611-0.42 3.193-0.942 4.756-1.515 1.339 0.335 2.775 0.274 4.074-0.199 1.321-0.473 2.49-1.356 3.305-2.498 0.179-0.243 0.329-0.505 0.481-0.764z"></path>
</svg>
