<!-- Generated by IcoMoon.io -->
<svg version="1.1" xmlns="http://www.w3.org/2000/svg" width="32" height="32" viewBox="0 0 32 32">
<path fill="#444" d="M17.365 3.357c0 0 2.606 6.854 3.362 8.985 0.971-0.738 1.858-1.582 2.858-2.281-0.236 1.2-0.803 3.511-0.803 3.511l9.218-0.772-8.621 3.382 2.28 2.86-3.567-0.844 0.818 9.359c0 0-1.462-3.87-2.314-5.758-0.572 1.144-1.238 2.248-2.093 3.206-1.612 1.708-3.793 2.789-6.076 3.275-1.095 0.204-2.272 0.209-3.542 0-2.616-0.559-5.149-1.904-6.742-4.099-1.457-1.866-2.224-4.253-2.135-6.618-0.053-2.781 1.19-5.476 3.107-7.454 1.368-1.279 3.023-2.288 4.859-2.72 1.34-0.292 2.764-0.375 4.095-0.234 2.14 0.227 4.101 1.243 5.756 2.578zM9.063 8.076c1.226 0.076 2.502 0.227 3.583 0.594 1.036 0.352 2.178 0.923 3.005 1.657 0.926 0.822 2.004 1.936 2.55 3.276-0.567-0.087-1.691-0.312-1.691-0.312l1.52 1.943-5.161 1.973 5.469-0.432-0.526 2.421c0 0 0.945-0.709 1.442-1.025-0.089 1.127-0.196 2.273-0.616 3.333-0.465 1.159-1.090 2.26-1.905 3.208-0.587 0.687-2.023 1.774-2.023 1.774s2.003-0.875 3.684-2.903c0.971-1.172 1.536-2.753 1.983-4.258 0.554 1.088 1.388 3.378 1.388 3.378l-0.419-5.324 2.425 0.504-1.526-2.044 5.187-1.98-5.503 0.392c0 0 0.305-1.54 0.493-2.303-0.659 0.493-1.268 1.052-1.948 1.517-0.748-1.627-1.968-4.991-1.968-4.991s0.195 2.382 0.219 3.579c-0.616-0.541-1.073-1.236-1.721-1.742-1.165-0.913-2.479-1.708-3.951-1.991-1.546-0.298-2.662-0.246-3.987-0.244zM5.763 9.303c-3.079 1.729-4.985 5.247-4.892 8.758 0.143 3.882 2.842 7.51 6.498 8.801 0.854 0.29 1.749 0.682 2.669 0.551 1.139-0.387 1.981-1.304 2.81-2.133 0.964-0.94 1.53-2.192 2.019-3.425 0.506-1.304 0.538-2.605 0.459-3.983-1.090 0.074-7.252 0.466-7.252 0.466s5.634-2.182 6.745-2.619c-0.483-1.431-1.37-2.695-2.398-3.79-1.676-1.543-3.839-2.634-6.143-2.736-0.181-0.007-0.353 0.031-0.514 0.112z"></path>
</svg>
