<!-- Generated by IcoMoon.io -->
<svg version="1.1" xmlns="http://www.w3.org/2000/svg" width="32" height="32" viewBox="0 0 32 32">
<path fill="#444" d="M9.063 8.076c1.325-0.002 2.441-0.054 3.987 0.244 1.472 0.284 2.786 1.078 3.951 1.991 0.648 0.506 1.104 1.202 1.721 1.742-0.025-1.197-0.219-3.579-0.219-3.579s1.22 3.364 1.968 4.991c0.681-0.465 1.289-1.024 1.948-1.516-0.188 0.763-0.493 2.303-0.493 2.303l5.503-0.392-5.187 1.98 1.526 2.044-2.425-0.504 0.419 5.324c0 0-0.834-2.29-1.388-3.378-0.447 1.505-1.012 3.086-1.983 4.258-1.681 2.028-3.684 2.903-3.684 2.903s1.436-1.086 2.023-1.774c0.816-0.948 1.441-2.049 1.905-3.208 0.42-1.060 0.527-2.206 0.616-3.333-0.498 0.316-1.442 1.025-1.442 1.025l0.526-2.421-5.469 0.432 5.161-1.973-1.52-1.943c0 0 1.124 0.224 1.691 0.312-0.546-1.34-1.624-2.454-2.549-3.276-0.826-0.734-1.969-1.304-3.005-1.657-1.080-0.367-2.356-0.519-3.583-0.594zM5.763 9.303c0.162-0.081 0.333-0.119 0.514-0.112 2.304 0.102 4.467 1.193 6.143 2.736 1.029 1.095 1.915 2.359 2.398 3.79-1.111 0.437-6.745 2.619-6.745 2.619s6.162-0.392 7.252-0.466c0.079 1.378 0.047 2.679-0.459 3.983-0.49 1.233-1.055 2.486-2.019 3.425-0.829 0.829-1.671 1.746-2.81 2.133-0.92 0.132-1.815-0.26-2.669-0.551-3.656-1.291-6.354-4.919-6.498-8.801-0.092-3.511 1.813-7.029 4.892-8.758z"></path>
</svg>
