<!-- Generated by IcoMoon.io -->
<svg version="1.1" xmlns="http://www.w3.org/2000/svg" width="32" height="32" viewBox="0 0 32 32">
<title>eve</title>
<path fill="#444" d="M5.851 9.461c-0.687 0.387-1.358 0.938-1.724 1.62-0.404 0.746-0.436 1.646-0.604 2.526-0.177 0.917-0.502 1.81-1.106 2.475-0.604 0.663-1.492 1.099-2.368 1.318 0.845 0.751 1.813 1.315 2.868 1.815 0.839 0.396 1.732 0.751 2.606 0.684 0.869-0.066 1.716-0.55 2.448-1.104 0.425-0.326 0.81-0.673 1.262-0.924 0.268-0.147 0.558-0.259 0.85-0.356-1.227-0.864-2.424-2.133-3.098-3.504-0.719-1.465-1.070-2.922-1.133-4.549zM22.059 17.715c0.588 0.289 1.245 0.502 1.89 0.524 0.909 0.037 1.791-0.302 2.694-0.61 0.818-0.281 1.655-0.534 2.47-0.43 0.968 0.12 1.908 0.746 2.59 1.468 0.211-0.907 0.27-1.837 0.243-2.78-0.027-0.89-0.131-1.793-0.518-2.574-0.388-0.783-1.061-1.443-1.831-1.882-0.682-0.39-1.438-0.609-2.082-1.028-0.339-0.22-0.647-0.498-0.938-0.781-0.085 1.607-0.497 3.189-1.243 4.619-0.708 1.358-2.021 2.652-3.274 3.475zM8.043 4.628c-1.294 2.79-1.075 6.046 0.58 8.639s4.518 4.162 7.594 4.162c3.076 0 5.939-1.569 7.594-4.162 1.657-2.593 1.876-5.848 0.582-8.639-1.518 4.678-4.846 5.541-8.176 5.541-3.328 0-6.655-0.864-8.174-5.541zM15.5 27.372c0.505-0.213 0.991-0.46 1.481-0.714 1.035-0.534 2.096-1.098 2.825-2.002 0.495-0.612 0.84-1.38 0.914-2.152 0.094-0.927-0.198-1.861-0.189-2.793 0.005-0.407 0.066-0.815 0.131-1.221-0.724 0.337-1.464 0.59-2.245 0.767-0.623 0.142-1.705 0.31-2.353 0.278-1.638-0.077-3.1-0.446-4.57-1.176-0.008 0.53 0.062 1.072 0.243 1.572 0.294 0.807 0.885 1.492 1.54 2.082 0.556 0.506 1.158 0.941 1.607 1.524 0.486 0.634 0.794 1.443 0.839 2.253 0.032 0.537-0.056 1.077-0.222 1.582z"></path>
</svg>
