<!-- Generated by IcoMoon.io -->
<svg version="1.1" xmlns="http://www.w3.org/2000/svg" width="32" height="32" viewBox="0 0 32 32">
<title>evg</title>
<path fill="#444" d="M22.685 22.133c0 0 3.233 1.123 5.815-0.843 2.588-1.973 2.814-3.533 2.936-4.705 0 0-0.869 2.117-3.429 3.8-1.5 0.987-1.849 1.172-5.322 1.747zM29.157 21.516c-3.143 2.65-7.273 0.863-7.273 0.863 1.666-2.464 2.035-4.376 0.987-7.457-0.056-0.164-0.118-0.322-0.186-0.473l-9.438 5.961 0.132 0.182c0 0 3.021 2.836 6.041 0.369 0 0 0.307 1.418-1.48 2.035-1.787 0.615-4.252-0.186-5.362-0.679-0.701-0.312-1.033-0.502-1.306-0.659l-1.798 1.134c0.014 0.066 0.022 0.134 0.022 0.204 0 0.509-0.413 0.923-0.924 0.923-0.509 0-0.923-0.414-0.923-0.923 0-0.511 0.414-0.925 0.923-0.925 0.214 0 0.407 0.074 0.563 0.196l2.215-1.52c0.302-0.453 0.614-1.144 0.614-2.067 0-1.785-1.664-3.265-3.329-3.265-1.664 0-3.327 1.664-3.204 3.758 0 0-1.911-1.108-3.76-3.019-1.849-1.909-1.664-3.143-1.664-3.513s0.124-2.095 1.356-3.143c1.232-1.047 2.343-0.616 2.836-0.246 0 0-3.205 0-3.205 2.896 0 1.172 0.986 2.774 2.896 2.774 2.404 0 5.855-4.068 8.813-4.068 2.712 0 3.389 2.281 3.513 3.081 0 0-4.627 0.605-3.373 5.788l9.241-6.337c-1.356-1.903-3.463-2.594-3.463-2.594 1.17-2.402 3.944-2.71 3.944-2.71s-0.317 1.596 1.242 4.122l2.147-1.472 0.124-0.493 1.308 0.324-0.076 1.294-0.493-0.016-2.273 1.436c0.058 0.076 0.116 0.152 0.178 0.228 2.588 3.267 7.271 2.588 7.271 2.588s0.308 2.774-2.834 5.424z"></path>
</svg>
