<!-- Generated by IcoMoon.io -->
<svg version="1.1" xmlns="http://www.w3.org/2000/svg" width="32" height="32" viewBox="0 0 32 32">
<title>exo</title>
<path fill="#444" d="M25.118 17.039h-0.546c0 0-0.259-0.501-1.034-1.105l0.002-2.769c0.699 0.374 1.23 0.729 1.58 0.98l-0.002 2.895zM21.237 14.716c-0.606-0.234-1.248-0.445-2.060-0.598v-2.527c0.743 0.154 1.432 0.35 2.060 0.568v2.557zM17.055 13.865c-0.337-0.018-0.689-0.028-1.057-0.028-0.355 0-0.725 0.010-1.054 0.026l0.002-2.559c0.333-0.024 0.678-0.036 1.028-0.038h0.037c0.355 0.002 0.705 0.014 1.044 0.038v2.561zM10.692 14.743l0.002-2.562c0.621-0.218 1.301-0.414 2.039-0.569l0.006 2.531c-0.777 0.158-1.467 0.366-2.046 0.6zM8.45 16.061c-0.672 0.576-0.909 1.034-0.909 1.034h-0.659v-2.951c0.345-0.25 0.875-0.602 1.567-0.973v2.89zM29.792 17.075c-0.305-0.723-0.247-2.972-0.247-2.972h-1.066c0 0 0.495-0.228 0.495-0.953 0 0 0.056-1.142-1.259-1.142s-1.2 1.485-1.2 1.485-3.972-3.574-10.501-3.6h-0.046c-6.519 0.032-10.485 3.6-10.485 3.6s0.115-1.485-1.198-1.485c-1.315 0-1.259 1.142-1.259 1.142 0 0.725 0.495 0.953 0.495 0.953h-1.066c0 0 0.056 2.249-0.249 2.972h-2.21v2.364c0 0 1.905-0.267 1.905 2.666h6.058c0 0-0.152-6.477 8.002-6.478h0.074c8.156 0 8.002 6.478 8.002 6.478h6.061c0-2.933 1.903-2.666 1.903-2.666v-2.364h-2.21z"></path>
</svg>
