<svg xmlns="http://www.w3.org/2000/svg" viewBox="0 0 287 317"><path d="M136 1.4c5.9-1.7 9.4-1.7 15.6 0 16.3 4.3 27 16.7 28.2 32.6 1.2 16.8-9.6 32-26.1 36.8-5.7 1.7-5.8 1.7-5.5 5.2.3 3.4.4 3.5 4.8 3.8 4.247.233 11.216.99 18.305 1.922l1.52.203c7.6 1.025 15.125 2.225 19.375 3.175 10.5 2.3 14.9 2.4 18.8.4 3.9-2 9.1-8.6 13.2-16.8l3.4-6.9 7.5 8c16 17.1 21.8 34.2 16.5 48.8l-1.9 5.1 3.1 7.5c7.6 18.2 10.9 36.8 9.8 54.7a139.892 139.892 0 0 1-.289 4.24l-.072.85c-.372 4.237-.882 8.196-1.239 9.91-.8 3.3-.8 4.7.2 5.9 1.033 1.24 4.736 3.841 8.75 6.328l.78.48c3.522 2.148 7.165 4.137 9.37 4.992 7.826 3.033 7.996 3.386.791 10.608l-.491.492c-3.8 3.8-8.5 8.1-10.4 9.6l-3.5 2.6 7.8 7.2a174.826 174.826 0 0 1 4.206 4.033l.397.395c1.871 1.878 3.097 3.235 3.097 3.472 0 .5-1.7 1.4-3.7 2.1-9.5 3-31.2 15.3-55.3 31.2-18.4 12.1-39.6 21.1-58.5 24.8-3.8.8-13.1 1.4-20.5 1.4s-16.6-.6-20.5-1.4c-20-3.9-39.7-12.5-62.5-27.3-24.9-16.2-41.7-25.6-51.2-28.7-2.1-.7-3.8-1.6-3.8-2.1 0-.237 1.226-1.594 3.097-3.472l.397-.395c1.215-1.208 2.663-2.6 4.206-4.033l7.8-7.2-3.5-2.7c-5.6-4.3-13-11.4-15.2-14.4l-2-2.8 5.9-2.7c6.4-2.9 18.2-10.2 20-12.4.9-1.1.8-3.6-.3-10.9-3.2-21.8-.4-42.4 8.8-64.9l3.1-7.4-1.9-5.1c-5.3-14.5.5-31.7 16.5-48.8l7.4-7.9 3.7 7C70.9 82 76.2 87 83 87c1.676 0 5.878-.632 10.08-1.425l.812-.155c.54-.105 1.078-.212 1.608-.32 8.8-1.9 30.5-4.8 39.5-5.3 4.4-.3 4.5-.4 4.8-3.8.3-3.5.2-3.5-5.5-5.2-21.8-6.4-32.3-30.1-22.4-50.2 4.8-9.7 12.8-16.1 24.1-19.2Zm1.9 189.9c-8.2 3.1-14.6 10.4-17.4 20.1-3.5 11.8-1.1 28.6 5.3 36.5 7 8.6 14 11.5 23.6 9.7 5-.9 12.9-8.5 16.2-15.4 3.6-7.4 4.5-21.8 2-30.4-4.4-15.2-18.2-24.7-29.7-20.5Zm7.4 7.1c2.1.2 5.3 1.6 7.2 3 1.8 1.4 4.6 5.2 6.2 8.3 2.5 5.1 2.8 6.9 2.7 14.8-.1 10.3-1.5 14.4-7 20.5-6.5 7.2-14.3 7.2-20.8 0-4.4-4.9-6.5-9.8-7.3-17-1.6-15.9 8-31 19-29.6Zm-76.8-4.9c-.448.18-2.665.52-5.065.876l-.556.083-.279.041c-4.8.7-4.8.7-4.2 3.8.4 1.7 1 3.5 1.4 3.9.4.4 3.5.3 6.7-.2 9.6-1.6 25.4 1.5 36.8 7.2l3.7 1.8 1.9-3.2c1.1-1.7 1.8-3.5 1.5-4-.8-1.3-9.4-4.8-17.9-7.3-7.4-2.1-21.7-4-24-3Zm137 .6c-7.1 1.1-17.2 4.3-23.8 7.6-4.4 2.2-4.7 2.5-3.6 4.6 2.4 4.6 2.9 4.8 6.7 2.8 11.1-5.5 27-8.7 36.4-7.1 3.4.5 6.6.6 7 .2.4-.4 1-2.1 1.4-3.8.5-2.9.3-3.2-2.5-3.7-6.2-1.3-15.8-1.5-21.6-.6Zm-53.8-180c-5.1-2-12.9-1.3-18.5 1.5-15 7.5-17.6 26.5-5.2 37.7 10 9 22 9 32 0 13.3-12 8.9-32.8-8.3-39.2Z" fill="#000" fill-rule="nonzero"/></svg>
