<!-- Generated by IcoMoon.io -->
<svg version="1.1" xmlns="http://www.w3.org/2000/svg" width="27" height="32" viewBox="0 0 27 32">
<path fill="#444" d="M0.296 12.418c4.166-3.106 8.416-6.104 12.594-9.198-0.008 1.942 0.004 3.883-0.005 5.825-2.364 1.705-4.718 3.423-7.073 5.137-1.847-0.562-3.667-1.211-5.515-1.764zM13.77 3.233c3.559 2.563 7.095 5.157 10.648 7.726 0.652 0.488 1.33 0.942 1.965 1.455-1.789 0.542-3.557 1.158-5.34 1.717-0.168 0.084-0.307-0.039-0.433-0.133-2.273-1.68-4.588-3.307-6.847-5.006 0.019-1.919 0.004-3.839 0.007-5.759zM6.379 14.857c2.323-1.684 4.642-3.374 6.965-5.058 2.303 1.69 4.618 3.365 6.933 5.040-0.875 2.725-1.749 5.449-2.656 8.163-2.857-0.003-5.715-0.009-8.571 0.003-0.903-2.711-1.745-5.442-2.671-8.147zM21.169 15.019c1.837-0.583 3.669-1.179 5.498-1.788-1.597 4.945-3.225 9.881-4.809 14.83-1.156-1.548-2.275-3.126-3.416-4.687 0.918-2.783 1.8-5.576 2.727-8.356zM0 13.253c1.847 0.558 3.672 1.194 5.515 1.768 0.911 2.783 1.812 5.568 2.717 8.354-1.129 1.566-2.266 3.126-3.404 4.687-1.613-4.934-3.188-9.882-4.828-14.809zM8.939 23.907c0.45 0.008 0.899-0.001 1.347-0.005 1.617 0.013 3.234 0.007 4.851 0 0.862 0.012 1.726 0.011 2.59 0.001 1.143 1.547 2.254 3.118 3.401 4.662-5.193-0.003-10.388 0.009-15.581-0.007 1.152-1.535 2.26-3.102 3.392-4.651z"></path>
</svg>
