<!-- Generated by IcoMoon.io -->
<svg version="1.1" xmlns="http://www.w3.org/2000/svg" width="27" height="32" viewBox="0 0 27 32">
<path fill="#444" d="M12.529 4.328c-1.605 1.963-2.219 2.8-3.072 4.181-0.299 0.485-0.731 1.28-0.731 1.344 0 0.016 0.416 0.037 0.923 0.053 0.677 0.021 1.035 0.059 1.36 0.139 0.928 0.235 1.765 0.741 2.48 1.504 0.816 0.869 1.275 1.877 1.259 2.789 0 0.24-0.011 0.256-0.059 0.139-0.032-0.075-0.197-0.421-0.363-0.773-0.779-1.611-2.165-2.699-3.947-3.093-0.544-0.123-2.091-0.165-2.821-0.080-1.323 0.149-2.725 0.48-4.032 0.949-0.912 0.331-3.435 1.349-3.472 1.403-0.032 0.059 1.477 2.427 2.208 3.456 0.277 0.395 0.752 1.019 1.045 1.387 0.523 0.656 1.499 1.712 1.579 1.712 0.021 0 0.080-0.149 0.133-0.331 0.16-0.533 0.485-1.307 0.725-1.707 0.261-0.443 0.795-1.024 1.275-1.387 0.443-0.341 1.291-0.757 1.84-0.901 0.576-0.155 1.568-0.171 2.021-0.032 0.171 0.053 0.304 0.107 0.293 0.117s-0.272 0.048-0.581 0.080c-1.52 0.165-2.624 0.693-3.632 1.744-1.739 1.803-2.373 4.912-2.027 9.899 0.064 0.875 0.112 1.627 0.112 1.669s0.043 0.075 0.096 0.075c0.165 0 3.275-0.843 4.144-1.12 1.029-0.336 2.443-0.885 3.083-1.205 0.256-0.128 0.464-0.245 0.464-0.256s-0.197-0.165-0.437-0.341c-0.971-0.704-1.552-1.349-1.941-2.171-0.288-0.608-0.432-1.125-0.501-1.819-0.096-0.917 0.043-1.728 0.411-2.432 0.181-0.347 0.453-0.677 0.373-0.453-0.021 0.053-0.085 0.341-0.149 0.64-0.203 0.971-0.133 2.080 0.176 2.997 0.768 2.235 3.040 3.968 6.816 5.189 0.747 0.24 4.048 1.104 4.080 1.067 0.027-0.027 0.181-2.709 0.219-3.749 0.048-1.301-0.091-3.632-0.251-4.251l-0.053-0.203-0.384 0.283c-0.747 0.544-1.296 0.848-1.904 1.040-1.408 0.453-3.141 0.219-4.352-0.592-0.368-0.245-0.928-0.821-0.928-0.955 0-0.021 0.139 0.048 0.304 0.155 1.931 1.232 4.224 1.259 6.213 0.064 1.056-0.635 2.405-1.861 3.371-3.061 0.784-0.981 3.024-4.427 2.928-4.507-0.080-0.069-3.088-1.216-3.883-1.483-0.917-0.304-1.915-0.581-2.8-0.773-0.848-0.187-1.067-0.213-1.067-0.139 0 0.037 0.069 0.283 0.155 0.549 0.485 1.515 0.469 2.704-0.059 3.968-0.395 0.949-1.275 1.957-2.021 2.32-0.219 0.107-0.464 0.208-0.555 0.229-0.16 0.032-0.16 0.032 0.053-0.139 0.699-0.571 1.365-1.413 1.707-2.149 0.837-1.829 0.656-3.797-0.581-6.304-0.507-1.019-1.051-1.877-1.872-2.955-0.656-0.853-2.32-2.843-2.405-2.869-0.032-0.010-0.469 0.48-0.965 1.088z"></path>
</svg>
