<svg version="1.0" xmlns="http://www.w3.org/2000/svg" viewBox="0 0 393 462"><path d="M175.3 5.4c-14.7 9.2-24.5 13-44.5 17.5-12 2.8-17.7 6.3-22.9 14.3-2.1 3.3-4 7.2-4.4 8.7-.5 2.5-1.5 3.1-9.2 5.6-8.7 2.9-22.4 10.6-28.6 16.1C49.8 81.9 39 108 39 132v6.8l-8.1 4.7c-25.5 14.7-36 42.3-27.4 72 3.5 12.2 12 21.4 21.8 23.5 4.9 1.1 6.2 1 14.3-1.4 12-3.5 16.5-3.4 26.1.8 11.5 5.1 24.7 8.7 34.1 9.3 4.5.3 8.2.8 8.2 1.1 0 1.7-5.1 8-10.3 12.8-4.5 4.1-9.8 7.4-19.5 12.1-12.6 6.1-13.2 6.5-12.1 8.6 2.4 4.6 9.9 14.4 14.3 18.7 2.5 2.4 4.6 4.8 4.6 5.2 0 .4-2 3.2-4.5 6.2-2.5 3.1-4.5 6-4.5 6.5 0 .6 5.1 5.3 11.3 10.5 7.7 6.5 12.6 11.6 15.5 16 6.7 10.1 15 16.5 28.1 21.4 5.7 2.2 8.6 2.6 20.4 2.8 13.8.3 13.8.3 17.8 3.5 2.1 1.7 5.1 5.1 6.5 7.5 1.4 2.4 2.9 4.4 3.2 4.4.4 0 6.7-1.8 14-3.9l13.2-3.9-.1 3.2c-.1 4.3-2.3 16.3-3.1 17.1-.3.4-4.8 0-9.9-.9-23.9-4.1-43.6.9-57.1 14.6-9.7 9.9-16.9 27.1-18.5 44.2l-.6 6.6h77.8c63.3 0 77.6-.2 77.2-1.3-.3-.7-5.9-9.8-12.6-20.2-8.3-13-11.9-19.5-11.6-20.9.3-1.2 1.6-9.1 3-17.6 1.4-8.5 2.8-16.3 3.1-17.2.3-.9 3-3.1 6.1-4.9 7.2-4.1 17.2-13.6 21.9-20.7 2.1-3.1 5-9.2 6.6-13.6l2.7-8.1 7.9-1.2c27.6-4.3 51.8-18.8 65.2-39 5.2-7.9 10.4-19.4 12.2-27.1.9-4 2.2-6.1 6.4-10.2 11.6-11.4 10.8-19.1-2.7-26.1-2.2-1.1-3.9-2.5-3.9-3.2 0-.6.9-3.7 2.1-6.7 1.1-3 2.3-8.6 2.6-12.5.5-6.2 1-7.6 4.4-11.8 7.6-9.6 8.7-18.1 3-23.8-2.9-2.8-8.5-4.9-13.4-4.9h-2.9l.7-6.2c.6-5.1 1.4-7 4.1-10.2 10.3-12.1 9.8-24.4-1.3-28-21.2-6.9-52.5-3.5-75.8 8.1-16.1 8.1-31.1 21.2-42.7 37.4-6.9 9.6-16.2 28.2-20.8 41.4-1.7 4.9-3.5 9.4-3.9 9.8-.5.5-3.6-1.7-6.9-4.8l-6-5.6 6.2-12.2c6.8-13.4 10.2-24.3 11.2-35.9l.7-7.5 5.4-1.3c3-.6 9-2.9 13.3-5.1 10.5-5.3 16.8-12.3 24.5-27.2 3.2-6.1 7.6-13.2 9.7-15.6 2.1-2.4 3.8-4.9 3.8-5.6 0-2.9-14.9-14.3-22.7-17.4-3.8-1.5-3.8-1.7-1.7-10.8 2.4-9.7 2.1-23.2-.4-31.3-1.9-5.9-9.9-20-11.3-20-.3 0-3.1 2.9-6.2 6.4-8.7 9.8-15 11.4-30 7.5-5.2-1.4-11.5-2.2-17.2-2.2-7.6-.1-9.8.3-14.5 2.4l-5.5 2.6-.1-17.1c0-9.4-.4-18.1-1-19.4-.9-2.2-1-2.2-8.1 2.2zm-2.9 23.7c1.8 8.9-.3 25.9-4 33-1.5 3-1.5 3 .5 1.9 1.1-.5 3.6-3.2 5.5-5.8 5.2-7.2 7.4-9 13.3-11.2 8.4-3.1 15.4-2.7 29.3 2s21.2 5.1 30 1.9c3-1.1 6.2-2.1 7-2.2 3.3-.5 3.2 16.1-.2 27.5l-1.1 3.8H245c-12.9 0-26.4 3.2-38.4 9.2-6.6 3.4-7 4.5-.6 2.3 13.2-4.6 28.6-6 40.5-3.6 10.8 2.2 28.2 12 27.3 15.4-1.1 4.4-14.5 28.2-17.7 31.5-4.7 4.8-16 10.6-23.8 12.2-9.9 2.1-19 .2-25.2-5.4l-2.4-2.1.7 3c1.4 5.8 6.7 11 13.9 13.5 2.5.9 2.7 1.4 2.7 6.2 0 12-7.9 31.9-18 45.2-4.3 5.6-5 7-3.9 8.1.8.6 10.1 9.2 20.7 19 10.6 9.7 19.4 17.6 19.6 17.4.2-.2 1.8-6.2 3.6-13.3 4.1-16.9 8-27.8 14.2-40.1 17.3-34.7 43.2-54.5 77.7-59.5 12-1.8 32.1-.6 32.1 1.9 0 .4-2.2 3.2-5 6.3-4.2 4.7-5 6.2-5 9.6 0 2.1-.3 6.6-.6 9.9l-.7 6-7.8 2.1c-17.4 4.7-37.7 16.9-50.7 30.6-10.6 11.2-12.9 15.3-3.6 6.6 19.5-18.5 42.4-28.6 67.4-29.7 10.3-.5 11.7-.3 13.9 1.4 2 1.6 2.2 2.2 1.1 3.9-.7 1.1-3.5 3.7-6.4 5.8l-5.1 3.8v9.6c0 8-.5 10.7-2.5 15.7l-2.5 6-10-.3c-12-.4-22.4 1.5-32.9 5.8-8 3.4-19.2 10.7-24.1 16-2.5 2.7-1.8 2.4 4.7-2 17.2-11.5 35.6-15.3 55.3-11.5 7.7 1.4 23 8.1 23 10 0 .5-2.8 2.8-6.1 5-5.4 3.5-6.2 4.5-6.8 8-6.1 35.8-36.9 61.1-77.2 63.2l-10.2.6-.4 8.2c-.3 6.4-1.1 9.5-3.3 14.1-3.2 6.6-14.7 18.7-20.7 21.9l-3.7 1.9-4-2.9c-2.2-1.7-6.4-4.9-9.4-7.3l-5.5-4.3-21 6.1c-11.6 3.3-21.7 6-22.5 6-.7 0-2.4-1.2-3.8-2.6-1.3-1.4-5-4.3-8.2-6.4l-5.8-3.9-11.4.6c-13.9.7-21.5-1-30.5-6.8-4.5-2.9-7.1-5.7-11-11.5-2.8-4.2-6.3-8.6-7.8-9.8-1.5-1.1-4.6-3.8-6.9-5.9l-4.1-3.8 4.9-8c4.6-7.4 5.3-9.9 2.8-9.9-2.6 0-17-11.3-15.8-12.4.2-.3 3.9-2.7 8.2-5.5 4.2-2.8 9.7-6.9 12.1-9.2 9.8-9 17.7-24.2 19.2-37.2.4-3.1.5-5.7.3-5.7s-3.8.9-7.9 2c-9.2 2.4-21.9 2.6-30.4.4-3.3-.8-10.8-3.7-16.6-6.2-9.9-4.4-11-4.7-19.5-4.7-6.8 0-10.9.6-16.7 2.4l-7.6 2.4-3.4-2c-10.2-5.9-13.6-32-6.3-48.1 4.5-9.7 16.6-19.3 30-23.6l5-1.7v-15.7c0-18.2 1.2-23.9 7.7-37.2 8.5-17.6 25.5-30.2 45.5-33.7l9.1-1.6.4-6.8c.6-11.1 5.2-15.2 20.6-18.4 9.8-2 20.5-5.3 27.2-8.4 6-2.7 6.6-2.6 7.4 1zm60.3 347.1c5.6 4.4 6.4 5.5 6 7.7-.3 1.4-2 11.3-3.7 21.8l-3.2 19.3 6.6 10.4c3.6 5.7 6.6 10.6 6.6 11 0 .3-25 .6-55.6.6h-55.6l.6-3.3c1-4.8 6.1-15.3 9.8-19.9 4.2-5.4 10.7-9.4 19.1-12 11.5-3.4 29.3-1.7 44.5 4.4 2.9 1.1 5.5 1.8 5.8 1.6.7-.8 5.1-21.9 6.9-33.8 1.5-9.4 3-13 5.3-13 .2 0 3.3 2.3 6.9 5.2z"/><path d="M91.5 121.1C81.2 124.9 75 139 75 158.6c0 14.2 3.7 25 9.9 29.1 6.1 4.1 12.6 2.1 16.3-5 1.7-3.2 2.3-6.4 2.6-14.1.8-17.8-4-30.5-12.5-33.1-3-.8-2.9-2 .3-5 3.3-3.1 8.5-3.3 13.4-.6 10.6 5.6 14.2 32.8 7.1 53.4-1.1 3.2-1.6 5.5-1.1 5.2 1.7-1.1 3.6-5.7 6-14.5 4.4-16.2 2.8-37.3-3.6-45.8-4.6-6-15.3-9.5-21.9-7.1z"/></svg>
