<!-- Generated by IcoMoon.io -->
<svg version="1.1" xmlns="http://www.w3.org/2000/svg" width="24" height="32" viewBox="0 0 24 32">
<path fill="#444" d="M8.135 2.856c0.784-0.166 1.553-0.423 2.257-0.811 0.136 0.852 0.163 1.762-0.203 2.564 0.204-0.189 0.373-0.414 0.506-0.658 0.040-0.084 0.128-0.125 0.2-0.176 0.438-0.289 0.978-0.413 1.498-0.353 0.342 0.034 0.673 0.146 0.982 0.296 0.774 0.352 1.747 0.328 2.444-0.188 0.254 0.771 0.121 1.61-0.148 2.359-0.971-0.121-1.959 0.093-2.843 0.495 0.605-0.171 1.236-0.285 1.866-0.223 0.927 0.074 1.846 0.456 2.494 1.136-0.513 0.645-0.67 1.503-1.224 2.119-0.242 0.281-0.577 0.452-0.902 0.616-0.481 0.227-1.019 0.377-1.554 0.311-0.351-0.041-0.685-0.204-0.93-0.46 0.074 0.262 0.232 0.501 0.457 0.657 0.196 0.141 0.43 0.219 0.666 0.265 0.029 0.664-0.113 1.327-0.36 1.941-0.276 0.685-0.668 1.326-1.164 1.874 0.876 0.809 1.75 1.62 2.626 2.428 0.165-0.718 0.327-1.439 0.569-2.136 0.423-1.24 1.042-2.437 1.954-3.39 0.855-0.903 1.981-1.547 3.197-1.812 0.928-0.203 1.904-0.22 2.831-0.008-0.188 0.353-0.47 0.644-0.771 0.902 0.061 0.459-0.017 0.921-0.062 1.377-1.173 0.213-2.269 0.762-3.192 1.509-0.283 0.227-0.55 0.476-0.79 0.75 0.419-0.363 0.867-0.698 1.358-0.96 0.687-0.37 1.43-0.641 2.198-0.777 0.627-0.109 1.284-0.122 1.896 0.069 0.036 0.122-0.045 0.234-0.108 0.332-0.211 0.28-0.505 0.482-0.801 0.663 0.003 0.267 0.091 0.528 0.063 0.796-0.040 0.462-0.217 0.899-0.43 1.307-0.644-0.096-1.305-0.092-1.941 0.053-0.661 0.147-1.293 0.431-1.835 0.838 1.249-0.715 2.822-0.819 4.155-0.282 0.299 0.119 0.58 0.278 0.845 0.461-0.249 0.291-0.587 0.486-0.924 0.657-0.025 0.101-0.046 0.203-0.061 0.307-0.184 1.172-0.838 2.254-1.772 2.981-0.956 0.756-2.167 1.151-3.378 1.194-0.189 0.006-0.378 0.008-0.567 0.013-0.004 0.26 0.019 0.523-0.029 0.78-0.091 0.543-0.381 1.035-0.749 1.436-0.323 0.351-0.711 0.641-1.139 0.851-0.411-0.325-0.822-0.65-1.233-0.974-0.977 0.285-1.951 0.579-2.93 0.858-0.313-0.406-0.747-0.695-1.19-0.944-0.712 0.177-1.485 0.173-2.173-0.101-0.31-0.12-0.592-0.303-0.847-0.514-0.335-0.292-0.468-0.737-0.765-1.060-0.317-0.255-0.624-0.521-0.931-0.788 0.251-0.344 0.455-0.718 0.672-1.083-0.488-0.235-0.929-0.568-1.277-0.984 0.912-0.433 1.762-1.076 2.262-1.97 0.293-0.517 0.454-1.104 0.486-1.697-0.449 0.103-0.893 0.255-1.357 0.267-0.758 0.037-1.499-0.196-2.178-0.514-0.324-0.147-0.648-0.314-1.006-0.358-0.468-0.056-0.937 0.044-1.38 0.188-0.135 0.039-0.264 0.098-0.404 0.122-0.203-0.004-0.416-0.075-0.551-0.234-0.256-0.282-0.383-0.655-0.451-1.023-0.099-0.558-0.088-1.139 0.047-1.691 0.171-0.667 0.656-1.213 1.228-1.576 0.385-0.246 0.811-0.427 1.254-0.538-0.035-0.43-0.089-0.861-0.067-1.294 0.034-1.149 0.431-2.313 1.223-3.162 0.576-0.628 1.354-1.059 2.184-1.244 0.233-0.055 0.471-0.083 0.708-0.113 0.004-0.302-0.007-0.619 0.127-0.899 0.077-0.198 0.214-0.372 0.396-0.485 0.29-0.185 0.637-0.239 0.97-0.298zM4.785 8.654c-0.291 0.203-0.472 0.526-0.589 0.855-0.156 0.451-0.213 0.931-0.215 1.407-0.014 0.463 0.046 0.933 0.207 1.369 0.099 0.259 0.245 0.52 0.491 0.666 0.263 0.157 0.628 0.102 0.836-0.121 0.214-0.222 0.302-0.532 0.352-0.828 0.073-0.478 0.045-0.97-0.059-1.441-0.075-0.312-0.185-0.63-0.403-0.873-0.14-0.158-0.346-0.254-0.559-0.249 0.095-0.218 0.261-0.436 0.509-0.48 0.308-0.046 0.638 0.071 0.841 0.309 0.25 0.288 0.358 0.668 0.419 1.037 0.086 0.573 0.060 1.158-0.038 1.728-0.065 0.373-0.169 0.742-0.335 1.083 0.337-0.498 0.519-1.086 0.613-1.675 0.107-0.732 0.080-1.503-0.195-2.197-0.166-0.422-0.592-0.69-1.026-0.767-0.292-0.062-0.605 0.006-0.848 0.178zM13.683 25.069c0.069-0.020 0.139-0.040 0.208-0.062 0.273 0.213 0.543 0.43 0.815 0.644-0.161 0.96-0.322 1.92-0.482 2.88 0.301 0.474 0.601 0.949 0.9 1.424-2.422 0-4.845 0-7.267 0 0.148-0.625 0.409-1.247 0.879-1.699 0.38-0.374 0.895-0.589 1.42-0.66 0.687-0.094 1.387 0.009 2.048 0.204 0.307 0.088 0.595 0.227 0.891 0.346 0.276-1.010 0.417-2.048 0.589-3.078z"></path>
</svg>
