<!-- Generated by IcoMoon.io -->
<svg version="1.1" xmlns="http://www.w3.org/2000/svg" width="32" height="32" viewBox="0 0 32 32">
<path fill="#444" d="M22.554 4.027c0.606-0.596 1.208-1.194 1.814-1.79 0.13 0.105 0.24 0.23 0.361 0.344 2.405 2.374 4.815 4.744 7.217 7.121v12.596c-2.383 2.357-4.772 4.707-7.158 7.062-0.143 0.132-0.269 0.285-0.425 0.402-0.602-0.598-1.207-1.192-1.811-1.788-5.764-0.004-11.528-0.001-17.292-0.002-0.996-0.001-1.994-0.276-2.834-0.815-1.097-0.693-1.922-1.812-2.231-3.075-0.071-0.252-0.092-0.514-0.142-0.77v-14.74l0.027 0.027c0.11-1.188 0.688-2.319 1.553-3.136 0.864-0.829 2.026-1.34 3.221-1.415 0.406-0.038 0.816-0.011 1.223-0.019 5.492-0.001 10.984 0.003 16.476-0.002zM17.948 10.182c-0.001 3.878 0.002 7.756-0.001 11.634 1.872 1.859 3.756 3.707 5.634 5.561 0.248 0.234 0.477 0.49 0.736 0.712 1.536-1.823 3.088-3.633 4.625-5.455 0.030-0.114 0.002-0.24 0.012-0.359-0.001-3.745-0.003-7.489-0.005-11.234 0-0.060 0.008-0.122-0.011-0.18-0.963 0.432-1.925 0.867-2.887 1.301-0-0.679-0.033-1.357-0.033-2.036 0.5 0.002 1 0.003 1.5-0.001 0.224-0.041 0.45 0.012 0.674-0.016 0.557-0.001 1.114 0.001 1.671-0.004 0.118 0.475 0.228 0.956 0.334 1.435l0.020 0.029c0.043 0.29 0.129 0.572 0.19 0.859 0.129 0.566 0.264 1.131 0.391 1.697-0.008-1.308-0.005-2.616-0.005-3.923-1.085-1.098-2.201-2.165-3.292-3.257-1.035-1.035-2.094-2.046-3.122-3.088-2.148 2.104-4.289 4.215-6.43 6.326zM24.202 5.459c0.018-0.013 0.053-0.039 0.071-0.052-0.003 1.336-0.002 2.672-0.004 4.008-1.255-0.004-2.51-0.002-3.764-0.006 1.23-1.319 2.468-2.63 3.698-3.95zM25.282 5.51c0.017 0.010 0.051 0.028 0.068 0.038 0.925 0.919 1.845 1.842 2.78 2.75 0.366 0.361 0.731 0.724 1.095 1.088l0.021 0.038c-0.544-0.004-1.088-0.005-1.632-0.002-0.72-1.196-1.433-2.396-2.15-3.593-0.060-0.106-0.132-0.206-0.181-0.318zM20.375 10.13c1.045-0.001 2.090-0.001 3.136-0.002 0.253 0.007 0.508-0.014 0.759 0.010-0.015 3.689-0.002 7.378-0.012 11.066-0.606-2.485-1.212-4.969-1.814-7.455-0.694 0.362-1.378 0.741-2.069 1.108 0.002-1.576 0.001-3.151-0-4.727zM20.287 22.506c1.325 0.001 2.65-0.001 3.975 0.001 0 1.35 0.001 2.699-0.001 4.049-1.222-1.234-2.439-2.474-3.658-3.711-0.103-0.115-0.229-0.211-0.316-0.339zM5.192 5.171c-0.901 0.005-1.796 0.322-2.498 0.888-0.808 0.642-1.355 1.609-1.466 2.637-0.036 0.284-0.025 0.571-0.027 0.857 0.002 4.464 0.002 8.929 0.007 13.393 0.049 0.162-0.003 0.337 0.055 0.496 0.109 0.849 0.538 1.65 1.157 2.239 0.737 0.734 1.775 1.136 2.81 1.142 5.386 0.005 10.773 0.005 16.159 0.008-0.058-0.091-0.145-0.155-0.218-0.232-1.456-1.437-2.915-2.871-4.37-4.309 0.002-4.192 0.001-8.385-0-12.577 1.528-1.513 3.066-3.018 4.587-4.538-5.399-0.002-10.797-0.005-16.196-0.003zM10.055 7.016c1.872 0.010 3.744 0.003 5.615 0.003 0.004 2.062-0.002 4.124 0.002 6.186-0.165 0.008-0.331 0.013-0.495-0.003-0.075-0.752-0.198-1.499-0.366-2.235-0.16-0.67-0.355-1.341-0.684-1.949-0.182-0.323-0.412-0.646-0.757-0.81-0.217-0.108-0.464-0.077-0.697-0.074 0.002 2.078-0.002 4.156 0.002 6.234 0.218-0.001 0.417-0.125 0.553-0.29 0.203-0.244 0.322-0.546 0.406-0.848 0.145-0.527 0.187-1.076 0.192-1.621 0.161 0 0.321 0.001 0.482-0 0.005 2.496-0 4.992 0.003 7.488-0.162 0.004-0.324 0.003-0.486 0.001-0.007-0.48-0.060-0.96-0.144-1.432-0.079-0.414-0.178-0.831-0.38-1.204-0.129-0.237-0.339-0.484-0.633-0.481 0.001 2.582 0.001 5.163 0.003 7.745-0.002 0.308 0.088 0.632 0.312 0.853 0.095 0.098 0.223 0.164 0.36 0.176 0.001 0.115 0.005 0.23-0.003 0.345-1.005-0.003-2.009 0-3.014-0.001-0.087-0.002-0.175 0.008-0.261-0.009 0.007-0.117 0.005-0.235 0.003-0.352 0.201-0.028 0.395-0.129 0.512-0.299 0.148-0.206 0.177-0.468 0.176-0.714-0-5.257 0.001-10.513 0-15.77 0.004-0.365-0.371-0.617-0.71-0.61 0-0.11-0.010-0.221 0.007-0.33zM3.267 7.020c1.875 0 3.749 0 5.623 0.001 0.001 2.063 0.001 4.127 0 6.19-0.162 0-0.324 0.002-0.487-0.001-0.12-1.051-0.291-2.102-0.609-3.114-0.148-0.459-0.325-0.915-0.593-1.319-0.17-0.249-0.385-0.487-0.674-0.596-0.2-0.079-0.419-0.047-0.629-0.049 0 2.078-0.002 4.156 0.001 6.234 0.202-0.004 0.388-0.11 0.519-0.259 0.214-0.235 0.334-0.538 0.424-0.838 0.152-0.539 0.2-1.101 0.202-1.659 0.163 0 0.327-0.010 0.49 0.005-0.006 2.495-0 4.99 0.001 7.485-0.163 0.001-0.327-0-0.49 0.002-0.013-0.53-0.069-1.060-0.173-1.579-0.079-0.378-0.18-0.759-0.372-1.098-0.127-0.223-0.332-0.444-0.608-0.444 0.002 2.63-0.006 5.26 0.014 7.887 0.016 0.279 0.131 0.561 0.344 0.746 0.091 0.079 0.206 0.132 0.327 0.134-0.003 0.117 0.007 0.235-0.006 0.352-1.092 0.023-2.186 0.011-3.279 0.021-0.009-0.13-0.002-0.26-0.007-0.389 0.195-0.028 0.383-0.117 0.501-0.28 0.131-0.177 0.18-0.402 0.183-0.619 0.004-5.293 0.006-10.586 0.008-15.879 0.002-0.363-0.372-0.612-0.709-0.607-0.009-0.109-0.003-0.218-0.004-0.326z"></path>
</svg>
