<svg version="1.0" xmlns="http://www.w3.org/2000/svg" viewBox="0 0 404 352"><path d="m295.5 12-11.1 11h-112c-125.6 0-119.3-.3-134.9 7.4-15 7.4-25.7 19.1-31.8 34.6C1 77 .9 81.1 1.2 180.5c.4 83.2.6 93.7 2.1 99.2 6 22.1 22 38.9 44 45.8l7.8 2.5h228.5l11.6 11.6c9.9 9.9 11.9 11.4 13.4 10.6 1.1-.6 22.7-21.9 48.2-47.4l46.2-46.4V95.5l-47.3-47.3C329.8 22.3 308.1 1 307.6 1s-5.9 4.9-12.1 11zm53.3 49.3 40.2 40.4v22.6c0 12.6-.4 22.7-.9 22.7-1 0-2.6-6.1-6.7-24.5-1.5-6.6-3.2-14-3.9-16.5l-1.2-4.5h-47.5l.1 12c.1 6.6.3 12.1.5 12.2.2.2 8.1-3.2 17.7-7.6l17.4-7.9.3 75.5.2 75.4-7.2 8.8c-27.7 33.6-50.3 60.1-51.2 60.1-.6 0-19-17.9-40.9-39.8L226 250.4V101.6l40.2-40.3C288.4 39.1 306.9 21 307.5 21c.6 0 19.2 18.2 41.3 40.3zM269 38.1c0 .6-12.6 13.8-28 29.3l-28 28.1v161l28.5 28.5c15.7 15.7 28.5 28.8 28.5 29.3 0 .4-47.8.6-106.2.5l-106.3-.3-6.6-2.3c-16-5.4-28-17.7-33.5-34.2-1.7-5.1-1.9-11.7-2.2-100.5-.4-106.5-.6-101.7 6.9-114.6C29.3 50.5 44 39.9 56.5 38c8.6-1.3 212.5-1.2 212.5.1z"/><path d="m282.9 66-22.6 24.5 22.5.3c12.4.1 22.7.1 22.9-.1.2-.2.2-11.4.1-24.8l-.3-24.3L282.9 66zM321 44.3c0 .3 3.3 6.1 7.3 12.9 4 6.8 10.2 17.1 13.6 23l6.3 10.8h19.2l-18.6-18.8c-10.2-10.3-20.6-20.9-23.2-23.5-2.5-2.7-4.6-4.6-4.6-4.4zM257.7 101.7c-.4.3-.7 13.6-.7 29.5 0 22.4.3 28.8 1.3 28.8.6-.1 6.4-2.9 12.7-6.4 6.3-3.5 11.8-6.1 12.1-5.7.4.3 3.2 11.4 6.4 24.6 10.7 44.6 15.7 65 16.1 65.4.2.2.4-30.5.4-68.2V101h-23.8c-13.1 0-24.2.3-24.5.7zM257 259.7c.1.5 11.1 12 24.5 25.8l24.5 25-.3-25.5-.2-25.5-24.2-.3c-13.4-.1-24.3.1-24.3.5zM42 63.3c0 .7 1.5 1.8 3.3 2.5 1.9.7 3.9 2.3 4.5 3.8 1.7 3.7 1.6 206.5-.1 211.4-.7 2-2.5 4.3-4.4 5.5-1.8 1.1-3.2 2.8-3.3 3.7 0 1.7 1.6 1.8 20.5 1.8 19.8 0 20.5-.1 20.5-2 0-1.1-.6-2-1.3-2-2.2 0-5.4-4.2-6.6-8.5-1.5-5.4-1.5-103.1-.1-104 1.8-1.1 5.9 2.3 8.1 6.8 2.6 4.9 5.8 18.4 5.9 24.2.1 6.4.9 8.5 3.6 8.5H95v-95h-2.3c-2.1 0-2.4.6-3.4 8.7-.7 4.9-1.9 11.1-2.7 13.9-1.7 5.6-7 12.2-10.1 12.6-2 .3-2-.3-2.3-40L74 75h4.7c4.3 0 5.1.4 9.3 4.8 8.8 9.1 12.8 21.4 18.6 56.9.4 2.7 1 3.3 2.9 3.3h2.5V62H77c-28 0-35 .3-35 1.3zM127 63.5c0 .8.7 1.5 1.6 1.5.9 0 2.9.9 4.5 2.1l2.9 2v106.3c0 105.3 0 106.4-2 108.9-1.1 1.4-2.9 2.9-4 3.2-1.1.4-2 1.5-2 2.6 0 1.8.9 1.9 20 1.9 18.9 0 20-.1 20-1.9 0-1-.9-2.1-1.9-2.4-1.1-.3-2.9-2-4-3.8-2-3.3-2.1-4.8-2.1-56.2 0-31.5.4-52.7.9-52.7 2.2 0 7 5.3 8.9 9.8 2 4.7 5.2 21.3 5.2 27.2 0 2.5.4 3 2.5 3h2.5v-95h-2.5c-2.3 0-2.5.4-2.5 4.4 0 6.8-3 19.7-5.6 24.1-2 3.4-6.8 7.5-8.8 7.5-.3 0-.6-18.2-.6-40.5V75h3.8c7.6 0 13.2 6 18.4 19.6 3.7 9.8 6.3 20.1 8.4 33.6 1.7 11.1 1.9 11.8 4.1 11.8h2.3V62h-35c-30.4 0-35 .2-35 1.5z"/></svg>