<!-- Generated by IcoMoon.io -->
<svg version="1.1" xmlns="http://www.w3.org/2000/svg" width="32" height="32" viewBox="0 0 32 32">
<path fill="#444" d="M21.986 4.028c0.597-0.612 1.215-1.204 1.819-1.809 2.463 2.427 4.922 4.858 7.386 7.283 0.064 0.081 0.19 0.137 0.186 0.253 0.002 4.116-0.001 8.233 0.001 12.349-0.006 0.088 0.022 0.194-0.051 0.261-1.128 1.107-2.255 2.216-3.377 3.329-1.147 1.12-2.278 2.256-3.426 3.375-0.241 0.236-0.479 0.474-0.719 0.712-0.603-0.606-1.223-1.196-1.82-1.808-0.38-0.383-0.768-0.757-1.148-1.139-5.174-0.002-10.348-0-15.522-0.001-0.443-0.004-0.889 0.020-1.328-0.056-1.169-0.183-2.234-0.915-2.826-1.938-0.378-0.628-0.548-1.365-0.541-2.094 0.001-4.531 0.001-9.062 0-13.594 0.012-0.511 0.095-1.025 0.296-1.498 0.396-0.969 1.19-1.766 2.156-2.169 0.495-0.208 1.032-0.316 1.568-0.318 5.399-0.002 10.797 0.002 16.196-0.002 0.38-0.382 0.769-0.755 1.148-1.138zM20.364 7.234c-0.988 0.987-1.992 1.957-2.981 2.942-0 3.883-0.003 7.766 0.001 11.65 0.663 0.66 1.332 1.313 1.999 1.969 1.448 1.439 2.91 2.865 4.358 4.304 1.548-1.829 3.106-3.649 4.651-5.481-0.006-3.922 0.001-7.844-0.003-11.767-0.245 0.094-0.478 0.214-0.719 0.317-0.726 0.331-1.455 0.658-2.18 0.99-0.005-0.304-0.005-0.608-0.007-0.911-0.032-0.373-0.017-0.749-0.029-1.123 1.285 0.004 2.572-0.007 3.857 0.006 0.026 0.221 0.095 0.434 0.141 0.651 0.037 0.153 0.069 0.308 0.109 0.461 0.007 0.038 0.015 0.077 0.023 0.116 0.040 0.152 0.075 0.306 0.108 0.46 0.039 0.153 0.074 0.307 0.107 0.461 0.038 0.153 0.075 0.306 0.107 0.46 0.038 0.153 0.075 0.306 0.107 0.461 0.051 0.202 0.097 0.404 0.143 0.607 0.017 0.061 0.026 0.124 0.032 0.187l0.056 0.010c-0.012-1.273 0-2.547-0.006-3.821-1.212-1.205-2.436-2.397-3.648-3.602-0.926-0.916-1.861-1.823-2.781-2.744-1.146 1.135-2.294 2.267-3.444 3.398zM19.932 9.403c1.255-1.333 2.508-2.668 3.762-4.002-0.001 1.334 0 2.669-0.001 4.003-1.253-0-2.507 0.001-3.761-0.001zM27.044 9.404c-0.776-1.317-1.568-2.624-2.352-3.937 1.325 1.312 2.65 2.625 3.978 3.936-0.542 0.003-1.084 0.001-1.626 0.001zM19.809 10.121c1.295 0.002 2.589 0.001 3.884 0.001-0 3.652 0.001 7.304-0.001 10.956-0.006 0.033-0.017 0.098-0.023 0.13-0.015-0.203-0.078-0.398-0.123-0.596-0.28-1.157-0.562-2.314-0.845-3.47-0.022-0.096-0.044-0.192-0.071-0.287-0.008-0.038-0.016-0.076-0.023-0.114-0.017-0.058-0.031-0.116-0.047-0.174-0.044-0.2-0.097-0.397-0.143-0.597-0.012-0.048-0.022-0.096-0.036-0.143-0.008-0.038-0.016-0.076-0.024-0.114-0.169-0.657-0.314-1.319-0.492-1.974-0.673 0.393-1.375 0.736-2.052 1.122-0.007-1.58 0-3.16-0.003-4.74zM19.696 22.508c1.332 0 2.665 0.001 3.997-0 0.001 1.353-0.001 2.706 0.001 4.059-1.332-1.354-2.665-2.706-3.997-4.058zM2.687 7.011c-0.001 0.113-0.007 0.228 0.015 0.34 0.106-0.001 0.21 0.018 0.31 0.055 0.209 0.098 0.396 0.296 0.393 0.54 0 5.287 0 10.575 0 15.863-0.004 0.214-0.041 0.438-0.164 0.619-0.113 0.168-0.301 0.295-0.507 0.298-0.018 0.126-0.013 0.254-0.011 0.381 1.091-0.004 2.183 0.002 3.274-0.003-0-0.117-0-0.233-0.001-0.349-0.040-0.005-0.080-0.009-0.119-0.012-0.299-0.115-0.463-0.418-0.533-0.714-0.015-0.131-0.021-0.264-0.019-0.395 0.002-2.552-0.002-5.104 0.002-7.656 0.248 0.017 0.449 0.193 0.571 0.399 0.227 0.369 0.332 0.797 0.418 1.218 0.094 0.498 0.149 1.004 0.158 1.511 0.163 0 0.325-0 0.487 0.001 0.001-2.499 0-4.997 0.001-7.496-0.163 0.001-0.327-0-0.489 0.001-0.003 0.639-0.060 1.29-0.279 1.895-0.129 0.343-0.332 0.705-0.695 0.839-0.056 0.005-0.113 0.011-0.17 0.017 0-2.077 0-4.153 0-6.23 0.22 0.005 0.454-0.032 0.662 0.064 0.325 0.137 0.552 0.428 0.729 0.723 0.317 0.547 0.509 1.154 0.668 1.762 0.208 0.831 0.356 1.679 0.433 2.531 0.166 0.002 0.332 0 0.498 0.002-0.001-2.068 0.003-4.136-0.002-6.204-1.877 0.004-3.753 0-5.63 0.002zM9.476 7.009c-0.002 0.113-0.003 0.227 0.005 0.34 0.335-0.017 0.703 0.241 0.706 0.596 0.001 5.276 0 10.552 0 15.828-0 0.219-0.033 0.448-0.153 0.637-0.111 0.176-0.304 0.311-0.516 0.315-0.039 0.123-0.015 0.254-0.021 0.381 1.094 0 2.189 0.003 3.283-0.001-0.001-0.116-0.001-0.233-0.001-0.349-0.042-0.005-0.083-0.009-0.123-0.012-0.375-0.154-0.553-0.584-0.549-0.968 0-2.599-0.002-5.199 0.001-7.798 0.388 0.031 0.606 0.405 0.739 0.729 0.292 0.763 0.383 1.588 0.409 2.4 0.163-0.001 0.325-0.001 0.488-0 0.002-2.498-0-4.996 0.001-7.495-0.163-0-0.327 0-0.49-0-0.006 0.712-0.068 1.446-0.366 2.102-0.146 0.311-0.401 0.648-0.778 0.651 0.001-2.081-0.006-4.161 0.003-6.242 0.144 0.024 0.29-0.006 0.435 0.014 0.239 0.027 0.451 0.166 0.616 0.335 0.263 0.269 0.438 0.608 0.588 0.95 0.239 0.558 0.398 1.146 0.529 1.738 0.144 0.677 0.258 1.363 0.319 2.053 0.165 0.002 0.331 0 0.497 0.002-0.001-2.068 0.004-4.136-0.002-6.203-1.873 0.002-3.747 0.001-5.62 0z"></path>
</svg>
