<!-- Generated by IcoMoon.io -->
<svg version="1.1" xmlns="http://www.w3.org/2000/svg" width="26" height="32" viewBox="0 0 26 32">
<path fill="#444" d="M11.18 2.971c0.705-0.298 1.402-0.739 2.2-0.67 0.647-0.010 1.198 0.374 1.78 0.6 1.935 0.881 3.879 1.859 5.444 3.322 0.74 0.694 1.321 1.567 1.623 2.538 0.322 1.151 0.451 2.345 0.712 3.511 0.612 3.079 1.31 6.149 2.3 9.131 0.387 1.294 1.008 2.527 1.246 3.861 0 0.057-0 0.171-0 0.228 0.010 0.462-0.39 0.89-0.842 0.946-2.585 0.318-5.167 0.726-7.684 1.404-0.988 0.27-1.968 0.584-2.9 1.011-0.51 0.226-0.998 0.597-1.578 0.594-0.046-0.007-0.092-0.002-0.133 0.020-0.056 0.022-0.121 0.022-0.177 0-0.041-0.022-0.087-0.027-0.132-0.020-0.728-0.012-1.297-0.543-1.964-0.766-3.278-1.312-6.81-1.771-10.283-2.259-0.447-0.105-0.787-0.531-0.79-0.991 0.122-0.81 0.404-1.582 0.691-2.346 1.415-3.851 2.321-7.866 3.098-11.889 0.213-1.038 0.304-2.121 0.755-3.094 0.527-1.176 1.487-2.086 2.513-2.83 1.277-0.929 2.693-1.642 4.122-2.303zM13.078 3.37c-0.454 0.039-0.852 0.282-1.274 0.431-1.324 0.563-2.617 1.232-3.763 2.106-1.401 1.046-2.685 2.482-2.926 4.277-0.556 4.169-1.973 8.15-2.984 12.215 1.254-1.95 2.393-3.974 3.497-6.013 0.646-1.075 1.474-2.030 2.362-2.912 1.405-1.497 3.289-2.502 5.28-2.967 0.012-2.257-0-4.515 0.006-6.773-0.027-0.131 0.091-0.501-0.197-0.365zM13.277 11.631c-0.004 5.124-0.004 10.248-0 15.372 1.025-0.013 2.149-0.088 2.991-0.744 0.809-0.53 1.62-1.055 2.422-1.596 0.458-0.284 0.802-0.733 1.007-1.228 0.337-0.829 0.463-1.724 0.702-2.583 0.194-0.852 0.408-1.7 0.581-2.557-0.405-0.754-0.823-1.504-1.261-2.24-0.029-0.060-0.073-0.116-0.147-0.086-0.73 0.892-1.931 1.412-3.083 1.222-0.785-0.105-1.602-0.426-2.197-0.908 0.573-0.502 1.286-0.871 2.036-1.037 1.020-0.254 2.092-0.049 3.062 0.303-1.233-1.83-3.29-2.886-5.28-3.703-0.268-0.102-0.536-0.242-0.833-0.215zM8.676 15.215c-0.516 0.058-1.026 0.177-1.508 0.375-0.070 0.12-0.231 0.245-0.208 0.398 0.618 0.696 1.495 1.192 2.436 1.232 1.013 0.033 2.002-0.342 2.826-0.912-0.93-0.862-2.287-1.25-3.546-1.093zM5.56 18.598c-1.197 1.945-2.343 3.928-3.681 5.782-0.355 0.32-0.228 0.991 0.281 1.059 1.35 0.274 2.701 0.54 4.044 0.849 2.272 0.535 4.567 1.13 6.639 2.233 0.141 0.034 0.449 0.203 0.433-0.048-0.017-0.479 0.031-0.978-0.025-1.444-0.824-0.043-1.702-0.088-2.484-0.418-0.96-0.592-1.892-1.227-2.839-1.841-0.641-0.393-1.132-1.043-1.29-1.783-0.411-1.454-0.718-2.935-1.061-4.407l-0.017 0.018z"></path>
</svg>
