<!-- Generated by IcoMoon.io -->
<svg version="1.1" xmlns="http://www.w3.org/2000/svg" width="31" height="32" viewBox="0 0 31 32">
<title>frf</title>
<path fill="#444" d="M2.756 12.766c-2.892 3.435-2.775 6.854-2.738 7.403 1.672-1.3 3.777-2.077 6.060-2.076 5.473-0.002 9.914 4.441 9.915 9.92 0.001 0.446-0.037 0.887-0.090 1.329l0.003-0.001c1.611-2.355 3.506-6.354 1.346-10.24-1.708-3.089-3.315-2.034-5.641-5.124-1.828-2.405-1.576-5.148-1.576-5.148s-0.617 0.028-1.561 0.281c-1.492 0.4-3.791 1.363-5.718 3.656zM13.569 12.909c1.708 3.086 3.307 2.030 5.64 5.118 1.822 2.406 1.572 5.146 1.572 5.146s4.136-0.19 7.291-3.939c2.89-3.432 2.774-6.86 2.737-7.393-1.687 1.292-3.785 2.073-6.071 2.070-5.461 0.002-9.907-4.439-9.907-9.913 0-0.453 0.033-0.902 0.091-1.339-1.617 2.357-3.508 6.355-1.353 10.251z"></path>
</svg>
