<!-- Generated by IcoMoon.io -->
<svg version="1.1" xmlns="http://www.w3.org/2000/svg" width="29" height="32" viewBox="0 0 29 32">
<title>fut</title>
<path fill="#444" d="M18.51 23.028c1.656-2.222 2.238-3.972 2.238-6.746 0-2.772-0.582-4.519-2.238-6.739 2.896 1.248 4.441 3.61 4.43 6.766-0.014 3.138-1.551 5.47-4.43 6.718zM14.591 23.355c-1.876 0-3.395-3.211-3.395-7.178 0-3.965 1.518-7.176 3.395-7.176 1.873 0 3.392 3.211 3.392 7.176 0 3.967-1.519 7.178-3.392 7.178zM6.031 16.309c-0.013-3.335 1.997-5.939 5.227-6.766-2.119 1.937-2.968 3.866-2.968 6.739 0 2.874 0.85 4.803 2.968 6.746-3.213-0.827-5.215-3.397-5.227-6.718zM25.748 15.972c0-2.38-1.289-4.535-3.367-6.081 2.68 0.854 4.97 2.13 6.668 3.695-1.193-4.455-7.272-8.22-14.55-8.22-7.279 0-13.29 3.765-14.481 8.22 1.695-1.564 3.986-2.838 6.663-3.695-2.075 1.546-3.365 3.702-3.365 6.081 0 2.382 1.289 4.533 3.365 6.081-2.677-0.854-4.968-2.132-6.663-3.697 1.191 4.459 7.201 8.278 14.481 8.278 7.278 0 13.357-3.819 14.55-8.278-1.698 1.564-3.988 2.842-6.668 3.697 2.078-1.548 3.367-3.699 3.367-6.081z"></path>
</svg>
