<!-- Generated by IcoMoon.io -->
<svg version="1.1" xmlns="http://www.w3.org/2000/svg" width="28" height="32" viewBox="0 0 28 32">
<title>gn3</title>
<path fill="#444" d="M17.075 2.153c1.906 0.247 3.804 0.565 5.679 0.985 0.975 1.663 1.862 3.377 2.683 5.121-0.535-0.233-1.070-0.468-1.605-0.701-1.208 0.476-2.415 0.952-3.622 1.428-0.662 1.6-1.325 3.201-1.985 4.802 1.486 0.91 2.97 1.825 4.455 2.736 1.255-0.327 2.51-0.656 3.766-0.982 0.298-0.505 0.592-1.011 0.889-1.517 0.356 1.897 0.639 3.809 0.824 5.731-1.272 1.447-2.621 2.824-4.019 4.149 0.056-0.583 0.111-1.166 0.167-1.75-0.822-1.006-1.645-2.012-2.466-3.018-1.722-0.139-3.442-0.281-5.164-0.415-0.401 1.702-0.807 3.402-1.211 5.104 0.697 1.099 1.395 2.197 2.093 3.294 0.57 0.127 1.14 0.254 1.71 0.382-1.687 0.924-3.407 1.789-5.171 2.556-1.762-0.769-3.483-1.632-5.168-2.556 0.57-0.128 1.141-0.254 1.711-0.382 0.697-1.098 1.395-2.195 2.091-3.293-0.401-1.686-0.8-3.373-1.203-5.058-1.735 0.141-3.47 0.28-5.206 0.419-0.825 1.005-1.649 2.011-2.473 3.016 0.057 0.585 0.113 1.171 0.17 1.756-1.397-1.328-2.748-2.706-4.021-4.154 0.185-1.922 0.472-3.832 0.823-5.73 0.298 0.505 0.594 1.011 0.891 1.516 1.254 0.328 2.509 0.654 3.764 0.983 1.472-0.903 2.943-1.808 4.416-2.711-0.666-1.617-1.336-3.232-2.004-4.847-1.206-0.476-2.413-0.952-3.619-1.428-0.535 0.233-1.070 0.468-1.606 0.701 0.822-1.744 1.709-3.459 2.687-5.121 1.875-0.416 3.771-0.738 5.676-0.985-0.386 0.44-0.773 0.879-1.16 1.319 0.077 1.3 0.156 2.6 0.233 3.899 1.311 1.128 2.618 2.259 3.932 3.382 1.324-1.137 2.646-2.275 3.969-3.413 0.078-1.3 0.156-2.6 0.233-3.9-0.386-0.44-0.773-0.879-1.16-1.319zM14.033 7.193c-1.019-0.87-2.032-1.747-3.048-2.62 0.046 0.773 0.093 1.546 0.139 2.319 0.969 0.834 1.939 1.668 2.909 2.501 0.982-0.844 1.965-1.688 2.946-2.533 0.044-0.774 0.091-1.548 0.136-2.321-1.028 0.884-2.053 1.771-3.082 2.654zM21.010 9.807c-0.489 1.184-0.98 2.368-1.471 3.552 1.104 0.678 2.208 1.355 3.313 2.033 0.746-0.196 1.492-0.391 2.238-0.587-1.155-0.709-2.311-1.416-3.465-2.126 0.512-1.241 1.027-2.481 1.539-3.721-0.718 0.283-1.437 0.566-2.154 0.85zM4.935 8.988c0.519 1.256 1.040 2.511 1.559 3.767-1.139 0.703-2.282 1.402-3.423 2.103 0.747 0.195 1.494 0.39 2.241 0.585 1.089-0.669 2.178-1.338 3.267-2.007-0.496-1.2-0.992-2.399-1.488-3.599-0.719-0.284-1.437-0.566-2.156-0.85zM17.493 19.846c-0.3 1.263-0.6 2.527-0.9 3.79 0.415 0.654 0.83 1.308 1.245 1.961 0.314-1.323 0.628-2.646 0.941-3.969 1.335 0.108 2.67 0.215 4.005 0.322-0.491-0.598-0.982-1.198-1.473-1.796-1.272-0.103-2.545-0.206-3.817-0.308zM6.852 20.206c-0.49 0.599-0.98 1.197-1.47 1.796 1.349-0.108 2.698-0.216 4.048-0.325 0.313 1.306 0.621 2.614 0.932 3.92 0.416-0.653 0.83-1.307 1.246-1.961-0.297-1.247-0.593-2.494-0.889-3.741-1.289 0.102-2.577 0.207-3.866 0.311z"></path>
</svg>
