<!-- Generated by IcoMoon.io -->
<svg version="1.1" xmlns="http://www.w3.org/2000/svg" width="30" height="32" viewBox="0 0 30 32">
<title>gnt</title>
<path fill="#444" d="M14.771 30c2.296-2.249 4.733-4.315 7.313-6.197s5.042-3.392 7.388-4.529c-1.423-2.647-2.653-5.561-3.691-8.743s-1.687-6.025-1.947-8.532c-2.951 0.474-5.901 0.715-8.852 0.722s-6.070-0.22-9.357-0.679c-0.469 2.796-1.137 5.536-2.003 8.218s-2.064 5.715-3.592 9.099c2.423 1.148 4.846 2.596 7.269 4.345s4.914 3.847 7.474 6.295zM24.766 18.642c-0.009 0.087-0.014 0.174-0.014 0.262 0 0.388 0.090 0.755 0.249 1.081-1.44 0.915-2.907 1.921-4.401 3.019-1.49 1.095-2.878 2.172-4.163 3.231-0.286-0.342-0.664-0.603-1.095-0.745l-0.071-2.33 7.319-5.46 2.175 0.943zM18.867 7.934l2.791 8.607-7.256 5.321-7.256-5.321 2.759-8.607h8.961zM4.373 19.97c0.181-0.343 0.283-0.734 0.283-1.149 0-0.146-0.013-0.293-0.038-0.437l1.838-0.586 7.298 5.317 0.020 2.244c-0.481 0.122-0.904 0.389-1.223 0.752-1.408-1.208-2.864-2.361-4.363-3.454-1.348-0.983-2.619-1.879-3.815-2.686zM6.088 6.366c0.11 0.016 0.223 0.024 0.338 0.024 0.429 0 0.832-0.113 1.182-0.311l1.211 1.361-2.804 9.251-1.891 0.531c-0.32-0.464-0.794-0.81-1.348-0.963 0.708-1.761 1.388-3.657 2.041-5.688 0.545-1.696 0.969-3.097 1.272-4.205zM19.434 3.859c0.109 0.413 0.325 0.79 0.625 1.094l-1.151 1.64-9.098 0.022-1.254-1.415c0.264-0.365 0.422-0.796 0.457-1.246 1.754 0.026 3.551 0.040 5.389 0.040 1.809 0 3.486-0.045 5.031-0.135zM26.279 16.487c-0.407 0.203-0.75 0.517-0.988 0.904l-2.266-0.956-2.756-9.12 1.097-1.508c0.237 0.076 0.484 0.114 0.733 0.114 0.259 0 0.509-0.041 0.744-0.117 0.389 1.571 0.887 3.292 1.496 5.165 0.624 1.92 1.271 3.759 1.941 5.518z"></path>
</svg>
