<!-- Generated by IcoMoon.io -->
<svg version="1.1" xmlns="http://www.w3.org/2000/svg" width="32" height="32" viewBox="0 0 32 32">
<title>golgari</title>
<path fill="#444" d="M15.118 1.2c0.128 0.094 0.28 0.185 0.323 0.35 0.072 0.238 0.121 0.536 0.393 0.626 0.226-0.133 0.282-0.393 0.349-0.626 0.041-0.166 0.194-0.257 0.324-0.347 0.047 0.216 0.103 0.469 0.327 0.569 0.387 0.183 0.831 0.137 1.245 0.198 0.281 0.038 0.576 0.018 0.843 0.121 0.229 0.12 0.302 0.389 0.357 0.621 0.394 1.619 0.801 3.234 1.196 4.852 0.116 0.597 0.783 0.775 1.283 0.935-0.768 0.153-1.485 0.608-1.876 1.297-0.155 0.251-0.245 0.534-0.343 0.811-0.407-0.949-1.223-1.67-2.145-2.104-0.296 0.435-0.506 0.973-0.4 1.505 0.214 1.189 0.455 2.372 0.734 3.546 0.141 0.593 0.307 1.179 0.51 1.753-0.342 0.257-0.678 0.539-0.896 0.914-0.349 0.578-0.387 1.27-0.465 1.924-0.252-0.42-0.46-0.875-0.569-1.354-0.094-0.382 0.116-0.736 0.26-1.074 0.142-0.301-0.008-0.636-0.174-0.892-0.149-0.214-0.396-0.431-0.675-0.378-0.386 0.112-0.618 0.499-0.708 0.87-0.077 0.324 0.164 0.597 0.252 0.892 0.163 0.389 0.008 0.806-0.138 1.173-0.108 0.263-0.229 0.522-0.381 0.764-0.077-0.654-0.116-1.346-0.465-1.924-0.218-0.375-0.554-0.657-0.896-0.914 0.487-1.388 0.758-2.839 1.052-4.276 0.068-0.359 0.141-0.718 0.2-1.079 0.085-0.516-0.123-1.029-0.408-1.45-0.922 0.434-1.738 1.155-2.145 2.104-0.148-0.472-0.357-0.936-0.706-1.294-0.397-0.431-0.947-0.689-1.514-0.814 0.483-0.159 1.125-0.319 1.268-0.884 0.395-1.599 0.793-3.198 1.184-4.798 0.068-0.277 0.131-0.631 0.432-0.747 0.293-0.081 0.602-0.073 0.903-0.11 0.391-0.058 0.821-0.008 1.176-0.211 0.201-0.109 0.238-0.348 0.289-0.548zM9.754 2.131c-1.414 0.569-2.787 1.347-3.804 2.502-0.809 0.872-2.018 1.16-2.95 1.859-0.378 0.279-0.676 0.656-0.875 1.080 0.288-0.084 0.595-0.212 0.896-0.107 0.245 0.070 0.435 0.302 0.428 0.562-0.005 0.374-0.127 0.734-0.226 1.092-0.399 1.302-0.819 2.596-1.237 3.891-0.2 0.569-0.415 1.145-0.767 1.639-0.274 0.362-0.559 0.72-0.758 1.13-0.355 0.695-0.475 1.487-0.45 2.261 0.25-0.19 0.506-0.411 0.833-0.439 0.425-0.054 0.838 0.177 1.085 0.513 0.458 0.586 0.524 1.356 0.848 2.008 0.604 1.348 1.658 2.404 2.573 3.538 0.887 1.070 1.208 2.501 1.197 3.865 0 0.775-0.171 1.541-0.478 2.252 0.484-0.318 0.817-0.811 1.113-1.298 0.784-1.336 1.086-3.025 0.517-4.498-0.272-0.768-0.819-1.384-1.278-2.042-0.591-0.829-1.17-1.668-1.666-2.557-0.393-0.71-0.733-1.467-0.849-2.277-0.029-0.218-0.057-0.446 0.018-0.658 0.094-0.282 0.315-0.493 0.515-0.702-0.405-0.931-0.61-1.961-0.477-2.974 0.075-0.592 0.277-1.158 0.48-1.716 0.718-1.894 1.892-3.635 3.466-4.921 0.678-0.546 1.437-1.023 2.291-1.228 0.249-0.079 0.577-0.131 0.675-0.413 0.187-0.513 0.299-1.050 0.445-1.575 0.070-0.298 0.194-0.61 0.109-0.918-0.053-0.192-0.272-0.266-0.454-0.238-0.422 0.056-0.821 0.222-1.218 0.369zM20.219 1.951c-0.1 0.227-0.030 0.482 0.023 0.713 0.145 0.546 0.279 1.094 0.441 1.636 0.056 0.177 0.127 0.383 0.317 0.457 0.362 0.16 0.761 0.213 1.122 0.378 0.875 0.383 1.638 0.981 2.318 1.645 1.495 1.479 2.556 3.374 3.112 5.398 0.314 1.186 0.127 2.457-0.362 3.569 0.267 0.27 0.569 0.58 0.562 0.988-0.042 1.044-0.509 2.009-1.021 2.899-0.661 1.132-1.436 2.192-2.209 3.249-0.552 0.76-0.873 1.686-0.888 2.627-0.022 1.168 0.369 2.322 1.011 3.29 0.253 0.368 0.532 0.734 0.913 0.978-0.246-0.592-0.428-1.215-0.46-1.859-0.079-1.202 0.112-2.445 0.678-3.518 0.322-0.587 0.784-1.078 1.209-1.59 0.756-0.875 1.494-1.794 1.944-2.869 0.254-0.578 0.338-1.23 0.713-1.752 0.237-0.355 0.641-0.625 1.080-0.593 0.351 0.008 0.629 0.242 0.894 0.445 0.030-0.855-0.128-1.731-0.565-2.474-0.262-0.483-0.67-0.868-0.916-1.36-0.375-0.719-0.591-1.505-0.842-2.272-0.316-0.988-0.636-1.974-0.934-2.967-0.086-0.328-0.2-0.661-0.177-1.004 0.016-0.258 0.233-0.461 0.477-0.514 0.287-0.075 0.57 0.045 0.842 0.123-0.194-0.41-0.478-0.777-0.84-1.051-0.795-0.612-1.786-0.901-2.578-1.516-0.381-0.289-0.661-0.682-1.023-0.992-0.957-0.844-2.098-1.456-3.282-1.918-0.347-0.127-0.695-0.263-1.061-0.326-0.179-0.033-0.413-0.005-0.498 0.181zM10.012 9.323c-0.624 0.849-0.961 1.91-0.925 2.965 0.591-0.677 1.329-1.263 2.223-1.463-0.135-0.684-0.651-1.257-1.298-1.502zM20.314 10.825c0.37 0.107 0.741 0.231 1.066 0.444 0.445 0.268 0.805 0.644 1.157 1.018 0.036-1.055-0.302-2.115-0.925-2.964-0.647 0.245-1.163 0.818-1.298 1.502zM12.753 11.111c-0.196 0.319-0.326 0.69-0.614 0.944-0.477 0.441-1.033 0.785-1.528 1.204-1.186 0.976-2.081 2.305-2.532 3.773-0.294 1.064-0.334 2.182-0.262 3.277 0.051 0.671 0.133 1.343 0.31 1.992 1.034 0.013 2.109 0.37 2.803 1.167 0.672 0.745 0.864 1.78 0.927 2.75 0.073 1.551-0.14 3.125-0.688 4.581 0.894-0.884 1.595-1.955 2.13-3.089 0.84-1.788 1.133-3.845 0.719-5.784-0.165 0.157-0.335 0.347-0.579 0.363-0.472 0.043-0.904-0.238-1.222-0.561-0.424-0.447-0.732-1.051-0.696-1.679 0.014-0.317 0.193-0.654 0.512-0.751 0.303-0.104 0.614 0.021 0.893 0.137-0.583-0.785-1.33-1.453-2.206-1.895 0.034-0.248 0.114-0.486 0.2-0.72 0.308-0.818 0.769-1.637 1.528-2.114 0.146-0.108 0.383-0.156 0.405-0.369 0.212-0.851 0.424-1.701 0.635-2.553 0.161-0.709 0.4-1.412 0.413-2.145-0.474 0.411-0.829 0.937-1.15 1.472zM17.721 9.639c0.008 0.644 0.203 1.263 0.349 1.885 0.237 0.953 0.472 1.907 0.713 2.859 0.024 0.155 0.199 0.194 0.309 0.274 0.659 0.375 1.103 1.028 1.419 1.701 0.167 0.379 0.327 0.769 0.391 1.181-0.875 0.442-1.623 1.11-2.206 1.895 0.292-0.124 0.628-0.252 0.941-0.12 0.338 0.135 0.483 0.525 0.469 0.866-0.020 0.629-0.348 1.219-0.8 1.644-0.303 0.276-0.699 0.505-1.123 0.464-0.244-0.016-0.413-0.205-0.578-0.363-0.443 2.069-0.074 4.266 0.89 6.137 0.516 0.999 1.155 1.947 1.959 2.737-0.534-1.415-0.747-2.942-0.695-4.45 0.053-1.012 0.233-2.1 0.934-2.881 0.693-0.797 1.769-1.154 2.803-1.167 0.314-1.238 0.397-2.531 0.303-3.802-0.064-0.747-0.207-1.495-0.513-2.183-0.439-1.023-1.077-1.965-1.895-2.723-0.47-0.447-1.007-0.814-1.519-1.209-0.264-0.21-0.539-0.426-0.702-0.728-0.389-0.731-0.821-1.464-1.45-2.018z"></path>
</svg>
