<!-- Generated by IcoMoon.io -->
<svg version="1.1" xmlns="http://www.w3.org/2000/svg" width="32" height="32" viewBox="0 0 32 32">
<title>grn</title>
<path fill="#444" d="M15.985 6.388c0.402 0.772 0.798 1.546 1.202 2.316 0.611 0.2 1.186 0.532 1.633 0.999 0.475 0.499 0.808 1.141 0.907 1.825 0.485 0.163 0.926 0.472 1.214 0.897 0.267 0.392 0.418 0.86 0.449 1.332 0.002 1.052 0.001 2.105 0 3.158 0.595-0.284 1.239-0.456 1.894-0.529 0.008-0.044 0.018-0.087 0.036-0.128 0.518-1.188 1.024-2.381 1.544-3.568 0.523 1.2 1.041 2.403 1.559 3.605 0.034 0.223 0.004 0.454 0.014 0.68 1.027 0.524 1.884 1.372 2.421 2.391 0.519-1.329 1.041-2.657 1.562-3.986 0.522 1.331 1.046 2.661 1.565 3.992 0.028 0.156 0.005 0.317 0.012 0.475 0 1.921 0 3.843 0 5.764-1.049 0-2.098 0-3.147 0 0-0.575 0-1.15 0-1.724-0.004-0.42 0.018-0.842-0.041-1.259-0.119-0.89-0.559-1.741-1.242-2.329-0.327-0.287-0.711-0.506-1.119-0.655-0.019 0.098-0.096 0.166-0.153 0.244-0.477 0.613-0.954 1.225-1.432 1.837-0.526-0.674-1.052-1.348-1.574-2.024 0.001-0.545 0.001-1.090 0-1.636-1.289 0.108-2.531 0.698-3.421 1.637-0.684 0.71-1.161 1.618-1.358 2.584 0.605 0.323 1.186 0.723 1.61 1.269 0.462 0.591 0.697 1.323 0.813 2.055-3.292-0.001-6.584 0.002-9.876-0.001 0.111-0.651 0.299-1.304 0.672-1.856 0.428-0.647 1.078-1.107 1.753-1.466-0.259-1.284-1.020-2.455-2.083-3.218-0.786-0.573-1.731-0.921-2.699-1.003-0.002 0.548 0.002 1.097-0.001 1.646-0.525 0.67-1.045 1.344-1.569 2.014-0.478-0.613-0.954-1.227-1.432-1.84-0.058-0.077-0.129-0.146-0.159-0.24-0.595 0.216-1.128 0.592-1.529 1.082-0.574 0.694-0.878 1.599-0.861 2.497 0 0.795 0 1.591-0 2.386-1.049-0-2.098 0-3.147 0-0-2.006 0-4.012-0-6.018 0.003-0.093-0.015-0.191 0.026-0.279 0.516-1.31 1.028-2.621 1.544-3.931 0.527 1.324 1.040 2.655 1.567 3.979 0.536-1.019 1.393-1.861 2.414-2.389 0-0.195-0.001-0.389-0-0.584-0.001-0.042 0.008-0.081 0.027-0.118 0.516-1.196 1.034-2.392 1.549-3.589 0.517 1.189 1.028 2.381 1.543 3.571 0.018 0.041 0.028 0.085 0.033 0.13 0.645 0.072 1.284 0.233 1.869 0.516-0.004-0.963-0-1.927-0.002-2.89-0.011-0.648 0.194-1.313 0.627-1.803 0.277-0.321 0.652-0.542 1.047-0.685 0.086-0.611 0.366-1.189 0.762-1.661 0.463-0.551 1.099-0.939 1.78-1.16 0.396-0.773 0.799-1.543 1.198-2.315zM15.482 13.269c-0.771 0.148-1.456 0.674-1.804 1.377-0.283 0.555-0.345 1.214-0.188 1.816 0.152 0.584 0.519 1.106 1.012 1.452 0.835 0.603 2.037 0.624 2.892 0.049 0.624-0.4 1.055-1.085 1.148-1.82 0.076-0.558-0.037-1.139-0.319-1.626-0.29-0.505-0.755-0.909-1.299-1.119-0.455-0.18-0.962-0.22-1.442-0.128z"></path>
</svg>
