<!-- Generated by IcoMoon.io -->
<svg version="1.1" xmlns="http://www.w3.org/2000/svg" width="19" height="32" viewBox="0 0 19 32">
<title>gruul</title>
<path fill="#444" d="M7.437 2.956c0.305-1.315 1.361-2.303 2.492-2.956-0.385 0.574-0.459 1.31-0.328 1.977 0.107 0.553 0.445 1.073 0.962 1.321 0.791 0.377 1.276 1.225 1.332 2.083 0.019-0.469 0.266-0.903 0.654-1.164-0.064 0.302-0.11 0.633 0.035 0.92 0.169 0.379 0.521 0.623 0.858 0.843 0.455 0.308 0.58 0.881 0.707 1.38 0.097-0.215 0.196-0.439 0.19-0.68-0.011-0.708-0.47-1.325-0.472-2.034 0.001-0.441 0.243-0.831 0.522-1.154-0.090 0.675 0.349 1.236 0.676 1.779 0.425 0.705 0.863 1.476 0.818 2.329-0.051 1.051-0.487 2.054-1.077 2.913-0.314 0.476-0.856 0.814-0.992 1.395-0.099 0.369 0.193 0.69 0.163 1.055-0.010 0.222-0.082 0.434-0.133 0.648-0.085-0.456-0.476-0.733-0.817-0.999-0.315-0.232-0.504-0.667-0.366-1.046 0.105-0.21 0.311-0.346 0.427-0.55 0.317-0.553 0.387-1.246 0.183-1.851-0.084-0.259-0.251-0.501-0.501-0.621-0.217-0.119-0.472-0.107-0.712-0.107 0.285 0.252 0.492 0.611 0.496 0.998-0.033 0.425-0.373 0.827-0.796 0.905-0.26 0.050-0.438-0.196-0.495-0.417-0.109-0.304 0.021-0.615 0.184-0.87-0.495 0.129-0.757 0.612-0.905 1.063-0.067 0.246-0.282 0.396-0.494 0.512 0.033-0.448 0.13-0.905 0.383-1.284 0.311-0.491 0.86-0.821 1.028-1.402 0.196-0.707 0.036-1.49-0.363-2.099-0.41-0.627-1.028-1.093-1.694-1.423 0.236 0.657 0.376 1.412 0.077 2.074-0.317 0.718-1.011 1.142-1.607 1.605-0.275 0.203-0.487 0.519-0.488 0.871-0.016 0.351 0.151 0.669 0.317 0.966-0.306-0.115-0.623-0.265-0.804-0.551-0.261-0.385-0.245-0.876-0.162-1.315-0.582 0.341-1.018 0.949-1.081 1.628-0.018 0.519 0.273 0.971 0.495 1.419 0.161 0.326 0.335 0.689 0.251 1.061-0.158 0.548-0.678 1.002-1.27 0.961 0.175-0.316 0.353-0.652 0.349-1.024 0.009-0.449-0.226-0.859-0.507-1.193-0.641-0.752-1.499-1.3-2.066-2.118-0.406-0.575-0.564-1.325-0.383-2.009 0.228-0.869 0.839-1.578 1.514-2.144 0.286-0.239 0.667-0.447 0.744-0.846 0.068-0.297-0.116-0.564-0.268-0.799 0.247 0.236 0.508 0.502 0.55 0.859 0.109 0.824-0.409 1.557-0.468 2.361-0.027 0.495 0.299 0.926 0.709 1.167-0.25-1.26 0.287-2.553 1.178-3.437-0.020 0.518-0.017 1.101 0.333 1.521 0.24 0.298 0.629 0.411 0.996 0.438-0.564-0.868-0.6-1.972-0.373-2.955zM17.122 9.036c0.031 0.395 0.374 0.659 0.479 1.027 0.092 0.293 0.033 0.624-0.148 0.871-0.232 0.345-0.643 0.491-0.931 0.777-0.519 0.478-0.905 1.193-0.724 1.915 0.061-0.261 0.125-0.553 0.363-0.713 0.34-0.22 0.784-0.206 1.113-0.451 0.167-0.118 0.235-0.318 0.313-0.497 0.238 0.47 0.357 1.061 0.080 1.54-0.303 0.516-0.878 0.763-1.376 1.047-0.264 0.141-0.364 0.44-0.441 0.708-0.214-0.137-0.463-0.197-0.714-0.205 0.218 0.315 0.405 0.661 0.471 1.043 0.126 0.607-0.007 1.24-0.271 1.793 0.247-0.337 0.574-0.609 0.942-0.805 0.365-0.208 0.796-0.299 1.114-0.586 0.598-0.511 0.763-1.416 0.475-2.134-0.131 0.415-0.438 0.757-0.853 0.902 0.044-0.398 0.208-0.788 0.504-1.064 0.308-0.321 0.782-0.416 1.069-0.762 0.473-0.538 0.561-1.302 0.499-1.99-0.096-0.906-0.404-1.821-1.023-2.507-0.181-0.211-0.398-0.393-0.549-0.628-0.107-0.153-0.086-0.347-0.091-0.523-0.173 0.39-0.37 0.801-0.3 1.241zM0.627 9.483c-0.638 1.060-0.773 2.394-0.395 3.568 0.282 0.899 0.911 1.667 1.708 2.161-0.421-0.031-0.834-0.155-1.176-0.407 0.014 0.425 0.138 0.873 0.47 1.162 0.419 0.402 1.070 0.348 1.512 0.713 0.267 0.212 0.326 0.575 0.551 0.821 0.145 0.161 0.341 0.261 0.523 0.373-0.107-0.34-0.146-0.726 0.037-1.048 0.13-0.283 0.464-0.457 0.476-0.792 0.022-0.396-0.228-0.726-0.436-1.038 0.039 0.214 0.135 0.523-0.102 0.66-0.582 0.277-1.311-0.245-1.323-0.867-0.003-0.186 0.14-0.363 0.326-0.39 0.125-0.011 0.25 0.008 0.375 0.016-0.106-0.15-0.207-0.31-0.362-0.415-0.276-0.2-0.631-0.223-0.924-0.385-0.345-0.186-0.632-0.48-0.808-0.831-0.223-0.417-0.224-0.904-0.162-1.361 0.097 0.312 0.216 0.634 0.471 0.854 0.388 0.362 0.941 0.417 1.435 0.534 0.255 0.060 0.534 0.123 0.72 0.324 0.138 0.153 0.165 0.366 0.222 0.555 0.085-0.366 0.166-0.75 0.073-1.123-0.061-0.32-0.26-0.588-0.478-0.822-0.351-0.402-0.75-0.85-0.718-1.422-0.16 0.453-0.292 0.929-0.215 1.414-0.57-0.496-0.969-1.213-0.979-1.978-0.001-0.525 0.007-1.079 0.257-1.554-0.413 0.376-0.799 0.788-1.077 1.276zM8.596 14.373c0.1-0.031 0.239-0.124 0.327-0.020 0.202 0.237 0.218 0.585 0.438 0.81 0.163 0.173 0.46 0.184 0.633 0.020 0.265-0.235 0.247-0.655 0.521-0.882 0.229 0.024 0.43 0.146 0.621 0.266 0.612 0.397 1.115 1.005 1.277 1.728 0.205 0.897 0.218 1.874-0.145 2.733-0.228 0.544-0.659 0.989-1.183 1.256-0.268-0.179-0.526-0.372-0.758-0.595-0.268-0.256-0.693-0.321-1.028-0.166-0.159 0.069-0.28 0.198-0.407 0.311-0.185 0.169-0.394 0.307-0.599 0.449-0.593-0.299-1.054-0.832-1.263-1.462-0.283-0.832-0.256-1.745-0.048-2.59 0.211-0.827 0.856-1.498 1.614-1.859zM7.813 12.886c-0.343 0.124-0.704 0.26-0.955 0.537-0.296 0.326-0.479 0.734-0.744 1.084-0.143 0.188-0.392 0.256-0.523 0.455-0.19 0.27-0.315 0.578-0.424 0.887-0.239 0.738-0.42 1.533-0.261 2.306 0.111 0.589 0.291 1.18 0.635 1.678 0.192 0.287 0.496 0.465 0.742 0.7 0.224 0.204 0.412 0.443 0.58 0.694-0.067 0.099-0.134 0.2-0.199 0.301 0.661 0.627 1.59 0.871 2.479 0.91 0.676 0.014 1.362 0.035 2.024-0.124 0.569-0.132 1.123-0.379 1.548-0.787-0.066-0.102-0.133-0.203-0.203-0.302 0.175-0.252 0.365-0.497 0.593-0.703 0.236-0.221 0.521-0.392 0.71-0.661 0.347-0.485 0.53-1.068 0.645-1.647 0.186-0.856-0.025-1.737-0.315-2.545-0.135-0.317-0.259-0.671-0.541-0.888-0.617-0.354-0.732-1.172-1.321-1.563-0.504-0.314-1.092-0.464-1.672-0.566-0.933-0.182-1.902-0.057-2.799 0.233zM9.366 15.813c-0.485 0.163-0.989 0.463-1.165 0.973-0.164 0.509-0.095 1.107 0.226 1.542 0.261 0.355 0.702 0.502 1.111 0.608 0.406 0.057 0.805-0.116 1.154-0.305 0.478-0.287 0.581-0.9 0.568-1.412-0.003-0.429-0.241-0.832-0.597-1.065-0.376-0.247-0.837-0.482-1.297-0.34zM2.45 19.416c0.247 0.506 0.508 1.004 0.753 1.51 0.076 0.155 0.152 0.317 0.288 0.43 0.691 0.601 1.378 1.204 2.067 1.807-0.179 0.050-0.359 0.098-0.538 0.148 0.466 0.474 0.929 0.951 1.395 1.426 0.189-0.004 0.379-0.009 0.568-0.013 0.454 0.415 0.907 0.833 1.361 1.249-0.284 0.188-0.568 0.376-0.853 0.564 0.007-0.123 0.014-0.245 0.022-0.368-0.529 0.584-1.056 1.168-1.585 1.75-0.175 0.003-0.35 0.006-0.525 0.010 0.095 0.474 0.25 0.95 0.159 1.438 0.635-0.527 1.291-1.026 1.937-1.541 0.103 0.069 0.207 0.139 0.311 0.209 0.338-0.273 0.674-0.546 1.013-0.819-0.027 0.627-0.056 1.254-0.082 1.881 0.155 0.158 0.309 0.316 0.464 0.475 0.111 0.808 0.22 1.618 0.335 2.426 0.119-1.097 0.229-2.195 0.345-3.292 0.133 0.060 0.266 0.12 0.4 0.18-0.025-0.403-0.050-0.806-0.075-1.209 0.103 0.084 0.206 0.169 0.309 0.254 0.196 0.027 0.454-0.055 0.59 0.132 0.956 1.024 1.917 2.043 2.875 3.065 0.054-0.241 0.108-0.481 0.162-0.721 0.395 0.082 0.79 0.166 1.185 0.247-0.627-0.572-1.253-1.144-1.881-1.715 0.19-0.005 0.38-0.009 0.57-0.012-0.682-0.616-1.365-1.232-2.048-1.846-0.007 0.144-0.014 0.288-0.020 0.433-0.557-0.493-1.114-0.985-1.671-1.478 0.597-0.483 1.192-0.966 1.79-1.448 0.192 0.033 0.384 0.068 0.576 0.101 0.046-0.232 0.093-0.464 0.139-0.696 1.308-1.020 2.615-2.040 3.921-3.061-0.169-0.021-0.339-0.041-0.508-0.061 0.027-0.249 0.055-0.497 0.082-0.744-0.174 0.041-0.37 0.050-0.507 0.18-1.214 1.011-2.437 2.011-3.65 3.023-0.264 0.25-0.663 0.15-0.991 0.213 0.018 0.182 0.038 0.364 0.056 0.546-0.385 0.255-0.771 0.51-1.157 0.765-0.020-0.314-0.039-0.628-0.059-0.941-0.211-0.216-0.423-0.432-0.634-0.648-0.116-0.001-0.231-0.001-0.345 0.001-0.025 0.53-0.046 1.062-0.071 1.592-0.241-0.207-0.481-0.417-0.725-0.622-0.116-0.101-0.248-0.198-0.302-0.349-0.158-0.38-0.305-0.765-0.462-1.146-0.111 0.19-0.22 0.38-0.331 0.57-0.723-0.607-1.443-1.217-2.167-1.824-0.126-0.11-0.268-0.207-0.373-0.338-0.078-0.135-0.122-0.287-0.177-0.432-0.145 0.030-0.29 0.061-0.435 0.090-0.496-0.47-1-0.931-1.501-1.395zM2.185 30.694c0.47 0.063 0.94 0.126 1.41 0.188 0.454-0.4 0.905-0.801 1.36-1.2 0.099-0.459 0.033-0.922-0.051-1.377-0.939 0.759-1.817 1.588-2.719 2.389z"></path>
</svg>
