<!-- Generated by IcoMoon.io -->
<svg version="1.1" xmlns="http://www.w3.org/2000/svg" width="31" height="32" viewBox="0 0 31 32">
<title>gs1</title>
<path fill="#444" d="M0.303 21.767c0.591 1.197 1.032 1.672 1.321 1.424 0.182-0.318 0.6-2.208 1.253-5.67l1.758-0.749 0.375-2.84 2.47-0.566 3.205-8.514c2.19-1.025 4.312-2.050 6.366-3.073 1.011-0.212 0.984-1.075 1.87 3.073 0.591 2.765 1.017 4.476 1.278 5.132l3.347 1.93 3.181 8.314 2.565 3.919c0.452-0.252 0.825-0.729 1.117-1.432 0.438-1.054 0.886 8.285-8.824 7.702s-8.257-5.547-17.887-4.712c-3.111 0.27-4.243-1.042-3.396-3.936zM16.99 19.734c-2.342 0.337-4.268 1.909-1.838 5.166 1.207-1.443 3.21-2.769 5.478-1.62-3.64 1.62-0.727 6.992 6.797 2.917-1.309-1.945-2.396-3.9-3.26-5.865l-2.161-6.393-2.129-0.9-0.399 5.725-1.937-6.484 0.368-2.715-1.655-5.89-4.363 1.861-3.906 10.178-0.52-0.75-1.41 0.371v2.602l-1.846 0.827-0.543 3.97c0.626-0.352 1.741-0.938 3.044-2.441 2.354-2.717 6.822-4.488 10.278-0.559z"></path>
</svg>
