<!-- Generated by IcoMoon.io -->
<svg version="1.1" xmlns="http://www.w3.org/2000/svg" width="32" height="32" viewBox="0 0 32 32">
<title>gtc</title>
<path fill="#444" d="M24.48 11.885l7.48 13.894h-6.683c-0.031-0.755-0.167-1.5-0.406-2.219l-0.007-0.019c-0.746-1.857-2.039-3.291-3.74-4.147l-0.037-0.018-0.040-0.009c-0.465-0.092-0.94-0.132-1.413-0.159l4.846-7.323zM16 5.527l-3.614 5.831h-3.832l5.172 7.816h1.383l0.891-10.721 0.891 10.721h1.44l5.172-7.816h-3.889l-3.614-5.831zM7.546 11.837l-7.505 13.942h6.683c0.031-0.755 0.167-1.499 0.406-2.219l0.007-0.019c0.746-1.857 2.039-3.291 3.74-4.147l0.037-0.018 0.040-0.009c0.483-0.097 0.977-0.132 1.468-0.163l-4.875-7.367z"></path>
</svg>
