<!-- Generated by IcoMoon.io -->
<svg version="1.1" xmlns="http://www.w3.org/2000/svg" width="29" height="32" viewBox="0 0 29 32">
<title>h09</title>
<path fill="#444" d="M0.118 22.164c0 0-1.2-7.787 4.452-13.78 5.648-5.993 13.696-6.391 19.171-4.225 0 0-1.026 0.915-1.026 2.056 0 1.139 0.686 1.824 1.427 2.566 0.741 0.744 4.222 4.966 4.222 9.759 0 4.795-3.937 10.5-10.156 10.5s-9.759-4.507-10.271-9.7c0 0 3.024 5.134 7.988 5.134s6.676-3.937 6.676-6.849c0-2.907-1.597-8.501-8.615-8.501-7.020 0-11.869 6.22-13.866 13.038z"></path>
</svg>
