<!-- Generated by IcoMoon.io -->
<svg version="1.1" xmlns="http://www.w3.org/2000/svg" width="30" height="32" viewBox="0 0 30 32">
<title>h17</title>
<path fill="#444" d="M22.839 14.24c2.198-0.548 4.601-1.159 7.211-1.835 0.323 0.321 0.367 0.625-0.719 1.869-1.084 1.239-3.23 3.196-6.484 4.081v0.125c0.152 10.387 2.87 8.516 0.902 10.411-1.311 1.264-3.361 1.264-6.148 0l-0.352-9.487c-0.453 0.091-0.92 0.187-1.402 0.283l-1.093 0.466c-0.203 5.183-0.266 8.096-0.188 8.739-1.74 1.577-3.831 1.732-6.275 0.464-0.027-2.909-0.063-5.67-0.108-8.285-1.72 0.236-3.309 0.37-4.575 0.313-4.527-0.201-6.47-4.588 4.411-7.857-0.065-2.415-0.141-4.671-0.226-6.768-1.932-2.078 0.362-3.519 6.883-4.327-0.249 8.563 0.016 12.9 0.796 13.011 0.779 0.113 1.267-0.083 1.464-0.585-0.268-7.293-0.268-11.171 0-11.631 1.581-1.588 3.851-1.854 6.813-0.799-0.551 2.964-0.854 6.901-0.91 11.811zM8.114 17.497c-0.012-0.604-0.026-1.198-0.040-1.784-3.702 1.758-3.689 2.353 0.040 1.784z"></path>
</svg>
