<!-- Generated by IcoMoon.io -->
<svg version="1.1" xmlns="http://www.w3.org/2000/svg" width="32" height="32" viewBox="0 0 32 32">
<title>ha1</title>
<path fill="#444" d="M8.213 5.315v0.134l-1.923 0.909v7.899h6.259v-5.156q0-1.013-0.127-1.691t-0.417-1.058-0.589-0.559-0.79-0.343v-0.134h8.182v0.134l-1.684 0.909v16.884c-0.006 0.454 0.052 0.903 0.121 1.35q0.127 0.678 0.417 1.066t0.589 0.566 0.79 0.343v0.119h-8.182v-0.119l1.684-1.043v-5.424l0.005-5.351-2.325 1.803h-3.934v6.349q0 1.013 0.127 1.692t0.417 1.066 0.589 0.566 0.79 0.343v0.119h-8.182v-0.119l1.684-1.043v-19.165l-1.684-0.909v-0.134h8.182zM23.307 21.102v5.583h3.138v-5.583h5.524v-3.020h-5.524v-5.583h-3.138v5.583h-5.509v3.020z"></path>
</svg>
