<!-- Generated by IcoMoon.io -->
<svg version="1.1" xmlns="http://www.w3.org/2000/svg" width="27" height="32" viewBox="0 0 27 32">
<title>hbg</title>
<path fill="#444" d="M13.653 2.075c7.545 0 13.653 6.239 13.653 13.925s-6.109 13.925-13.653 13.925c-7.545 0-13.653-6.239-13.653-13.925s6.109-13.925 13.653-13.925zM13.653 3.818c-6.574 0-11.91 5.45-11.91 12.182s5.336 12.182 11.91 12.182c6.573 0 11.91-5.45 11.91-12.182s-5.337-12.182-11.91-12.182zM13.653 4.38c6.283 0 11.378 5.202 11.378 11.62s-5.094 11.62-11.378 11.62c-6.284 0-11.378-5.202-11.378-11.62s5.094-11.62 11.378-11.62zM13.448 5.007l-0.872 3.776-4.067 2.905-3.486-0.871 2.324 2.614v5.229l-2.614 2.614 3.486-0.871 4.357 2.614 0.872 3.486 1.162-3.486 4.067-2.614 3.776 1.162-2.324-2.905v-5.229l2.324-2.905-3.486 1.162-4.357-2.905-1.162-3.776zM13.448 9.945l4.938 3.195v5.519l-4.938 3.486-4.648-3.195v-5.81l4.648-3.195z"></path>
</svg>
