<!-- Generated by IcoMoon.io -->
<svg version="1.1" xmlns="http://www.w3.org/2000/svg" width="27" height="32" viewBox="0 0 27 32">
<title>hml</title>
<path fill="#444" d="M3.329 17.032c0.025 0.115 0.006 0.22 0.003 0.352-0.006 0.31 0.034 0.628 0.084 0.935 0.197 1.275 0.794 2.33 1.703 3.24 0.458 0.456 0.96 0.873 1.469 1.27 0.256 0.197 0.514 0.391 0.777 0.585 0.132 0.096 0.338 0.391 0.399 0.076 0.059-0.295 0.051-0.499 0.217-0.769 0.357-0.579 1.428 0 1.472 0.535s0.223 2.052 1.472 2.187c1.247 0.132 1.74 0.312 2.184 0.489 0.329 0.133 0.819 0.028 1.16-0.008 0.476-0.051 0.948-0.121 1.421-0.203 0.149-0.025 0.324-0.022 0.391-0.185s-0.050-0.347-0.16-0.456c-0.267-0.264-0.684-0.38-1.019-0.518-0.285-0.115-0.569-0.231-0.859-0.326-0.346-0.115-0.7-0.169-0.96-0.456-0.38-0.419-0.43-1.028-0.411-1.571 0.022-0.588 0.093-1.196 0.391-1.716 0.205-0.357 0.366-0.741 0.535-1.118 0.099-0.217 0.465-1.025 0.223-1.221-0.228-0.192-0.741 0.138-0.803 0.377-0.132 0.535-1.112 0.535-1.112 0.535s-1.652-0.045-2.364 0.267c-0.715 0.313-2.677-0.087-3.344-1.025-0.045-0.064-0.298-0.039-0.375-0.084-0.262-0.158-0.293-0.909-0.028-1.075 0.357-0.223 0-1.649-1.292-1.649-0.422 0-0.904 0.065-1.233 0.357-0.233 0.205-0.256 0.45-0.143 0.726 0.050 0.127 0.127 0.239 0.177 0.369 0.009 0.028 0.017 0.053 0.022 0.081zM8.208 7.827c0 0-2.694 0.659-2.472 2.663 0 0-1.41 0.458-1.81 1.75-0.402 1.295 0.087 1.652 0.623 1.652 0.538 0 0.982-0.222 0.982-0.222s0.802-0.177 1.25 0.132c0.445 0.313 2.362 0.267 2.81-0.357 0.445-0.625 1.469 0 1.917 1.073 0.445 1.069 1.827 1.427 2.274 0.132 0 0 0.4-1.694 0-3.969 0 0-1.382-1.249-3.212-1.559-1.83-0.312-2.094-0.447-2.361-1.295zM19.084 13.581c0-2.81-2.942-3.746-2.942-3.746s-0.666-0.133-0.666-0.67c0 0-1.143 0.017-1.813-0.341 0 0-0.597-0.149-0.597-0.548 0-0.403-2.987-1.194-1.939-2.064 0 0 7.76-1.801 11.769 6.142 0 0-1.67-0.87-1.67 1.472 0 1.618 1.084 2.114 1.985 2.023 0 0 1.621 5.63-6.266 8.61 0 0-0.569-0.166-0.332-0.703 0.233-0.532-0.335-0.532-0.335-0.532s-0.802 0.064-0.802-1.073c0-1.137 0.301-1.236 0.301-1.236l1.202-0.937c0 0 0.267-0.234 0.033-0.535-0.236-0.301-0.836-1.005-0.836-1.371 0-0.267 0.161-0.481 0.338-0.58 0 0 2.57 0.394 2.57-3.912zM13.333 27.424c-6.299 0-11.425-5.126-11.425-11.426s5.126-11.425 11.425-11.425 11.425 5.126 11.425 11.425c0 6.299-5.126 11.426-11.425 11.426zM13.333 2.69c-7.349 0-13.312 5.959-13.312 13.308 0 7.352 5.962 13.312 13.312 13.312 7.352 0 13.312-5.959 13.312-13.312 0-7.349-5.959-13.308-13.312-13.308z"></path>
</svg>
