<!-- Generated by IcoMoon.io -->
<svg version="1.1" xmlns="http://www.w3.org/2000/svg" width="24" height="32" viewBox="0 0 24 32">
<path fill="#444" d="M9.221 0.186c1.698 0.001 3.396 0.001 5.094 0-0.001 0.123-0.002 0.246-0.002 0.369-0.644 0.776-1.289 1.552-1.93 2.332 0.005 1.291-0.006 2.582 0.005 3.872 0.156 0.378 0.359 0.739 0.559 1.097 0.922 1.387 1.905 2.735 2.963 4.021-0.707 0.943-1.355 1.933-2.092 2.853-0.064 1.332-0.13 2.664-0.151 3.997-0.134 3.566-0.272 7.132-0.415 10.697 0.017 0.156-0.102 0.271-0.176 0.394-0.386 0.591-0.779 1.179-1.159 1.776-0.439-0.681-0.895-1.35-1.325-2.035-0.177-2.571-0.327-5.143-0.484-7.715-0.134-2.304-0.318-4.603-0.441-6.908-0.001-0.11-0.017-0.221-0.093-0.307-0.666-0.919-1.342-1.833-1.984-2.769 1.152-1.387 2.16-2.884 3.144-4.393 0.136-0.302 0.383-0.586 0.346-0.937-0.007-1.214 0.007-2.428-0.007-3.642-0.599-0.79-1.237-1.554-1.852-2.332l-0.002-0.372zM11.753 9.013c-0.646 0.853-1.291 1.708-1.931 2.567 0.561 1.585 1.129 3.166 1.7 4.747 0.077 0.203 0.133 0.415 0.238 0.606 0.635-1.785 1.274-3.569 1.886-5.362-0.632-0.852-1.263-1.705-1.892-2.559zM10.982 11.741c0.258-0.322 0.511-0.647 0.769-0.969 0.245 0.323 0.489 0.646 0.734 0.969-0.245 0.713-0.49 1.426-0.732 2.141-0.233-0.722-0.504-1.431-0.772-2.141zM5.546 8.333c1.294-0.482 2.639-0.834 4.014-0.992-0.967 1.582-2.127 3.035-3.297 4.47 0.316 0.44 0.621 0.888 0.935 1.329-0.793 0.295-1.506 0.766-2.186 1.263-0.56 0.382-1.041 0.865-1.519 1.341-0.815-0.596-1.592-1.319-1.993-2.265-0.257-0.904 0.038-1.88 0.558-2.634 0.847-1.197 2.157-1.964 3.489-2.511zM13.909 7.342c1.006 0.089 2.006 0.271 2.969 0.581 1.432 0.376 2.793 1.043 3.947 1.973 0.844 0.762 1.62 1.748 1.696 2.926 0.095 0.695-0.282 1.339-0.707 1.855-0.421 0.483-0.902 0.918-1.44 1.266-1.094-1.032-2.329-1.913-3.651-2.628-0.142-0.076-0.296-0.128-0.449-0.179 0.325-0.436 0.637-0.883 0.962-1.319-1.196-1.423-2.362-2.882-3.326-4.476zM0.038 15.547c0.007-0.817 0.105-1.638 0.364-2.415 0.125 1.237 0.989 2.246 1.913 3.008 1.273 0.999 2.733 1.758 4.273 2.25 0.747 0.284 1.517 0.508 2.299 0.674 0.141 2.022 0.265 4.046 0.405 6.068-0.445-0.017-0.878-0.129-1.308-0.234-1.678-0.438-3.297-1.184-4.63-2.306-1.090-0.825-2.039-1.846-2.738-3.022-0.238-0.37-0.392-0.792-0.48-1.222-0.156-0.925-0.161-1.867-0.098-2.8zM22.972 14.854c0.284-0.433 0.484-0.922 0.55-1.438 0.33 1.261 0.358 2.582 0.27 3.876 0.009 0.859-0.127 1.75-0.59 2.488-0.481 0.759-0.998 1.51-1.663 2.121-0.562 0.453-1.086 0.956-1.702 1.338-0.963 0.609-2.017 1.054-3.078 1.46-0.74 0.291-1.541 0.354-2.311 0.529 0.076-1.999 0.154-3.998 0.233-5.997 1.385-0.241 2.753-0.626 4.031-1.219 0.774-0.403 1.587-0.74 2.305-1.241 0.765-0.508 1.444-1.153 1.957-1.917z"></path>
</svg>
