<!-- Generated by IcoMoon.io -->
<svg version="1.1" xmlns="http://www.w3.org/2000/svg" width="21" height="32" viewBox="0 0 21 32">
<path fill="#444" d="M7.767 0.417c1.883-0.004 3.766-0.006 5.649 0.001 0.081 0.071 0.165 0.14 0.25 0.208 0.008 0.392 0.004 0.785 0.005 1.178 0.014 0.159-0.131 0.26-0.217 0.372-0.428 0.514-1.369 1.606-1.369 1.606-0.089 0.083-0.095 0.199-0.090 0.312 0.005 1.112 0.003 2.225 0.001 3.337-0.019 0.256 0.177 0.451 0.288 0.664 0.915 1.434 1.98 2.768 3.086 4.058-0.668 0.898-1.339 1.795-2.009 2.691-0.055 0.064-0.082 0.138-0.081 0.223-0.175 3.727-0.36 7.454-0.537 11.182-0.044 0.717-0.057 1.436-0.114 2.153-0.677 0.985-1.345 1.977-2.015 2.967-0.014-0.002-0.042-0.006-0.056-0.008-0.664-0.989-1.332-1.975-2.007-2.957-0.117-1.737-0.169-3.478-0.267-5.216-0.125-2.703-0.264-5.406-0.387-8.109-0.001-0.083-0.025-0.165-0.079-0.23-0.669-0.899-1.346-1.794-2.011-2.697 0.873-1.009 1.711-2.049 2.484-3.136 0.297-0.427 0.593-0.855 0.837-1.315 0.051-0.082 0.055-0.179 0.055-0.272-0.002-1.19-0.001-2.379-0.001-3.568-0.011-0.001-1.007-1.151-1.489-1.723-0.076-0.098-0.206-0.183-0.185-0.325-0.001-0.385-0.008-0.771 0.003-1.155 0.062-0.1 0.173-0.158 0.257-0.238zM8.422 1.316c0.008 0.106-0.031 0.233 0.058 0.314 0.476 0.562 0.953 1.125 1.432 1.684 0.051 0.065 0.128 0.126 0.112 0.219 0.002 1.391-0.001 2.781 0.002 4.172-0.006 0.099 0.013 0.207-0.035 0.298-0.202 0.404-0.444 0.787-0.705 1.155-0.705 1.054-1.502 2.044-2.321 3.011 0.587 0.815 1.215 1.602 1.807 2.414 0.223 4.415 0.434 8.839 0.654 13.258 0.010 0.092-0.010 0.196 0.051 0.276 0.368 0.547 0.735 1.095 1.103 1.643 0.406-0.555 0.786-1.137 1.158-1.716 0.233-4.486 0.439-8.976 0.668-13.46 0.59-0.814 1.225-1.597 1.805-2.418-0.677-0.795-1.315-1.623-1.938-2.46-0.403-0.577-0.817-1.154-1.119-1.792-0.012-1.484 0-2.969-0.006-4.454 0.514-0.616 1.039-1.223 1.556-1.836 0.084-0.081 0.045-0.206 0.055-0.309h-4.337zM8.898 12.265c0.552-0.773 1.119-1.536 1.691-2.294 0.581 0.752 1.14 1.522 1.696 2.292-0.585 1.573-1.109 3.171-1.7 4.742-0.565-1.579-1.11-3.166-1.687-4.74zM9.936 12.406c0.232 0.603 0.412 1.23 0.666 1.823 0.212-0.609 0.426-1.217 0.646-1.823-0.217-0.297-0.436-0.594-0.656-0.889-0.22 0.295-0.439 0.591-0.656 0.889zM3.124 4.303c0.808 0.629 1.783 0.99 2.75 1.296 0.501 0.153 1.006 0.31 1.527 0.369 0.53-0.042 0.751-0.611 1.025-0.987l0.247 0.003c0.001 0.791 0 1.582 0.001 2.372 0.005 0.191-0.143 0.336-0.226 0.496-0.972 1.519-2.117 2.92-3.306 4.274 0.724 0.962 1.445 1.928 2.171 2.889 0.067 0.069 0.081 0.164 0.082 0.255 0.18 3.742 0.38 7.484 0.555 11.227-1.234-0.789-2.384-1.714-3.382-2.788 0.63-0.153 1.189-0.591 1.466-1.18 0.262-0.538 0.271-1.188 0.027-1.734-0.362-0.844-1.3-1.377-2.209-1.282-0.668 0.047-1.279 0.433-1.66 0.976-0.725-1.234-1.314-2.548-1.755-3.909 0.804 0.012 1.67-0.090 2.327-0.595 0.578-0.433 0.842-1.186 0.792-1.892-0.013-0.587-0.264-1.171-0.721-1.547-0.774-0.655-1.862-0.806-2.834-0.628 0.077-0.638 0.275-1.252 0.492-1.854 0.725-1.986 1.678-3.877 2.632-5.76zM15.356 5.584c0.951-0.306 1.91-0.661 2.704-1.283 1.045 2.068 2.1 4.145 2.834 6.348 0.131 0.414 0.239 0.836 0.293 1.267-0.865-0.156-1.808-0.059-2.559 0.422-0.458 0.287-0.821 0.742-0.935 1.276-0.185 0.793-0.017 1.721 0.615 2.277 0.662 0.583 1.59 0.701 2.439 0.687-0.442 1.364-1.034 2.677-1.757 3.914-0.447-0.677-1.276-1.076-2.085-0.977-0.974 0.079-1.838 0.889-1.94 1.867-0.153 1.053 0.628 2.097 1.653 2.325-1 1.075-2.149 2.004-3.388 2.788 0.191-3.767 0.374-7.534 0.564-11.301-0.005-0.092 0.063-0.159 0.112-0.228 0.715-0.946 1.423-1.896 2.135-2.843-1.135-1.291-2.223-2.629-3.17-4.064-0.123-0.207-0.281-0.4-0.36-0.628-0.008-0.816-0.001-1.632-0.003-2.449l0.252-0.003c0.274 0.376 0.494 0.95 1.027 0.987 0.536-0.063 1.055-0.225 1.57-0.383zM0.195 13.024c0.633-0.1 1.352-0.065 1.867 0.36 0.341 0.265 0.379 0.744 0.313 1.139-0.041 0.301-0.243 0.566-0.517 0.696-0.433 0.207-0.926 0.231-1.398 0.231-0.142-0.801-0.26-1.61-0.265-2.425zM19.368 13.216c0.487-0.258 1.062-0.281 1.596-0.19-0.074 0.814-0.222 1.62-0.432 2.409-0.469-0.022-0.974-0.054-1.375-0.324-0.362-0.256-0.419-0.755-0.351-1.162 0.030-0.329 0.282-0.586 0.562-0.733zM3.016 21.251c0.251-0.265 0.505-0.59 0.902-0.611 0.616-0.106 1.239 0.458 1.157 1.086-0.032 0.505-0.484 0.848-0.95 0.939-0.388-0.456-0.775-0.916-1.109-1.414zM18.055 21.197c-0.334 0.498-0.721 0.958-1.109 1.414-0.466-0.092-0.918-0.434-0.95-0.939-0.082-0.628 0.541-1.191 1.157-1.086 0.397 0.022 0.651 0.346 0.902 0.611z"></path>
</svg>
