<!-- Generated by IcoMoon.io -->
<svg version="1.1" xmlns="http://www.w3.org/2000/svg" width="30" height="32" viewBox="0 0 30 32">
<title>hop</title>
<path fill="#444" d="M23.056 19.829l0.795-4.9-3.95 2.9c-0.973-0.427-2.012-0.733-3.076-0.907l-1.838-4.504-1.817 4.454c-1.135 0.154-2.239 0.464-3.27 0.907l-3.883-2.851 0.778 4.806c-1.826 1.625-3.001 3.821-3.001 6.346 0 0 0.161 0.928 0.68 0.928 0.888 0 2.562-5.441 10.301-5.441 7.743 0 9.678 5.493 10.566 5.493 0.492 0 0.732-0.942 0.732-0.942 0-2.488-1.186-4.663-3.017-6.29zM29.84 19.844c0 0-0.106 1.433-0.853 1.433-0.813 0-0.476-0.703-0.855-1.681-1.979-5.125-6.804-8.536-13.237-8.536s-11.263 3.446-13.157 8.529c-0.46 1.233-0.089 1.669-0.874 1.669-0.783 0-0.837-1.413-0.837-1.413 0-8.231 5.336-14.906 14.908-14.906 9.57 0 14.906 6.675 14.906 14.906z"></path>
</svg>
