<!-- Generated by IcoMoon.io -->
<svg version="1.1" xmlns="http://www.w3.org/2000/svg" width="28" height="32" viewBox="0 0 28 32">
<title>hou</title>
<path fill="#444" d="M11.297 0.073c0.281 1.97 0.33 3.969 0.233 5.956-0.069 1.354-0.259 2.744-0.925 3.947-1.188 2.201-3.206 3.781-4.585 5.846-0.328 0.521-0.668 1.1-0.633 1.739 0.061 0.516 0.531 0.832 0.909 1.125 2.597 1.774 5.84 2.729 7.853 5.271 1.502-1.836 3.696-2.854 5.729-3.971 0.974-0.549 2.022-1.028 2.826-1.821 0.568-0.558 0.212-1.413-0.123-1.996-1.309-2.162-3.381-3.746-4.656-5.933-0.56-0.946-0.868-2.024-0.977-3.113-0.24-2.346-0.149-4.714 0.123-7.052 1.266 3.156 1.897 6.747 4.351 9.268 1.744 1.934 4.178 3.131 5.744 5.241 0.802 1.052 1.359 2.392 1.121 3.735-0.255 1.476-1.314 2.646-2.439 3.56-2.469 1.962-5.488 3.085-7.931 5.085-0.951 0.789-1.811 1.698-2.495 2.729-0.492 0.73-0.656 1.447-1.008 2.245-0.008-0.003-0.018-0-0.028-0.001-0.023-0.001-0.052-0.001-0.093-0.002-0.067-0.001-0.139-0.003-0.201-0.004-0.058-0.001-0.062-0.001-0.081-0.002-0.006-0-0.008-0.001-0.018-0.005-0.331-0.694-0.517-1.465-0.947-2.113-0.979-1.527-2.337-2.787-3.843-3.787-2.199-1.489-4.684-2.538-6.753-4.223-1.13-0.935-2.184-2.152-2.372-3.66-0.182-1.435 0.508-2.809 1.402-3.884 1.365-1.694 3.305-2.765 4.846-4.273 1.195-1.085 2.145-2.42 2.791-3.899 0.84-1.96 1.456-4.005 2.182-6.008z"></path>
</svg>
