<!-- Generated by IcoMoon.io -->
<svg version="1.1" xmlns="http://www.w3.org/2000/svg" width="27" height="32" viewBox="0 0 27 32">
<title>ice</title>
<path fill="#444" d="M14.511 22.001l-0.983-4.624h-0.494l-0.801 4.744c0.31 2.834 0.801 3.699 0.801 3.699h0.494c0.616-1.665 0.983-3.82 0.983-3.82zM19.435 18.063l-4.497-1.454-0.244 0.426 3.708 3.064c2.611 1.15 3.602 1.153 3.602 1.153l0.247-0.429c-1.133-1.363-2.816-2.76-2.816-2.76zM4.587 20.824l0.244 0.429c0 0 0.995-0.006 3.605-1.153l3.708-3.064-0.244-0.426-4.497 1.454c0 0-1.683 1.398-2.816 2.76zM22.251 11.182l-0.247-0.427c0 0-0.991 0.003-3.602 1.151l-3.708 3.063 0.244 0.429 4.497-1.456c0 0 1.683-1.398 2.816-2.76zM7.404 13.943l4.497 1.456 0.244-0.429-3.708-3.063c-2.61-1.148-3.605-1.151-3.605-1.151l-0.244 0.427c1.133 1.362 2.816 2.76 2.816 2.76zM13.219 6.1h0.491c0 0 0.495 0.862 0.801 3.699l-0.801 4.744h-0.491l-0.986-4.621c0 0 0.371-2.157 0.986-3.823zM11.248 19.873v2.157l-1.419 3.296 0.741 1.11 1.107-2.281c0 0 0.371 2.651 1.175 3.637h1.107c0 0 1.047-1.851 1.233-3.699l1.11 2.281 0.677-1.172-1.233-3.143v-2.095l1.851 1.172 2.142 2.608 1.351-0.021-1.448-2.080c1.704 0.741 3.829 0.729 3.829 0.729l0.542-0.968c-0.471-1.18-2.602-2.796-2.602-2.796l2.531 0.148-0.607-1.19-3.491-0.326-1.728-1.339 1.728-1.154 3.491-0.326 0.607-1.187-2.531 0.145c0 0 2.131-1.616 2.602-2.796l-0.542-0.968c0 0-2.125-0.012-3.829 0.73l1.448-2.081-1.351-0.021-2.142 2.611-2.005 1.286-0.029-2.278 1.416-3.205-0.738-1.11-1.11 2.278c0 0-0.371-2.649-1.171-3.634h-1.107c0 0-1.051 1.848-1.236 3.699l-1.107-2.281-0.68 1.172 1.233 3.143 0.215 2.339-1.993-1.41-2.139-2.611-1.354 0.021 1.448 2.081c-1.704-0.742-3.829-0.73-3.829-0.73l-0.542 0.968c0.471 1.18 2.598 2.796 2.598 2.796l-2.528-0.145 0.606 1.187 3.488 0.326 1.595 1.216-1.595 1.277-3.488 0.326-0.606 1.19 2.528-0.148c0 0-2.128 1.616-2.599 2.796l0.542 0.968c0 0 2.125 0.012 3.829-0.729l-1.448 2.080 1.354 0.021 2.139-2.608 1.963-1.263zM15.709 2.041h0.2c0 0 2.808 4.223 3.008 4.523 0.362 0.006 5.562 0.085 5.562 0.085l2.369 4.553c0 0-2.287 4.477-2.449 4.789 0.162 0.315 2.449 4.791 2.449 4.791l-2.369 4.556c0 0-5.314 0.079-5.706 0.085-0.020 0.038-0.050 0.088-0.050 0.088-0.091 0.159-2.314 3.847-2.567 4.264l-0.108 0.18-5.13 0.003c0 0-2.825-4.238-3.025-4.542-0.362-0.003-5.492-0.079-5.492-0.079l-2.369-4.556c0 0 2.287-4.476 2.449-4.791-0.162-0.312-2.449-4.789-2.449-4.789l2.369-4.556c0 0 5.244-0.076 5.629-0.082 0.194-0.33 2.675-4.523 2.675-4.523h5.003z"></path>
</svg>
