<!-- Generated by IcoMoon.io -->
<svg version="1.1" xmlns="http://www.w3.org/2000/svg" width="28" height="32" viewBox="0 0 28 32">
<title>ice2</title>
<path fill="#444" d="M16.351 1.406c0.369 0 0.538 0.205 2.094 2.22 0.527 0.683 1.047 1.371 1.56 2.065 0.83 0.053 1.659 0.115 2.489 0.175l0.028 0.002c1.36 0.099 1.47 0.107 1.878 0.136 0.269 0.019 0.471 0.033 0.61 0.042 0.073 0.005 0.127 0.008 0.161 0.010-0.189 0.056-0.062 0.009 0.080 0.003 0.145 0.032 0.145 0.032 0.212 0.070 0.058 0.036 0.058 0.036 0.154 0.143 0.075 0.155 0.075 0.155 0.066 0.131-0.011-0.028-0.011-0.028-0.013-0.032 0 0.001 0.004 0.009 0.010 0.020 0.014 0.029 0.037 0.075 0.069 0.136 0.060 0.118 0.15 0.29 0.267 0.516 0.19 0.365 0.408 0.779 0.83 1.584 0.001 0.001 0.001 0.001 0.001 0.002 0.504 0.96 0.639 1.216 0.822 1.567 0.119 0.228 0.209 0.402 0.272 0.524 0.034 0.067 0.061 0.118 0.079 0.155 0.011 0.021 0.019 0.038 0.025 0.052 0.065 0.138 0.050 0.102 0.055 0.208 0.007 0.152 0.084-0.034-0.989 2.537-0.325 0.776-0.648 1.553-0.985 2.324 0.525 1.207 1.032 2.422 1.527 3.642 0.148 0.363 0.363 0.777 0.447 1.169 0.006 0.14 0.056 0.023-0.076 0.299-0.018 0.039-0.045 0.092-0.079 0.16-0.063 0.126-0.154 0.305-0.27 0.529-0.212 0.412-0.501 0.971-0.815 1.573-1.128 2.165-1.225 2.347-1.317 2.432-0.022 0.020-0.045 0.038-0.070 0.053-0.157 0.1-0.307 0.113-2.868 0.304-0.879 0.066-1.759 0.129-2.639 0.183l-2.86 4.037c-0.096 0.136-0.252 0.216-0.418 0.215-0.017-0-0.017-0-0.096-0.001-0.107-0-0.167-0.001-0.266-0.001-0.283-0.001-0.59-0.003-0.91-0.004-0.455-0.002-0.898-0.003-1.315-0.005-0.732-0.002-1.341-0.002-1.785-0-0.251 0.001-0.446 0.003-0.579 0.005-0.067 0.001-0.117 0.002-0.148 0.004-0.010 0-0.015 0.001-0.012 0l-0.177-0.007c-0.319-0.153-0.378-0.305-0.423-0.364-0.079-0.104-0.19-0.251-0.364-0.481-0.058-0.076-0.41-0.541-0.521-0.687-0.225-0.297-0.416-0.55-0.599-0.791-0.005-0.007-0.005-0.007-0.011-0.014-0.487-0.648-0.98-1.29-1.46-1.943-0.815-0.053-1.629-0.117-2.444-0.179-0.003-0-0.003-0-0.006-0-1.047-0.080-1.443-0.11-1.861-0.14-0.836-0.074-0.961-0.050-1.090-0.146-0.193-0.266-0.216-0.312-0.246-0.372-0.060-0.118-0.149-0.292-0.265-0.515-0.204-0.395-0.486-0.936-0.827-1.587-0.005-0.009-0.005-0.009-0.010-0.019-0.261-0.5-0.542-1.034-0.822-1.568-0.098-0.187-0.189-0.36-0.271-0.516-0.045-0.087-0.045-0.087-0.076-0.144-0.022-0.042-0.022-0.042-0.027-0.051-0.072-0.136-0.078-0.298-0.016-0.441l-0 0-0 0v-0l0-0c0-0.001 0-0.001 0.001-0.003 0.002-0.004 0.002-0.004 0.005-0.010 0.007-0.016 0.007-0.016 0.018-0.041 0.027-0.062 0.027-0.062 0.067-0.154 0.072-0.166 0.152-0.351 0.239-0.549 0.247-0.569 0.494-1.137 0.726-1.667 0.005-0.012 0.005-0.012 0.011-0.025 0.318-0.726 0.633-1.454 0.959-2.176-0.35-0.767-0.689-1.538-1.028-2.31-0.267-0.608-0.513-1.173-0.692-1.59-0.096-0.224-0.173-0.403-0.225-0.531-0.028-0.069-0.050-0.122-0.066-0.162-0.091-0.235-0.067-0.165-0.052-0.301 0.020-0.181 2.404-4.765 2.531-4.896 0.027-0.028 0.058-0.053 0.090-0.074 0.115-0.074-0.151-0.040 0.283-0.086 0.040-0.004 0.097-0.010 0.17-0.017 0.14-0.013 0.339-0.031 0.585-0.053 0.485-0.043 1.131-0.098 1.783-0.153 0.873-0.072 1.745-0.148 2.618-0.207 0.431-0.634 0.874-1.26 1.315-1.887l0.013-0.019c0.165-0.234 0.337-0.478 0.545-0.773 0.071-0.101 0.396-0.561 0.474-0.672 0.157-0.222 0.26-0.368 0.332-0.471 0.231-0.291 0.231-0.291 0.384-0.367 0.252-0.019 0.302-0.018 0.369-0.017 0.13 0.001 0.321 0.002 0.567 0.003 0.434 0.001 1.027 0 1.74-0.001 0.384-0.001 0.791-0.002 1.21-0.003 0.328-0.001 0.645-0.002 0.938-0.003 0.164-0.001 0.164-0.001 0.276-0.001 0.082-0 0.082-0 0.1-0h0.002zM16.166 2.425c-0.124 0.001-0.061 0-0.188 0.001-0.294 0.001-0.611 0.002-0.939 0.003-0.419 0.001-0.826 0.002-1.211 0.003-0.715 0.002-1.309 0.002-1.745 0.001-0.393-0.001-0.22-0-0.519-0.002-0.099 0.141-0.199 0.282-0.298 0.423-0.078 0.111-0.403 0.571-0.474 0.672-0.208 0.295-0.38 0.538-0.544 0.772l-0.013 0.019c-0.835 1.186-1.355 1.933-1.425 2.052-0.090 0.153-0.253 0.248-0.431 0.251-0.156 0.002-1.332 0.095-2.825 0.22-0.651 0.055-1.295 0.11-1.778 0.153-0.399 0.036-0.22 0.019-0.537 0.049-0.088 0.163-0.174 0.327-0.261 0.491-0.22 0.417-0.514 0.978-0.817 1.561-0.305 0.585-0.595 1.146-0.808 1.562-0.113 0.22-0.203 0.396-0.264 0.52l-0.003 0.006c0.072 0.172 0.145 0.343 0.219 0.515 0.178 0.414 0.423 0.976 0.689 1.582 0.543 1.235 1.041 2.351 1.11 2.483 0.076 0.146 0.076 0.321 0.001 0.468-0.061 0.118-0.455 1.010-1.041 2.352-0.005 0.012-0.005 0.012-0.011 0.025-0.231 0.53-0.478 1.097-0.725 1.666-0.16 0.369-0.083 0.191-0.232 0.534 0.166 0.316 0.079 0.151 0.26 0.496 0.28 0.534 0.561 1.069 0.823 1.569 0.005 0.009 0.005 0.009 0.010 0.019 0.341 0.652 0.624 1.195 0.829 1.591 0.077 0.149 0.154 0.299 0.231 0.448 0.18 0.012 0.36 0.025 0.54 0.038 0.42 0.030 0.816 0.060 1.864 0.14 0.003 0 0.003 0 0.006 0 1.793 0.137 2.514 0.189 2.642 0.19 0.17 0.001 0.328 0.087 0.421 0.229 0.074 0.112 0.649 0.879 1.576 2.103 0.005 0.007 0.005 0.007 0.011 0.014 0.183 0.241 0.374 0.493 0.599 0.791 0.111 0.146 0.463 0.611 0.521 0.687 0.112 0.148 0.225 0.297 0.337 0.445 0.324-0.004 0.141-0.002 0.551-0.004 0.447-0.002 1.058-0.001 1.791 0 0.418 0.001 0.861 0.003 1.317 0.005 0.32 0.001 0.628 0.003 0.911 0.004l0.097 0 2.85-4.023c0.094-0.133 0.245-0.212 0.408-0.215 0.174-0.003 1.48-0.092 2.843-0.194 0.696-0.052 1.328-0.102 1.792-0.141 0.409-0.035 0.223-0.019 0.557-0.050 0.087-0.163 0.173-0.326 0.259-0.489 0.225-0.427 0.523-0.995 0.82-1.565 0.313-0.601 0.602-1.158 0.813-1.568 0.114-0.221 0.203-0.397 0.265-0.52l0.002-0.004c-0.070-0.173-0.14-0.345-0.211-0.517-0.177-0.429-0.414-1-0.657-1.581-0.546-1.307-0.992-2.354-1.056-2.479-0.076-0.147-0.075-0.321 0.001-0.467 0.063-0.122 0.508-1.169 1.057-2.482 0.242-0.58 0.48-1.154 0.657-1.584 0.070-0.17 0.139-0.339 0.208-0.509l-0-0c-0.062-0.12-0.151-0.292-0.27-0.518-0.183-0.35-0.317-0.606-0.821-1.565-0.001-0.001-0.001-0.001-0.001-0.002-0.423-0.806-0.641-1.221-0.831-1.586-0.079-0.152-0.158-0.303-0.236-0.455-0.183-0.012-0.366-0.025-0.549-0.038-0.409-0.029-0.518-0.037-1.88-0.136l-0.028-0.002c-1.751-0.128-2.563-0.184-2.695-0.187-0.167-0.003-0.322-0.088-0.415-0.227-0.113-0.17-0.974-1.319-1.671-2.221-0.434-0.562-0.811-1.040-1.096-1.384-0.156-0.189-0.281-0.334-0.371-0.431l-0.007-0.007zM14.584 3.778c0.092 0 0.179 0.042 0.237 0.113 0.31 0.382 0.561 0.968 0.782 1.735 0.121 0.412 0.215 0.832 0.306 1.252 0.090-0.19 0.039-0.080 0.154-0.33 0.021-0.046 0.021-0.046 0.043-0.093 0.112-0.246 0.23-0.509 0.346-0.773 0.041-0.092 0.078-0.178 0.112-0.255 0.020-0.046 0.034-0.079 0.042-0.096 0.096-0.222 0.401-0.25 0.535-0.048l0.745 1.12c0.058 0.087 0.067 0.197 0.025 0.293l-1.402 3.173 0.022 1.681 1.519-0.975 2.131-2.597c0.059-0.072 0.148-0.113 0.241-0.112l1.363 0.021c0.245 0.004 0.386 0.279 0.246 0.48l-0.934 1.342c0.767-0.237 1.56-0.395 2.361-0.461 0.274-0.022 0.576-0.047 0.845 0.027 0.139 0.060 0.196 0.153 0.415 0.564 0.011 0.020 0.017 0.031 0.033 0.063 0.057 0.109 0.117 0.225 0.175 0.342 0.035 0.070 0.062 0.124 0.077 0.156 0.038 0.077 0.041 0.167 0.009 0.247-0.090 0.225-0.23 0.461-0.416 0.709-0.226 0.302-0.513 0.616-0.862 0.952-0.156 0.15-0.319 0.301-0.502 0.464-0.071 0.064-0.143 0.127-0.228 0.201l-0.045 0.039c0.307-0.013 0.153-0.006 0.462-0.023 0.124-0.007 0.253-0.015 0.387-0.024 0.198-0.013 0.395-0.027 0.582-0.042 0.065-0.005 0.125-0.010 0.177-0.014 0.053-0.004 0.053-0.004 0.065-0.005 0.238-0.019 0.406 0.23 0.297 0.444l-0.612 1.197c-0.048 0.093-0.139 0.155-0.244 0.165l-3.445 0.322-1.326 0.886 1.338 1.037 3.434 0.321c0.104 0.010 0.196 0.072 0.244 0.165l0.612 1.201c0.107 0.21-0.055 0.458-0.29 0.444-0.319-0.019-0.319-0.019-1.278-0.076-0.326-0.019-0.211-0.013-0.345-0.021 0.351 0.303 0.128 0.106 0.658 0.601 0.307 0.3 0.576 0.592 0.797 0.871 0.249 0.314 0.432 0.607 0.541 0.88 0.033 0.083 0.028 0.176-0.013 0.255-0.016 0.031-0.044 0.085-0.081 0.154-0.061 0.115-0.123 0.231-0.181 0.339l-0.016 0.029c-0.247 0.454-0.279 0.51-0.375 0.571-0.792 0.249-2.512-0.218-3.251-0.412l0.935 1.343c0.14 0.201-0.001 0.476-0.246 0.48l-1.363 0.021c-0.093 0.002-0.182-0.040-0.241-0.111l-2.13-2.593-1.358-0.859v1.502l1.223 3.118c0.034 0.087 0.027 0.184-0.020 0.264l-0.683 1.182c-0.122 0.212-0.432 0.201-0.539-0.019l-0.714-1.466c-0.335 1.252-0.15 0.693-0.521 1.685-0.227 0.558-0.512 1.125-0.605 1.256-0.074 0.105-0.143 0.128-0.264 0.146-0.045 0.007-0.099 0.011-0.163 0.013-0.103 0.004-0.234 0.003-0.389-0.002-0.091-0.003-0.188-0.007-0.287-0.012-0.071-0.004-0.139-0.007-0.202-0.011-0.038-0.002-0.066-0.004-0.081-0.005-0.084-0.006-0.162-0.046-0.216-0.112-0.319-0.391-0.577-0.987-0.797-1.749-0.116-0.406-0.206-0.819-0.292-1.232-0.070 0.146-0.023 0.047-0.14 0.298-0.022 0.047-0.022 0.047-0.043 0.094-0.115 0.251-0.236 0.52-0.356 0.79-0.042 0.094-0.080 0.182-0.115 0.26-0.021 0.047-0.035 0.081-0.043 0.098-0.097 0.221-0.4 0.249-0.534 0.048l-0.748-1.12c-0.057-0.086-0.068-0.195-0.027-0.29l1.407-3.268v-1.554l-1.47 0.945-2.128 2.594c-0.059 0.072-0.148 0.113-0.241 0.112l-1.366-0.021c-0.245-0.004-0.386-0.279-0.246-0.48l0.939-1.349c-0.769 0.233-1.563 0.381-2.363 0.452-0.268 0.024-0.568 0.054-0.835-0.006-0.068-0.025-0.124-0.074-0.159-0.137l-0.547-0.977c-0.045-0.080-0.051-0.177-0.017-0.262 0.23-0.576 0.78-1.242 1.535-1.952 0.276-0.255 0.124-0.117 0.459-0.411-0.166 0.010-0.052 0.003-0.343 0.022-0.076 0.005-0.076 0.005-0.152 0.010-0.255 0.017-0.52 0.035-0.78 0.053-0.091 0.006-0.175 0.012-0.249 0.017-0.076 0.005-0.076 0.005-0.093 0.007-0.237 0.017-0.402-0.232-0.294-0.443l0.612-1.2c0.048-0.093 0.139-0.156 0.244-0.165l3.428-0.321 1.233-0.987-1.229-0.937-3.432-0.321c-0.104-0.010-0.196-0.072-0.244-0.165l-0.612-1.197c-0.108-0.212 0.056-0.461 0.294-0.444 0.016 0.001 0.016 0.001 0.091 0.006 0.073 0.005 0.155 0.011 0.244 0.017 0.255 0.018 0.515 0.035 0.767 0.051 0.058 0.004 0.116 0.008 0.172 0.011 0.3 0.019 0.167 0.011 0.399 0.024-0.247-0.203-0.478-0.423-0.71-0.642-0.317-0.304-0.59-0.596-0.813-0.874-0.242-0.303-0.42-0.586-0.526-0.851-0.034-0.086-0.028-0.182 0.017-0.262l0.547-0.977c0.078-0.139 0.249-0.195 0.265-0.156 0.001 0 0.001 0 0.002 0 0.063-0 0.163 0.002 0.296 0.007 0.213 0.008 0.447 0.024 0.697 0.047 0.703 0.057 1.393 0.204 2.075 0.381l-0.918-1.319c-0.14-0.201 0.001-0.476 0.246-0.48l1.366-0.021c0.093-0.001 0.182 0.040 0.241 0.112l2.132 2.602 1.436 1.016-0.152-1.657-1.229-3.131c-0.034-0.087-0.027-0.184 0.020-0.265l0.686-1.182c0.123-0.212 0.432-0.2 0.539 0.020l0.713 1.469c0.285-1.094 0.127-0.595 0.454-1.503 0.143-0.365 0.296-0.707 0.449-1.017 0.054-0.109 0.104-0.206 0.149-0.29 0.016-0.030 0.030-0.056 0.043-0.078 0.007-0.013 0.004-0.008 0.009-0.016 0.001-0.004-0-0.002 0.003-0.005v-0c0.002-0.003 0.002-0.003 0.003-0.006 0.001-0.001 0.001-0.001 0.001-0.002l0-0-0 0 0.001 0.002c0.175-0.164 0.080-0.124 0.265-0.158h1.117zM14.423 4.389h-0.773c-0.060 0.115-0.023 0.044-0.108 0.212-0.146 0.295-0.292 0.621-0.428 0.969-0.307 0.785-0.518 1.56-0.59 2.277-0.031 0.307-0.444 0.38-0.579 0.103l-0.866-1.785-0.323 0.558 1.191 3.035c0.011 0.027 0.017 0.055 0.020 0.084l0.217 2.361c0.024 0.26-0.268 0.428-0.481 0.277l-2.011-1.423c-0.022-0.016-0.043-0.034-0.060-0.056l-2.065-2.52-0.645 0.010 1.133 1.629c0.176 0.253-0.090 0.578-0.373 0.455-0.26-0.113-0.54-0.213-0.838-0.299-0.623-0.18-1.294-0.297-1.966-0.361-0.447-0.038-0.194-0.020-0.759-0.049l-0.382 0.682c0.094 0.209 0.24 0.389 0.377 0.57 0.204 0.255 0.459 0.528 0.758 0.815 1.284 1.127 1.314 1.154 1.337 1.176 0.070 0.084 0.070 0.084 0.1 0.155 0.031 0.149 0.031 0.149-0.137 0.355-0.055 0.033-0.086 0.039-0.139 0.044-0.219-0-0.319-0.004-0.445-0.011-0.22-0.011-0.514-0.028-0.866-0.051-0.056-0.004-0.114-0.007-0.173-0.011-0.444-0.029-0.256-0.017-0.566-0.038l0.29 0.567 3.352 0.314c0.057 0.005 0.111 0.027 0.157 0.061l1.609 1.227c0.158 0.12 0.161 0.357 0.006 0.481l-1.609 1.289c-0.047 0.037-0.103 0.060-0.162 0.066l-3.352 0.314-0.29 0.57c0.327-0.022 0.132-0.009 0.586-0.040 0.076-0.005 0.076-0.005 0.153-0.010 0.372-0.024 0.68-0.043 0.903-0.055 0.129-0.007 0.227-0.011 0.295-0.012 0.103 0.027 0.147 0.004 0.179 0.013 0.062 0.003 0.062 0.003 0.219 0.232-0.009 0.198-0.009 0.198-0.083 0.281-0.052 0.043-0.052 0.043-0.081 0.058-0.050 0.025-0.646 0.511-1.089 0.928-0.481 0.489-1.032 0.972-1.327 1.607l0.381 0.682c0.079-0.002 0.022-0 0.17-0.006 0.278-0.013 0.582-0.037 0.903-0.076 0.912-0.11 1.77-0.311 2.491-0.625 0.282-0.123 0.549 0.202 0.373 0.455l-1.133 1.628 0.645 0.010 2.065-2.517c0.020-0.025 0.044-0.046 0.071-0.063l1.981-1.274c0.049-0.032 0.107-0.049 0.165-0.049v0c0.151 0.009 0.329 0.132 0.298 0.306l0.008-0v2.177c0 0.042-0.008 0.083-0.025 0.121l-1.366 3.174 0.347 0.52c0.174-0.388 0.076-0.172 0.293-0.649 0.022-0.048 0.022-0.048 0.044-0.096 0.15-0.326 0.277-0.591 0.374-0.78 0.058-0.112 0.105-0.197 0.143-0.256 0.029-0.045 0.055-0.080 0.089-0.111 0.048-0.045 0.101-0.077 0.184-0.087 0.155-0.019 0.281 0.074 0.33 0.199-0.011-0.028 0.262 1.392 0.453 2.055 0.145 0.499 0.32 0.997 0.614 1.429 0.059 0.003 0.017 0.001 0.127 0.007 0.096 0.005 0.188 0.009 0.275 0.012 0.143 0.005 0.262 0.006 0.349 0.003l0.006-0c0.184-0.333 0.331-0.685 0.481-1.034 0.337-0.828 0.573-1.667 0.652-2.454 0.031-0.306 0.444-0.38 0.579-0.103l0.868 1.784 0.322-0.557-1.19-3.035c-0.014-0.035-0.021-0.073-0.021-0.111v-2.114c0-0.241 0.265-0.387 0.469-0.258l1.868 1.182c0.027 0.017 0.052 0.039 0.073 0.064l2.068 2.518 0.642-0.010-1.133-1.628c-0.176-0.253 0.090-0.578 0.373-0.455 0.728 0.317 1.587 0.526 2.473 0.639 0.326 0.041 0.635 0.067 0.896 0.077 0.163 0.005 0.095 0.004 0.203 0.004l0.005-0.008c0.044-0.075 0.101-0.177 0.168-0.3 0.008-0.014 0.008-0.014 0.015-0.028 0.057-0.106 0.118-0.22 0.178-0.333l0.010-0.019c-0.098-0.221-0.251-0.413-0.396-0.605-0.203-0.256-0.455-0.53-0.744-0.813-0.291-0.284-0.604-0.562-0.916-0.823-0.11-0.091-0.211-0.173-0.302-0.245-0.054-0.043-0.092-0.072-0.112-0.087-0.24-0.183-0.098-0.566 0.203-0.548 0.319 0.019 0.319 0.019 1.278 0.076 0.248 0.015 0.497 0.030 0.745 0.044l-0.293-0.575-3.355-0.314c-0.058-0.005-0.113-0.027-0.159-0.063l-1.743-1.351c-0.165-0.128-0.156-0.38 0.017-0.495l1.743-1.165c0.042-0.028 0.091-0.045 0.141-0.050l3.355-0.314 0.288-0.563-0.288 0.020c-0.135 0.009-0.266 0.017-0.391 0.025-1.17 0.069-1.318 0.072-1.464-0.096-0.088-0.101-0.094-0.217-0.058-0.317 0.014-0.040 0.033-0.073 0.057-0.105 0.026-0.036 0.060-0.073 0.105-0.117 0.065-0.064 0.149-0.14 0.304-0.275 0.552-0.483 0.647-0.568 0.908-0.821 0.327-0.316 0.594-0.607 0.797-0.879 0.103-0.144 0.21-0.287 0.283-0.45l-0.011-0.022c-0.057-0.113-0.114-0.226-0.17-0.331-0.016-0.030-0.021-0.040-0.032-0.060-0.060-0.113-0.112-0.205-0.152-0.272l-0.002-0.003c-0.133-0-0.057-0.001-0.23 0.004-0.26 0.010-0.569 0.035-0.893 0.077-0.877 0.113-1.732 0.323-2.461 0.64-0.282 0.123-0.549-0.202-0.373-0.455l1.134-1.629-0.642-0.010-2.068 2.52c-0.020 0.025-0.044 0.046-0.071 0.063l-2.023 1.298c-0.202 0.13-0.467-0.013-0.47-0.253l-0.030-2.298c-0.001-0.044 0.008-0.087 0.026-0.127l1.361-3.081-0.343-0.516c-0.163 0.367-0.070 0.159-0.279 0.622-0.021 0.047-0.021 0.047-0.043 0.094-0.137 0.299-0.254 0.546-0.346 0.727-0.218 0.369-0.236 0.389-0.257 0.407-0.053 0.046-0.114 0.078-0.204 0.079-0.146 0.003-0.223-0.065-0.279-0.157-0.056-0.13-0.071-0.181-0.087-0.247-0.023-0.094-0.035-0.15-0.102-0.463-0.124-0.583-0.21-0.95-0.327-1.355-0.144-0.488-0.307-0.981-0.594-1.406zM14.227 17.079c0.144 0 0.268 0.101 0.299 0.241 0.008 0.035 0.021 0.1 0.041 0.192 0.033 0.153 0.069 0.323 0.108 0.508 0.112 0.526 0.224 1.057 0.329 1.558 0.011 0.051 0.011 0.051 0.021 0.101 0.361 1.734 0.481 2.344 0.457 2.472-0.001 0.006-0.034 0.207-0.052 0.315-0.038 0.225-0.081 0.458-0.13 0.708-0.14 0.709-0.306 1.406-0.503 2.060-0.086 0.285-0.176 0.555-0.27 0.811-0.041 0.111-0.142 0.188-0.259 0.198-0.027 0.002-0.070 0.006-0.123 0.009-0.047 0.003-0.092 0.006-0.135 0.007-0.069 0.003-0.13 0.003-0.18 0.001-0.136-0.006-0.196-0.017-0.284-0.101-0.221-0.212-0.623-1.708-0.956-3.995-0.005-0.033-0.004-0.066 0.002-0.098l0.853-4.735c0.026-0.145 0.153-0.251 0.301-0.251l0.484-0zM13.99 17.738l-0.79 4.386c0.139 0.969 0.315 1.933 0.559 2.882 0.069 0.258 0.134 0.464 0.19 0.615l0.011 0.028 0.025-0.001 0.033-0.002c0.113-0.322 0.047-0.127 0.193-0.59 0.191-0.633 0.352-1.311 0.489-2.002 0.048-0.244 0.090-0.471 0.127-0.692 0.016-0.096 0.032-0.192 0.048-0.287l-0.002-0.015c-0.005-0.035-0.013-0.086-0.024-0.151-0.022-0.127-0.056-0.306-0.1-0.532-0.079-0.4-0.188-0.936-0.321-1.575-0.011-0.050-0.011-0.050-0.021-0.101-0.104-0.5-0.216-1.030-0.328-1.555-0.067-0.313-0.038-0.177-0.087-0.409zM15.561 16.311l0.104 0.014c0.036 0.011 0.102 0.032 0.195 0.061 0.155 0.049 0.328 0.103 0.515 0.162 0.532 0.168 1.065 0.337 1.561 0.495 0.027 0.009 0.027 0.009 0.053 0.017 1.613 0.515 2.211 0.711 2.3 0.775 0.215 0.154 2.858 2.713 2.944 2.913 0.15 0.348-0.203 0.869-0.538 0.86l-0-0c-0.087-0.002-0.149-0.006-0.27-0.022-0.182-0.024-0.401-0.068-0.664-0.135-0.715-0.183-1.643-0.515-2.816-1.032-0.026-0.011-0.050-0.026-0.071-0.044l-3.742-3.092c-0.115-0.095-0.144-0.258-0.071-0.387l0.246-0.43c0.109-0.132 0.034-0.068 0.253-0.154zM15.734 16.987l3.495 2.888c0.872 0.387 1.763 0.732 2.684 0.983 0.24 0.062 0.436 0.1 0.593 0.122 0.114 0.013 0.075 0.011 0.116 0.013l0.013-0.017 0.005-0.009-0.049-0.053c-0.075-0.080-0.181-0.189-0.314-0.323-0.243-0.244-0.572-0.567-0.945-0.928-0.46-0.44-0.914-0.887-1.383-1.317l-0.011-0.004c-0.033-0.012-0.080-0.029-0.141-0.050-0.119-0.041-0.287-0.097-0.499-0.167-0.377-0.124-0.886-0.288-1.495-0.482-0.026-0.008-0.026-0.008-0.053-0.017-0.496-0.158-1.028-0.327-1.56-0.495-0.331-0.104-0.179-0.057-0.456-0.144zM12.519 16.311c0.22 0.086 0.144 0.021 0.254 0.154l0.246 0.43c0.074 0.129 0.044 0.293-0.071 0.387l-3.742 3.092c-0.022 0.018-0.046 0.033-0.072 0.044-1.167 0.513-2.112 0.846-2.855 1.033-0.458 0.115-0.753 0.156-0.918 0.157-0.105-0.004-0.201-0.063-0.253-0.154l-0.246-0.433c-0.063-0.11-0.051-0.248 0.031-0.346 0.898-1.080 2.552-2.618 2.912-2.848 0.073-0.047 0.642-0.232 2.308-0.766 0.016-0.005 0.016-0.005 0.032-0.010 0.497-0.159 1.029-0.329 1.561-0.499 0.186-0.059 0.359-0.114 0.514-0.164 0.093-0.030 0.16-0.051 0.195-0.062l0.104-0.014zM12.345 16.989c-0.274 0.087-0.123 0.039-0.453 0.144-0.532 0.169-1.063 0.339-1.56 0.498l-0.032 0.010c-0.617 0.198-1.134 0.364-1.515 0.489-0.216 0.070-0.386 0.127-0.505 0.167-0.062 0.021-0.11 0.038-0.144 0.049l-0.016 0.006c-0.333 0.271-0.648 0.562-0.964 0.851-0.582 0.537-1.136 1.104-1.655 1.702l0.042 0.073c0.199-0.027 0.394-0.074 0.589-0.121 0.936-0.239 1.835-0.602 2.72-0.983l3.494-2.887zM5.375 10.403c0.152 0.001 0.447 0.041 0.905 0.156 0.743 0.186 1.688 0.518 2.855 1.032 0.026 0.011 0.050 0.026 0.072 0.044l3.742 3.091c0.114 0.095 0.144 0.258 0.071 0.386l-0.246 0.433c-0.072 0.126-0.221 0.184-0.359 0.14-0.036-0.011-0.036-0.011-0.195-0.063-0.155-0.050-0.328-0.106-0.514-0.166-0.532-0.171-1.064-0.343-1.561-0.504l-0.010-0.003c-1.417-0.458-2.212-0.716-2.275-0.74-0.294-0.115-2.011-1.728-2.965-2.875-0.082-0.098-0.094-0.236-0.030-0.347l0.246-0.431c0.136-0.145 0.050-0.098 0.266-0.127l0-0.027zM5.542 11.032l-0.041 0.071c0.718 0.673 1.722 2.015 2.581 2.538 0.043 0.017 0.925 0.303 2.24 0.728 0.005 0.002 0.005 0.002 0.010 0.003 0.497 0.16 1.029 0.332 1.561 0.503 0.331 0.107 0.179 0.058 0.456 0.147l-3.497-2.889c-0.882-0.392-1.787-0.733-2.72-0.982-0.194-0.050-0.391-0.089-0.59-0.12zM22.672 10.4l0.084 0.008c0.073 0.013 0.119 0.042 0.161 0.081 0.32 0.475 0.301 0.501 0.308 0.515 0.054 0.108 0.039 0.239-0.038 0.332-0.512 0.616-1.152 1.27-1.849 1.917-0.446 0.414-0.941 0.842-1.046 0.92-0.078 0.057-0.553 0.213-2.319 0.779-0.019 0.006-0.019 0.006-0.038 0.012-0.497 0.159-1.029 0.329-1.561 0.498-0.186 0.059-0.359 0.114-0.514 0.164-0.093 0.030-0.16 0.051-0.195 0.062-0.137 0.044-0.287-0.015-0.358-0.14l-0.246-0.433c-0.073-0.129-0.043-0.292 0.071-0.386l3.742-3.091c0.022-0.018 0.046-0.033 0.072-0.044 1.201-0.459 2.418-1.111 3.726-1.191zM22.548 11.025l-0.017 0.002c-0.154 0.020-0.352 0.059-0.595 0.121-0.931 0.241-1.824 0.605-2.706 0.985l-3.5 2.891c0.28-0.089 0.127-0.040 0.46-0.146 0.532-0.169 1.064-0.339 1.56-0.498l0.038-0.012c0.618-0.198 1.133-0.364 1.514-0.489 0.215-0.070 0.384-0.127 0.503-0.167 0.062-0.021 0.109-0.037 0.142-0.049l0.009-0.004c0.333-0.274 0.65-0.565 0.968-0.856 0.585-0.538 1.142-1.108 1.663-1.708l-0.014-0.027c-0.007-0.013-0.007-0.013-0.015-0.027l-0.010-0.017zM14.27 5.7c0.111-0.003 0.215 0.054 0.271 0.15 0.043 0.072 0.108 0.211 0.19 0.427 0.13 0.347 0.259 0.79 0.379 1.34 0.134 0.618 0.249 1.336 0.338 2.161 0.003 0.029 0.002 0.058-0.003 0.086l-0.84 4.735c-0.026 0.146-0.153 0.252-0.301 0.252h-0.496c-0.145 0-0.271-0.102-0.299-0.245l-0.955-4.71c-0.004-0.117-0.018-0.078 0-0.123l0-0.002c0.003-0.020 0.003-0.020 0.008-0.050 0.009-0.054 0.020-0.117 0.032-0.187 0.035-0.201 0.078-0.425 0.126-0.665 0.139-0.688 0.304-1.377 0.493-2.021 0.098-0.333 0.2-0.646 0.307-0.935 0.043-0.117 0.153-0.196 0.278-0.2l0.471-0.013zM14.088 6.316l-0.061 0.002c-0.136 0.391-0.058 0.158-0.227 0.702-0.184 0.626-0.345 1.298-0.481 1.97-0.048 0.236-0.089 0.454-0.123 0.65-0.012 0.068-0.022 0.129-0.031 0.181l-0.002 0.009 0.889 4.385 0.783-4.414c-0.069-0.691-0.186-1.375-0.322-2.055-0.114-0.522-0.234-0.937-0.354-1.255-0.055-0.141-0.030-0.083-0.071-0.175z"></path>
</svg>
