<!-- Generated by IcoMoon.io -->
<svg version="1.1" xmlns="http://www.w3.org/2000/svg" width="28" height="32" viewBox="0 0 28 32">
<title>ima</title>
<path fill="#444" d="M7.581 3.731c3.839-1.98 8.624-1.982 12.463 0.001-2.056 1.521-4.14 3.003-6.204 4.513-2.083-1.508-4.188-2.988-6.259-4.514zM13.783 13.117c-2.223-3.044-4.483-6.061-6.686-9.12-3.289 1.813-5.741 5.054-6.634 8.697-0.721 2.881-0.474 5.996 0.7 8.724 0.926 2.187 2.45 4.092 4.317 5.55 0.861-1.313 1.687-2.648 2.559-3.953-1.547-1.289-2.655-3.092-3.072-5.065-0.518-2.31-0.066-4.838 1.25-6.808 2.189 2.986 4.384 5.967 6.58 8.948-1.758 2.716-3.522 5.429-5.246 8.167 3.858 1.997 8.665 1.996 12.524 0.001-1.718-2.734-3.485-5.439-5.234-8.155 2.187-3.015 4.323-6.068 6.524-9.072 1.222 1.869 1.76 4.192 1.392 6.403-0.331 2.166-1.486 4.181-3.17 5.581 0.872 1.303 1.693 2.64 2.56 3.946 2.951-2.258 4.962-5.731 5.334-9.438 0.285-2.484-0.13-5.050-1.194-7.313-1.223-2.665-3.333-4.895-5.898-6.306-2.205 3.067-4.396 6.146-6.605 9.212z"></path>
</svg>
