<!-- Generated by IcoMoon.io -->
<svg version="1.1" xmlns="http://www.w3.org/2000/svg" width="26" height="32" viewBox="0 0 26 32">
<path fill="#444" d="M10.453 4.004c1.401-0.287 2.853-0.316 4.263-0.083 1.399 0.232 2.754 0.722 3.978 1.437 0.635 0.377 1.247 0.801 1.792 1.301-0.696 0.013-1.395-0.008-2.090 0.011-0.748 0.735-1.485 1.482-2.231 2.22-0.41 0.416-0.834 0.818-1.236 1.241-0.011 0.628-0.002 1.257-0.005 1.886 0.002 0.9-0.004 1.8 0.003 2.701 0.092-0.067 0.169-0.152 0.248-0.231 0.543-0.548 1.089-1.093 1.627-1.646 0.216 0.285 0.377 0.608 0.528 0.931 0.241 0.551 0.394 1.148 0.396 1.752 0.023 1.189-0.415 2.379-1.193 3.277-0.723 0.845-1.739 1.438-2.835 1.634-1.092 0.202-2.254 0.027-3.231-0.506-0.928-0.498-1.688-1.301-2.133-2.255-0.469-0.988-0.59-2.134-0.341-3.198 0.139-0.604 0.396-1.179 0.747-1.69 0.508 0.507 1.008 1.022 1.515 1.53 0.138 0.135 0.268 0.28 0.415 0.407 0.008-1.512 0.001-3.025 0.004-4.537 0.011-0.063-0.043-0.102-0.079-0.143-1.125-1.111-2.242-2.23-3.363-3.345-0.020-0.024-0.046-0.036-0.077-0.035-0.679-0.005-1.358 0.005-2.037-0.005 1.501-1.336 3.369-2.249 5.336-2.656zM3.327 9.803c0.069-0.059 0.126-0.165 0.232-0.146 0.687 0.004 1.373-0.003 2.060 0.004 0.225 0.193 0.419 0.422 0.636 0.625-0.048 0.073-0.102 0.144-0.157 0.213-1.038 1.356-1.67 3.028-1.743 4.737-0.029 0.31-0.005 0.622 0.012 0.932 0.080 1.184 0.415 2.351 0.982 3.394 0.556 1.028 1.328 1.939 2.249 2.657 0.976 0.763 2.12 1.307 3.327 1.588 0.003 1.028-0 2.057 0.002 3.085-0.184-0.010-0.362-0.057-0.542-0.093-1.174-0.245-2.308-0.68-3.351-1.271-2.070-1.179-3.771-3.002-4.779-5.162-0.604-1.286-0.969-2.684-1.068-4.101-0.036-0.276-0.010-0.556-0.043-0.833 0.010-0.213 0.023-0.427 0.023-0.64 0.063-1.224 0.321-2.439 0.768-3.581 0.037-0.079 0.109-0.132 0.169-0.193 0.408-0.405 0.818-0.808 1.224-1.215zM19.824 9.805c0.058-0.048 0.1-0.13 0.177-0.145 0.688-0.002 1.376 0 2.064-0.001 0.054-0.010 0.092 0.033 0.128 0.066 0.428 0.426 0.861 0.847 1.289 1.273 0.070 0.073 0.159 0.136 0.193 0.236 0.475 1.241 0.738 2.565 0.765 3.893 0.020 0.192 0.020 0.388-0.001 0.58-0.043 2.042-0.644 4.070-1.716 5.808-0.856 1.396-2.014 2.605-3.37 3.523-1.158 0.785-2.459 1.362-3.82 1.687-0.285 0.061-0.569 0.139-0.86 0.166 0.001-1.028-0.001-2.055 0.001-3.083 1.206-0.282 2.35-0.825 3.326-1.589 0.922-0.719 1.692-1.632 2.248-2.66 0.619-1.142 0.964-2.433 0.993-3.732 0.017-0.172 0.014-0.346-0.002-0.518-0.045-1.822-0.75-3.604-1.9-5.011 0.156-0.171 0.324-0.329 0.485-0.495z"></path>
</svg>
