<!-- Generated by IcoMoon.io -->
<svg version="1.1" xmlns="http://www.w3.org/2000/svg" width="24" height="32" viewBox="0 0 24 32">
<title>inv</title>
<path fill="#444" d="M11.756 8.557v0c-0.014 0-0.024 0-0.039 0-0.011 0-0.024 0-0.039 0v0c-0.6-0.039-1.017-0.53-1.017-1.508 0-1.019 1.056-2.418 1.056-2.418s1.059 1.398 1.059 2.418c0 0.978-0.42 1.469-1.020 1.508zM14.976 6.859c-0.078-0.755-0.113-1.51-0.455-2.566-0.339-1.059-1.413-2.306-2.765-2.306-1.359 0-2.418 1.246-2.757 2.306-0.339 1.056-0.378 1.811-0.452 2.566-0.078 0.756-0.526 4.117 3.213 4.117s3.291-3.361 3.216-4.117zM15.894 4.36c0.226 0.84 0.296 1.518 0.353 2.118l0.028 0.306c0.070 0.668 0.283 2.698-1.017 4.141-0.646 0.717-1.539 1.137-2.644 1.282v2.263c8.091 0 10.119 3.524 10.119 3.524 1.906-3.432-0.096-8.582-2.288-10.775-2.195-2.193-4.55-2.86-4.55-2.86zM20.314 17.804c-4.102 1.048-7.697 12.208-7.697 12.208v-14.256c5.645 0 7.697 2.048 7.697 2.048zM3.079 7.22c-2.196 2.193-4.198 7.343-2.292 10.775 0 0 2.027-3.524 10.122-3.524v-2.263c-1.105-0.145-2.002-0.565-2.648-1.282-1.3-1.443-1.084-3.473-1.017-4.141l0.032-0.306c0.053-0.6 0.127-1.278 0.353-2.118 0 0-2.359 0.667-4.551 2.86zM10.902 15.756v14.256c0 0-3.594-11.16-7.693-12.208 0 0 2.052-2.048 7.693-2.048z"></path>
</svg>
