<!-- Generated by IcoMoon.io -->
<svg version="1.1" xmlns="http://www.w3.org/2000/svg" width="26" height="32" viewBox="0 0 26 32">
<title>izzet</title>
<path fill="#444" d="M12.677 5.867l0.267 0.002c0.284 0.012 0.568 0.015 0.852 0.037 1.276 0.097 2.536 0.382 3.726 0.852 2.211 0.877 4.165 2.386 5.578 4.298 1.788 2.396 2.673 5.436 2.474 8.416-0.16 2.665-1.193 5.264-2.895 7.317-0.153 0.17-0.277 0.402-0.52 0.45-0.842 0.228-1.593 0.787-2.024 1.548-0.196 0.324-0.311 0.687-0.412 1.050-0.376-0.543-0.693-1.157-0.747-1.825-0.019-0.247 0.018-0.493 0.047-0.737-1.143 0.279-2.264 0.913-2.869 1.953-0.179 0.272-0.21 0.646-0.501 0.835-0.55 0.393-1.225 0.562-1.882 0.668-1.090 0.151-2.23 0.059-3.253-0.361-0.339-0.154-0.731-0.344-0.848-0.73-0.209-0.581-0.542-1.127-1.016-1.529-0.57-0.496-1.31-0.759-2.053-0.841 0.197 0.911-0.161 1.84-0.707 2.562-0.182-0.829-0.656-1.602-1.358-2.088-0.336-0.242-0.722-0.404-1.117-0.519-0.191-0.049-0.295-0.231-0.418-0.367-1.212-1.451-2.103-3.171-2.572-5.003-0.613-2.372-0.527-4.921 0.249-7.245 0.801-2.415 2.345-4.578 4.372-6.117 1.679-1.285 3.68-2.154 5.772-2.473 0.616-0.078 1.235-0.153 1.857-0.153zM19.485 12.527c-0.015 0.172-0.015 0.345-0.018 0.518-0.037 1.608-0.644 3.197-1.695 4.416-0.795 0.936-1.854 1.634-3.017 2.022 0.245 1.333 0.73 2.623 1.435 3.781 1.362-0.882 2.383-2.228 3.009-3.714 0.885-2.102 1.008-4.502 0.406-6.697-0.031-0.112-0.073-0.221-0.12-0.327zM6.138 12.526c-0.169 0.39-0.239 0.813-0.324 1.227-0.503 2.757 0.117 5.767 1.903 7.961 0.277 0.325 0.557 0.656 0.901 0.914-0.053-0.527-0.1-1.060-0.027-1.588 0.090-0.804 0.387-1.563 0.716-2.296-0.305-0.222-0.615-0.439-0.89-0.699-1.391-1.268-2.219-3.12-2.261-5-0.003-0.173-0.002-0.347-0.018-0.519zM12.873 6.63c-1.092-0.016-2.183 0.301-3.103 0.887-1.333 0.839-2.302 2.218-2.677 3.744-0.343 1.364-0.225 2.841 0.339 4.13 0.465 1.085 1.25 2.024 2.23 2.68 0.516-0.884 1.079-1.746 1.484-2.688 0.144-0.37 0.287-0.794 0.144-1.187-0.247-0.509-1.059-0.475-1.351-0.026-0.147 0.193-0.136 0.445-0.136 0.673-0.324-0.075-0.656-0.199-0.883-0.454-0.214-0.235-0.279-0.554-0.367-0.848-0.131-0.462-0.276-0.948-0.184-1.432 0.050-0.301 0.278-0.518 0.462-0.744 0.514-0.595 1.050-1.176 1.639-1.698 0.334-0.307 0.762-0.479 1.113-0.763 0.344-0.275 0.697-0.547 1.105-0.723-0.047 0.173-0.099 0.346-0.139 0.522 0.67-0.464 1.438-0.771 2.234-0.939-0.225 0.408-0.54 0.758-0.759 1.169 0.581-0.135 1.12-0.402 1.69-0.571-0.173 0.447-0.379 0.879-0.563 1.322-0.047 0.104-0.061 0.218-0.067 0.332 0.718 0.038 1.437 0.050 2.157 0.078-0.278 0.322-0.571 0.63-0.882 0.922-0.162 0.161-0.342 0.319-0.431 0.533-0.050 0.175 0.144 0.284 0.273 0.35 0.485 0.205 0.999 0.347 1.47 0.586-0.674 0.238-1.35 0.471-2.003 0.762-0.101 1.054-0.488 2.048-0.819 3.045-0.257 0.774-0.269 1.604-0.207 2.409 0.069-0.013 0.136-0.030 0.204-0.050 1.366-0.526 2.506-1.584 3.172-2.883 0.663-1.279 0.867-2.784 0.584-4.195-0.281-1.433-1.070-2.766-2.215-3.677-0.987-0.796-2.243-1.256-3.512-1.266zM19.497 4.641c-0.478 0.384-0.918 0.816-1.362 1.239 0.371 0.161 0.733 0.342 1.102 0.511 0.095-0.582 0.195-1.163 0.26-1.75v0zM6.126 4.642c0.064 0.585 0.165 1.167 0.26 1.748 0.368-0.168 0.731-0.349 1.102-0.511-0.445-0.421-0.884-0.854-1.362-1.237zM9.18 2.784c-0.101 0.858-0.17 1.72-0.246 2.582 0.563-0.149 1.131-0.278 1.704-0.381-0.322-0.523-0.675-1.028-1.008-1.544-0.147-0.222-0.282-0.451-0.45-0.657zM16.443 2.784c-0.159 0.195-0.288 0.41-0.426 0.621-0.341 0.529-0.703 1.044-1.030 1.581 0.573 0.102 1.14 0.233 1.703 0.381-0.076-0.861-0.147-1.724-0.247-2.582zM12.812 1.2c-0.156 0.352-0.261 0.723-0.395 1.083-0.298 0.865-0.615 1.724-0.902 2.592 0.864-0.069 1.73-0.069 2.594 0-0.422-1.228-0.841-2.459-1.297-3.675z"></path>
</svg>
