<!-- Generated by IcoMoon.io -->
<svg version="1.1" xmlns="http://www.w3.org/2000/svg" width="32" height="32" viewBox="0 0 32 32">
<title>j20</title>
<path fill="#444" d="M9.597 6.217c0.647-0.002 1.279 0.136 1.904 0.288 1.009 0.315 1.986 0.766 2.801 1.449 0.698 0.535 1.198 1.271 1.699 1.984 1.035-1.695 2.712-3.052 4.686-3.432l-0.084-0.033c0.984-0.231 2.037-0.396 3.024-0.088 1.284 0.398 2.278 1.472 2.758 2.705 0.571 1.454 0.67 3.097 0.246 4.602l0.007 0.018c-0.505 1.491-1.291 2.994-2.583 3.939-0.234 0.175 0.2 0.175 0.291 0.099 0.498-0.376 0.994-0.759 1.502-1.122 0.631 0.885 0.959 2.017 0.644 3.085-0.541 2.088-2.205 3.638-3.861 4.904-0.743 0.579-1.565 1.042-2.346 1.565 3.937-1.33 7.661-4.051 9.202-8.030 1.052 0.662 2.035 1.593 2.374 2.826 0.383 1.567-0.272 3.273-1.491 4.3-0.441-0.837-1.314-1.571-2.316-1.398-1.136 0.258-1.905 1.21-2.79 1.892-2.587 2.232-5.835 3.74-9.25 4.047-3.465-0.302-6.756-1.849-9.366-4.123-0.853-0.659-1.601-1.575-2.697-1.816-0.972-0.162-1.845 0.52-2.273 1.34-0.056-0.017-0.167-0.049-0.221-0.066-1.028-1.045-1.652-2.563-1.347-4.034 0.292-1.299 1.312-2.281 2.403-2.966 1.401 3.646 4.673 6.208 8.189 7.677 0.348 0.122 0.688 0.267 1.037 0.391-2.058-1.337-4.206-2.729-5.53-4.86-0.739-1.183-1.141-2.753-0.454-4.054 0.144-0.203 0.226-0.579 0.505-0.609 0.537 0.401 1.058 0.827 1.659 1.131-0.995-1.103-1.951-2.301-2.415-3.732-0.545-1.482-0.502-3.146-0.023-4.638 0.416-1.301 1.352-2.488 2.649-2.986 0.333-0.131 0.685-0.206 1.040-0.238 0.142-0.013 0.284-0.011 0.427-0.017zM16.065 19.978l-0.065 0.003c-0.71-0.056-0.845 0.802-1.245 1.207-0.305 0.17-0.639-0.071-0.944-0.122 0.238 2.034 0.984 4.026 2.19 5.685 1.2-1.664 1.95-3.653 2.187-5.687-0.305 0.049-0.637 0.297-0.941 0.122-0.399-0.426-0.504-1.156-1.183-1.208zM9.856 11.658c-1.033 0.092-0.593 0.027-1.324 0.156 0.106 0.137 0.211 0.274 0.319 0.409 0.026 0.576-0.025 1.2 0.296 1.71 0.432 0.789 1.339 1.261 2.232 1.202 0.596-0.021 1.302-0.258 1.735 0.3 0.104-0.905 0.343-1.842 0.092-2.74-0.134-0.515-0.669-0.736-1.141-0.835-0.516-0.097-0.714-0.145-1.32-0.185-0.296-0.020-0.593-0.011-0.889-0.016zM21.947 11.653c-0.7 0.018-0.4 0.001-0.899 0.037-0.735 0.124-1.675 0.096-2.151 0.771-0.418 0.938-0.114 1.999-0.007 2.973 0.477-0.607 1.253-0.271 1.897-0.297 0.915 0.002 1.809-0.56 2.171-1.405 0.309-0.614-0.021-1.392 0.479-1.928-0.489-0.113-0.99-0.13-1.49-0.151zM19.22 2.184c0.747 0.007 1.48 0.144 2.199 0.333 2.859 0.834 5.314 2.988 6.456 5.744 0.774 1.814 1.035 3.8 1.066 5.758-0.069 1.388-0.15 2.8-0.583 4.133-0.427 1.276-1.113 2.459-1.961 3.499 0.512-0.824 1.009-1.7 1.076-2.691 0.14-1.132-0.262-2.26-0.939-3.158 0.782-1.094 1.325-2.382 1.344-3.744 0.134-2.351-0.759-4.965-2.854-6.235-1.010-0.655-2.242-0.789-3.415-0.702-2.134 0.203-4.158 1.233-5.607 2.806-1.451-1.571-3.471-2.605-5.606-2.806-1.174-0.082-2.407 0.040-3.415 0.698-2.192 1.332-3.074 4.115-2.831 6.565 0.059 1.25 0.606 2.412 1.316 3.422-0.678 0.896-1.080 2.027-0.939 3.158 0.076 0.98 0.55 1.86 1.073 2.671-1.332-1.585-2.2-3.562-2.392-5.629-0.302-2.438-0.102-4.967 0.738-7.284 1.037-2.894 3.493-5.216 6.418-6.139 1.684-0.523 3.575-0.588 5.216 0.117 0.14 0.041 0.281 0.089 0.419 0.14 0.14-0.051 0.282-0.096 0.427-0.135 0.682-0.296 1.415-0.46 2.157-0.509 0.212-0.014 0.425-0.010 0.637-0.015z"></path>
</svg>
