<!-- Generated by IcoMoon.io -->
<svg version="1.1" xmlns="http://www.w3.org/2000/svg" width="32" height="32" viewBox="0 0 32 32">
<title>j21-outline</title>
<path fill="#444" d="M23.21 4.314c0.575 0.008 1.012 0.407 1.125 0.957 0.021 0.002 0.003 0.315 0.025 0.315 3.527 0.042 5.731 0.945 7.196 3.769 2.082 4.835-3.364 11.524-11.9 15.201l-0.447 0.186v1.802c0 0.633-0.515 1.142-1.145 1.142l-9.357-0c-0.495-0.009-0.944-0.322-1.093-0.802-0.036-0.16 0.031-0.543-0.031-0.543-2.94-0.022-5.813-0.423-7.148-3.581-2.050-4.849 3.364-11.524 11.9-15.201l0.374-0.158v-1.946c0-0.633 0.515-1.142 1.145-1.142l9.357-0zM18.336 19.849h-1.674l0.002 0.069c-0.021 1.502-0.456 3.147-1.633 4.168-0.189 0.164-0.421 0.334-0.651 0.435l0.009 0.009c-0.385 0.212-0.499 0.273-0.698 0.378-1.681 0.913-3.36 1.287-5.258 1.373v0.264c0 0.15 0.123 0.271 0.274 0.271l9.357-0c0.151 0 0.274-0.121 0.274-0.271l-0-6.695zM24.56 6.37c-0.111-0-0.222 0.004-0.332 0.009l-0.659 0.030c-1.41 0.075-2.916 0.427-4.185 1.063 0.365 0.115 0.702 0.327 0.989 0.576 1.18 1.023 1.607 2.663 1.633 4.167 0 2.646-1.466 4.888-3.475 4.888-0.122-0.008-0.165-0.005-0.195-0.009l-0-0.81v-2.992c0-0.149-0.122-0.271-0.273-0.271l-0-0h-9.357c-0.151 0-0.274 0.121-0.274 0.271l-0 9.344c-0.079 0.080-0.209 0.155-0.369 0.223-0.146 0.061-0.486 0.154-0.486 0.154-1.352 0.255-2.618-0.086-3.376-1.291-0.657-1.094-0.628-2.625 0.022-4.004 0.338-0.717 0.746-0.581 0.658-0.182-0.057 0.256-0.134 0.45-0.153 0.492-0.286 0.635-0.275 2.42 0.22 3.245 0.576 0.925 1.626 1.11 2.628 0.848l-0.015-8.829c0-0.633 0.515-1.142 1.145-1.142l4.002-0v-3.802l-0.029 0.012c-8.152 3.511-13.276 9.804-11.445 14.056 1.095 2.453 3.742 2.946 6.348 2.99l0.85 0.003c1.389-0.029 2.52-0.284 3.805-0.783-1.82-0.775-2.491-2.873-2.523-4.707-0-2.078 1.055-4.803 3.475-4.888v-0l0.187 0.007 0.203 0.028v3.641c0 0.15 0.123 0.271 0.274 0.271l9.357-0c0.151 0 0.274-0.121 0.274-0.271v-9.361c0 0 0.008-0.002 0.020-0.005 0.469-0.155 0.872-0.244 0.872-0.244 0.334-0.083 0.679-0.1 1.021-0.11 1.052 0.027 1.973 0.444 2.474 1.375 0.62 1.152 0.58 2.291 0.044 3.632-0.089 0.223-0.508 0.843-0.724 0.737s-0.029-0.621-0.013-0.684c0.308-1.247 0.442-2.411-0.053-3.237-0.618-0.992-1.702-1.090-2.75-0.816l-0.018 8.713c0 0.633-0.515 1.142-1.145 1.142l-4.002-0v3.949l0.103-0.043c8.152-3.511 13.276-9.804 11.445-14.056-1.135-2.337-3.089-3.197-5.581-3.325v0c-0.205 0.001-0.41-0.002-0.615-0.005zM12.708 15.906c-1.624 0.527-2.163 2.487-2.189 4.013 0 2.255 1.196 4.083 2.671 4.083s2.671-1.828 2.671-4.083l-0.002-0.069h-2.006c-0.63 0-1.145-0.509-1.145-1.142l-0-2.801zM18.7 16.288v0c-0.056 0.004-0.113 0.007-0.169 0.011 0.134-0.004 0.077 0.001 0.169-0.011l-0-0zM18.374 16.29c0.020 0.003 0.013 0.003 0.021 0.003l-0.021-0.003zM18.988 16.236v0c-0.091 0.016-0.181 0.036-0.272 0.050 0.199-0.026 0.108-0.007 0.272-0.050v0zM18.531 8.132c-1.919 0.104-2.643 2.414-2.67 4.019l2.201-0c0.63 0 1.145 0.509 1.145 1.142l-0 2.872c0.27-0.095 0.494-0.274 0.708-0.457 0.945-0.877 1.265-2.251 1.286-3.492 0-2.255-1.196-4.083-2.671-4.083v-0zM23.21 5.185h-9.357c-0.151 0-0.274 0.121-0.274 0.271v6.695h1.478c0.025-1.557 0.561-3.463 2.166-4.484l0.043-0.028c1.939-1.281 3.91-1.884 6.217-2.029v-0.154c0-0.149-0.122-0.271-0.273-0.271l-0-0z"></path>
</svg>
