<!-- Generated by IcoMoon.io -->
<svg version="1.1" xmlns="http://www.w3.org/2000/svg" width="32" height="32" viewBox="0 0 32 32">
<title>j21</title>
<path fill="#444" d="M18.336 19.849l0 6.695c0 0.149-0.122 0.271-0.274 0.271l-9.357 0c-0.151 0-0.274-0.121-0.274-0.271v-0.264c1.898-0.086 3.577-0.46 5.258-1.373 0.2-0.104 0.313-0.166 0.698-0.378l-0.009-0.009c0.23-0.101 0.463-0.271 0.651-0.435 1.178-1.020 1.612-2.665 1.633-4.168l-0.002-0.069h1.674zM24.56 6.37c-0.111-0-0.222 0.004-0.332 0.009l-0.659 0.030c-1.41 0.075-2.916 0.427-4.185 1.063 0.365 0.115 0.702 0.327 0.989 0.576 1.18 1.023 1.607 2.663 1.633 4.167 0 2.646-1.466 4.888-3.475 4.888-0.122-0.008-0.166-0.005-0.195-0.009l-0-0.81v-2.992c0-0.149-0.122-0.271-0.273-0.271l-0-0h-9.357c-0.151 0-0.274 0.121-0.274 0.271v9.344c-0.080 0.080-0.209 0.155-0.369 0.223-0.146 0.061-0.486 0.154-0.486 0.154-1.352 0.255-2.618-0.086-3.376-1.291-0.657-1.094-0.628-2.625 0.022-4.004 0.338-0.717 0.746-0.581 0.658-0.182-0.057 0.256-0.134 0.45-0.153 0.492-0.286 0.635-0.275 2.42 0.22 3.245 0.576 0.925 1.626 1.11 2.628 0.848l-0.015-8.829c0-0.633 0.515-1.142 1.145-1.142l4.002-0v-3.802l-0.029 0.012c-8.152 3.511-13.276 9.804-11.445 14.056 1.095 2.453 3.742 2.946 6.348 2.99l0.85 0.003c1.389-0.029 2.52-0.284 3.805-0.783-1.82-0.775-2.491-2.873-2.523-4.707-0-2.078 1.055-4.803 3.475-4.888v-0l0.187 0.007 0.203 0.028v3.641c0 0.15 0.123 0.271 0.274 0.271l9.357-0c0.151 0 0.274-0.121 0.274-0.271v-9.361c0 0 0.008-0.002 0.020-0.005 0.469-0.155 0.872-0.244 0.872-0.244 0.334-0.083 0.679-0.1 1.021-0.11 1.052 0.027 1.973 0.444 2.474 1.375 0.62 1.152 0.58 2.291 0.044 3.632-0.089 0.223-0.508 0.843-0.724 0.737s-0.029-0.621-0.013-0.684c0.308-1.247 0.442-2.411-0.053-3.237-0.618-0.992-1.702-1.090-2.75-0.816l-0.018 8.713c0 0.633-0.515 1.142-1.145 1.142l-4.002-0v3.949l0.103-0.043c8.152-3.511 13.276-9.804 11.445-14.056-1.135-2.337-3.089-3.197-5.581-3.325v0c-0.205 0.001-0.41-0.002-0.615-0.005v0zM23.21 5.185h-9.357c-0.151 0-0.274 0.121-0.274 0.271v6.695h1.478c0.025-1.557 0.581-3.43 2.080-4.426l0.086-0.058c1.917-1.277 3.953-1.913 6.26-2.057v-0.154c0-0.149-0.122-0.271-0.273-0.271l-0-0z"></path>
</svg>
