<svg xmlns="http://www.w3.org/2000/svg" viewBox="0 0 677 465"><path d="m326.5 317 30 11.5L302 465l-197-76.5 4.5-10.5c75.667 17.333 128.333 18.833 158 4.5 29.667-14.333 49.333-36.167 59-65.5Zm11-256.5L310 132 208 92l-17.5 43c-71.333 23.667-112 52.167-122 85.5-15 50 21 83.5 63.5 90.5l82.5-203.5 193.5 77-32.5 87.5c62.667 9.667 103-25.5 121-105.5 3.333-34-4.667-58.333-24-73 71-8 129.333 8.833 175 50.5C716 206.5 649 299 599 337.5S475 404 340.5 405l28.5-72 102 39.5 15.5-40.5c73-21.667 115.833-58.333 128.5-110-1-38.667-25.5-61-73.5-67L465 356.5l-195-74 31.5-85.5c-6.5-3-39-9-65.5 9-23.008 15.673-43.198 45.69-51.5 92-3.333 35.333 5.833 62.167 27.5 80.5-128.667-6.333-199-48.333-211-126-7.5-124 202.5-206 336.5-192Zm-51 143.5L255 289l58.5 23c-17.333 37.667-41 57-71 58-19.5 0-35-10.5-42-31s-1.736-56.978 6.5-76c16.464-38.026 50.99-67.83 79.5-59ZM438.34 95.954c19.5 0 35 10.5 42 31s1.735 56.978-6.5 76c-16.465 38.026-50.992 67.83-79.5 59l31.5-85-58.5-23c17.332-37.666 41-57 71-58Zm-59.5-95 197 76.5-4.5 10.5c-75.668-17.333-128.334-18.833-158-4.5-29.668 14.334-49.334 36.167-59 65.5l-30-11.5 54.5-136.5Z" fill="#000" fill-rule="evenodd"/></svg>
