<!-- Generated by IcoMoon.io -->
<svg version="1.1" xmlns="http://www.w3.org/2000/svg" width="32" height="32" viewBox="0 0 32 32">
<path fill="#444" d="M17.553 5.149c0.040-0.137 0.203-0.218 0.335-0.159 2.928 1.113 5.854 2.23 8.782 3.344 0.095 0.031 0.192 0.098 0.202 0.205 0.014 0.162-0.076 0.306-0.122 0.456-1.748-0.514-3.597-0.644-5.409-0.495-0.806 0.084-1.64 0.169-2.363 0.566-1.121 0.591-1.904 1.672-2.372 2.827-0.447-0.17-0.894-0.34-1.341-0.511 0.762-2.078 1.524-4.156 2.287-6.234zM11.95 7.905c-1.674 0.231-3.32 0.668-4.887 1.302-1.639 0.671-3.208 1.558-4.516 2.762-0.853 0.79-1.597 1.718-2.077 2.783-0.406 0.9-0.585 1.921-0.394 2.899 0.232 1.068 0.829 2.038 1.629 2.776 0.837 0.778 1.866 1.324 2.938 1.704 1.724 0.604 3.568 0.835 5.389 0.755-0.353-0.249-0.643-0.581-0.847-0.961-0.507-0.943-0.645-2.056-0.505-3.109 0.167-1.1 0.586-2.17 1.263-3.057 0.598-0.781 1.411-1.438 2.374-1.696 0.345-0.078 0.703-0.095 1.055-0.063 0.213 0.025 0.439 0.063 0.616 0.194 0.117 0.081 0.16 0.24 0.108 0.371-0.435 1.19-0.873 2.378-1.309 3.568-0.032 0.080-0.030 0.176 0.019 0.249 0.056 0.090 0.165 0.114 0.257 0.152 2.896 1.102 5.79 2.206 8.686 3.308 0.114 0.051 0.261 0.004 0.319-0.108 0.035-0.071 0.059-0.147 0.086-0.221 1.122-3.060 2.245-6.12 3.367-9.18 0.752 0.046 1.503 0.273 2.121 0.711 0.519 0.365 0.933 0.885 1.143 1.486 0.184 0.492 0.185 1.033 0.086 1.544-0.116 0.588-0.391 1.136-0.752 1.612-0.436 0.576-0.987 1.054-1.579 1.464-1.046 0.718-2.221 1.231-3.432 1.597-0.153 0.41-0.298 0.824-0.456 1.232-0.171 0.409-0.678 0.635-1.094 0.476-1.411-0.535-2.82-1.074-4.23-1.61-0.413 1.124-0.825 2.247-1.237 3.371 1.642 0.132 3.298 0.029 4.917-0.268 2.586-0.437 5.104-1.402 7.233-2.947 0.929-0.678 1.782-1.47 2.465-2.399 0.684-0.932 1.198-2.028 1.279-3.194 0.068-0.883-0.151-1.783-0.612-2.538-0.598-0.991-1.529-1.733-2.527-2.293-0.694-0.381-1.42-0.711-2.183-0.927-0.674-0.2-1.363-0.351-2.061-0.438-0.87-0.111-1.749-0.122-2.625-0.102 0.5 0.389 0.88 0.921 1.102 1.513 0.298 0.776 0.361 1.628 0.253 2.448-0.103 0.778-0.357 1.531-0.713 2.229-0.288 0.565-0.641 1.102-1.085 1.558-0.4 0.412-0.88 0.755-1.421 0.956-0.65 0.245-1.388 0.27-2.045 0.038-0.165-0.066-0.23-0.278-0.158-0.434 0.432-1.175 0.863-2.351 1.295-3.526 0.037-0.086 0.039-0.189-0.014-0.269-0.060-0.098-0.18-0.119-0.278-0.161-2.843-1.082-5.686-2.165-8.528-3.248-0.11-0.041-0.235-0.109-0.351-0.045-0.112 0.052-0.137 0.183-0.178 0.287-0.756 2.062-1.513 4.123-2.27 6.185-0.366 1.008-0.747 2.012-1.104 3.023-0.656-0.026-1.31-0.216-1.878-0.547-0.65-0.378-1.172-0.985-1.408-1.702-0.234-0.671-0.169-1.42 0.093-2.073 0.386-0.954 1.132-1.711 1.945-2.317 1.098-0.803 2.348-1.396 3.656-1.765 0.15-0.404 0.294-0.81 0.447-1.213 0.162-0.418 0.673-0.657 1.096-0.498 1.413 0.535 2.824 1.076 4.237 1.613 0.412-1.124 0.824-2.247 1.237-3.371-1.32-0.109-2.651-0.062-3.962 0.119zM19.798 9.401c-0.545 0.173-1.024 0.51-1.426 0.911-0.511 0.513-0.899 1.139-1.175 1.806 0.71 0.272 1.422 0.538 2.131 0.813 0.426 0.174 0.652 0.704 0.489 1.134-0.4 1.095-0.804 2.188-1.205 3.283 0.421 0.068 0.859 0.033 1.26-0.116 0.608-0.221 1.115-0.657 1.517-1.155 0.694-0.873 1.134-1.939 1.301-3.038 0.112-0.79 0.085-1.628-0.244-2.367-0.25-0.567-0.715-1.044-1.296-1.271-0.433-0.157-0.916-0.14-1.352 0zM11.962 14.844c-0.713 0.33-1.273 0.919-1.7 1.568-0.589 0.915-0.954 1.982-1.008 3.071-0.033 0.723 0.077 1.476 0.454 2.105 0.264 0.445 0.67 0.802 1.143 1.011 0.481 0.191 1.027 0.134 1.501-0.052 0.658-0.26 1.223-0.722 1.659-1.274 0.325-0.426 0.592-0.896 0.797-1.391-0.709-0.272-1.421-0.54-2.129-0.814-0.429-0.172-0.655-0.708-0.486-1.138 0.399-1.093 0.801-2.185 1.201-3.278-0.482-0.085-0.987-0.014-1.431 0.191zM15.397 20.107c-0.481 1.216-1.346 2.326-2.537 2.909-0.567 0.289-1.205 0.369-1.828 0.447-1.084 0.124-2.181 0.125-3.267 0.021-0.849-0.083-1.693-0.233-2.511-0.479-0.047 0.148-0.133 0.291-0.123 0.452 0.008 0.098 0.088 0.17 0.176 0.199 2.929 1.116 5.859 2.231 8.788 3.347 0.14 0.073 0.32-0.012 0.36-0.163 0.761-2.075 1.524-4.149 2.285-6.224-0.448-0.17-0.896-0.34-1.344-0.51z"></path>
</svg>
