<!-- Generated by IcoMoon.io -->
<svg version="1.1" xmlns="http://www.w3.org/2000/svg" width="32" height="32" viewBox="0 0 32 32">
<path fill="#444" d="M13.654 21.733l-5.818 3.231-0.4 0.172-0.417 0.087-0.417 0.004-0.405-0.075-0.384-0.151-0.352-0.224-0.308-0.294-0.249-0.358-4.642-8.357-0.172-0.4-0.087-0.417-0.004-0.417 0.075-0.405 0.151-0.384 0.224-0.352 0.294-0.308 0.358-0.249 4.827-2.681c3.222-2.386-3.219-4.521-3.219-4.521l12.025 0.017 0.433 0.095 0.384 0.151 0.352 0.224 0.308 0.294 0.249 0.358 1.888 3.399 5.818-3.231 0.4-0.172 0.417-0.087 0.417-0.004 0.405 0.075 0.384 0.151 0.352 0.224 0.308 0.294 0.249 0.358 4.642 8.358 0.172 0.4 0.087 0.417 0.004 0.417-0.075 0.405-0.151 0.384-0.224 0.352-0.294 0.308-0.358 0.249-4.588 2.549c-3.269 3.014 2.995 4.634 2.995 4.634l-12.067-0.018-0.405-0.075-0.384-0.151-0.352-0.224-0.308-0.294-0.249-0.358-1.888-3.399zM17.39 19.658l-0.001-0.001c-0.225-0.224-0.416-0.478-0.569-0.759-0.048-0.090-0.092-0.181-0.132-0.274l2.97-1.649c0.439-0.244 0.598-0.799 0.354-1.238l-4.642-8.358c-0.244-0.439-0.799-0.598-1.238-0.354l-12.426 6.902c-0.439 0.244-0.598 0.799-0.354 1.238l4.642 8.358c0.244 0.439 0.799 0.598 1.238 0.354l5.818-3.231-0.773-1.391c-2.449 1.132-5.106 0.464-6.096-1.364-1.041-1.92-0.006-4.68 2.539-6.059s5.422-0.74 6.463 1.18c0.055 0.102 0.087 0.164 0.131 0.27 0 0 0 0.001 0 0.001-0.241 0.144-2.971 1.65-2.971 1.65-0.439 0.244-0.598 0.799-0.354 1.238l4.642 8.357c0.244 0.439 0.799 0.598 1.238 0.354l12.426-6.902c0.439-0.244 0.598-0.799 0.354-1.238l-4.642-8.357c-0.244-0.439-0.799-0.598-1.238-0.354l-5.818 3.231 0.773 1.391c2.449-1.132 5.106-0.464 6.096 1.364 1.041 1.92 0.006 4.68-2.539 6.059-2.17 1.176-4.582 0.884-5.89-0.417z"></path>
</svg>
