<!-- Generated by IcoMoon.io -->
<svg version="1.1" xmlns="http://www.w3.org/2000/svg" width="32" height="32" viewBox="0 0 32 32">
<path fill="#444" d="M13.466 12.563l-2.078 1.154-0.387 0.269-0.318 0.333-0.242 0.381-0.163 0.415-0.081 0.439 0.004 0.451 0.094 0.451 0.186 0.433 0.943 1.698c-2.037 0.909-4.241 0.489-5.062-1.026-0.876-1.617 0.152-3.872 2.295-5.034 1.733-0.939 3.668-0.877 4.808 0.036zM18.534 19.437l2.078-1.154 0.387-0.269 0.318-0.333 0.242-0.381 0.163-0.415 0.081-0.439-0.004-0.451-0.094-0.451-0.186-0.433-0.943-1.698c2.037-0.909 4.241-0.489 5.062 1.026 0.876 1.617-0.152 3.872-2.295 5.034-1.733 0.94-3.668 0.877-4.808-0.036zM12.807 21.076l-6.295 3.496c-0.475 0.264-1.075 0.093-1.34-0.383l-5.023-9.043c-0.264-0.475-0.093-1.075 0.383-1.34l13.444-7.467c0.475-0.264 1.076-0.093 1.34 0.383l5.023 9.043c0.264 0.475 0.092 1.075-0.383 1.34l-3.213 1.785c0.043 0.101 0.090 0.199 0.143 0.296 0.165 0.304 0.373 0.579 0.616 0.822l0.001 0.002c1.416 1.408 4.025 1.724 6.373 0.451 2.753-1.493 3.873-4.479 2.747-6.556-1.072-1.978-3.947-2.7-6.596-1.476l-0.836-1.505 6.295-3.496c0.475-0.264 1.075-0.092 1.34 0.383l5.023 9.043c0.264 0.475 0.092 1.076-0.383 1.34l-13.444 7.468c-0.475 0.264-1.075 0.092-1.34-0.383l-5.023-9.043c-0.264-0.475-0.093-1.076 0.383-1.34 0 0 2.954-1.63 3.214-1.786-0-0-0-0-0-0.001-0.047-0.115-0.082-0.182-0.141-0.292-1.126-2.077-4.239-2.769-6.993-1.277s-3.873 4.479-2.747 6.556c1.072 1.978 3.947 2.7 6.596 1.475l0.836 1.505z"></path>
</svg>
