<!-- Generated by IcoMoon.io -->
<svg version="1.1" xmlns="http://www.w3.org/2000/svg" width="32" height="32" viewBox="0 0 32 32">
<title>jmp</title>
<path fill="#444" d="M5.979 3.853l-0.311 2.649-0.010 0.011-0.175 1.494 0.010-0.011-1.409 12.011 7.252 0.852c-0.025 0.33-0.052 0.66-0.082 0.989l-0.133 1.134c-0.092 0.508-0.191 1.142-0.668 1.444-0.305 0.193-0.677 0.191-1.024 0.169-3.23-0.269-7.451-4.687-6.897-10.276 0.157-1.59 0.715-2.825 1.47-4.202 0.034-0.117 0.028-0.066 0.039-0.173 0-0.2-0.162-0.362-0.362-0.362-0.149 0.004-0.271 0.085-0.329 0.221-1.021 1.978-1.495 4.169-1.523 6.386-0.004 5.577 3.418 10.82 8.567 12.998l-0.214 1.823c-6.154-2.294-10.036-8.355-10.118-14.822-0.001-4.798 2.227-9.307 5.916-12.336zM7.48 0.279l-2.204 18.792 13.165 1.558c0 0 0.622-5.696 0.68-5.731 0.253-0.151 1.042-0.031 1.042-0.031l0.041 0.007c0.071 0.012 0.142 0.026 0.212 0.039 2.765 0.598 4.359 4.074 3.561 7.764s-3.686 6.197-6.451 5.599c-3.087-0.758-4.057-4.322-3.671-7.117l0.99 0.118c-0.348 2.266 0.405 5.268 2.917 5.904 2.226 0.482 4.572-1.63 5.24-4.715s-0.597-5.977-2.823-6.459c-0.075-0.014-0.039-0.007-0.108-0.020l-0.695 5.832-1.062-0.127 0-0.002-6.037-0.72-1.080 9.205 13.183 1.546 2.204-18.792-13.184-1.546-0.7 5.965c-0.082 0.007-0.164 0.018-0.246 0.020-0.321 0.008-0.643-0.014-0.958-0.081-2.765-0.598-4.359-4.074-3.561-7.764 0.67-2.854 2.521-5.518 5.672-5.687 0.607 0.048 0.349 0.010 0.779 0.088 2.969 0.748 4.093 4.189 3.694 6.946l1.5 0.176 1.081-9.22-13.183-1.546zM13.523 4.949c-2.542 0.121-4.080 2.525-4.612 4.784-0.667 3.086 0.597 5.977 2.823 6.459l0.199 0.036 0.703-5.997 4.455 0.523c0.313-2.22-0.507-5.126-2.941-5.736-0.347-0.062-0.138-0.032-0.628-0.068zM26.021 28.364c3.69-3.029 5.917-7.538 5.916-12.336-0.082-6.467-3.964-12.528-10.118-14.822l-0.214 1.824c5.149 2.178 8.571 7.421 8.567 12.998-0.028 2.217-0.503 4.408-1.523 6.386-0.057 0.136-0.18 0.217-0.329 0.221-0.2 0-0.362-0.162-0.362-0.362 0.011-0.108 0.005-0.056 0.039-0.173 0.755-1.377 1.313-2.612 1.47-4.202 0.554-5.589-3.667-10.007-6.897-10.276-0.347-0.022-0.719-0.024-1.024 0.169-0.476 0.302-0.575 0.936-0.668 1.444l-0.133 1.134c-0.029 0.329-0.056 0.659-0.081 0.989l-0 0.001 7.253 0.851-1.409 12.012 0.010-0.011-0.175 1.494-0.010 0.011-0.311 2.649z"></path>
</svg>
