<!-- Generated by IcoMoon.io -->
<svg version="1.1" xmlns="http://www.w3.org/2000/svg" width="27" height="32" viewBox="0 0 27 32">
<title>jou</title>
<path fill="#444" d="M8.949 3.506l0.021 0.035 2.161 3.501v12.686c-2.345-1.022-3.409-2.11-3.807-3.259-0.401-1.155-0.132-2.376 0.191-3.656s0.7-2.619 0.505-4.007c-0.194-1.388-0.962-2.822-2.918-4.29l-0.032-0.025-0.003 0.040c-0.257 3.202-0.841 5.811-2.014 7.334l-2.442-3.45-0.010 0.052c-1.488 7.706 0.052 12.951 3.032 16.135 2.531 2.704 6.099 3.918 9.727 3.892 3.628 0.026 7.196-1.188 9.728-3.892 2.98-3.183 4.521-8.429 3.032-16.135l-0.010-0.052-0.031 0.043-2.411 3.406c-1.173-1.523-1.757-4.131-2.014-7.334l-0.003-0.040-0.032 0.025c-1.956 1.469-2.724 2.903-2.918 4.29s0.183 2.727 0.505 4.006 0.591 2.501 0.191 3.656c-0.399 1.149-1.463 2.237-3.807 3.259v-12.686l2.181-3.536h-8.822z"></path>
</svg>
