<!-- Generated by IcoMoon.io -->
<svg version="1.1" xmlns="http://www.w3.org/2000/svg" width="29" height="32" viewBox="0 0 29 32">
<title>jud</title>
<path fill="#444" d="M24.377 15.119l-3.072 6.232h6.074l-3.002-6.232zM4.692 9.291l-3.071 6.232h6.072l-3-6.232zM19.987 21.093l3.074-5.863c-2.635-0.514-3.879-1.687-4.976-2.568-1.099-0.878-2.272-0.512-2.272-0.512l0.588 7.33h2.709l-1.025 2.494h-1.978v3.372h2.709l1.097 2.64h-11.635l1.244-2.64h2.489v-3.372h-1.758l-1.097-2.64h2.781l0.439-8.431c0 0-1.464-0.437-2.709-0.366-1.242 0.072-3.145-0.22-3.145-0.22l2.706 5.131c0 0 0.164 0.294 0.164 0.881 0 0-1.409 3.005-4.7 3.005s-4.684-2.785-4.684-3.226c0-0.238 0.22-0.66 0.22-0.66l3.368-6.452c0 0-0.514-0.42-0.514-1.062 0-0.005-0.071-1.65 1.61-1.65s1.61 1.613 1.61 1.613 1.536 0.661 2.855 0.292c1.316-0.366 3.585-0.803 3.585-0.803v-1.393l1.39-1.979 1.464 2.050v1.833c0.951 0 3.292 1.393 4.61 3.006 1.316 1.613 2.854 2.2 2.854 2.2s0.585-0.953 1.464-0.953c0.876 0 1.533 0.732 1.533 1.542 0 0.803-0.585 1.244-0.585 1.244l3.44 6.526c0 0 0.146 0.255 0.146 0.658 0 0-1.242 3.080-4.608 3.080s-4.756-2.714-4.756-3.226c0-0.348 0.292-0.881 0.292-0.881z"></path>
</svg>
