<!-- Generated by IcoMoon.io -->
<svg version="1.1" xmlns="http://www.w3.org/2000/svg" width="27" height="32" viewBox="0 0 27 32">
<title>khc-inner</title>
<path fill="#444" d="M7.335 15.529c0.546 2.080 1.699 3.734 3.458 4.961 0.017 0.012 0.022 0.027 0.015 0.047-0.556 1.531-1.488 2.782-2.794 3.752-0.021 0.015-0.031 0.010-0.031-0.016l-0.001-1.532c0-0.018-0.007-0.035-0.019-0.048-2.043-2.071-3.851-4.328-5.117-6.962-0.036-0.076-0.088-0.139-0.154-0.19-0.425-0.324-0.85-0.647-1.274-0.971-0.018-0.013-0.018-0.027 0-0.040 0.427-0.323 0.851-0.647 1.272-0.97 0.066-0.051 0.117-0.114 0.154-0.19 0.857-1.764 1.965-3.424 3.327-4.981 0.766-0.877 1.364-1.537 1.793-1.981 0.012-0.012 0.018-0.029 0.018-0.046l-0.001-1.562c0-0.007 0.006-0.013 0.013-0.013 0.003 0 0.006 0.001 0.008 0.003 1.31 0.975 2.243 2.232 2.799 3.771 0.007 0.019 0.002 0.035-0.014 0.047-0.926 0.68-1.765 1.483-2.382 2.457-0.465 0.734-0.823 1.567-1.075 2.499-0.004 0.014 0.002 0.021 0.016 0.021 0.942-0.003 1.784-0.143 2.525-0.42 1.789-0.668 3.006-2.070 3.731-3.799 0.001-0.003 0.003-0.005 0.005-0.007 0.009-0.009 0.023-0.009 0.032-0 0.002 0.002 0.004 0.005 0.005 0.007 0.699 1.709 1.965 3.163 3.716 3.8 0.759 0.276 1.604 0.416 2.534 0.421 0.015 0 0.020-0.007 0.016-0.022-0.254-0.932-0.637-1.801-1.15-2.608-0.585-0.92-1.426-1.714-2.306-2.352-0.015-0.011-0.020-0.026-0.014-0.044 0.556-1.541 1.491-2.799 2.805-3.773 0.002-0.002 0.005-0.003 0.007-0.003 0.007 0 0.012 0.005 0.012 0.012 0 0 0 0 0 0l-0.001 1.565c0 0.022 0.008 0.041 0.023 0.057 0.784 0.809 1.534 1.647 2.251 2.513 1.131 1.367 2.084 2.849 2.859 4.444 0.036 0.073 0.086 0.134 0.15 0.182 0.43 0.322 0.857 0.646 1.28 0.973 0.017 0.013 0.017 0.027 0 0.040-0.426 0.323-0.849 0.645-1.27 0.967-0.068 0.052-0.121 0.117-0.158 0.195-0.789 1.628-1.774 3.146-2.954 4.554-0.723 0.862-1.443 1.661-2.159 2.396-0.014 0.015-0.022 0.035-0.022 0.055v1.549c-0 0.001-0 0.003-0.001 0.004-0.002 0.007-0.010 0.012-0.017 0.009-0.001-0-0.003-0.001-0.004-0.002-1.313-0.97-2.248-2.224-2.803-3.763-0.008-0.020-0-0.044 0.018-0.056 1.752-1.226 2.903-2.875 3.455-4.948 0.004-0.014-0.001-0.020-0.015-0.020-0.745 0-1.436 0.090-2.073 0.271-1.849 0.525-3.216 1.845-4.002 3.55-0.059 0.129-0.121 0.257-0.186 0.384-0.011 0.023-0.023 0.022-0.034-0.001-0.126-0.269-0.286-0.58-0.482-0.933-1.216-2.197-3.295-3.271-5.773-3.273-0.014 0-0.019 0.007-0.015 0.020z"></path>
</svg>
