<!-- Generated by IcoMoon.io -->
<svg version="1.1" xmlns="http://www.w3.org/2000/svg" width="24" height="32" viewBox="0 0 24 32">
<title>khc</title>
<path fill="#444" d="M6.765 1.571c1.496-0.284 3.020-0.403 4.541-0.441 2.195-0.020 4.408 0.105 6.548 0.623 1.556 0.365 3.075 0.926 4.441 1.762 0.518 0.298 0.988 0.67 1.455 1.040-0.001 1.153-0 2.305-0 3.458-1.175 0.15-2.341 0.396-3.463 0.78-1.171-1.516-2.341-3.033-3.513-4.548-0.628 0.554-1.254 1.11-1.866 1.683-0.325 0.311-0.699 0.593-0.906 1.003-0.248 0.463-0.23 1.035-0.014 1.506 0.193 0.464 0.558 0.821 0.86 1.213 0.511 0.64 1.022 1.28 1.534 1.919-0.205 0.333-0.359 0.695-0.482 1.066-0.287-0.002-0.574-0-0.861-0.001-0.909-1.025-1.82-2.049-2.73-3.075-0.107-0.12-0.228-0.235-0.284-0.39-0.124-0.329-0.147-0.686-0.143-1.034-0.027 0.372-0.035 0.759-0.194 1.104-0.066 0.149-0.189 0.259-0.294 0.379-0.896 1.005-1.794 2.008-2.687 3.016-0.287 0-0.573 0-0.86 0-0.119-0.372-0.283-0.727-0.481-1.064 0.395-0.496 0.793-0.991 1.189-1.487 0.329-0.414 0.677-0.814 0.984-1.246 0.224-0.337 0.384-0.73 0.389-1.139 0.001-0.32-0.091-0.638-0.264-0.907-0.209-0.339-0.531-0.582-0.814-0.855-0.613-0.576-1.244-1.133-1.874-1.692-1.173 1.516-2.344 3.032-3.516 4.548-1.122-0.379-2.286-0.633-3.461-0.778-0-1.154 0-2.308 0-3.461 1.119-0.934 2.411-1.65 3.775-2.159 0.974-0.348 1.969-0.647 2.989-0.822zM0.001 14.435c2.414 2.923 4.828 5.847 7.238 8.774 0.444-0.471 0.886-0.944 1.329-1.415 0.207-0.221 0.449-0.43 0.541-0.729 0.12-0.353-0.029-0.73-0.25-1.008-0.371-0.474-0.788-0.907-1.187-1.357-0.566-0.631-1.127-1.265-1.671-1.915-0.274-0.299-0.359-0.716-0.391-1.108 1.14-0.001 2.28 0 3.42-0.001 0.948 0.986 1.896 1.972 2.846 2.955 0.948-0.986 1.896-1.97 2.844-2.955 1.14 0 2.28 0 3.42 0-0.031 0.352-0.103 0.718-0.312 1.011-0.833 1.007-1.72 1.967-2.58 2.95-0.251 0.284-0.541 0.57-0.626 0.954-0.081 0.315 0.047 0.645 0.257 0.881 0.544 0.579 1.087 1.158 1.631 1.738 2.412-2.926 4.827-5.85 7.238-8.777-2.358-3.049-4.716-6.097-7.076-9.145-0.503 0.443-0.993 0.9-1.488 1.351-0.247 0.231-0.527 0.466-0.618 0.806-0.102 0.391 0.071 0.793 0.31 1.098 0.966 1.221 1.95 2.428 2.918 3.649 0.252 0.328 0.319 0.754 0.345 1.156-1.141 0-2.281 0-3.422 0-0.947-1.069-1.896-2.136-2.844-3.204-0.947 1.070-1.897 2.137-2.846 3.205-1.14-0.001-2.279 0-3.419-0.001 0.012-0.304 0.059-0.611 0.186-0.89 0.103-0.229 0.281-0.41 0.431-0.607 0.808-1.008 1.617-2.016 2.425-3.025 0.222-0.281 0.466-0.569 0.539-0.93 0.082-0.357-0.069-0.734-0.33-0.979-0.59-0.548-1.183-1.093-1.784-1.629-2.358 3.050-4.72 6.096-7.076 9.148zM7.305 17.209c0.657 0.743 1.322 1.48 1.973 2.227 0.338 0.383 0.593 0.87 0.59 1.392 0 0.466-0.233 0.906-0.563 1.226-0.704 0.74-1.4 1.488-2.102 2.23-1.173-1.421-2.346-2.84-3.52-4.259-0.529 0.212-1.059 0.425-1.611 0.571-0.68 0.207-1.372 0.377-2.072 0.504 0.649 1.054 1.4 2.043 2.2 2.986 0.584 0.661 1.201 1.294 1.851 1.89 2.28 2.095 4.978 3.697 7.823 4.896 0.76-0.332 1.522-0.66 2.254-1.051 0.561-0.295 1.118-0.597 1.659-0.926 0.651-0.384 1.271-0.818 1.884-1.26 2.421-1.759 4.496-3.993 6.077-6.534-1.257-0.244-2.5-0.578-3.681-1.075-1.176 1.418-2.348 2.839-3.522 4.26-0.677-0.722-1.355-1.442-2.033-2.162-0.175-0.174-0.34-0.362-0.452-0.584-0.217-0.406-0.233-0.903-0.068-1.329 0.154-0.428 0.469-0.766 0.765-1.1 0.561-0.634 1.125-1.267 1.688-1.9-0.155-0.262-0.298-0.533-0.41-0.816-0.338 0-0.676-0.001-1.014 0-0.941 0.981-1.887 1.958-2.829 2.939-0.248 0.261-0.316 0.636-0.316 0.984-0.020-0.334-0.062-0.699-0.296-0.957-0.95-0.991-1.901-1.98-2.856-2.966-0.337 0-0.675-0-1.012 0-0.114 0.283-0.254 0.554-0.409 0.816z"></path>
</svg>
