<!-- Generated by IcoMoon.io -->
<svg version="1.1" xmlns="http://www.w3.org/2000/svg" width="30" height="32" viewBox="0 0 30 32">
<title>kld</title>
<path fill="#444" d="M3.425 5.706c1.351-1.39 3.153-2.331 5.064-2.642 0.417-0.011 0.834-0.125 1.249-0.027 0.951 0.032 1.888 0.557 2.379 1.378 0.318 0.508 0.358 1.122 0.477 1.694-0.105 0.615-0.139 1.293-0.528 1.812-0.472 0.705-1.098 1.282-1.667 1.903 0.171 0.399 0.327 0.877 0.77 1.051 0.382 0.245 0.826-0.026 1.135-0.265 0.189-0.138 0.44-0.627 0.223-0.587-0.233 0.043-0.321 0.248-0.507 0.329-0.154 0.067-0.271 0.097-0.486-0.008-0.22-0.107-0.271-0.431-0.294-0.679 0.071-0.442 0.42-0.896 0.906-1.073 0.343-0.125 0.59-0.059 0.884 0 0.291 0.058 0.573 0.345 0.76 0.564 0.204 0.244 0.184 0.57 0.175 0.868-0.089 0.964-0.655 1.918-1.569 2.307-0.496 0.259-1.111 0.268-1.611 0.016-0.63-0.226-1.022-0.794-1.494-1.234-0.616 0.677-1.187 1.457-1.376 2.371-0.154 0.919-0.013 1.936 0.587 2.677 0.327 0.389 0.775 0.792 1.322 0.734 0.378 0.060 0.745-0.317 0.695-0.694 0.031-0.335-0.254-0.573-0.513-0.728-0.109 0.283-0.264 0.713-0.629 0.685-0.201-0.066-0.414-0.191-0.492-0.4-0.063-0.477 0.017-0.994 0.317-1.383 0.321-0.407 0.814-0.725 1.351-0.667 0.628 0.007 1.144 0.415 1.575 0.83 0.335 0.345 0.524 0.804 0.644 1.264 0.037 0.372 0.019 0.746 0.016 1.12-0.118 0.955-0.656 1.922-1.577 2.308-0.54 0.286-1.168 0.194-1.754 0.185-1.358-0.253-2.483-1.278-3.058-2.508-0.501-1.037-0.587-2.215-0.502-3.347 0.084-0.391 0.175-0.784 0.157-1.185-0.575-0.314-1.054-0.829-1.259-1.457-0.033-0.416-0.037-0.837 0.002-1.254 0.229-0.642 0.704-1.219 1.335-1.493 0.359-0.009 0.814-0.131 1.076 0.186 0.266 0.215 0.43 0.66 0.168 0.938-0.205 0.272-0.597 0.144-0.821-0.040-0.112 0.155-0.329 0.277-0.309 0.493 0.079 0.345 0.376 0.692 0.76 0.657 0.535-0.118 0.894-0.575 1.312-0.895 0.642-0.716 1.377-1.432 1.626-2.393 0.143-0.656-0.342-1.282-0.943-1.49-0.624-0.269-1.309-0.026-1.913 0.182-2.124 0.895-3.523 3-4.019 5.211-0.13 0.582-0.194 0.963-0.195 1.456-0.026 0.614 0.118 1.199 0.204 1.819 0.183 1.319 0.756 2.583 1.526 3.679 0.824 1.267 2.027 2.225 3.249 3.088 1.154 0.776 2.4 1.432 3.733 1.84 0.456 0.184 0.955 0.176 1.421 0.331 1.054 0.071 2.098 0.2 3.151 0.104 0.375-0.034 0.99-0.137 1.446-0.289 1.776-0.595 3.486-1.391 4.967-2.528 1.13-0.903 2.207-1.926 2.902-3.212 0.585-1.080 1.026-2.255 1.156-3.482 0.174-0.802 0.218-1.643 0.010-2.442-0.231-1.605-0.978-3.162-2.173-4.273-0.605-0.635-1.373-1.11-2.199-1.399-0.401-0.156-0.839-0.117-1.26-0.118-0.83-0.020-1.604 0.974-1.2 1.753 0.262 0.695 0.714 1.302 1.244 1.816 0.374 0.362 0.715 0.768 1.163 1.044 0.282 0.216 0.785 0.248 0.989-0.087 0.219-0.172 0.114-0.464 0.129-0.702-0.268-0.042-0.515 0.059-0.772 0.101-0.202-0.131-0.452-0.311-0.408-0.586-0.036-0.336 0.233-0.611 0.511-0.751 0.289-0.042 0.585-0.038 0.875-0.007 0.855 0.333 1.369 1.239 1.427 2.124-0.027 0.519-0.225 1.031-0.547 1.44-0.199 0.288-0.522 0.447-0.796 0.65-0.097 0.414 0.114 0.819 0.153 1.229 0.026 0.376 0.013 0.754 0.015 1.131 0.011 0.472-0.163 0.919-0.218 1.383-0.337 1.050-0.964 2.042-1.885 2.67-0.436 0.265-0.902 0.504-1.404 0.61-0.396 0.036-0.795 0.025-1.192 0.013-0.99-0.138-1.82-0.925-2.078-1.884-0.107-0.439-0.282-0.883-0.214-1.342 0.142-0.604 0.297-1.255 0.766-1.698 0.466-0.432 1.054-0.834 1.719-0.789 0.52 0.020 0.971 0.364 1.256 0.782 0.26 0.391 0.289 0.885 0.215 1.337-0.166 0.186-0.393 0.366-0.658 0.334-0.254-0.128-0.344-0.431-0.453-0.674-0.156 0.113-0.359 0.193-0.445 0.378-0.143 0.336-0.083 0.789 0.278 0.965 0.377 0.141 0.834 0.070 1.164-0.174 0.794-0.553 1.11-1.543 1.229-2.456-0.085-1.034-0.536-2.044-1.269-2.786-0.105-0.14-0.297-0.11-0.447-0.083-0.361 0.325-0.658 0.742-1.114 0.944-0.274 0.108-0.544 0.269-0.849 0.245-0.665 0.046-1.28-0.313-1.759-0.743-0.467-0.541-0.697-1.24-0.777-1.941 0.057-0.391 0.175-0.833 0.545-1.042 0.319-0.281 0.613-0.272 0.999-0.294 0.419-0.033 0.974 0.38 1.107 0.77 0.057 0.355 0.188 0.835-0.099 1.057-0.153 0.118-0.3 0.118-0.533 0.017-0.169-0.074-0.35-0.347-0.504-0.444-0.002 0.121-0.035 0.493 0.054 0.601 0.285 0.343 0.396 0.389 0.689 0.388 0.362-0.001 0.495 0.072 0.817-0.145 0.307-0.207 0.498-0.614 0.43-1.004-0.623-0.701-1.316-1.361-1.778-2.188-0.164-0.274-0.135-0.601-0.214-0.9-0.096-0.773 0.011-1.592 0.402-2.274 0.45-0.761 1.299-1.231 2.163-1.322 0.676 0.017 1.375-0.088 2.029 0.129 2.483 0.539 4.578 2.246 5.98 4.32 0.632 0.97 1.149 2.023 1.462 3.141 0.061 0.374 0.198 0.73 0.265 1.103 0.092 1.147 0.374 2.303 0.136 3.453 0.007 0.402-0.126 0.785-0.117 1.188-0.185 1.091-0.521 2.152-0.928 3.179-0.509 1.28-1.296 2.422-2.12 3.516-0.819 1.077-1.856 1.958-2.927 2.774-1.882 1.371-3.663 2.28-6.158 2.919-0.367 0.094-0.86 0.167-1.223 0.194-0.717 0.053-1.471 0.025-2.187-0.018-0.454-0.027-0.991-0.072-1.429-0.168-2.918-0.641-5.61-2.124-7.81-4.121-0.773-0.638-1.39-1.442-1.984-2.242-1.074-1.449-1.954-3.088-2.298-4.856-0.101-0.519-0.228-0.984-0.288-1.506-0.035-0.304-0.063-0.412-0.085-0.948-0.032-0.751-0.052-1.521 0.017-2.277 0.030-0.321 0.086-0.992 0.198-1.479 0.492-2.133 1.557-4.143 3.157-5.652z"></path>
</svg>
