<!-- Generated by IcoMoon.io -->
<svg version="1.1" xmlns="http://www.w3.org/2000/svg" width="26" height="32" viewBox="0 0 26 32">
<title>klr</title>
<path fill="#444" d="M8.223 1.197v0c1.693-0.005 2.762 1.003 3.437 2.481 0.363 0.683 0.44 1.439 0.452 2.204-0.064 1.606-0.326 2.346-0.578 3.053-0.232 0.599-0.533 1.177-0.919 1.692-0 0.001-0.001 0.001-0.001 0.002-0.020 0.029-0.040 0.058-0.060 0.087-0.413 0.617-0.962 1.123-1.461 1.667 0.15 0.35 0.287 0.769 0.675 0.921 0.335 0.215 0.724-0.023 0.995-0.233 0.166-0.121 0.385-0.549 0.195-0.515-0.205 0.037-0.281 0.217-0.444 0.288-0.135 0.059-0.238 0.085-0.426-0.007-0.193-0.094-0.237-0.378-0.257-0.595 0.062-0.387 0.368-0.786 0.794-0.941 0.3-0.109 0.517-0.052 0.775 0 0.255 0.051 0.502 0.302 0.666 0.494 0.179 0.213 0.161 0.499 0.154 0.761-0.078 0.845-0.574 1.681-1.375 2.022-0.435 0.227-0.973 0.235-1.412 0.014-0.552-0.198-0.895-0.696-1.309-1.081-0.54 0.593-1.040 1.277-1.206 2.078-0.135 0.805-0.011 1.697 0.515 2.346 0.287 0.341 0.679 0.694 1.158 0.643 0.331 0.053 0.653-0.278 0.609-0.608 0.027-0.294-0.222-0.502-0.449-0.638-0.096 0.248-0.232 0.625-0.551 0.601-0.176-0.058-0.362-0.167-0.431-0.351-0.055-0.418 0.015-0.872 0.278-1.212 0.281-0.357 0.713-0.636 1.184-0.585 0.55 0.006 1.003 0.363 1.38 0.727 0.293 0.303 0.459 0.704 0.564 1.107 0.033 0.326 0.017 0.654 0.014 0.981-0.104 0.837-0.575 1.684-1.382 2.023-0.473 0.251-1.024 0.17-1.537 0.163-1.19-0.221-2.175-1.12-2.68-2.198-0.439-0.909-0.515-1.941-0.44-2.933 0.073-0.343 0.153-0.687 0.138-1.039-0.503-0.275-0.923-0.726-1.103-1.277-0.029-0.365-0.033-0.734 0.002-1.099 0.201-0.562 0.617-1.068 1.17-1.309 0.315-0.008 0.713-0.115 0.943 0.163 0.233 0.189 0.377 0.578 0.147 0.822-0.179 0.238-0.523 0.126-0.719-0.035-0.098 0.136-0.288 0.243-0.271 0.432 0.069 0.302 0.33 0.606 0.666 0.576 0.469-0.104 0.784-0.504 1.149-0.785 0.562-0.628 1.207-1.255 1.425-2.098 0.094-0.492-0.183-0.971-0.614-1.205-0.198-0.072-0.061-0.021-0.408-0.162-0.502-0.127-1.010 0.059-1.481 0.22-1.862 0.785-3.087 2.629-3.522 4.566-0.114 0.51-0.17 0.844-0.171 1.276-0.023 0.539 0.103 1.051 0.178 1.594 0.16 1.156 0.663 2.264 1.337 3.224 0.723 1.11 1.776 1.95 2.847 2.706 1.012 0.68 2.117 1.324 3.285 1.682 0.4 0.161 0.88 0.262 1.315 0.329 0.557 0.086 1.095 0.169 1.552 0.164 0.392-0.004 0.749 0 1.223-0.091 0.37-0.071 0.845-0.148 1.241-0.292 1.552-0.566 2.984-1.27 4.282-2.267 0.99-0.791 1.934-1.688 2.543-2.815 0.513-0.946 0.899-1.976 1.013-3.051 0.153-0.703 0.191-1.439 0.009-2.14-0.202-1.407-0.857-2.771-1.904-3.745-0.53-0.557-1.203-0.973-1.927-1.226-0.351-0.137-0.735-0.103-1.104-0.104l-0.136 0.007c-0.3 0.122-0.153 0.066-0.44 0.169-0.467 0.267-0.709 0.863-0.476 1.36 0.229 0.609 0.625 1.141 1.090 1.592 0.327 0.317 0.626 0.673 1.019 0.915 0.247 0.19 0.687 0.217 0.867-0.076 0.192-0.151 0.1-0.407 0.113-0.615-0.235-0.037-0.452 0.052-0.676 0.088-0.177-0.115-0.396-0.272-0.358-0.514-0.032-0.295 0.204-0.535 0.448-0.658 0.253-0.037 0.513-0.033 0.767-0.006 0.75 0.292 1.2 1.086 1.251 1.862-0.024 0.455-0.198 0.903-0.48 1.262-0.174 0.252-0.457 0.392-0.698 0.57-0.085 0.362 0.1 0.718 0.134 1.077 0.023 0.33 0.011 0.66 0.014 0.991 0.010 0.413-0.143 0.805-0.191 1.212-0.296 0.92-0.844 1.789-1.652 2.34-0.382 0.232-0.79 0.441-1.23 0.535-0.347 0.032-0.697 0.022-1.044 0.011-0.867-0.121-1.595-0.811-1.821-1.651-0.094-0.385-0.247-0.773-0.187-1.176 0.124-0.53 0.26-1.1 0.671-1.488 0.409-0.378 0.924-0.73 1.506-0.691 0.456 0.018 0.851 0.319 1.101 0.685 0.228 0.343 0.253 0.776 0.189 1.172-0.146 0.163-0.344 0.321-0.577 0.293-0.222-0.112-0.301-0.378-0.397-0.59-0.137 0.099-0.315 0.169-0.39 0.331-0.125 0.295-0.073 0.691 0.244 0.845 0.331 0.123 0.731 0.061 1.020-0.152 0.695-0.484 0.973-1.352 1.077-2.152-0.074-0.907-0.47-1.792-1.112-2.442-0.092-0.123-0.261-0.096-0.392-0.072-0.316 0.285-0.577 0.65-0.977 0.828-0.24 0.095-0.477 0.236-0.744 0.215-0.582 0.041-1.122-0.274-1.541-0.651-0.409-0.474-0.611-1.087-0.681-1.701 0.050-0.342 0.154-0.73 0.477-0.913 0.28-0.246 0.537-0.238 0.875-0.258 0.367-0.029 0.854 0.333 0.97 0.675 0.050 0.311 0.165 0.732-0.087 0.926-0.134 0.104-0.263 0.104-0.467 0.015-0.149-0.065-0.307-0.304-0.442-0.389-0.002 0.106-0.031 0.432 0.048 0.526 0.249 0.3 0.347 0.341 0.604 0.34 0.317-0.001 0.433 0.064 0.716-0.127 0.269-0.181 0.437-0.538 0.377-0.88-0.546-0.614-1.153-1.192-1.558-1.917-0.051-0.102-0.037-0.059-0.056-0.124-0.279-0.415-0.494-0.868-0.676-1.332-0.252-0.707-0.514-1.447-0.578-3.053 0.012-0.766 0.089-1.522 0.452-2.204 0.675-1.477 1.744-2.486 3.437-2.481v0-0c1.454 0.029 3.012 0.865 3.108 2.344 0.015 0.235-0.139 0.708-0.342 0.835-0.329 0.205-0.538 0.291-1.374 0.092 0.179-0.179 0.347-0.284 0.361-0.695 0.018-0.529-0.498-1.013-1.027-1.013-0.507 0-1.164 0.11-1.191 1.328 0.032 1.573 1.723 2.356 2.971 2.872l0.023 0.009 0.086 0.035 0.006 0.003c0.024 0.010 0.010 0.004 0.042 0.019 0 0 0 0 0 0s0 0 0 0c1.588 0.705 2.845 1.916 3.836 3.323 0.554 0.85 1.001 1.775 1.281 2.752 0.111 0.387 0.189 0.686 0.236 1.014 0.157 1.098 0.243 1.944 0.153 2.969-0.034 0.385-0.074 0.703-0.141 1.050-0.182 0.953-0.456 1.886-0.813 2.786-0.334 0.853-0.825 1.631-1.349 2.378-0.247 0.443-0.582 0.83-0.923 1.203-0.012 0.014-0.005 0.006-0.021 0.023-1.090 1.179-2.331 2.208-3.606 3.179-0.672 0.517-1.38 0.982-2.095 1.435-0.4 0.276-0.827 0.51-1.254 0.742-0.298 0.153-0.605 0.289-0.918 0.407-0.543 0.222-1.105 0.463-1.698 0.506-0.109 0.008-0.331 0.014-0.437-0.044-0.801-0.175-1.554-0.52-2.301-0.85-3.141-1.396-4.374-2.764-6.302-4.514-0.677-0.559-1.218-1.263-1.739-1.965-0.941-1.27-1.712-2.706-2.014-4.255-0.089-0.454-0.2-0.862-0.253-1.32-0.031-0.266-0.055-0.361-0.075-0.831-0.028-0.658-0.046-1.333 0.015-1.995 0.026-0.281 0.075-0.869 0.174-1.296 0.431-1.869 1.365-3.631 2.767-4.953 0.868-0.878 1.928-1.575 3.102-1.968 1.149-0.501 2.58-1.29 2.605-2.717-0.027-1.219-0.685-1.328-1.191-1.328-0.529 0-1.045 0.484-1.027 1.013 0.014 0.411 0.182 0.516 0.361 0.695-0.836 0.199-1.045 0.113-1.374-0.092-0.203-0.127-0.358-0.6-0.342-0.835 0.14-1.581 1.703-2.267 3.108-2.344h-0z"></path>
</svg>
