<!-- Generated by IcoMoon.io -->
<svg version="1.1" xmlns="http://www.w3.org/2000/svg" width="25" height="32" viewBox="0 0 25 32">
<title>ktk</title>
<path fill="#444" d="M9.056 25.86c0.966-0.747 2.007-1.598 3.068-2.575l0.251-0.238 0.265 0.24c1.054 0.975 2.091 1.826 3.061 2.571-1.567 1.719-2.95 3.088-3.344 3.475-0.39-0.389-1.751-1.758-3.301-3.474zM2.194 13.765c0.529 1.828 1.056 3.551 1.403 4.526 0.283 0.748 0.704 1.574 1.344 2.522 0.825-0.547 1.939-1.318 3.11-2.219-1.704-1.886-4.285-4.985-4.815-5.624l-1.042 0.795zM21.125 18.285c0.352-0.97 0.883-2.705 1.414-4.533l-1.019-0.783c-0.532 0.639-3.121 3.738-4.821 5.624 1.177 0.904 2.296 1.681 3.122 2.22 0.624-0.939 1.030-1.777 1.304-2.528zM12.375 14.748c1.326-1.318 4.394-4.443 5.042-5.103l-1.892-1.55 1.866-1.094c-0.943-0.499-2.066-1.050-3.386-1.572-0.212-0.095-0.366-0.321-0.562-0.622-0.402-0.639-0.855-1.623-1.084-2.14-0.121 0.275-0.886 1.84-1.072 2.14-0.195 0.301-0.345 0.526-0.556 0.621-1.316 0.519-2.439 1.071-3.381 1.565l1.879 1.101-1.9 1.555c0.65 0.66 3.723 3.782 5.047 5.1z"></path>
<path fill="#444" d="M13.052 22.19l0.324 0.296c4.172 3.855 8.158 5.964 8.158 5.964s-0.923-1.456-1.064-3.124c-0.080-0.913 0.169-2.724 0.169-2.724s-2.297-1.357-4.792-3.308c-0.908 0.983-1.858 1.972-2.794 2.897zM22.916 5.905l-0.002 0.020-2.331 2.623-1.915-1.046-1.265 0.741 1.604 1.318c0 0-6.085 6.208-7.475 7.504-3.242 3.061-7.422 5.541-7.422 5.541s0.256 1.802 0.177 2.719c-0.142 1.675-1.068 3.124-1.068 3.124s3.992-2.107 8.163-5.957c3.367-3.090 7.112-7.538 8.771-9.561l1.197-1.448 1.649 1.261 0.443-1.555-1.286-1.411c1.005-1.136 2.281-2.553 2.286-2.553 0.397-0.448 0.376-1.093-0.045-1.456-0.189-0.159-0.413-0.237-0.649-0.239l-0.17 0.012c-0.246 0.043-0.478 0.165-0.66 0.363zM0.356 5.768c-0.424 0.365-0.446 1.011-0.053 1.455 0.012-0.002 1.296 1.428 2.293 2.556l-1.29 1.414 0.447 1.553 1.643-1.267 1.208 1.45c0.951 1.154 2.565 3.087 4.406 5.112 0.644-0.516 2.416-2.132 2.715-2.431-1.352-1.326-5.979-6.047-5.979-6.047l-0.005 0.001 1.615-1.317-1.275-0.744-1.922 1.044-2.318-2.627-0.005 0.001-0.002-0.012c-0.223-0.244-0.536-0.374-0.833-0.378l-0.171 0.011c-0.168 0.030-0.333 0.108-0.473 0.227z"></path>
</svg>
