<!-- Generated by IcoMoon.io -->
<svg version="1.1" xmlns="http://www.w3.org/2000/svg" width="28" height="32" viewBox="0 0 28 32">
<title>lcc</title>
<path fill="#444" d="M9.713 23.637c0.318 0.218 0.77 0.368 0.77 0.368l2.83 5.979c-2.557-0.156-4.795-0.843-6.716-2.060l3.115-4.287zM18.020 23.637l3.115 4.287c-1.92 1.217-4.159 1.904-6.716 2.060l2.83-5.979c0 0 0.452-0.151 0.77-0.368zM13.867 2.267l0 0.001 2.947 6.179c2.244 0.971 3.763 2.506 4.555 4.605l6.113 2.947-6.113 2.947c-0.793 2.099-2.311 3.634-4.555 4.605l-2.948 6.179-2.947-6.179c-2.244-0.971-3.763-2.506-4.555-4.605l-6.113-2.947 6.113-2.947c0.793-2.099 2.311-3.634 4.555-4.605l2.947-6.18zM13.867 4.26l-2.294 4.873c-2.188 0.815-3.684 2.328-4.488 4.538l-4.806 2.328 4.806 2.328c0.804 2.211 2.3 3.723 4.488 4.538l2.294 4.873 2.294-4.873c2.188-0.815 3.684-2.328 4.488-4.538l4.806-2.328-4.806-2.328c-0.804-2.211-2.3-3.723-4.488-4.538l-2.294-4.873zM6.665 20.89c0.558 0.882 1.34 1.669 2.345 2.361l-1.708 2.378c-1.183-0.826-2.177-1.831-2.981-3.015l2.345-1.725zM21.068 20.89l2.345 1.725c-0.804 1.183-1.798 2.188-2.981 3.014l-1.708-2.378c1.005-0.692 1.786-1.479 2.345-2.361zM0 16.536l5.928 2.864c0.113 0.389 0.352 0.762 0.368 0.786l0.001 0.001-4.254 3.148c-1.273-2.121-1.954-4.388-2.043-6.799zM27.733 16.536c-0.089 2.412-0.77 4.678-2.043 6.799l-4.253-3.15c0.016-0.024 0.254-0.397 0.368-0.786l5.928-2.864zM13.867 10.608c2.978 0 5.392 2.414 5.392 5.392s-2.414 5.392-5.392 5.392c-2.978 0-5.392-2.414-5.392-5.392s2.414-5.392 5.392-5.392zM13.867 12.688c-1.829 0-3.312 1.483-3.312 3.312s1.483 3.312 3.312 3.312c1.829 0 3.312-1.483 3.312-3.312s-1.483-3.312-3.312-3.312zM13.867 13.233c1.528 0 2.767 1.239 2.767 2.767s-1.239 2.767-2.767 2.767c-1.528 0-2.767-1.239-2.767-2.767s1.239-2.767 2.767-2.767zM13.867 13.806c-1.212 0-2.194 0.982-2.194 2.194s0.982 2.194 2.194 2.194c1.212 0 2.194-0.982 2.194-2.194s-0.982-2.194-2.194-2.194zM2.043 8.665l4.253 3.15c-0.016 0.024-0.254 0.397-0.368 0.786l-5.928 2.864c0.089-2.412 0.77-4.678 2.043-6.799zM25.69 8.665c1.273 2.121 1.954 4.388 2.043 6.799l-5.928-2.864c-0.113-0.389-0.352-0.762-0.368-0.786l-0.001-0.001 4.254-3.148zM7.302 6.37l1.708 2.378c-1.005 0.692-1.786 1.479-2.345 2.361l-2.345-1.725c0.804-1.183 1.798-2.188 2.981-3.014zM20.432 6.37c1.183 0.826 2.177 1.831 2.981 3.015l-2.345 1.725c-0.558-0.882-1.34-1.669-2.345-2.361l1.708-2.378zM13.314 2.016l-2.83 5.979c0 0-0.452 0.151-0.77 0.368l-3.115-4.287c1.92-1.217 4.159-1.904 6.716-2.060zM14.419 2.016c2.557 0.156 4.795 0.843 6.716 2.060l-3.115 4.287c-0.318-0.218-0.77-0.368-0.77-0.368l-2.83-5.979z"></path>
</svg>
