<!-- Generated by IcoMoon.io -->
<svg version="1.1" xmlns="http://www.w3.org/2000/svg" width="32" height="32" viewBox="0 0 32 32">
<title>lci</title>
<path fill="#444" d="M16 4.573l2.837 3.716v0.467c0.312 0.111 0.597 0.237 0.857 0.378l1.335-1.346c1.35 0.853 2.441 1.932 3.271 3.238l-1.357 1.357c0.156 0.26 0.297 0.571 0.423 0.935l8.633 2.682-8.633 2.681c-0.126 0.363-0.267 0.675-0.423 0.935l1.357 1.357c-0.831 1.306-1.921 2.385-3.271 3.238l-1.335-1.346c-0.26 0.141-0.545 0.267-0.857 0.378v0.467l-2.837 3.716-2.837-3.716v-0.467c-0.312-0.111-0.597-0.237-0.857-0.378l-1.335 1.346c-1.35-0.853-2.44-1.932-3.271-3.238l1.357-1.357c-0.156-0.26-0.297-0.571-0.423-0.935l-8.634-2.681 8.634-2.681c0.126-0.363 0.267-0.675 0.423-0.935l-1.357-1.357c0.831-1.306 1.921-2.385 3.271-3.238l1.335 1.346c0.26-0.141 0.545-0.267 0.857-0.378v-0.467l2.837-3.716zM16 5.374l-0 0-2.359 3.104v0.612c-0.497 0.156-0.968 0.375-1.413 0.656l-0.001-0.001-1.334-1.312c-0.972 0.638-1.825 1.487-2.559 2.548l0.001 0.001 1.323 1.312c-0.274 0.43-0.49 0.909-0.645 1.435l-7.399 2.27 7.399 2.27c0.156 0.527 0.371 1.005 0.645 1.435l-1.324 1.313c0.734 1.061 1.587 1.91 2.559 2.548l1.335-1.313c0.445 0.282 0.916 0.501 1.413 0.656v0.612l2.359 3.104 2.359-3.104v-0.612c0.497-0.156 0.968-0.375 1.413-0.656l0.001 0.001 1.334 1.312c0.972-0.638 1.825-1.487 2.559-2.548l-0.001-0.001-1.323-1.312c0.274-0.43 0.49-0.909 0.645-1.435l7.399-2.27-7.399-2.27c-0.156-0.527-0.371-1.005-0.645-1.435l1.324-1.313c-0.734-1.061-1.587-1.91-2.559-2.548l-1.335 1.313c-0.445-0.282-0.916-0.501-1.413-0.656v-0.612l-2.359-3.104zM17.847 23.054v0.323l-1.847 2.426-1.847-2.426v-0.323c0.482 0.156 1.098 0.234 1.847 0.234s1.365-0.078 1.847-0.234zM11.193 18.681c0.49 0.868 1.172 1.554 2.047 2.058l-2.381 2.37c-0.771-0.541-1.458-1.224-2.058-2.047l2.392-2.381zM20.807 18.681l2.392 2.381c-0.601 0.823-1.287 1.506-2.058 2.047l-2.381-2.37c0.875-0.504 1.558-1.191 2.047-2.058zM18.47 20.918l0.968 0.968c-0.947 0.573-2.080 0.877-3.398 0.911l-0.040 0.001-0.040-0.001c-1.318-0.035-2.451-0.339-3.398-0.911l0.968-0.968c0.712 0.393 1.535 0.59 2.47 0.59s1.758-0.197 2.47-0.59zM20.773 16.412c-0.167 1.369-0.59 2.437-1.78 3.427-0.794 0.66-1.791 1.013-2.993 1.057v-1.892c1.58 0 3.171-0.864 4.773-2.593zM11.227 16.412c1.602 1.728 3.193 2.593 4.773 2.593v1.892c-1.202-0.044-2.199-0.397-2.993-1.057-1.191-0.99-1.613-2.058-1.78-3.427zM10.036 12.629l0.979 0.968c0 0-0.567 0.924-0.567 2.403l0 0.044c0.011 1.454 0.567 2.359 0.567 2.359l-0.001 0.001-0.002 0.002-0.002 0.002-0.974 0.963c-0.957-1.624-0.901-3.371-0.901-3.371s-0.056-1.747 0.901-3.371zM21.964 12.629c0.957 1.624 0.901 3.371 0.901 3.371 0 0.001 0.055 1.748-0.901 3.371l-0.979-0.968c-0-0 0.567-0.924 0.567-2.403v-0l-0-0.044c-0.011-1.454-0.567-2.359-0.567-2.359l0.001-0.001 0.002-0.002 0.002-0.002 0.974-0.963zM16 13.618c1.316 0 2.382 1.067 2.382 2.382s-1.067 2.382-2.382 2.382c-1.316 0-2.382-1.067-2.382-2.382s1.067-2.382 2.382-2.382zM8.857 14.287c-0.134 0.512-0.2 1.083-0.2 1.713l0 0.034c0.002 0.617 0.069 1.177 0.2 1.679l-5.519-1.713 5.519-1.713zM23.143 14.287l5.519 1.713-5.519 1.713c0.134-0.512 0.2-1.083 0.2-1.713s-0.067-1.202-0.2-1.713zM16 14.487c-0.836 0-1.513 0.678-1.513 1.513s0.678 1.513 1.513 1.513c0.836 0 1.513-0.678 1.513-1.513s-0.678-1.513-1.513-1.513zM16 14.679c0.73 0 1.321 0.592 1.321 1.321s-0.592 1.321-1.321 1.321c-0.73 0-1.321-0.592-1.321-1.321s0.592-1.321 1.321-1.321zM16 15.033c-0.534 0-0.967 0.433-0.967 0.967s0.433 0.967 0.967 0.967c0.534 0 0.967-0.433 0.967-0.967s-0.433-0.967-0.967-0.967zM16 11.104c1.202 0.044 2.199 0.397 2.993 1.057 1.191 0.99 1.613 2.058 1.78 3.427-1.602-1.728-3.193-2.592-4.773-2.592v-1.892zM16 11.104v1.892c-1.58 0-3.171 0.864-4.773 2.592 0.167-1.369 0.59-2.437 1.78-3.427 0.794-0.66 1.791-1.013 2.993-1.057zM21.14 8.89c0.771 0.541 1.458 1.224 2.058 2.047l-2.392 2.381c-0.49-0.868-1.172-1.554-2.047-2.058l2.381-2.37zM10.86 8.89l2.381 2.37c-0.875 0.504-1.558 1.191-2.047 2.058l-2.392-2.381c0.601-0.823 1.287-1.506 2.058-2.047zM16 9.202l0.040 0.001c1.318 0.035 2.451 0.339 3.398 0.911l-0.968 0.968c-0.712-0.393-1.535-0.59-2.47-0.59s-1.758 0.197-2.47 0.59l-0.968-0.968c0.947-0.573 2.080-0.877 3.398-0.911l0.040-0.001zM16 6.198l1.847 2.426v0.323c-0.482-0.156-1.098-0.234-1.847-0.234s-1.365 0.078-1.847 0.234v-0.323l1.847-2.426z"></path>
</svg>
