<!-- Generated by IcoMoon.io -->
<svg version="1.1" xmlns="http://www.w3.org/2000/svg" width="32" height="32" viewBox="0 0 32 32">
<title>lea</title>
<path fill="#444" d="M22.85 2.598c0 0 1.688 0.183 1.688 1.929l6.266 1.746c0 0 1.565 0.604 1.082 2.652l-5.179 19.335c0 0-1.085 1.447-2.349 1.084l-8.356-2.298-8.358 2.298c-1.264 0.363-2.349-1.084-2.349-1.084l-5.182-19.335c-0.48-2.049 1.085-2.652 1.085-2.652l6.266-1.746c0-1.746 1.686-1.929 1.686-1.929h13.7zM22.795 3.322h-13.592c-0.077 0.014-0.32 0.068-0.546 0.22-0.323 0.214-0.472 0.526-0.472 0.984v0.549c0 0-6.647 1.855-6.744 1.88-0.175 0.080-0.696 0.395-0.696 1.227 0 0.169 0.023 0.358 0.072 0.573 0.009 0.032 5.053 18.859 5.136 19.162 0.22 0.252 0.875 0.907 1.494 0.733l8.555-2.355 8.553 2.355c0.618 0.174 1.271-0.48 1.494-0.733 0.084-0.303 5.128-19.131 5.136-19.162 0.048-0.215 0.072-0.404 0.072-0.573 0-0.832-0.524-1.147-0.696-1.227-0.097-0.026-6.747-1.88-6.747-1.88v-0.549c0-0.458-0.149-0.77-0.469-0.984-0.226-0.152-0.47-0.207-0.549-0.22v0zM8.042 6.072v18.593c0 0 0.158 1.208 1.124 1.208h5.219l-6.987 1.926c0 0-0.401 0.2-0.604-0.24l-5.139-19.077c0 0-0.203-0.601 0.281-0.761l6.106-1.648zM23.963 6.032l6.1 1.648c0.483 0.16 0.283 0.761 0.283 0.761l-5.142 19.077c-0.198 0.441-0.601 0.24-0.601 0.24l-6.987-1.929h5.221c0.962 0 1.125-1.204 1.125-1.204v-18.593zM22.738 4.226c0.281 0 0.32 0.36 0.32 0.36v19.998c0 0.321-0.32 0.401-0.32 0.401h-13.452c-0.283 0-0.283-0.401-0.283-0.401v-19.998c0-0.24 0.283-0.36 0.283-0.36h13.452zM19.361 8.427c-0.18 0-0.734 0.054-1.662 0.163s-1.746 0.163-2.457 0.163c-0.47 0-1.228-0.027-2.276-0.081s-2.053-0.111-3.017-0.171c0 0.409 0.855 0.656 2.565 0.74 0.349 0.132 0.698 0.259 1.048 0.379l-1.771 6.593c0-0.012 0.009-0.066 0.027-0.162l0.006-0.029 0.022-0.079c-0-0.002 0.002-0.005-0-0.006-0.003-0.001-0.006 0.013-0.010 0.032-0.005 0.024-0.008 0.035-0.011 0.054-0.24 0.879-0.476 1.759-0.71 2.64-0.319 1.198-0.536 1.84-0.65 1.924s-0.232 0.127-0.352 0.127c-0.108-0.024-0.196-0.042-0.262-0.054s-0.099 0.012-0.099 0.072c0 0.072 0.018 0.247 0.054 0.524l3.45-0.235c0-0.072 0-0.169 0-0.289s-0.060-0.199-0.181-0.235c-0.277 0.024-0.554 0.049-0.831 0.073-0.241 0-0.374-0.093-0.398-0.28s-0.036-0.364-0.036-0.533c0-0.578 0.084-1.216 0.253-1.915s0.337-1.343 0.505-1.933c0.133-0.168 1.024-0.37 2.674-0.605s2.529-0.328 2.637-0.28c0.108 0.048 0.244 0.617 0.407 1.707s0.322 2.171 0.479 3.242c-0.096 0.169-0.376 0.304-0.84 0.407s-0.695 0.214-0.695 0.334c-0 0.084 0.060 0.187 0.18 0.307 0.024 0.024 0.148 0.006 0.37-0.054s0.695-0.090 1.418-0.090c0.783 0 1.355 0.027 1.716 0.081s0.602 0.081 0.723 0.081c0.132 0 0.319-0.024 0.56-0.073 0.048-0.421-0.127-0.632-0.524-0.632s-0.69-0.063-0.876-0.19c-0.187-0.127-0.4-0.804-0.641-2.032s-0.415-2.24-0.524-3.035c-0.085-0.193-0.265-1.021-0.542-2.484s-0.415-2.466-0.415-3.008c0-0.169 0.009-0.292 0.027-0.37s0.22-0.145 0.605-0.199 0.662-0.142 0.831-0.262c-0.072-0.217-0.331-0.325-0.777-0.325zM16.434 9.331c0.12 0 0.211 0.027 0.271 0.081s0.253 0.681 0.578 1.879 0.488 2.098 0.488 2.7c-0.638 0.072-1.346 0.136-2.123 0.19s-1.46 0.081-2.050 0.081c-0.349 0-0.542-0.018-0.578-0.055-0.012-0.012 0.123-0.554 0.406-1.626s0.569-2.144 0.858-3.216c0.289-0.012 0.596-0.021 0.921-0.027s0.626-0.009 0.903-0.009c0.096 0 0.205 0 0.325 0z"></path>
</svg>
