<!-- Generated by IcoMoon.io -->
<svg version="1.1" xmlns="http://www.w3.org/2000/svg" width="32" height="32" viewBox="0 0 32 32">
<title>leb</title>
<path fill="#444" d="M22.849 2.601c0 0 1.688 0.18 1.688 1.926l6.263 1.748c0 0 1.564 0.601 1.084 2.649l-5.178 19.335c0 0-1.085 1.441-2.349 1.081l-8.354-2.298-8.358 2.298c-1.264 0.36-2.349-1.081-2.349-1.081l-5.181-19.335c-0.48-2.049 1.085-2.649 1.085-2.649l6.265-1.748c0-1.745 1.685-1.926 1.685-1.926h13.699zM22.795 3.323h-13.59c-0.077 0.014-0.32 0.068-0.546 0.22-0.323 0.214-0.472 0.526-0.472 0.984v0.549c0 0-6.647 1.855-6.744 1.88-0.175 0.083-0.696 0.395-0.696 1.227 0 0.169 0.023 0.358 0.072 0.573 0.009 0.034 5.053 18.857 5.133 19.16 0.223 0.252 0.878 0.907 1.496 0.732l8.552-2.355 8.557 2.355c0.615 0.174 1.268-0.48 1.491-0.732 0.084-0.303 5.125-19.126 5.136-19.16 0.049-0.215 0.072-0.404 0.072-0.573 0-0.832-0.524-1.144-0.695-1.227-0.097-0.026-6.746-1.88-6.746-1.88v-0.549c0-0.458-0.149-0.77-0.47-0.984-0.229-0.152-0.47-0.207-0.549-0.22v0zM8.043 6.075v18.588c0 0 0.158 1.208 1.122 1.208h5.222l-6.987 1.926c0 0-0.403 0.2-0.604-0.243l-5.138-19.069c0 0-0.201-0.604 0.28-0.764l6.106-1.645zM23.96 6.032l6.103 1.648c0.483 0.16 0.283 0.761 0.283 0.761l-5.142 19.075c-0.2 0.441-0.601 0.24-0.601 0.24l-6.987-1.926h5.219c0.964 0 1.124-1.207 1.124-1.207v-18.591zM22.738 4.226c0.28 0 0.32 0.36 0.32 0.36v19.999c0 0.318-0.32 0.398-0.32 0.398h-13.45c-0.283 0-0.283-0.398-0.283-0.398v-19.999c0-0.24 0.283-0.36 0.283-0.36h13.45zM17.73 8.394c-0.28 0-0.52 0.023-0.718 0.070v0c-0.968 0.222-1.741 0.499-2.319 0.832s-1.246 0.499-2.004 0.499c-0.327 0-0.677-0.041-1.050-0.123s-0.741-0.163-1.103-0.245c-0.117 0-0.213 0.050-0.289 0.149s-0.114 0.19-0.114 0.271c0 0.129 0.382 0.245 1.146 0.35s1.196 0.405 1.295 0.901c0.099 0.496 0.19 1.444 0.271 2.844s0.123 2.649 0.123 3.745c0 0.514-0.012 0.925-0.035 1.234s-0.058 0.481-0.105 0.516l-2.048 0.577c-0.070 0.058-0.105 0.111-0.105 0.158 0 0.070 0.018 0.131 0.053 0.184s0.076 0.096 0.123 0.131l1.593-0.28 0.613-0.035c0.502 0 1.053 0.079 1.654 0.236s1.106 0.274 1.514 0.35 0.864 0.114 1.365 0.114c0.397 0 0.793-0.035 1.19-0.105s0.863-0.21 1.4-0.42c0.537-0.21 0.919-0.581 1.146-1.111s0.341-1.117 0.341-1.759c0-0.688-0.277-1.377-0.831-2.065s-1.263-1.114-2.127-1.278c0.163-0.116 0.583-0.408 1.26-0.875 0.572-0.525 0.858-1.161 0.858-1.908 0-0.163-0.041-0.499-0.123-1.006s-0.417-0.96-1.007-1.356c-0.589-0.397-1.246-0.595-1.969-0.595zM16.487 9.427c0.653 0 1.187 0.207 1.602 0.621s0.622 0.925 0.622 1.531v0.297c0 0.677-0.257 1.188-0.77 1.532s-1.068 0.569-1.663 0.674c0.852 0.374 1.709 0.747 2.573 1.12 0.7 0.432 1.050 1.015 1.050 1.75 0 0.817-0.096 1.467-0.289 1.951s-0.502 0.831-0.927 1.041c-0.426 0.21-1.018 0.315-1.777 0.315-0.432 0-0.823-0.047-1.173-0.14s-0.607-0.242-0.77-0.446c-0.163-0.204-0.268-0.435-0.315-0.691s-0.070-0.642-0.070-1.155c0.012-0.502 0.024-1.030 0.035-1.584s0.018-1.257 0.018-2.109c0-0.198-0.006-0.508-0.018-0.928s-0.018-0.735-0.018-0.945c0-0.84 0.096-1.496 0.289-1.969s0.592-0.75 1.199-0.832l0.402-0.035z"></path>
</svg>
