<!-- Generated by IcoMoon.io -->
<svg version="1.1" xmlns="http://www.w3.org/2000/svg" width="28" height="32" viewBox="0 0 28 32">
<title>leg</title>
<path fill="#444" d="M23.757 9.363h-3.381c-0.12-0.26-0.205-0.449-0.205-0.449h-12.342c0 0-0.091 0.197-0.205 0.449h-3.379l-0.602-0.755 1.191-1.22h18.331l1.191 1.22-0.599 0.755zM20.955 11.732l1.002 1.056h-15.913l0.999-1.056h13.912zM18.479 21.357v-4.422l0.501-0.67h1.518l0.501 0.67 0.003 2.818-2.522 1.604zM12.736 24.344v-7.409l0.501-0.67h1.518l0.501 0.67 0.003 5.514-2.522 1.895zM6.996 27.331v-10.396l0.501-0.67h1.515l0.504 0.67 0.003 8.499-2.522 1.897zM-0.013 4.061l1.565 3.618 1.642 1.162 0.745 0.97h3.48l-0.755 1.666-0.983 1.041-1.033 2.722v13.232h1.131l1.456-0.757 2.434-1.83h1.088l2.221-1.157 2.431-1.827h1.077l2.234-1.165 2.411-1.534h0.543l1.679-0.874v-4.085l-1.030-2.722-0.986-1.041-0.755-1.669h3.456l0.769-0.97 1.642-1.158 1.565-3.622h-28.026z"></path>
</svg>
