<!-- Generated by IcoMoon.io -->
<svg version="1.1" xmlns="http://www.w3.org/2000/svg" width="32" height="32" viewBox="0 0 32 32">
<title>lgn</title>
<path fill="#444" d="M15.996 22.223c-2.304-1.266-4.291-3.163-4.291-3.163l-4.745 1.58-0.586-1.671 4.564-1.718c-0.046-0.586-0.091-1.806-0.091-1.806l-3.887-1.492c-0.812 1.264-2.441 0.091-2.441 0.091l-4.472-3.391c0 0 4.564 0.137 5.964 0.272s1.311 1.354 1.311 1.354l3.526 1.31-0.047-4.88c0 0 1.538 2.397 2.667 2.397s2.53-2.397 2.53-2.397h0.005c0 0 1.401 2.397 2.532 2.397 1.128 0 2.667-2.397 2.667-2.397l-0.046 4.88 3.523-1.31c0 0-0.088-1.22 1.313-1.354s5.964-0.272 5.964-0.272l-4.473 3.391c0 0-1.629 1.173-2.441-0.091l-3.887 1.492c0 0-0.044 1.22-0.091 1.806l4.564 1.718-0.586 1.671-4.745-1.58c0 0-1.988 1.897-4.294 3.163h-0.005z"></path>
</svg>
