<!-- Generated by IcoMoon.io -->
<svg version="1.1" xmlns="http://www.w3.org/2000/svg" width="21" height="32" viewBox="0 0 21 32">
<title>lrw</title>
<path fill="#444" d="M16.39 15.039c0 0 2.79 1.113 2.97 4.417 0 0-2.713-1.052-3.148-0.266 0 0 1.499 1.606 0.845 6.414 0 0-1.362-1.196-4.86-1.196-2.016 0-4.209 0.584-6.35 1.654-1.927 0.967-3.38 2.037-4.361 3.218-0.802 0.96-1.16 1.162-1.373 0.764-0.061-0.113-0.11-0.655-0.11-1.202 0-0.997 0-0.997 0.404-1.508 0.722-0.911 2.138-2.089 3.441-2.856 0.404-0.239 1.447-0.701 2.315-1.025 2.735-1.027 4.111-1.78 5.445-2.988 1.832-1.658 3.126-4.267 3.652-7.36 0.217-1.287 0.425-4.664 0.278-4.527-0.043 0.040-0.303 0.59-0.572 1.221-0.982 2.272-2.221 4.215-3.637 5.692-1.38 1.447-2.514 2.080-4.377 2.447-1.052 0.211-2.218 0.847-3.135 1.716-1.266 1.205-2.128 2.651-2.799 4.698l-0.352 1.077-0.071-0.459c-0.040-0.254-0.101-1.102-0.135-1.882-0.146-3.211 0.597-6.040 2.113-8.060 0.875-1.159 1.799-1.881 3.692-2.881 4.698-2.487 8.36-6.16 9.17-9.204 0.080-0.3 0.147-0.67 0.147-0.823 0.003-0.281 0.199-0.443 0.388-0.315 0.159 0.106 1.441 2.196 1.847 3.015 0.829 1.664 1.532 3.845 1.884 5.842 0.187 1.049 0.325 3.307 0.291 4.527 0 0-1.716-1.159-3.603-0.153z"></path>
</svg>
