<!-- Generated by IcoMoon.io -->
<svg version="1.1" xmlns="http://www.w3.org/2000/svg" width="26" height="32" viewBox="0 0 26 32">
<path fill="#444" d="M3.526 1.634c0.941 0.522 1.915 0.99 2.928 1.357 0.86 0.305 1.755 0.561 2.674 0.567 2.639-0.001 5.278-0.002 7.916 0.001 0.733 0.006 1.456-0.156 2.153-0.37 1.226-0.385 2.396-0.935 3.519-1.557 0.202 0.178 0.356 0.401 0.513 0.617 0.713 1.014 1.346 2.082 1.983 3.145 0.063 0.103 0.122 0.21 0.15 0.328 0.426 1.619 0.694 3.279 0.818 4.947 0.007 0.3 0.049 0.598 0.042 0.898-0.007 0.183 0.016 0.366 0.018 0.55-0.335-0.297-0.707-0.578-1.151-0.684-0.558-0.138-1.206-0.016-1.615 0.406-0.287 0.291-0.418 0.701-0.44 1.102-0.039 0.717 0.212 1.434 0.647 2.001 0.579 0.764 1.404 1.305 2.272 1.688-0.506 1.537-1.314 2.962-2.266 4.265-0.188 0.246-0.365 0.502-0.581 0.725-0.169-0.273-0.359-0.539-0.611-0.743-0.351-0.285-0.786-0.452-1.228-0.53-0.662-0.116-1.363 0.061-1.906 0.453-0.768 0.549-1.181 1.579-0.942 2.501 0.157 0.631 0.605 1.168 1.168 1.482 0.545 0.283 1.147 0.454 1.759 0.505-0.624 0.707-1.383 1.278-2.154 1.815-1.721 1.171-3.581 2.12-5.465 2.998-0.184 0.083-0.365 0.172-0.551 0.25-0.045 0.028-0.094 0.009-0.138-0.011-1.203-0.544-2.391-1.123-3.551-1.756-1.008-0.553-1.996-1.146-2.924-1.825-0.595-0.443-1.18-0.911-1.669-1.472 0.612-0.051 1.214-0.222 1.758-0.505 0.547-0.305 0.986-0.82 1.154-1.427 0.253-0.879-0.095-1.874-0.792-2.451-0.544-0.452-1.282-0.671-1.984-0.567-0.463 0.072-0.919 0.243-1.286 0.54-0.252 0.203-0.442 0.469-0.611 0.743-0.343-0.373-0.632-0.793-0.923-1.206-0.798-1.172-1.482-2.433-1.923-3.784 0.817-0.361 1.592-0.86 2.165-1.553 0.413-0.495 0.697-1.108 0.746-1.755 0.050-0.514-0.051-1.080-0.415-1.467-0.414-0.443-1.088-0.568-1.66-0.415-0.432 0.111-0.795 0.387-1.123 0.677 0.021-0.322 0.015-0.644 0.029-0.966 0.105-1.813 0.379-3.618 0.835-5.377 0.031-0.136 0.090-0.264 0.164-0.381 0.642-1.070 1.28-2.145 1.999-3.165 0.152-0.209 0.304-0.423 0.499-0.596zM12.072 6.162c-1.352 0.074-2.697 0.409-3.895 1.047-0.979 0.523-1.878 1.199-2.648 1.999-0.561 0.595-1.055 1.297-1.229 2.11-0.093 0.421-0.062 0.855-0.066 1.283-0.002 0.56 0.004 1.121 0.046 1.68 0.076 0.77 0.462 1.468 0.92 2.075 0.686 0.893 1.514 1.696 2.508 2.237 1.346 0.744 2.889 1.042 4.411 1.127 1.655 0.073 3.345 0.001 4.936-0.5 1.084-0.336 2.102-0.902 2.925-1.686 0.428-0.411 0.828-0.853 1.175-1.335 0.352-0.495 0.648-1.045 0.765-1.645 0.070-0.337 0.057-0.682 0.078-1.023 0.009-0.493 0.005-0.987 0.007-1.48 0.006-0.385-0.049-0.773-0.181-1.136-0.19-0.531-0.507-1.007-0.87-1.434-0.62-0.716-1.362-1.32-2.153-1.838-1.091-0.711-2.334-1.184-3.623-1.374-1.028-0.156-2.073-0.15-3.109-0.106zM10.043 11.997c-0.903 0.246-1.787 0.585-2.595 1.059 0.136 0.136 0.294 0.248 0.446 0.366 0.996 0.739 2.148 1.275 3.364 1.526 0.781 0.17 1.585 0.171 2.38 0.155 1.696-0.044 3.352-0.673 4.706-1.683 0.149-0.117 0.308-0.223 0.435-0.366-0.58-0.346-1.204-0.615-1.841-0.835-1.355-0.471-2.8-0.663-4.231-0.611-0.899 0.026-1.795 0.156-2.664 0.389zM1.36 12.13c-0.342 0.094-0.666 0.272-0.918 0.521-0.029 0.251 0.011 0.504 0.042 0.753 0.088 0.674 0.256 1.337 0.502 1.971 0.395-0.192 0.726-0.498 0.975-0.858 0.266-0.375 0.505-0.796 0.545-1.263 0.018-0.339-0.027-0.725-0.286-0.971-0.225-0.219-0.572-0.22-0.859-0.153zM24.078 12.236c-0.256 0.196-0.34 0.536-0.346 0.844-0.019 0.506 0.228 0.973 0.506 1.377 0.256 0.384 0.6 0.715 1.018 0.918 0.282-0.726 0.458-1.49 0.538-2.264 0.010-0.152 0.027-0.307 0.006-0.46-0.238-0.237-0.545-0.406-0.865-0.506-0.28-0.076-0.614-0.093-0.857 0.091zM5.192 20.988c-0.414 0.057-0.818 0.235-1.119 0.528-0.058 0.058-0.142 0.149-0.059 0.224 0.682 0.857 1.426 1.665 2.223 2.415 0.235-0.097 0.457-0.243 0.612-0.448 0.228-0.288 0.316-0.665 0.305-1.026-0.005-0.445-0.181-0.891-0.503-1.201-0.386-0.36-0.931-0.554-1.457-0.492zM20.465 21.020c-0.509 0.113-0.981 0.442-1.207 0.92-0.204 0.431-0.228 0.944-0.074 1.394 0.132 0.38 0.447 0.678 0.82 0.822 0.792-0.745 1.527-1.548 2.207-2.396 0.022-0.038 0.072-0.080 0.046-0.127-0.062-0.107-0.16-0.186-0.256-0.26-0.433-0.32-1.004-0.478-1.536-0.353z"></path>
</svg>
