<!-- Generated by IcoMoon.io -->
<svg version="1.1" xmlns="http://www.w3.org/2000/svg" width="26" height="32" viewBox="0 0 26 32">
<path fill="#444" d="M12.394 6.869c0.966-0.022 1.941-0.025 2.894 0.161 1.943 0.35 3.771 1.348 5.081 2.83 0.345 0.395 0.686 0.815 0.851 1.321 0.090 0.268 0.147 0.55 0.139 0.834-0.001 0.551 0.001 1.101-0.001 1.651-0.015 0.4-0.11 0.793-0.224 1.175-0.060-0.487-0.342-0.91-0.654-1.274-0.374-0.422-0.811-0.784-1.281-1.094-0.695-0.448-1.467-0.767-2.256-1.006-1.051-0.314-2.143-0.492-3.238-0.529-0.563-0.004-1.127-0.017-1.688 0.028-1.009 0.077-2.009 0.269-2.972 0.581-0.933 0.306-1.841 0.732-2.6 1.365-0.363 0.299-0.703 0.634-0.968 1.024-0.184 0.272-0.329 0.576-0.368 0.905-0.13-0.437-0.239-0.888-0.227-1.347 0.001-0.539-0.001-1.078 0.001-1.616 0.024-0.429 0.161-0.849 0.378-1.218 0.21-0.342 0.473-0.649 0.742-0.945 0.832-0.891 1.852-1.606 2.973-2.087 1.078-0.468 2.247-0.71 3.419-0.759zM5.858 14.833c-0.097 0.335-0.135 0.706 0.006 1.034 0.231 0.56 0.673 0.999 1.14 1.37 1.019 0.787 2.25 1.261 3.505 1.511 0.87 0.176 1.76 0.222 2.646 0.206 0.908 0.017 1.82-0.043 2.709-0.233 1.278-0.273 2.533-0.779 3.544-1.623 0.403-0.347 0.782-0.753 0.979-1.255 0.128-0.313 0.092-0.664 0.005-0.982-0.163-0.567-0.557-1.050-1.036-1.383-0.278 0.261-0.579 0.497-0.894 0.712-1.074 0.734-2.303 1.245-3.587 1.461-0.783 0.139-1.581 0.132-2.373 0.117-0.775-0.031-1.547-0.16-2.287-0.394-1.224-0.39-2.38-1.024-3.328-1.895-0.472 0.328-0.86 0.799-1.028 1.355z"></path>
</svg>
