<svg xmlns="http://www.w3.org/2000/svg" viewBox="0 0 764 837"><path fill="#000" fill-rule="evenodd" d="M103.5.5c78.5 44.5 125 52 134 54 6 1.333 15.5 2.167 28.5 2.5h116v74.5c-99.5 0-152.5 34-182.5 56.5s-44 37.5-60 61.5c-10.667 16-15.833 33-15.5 51v55c0 22 7.5 44 22.5 66 25.667 35.667 56 62.167 91 79.5s83.167 26.5 144.5 27.5v308C262.667 782.833 183 733.667 143 689c41-4.5 80.5-23.5 86.5-65s-32-84-76-80.5c-29.333 2.333-50 15.333-62 39-39-47-66.5-95.667-82.5-146l.072-.024C11.403 435.707 69.87 415.96 88 365c18.5-52-9-80-37.5-80.5-19-.333-35.667 7.167-50 22.5-.667-59 8.333-123 27-192 33.667-58.667 59-96.833 76-114.5ZM148 564c28-3.667 47.333 7.167 58 32.5 8 26 .167 46-23.5 60-23.333-21.333-45.667-45.833-67-73.5 7.667-10.333 18.5-16.667 32.5-19Zm53-219c49.667 45.333 110 67.833 181 67.5V505c-88 0-153.833-23-197.5-69-14.667-15.667-19.5-32.167-14.5-49.5s15.333-31.167 31-41.5ZM49.5 304.5c16.333 0 24.5 10.833 24.5 32.5 0 6.667-2.5 15.167-7.5 25.5-9 17.333-21.333 30.167-37 38.5-11.333-26.667-17-53.167-17-79.5 11.667-11.333 24-17 37-17ZM382 291v102c-62 0-116.833-19.833-164.5-59.5C265.833 305.167 320.667 291 382 291Zm-1.828-138.005L382 153v118.5c-112.5 2-167.5 36-198.5 61.5-20.667 17-31.833 34.667-33.5 53-4-6.333-6.667-18.167-8-35.5v-53c0-10.333 6.167-24.833 18.5-43.5 16-22 36.333-40.833 61-56.5 46-30 99.5-44.833 160.5-44.5ZM660.5.5c-78.5 44.5-125 52-134 54-6 1.333-15.5 2.167-28.5 2.5H382v74.5c99.5 0 152.5 34 182.5 56.5s44 37.5 60 61.5c10.667 16 15.833 33 15.5 51v55c0 22-7.5 44-22.5 66-25.667 35.667-56 62.167-91 79.5s-83.167 26.5-144.5 27.5v308C501.333 782.833 581 733.667 621 689c-41-4.5-80.5-23.5-86.5-65s32-84 76-80.5c29.333 2.333 50 15.333 62 39 39-47 66.5-95.667 82.5-146l-.072-.024C752.597 435.707 694.13 415.96 676 365c-18.5-52 9-80 37.5-80.5 19-.333 35.667 7.167 50 22.5.667-59-8.333-123-27-192-33.667-58.667-59-96.833-76-114.5ZM616 564c-28-3.667-47.333 7.167-58 32.5-8 26-.167 46 23.5 60 23.333-21.333 45.667-45.833 67-73.5-7.667-10.333-18.5-16.667-32.5-19Zm-53-219c-49.667 45.333-110 67.833-181 67.5V505c88 0 153.833-23 197.5-69 14.667-15.667 19.5-32.167 14.5-49.5s-15.333-31.167-31-41.5Zm151.5-40.5c-16.333 0-24.5 10.833-24.5 32.5 0 6.667 2.5 15.167 7.5 25.5 9 17.333 21.333 30.167 37 38.5 11.333-26.667 17-53.167 17-79.5-11.667-11.333-24-17-37-17ZM382 291v102c62 0 116.833-19.833 164.5-59.5C498.167 305.167 443.333 291 382 291Zm1.828-138.005L382 153v118.5c112.5 2 167.5 36 198.5 61.5 20.667 17 31.833 34.667 33.5 53 4-6.333 6.667-18.167 8-35.5v-53c0-10.333-6.167-24.833-18.5-43.5-16-22-36.333-40.833-61-56.5-46-30-99.5-44.833-160.5-44.5Z"/></svg>
