<!-- Generated by IcoMoon.io -->
<svg version="1.1" xmlns="http://www.w3.org/2000/svg" width="32" height="32" viewBox="0 0 32 32">
<title>ltr</title>
<path fill="#444" d="M13.628 24.603c1.179 0.146 2.372 0.209 3.559 0.127 0.383-0.008 0.762-0.070 1.145-0.093-0.643 0.477-1.28 0.962-1.94 1.417-0.132 0.085-0.251 0.194-0.395 0.259-0.308-0.18-0.589-0.405-0.883-0.607-0.501-0.36-0.995-0.73-1.486-1.103zM23.073 16.666c0.018 0.004 0.036 0.005 0.053 0.012 0.099 0.037 0.154 0.147 0.117 0.247-0.035 0.135-0.213 0.244-0.332 0.142-0.139-0.1-0.068-0.331 0.079-0.385 0.045-0.017 0.018-0.009 0.083-0.016zM23.637 16.908l0.023 0.003c0.082 0.021 0.139 0.092 0.137 0.175 0.025 0.182-0.206 0.334-0.356 0.22-0.125-0.106-0.051-0.309 0.078-0.375l0.045-0.020c0.040-0.002 0.016-0.001 0.072-0.003zM9.345 17.048c0.023 0.003 0.048 0.002 0.070 0.008 0.153 0.046 0.223 0.254 0.112 0.373-0.134 0.145-0.378-0.020-0.367-0.193-0.010-0.084 0.056-0.187 0.147-0.182l0.037-0.006zM22.948 17.327c0.068 0.017 0.041 0.004 0.084 0.031 0.115 0.070 0.095 0.245 0.013 0.334-0.065 0.080-0.181 0.075-0.272 0.052-0.126-0.095-0.093-0.292 0.031-0.373 0.044-0.029 0.089-0.047 0.143-0.044zM13.75 18.483c0.016 0.003 0.033 0.003 0.048 0.009 0.089 0.032 0.145 0.142 0.095 0.227-0.051 0.070-0.131 0.111-0.2 0.161-0.241 0.16-0.47 0.338-0.728 0.47-0.134 0.064-0.28-0.151-0.162-0.248 0.142-0.118 0.308-0.204 0.459-0.31 0.142-0.089 0.271-0.198 0.416-0.283 0.037-0.023 0.014-0.012 0.071-0.026zM19.482 18.055c0.047 0.010 0.096 0.014 0.142 0.030 0.117 0.040 0.207 0.138 0.246 0.253 0.066 0.211-0.020 0.433-0.12 0.618-0.062 0.139-0.33 0.053-0.28-0.1 0.046-0.145 0.12-0.284 0.117-0.441-0.075-0.033-0.159-0.069-0.23-0.008-0.323 0.221-0.466 0.604-0.639 0.938-0.050 0.123-0.241 0.115-0.287-0.006-0.008-0.058-0-0.118 0.026-0.17 0.115-0.269 0.259-0.528 0.438-0.76 0.133-0.16 0.297-0.326 0.514-0.351l0.073-0.004zM7.57 17.638l-0.179 0.003-0.119 0.005c-0.067-0.003-0.1 0.065-0.14 0.107-0.093 0.125-0.196 0.242-0.318 0.339 0.239 0.19 0.487 0.366 0.733 0.546 0.149 0.125 0.353 0.138 0.536 0.1 0.262-0.113 0.429-0.416 0.389-0.699-0.018-0.139-0.138-0.238-0.261-0.288-0.038-0.013-0.074-0.029-0.113-0.039-0.291-0.064-0.115-0.032-0.528-0.074zM9.093 18.568c-0.324 0.025-0.187 0.004-0.415 0.046-0.072 0.068-0.121 0.157-0.191 0.226-0.097 0.098-0.224 0.156-0.347 0.214 0.296 0.185 0.571 0.411 0.897 0.541 0.427 0.17 0.909-0.269 0.853-0.704-0.009-0.073-0.061-0.134-0.126-0.166-0.21-0.106-0.434-0.159-0.671-0.158zM7.076 16.598l0.035 0.001c0.175 0.021 0.376 0.077 0.477 0.236 0.064 0.186-0.083 0.341-0.167 0.49 0.395 0.002 0.835 0.025 1.152 0.29 0.193 0.157 0.229 0.419 0.205 0.652 0.386-0.041 0.794-0.011 1.139 0.183 0.168 0.093 0.291 0.275 0.285 0.47 0.023 0.273-0.105 0.539-0.29 0.732-0.101 0.108-0.234 0.174-0.355 0.256 0.165 0.060 0.344 0.137 0.523 0.085 0.095-0.016 0.241-0.069 0.289 0.049 0.058 0.090-0.014 0.204-0.107 0.234-0.199 0.072-0.425 0.061-0.624-0.003-0.43-0.151-0.816-0.401-1.2-0.641-0.711-0.469-1.419-0.948-2.070-1.498-0.067-0.069-0.168-0.138-0.157-0.246-0.002-0.071 0.064-0.149 0.139-0.141 0.098-0.016 0.152 0.084 0.221 0.134 0.307-0.241 0.508-0.583 0.696-0.918-0.115-0.041-0.286-0.043-0.323-0.187 0.007-0.086 0.047-0.152 0.133-0.177zM24.57 17.474c-0.081 0.016-0.049 0.002-0.101 0.032-0.336 0.251-0.539 0.639-0.675 1.027 0.075 0.227 0.098 0.464 0.067 0.702 0.276-0.167 0.577-0.303 0.818-0.521 0.328-0.291 0.344-0.846 0.049-1.165-0.045-0.044-0.094-0.072-0.159-0.075zM23.204 18.363c-0.032 0.003-0.066 0-0.097 0.008-0.081 0.020-0.148 0.076-0.21 0.129-0.236 0.219-0.401 0.501-0.55 0.783-0.031 0.065-0.078 0.133-0.054 0.209 0.036 0.169 0.081 0.337 0.093 0.51 0.261-0.11 0.506-0.252 0.76-0.377 0.283-0.131 0.47-0.461 0.414-0.772-0.037-0.189-0.134-0.382-0.306-0.48l-0.050-0.012zM24.565 17.145l0.053 0.001 0.058 0.012c0.289 0.084 0.464 0.37 0.535 0.647 0.054 0.175 0.035 0.36 0.034 0.541 0.126-0.129 0.252-0.266 0.307-0.442 0.033-0.072 0.033-0.172 0.114-0.211 0.070-0.043 0.155-0 0.199 0.060 0.043 0.238-0.097 0.462-0.234 0.644-0.248 0.285-0.577 0.482-0.892 0.683-0.497 0.304-1.005 0.588-1.519 0.864-0.344 0.169-0.679 0.358-1.036 0.499-0.090 0.039-0.19 0.052-0.286 0.033-0.088-0.043-0.052-0.15-0.061-0.228 0.074-0.039 0.152-0.070 0.231-0.099 0.029-0.401-0.149-0.775-0.283-1.143-0.094 0.072-0.166 0.226-0.304 0.2-0.1-0.029-0.126-0.134-0.097-0.224 0.086-0.128 0.2-0.241 0.335-0.316 0.088-0.052 0.215-0.041 0.277 0.047 0.056 0.083 0.078 0.184 0.119 0.275 0.010-0.002 0.029-0.006 0.038-0.008 0.203-0.328 0.409-0.688 0.763-0.875 0.219-0.112 0.48-0.042 0.666 0.103 0.153-0.349 0.358-0.687 0.66-0.928 0.098-0.065 0.199-0.129 0.321-0.134zM20.632 19.129c0.16 0.008 0.242 0.004 0.38 0.101 0.277 0.195 0.407 0.548 0.383 0.879 0.029 0.475-0.459 0.866-0.913 0.823-0.109-0.011-0.117-0.143-0.093-0.226 0.051-0.082 0.161-0.075 0.244-0.098 0.258-0.037 0.479-0.272 0.474-0.537-0.006-0.193-0.079-0.386-0.212-0.527-0.074-0.078-0.187-0.138-0.294-0.094-0.268 0.108-0.481 0.317-0.662 0.537-0.086 0.105-0.185 0.203-0.246 0.326-0.012 0.263 0.057 0.541-0.039 0.793-0.037 0.114-0.188 0.241-0.292 0.122-0.118-0.092 0.003-0.224 0.026-0.331 0.049-0.36-0.059-0.715-0.127-1.065-0.103 0.047-0.19 0.151-0.311 0.142-0.105-0.024-0.119-0.138-0.097-0.226 0.088-0.109 0.207-0.189 0.331-0.252 0.102-0.051 0.251-0.045 0.318 0.059 0.056 0.102 0.067 0.221 0.094 0.334 0.25-0.251 0.472-0.549 0.805-0.696 0.124-0.051 0.048-0.025 0.231-0.063zM11.174 19.070c0.162 0.033 0.273 0.055 0.319 0.234-0.019 0.127-0.068 0.246-0.092 0.372 0.386-0.106 0.809-0.231 1.2-0.078 0.231 0.087 0.348 0.326 0.395 0.554 0.333-0.131 0.687-0.224 1.047-0.184 0.227-0.003 0.445 0.139 0.517 0.359 0.147 0.434-0.032 0.975-0.436 1.207-0.236 0.132-0.533 0.117-0.773 0.006-0.094-0.042-0.121-0.18-0.040-0.249 0.088-0.099 0.212-0.009 0.316 0.006 0.167 0.052 0.354-0.011 0.473-0.136 0.143-0.16 0.218-0.379 0.198-0.593-0.003-0.118-0.069-0.251-0.195-0.273-0.39-0.064-0.792 0.046-1.132 0.236-0.088 0.183-0.164 0.385-0.337 0.508-0.286 0.233-0.746 0.221-1.008-0.042-0.042-0.072-0.041-0.203 0.057-0.23 0.091-0.052 0.177 0.044 0.261 0.072 0.192 0.116 0.454 0.037 0.585-0.136 0.11-0.146 0.175-0.333 0.154-0.517-0.016-0.142-0.106-0.281-0.251-0.317-0.395-0.061-0.795 0.039-1.157 0.195-0.142 0.253-0.238 0.579-0.531 0.701-0.133 0.064-0.268-0.121-0.186-0.234 0.084-0.084 0.197-0.139 0.251-0.25 0.153-0.276 0.264-0.577 0.329-0.886-0.106-0.008-0.229 0.030-0.316-0.048-0.111-0.075-0.041-0.269 0.092-0.261 0.14-0.020 0.054-0.011 0.258-0.014zM18.359 19.621c0.067 0.015 0.113 0.023 0.149 0.088 0.010 0.078-0.031 0.149-0.054 0.221-0.096 0.239-0.066 0.502-0.068 0.753-0.005 0.466 0.17 0.914 0.159 1.381-0.015 0.521-0.164 1.058-0.513 1.455-0.121 0.112-0.332-0.054-0.232-0.195 0.284-0.356 0.414-0.811 0.428-1.261 0.013-0.314-0.079-0.618-0.115-0.928-0.134 0.101-0.257 0.22-0.411 0.291-0.344 0.162-0.76 0.218-1.116 0.059-0.307-0.134-0.494-0.474-0.484-0.802 0.049-0.537 0.618-0.959 1.146-0.854 0.082 0.025 0.163 0.081 0.186 0.168 0.007 0.065-0.043 0.118-0.084 0.162-0.12 0.028-0.233-0.060-0.354-0.029-0.225 0.053-0.436 0.199-0.542 0.408-0.060 0.2-0.032 0.447 0.14 0.585 0.177 0.135 0.419 0.172 0.633 0.123 0.317-0.046 0.61-0.237 0.777-0.511 0.088-0.115 0.036-0.266 0.055-0.398 0.034-0.238 0.038-0.501 0.193-0.698 0.057-0.020 0.022-0.011 0.106-0.020zM4.668 11.243c-0.122 0.226-0.171 0.481-0.247 0.724-0.192 0.725-0.287 1.475-0.287 2.225-0.034 0.477-0.020 0.957-0.023 1.435 0.025 0.515 0.048 1.034 0.173 1.536 0.114 0.499 0.356 0.959 0.643 1.379 0.679 1.043 1.557 1.947 2.534 2.713 1.153 0.985 2.517 1.715 3.967 2.153 0.954 0.31 1.95 0.467 2.944 0.579 0.4 0.046 0.804 0.051 1.205 0.080 0.409 0 0.82 0.023 1.227-0.024 0.431-0.021 0.862-0.051 1.293-0.087 0.888-0.115 1.776-0.269 2.625-0.557 0.786-0.241 1.539-0.583 2.251-0.991 0.529-0.316 1.025-0.682 1.512-1.058 0.421-0.343 0.844-0.683 1.226-1.070 0.499-0.514 0.965-1.065 1.351-1.67 0.446-0.627 0.634-1.399 0.696-2.156 0.041-0.287 0.012-0.579 0.052-0.866-0.008-0.64 0.036-1.282-0.026-1.92-0.038-0.758-0.215-1.501-0.45-2.22-0.084 0.505-0.156 1.022-0.376 1.489-0.293 0.583-0.69 1.115-1.172 1.556-0.509 0.464-1.081 0.857-1.681 1.193-0.295 0.158-0.597 0.3-0.897 0.447-2.216 1.183-4.736 1.789-7.247 1.746-0.742-0.012-1.481-0.092-2.213-0.208-1.042-0.173-2.059-0.474-3.046-0.846-0.879-0.294-1.736-0.664-2.53-1.147-0.339-0.191-0.675-0.39-0.993-0.615-0.773-0.543-1.49-1.202-1.956-2.034-0.183-0.3-0.319-0.628-0.395-0.972-0.069-0.269-0.087-0.549-0.159-0.815zM15.818 11.829c-0.544 0.010-0.311-0.001-0.699 0.023-1.875 0.125-3.651 0.928-5.138 2.049-0.368 0.283-0.737 0.57-1.060 0.906 0.868 0.482 1.773 0.902 2.714 1.222 1.195 0.419 2.447 0.668 3.708 0.764 0.458 0.008 0.918 0.067 1.375 0.011 0.586-0.010 1.17-0.080 1.748-0.179 1.604-0.267 3.165-0.811 4.582-1.61-1.267-1.097-2.68-2.058-4.264-2.633-0.954-0.339-1.951-0.548-2.966-0.553zM29.277 9.516l-2.165 0.001c0.566 0.806 0.942 1.735 1.153 2.695 0.116 0.528 0.202 1.066 0.213 1.607 0.046 0.315 0.015 0.634 0.029 0.95 0.21-0.24 0.408-0.49 0.608-0.739 0.953-1.191 1.868-2.415 2.703-3.692 0.112-0.173 0.223-0.379 0.167-0.591-0.105-0.19-0.347-0.225-0.543-0.231l-2.165-0.001zM2.685 9.516l-2.049 0c-0.184-0.002-0.387 0.015-0.537 0.131-0.11 0.082-0.114 0.233-0.079 0.354 0.049 0.165 0.146 0.31 0.239 0.452 0.533 0.809 1.1 1.596 1.683 2.37 0.49 0.636 0.976 1.275 1.5 1.883 0.015-0.41-0.012-0.821 0.031-1.229 0.101-1.392 0.501-2.78 1.261-3.959l-2.049-0.002zM12.537 6.685l0.050 0.005c0.365 0.060 0.678 0.28 0.951 0.518 0.107 0.067 0.089 0.258-0.039 0.282-0.133 0.033-0.218-0.093-0.313-0.161-0.212-0.168-0.465-0.334-0.748-0.31-0.083-0.002-0.171 0.028-0.218 0.101 0.060 0.116 0.183 0.175 0.282 0.252-0.002 0.059 0.002 0.12-0.016 0.177-0.071 0.062-0.179 0.073-0.258 0.019-0.184-0.1-0.35-0.298-0.305-0.521 0.1-0.254 0.352-0.371 0.614-0.363zM18.409 6.673c0.062 0.004 0.097-0.004 0.139 0.046 0.215 0.233 0.42 0.475 0.615 0.725 0.055 0.062 0.068 0.179-0.002 0.235-0.065 0.071-0.186 0.043-0.235-0.034-0.193-0.229-0.38-0.463-0.582-0.684-0.085-0.071-0.095-0.236 0.014-0.281l0.050-0.008zM8.597 8.557c0.073 0.012 0.112 0.025 0.141 0.1 0.016 0.208-0.245 0.37-0.423 0.251 0.005-0.087-0.013-0.191 0.063-0.253 0.062-0.057 0.132-0.097 0.219-0.098zM22.861 8.562c0.024 0.005 0.048 0.006 0.071 0.014 0.131 0.045 0.218 0.185 0.169 0.319-0.171 0.182-0.53-0.134-0.345-0.309 0.056-0.024 0.022-0.013 0.106-0.024zM9.119 8.708l0.057 0.004c0.047 0.032 0.072 0.086 0.105 0.131-0.048 0.123-0.138 0.269-0.29 0.256-0.080 0.014-0.151-0.061-0.142-0.139 0.013-0.148 0.128-0.232 0.27-0.252zM12.955 7.707c0.124 0.010 0.203 0.017 0.321 0.060 0.133 0.022 0.146 0.211 0.062 0.29-0.108 0.023-0.215-0.018-0.319-0.038 0.011 0.261 0.066 0.523 0.164 0.766 0.037 0.117 0.202 0.179 0.165 0.318-0.012 0.133-0.197 0.142-0.275 0.064-0.184-0.152-0.216-0.401-0.301-0.61-0.261-0.155-0.57-0.228-0.873-0.198-0.177-0.007-0.328 0.157-0.325 0.33-0.012 0.167 0.043 0.35 0.175 0.46 0.133 0.098 0.313 0.068 0.454 0.003 0.078-0.041 0.166-0.024 0.25-0.016 0.007 0.077 0.010 0.153 0.010 0.23-0.22 0.158-0.518 0.207-0.773 0.111-0.42-0.197-0.56-0.804-0.3-1.178 0.122-0.178 0.344-0.248 0.549-0.268 0.259-0.016 0.511 0.058 0.758 0.128 0.007-0.134-0.062-0.312 0.073-0.403 0.099-0.044 0.038-0.023 0.186-0.048zM8.429 9.165c0.089 0.004 0.051 0.003 0.113 0.005 0.121 0.191-0.111 0.442-0.313 0.373-0.111-0.081-0.057-0.241 0.031-0.316 0.057-0.055 0.090-0.060 0.169-0.062zM17.712 7.723c0.2 0.032 0.11 0.012 0.27 0.055 0.27 0.078 0.504 0.245 0.704 0.439 0.11-0.118 0.239-0.252 0.415-0.243 0.433-0.025 0.75 0.329 1.034 0.605 0.031-0.099 0.043-0.221 0.138-0.284 0.219-0.064 0.413 0.106 0.534 0.269 0.059 0.066 0.031 0.155-0.026 0.212-0.133 0.061-0.24-0.054-0.341-0.122-0.080 0.325-0.207 0.669-0.095 1.002 0.028 0.095-0.071 0.193-0.167 0.168-0.102 0.007-0.138-0.112-0.166-0.189-0.042-0.22 0.010-0.443-0.003-0.663-0.064-0.12-0.162-0.218-0.255-0.318-0.173-0.175-0.379-0.384-0.645-0.367-0.090-0.006-0.142 0.082-0.175 0.153-0.105 0.24-0.023 0.577 0.229 0.689 0.093 0.050 0.201 0.040 0.304 0.046 0.087 0.089 0.105 0.236-0.023 0.299-0.465 0.093-0.899-0.364-0.862-0.819 0.020-0.122-0.097-0.192-0.169-0.27-0.202-0.175-0.451-0.331-0.725-0.336-0.149-0.019-0.184 0.161-0.205 0.271-0.008 0.205 0.077 0.431 0.262 0.538 0.114 0.070 0.257 0.032 0.377 0.086 0.066 0.049 0.058 0.148 0.032 0.217-0.050 0.083-0.158 0.052-0.238 0.059-0.279 0.011-0.53-0.185-0.642-0.43-0.089-0.201-0.136-0.433-0.070-0.648 0.041-0.177 0.166-0.345 0.347-0.396 0.089-0.026 0.035-0.014 0.163-0.023zM15.080 7.397l0.064 0.001c0.065 0.012 0.132 0.017 0.196 0.036 0.29 0.087 0.534 0.316 0.593 0.616 0.030 0.208-0.062 0.417-0.196 0.572-0.19 0.218-0.494 0.293-0.773 0.286-0.236 0.001-0.462-0.076-0.671-0.178 0.003 0.483 0.087 0.985 0.351 1.398 0.068 0.114 0.173 0.204 0.226 0.328-0.001 0.155-0.215 0.195-0.303 0.088-0.374-0.411-0.539-0.97-0.577-1.516-0.005-0.359-0.033-0.729-0.179-1.062-0.048-0.13-0.214-0.216-0.175-0.37 0.010-0.103 0.165-0.148 0.235-0.073 0.224 0.183 0.277 0.482 0.364 0.741 0.257 0.302 0.712 0.421 1.082 0.277 0.181-0.066 0.323-0.252 0.309-0.447-0.095-0.324-0.528-0.489-0.814-0.308-0.043-0.018-0.085-0.035-0.128-0.051-0.008-0.071-0.010-0.141-0.010-0.212 0.125-0.075 0.258-0.125 0.406-0.126zM9.945 9.319c-0.169-0.002-0.348 0.045-0.472 0.164-0.172 0.217-0.025 0.549 0.197 0.668 0.151 0.049 0.329 0.044 0.466-0.044 0.2-0.118 0.41-0.215 0.611-0.33-0.076-0.12-0.131-0.252-0.202-0.375-0.188-0.080-0.398-0.085-0.6-0.083zM9.043 10.075c-0.085 0.004-0.17 0.001-0.254 0.011-0.21 0.023-0.412 0.109-0.568 0.252-0.109 0.112-0.050 0.285 0.030 0.395 0.155 0.242 0.522 0.283 0.744 0.112 0.189-0.133 0.388-0.253 0.576-0.388-0.164-0.088-0.298-0.219-0.403-0.372l-0.125-0.010zM10.753 8.505c0.097 0.002 0.2 0.001 0.264 0.087 0.076 0.091-0.016 0.225-0.123 0.228-0.071 0.004-0.142 0.003-0.212 0.005 0.084 0.281 0.172 0.568 0.347 0.808 0.087-0.016 0.197-0.079 0.271 0.001 0.069 0.046 0.052 0.144 0.033 0.212-0.105 0.081-0.233 0.122-0.347 0.188-0.669 0.386-1.332 0.783-1.976 1.21-0.221 0.138-0.399 0.347-0.654 0.427-0.148 0.052-0.317 0.064-0.462-0.004-0.001-0.066-0.006-0.133 0.005-0.198 0.058-0.070 0.16-0.066 0.243-0.073 0.124 0 0.227-0.076 0.328-0.137-0.212-0.084-0.414-0.217-0.525-0.422-0.136-0.228-0.128-0.552 0.069-0.744 0.287-0.262 0.689-0.351 1.068-0.319-0.007-0.22 0.064-0.456 0.252-0.587 0.308-0.223 0.712-0.186 1.071-0.161-0.028-0.115-0.080-0.231-0.053-0.352 0.069-0.13 0.227-0.163 0.361-0.169l0.040-0.001zM21.662 9.135c-0.022 0.001-0.045-0.002-0.067 0.004-0.057 0.018-0.096 0.068-0.12 0.119-0.155 0.327-0.001 0.754 0.313 0.926 0.185 0.104 0.37 0.21 0.552 0.32-0-0.128-0.010-0.257 0.023-0.382 0.015-0.082 0.041-0.172-0.001-0.251-0.144-0.297-0.36-0.582-0.667-0.723l-0.034-0.013zM22.914 9.862l-0.049 0.013c-0.255 0.172-0.285 0.557-0.113 0.799 0.183 0.259 0.465 0.421 0.726 0.59 0.051-0.131 0.118-0.254 0.164-0.387-0.090-0.306-0.218-0.613-0.43-0.855-0.086-0.082-0.172-0.161-0.298-0.161zM21.618 8.819l0.051 0c0.179 0.042 0.106 0.012 0.223 0.072 0.312 0.168 0.543 0.45 0.707 0.759 0.18-0.101 0.411-0.151 0.598-0.038 0.326 0.196 0.502 0.555 0.652 0.891 0.085-0.091 0.156-0.251 0.306-0.22 0.179 0.064 0.275 0.251 0.346 0.415 0.057 0.095-0.047 0.223-0.152 0.199-0.121 0-0.159-0.141-0.227-0.217-0.145 0.248-0.299 0.496-0.376 0.776 0.052 0.081 0.15 0.151 0.139 0.258 0.011 0.074-0.065 0.105-0.11 0.148-0.122-0.059-0.228-0.146-0.338-0.224-0.622-0.426-1.272-0.809-1.919-1.194-0.338-0.192-0.705-0.377-0.926-0.71-0.051-0.074-0.016-0.166-0.007-0.247 0.061-0.006 0.122-0.011 0.183-0.014 0.114 0.149 0.225 0.305 0.387 0.407-0.069-0.31-0.075-0.682 0.159-0.927 0.086-0.081 0.183-0.13 0.303-0.134zM16.273 5.687c-0.366 0.002-0.732-0.004-1.098 0.006-0.549 0.015-1.096 0.065-1.641 0.131-0.897 0.11-1.791 0.275-2.65 0.562-0.464 0.154-0.942 0.275-1.387 0.482-0.947 0.406-1.856 0.932-2.605 1.646-0.583 0.551-1.063 1.233-1.284 2.011-0.136 0.491-0.187 1.024-0.043 1.52 0.279 0.777 0.845 1.408 1.458 1.943 0.222 0.173 0.443 0.347 0.668 0.515 0.778-0.828 1.665-1.553 2.645-2.13 1.357-0.831 2.886-1.417 4.477-1.565 0.316-0.049 0.638-0.021 0.956-0.056 0.298 0.037 0.602 0.007 0.899 0.055 1.412 0.133 2.777 0.603 4.025 1.266 1.307 0.707 2.504 1.609 3.58 2.632 0.444-0.3 0.862-0.639 1.237-1.021 0.381-0.4 0.717-0.854 0.915-1.373 0.115-0.323 0.102-0.671 0.086-1.008-0.071-0.632-0.31-1.242-0.674-1.764-0.464-0.685-1.096-1.239-1.778-1.7-0.688-0.462-1.437-0.826-2.209-1.122-0.517-0.165-1.034-0.331-1.553-0.489-0.78-0.213-1.58-0.343-2.383-0.429-0.546-0.057-1.093-0.103-1.643-0.112z"></path>
</svg>
