<!-- Generated by IcoMoon.io -->
<svg version="1.1" xmlns="http://www.w3.org/2000/svg" width="32" height="32" viewBox="0 0 32 32">
<title>m10</title>
<path fill="#444" d="M29.725 7.585c0.635 1.583 1.363 3.15 1.656 4.843 0.163 0.648 0.224 1.312 0.369 1.962v2.869c-0.13 0.79-0.187 1.593-0.377 2.37-0.115 0.731-0.389 1.42-0.59 2.126-0.32 0.906-0.682 1.799-1.11 2.661h-27.342c-0.571-1.096-0.985-2.264-1.368-3.434-0.17-0.694-0.401-1.37-0.495-2.079-0.057-0.411-0.121-0.822-0.219-1.224v-3c0.076-0.48 0.145-0.96 0.199-1.443 0.079-0.767 0.325-1.503 0.529-2.244 0.332-1.174 0.837-2.286 1.304-3.408h27.443zM28.77 8.576c-8.281 0.003-16.558 0-24.836 0.003-0.338 0.002-0.675-0.017-1.012 0.012-0.163 0.605-0.487 1.147-0.669 1.745-0.266 0.852-0.569 1.7-0.729 2.582-0.182 0.856-0.226 1.735-0.236 2.606-0.005 0.884-0.005 1.77 0.086 2.648 0.076 0.596 0.224 1.177 0.355 1.76 0.152 0.81 0.497 1.561 0.753 2.335 0.167 0.382 0.32 0.768 0.473 1.152 8.697 0.005 17.394 0.005 26.089 0 0.64-1.573 1.263-3.175 1.504-4.866 0.185-0.871 0.142-1.765 0.192-2.648-0.044-0.684-0.027-1.376-0.12-2.058-0.106-0.556-0.174-1.12-0.329-1.666-0.103-0.655-0.374-1.265-0.559-1.898-0.204-0.576-0.465-1.13-0.699-1.693-0.088-0.005-0.174-0.012-0.261-0.015zM3.865 9.575c8.166 0.008 16.334-0.005 24.502 0.008 0.157 0.241 0.244 0.519 0.34 0.79 0.209 0.633 0.44 1.258 0.62 1.902 0.111 0.616 0.263 1.225 0.32 1.851 0.152 0.861 0.106 1.737 0.108 2.606v0c0.005 0.364-0.052 0.724-0.101 1.083-0.054 0.357-0.067 0.724-0.143 1.078-0.081 0.379-0.192 0.75-0.29 1.127-0.177 0.79-0.492 1.54-0.788 2.294-0.020 0.113-0.147 0.103-0.236 0.11-7.939-0.002-15.878 0-23.82 0-0.256-0.009-0.522 0.037-0.771-0.034-0.195-0.436-0.374-0.886-0.512-1.346 0.406-0.248 0.886-0.332 1.348-0.396 0.539-0.042 1.083-0.039 1.617 0.054 0.014-0.253 0.017-0.509-0.005-0.763-0.246-0.167-0.598-0.278-0.662-0.605-0.101-0.484 0.089-0.957 0.212-1.415 0.108-0.457 0.352-0.861 0.519-1.297 0.118-0.317 0.384-0.605 0.325-0.963-0.013-0.177-0.19-0.268-0.328-0.342-0.251-0.12-0.512-0.243-0.793-0.275-0.182-0.022-0.324 0.125-0.396 0.275-0.472 0.99-0.733 2.063-1.169 3.069-0.229 0.593-0.51 1.194-0.977 1.642-0.158-0.342-0.187-0.724-0.28-1.083-0.113-0.566-0.182-1.14-0.244-1.708-0.032-0.782-0.027-1.565-0.005-2.35 0.064-0.898 0.256-1.782 0.426-2.663 0.263-0.888 0.566-1.767 0.915-2.626 0.089-0.008 0.178-0.020 0.266-0.022zM5.564 10.731l-0.166 0.016c-0.209 0.153-0.36 0.377-0.505 0.588-0.079 0.101-0.066 0.256 0.054 0.318 0.29 0.141 0.627 0.145 0.92 0.29 0.214 0.076 0.135 0.352 0.123 0.524-0.138 0.551-0.433 1.048-0.571 1.597-0.062 0.273 0.226 0.411 0.423 0.517 0.285 0.135 0.581 0.36 0.913 0.266 0.261-0.207 0.266-0.6 0.507-0.822 0.192-0.15 0.354 0.111 0.484 0.224 0.65 0.771 1.073 1.698 1.464 2.616 0.306 0.665 0.5 1.371 0.719 2.065 0.222 0.721 0.379 1.479 0.31 2.237 0 0.116-0.034 0.244 0.015 0.352 0.253 0.204 0.551 0.342 0.849 0.473 0.33-0.595 0.778-1.13 1.351-1.501 0.253-0.165 0.544-0.251 0.807-0.394-0.12-0.856-0.443-1.666-0.753-2.466v0c-0.185-0.462-0.222-0.97-0.163-1.459 0.040-0.306 0.313-0.5 0.411-0.781 0.081-0.28-0.162-0.492-0.322-0.689-0.16-0.163-0.312-0.391-0.564-0.409-0.212 0.035-0.377 0.185-0.576 0.254-0.123-0.008-0.212-0.108-0.298-0.185-0.62-0.662-0.974-1.511-1.511-2.235-0.301-0.379-0.559-0.81-0.618-1.297-0.713-0.049-1.429-0.027-2.146-0.047-0.277 0.006-0.552-0.040-0.829-0.051-0.11-0.005-0.221-0.001-0.331-0.002zM12.616 10.469c-0.163 0.268-0.337 0.529-0.495 0.802 0.396 0.271 0.866 0.426 1.24 0.731 0.094 0.079 0.173 0.209 0.113 0.335-0.113 0.28-0.278 0.534-0.448 0.783-0.133 0.199-0.332 0.347-0.462 0.546-0.094 0.2-0.025 0.438 0.115 0.598 0.17 0.207 0.34 0.428 0.569 0.576 0.221 0.091 0.425-0.103 0.639-0.133 0.158 0.074 0.219 0.254 0.298 0.396 0.401 0.911 0.923 1.767 1.263 2.707 0.175 0.453 0.453 0.948 0.275 1.445-0.239 0.581-0.829 0.881-1.258 1.302 0.187 0.266 0.421 0.5 0.65 0.731 0.275-0.16 0.536-0.355 0.846-0.45 0.852-0.261 1.76-0.253 2.636-0.135 0.566 0.035 1.098 0.258 1.659 0.32 0.113-0.209 0.241-0.423 0.263-0.667-0.081-0.172-0.241-0.283-0.389-0.386-0.357-0.236-0.723-0.457-1.046-0.738-0.346-0.33-0.372-0.837-0.509-1.27-0.284-0.918-0.716-1.782-1.083-2.671-0.278-0.696-0.682-1.336-1.016-2.005-0.217-0.45-0.323-0.945-0.379-1.44-0.044-0.333 0.096-0.643 0.123-0.97-0.207-0.125-0.401-0.278-0.622-0.381-0.248 0.037-0.484 0.152-0.741 0.165-0.443 0.025-0.888 0.025-1.331-0.018-0.31-0.027-0.6-0.15-0.91-0.172zM21.37 10.57c-0.61 0.204-1.181 0.507-1.777 0.753v-0c-0.362 0.168-0.753 0.278-1.078 0.515-0.010 0.177-0.010 0.354 0.005 0.532 0.384 0.037 0.768-0.018 1.149 0.014 0.096-0.005 0.155 0.086 0.158 0.172 0.096 1.605 0.091 3.212 0.013 4.816 0.106-0.049 0.202-0.116 0.273-0.209 0.298-0.357 0.638-0.677 0.99-0.982 0.096-0.091 0.226-0.187 0.211-0.34 0.013-0.869-0.002-1.738 0.005-2.604 0.059-0.888 0.022-1.779 0.052-2.667zM25.59 10.645c-0.121 0.020-0.070 0.005-0.155 0.035-0.28 0.123-0.522 0.312-0.777 0.475-0.613 0.384-1.198 0.805-1.814 1.184-0.155 0.11-0.352 0.236-0.357 0.448-0.045 0.374-0.030 0.753-0.062 1.127-0.032 0.347-0.062 0.694-0.039 1.043 0.005 0.187 0.128 0.34 0.246 0.475 0.488 0.529 1.029 1.029 1.676 1.358 0.362 0.163 0.711 0.355 1.093 0.461 0.231-0.023 0.435-0.151 0.63-0.266 0.285-0.185 0.578-0.362 0.866-0.547 0.428-0.275 0.77-0.662 1.164-0.984 0.205-0.19 0.473-0.384 0.466-0.694 0.030-0.669 0.125-1.356-0.030-2.015-0.608-0.783-1.477-1.299-2.289-1.843l-0-0c-0.15-0.090-0.295-0.191-0.466-0.239-0.049-0.014-0.101-0.012-0.152-0.018zM24.556 12.054c0.162 0.011 0.093 0.007 0.207 0.014 0.802 0.125 1.575 0.541 2.077 1.189 0.534 0.667 0.497 1.663 0.069 2.374-0.103 0.202-0.357 0.227-0.556 0.234-0.612-0.017-1.188-0.285-1.685-0.63-0.423-0.285-0.751-0.713-0.896-1.203-0.17-0.657-0.018-1.413 0.453-1.91 0.1-0.069 0.216-0.066 0.331-0.068z"></path>
</svg>
