<!-- Generated by IcoMoon.io -->
<svg version="1.1" xmlns="http://www.w3.org/2000/svg" width="32" height="32" viewBox="0 0 32 32">
<title>m12</title>
<path fill="#444" d="M29.725 7.585c0.635 1.583 1.363 3.15 1.656 4.843 0.163 0.648 0.224 1.312 0.369 1.962v2.869c-0.13 0.788-0.187 1.593-0.377 2.37-0.115 0.731-0.389 1.42-0.59 2.126-0.32 0.906-0.682 1.799-1.108 2.661h-27.344c-0.569-1.095-0.982-2.264-1.368-3.433-0.17-0.694-0.401-1.371-0.497-2.080-0.054-0.411-0.116-0.822-0.217-1.226v-2.997c0.076-0.48 0.146-0.96 0.2-1.442 0.081-0.768 0.324-1.506 0.531-2.245 0.33-1.174 0.835-2.286 1.302-3.408h27.442zM28.77 8.576c-8.279 0.002-16.558 0-24.839 0.002-0.335 0.002-0.672-0.017-1.007 0.013-0.163 0.603-0.492 1.147-0.672 1.745-0.266 0.852-0.569 1.7-0.726 2.582-0.184 0.856-0.229 1.733-0.236 2.606-0.007 0.884-0.007 1.77 0.084 2.646 0.076 0.598 0.224 1.179 0.355 1.762 0.152 0.807 0.497 1.56 0.753 2.335 0.168 0.381 0.32 0.765 0.472 1.152 8.695 0.005 17.394 0.005 26.089 0 0.638-1.573 1.263-3.175 1.504-4.866 0.185-0.871 0.143-1.765 0.195-2.648-0.047-0.687-0.030-1.376-0.123-2.058-0.106-0.556-0.177-1.12-0.329-1.666-0.103-0.655-0.374-1.265-0.559-1.898-0.204-0.576-0.465-1.13-0.696-1.695-0.091-0.005-0.178-0.010-0.263-0.013zM3.864 9.575c8.168 0.008 16.334-0.005 24.5 0.005 0.16 0.241 0.246 0.522 0.342 0.793 0.209 0.633 0.44 1.258 0.62 1.902 0.113 0.616 0.263 1.226 0.32 1.851 0.152 0.861 0.106 1.738 0.108 2.604h0c0.005 0.367-0.052 0.726-0.101 1.085-0.054 0.357-0.066 0.721-0.143 1.078-0.081 0.379-0.192 0.748-0.29 1.127-0.178 0.79-0.493 1.541-0.788 2.294-0.020 0.113-0.148 0.103-0.237 0.111-7.939-0.003-15.878-0.003-23.82 0-0.253-0.010-0.522 0.037-0.771-0.035-0.194-0.438-0.372-0.886-0.512-1.346 0.408-0.248 0.886-0.332 1.351-0.396 0.537-0.042 1.080-0.042 1.615 0.054 0.017-0.253 0.017-0.509-0.005-0.763-0.244-0.167-0.598-0.278-0.662-0.608-0.101-0.482 0.089-0.954 0.212-1.413 0.108-0.457 0.352-0.861 0.519-1.299 0.118-0.315 0.384-0.603 0.325-0.963-0.010-0.175-0.19-0.265-0.328-0.34-0.251-0.12-0.512-0.246-0.792-0.275-0.182-0.025-0.325 0.125-0.399 0.273-0.473 0.992-0.731 2.065-1.167 3.071-0.231 0.593-0.506 1.194-0.975 1.642-0.158-0.342-0.187-0.724-0.283-1.083-0.113-0.566-0.182-1.139-0.244-1.708-0.031-0.782-0.025-1.568-0.005-2.35 0.064-0.898 0.253-1.782 0.428-2.663 0.261-0.888 0.564-1.769 0.915-2.626 0.086-0.009 0.175-0.020 0.263-0.022zM5.564 10.73l-0.166 0.015c-0.209 0.155-0.359 0.379-0.505 0.59-0.076 0.101-0.066 0.256 0.054 0.318 0.29 0.138 0.63 0.145 0.92 0.29 0.214 0.076 0.135 0.352 0.125 0.524-0.14 0.551-0.438 1.048-0.573 1.597-0.059 0.273 0.227 0.411 0.423 0.514 0.285 0.138 0.581 0.362 0.915 0.268 0.261-0.207 0.263-0.6 0.505-0.822 0.195-0.151 0.354 0.108 0.487 0.224 0.648 0.771 1.073 1.695 1.462 2.616 0.305 0.665 0.5 1.371 0.718 2.065 0.222 0.721 0.377 1.479 0.31 2.237 0.002 0.115-0.034 0.243 0.015 0.352 0.253 0.204 0.551 0.342 0.849 0.473 0.329-0.595 0.777-1.13 1.351-1.501 0.253-0.164 0.546-0.251 0.807-0.394-0.12-0.856-0.443-1.666-0.753-2.466-0.185-0.462-0.219-0.97-0.163-1.459 0.040-0.306 0.312-0.5 0.411-0.78 0.083-0.281-0.163-0.493-0.323-0.689-0.16-0.163-0.315-0.391-0.561-0.411-0.212 0.037-0.379 0.187-0.578 0.254-0.123-0.005-0.212-0.106-0.297-0.182-0.621-0.662-0.975-1.511-1.511-2.235-0.3-0.379-0.559-0.81-0.617-1.297-0.714-0.049-1.43-0.027-2.146-0.047-0.277 0.004-0.552-0.041-0.828-0.052-0.111-0.005-0.221-0.001-0.332-0.002zM12.616 10.469c-0.162 0.266-0.337 0.529-0.497 0.802 0.399 0.271 0.866 0.426 1.243 0.731 0.093 0.079 0.172 0.209 0.115 0.335-0.113 0.28-0.28 0.534-0.45 0.782-0.133 0.199-0.332 0.345-0.462 0.546-0.093 0.2-0.025 0.436 0.116 0.598 0.169 0.207 0.34 0.428 0.568 0.576 0.222 0.091 0.426-0.104 0.642-0.133 0.158 0.074 0.217 0.253 0.298 0.396 0.399 0.91 0.92 1.767 1.26 2.705 0.175 0.455 0.453 0.949 0.276 1.444-0.241 0.583-0.83 0.881-1.258 1.305 0.189 0.266 0.421 0.497 0.65 0.731 0.278-0.16 0.539-0.357 0.847-0.451 0.851-0.261 1.76-0.253 2.635-0.135 0.568 0.035 1.098 0.258 1.659 0.32 0.116-0.209 0.241-0.423 0.263-0.667-0.081-0.172-0.241-0.283-0.389-0.386-0.355-0.236-0.724-0.457-1.044-0.738-0.349-0.329-0.371-0.837-0.512-1.27-0.285-0.92-0.714-1.784-1.083-2.671-0.278-0.699-0.682-1.336-1.016-2.005-0.217-0.45-0.32-0.948-0.379-1.442-0.044-0.33 0.096-0.64 0.123-0.967-0.207-0.129-0.401-0.278-0.621-0.382-0.253 0.037-0.487 0.152-0.743 0.163-0.443 0.027-0.889 0.027-1.332-0.015-0.31-0.026-0.598-0.15-0.91-0.172zM25.662 10.427c-0.755 0.335-1.061 0.65-1.208 0.713-0.145 0.064-0.45 0.232-0.807 0.505s-0.546 0.566-0.546 0.566 0.064 0.212-0.022 0.694c-0.084 0.483-0.126 1.135-0.126 1.135 0.42-0.321 0.85-0.629 1.302-0.903-0.184-0.302-0.15-0.72-0.064-1.051 0.337-0.167 1.031-0.167 1.556 0.232s0.861 0.608 0.987 1.051c0.126 0.44 0.042 0.881 0.042 0.881-0.524 0.399-1.154 1.157-1.363 1.324-0.212 0.167-0.379 0.315-0.672 0.524-0.295 0.209-0.61 0.546-0.945 0.839-0.337 0.295-0.883 0.799-0.883 0.799 0.839-0.064 1.765-0.086 2.584-0.147s1.807 0.022 1.807 0.022c0.039 0.231 0.020 0.586 0.020 0.586 0.106-0.126 0.755-0.062 0.755-0.062 0.064-0.861 0.883-2.289 0.883-2.289l-0.421-0.484c-0.231 0.275-0.504 0.694-0.504 0.694-0.418-0.020-0.798 0.084-1.029 0.125s-0.777-0.020-0.777-0.020c0.401-0.61 1.89-2.080 1.89-2.080 0.086-0.987 0.022-1.511 0.022-1.511-0.284-0.337-0.694-0.864-0.839-1.009-0.148-0.147-0.63-0.408-0.842-0.63-0.268-0.28-0.798-0.504-0.798-0.504zM22.135 10.548c-0.61 0.204-1.181 0.507-1.774 0.753v0c-0.362 0.168-0.948 0.34-1.273 0.576-0.009 0.178 0.008 0.434 0.023 0.611 0.381 0.035 0.979-0.054 1.363-0.022 0.096-0.005 0.039 0.165 0.042 0.251 0.096 1.605 0.059 3.522-0.019 5.126 0.106-0.049 0.411-0.307 0.482-0.401 0.298-0.357 0.593-0.598 0.945-0.903 0.099-0.091 0.202-0.288 0.19-0.44 0.013-0.869-0.037-2.014-0.027-2.882 0.059-0.888 0.022-1.779 0.049-2.667zM24.255 13.136v0z"></path>
</svg>
