<!-- Generated by IcoMoon.io -->
<svg version="1.1" xmlns="http://www.w3.org/2000/svg" width="32" height="32" viewBox="0 0 32 32">
<title>m13</title>
<path fill="#444" d="M29.657 7.6c1.331 2.473 2.093 5.341 2.093 8.4s-0.762 5.927-2.093 8.4h-27.315c-1.331-2.473-2.093-5.341-2.093-8.4s0.762-5.927 2.093-8.4h27.315zM29.031 8.597h-26.063l-0.265 0.586c-0.966 2.136-1.456 4.429-1.456 6.816 0 2.43 0.508 4.761 1.508 6.928l0.268 0.579h25.954l0.268-0.579c1.001-2.168 1.508-4.499 1.508-6.928 0-2.387-0.49-4.681-1.456-6.817l-0.265-0.586zM28.388 9.595c0.876 1.936 1.368 4.109 1.368 6.405 0 2.338-0.51 4.547-1.416 6.51h-24.678c-0.209-0.47-0.417-0.943-0.57-1.435 0.87-0.552 1.969-0.49 2.952-0.385v-0.683c-0.866-0.227-0.831-1.085-0.586-1.82 0.246-0.739 0.629-1.427 0.936-2.146 0.107-0.249 0.058-0.451-0.175-0.558-0.222-0.102-0.423-0.213-0.626-0.311-0.287-0.138-0.552 0.036-0.662 0.257-0.432 0.875-0.665 1.792-1.008 2.743-0.26 0.699-0.585 1.406-1.128 1.935-0.381-1.318-0.509-2.714-0.549-4.108 0-2.296 0.492-4.469 1.368-6.405h24.776zM5.342 10.776c-0.236 0.249-0.42 0.551-0.49 0.884 0.844 0.105 1.466 0.206 1.164 0.989-0.164 0.427-0.342 0.826-0.525 1.216-0.104 0.222-0.081 0.468 0.175 0.639 0.172 0.114 0.543 0.301 0.735 0.376 0.258 0.101 0.417-0.004 0.499-0.192 0.060-0.138 0.195-0.408 0.263-0.543 0.127-0.253 0.35-0.198 0.507 0.026 1.004 1.429 1.953 3.425 2.546 5.81 0.164 0.66 0.158 1.199-0.044 1.531 0.29 0.215 0.614 0.366 0.971 0.455 0.421-0.791 1.152-1.415 2.144-1.899-0.204-0.812-0.465-1.613-0.805-2.398-0.343-1.104-0.136-1.681 0.21-2.117 0.094-0.12 0.097-0.277 0-0.43-0.185-0.292-0.387-0.523-0.595-0.699-0.147-0.124-0.339-0.15-0.499 0.009-0.094 0.093-0.176 0.199-0.289 0.28-1.138-1.348-2.109-2.791-2.468-3.806l-3.5-0.131zM15.536 10.454c-0.403 0.4-2.004 0.409-2.837 0-0.194 0.332-0.389 0.59-0.584 0.827 0.521 0.221 0.938 0.477 1.247 0.743 0.206 0.178 0.21 0.37 0.075 0.585-0.263 0.418-0.517 0.752-0.806 1.002-0.151 0.13-0.127 0.35-0.035 0.525 0.202 0.383 0.516 0.625 0.831 0.788 0.261-0.261 0.522-0.351 0.674-0.061 0.557 1.065 0.974 2.145 1.479 3.141 0.441 0.871 0.327 1.471-0.166 1.873-0.345 0.281-0.677 0.514-0.945 0.788 0.226 0.235 0.464 0.46 0.717 0.674 1.158-0.945 2.914-0.894 5.049-0.21 0.083-0.254 0.194-0.499 0.332-0.735-0.748-0.672-1.529-0.834-1.802-1.488-0.145-0.345-0.217-1.044-0.393-1.489-0.578-1.46-1.121-2.553-2.022-4.408-0.404-0.832-0.313-1.641-0.105-2.091-0.302-0.129-0.536-0.284-0.709-0.462zM28.172 10.549l-4.708 0.14c-0.031 0.514-0.223 0.935-0.49 1.313 1.022-0.136 2.101-0.176 3.255-0.087l-2.678 2.301 0.324 0.586c1.436 0.13 2.863 0.269 3.334 1.383 0.041 0.327 0.042 0.653-0.009 0.98-0.199 0.319-0.547 0.593-1.033 0.849-0.61 0.321-1.46-0.062-2.056-0.696-0.283-0.108-0.572-0.172-0.806-0.25l-0.262 0.569 2.721 1.724c0.735-0.678 1.533-1.262 2.441-1.68 0.11-0.61 0.173-1.236 0.175-1.881-0.446-1.103-1.409-1.619-2.643-1.899l2.433-3.351zM22.051 10.549c-0.821 0.532-1.815 0.976-2.901 1.374v0.604h1.461v5.215l1.439-1.439v-5.753zM3.086 21.061l0.005 0.014-0.005-0.014 0-0z"></path>
</svg>
