<!-- Generated by IcoMoon.io -->
<svg version="1.1" xmlns="http://www.w3.org/2000/svg" width="32" height="32" viewBox="0 0 32 32">
<title>m14</title>
<path fill="#444" d="M29.657 7.6c1.331 2.473 2.093 5.341 2.093 8.4s-0.762 5.928-2.093 8.4h-27.315c-1.331-2.473-2.093-5.341-2.093-8.4s0.762-5.928 2.093-8.4h27.315zM29.032 8.597h-26.063l-0.265 0.586c-0.966 2.136-1.456 4.429-1.456 6.816 0 2.429 0.508 4.761 1.508 6.928l0.267 0.58h25.954l0.267-0.58c1.001-2.168 1.508-4.499 1.508-6.928 0-2.387-0.49-4.681-1.456-6.817l-0.265-0.586zM28.388 9.595c0.876 1.937 1.368 4.11 1.368 6.405 0 2.338-0.51 4.547-1.417 6.51h-24.678c-0.222-0.465-0.4-0.949-0.57-1.434l0-0.001c0.892-0.546 1.953-0.486 2.951-0.384v-0.682c-0.866-0.228-0.831-1.085-0.586-1.821 0.246-0.739 0.628-1.427 0.936-2.145 0.106-0.249 0.058-0.452-0.175-0.559-0.222-0.101-0.423-0.213-0.626-0.31-0.287-0.138-0.552 0.036-0.662 0.257-0.432 0.875-0.665 1.792-1.008 2.743-0.265 0.689-0.575 1.42-1.128 1.935v0c-0.386-1.335-0.53-2.723-0.549-4.108 0-2.296 0.492-4.469 1.368-6.405l24.776-0zM5.342 10.776c-0.236 0.249-0.42 0.551-0.49 0.884 0.844 0.105 1.465 0.205 1.164 0.988-0.164 0.427-0.342 0.827-0.525 1.217-0.104 0.222-0.081 0.468 0.175 0.638 0.172 0.115 0.543 0.301 0.735 0.376 0.258 0.101 0.417-0.004 0.499-0.192 0.060-0.138 0.195-0.408 0.262-0.543 0.127-0.253 0.349-0.198 0.507 0.026 1.004 1.43 1.953 3.426 2.546 5.811 0.164 0.66 0.158 1.199-0.044 1.531 0.29 0.215 0.614 0.366 0.971 0.455 0.421-0.791 1.152-1.415 2.144-1.898-0.203-0.813-0.464-1.613-0.805-2.398-0.343-1.104-0.135-1.681 0.21-2.118 0.094-0.119 0.096-0.278 0-0.43-0.185-0.291-0.386-0.523-0.595-0.699-0.147-0.124-0.339-0.15-0.499 0.008-0.094 0.094-0.176 0.2-0.289 0.28-1.138-1.347-2.109-2.791-2.468-3.806l-3.5-0.131zM15.536 10.454c-0.402 0.4-2.004 0.409-2.837 0-0.194 0.332-0.388 0.59-0.584 0.827 0.521 0.221 0.938 0.477 1.247 0.743 0.206 0.178 0.21 0.371 0.075 0.585-0.263 0.418-0.517 0.752-0.805 1.001-0.15 0.13-0.127 0.35-0.035 0.525 0.203 0.383 0.515 0.625 0.831 0.788 0.261-0.261 0.523-0.35 0.674-0.061 0.557 1.065 0.974 2.145 1.479 3.141 0.441 0.871 0.327 1.471-0.166 1.873-0.344 0.281-0.677 0.513-0.945 0.788 0.226 0.235 0.464 0.459 0.718 0.673 1.158-0.945 2.914-0.893 5.049-0.21 0.083-0.253 0.194-0.498 0.332-0.735-0.748-0.671-1.529-0.834-1.802-1.487-0.145-0.345-0.217-1.044-0.393-1.49-0.578-1.46-1.121-2.553-2.022-4.409-0.404-0.832-0.313-1.641-0.105-2.092-0.302-0.129-0.536-0.284-0.709-0.461v0zM26.476 10.161c-0.192 2.597-3.759 5.906-3.795 5.861l0.633 0.457c1.201-0.156 2.473-0.231 2.999-0.256 0.077 0.639-0.035 2.181-0.105 2.782 0.93-0.508 1.683-0.423 1.683-0.423s-0.177-1.748-0.107-2.338c0.311-0.027 0.37-0.050 0.822 0.068 0.229-0.357 0.578-1.056 0.578-1.056l-0.291-0.376-0.277 0.245-0.803 0c0.028-1.946-0.196-3.139 0.135-4.152l-1.471-0.812zM26.348 13.056v0c0.026 0.734 0.029 0.631 0.018 1.575-0.002 0.175-0.012 0.35-0.018 0.525 0 0-1.375 0.085-1.588 0.011 0.61-0.639 1.11-1.371 1.588-2.111v0 0-0zM22.051 10.548c-0.821 0.532-1.815 0.976-2.901 1.374v0.604h1.461v5.215l1.44-1.439v-5.754z"></path>
</svg>
