<!-- Generated by IcoMoon.io -->
<svg version="1.1" xmlns="http://www.w3.org/2000/svg" width="32" height="32" viewBox="0 0 32 32">
<title>m15</title>
<path fill="#444" d="M29.655 7.6c0 0 2.095 4.174 2.095 8.4s-2.095 8.4-2.095 8.4h-27.374c0 0-2.033-4.16-2.031-8.398-0.002-4.242 2.031-8.402 2.031-8.402h27.374zM2.972 8.611c-1.117 2.57-1.7 4.554-1.701 7.386-0 2.835 0.587 4.813 1.7 7.389l26.067 0.001c1.116-2.574 1.704-4.555 1.704-7.39 0.001-2.831-0.587-4.813-1.703-7.384l-26.067-0.001zM3.609 9.58l24.79 0.002c0.914 2.17 1.369 4.005 1.371 6.417-0.003 2.412-0.457 4.242-1.371 6.416l-24.785-0.002c-0.203-0.477-0.382-0.937-0.539-1.393 0.898-0.467 2.004-0.505 2.99-0.352l0.001-0.738-0.228-0.091c-0.061-0.036-0.157-0.095-0.269-0.199-0.677-0.61 0.509-2.887 0.822-3.59 0.154-0.404-0.007-0.592-0.264-0.704l-0.521-0.235c-0.232-0.133-0.528-0.131-0.65 0.212-0.406 0.779-0.637 1.63-0.938 2.454-0.335 0.894-0.607 1.637-1.247 2.262-0.351-1.269-0.526-2.544-0.523-4.044-0-2.407 0.448-4.241 1.363-6.415zM5.376 10.735l-0.287 0.368-0.196 0.263c-0.085 0.117 0.030 0.338 0.245 0.376l0.277 0.057c0.226 0.053 0.445 0.117 0.551 0.187 0.244 0.156-0.338 1.547-0.434 1.797-0.232 0.414-0.076 0.603 0.231 0.756l0.532 0.25c0.336 0.149 0.57 0.052 0.691-0.27l0.118-0.267c0.055-0.099 0.1-0.179 0.142-0.228l0.169-0.055c1.178 0.662 3.093 5.567 2.84 7.239l-0.071 0.271 0.928 0.519c0.365-0.793 1.311-1.71 2.187-1.868-0.113-0.569-0.267-1.102-0.463-1.639-0.305-0.84-0.867-2.026-0.234-2.841 0.171-0.208 0.272-0.476 0.014-0.74l-0.413-0.462c-0.213-0.196-0.491-0.185-0.713 0.024l-0.182 0.146c-0.706-0.511-1.059-1.335-1.527-2.062-0.353-0.535-0.858-1.061-0.886-1.726l-3.519-0.097zM12.652 10.45l-0.55 0.851c0.28 0.142 1.598 0.685 1.419 1.039-0.415 0.798-0.701 1.077-0.822 1.183-0.219 0.2-0.235 0.474-0.008 0.747l0.37 0.41c0.242 0.241 0.444 0.206 0.683 0.045 0.094-0.046 0.22-0.102 0.351 0.163 0.545 1.137 1.363 2.625 1.68 3.815 0.212 0.789-0.842 1.433-1.322 1.843l0.678 0.737c1.343-1.071 3.715-0.692 5.125-0.232l0.287-0.682c-0.126-0.16-0.251-0.291-0.417-0.414l-0.396-0.269c-0.274-0.181-0.524-0.344-0.691-0.523-0.284-0.31-0.314-0.598-0.405-0.997-0.223-0.948-1.463-3.646-1.896-4.392-0.534-0.936-0.801-2.037-0.53-2.717l0.033-0.171-0.652-0.377c-0.709 0.311-2.198 0.243-2.935-0.060zM27.89 10.139l-0.035 0.051-0.344 0.499-3.256 0.002-0.011 0.104-0.441 4.011 0.13-0c2.239 0.004 3.060 0.899 3.189 1.63l0.019 0.211c-0.009 0.657-0.33 1.060-0.927 1.172-0.093 0.016-0.192 0.025-0.298 0.025-0.66-0.006-1.119-0.391-1.229-0.995-0.015-0.084-0.022-0.173-0.022-0.266l0-0.087-0.202-0.060-0.048 0.072-0.879 1.314 0.067 0.068c0.52 0.53 1.28 0.849 2.124 0.845 0.241 0.001 0.466-0.019 0.677-0.056 1.415-0.244 2.13-1.308 2.125-2.5 0-0.16-0.014-0.322-0.042-0.481-0.219-1.261-1.354-2.372-3.57-2.434l0.118-1.182 3.080-0.002 0-0.117 0-1.82-0.225-0.001zM21.987 10.578l-0.034 0.031c-0.67 0.614-1.849 1.24-2.536 1.403l-0.088 0.021-0.001 0.090-0.003 0.229 1.158-0.001 0.002 5.544-1.156 0.42-0.001 0.080-0.002 0.11-0.001 0.118 4.087-0 0.003-0.114 0.005-0.203-0.094-0.021c-0.59-0.137-0.908-0.416-1.025-1.039-0.025-0.141-0.038-0.3-0.037-0.478l-0.003-6.188-0.115-0.002-0.157-0.002z"></path>
</svg>
