<!-- Generated by IcoMoon.io -->
<svg version="1.1" xmlns="http://www.w3.org/2000/svg" width="32" height="32" viewBox="0 0 32 32">
<title>m19</title>
<path fill="#444" d="M1.47 9.314c9.677 0.010 19.355-0.005 29.032 0.007 0.677 1.657 1.193 3.388 1.399 5.17 0.372 2.799-0.351 5.607-1.401 8.186-9.676 0.016-19.352-0-29.029 0.008-1.227-2.955-1.879-6.274-1.193-9.445 0.259-1.346 0.654-2.665 1.192-3.926zM6.372 10.799c-1.283 0.020-0.734 0.002-1.65 0.039 0.547 0.303 1.187 0.523 1.541 1.073 0.146 0.267 0.068 0.6-0.039 0.87-0.893 1.982-1.758 3.975-2.647 5.958-0.393 0.786-0.964 1.467-1.593 2.074 1.618 0.050 3.238 0.038 4.856 0.002-0.451-0.387-0.973-0.718-1.256-1.261-0.227-0.352-0.182-0.808-0.013-1.175 0.54-1.247 1.099-2.487 1.651-3.729 0.037-0.003 0.112-0.008 0.15-0.011 0.798 1.877 1.548 3.774 2.329 5.658 0.172 0.42 0.321 0.854 0.552 1.247 1.042-2.289 2.041-4.598 3.065-6.895 0.037-0.002 0.112-0.006 0.149-0.008 0.582 1.313 1.089 2.658 1.652 3.98 0.202 0.455 0.308 0.996 0.104 1.469-0.16 0.293-0.433 0.499-0.66 0.738 1.799 0.011 3.599 0.038 5.398-0.018-0.598-0.607-1.146-1.283-1.47-2.079-0.827-2.023-1.652-4.048-2.485-6.069-0.129-0.357-0.266-0.753-0.121-1.127 0.135-0.307 0.436-0.495 0.669-0.723-1.671-0.011-3.343-0.030-5.014 0.013 0.362 0.265 0.786 0.491 0.985 0.915 0.081 0.389-0.074 0.766-0.233 1.113-0.386 0.833-0.741 1.68-1.131 2.511-0.037-0.003-0.112-0.009-0.149-0.012-0.406-0.98-0.803-1.963-1.207-2.945-0.226-0.537-0.419-1.089-0.684-1.609-1.65 0.007-0.733 0.005-2.751-0.001zM22.849 10.716h-0.107q-0.503 0.455-1.267 0.87t-1.315 0.554v0.113h1.13l0.021 0.032v5.693l-1.151 0.418v0.107h3.84v-0.107q-0.584-0.128-0.868-0.514t-0.284-1.114v-6.051zM26.897 10.716q-0.645 0-1.215 0.328t-0.922 0.906-0.351 1.265q0 1.020 0.602 1.677t1.579 0.658h0.38l0.972-0.386q-0.18 1.469-0.919 2.184t-2.055 0.726v0.428q0.792 0 1.492-0.177t1.294-0.547 1.022-0.906 0.668-1.294 0.24-1.672q0-0.676-0.161-1.226t-0.431-0.909-0.634-0.602-0.753-0.349-0.811-0.106zM26.875 11.255q0.565 0 0.851 0.679t0.285 2.19q0 0.28-0.048 0.887h-0.602q-0.729 0-1.056-0.526t-0.328-1.672q0-0.391 0.098-0.74t0.306-0.584 0.494-0.235z"></path>
</svg>
