<!-- Generated by IcoMoon.io -->
<svg version="1.1" xmlns="http://www.w3.org/2000/svg" width="32" height="32" viewBox="0 0 32 32">
<title>m20</title>
<path fill="#444" d="M1.47 9.314c9.677 0.010 19.355-0.005 29.032 0.007 0.677 1.657 1.193 3.388 1.399 5.17 0.372 2.799-0.351 5.607-1.401 8.186-9.676 0.016-19.352-0-29.029 0.008-1.227-2.955-1.879-6.274-1.193-9.445 0.259-1.346 0.654-2.665 1.192-3.926zM21.738 10.621c-0.849 0.022-1.64 0.408-2.256 0.976 0.446 0.551 0.884 1.109 1.318 1.671 0.058-0.056 0.116-0.112 0.174-0.167-0.089-0.454-0.13-0.992 0.169-1.378 0.203-0.268 0.587-0.291 0.89-0.22 0.344 0.115 0.527 0.494 0.546 0.837 0.029 0.786-0.288 1.529-0.662 2.203-0.678 1.225-1.567 2.313-2.451 3.391-0.128 0.118-0.148 0.287-0.155 0.449 1.687 0.001 3.374-0 5.061 0-0.004-0.88 0.017-1.761-0.024-2.641-0.445 0.265-0.527 0.829-0.751 1.256-0.756 0.004-1.512 0.006-2.267-0.009 0.81-0.998 1.808-1.832 2.557-2.88 0.451-0.65 0.668-1.553 0.281-2.283-0.445-0.877-1.508-1.21-2.429-1.204zM27.711 10.628c-0.689 0.011-1.397 0.259-1.87 0.774-0.702 0.727-0.967 1.756-1.050 2.736-0.017 1.010 0.080 2.075 0.609 2.96 0.304 0.569 0.837 0.998 1.437 1.223 0.999 0.352 2.217 0.053 2.879-0.793 0.837-1.014 1.005-2.415 0.874-3.682-0.096-0.924-0.402-1.879-1.107-2.522-0.466-0.461-1.118-0.711-1.772-0.696zM4.722 10.837c0.547 0.303 1.187 0.523 1.541 1.073 0.146 0.267 0.068 0.6-0.039 0.87-0.893 1.982-1.758 3.975-2.647 5.958-0.393 0.786-0.964 1.467-1.593 2.074 1.618 0.050 3.238 0.038 4.856 0.002-0.451-0.387-0.973-0.718-1.256-1.261-0.227-0.352-0.182-0.808-0.013-1.175 0.54-1.247 1.099-2.487 1.651-3.729 0.037-0.003 0.112-0.008 0.15-0.011 0.798 1.877 1.548 3.774 2.329 5.658 0.172 0.42 0.321 0.854 0.552 1.247 1.042-2.289 2.041-4.598 3.065-6.895 0.037-0.002 0.112-0.006 0.149-0.008 0.582 1.313 1.089 2.658 1.652 3.98 0.202 0.455 0.308 0.996 0.104 1.469-0.16 0.293-0.433 0.499-0.66 0.738 1.799 0.011 3.599 0.038 5.398-0.018-0.598-0.607-1.146-1.283-1.47-2.079-0.827-2.023-1.652-4.048-2.485-6.069-0.129-0.357-0.266-0.753-0.121-1.127 0.135-0.307 0.436-0.495 0.669-0.723-1.671-0.011-3.343-0.030-5.014 0.013 0.362 0.265 0.786 0.491 0.985 0.915 0.081 0.389-0.074 0.766-0.233 1.113-0.386 0.833-0.741 1.68-1.131 2.511-0.037-0.003-0.112-0.009-0.149-0.012-0.406-0.98-0.803-1.963-1.207-2.945-0.226-0.537-0.419-1.089-0.684-1.609-1.467 0.021-2.935-0.035-4.401 0.038zM27.465 11.437c-0.311 0.053-0.476 0.385-0.574 0.653-0.104 0.381-0.172 0.773-0.182 1.169-0.059 1-0.044 2.005 0.046 3.003 0.049 0.427 0.109 0.889 0.408 1.223 0.199 0.21 0.522 0.183 0.785 0.176 0.404-0.091 0.545-0.506 0.638-0.858 0.228-1.115 0.13-2.259 0.127-3.388-0.051-0.6-0.046-1.269-0.41-1.782-0.205-0.243-0.549-0.252-0.838-0.197z"></path>
</svg>
