<!-- Generated by IcoMoon.io -->
<svg version="1.1" xmlns="http://www.w3.org/2000/svg" width="32" height="32" viewBox="0 0 32 32">
<title>m21</title>
<path fill="#444" d="M5.94 3.805l-0.312 2.659-0.010 0.011-0.176 1.5 0.010-0.011-1.414 12.059 7.281 0.855c-0.025 0.331-0.052 0.662-0.082 0.993l-0.134 1.139c-0.093 0.509-0.192 1.146-0.67 1.449-0.306 0.194-0.68 0.192-1.028 0.17-3.243-0.27-7.48-4.706-6.924-10.316 0.158-1.596 0.718-2.836 1.476-4.218 0.034-0.117 0.028-0.066 0.039-0.174 0-0.201-0.163-0.364-0.364-0.364-0.15 0.004-0.272 0.085-0.33 0.222-1.025 1.986-1.501 4.185-1.529 6.411-0.004 5.599 3.431 10.863 8.6 13.049l-0.215 1.831c-6.178-2.303-10.075-8.387-10.158-14.88-0.001-4.817 2.235-9.343 5.94-12.384zM7.446 0.217l-2.213 18.866 13.217 1.564c0 0 0.624-5.719 0.682-5.754 0.254-0.152 1.046-0.031 1.046-0.031l0.041 0.007c0.071 0.012 0.142 0.026 0.213 0.039 2.776 0.6 4.376 4.090 3.575 7.795s-3.701 6.221-6.477 5.621c-3.099-0.761-4.073-4.339-3.685-7.145l0.994 0.119c-0.35 2.275 0.407 5.289 2.929 5.927 2.235 0.483 4.59-1.636 5.26-4.734s-0.599-6.001-2.834-6.484c-0.076-0.014-0.039-0.007-0.109-0.020l-0.698 5.855-1.066-0.127 0-0.002-6.061-0.723-1.084 9.241 13.235 1.552 2.213-18.866-13.235-1.552-0.702 5.989c-0.082 0.007-0.165 0.018-0.247 0.020-0.322 0.008-0.646-0.014-0.961-0.082-2.776-0.6-4.376-4.090-3.575-7.795 0.672-2.865 2.531-5.54 5.695-5.709 0.61 0.048 0.35 0.010 0.782 0.088 2.98 0.751 4.109 4.206 3.709 6.974l1.505 0.177 1.086-9.256-13.235-1.552zM13.514 4.906c-2.552 0.122-4.096 2.535-4.63 4.802-0.67 3.098 0.599 6.001 2.834 6.484l0.2 0.036 0.706-6.020 4.472 0.525c0.314-2.229-0.509-5.146-2.953-5.758-0.348-0.063-0.139-0.032-0.63-0.069zM26.060 28.412c3.704-3.041 5.941-7.568 5.94-12.384-0.082-6.492-3.98-12.577-10.158-14.88l-0.215 1.831c5.169 2.186 8.605 7.45 8.6 13.049-0.028 2.226-0.505 4.426-1.529 6.411-0.058 0.137-0.18 0.217-0.33 0.222-0.201 0-0.364-0.163-0.364-0.364 0.011-0.108 0.005-0.057 0.039-0.174 0.758-1.383 1.318-2.622 1.476-4.218 0.556-5.611-3.681-10.046-6.924-10.316-0.348-0.022-0.721-0.024-1.028 0.17-0.478 0.303-0.578 0.94-0.67 1.449l-0.134 1.139c-0.030 0.331-0.056 0.662-0.082 0.993l-0 0.001 7.281 0.854-1.414 12.059 0.010-0.011-0.176 1.5-0.010 0.011-0.312 2.659z"></path>
</svg>
