<!-- Generated by IcoMoon.io -->
<svg version="1.1" xmlns="http://www.w3.org/2000/svg" width="32" height="32" viewBox="0 0 32 32">
<title>m21</title>
<path fill="#444" d="M1.46 9.33c9.68 0 19.358 0 29.036 0 1.092 2.653 1.8 5.563 1.384 8.44-0.235 1.686-0.723 3.33-1.378 4.901-9.684-0.004-19.367 0.002-29.051-0.004-1.079-2.687-1.749-5.63-1.318-8.529 0.228-1.652 0.71-3.26 1.327-4.808zM19.384 11.568c0.488 0.621 0.968 1.249 1.481 1.851 0.323-0.524-0.104-1.234 0.363-1.692 0.304-0.344 0.906-0.272 1.137 0.118 0.304 0.488 0.139 1.103-0.025 1.612-0.45 1.213-1.225 2.269-2.007 3.287-0.401 0.541-0.913 1.006-1.179 1.637 1.749 0.034 3.497 0.006 5.246 0.015-0.066-0.928 0.161-1.901-0.158-2.795-0.275 0.418-0.499 0.866-0.703 1.322-0.689 0.002-1.38 0.006-2.070-0.006 0.811-0.947 1.775-1.768 2.487-2.799 0.604-0.854 0.678-2.22-0.19-2.926-1.291-1.010-3.241-0.737-4.384 0.376zM25.678 11.98c0.002 0.146 0.004 0.291 0.006 0.435 0.363 0 0.725 0 1.090 0.002 0 1.72 0 3.441 0 5.161-0.42 0.213-1.126 0.209-1.16 0.811 1.394 0.011 2.787 0.013 4.183-0.002-0.095-0.651-1.069-0.568-1.126-1.276-0.116-2.203-0.002-4.42-0.055-6.63-1.010 0.435-1.838 1.236-2.937 1.5zM4.621 10.788c0.568 0.488 1.527 0.659 1.699 1.492-0.792 2.049-1.766 4.029-2.628 6.051-0.385 0.978-1.092 1.766-1.802 2.518 1.686 0.025 3.372 0.028 5.058-0.004-0.53-0.49-1.219-0.908-1.441-1.637-0.114-0.374 0.108-0.737 0.241-1.073 0.535-1.154 1.020-2.332 1.561-3.482 0.982 2.326 1.895 4.68 2.892 7.003 0.19-0.279 0.351-0.577 0.492-0.885 0.896-2.032 1.779-4.073 2.71-6.089 0.636 1.483 1.274 2.972 1.832 4.485 0.258 0.697-0.298 1.268-0.778 1.684 1.876 0.025 3.752 0.019 5.628 0.002-0.606-0.636-1.217-1.304-1.534-2.14-0.864-2.165-1.798-4.305-2.622-6.482-0.237-0.648 0.344-1.094 0.759-1.473-1.747 0.002-3.496-0.025-5.244 0.015 0.391 0.393 0.997 0.665 1.088 1.266-0.401 1.143-0.968 2.222-1.432 3.34-0.676-1.515-1.204-3.101-1.935-4.589-1.511-0.070-3.032-0.049-4.544-0.002z"></path>
</svg>
