<!-- Generated by IcoMoon.io -->
<svg version="1.1" xmlns="http://www.w3.org/2000/svg" width="24" height="32" viewBox="0 0 24 32">
<title>m3c-inner</title>
<path fill="#444" d="M10.9 6.91c0.504-0.111 1.024-0.163 1.539-0.107 0.826 0.086 1.621 0.357 2.382 0.681 1.377 0.6 2.664 1.388 3.897 2.242 1.17 0.814 2.293 1.694 3.373 2.624-1.738 0.823-3.343 1.967-4.589 3.441-0.243 0.292-0.476 0.594-0.661 0.927 0.206 0.38 0.42 0.756 0.629 1.135-0.483 0.153-0.881 0.537-1.061 1.009-0.219 0.541-0.156 1.206 0.225 1.66 0.533 0.627 1.561 0.765 2.233 0.283 0.455-0.317 0.745-0.81 0.957-1.311 0.044 0.612-0.065 1.248-0.383 1.78-0.289 0.495-0.742 0.887-1.265 1.119-0.662 0.297-1.43 0.348-2.126 0.145-0.69-0.199-1.318-0.648-1.687-1.269-0.305-0.514-0.375-1.14-0.273-1.723 0.154-0.867 0.579-1.669 1.127-2.35-0.339-0.214-0.684-0.416-1.025-0.625 0.597-0.545 0.989-1.313 1.059-2.12 0.065-0.675-0.088-1.368-0.433-1.952-0.361-0.616-0.929-1.107-1.59-1.376-0.716-0.294-1.539-0.32-2.271-0.068-0.73 0.246-1.364 0.759-1.759 1.42-0.388 0.642-0.539 1.421-0.427 2.162 0.108 0.741 0.489 1.434 1.042 1.936-0.345 0.204-0.686 0.413-1.027 0.624 0.449 0.556 0.809 1.19 1.018 1.876 0.165 0.547 0.221 1.145 0.054 1.699-0.13 0.447-0.408 0.843-0.76 1.145-0.574 0.507-1.351 0.77-2.114 0.742-0.625-0.020-1.246-0.231-1.742-0.613-0.43-0.331-0.758-0.793-0.924-1.31-0.13-0.399-0.167-0.824-0.139-1.241 0.233 0.547 0.564 1.095 1.095 1.397 0.483 0.281 1.097 0.255 1.592 0.020 0.346-0.164 0.624-0.465 0.753-0.826 0.203-0.543 0.090-1.181-0.259-1.64-0.205-0.278-0.501-0.483-0.827-0.591 0.21-0.378 0.42-0.757 0.632-1.134-0.247-0.434-0.564-0.822-0.895-1.195-1.212-1.341-2.719-2.4-4.35-3.171 0.476-0.433 0.983-0.832 1.487-1.233 1.065-0.839 2.169-1.63 3.324-2.341 0.689-0.424 1.399-0.816 2.133-1.155 0.655-0.299 1.333-0.558 2.038-0.714z"></path>
</svg>
