<!-- Generated by IcoMoon.io -->
<svg version="1.1" xmlns="http://www.w3.org/2000/svg" width="24" height="32" viewBox="0 0 24 32">
<title>m3c</title>
<path fill="#444" d="M4.444 2.556c5.038-0.001 10.077-0 15.115 0-1.092 1.474-1.95 3.115-2.605 4.826 0.237 0.124 0.466 0.265 0.696 0.403 0.686-1.782 1.579-3.499 2.753-5.010 1.052 1.225 2.103 2.45 3.154 3.676-1.355 0.701-2.436 1.892-3.038 3.29 0.22 0.171 0.442 0.34 0.664 0.509 0.982 0.75 1.915 1.563 2.816 2.41-0.711 0.312-1.433 0.601-2.115 0.975-0.272 0.144-0.535 0.305-0.799 0.462-0.278 0.155-0.533 0.347-0.794 0.528 0.39 1.222 1.131 2.332 2.127 3.143 0.375 0.311 0.791 0.572 1.224 0.796-0.422 1.38-1.017 2.708-1.795 3.924-1.047 1.645-2.425 3.071-4.003 4.212-0.33-0.985-0.619-1.983-0.86-2.994-0.281-0.001-0.562-0.020-0.838-0.072 0.279 1.196 0.618 2.377 1.014 3.54-1.245 0.811-2.593 1.464-4 1.941-0.383 0.125-0.767 0.249-1.162 0.33-0.509-0.108-1.005-0.274-1.495-0.446-1.286-0.466-2.52-1.078-3.666-1.825 0.394-1.163 0.74-2.343 1.014-3.54-0.276 0.052-0.556 0.072-0.836 0.072-0.244 1.010-0.531 2.009-0.861 2.994-1.088-0.789-2.083-1.709-2.938-2.747-1.306-1.579-2.268-3.432-2.861-5.391 0.852-0.424 1.608-1.036 2.199-1.78 0.511-0.64 0.9-1.375 1.151-2.154-0.257-0.186-0.515-0.371-0.789-0.531-0.338-0.204-0.679-0.404-1.031-0.584-0.613-0.319-1.256-0.576-1.887-0.855 0.902-0.846 1.838-1.656 2.82-2.409 0.219-0.17 0.441-0.337 0.661-0.505-0.6-1.4-1.684-2.591-3.038-3.294 1.052-1.226 2.104-2.451 3.156-3.676 1.171 1.514 2.067 3.228 2.752 5.011 0.231-0.137 0.463-0.274 0.698-0.405-0.656-1.71-1.514-3.348-2.604-4.824zM10.9 6.91c-0.705 0.156-1.382 0.415-2.038 0.714-0.734 0.34-1.444 0.732-2.133 1.155-1.155 0.711-2.259 1.502-3.324 2.341-0.504 0.401-1.010 0.8-1.487 1.233 1.631 0.771 3.138 1.83 4.35 3.171 0.331 0.373 0.647 0.761 0.895 1.195-0.211 0.378-0.422 0.756-0.632 1.134 0.327 0.108 0.623 0.313 0.827 0.591 0.349 0.459 0.462 1.097 0.259 1.64-0.13 0.361-0.408 0.662-0.753 0.826-0.495 0.235-1.109 0.261-1.592-0.020-0.531-0.302-0.862-0.849-1.095-1.397-0.028 0.417 0.009 0.842 0.139 1.241 0.166 0.517 0.494 0.979 0.924 1.31 0.496 0.382 1.118 0.594 1.742 0.613 0.763 0.027 1.54-0.235 2.114-0.742 0.352-0.302 0.629-0.697 0.76-1.145 0.167-0.554 0.111-1.152-0.054-1.699-0.209-0.686-0.569-1.32-1.018-1.876 0.341-0.211 0.682-0.42 1.027-0.624-0.554-0.502-0.934-1.195-1.042-1.936-0.112-0.741 0.039-1.52 0.427-2.162 0.395-0.661 1.030-1.174 1.759-1.42 0.732-0.252 1.555-0.226 2.271 0.068 0.662 0.269 1.23 0.76 1.59 1.376 0.345 0.584 0.498 1.277 0.433 1.952-0.070 0.807-0.463 1.575-1.059 2.12 0.341 0.209 0.686 0.411 1.025 0.625-0.549 0.681-0.974 1.483-1.127 2.35-0.102 0.583-0.032 1.209 0.273 1.723 0.369 0.622 0.997 1.070 1.687 1.269 0.697 0.203 1.464 0.152 2.126-0.145 0.523-0.232 0.976-0.624 1.265-1.119 0.317-0.532 0.426-1.168 0.383-1.78-0.212 0.5-0.502 0.994-0.957 1.311-0.672 0.482-1.7 0.343-2.233-0.283-0.381-0.453-0.445-1.119-0.225-1.66 0.181-0.472 0.578-0.856 1.061-1.009-0.209-0.379-0.423-0.754-0.629-1.135 0.185-0.332 0.418-0.635 0.661-0.927 1.246-1.474 2.851-2.618 4.589-3.441-1.080-0.93-2.203-1.81-3.373-2.624-1.233-0.855-2.519-1.643-3.897-2.242-0.761-0.324-1.555-0.594-2.382-0.681-0.515-0.056-1.035-0.004-1.539 0.107z"></path>
</svg>
