<!-- Generated by IcoMoon.io -->
<svg version="1.1" xmlns="http://www.w3.org/2000/svg" width="32" height="32" viewBox="0 0 32 32">
<path fill="#444" d="M0 9.555c10.667-0 21.334 0 32 0 0 4.297 0 8.594 0 12.891-10.666 0-21.333 0-32 0 0-4.297-0-8.594 0-12.891zM27.418 10.583c0 3.608-0 7.215 0 10.823 1.199 0 2.398 0 3.598 0-0-0.649 0-1.298-0-1.947-0.553 0-1.106 0-1.659-0 0.001-2.959 0-5.918 0-8.877-0.646 0.001-1.293 0-1.939 0zM0.986 10.585v10.824h1.954c0-1.737-0-3.475 0-5.212 0.295 1.738 0.592 3.475 0.887 5.212 0.346 0 0.693 0 1.040 0 0.263-1.573 0.528-3.145 0.792-4.717 0.026-0.164 0.060-0.327 0.074-0.493 0.005 0.066 0.009 0.132 0.009 0.198 0 1.671-0 3.341 0 5.012 1.255-0 2.511 0 3.766-0 0.076-0.555 0.153-1.11 0.229-1.666 0.505 0 1.010 0 1.515 0 0.077 0.555 0.152 1.11 0.228 1.666 1.235-0.002 2.47 0.003 3.705 0.001 0.001-1.172 0-2.344 0.001-3.515 0.151-0.022 0.301-0.044 0.452-0.066 0.312 1.194 0.626 2.387 0.937 3.581 0.64 0 1.279 0 1.918 0-0.409-1.4-0.82-2.8-1.231-4.199 0.349-0.267 0.616-0.63 0.819-1.017 0.258-0.501 0.399-1.072 0.34-1.636 0.379 2.286 0.763 4.572 1.144 6.857 0.758-0.002 1.517-0.005 2.275-0.006 0.517-3.267 1.036-6.533 1.552-9.8 0.005 3.266 0 6.533 0.002 9.799 1.229 0 2.459 0 3.688 0 0-0.649 0-1.298-0-1.947-0.584-0.001-1.167 0-1.751-0 0-0.827-0-1.654 0-2.482 0.584 0 1.167-0 1.751 0-0-0.659 0-1.318-0-1.977-0.583 0-1.167 0.001-1.751-0-0-0.815 0-1.629-0-2.444 0.584-0.001 1.167 0 1.751-0.001-0-0.657 0-1.315 0-1.973-1.829 0.002-3.659-0.002-5.488 0.002-0.299 2.195-0.6 4.39-0.901 6.585-0.298-2.195-0.594-4.391-0.893-6.586h-1.978c0.073 0.586 0.147 1.171 0.221 1.757-0.295-0.572-0.747-1.070-1.313-1.382-0.446-0.249-0.958-0.371-1.468-0.374h-2.020c-0.006 3.2-0.001 6.399-0.011 9.599-0.095-0.673-0.201-1.344-0.3-2.017-0.38-2.527-0.758-5.055-1.138-7.582-0.863 0.001-1.727-0.003-2.591-0.002-0.498 3.309-0.989 6.618-1.489 9.926-0.004-3.308-0-6.616-0.002-9.924h-2.479c-0.299 1.862-0.596 3.725-0.894 5.588-0.291-1.863-0.58-3.725-0.871-5.588-0.827-0.001-1.654 0-2.481-0.001zM15.186 12.517c0.373 0.004 0.743 0.181 0.965 0.484 0.255 0.341 0.33 0.78 0.336 1.196 0.007 0.452-0.091 0.924-0.367 1.292-0.218 0.294-0.561 0.509-0.934 0.511-0.001-1.161-0.001-2.322 0-3.483zM9.967 18.027c0.179-1.54 0.356-3.080 0.536-4.62 0.186 1.54 0.371 3.080 0.556 4.62-0.364 0-0.728-0-1.092 0z"></path>
</svg>
