<!-- Generated by IcoMoon.io -->
<svg version="1.1" xmlns="http://www.w3.org/2000/svg" width="28" height="32" viewBox="0 0 28 32">
<title>mat</title>
<path fill="#444" d="M16.739 24.956l4.457 3.059c-2.147 1.266-4.63 1.914-7.116 1.927-2.49-0.048-4.964-0.64-7.116-1.927l4.457-3.059 2.659 2.555 2.659-2.555zM14.080 12.756l3.22 3.295-3.22 3.145-3.22-3.145 3.22-3.294zM3.313 5.269l5.774 8.391-2.196 2.356 2.206 2.247-5.846 8.553 8.467-5.933 2.361 2.321 2.361-2.321 8.467 5.933-5.855-8.566 2.274-2.234-2.264-2.343 5.783-8.404-8.422 5.93-2.344-2.424-2.344 2.424-8.422-5.93zM2.067 8.959c-1.362 2.279-2.171 4.927-2.056 7.595 0.099 2.307 0.869 4.567 2.048 6.542l2.987-4.466-2.578-2.578 2.585-2.716-2.985-4.377zM26.093 8.959l-2.981 4.371 2.64 2.728-2.632 2.544 2.984 4.49c1.356-2.274 2.16-4.916 2.045-7.578-0.099-2.314-0.874-4.576-2.056-6.555zM14.080 2.058c-2.489 0.013-4.973 0.664-7.122 1.931l4.452 3.085 2.67-2.67 2.67 2.67 4.453-3.085c-2.127-1.272-4.57-1.868-7.031-1.93l-0.092-0z"></path>
</svg>
