<!-- Generated by IcoMoon.io -->
<svg version="1.1" xmlns="http://www.w3.org/2000/svg" width="18" height="32" viewBox="0 0 18 32">
<title>mb1</title>
<path fill="#444" d="M8.934 0c0.041 0.076 0.047 0.163 0.063 0.246 0.066 0.441 0.091 0.886 0.125 1.33 0.076 1.183 0.137 2.367 0.211 3.55 0.125 1.934 0.268 3.87 0.548 5.79 0.137 0.906 0.3 1.812 0.577 2.686 0.367 0.027 0.734 0.054 1.1 0.094 0.181-0.535 0.27-1.095 0.364-1.651 0.083-0.519 0.153-1.041 0.217-1.563 0.249-2.039 0.423-4.086 0.611-6.131 0.043-0.421 0.071-0.845 0.14-1.263 0.035 0.090 0.043 0.188 0.058 0.283 0.040 0.286 0.071 0.574 0.102 0.861 0.197 1.912 0.37 3.827 0.616 5.734 0.113 0.875 0.238 1.749 0.405 2.616 0.112 0.566 0.232 1.134 0.434 1.677 0.34 0.104 0.678 0.218 1.005 0.358 0.103-0.235 0.18-0.48 0.252-0.726 0.183-0.638 0.31-1.291 0.42-1.944 0.239-1.41 0.379-2.834 0.566-4.252 0.049-0.323 0.082-0.652 0.184-0.964 0.050 0.134 0.065 0.277 0.088 0.417 0.090 0.64 0.152 1.284 0.216 1.927 0.065 0.699 0.135 1.397 0.187 2.096 0.002-0.008 0.006-0.024 0.008-0.032-0.001 0.098 0.009 0.196 0.019 0.294 0.143 1.685 0.281 3.371 0.406 5.058-0.959 0.363-1.866 0.861-2.695 1.463-1.11 0.806-2.075 1.803-2.876 2.916-0.835 1.16-1.495 2.443-1.969 3.791-0.596 1.696-0.933 3.474-1.114 5.26-0.059 0.548-0.095 1.099-0.151 1.647-0.020 0.146-0.024 0.301-0.094 0.434h-0.035c-0.065-0.099-0.069-0.22-0.087-0.333-0.043-0.364-0.067-0.73-0.1-1.094-0.084-0.983-0.204-1.965-0.388-2.935-0.302-1.587-0.757-3.154-1.468-4.608-0.813-1.668-1.933-3.197-3.336-4.417-1.040-0.905-2.235-1.635-3.525-2.124 0.178-2.348 0.366-4.695 0.585-7.040 0.074-0.762 0.145-1.524 0.249-2.282 0.022-0.138 0.039-0.278 0.080-0.412 0.005 0.001 0.016 0.003 0.022 0.004 0.085 0.274 0.118 0.561 0.161 0.844 0.149 1.096 0.261 2.197 0.417 3.293 0.125 0.878 0.265 1.755 0.48 2.616 0.096 0.374 0.202 0.749 0.354 1.105 0.327-0.141 0.666-0.253 1.006-0.359 0.127-0.338 0.218-0.688 0.3-1.039 0.124-0.545 0.222-1.095 0.31-1.647 0.356-2.277 0.564-4.574 0.796-6.867 0.042-0.412 0.083-0.825 0.137-1.236 0.020-0.13 0.031-0.263 0.073-0.389 0.046 0.287 0.071 0.577 0.1 0.866 0.183 1.947 0.345 3.896 0.567 5.839 0.107 0.923 0.221 1.847 0.385 2.762 0.074 0.386 0.147 0.775 0.279 1.147 0.366-0.033 0.732-0.066 1.099-0.091 0.274-0.862 0.435-1.755 0.572-2.648 0.149-1 0.256-2.005 0.345-3.012 0.152-1.717 0.248-3.437 0.346-5.157 0.048-0.762 0.084-1.525 0.165-2.284 0.021-0.169 0.039-0.34 0.089-0.503z"></path>
</svg>
