<!-- Generated by IcoMoon.io -->
<svg version="1.1" xmlns="http://www.w3.org/2000/svg" width="1024" height="1024" viewBox="0 0 1024 1024">
<g id="icomoon-ignore">
</g>
<path fill="#000" d="M485.54 36.946c-33.505 1.556-62.505 7.291-98.55 19.251-48.497 16.056-90.030 37.683-129.761 67.42-9.994 7.455-27.034 23.347-27.034 25.149 0 0.573 6.636 9.011 14.828 18.76 8.11 9.83 22.036 26.87 30.884 38.011 59.474 74.629 67.42 84.378 86.18 104.94 4.26 4.751 9.257 10.732 11.059 13.271 4.669 6.799 5.652 6.881 4.997 0.492-0.328-2.867-1.311-9.257-2.13-14.172-4.26-23.839-5.571-46.94-4.178-72.499 1.147-20.562 2.949-29.655 9.175-46.203 14.090-37.356 40.468-69.304 66.028-79.954 11.469-4.751 17.367-5.898 33.423-6.308 29.082-0.819 49.644 4.833 68.567 18.76 25.149 18.514 43.909 56.771 50.217 102.236 4.751 34.488 3.031 90.194-4.096 132.71-8.765 52.347-21.053 77.824-52.101 107.725-31.13 29.983-63.816 53.33-104.366 74.465-5.816 3.113-10.732 5.734-10.895 5.816-0.492 0.41 16.548 40.96 26.46 63.078 30.228 67.666 47.596 104.038 49.48 104.038 0.819 0 3.768-6.144 8.356-17.203 3.932-9.503 12.37-29.901 18.842-45.466 6.39-15.565 14.582-34.652 18.022-42.516l6.39-14.336 26.46-13.189c43.418-21.709 66.847-35.635 91.996-54.477 43.663-32.768 78.070-70.861 100.68-111.739 30.72-55.624 42.189-124.764 30.392-182.764-6.717-32.604-21.217-65.208-40.796-91.341-7.7-10.404-26.542-29.082-38.42-38.175-27.935-21.381-65.946-39.24-110.428-51.773-28.836-8.192-55.869-12.37-90.276-14.090-18.268-0.901-19.415-0.901-39.404 0.082zM498.811 753.91c-2.867 2.785-17.203 16.548-31.867 30.474-36.536 34.816-75.366 73.318-75.366 74.711 0 0.655 2.867 4.342 6.39 8.192 10.977 12.124 70.697 69.714 99.041 95.519 2.867 2.54 5.571 4.669 6.062 4.669 1.065 0 109.199-107.315 109.527-108.872 0.164-0.573-20.808-22.282-46.694-48.333-25.887-25.969-50.135-50.381-53.903-54.395-3.768-3.932-7.127-7.127-7.373-7.127-0.328 0-2.867 2.294-5.816 5.161z"></path>
</svg>
