<!-- Generated by IcoMoon.io -->
<svg version="1.1" xmlns="http://www.w3.org/2000/svg" width="17" height="32" viewBox="0 0 17 32">
<path fill="#444" d="M7.524 2.302c-0.987 0.046-1.842 0.215-2.904 0.567-1.429 0.473-2.653 1.11-3.823 1.987-0.294 0.22-0.797 0.688-0.797 0.741 0 0.017 0.196 0.266 0.437 0.553 0.239 0.29 0.649 0.792 0.91 1.12 1.752 2.199 1.987 2.486 2.539 3.092 0.125 0.14 0.273 0.316 0.326 0.391 0.138 0.2 0.167 0.203 0.147 0.014-0.010-0.084-0.039-0.273-0.063-0.418-0.125-0.702-0.164-1.383-0.123-2.136 0.034-0.606 0.087-0.874 0.27-1.361 0.415-1.101 1.192-2.042 1.946-2.356 0.338-0.14 0.512-0.174 0.985-0.186 0.857-0.024 1.463 0.142 2.020 0.553 0.741 0.545 1.294 1.673 1.48 3.012 0.14 1.016 0.089 2.658-0.121 3.91-0.258 1.542-0.758 2.487-1.619 3.391-0.878 0.922-1.279 1.163-2.43 1.779-0.171 0.092-0.878 0.368-0.882 0.37-0.014 0.012 0.488 1.207 0.78 1.859 0.891 1.994 1.402 3.065 1.458 3.065 0.024 0 0.111-0.181 0.246-0.507 0.116-0.28 0.364-0.881 0.555-1.34 0.188-0.459 0.43-1.021 0.531-1.253l0.188-0.422 0.78-0.389c1.279-0.64 1.97-1.050 2.711-1.605 1.287-0.966 2.3-2.088 2.966-3.292 0.905-1.639 1.243-3.676 0.895-5.385-0.198-0.961-0.625-1.921-1.202-2.691-0.227-0.307-0.782-0.857-1.132-1.125-0.823-0.63-1.943-1.156-3.254-1.526-0.85-0.241-1.646-0.364-2.66-0.415-0.538-0.027-0.572-0.027-1.161 0.002zM7.915 23.427c-0.084 0.082-0.507 0.488-0.939 0.898-1.077 1.026-2.221 2.16-2.221 2.201 0 0.019 0.084 0.128 0.188 0.241 0.323 0.357 2.083 2.054 2.918 2.814 0.084 0.075 0.164 0.138 0.179 0.138 0.031 0 3.218-3.162 3.227-3.208 0.005-0.017-0.613-0.657-1.376-1.424-0.763-0.765-1.477-1.484-1.588-1.603-0.111-0.116-0.21-0.21-0.217-0.21-0.010 0-0.084 0.068-0.171 0.152z"></path>
</svg>
