<!-- Generated by IcoMoon.io -->
<svg version="1.1" xmlns="http://www.w3.org/2000/svg" width="25" height="32" viewBox="0 0 25 32">
<title>mbs</title>
<path fill="#444" d="M14.238 24.406c3.552-1.156 5.247-5.195 3.585-8.538 1.375-1.655 2.746-3.311 4.12-4.966 6.011 7.504 1.474 18.693-8.066 19.889 0.033-0.341 0.060-0.684 0.086-1.028 0.076-0.962 0.132-1.924 0.178-2.884 0.033-0.631 0.056-1.262 0.080-1.893 0.006-0.192 0.009-0.387 0.016-0.579zM6.87 15.867c-1.662 3.344 0.033 7.382 3.585 8.538 0.007 0.191 0.010 0.387 0.020 0.579 0.019 0.631 0.046 1.262 0.076 1.893 0.046 0.961 0.106 1.923 0.178 2.884 0.026 0.343 0.052 0.687 0.085 1.028-9.539-1.196-14.076-12.385-8.066-19.889 1.375 1.655 2.746 3.311 4.12 4.966zM17.437 7.396c1.229 0.558 2.297 1.269 3.285 2.187-1.156 1.785-2.316 3.565-3.472 5.347-0.506-0.674-1.084-1.193-1.811-1.616 0.667-1.973 1.331-3.945 1.999-5.918zM9.255 13.314c-0.723 0.423-1.304 0.941-1.807 1.616-1.16-1.781-2.319-3.562-3.477-5.347 0.988-0.918 2.059-1.628 3.285-2.187 0.667 1.973 1.331 3.945 1.999 5.918zM11.129 22.271c-0.019-1.169-0.033-2.398-0.033-3.68 0-1.286 0.014-2.511 0.033-3.685-3.549 1.173-3.549 6.193 0 7.365zM13.597 18.59c0 1.285-0.009 2.511-0.033 3.68 3.549-1.172 3.549-6.192 0-7.365 0.024 1.173 0.033 2.399 0.033 3.685zM11.162 13.33c0.149-5.514 0.542-9.655 1.187-12.43 0.641 2.775 1.034 6.916 1.183 12.43 2.458 0.552 4.21 2.739 4.21 5.261s-1.748 4.705-4.21 5.261c-0.073 2.653-0.198 4.992-0.383 7.012-0.535 0.033-1.068 0.033-1.6 0-0.188-2.019-0.314-4.359-0.387-7.012-2.458-0.556-4.206-2.74-4.206-5.261s1.748-4.709 4.206-5.261z"></path>
</svg>
