<!-- Generated by IcoMoon.io -->
<svg version="1.1" xmlns="http://www.w3.org/2000/svg" width="29" height="32" viewBox="0 0 29 32">
<title>md1</title>
<path fill="#444" d="M24.354 12.912c-2.875 0-5.215 2.339-5.215 5.215 0 1.442 0.597 2.814 1.644 3.799l-6.519 8.050-6.519-8.050c1.048-0.985 1.644-2.357 1.644-3.799 0-2.875-2.339-5.215-5.215-5.215-1.665 0-3.2 0.784-4.176 2.091 0.352-6.129 4.628-11.387 10.54-12.979-0.945 0.967-1.489 2.274-1.489 3.647 0 1.393 0.542 2.703 1.527 3.687s2.294 1.527 3.687 1.527c1.393 0 2.702-0.542 3.687-1.527s1.527-2.294 1.527-3.687c0-1.373-0.544-2.68-1.489-3.647 5.912 1.592 10.188 6.85 10.54 12.979-0.975-1.307-2.51-2.091-4.176-2.091z"></path>
</svg>
