<!-- Generated by IcoMoon.io -->
<svg version="1.1" xmlns="http://www.w3.org/2000/svg" width="28" height="32" viewBox="0 0 28 32">
<title>me2</title>
<path fill="#444" d="M17.956 20.102c-2.128 2.255-3.369 4.162-4.094 5.584-0.725-1.422-1.966-3.329-4.094-5.584-3.411-3.613-8.502-5.295-9.768-5.295v13.661h27.724v-13.661c-1.266 0-6.357 1.683-9.768 5.295zM4.009 13.844c-0.006-0.15-0.009-0.297-0.009-0.447 0-5.448 4.414-9.865 9.862-9.865s9.865 4.417 9.865 9.865c0 0.15-0.006 0.297-0.012 0.447-2.34 0.975-5.111 2.607-7.241 4.862-0.989 1.048-1.862 2.094-2.612 3.127-0.751-1.034-1.623-2.079-2.612-3.127-2.127-2.255-4.901-3.887-7.241-4.862z"></path>
</svg>
