<!-- Generated by IcoMoon.io -->
<svg version="1.1" xmlns="http://www.w3.org/2000/svg" width="30" height="32" viewBox="0 0 30 32">
<title>me3</title>
<path fill="#444" d="M14.514 13.967l1.273 0.364c0.19 0.055 2.454 0.724 5.292 2.512 1.099-1.427 1.756-3.219 1.756-5.159 0-4.685-3.798-8.48-8.483-8.48-4.682 0-8.48 3.796-8.48 8.48 0 2.004 0.698 3.848 1.863 5.3 2.94-1.894 5.314-2.598 5.51-2.653l1.27-0.364zM15.331 15.924v12.232h13.7c-4.569-9.623-13.7-12.232-13.7-12.232zM13.7 15.924v12.232h-13.7c4.569-9.623 13.7-12.232 13.7-12.232z"></path>
</svg>
