<!-- Generated by IcoMoon.io -->
<svg version="1.1" xmlns="http://www.w3.org/2000/svg" width="32" height="32" viewBox="0 0 32 32">
<title>med</title>
<path fill="#444" d="M20.34 6.606l5.175 10.274-8.289 8.514h-2.425l-8.289-8.514 5.189-10.274h8.64zM16.011 7.767l-0.765 7.434c-0.425 0.040-0.847 0.116-1.26 0.225l-0.733-6.395-0.742 6.917c-0.361 0.165-0.713 0.352-1.053 0.558l-0.657-4.95-0.657 5.913c2.633 1.562 4.695 3.928 5.882 6.75 1.62-4.113 5.85-6.719 5.85-6.719v-0.009l-0.662-5.936-0.652 5c-0.34-0.216-0.693-0.41-1.058-0.581l-0.733-6.917-0.729 6.381c-0.407-0.109-0.823-0.185-1.242-0.229l-0.788-7.443zM10.076 7.956h-9.833l3.497 3.15-3.74 7.056h2.25c0.315 0.004 0.623 0.084 0.9 0.234l8.361 4.599-6.057-5.918 4.622-9.122zM31.779 7.956h-9.828l4.599 9.122-6.039 5.918 8.339-4.595c0.277-0.15 0.585-0.23 0.9-0.234h2.25l-3.717-7.061 3.497-3.15z"></path>
</svg>
