<!-- Generated by IcoMoon.io -->
<svg version="1.1" xmlns="http://www.w3.org/2000/svg" width="32" height="32" viewBox="0 0 32 32">
<title>mh1</title>
<path fill="#444" d="M9.926 16.522l6.074 4.486 6.074-4.486v-1.311l2.612-2.049c-1.311-5.613-5.224-6.863-5.224-6.863 1.424 4.538-2.417 5.562-3.462 5.562s-4.886-1.024-3.462-5.562c0 0-3.913 1.25-5.224 6.873l2.612 2.049v1.301zM25.024 11.513l6.976 3.667c-7.324 3.073-16 10.52-16 10.52s-8.676-7.457-16-10.52l6.965-3.667c0 0-0.615 0.963-0.492 2.131l2.622 1.946v1.373l6.894 4.948 6.894-4.947v-1.373l2.622-1.946c0.123-1.158-0.481-2.131-0.481-2.131z"></path>
</svg>
