<!-- Generated by IcoMoon.io -->
<svg version="1.1" xmlns="http://www.w3.org/2000/svg" width="32" height="32" viewBox="0 0 32 32">
<title>mh2</title>
<path fill="#444" d="M1.999 14.883c1.631-1.005 3.307-1.942 4.879-3.041 0.211 0.73 0.32 1.496 0.655 2.187 0.305 0.704 0.756 1.327 1.184 1.961-0.319 0.566-0.767 1.048-1.057 1.632-0.412 0.761-0.635 1.611-0.68 2.474-0.012-0.003-0.025-0.005-0.035-0.012-3.171-1.936-4.66-2.785-6.212-3.67-0.217-0.126-0.537-0.265-0.732-0.423 0.644-0.408 1.344-0.717 1.999-1.108zM12.497 14.564v0c-0.66 0.192-1.219 0.606-1.746 1.032-1.516 1.251-2.535 3.142-2.624 5.116-0.006 0.101-0.011 0.205 0.013 0.304l0.507 0.369 0.069 0.045c2.336 1.591 4.513 3.206 6.696 5.001 0.179 0.122 0.333 0.289 0.564 0.384 0.006 0.003 0.014 0.002 0.021 0.003 0.012-0.003 0.025-0.005 0.035-0.011 0.223-0.128 0.449-0.352 0.663-0.513 2.129-1.809 4.403-3.444 6.704-5.025 0.129-0.102 0.083-0.062 0.145-0.116l0.341-0.261-0.005-0.293c-0.043-1.395-0.594-2.757-1.439-3.858-0.198 0.134-0.396 0.269-0.581 0.419-1.076 0.877-2.107 1.518-3.396 2.025-0.576 0.226-1.343 0.43-2.46 0.457-2.030 0-3.675-1.645-3.675-3.675 0.025-0.488-0.006-0.253 0.086-0.707 0.040-0.437 0.014-0.204 0.082-0.698zM30.001 14.919c0.655 0.391 1.355 0.7 1.999 1.108-0.194 0.158-0.514 0.297-0.732 0.423-1.553 0.886-3.042 1.735-6.212 3.67-0.010 0.006-0.023 0.008-0.035 0.012-0.045-0.863-0.269-1.713-0.68-2.474-0.29-0.584-0.738-1.067-1.057-1.632 0.428-0.634 0.878-1.257 1.184-1.961 0.32-0.66 0.532-1.512 0.538-2.215 0-0.038-0.006-0.012 0.004-0.044 1.572 1.098 3.362 2.107 4.992 3.113zM19.432 17.436v-0c0.66-0.192 1.219-0.606 1.746-1.032 1.516-1.251 2.535-3.142 2.624-5.116 0.006-0.101 0.011-0.205-0.013-0.304l-0.507-0.369-0.069-0.045c-2.336-1.591-4.513-3.206-6.696-5.001-0.179-0.122-0.333-0.289-0.564-0.384-0.006-0.003-0.014-0.002-0.021-0.003-0.012 0.003-0.025 0.005-0.035 0.011-0.223 0.128-0.449 0.352-0.663 0.513-2.129 1.809-4.403 3.444-6.704 5.025-0.13 0.102-0.083 0.062-0.145 0.117l-0.341 0.261 0.005 0.293c0.043 1.395 0.594 2.757 1.439 3.858 0.198-0.134 0.396-0.269 0.582-0.419 1.076-0.877 2.107-1.518 3.396-2.025 0.575-0.226 1.342-0.43 2.46-0.457 2.030 0 3.675 1.646 3.675 3.675-0.025 0.488 0.006 0.253-0.087 0.707-0.040 0.437-0.014 0.204-0.082 0.698z"></path>
</svg>
