<!-- Generated by IcoMoon.io -->
<svg version="1.1" xmlns="http://www.w3.org/2000/svg" width="32" height="32" viewBox="0 0 32 32">
<title>mh3</title>
<path fill="#444" d="M14.568 6.191c1.42-0.243 2.89-0.103 4.258 0.338 1.683 0.539 3.212 1.464 4.633 2.499 1.119 0.816 2.177 1.714 3.2 2.648-1.279 1.239-2.37 2.694-3.066 4.341-0.462 1.078-0.757 2.224-0.907 3.386-0.124 1.027-0.187 2.070-0.056 3.1 0.032 0.297 0.084 0.591 0.132 0.886-1.509 0.847-3.019 1.692-4.529 2.538 0.113-0.84 0.358-1.658 0.693-2.436 0.356-0.838 0.799-1.64 1.346-2.369-0.521-0.575-1.040-1.155-1.49-1.787 0.478-0.48 0.82-1.094 0.956-1.759 0.343-1.649-0.498-3.481-1.991-4.272-0.464-0.249-0.985-0.385-1.511-0.406-0.695-0.066-1.41 0.076-2.017 0.423-1.484 0.841-2.335 2.699-1.945 4.368 0.146 0.625 0.489 1.194 0.942 1.645-0.447 0.636-0.969 1.212-1.488 1.788 0.596 0.797 1.070 1.682 1.442 2.604 0.287 0.707 0.496 1.445 0.595 2.202-1.51-0.846-3.020-1.691-4.529-2.538 0.4-2.146 0.2-4.388-0.5-6.451-0.679-1.996-1.833-3.844-3.403-5.261 1.331-1.206 2.715-2.363 4.217-3.353 1.526-0.998 3.203-1.837 5.018-2.133zM0 18.146c2.122-1.189 4.245-2.377 6.367-3.565 1.54 2.357 2.241 5.271 1.863 8.068-0.173 0.033-0.316-0.075-0.46-0.151-2.593-1.445-5.183-2.896-7.77-4.351zM23.784 22.749c-0.416-2.83 0.298-5.778 1.845-8.171 2.123 1.191 4.247 2.378 6.371 3.568-2.738 1.536-5.479 3.065-8.216 4.603z"></path>
</svg>
