<!-- Generated by IcoMoon.io -->
<svg version="1.1" xmlns="http://www.w3.org/2000/svg" width="27" height="32" viewBox="0 0 27 32">
<title>mic</title>
<path fill="#444" d="M0 6.772c2.622-1.943 5.147-4.101 8.152-5.438-0.265 1.211 0.648 2.245 1.662 2.743 1.164 0.574 2.452 0.96 3.752 1.025 1.392-0.186 2.811-0.551 3.999-1.332 0.802-0.522 1.364-1.455 1.159-2.436 3.008 1.34 5.535 3.493 8.155 5.444-0.126 0.548-0.252 1.096-0.38 1.642-0.844 0.275-1.702 0.593-2.386 1.175-0.511 1.196-0.496 2.557-0.401 3.834 0.042 1.036 0.802 1.812 1.468 2.525-1.159 3.417-2.863 6.65-5.003 9.555-1.686 2.334-4.203 3.889-6.744 5.145-2.533-1.264-5.048-2.808-6.731-5.142-2.14-2.905-3.847-6.139-5.003-9.56 0.669-0.711 1.429-1.489 1.468-2.528 0.094-1.274 0.105-2.633-0.401-3.828-0.684-0.587-1.55-0.899-2.394-1.18-0.126-0.548-0.249-1.093-0.372-1.641zM18.064 7.128c-2.567 6.039-7.090 11.018-11.965 15.311 6.451-2.565 12.466-6.917 15.885-13.069 0.102-1.492 0.076-2.995 0.131-4.492-1.353 0.75-2.703 1.495-4.051 2.25zM12.235 5.854c-1.694 3.43-3.789 6.65-6.141 9.665 4.13-2.756 7.853-6.186 10.662-10.297-1.445 0.488-2.987 1.028-4.521 0.632zM15.854 23.124c3.071-1.912 5.924-4.214 8.294-6.957-1.070-1.046-1.484-2.525-1.382-3.994-1.815 3.928-4.078 7.672-6.912 10.95z"></path>
</svg>
