<!-- Generated by IcoMoon.io -->
<svg version="1.1" xmlns="http://www.w3.org/2000/svg" width="32" height="32" viewBox="0 0 32 32">
<title>mir</title>
<path fill="#444" d="M15.306 3.701c0.446-1.089 1.352-1.88 2.276-2.564-0.169 0.505-0.385 1.018-0.351 1.564 0.040 0.643 0.239 1.269 0.523 1.845 0.176 0.377 0.394 0.788 0.272 1.217-0.249 0.999-1.138 1.624-1.873 2.266-0.144 0.083-0.288 0.164-0.432 0.246-0.061 0.035-0.184 0.105-0.245 0.14 0.363-0.654 0.147-1.41-0.057-2.079-0.289-0.838-0.465-1.789-0.112-2.636zM23.109 4.032c-1.275 0.411-2.123 1.486-3.030 2.401-0.393 0.42-0.752 0.871-1.172 1.262-0.317 0.316-0.623 0.642-0.926 0.969 0.085-0.021 0.255-0.063 0.34-0.085 0.086-0.035 0.258-0.105 0.344-0.139 0.159-0.068 0.32-0.136 0.48-0.201 1.931-0.783 3.991-1.354 6.090-1.306 0.288-0.278 0.571-0.561 0.879-0.817 0.070-0.005 0.21-0.018 0.279-0.024 0.411-0.009 0.817 0.049 1.221 0.117l0.109-0.016c0.277-0.379 0.617-0.715 1.045-0.916-0.128 0.186-0.262 0.37-0.398 0.55 0.514-0.263 1.087-0.291 1.649-0.342 0.727-0.253 1.247-0.886 1.983-1.131-2.921-0.514-5.957-1.068-8.891-0.321zM3.705 5.824c-0.289 0.080-0.589 0.104-0.887 0.125-0.417 0.101-0.823 0.245-1.232 0.372-0.401 0.131-0.792 0.288-1.179 0.457-0.114 0.049-0.229 0.1-0.344 0.149l-0.063 0.028c0.099 0.014 0.294 0.039 0.392 0.053 0.294 0.044 0.595 0.086 0.868 0.211 0.316 0.163 0.58 0.417 0.914 0.543 0.47-0.005 0.94-0.147 1.409-0.054 0.422 0.105 0.799 0.342 1.222 0.446 0.625-0.311 1.435-0.39 1.948 0.167 0.49 0.326 1.079 0.062 1.617 0.066 1.844-0.077 3.686 0.235 5.462 0.71 0.211 0.052 0.426 0.091 0.641 0.126-1.239-0.994-2.512-1.948-3.751-2.943-0.801-0.654-1.841-0.931-2.861-0.974-1.401-0.059-2.803 0.165-4.156 0.518zM19.552 8.736c-0.119 0.049-0.235 0.101-0.35 0.157-0.169 0.083-0.336 0.171-0.504 0.254-0.091 0.044-0.27 0.133-0.36 0.177 0.246 0.059 0.5 0.063 0.753 0.063 1.657-0.077 3.342 0.184 4.867 0.844 0.614 0.274 1.298 0.278 1.956 0.323 0.207 0.318 0.39 0.652 0.575 0.986 0.408 0.353 0.989 0.313 1.495 0.356 0.006 0.071 0.018 0.212 0.024 0.283 0.209 0.279 0.385 0.584 0.623 0.84 0.5 0.291 1.143 0.284 1.588 0.681 0.433 0.378 0.86 0.763 1.319 1.112-0.142-1.053-0.435-2.077-0.729-3.096-0.332-1.032-0.686-2.089-1.341-2.967-0.493-0.663-1.352-0.864-2.127-0.967-2.629-0.289-5.278 0.187-7.79 0.953zM15.22 9.191c-0.008 0.056-0.024 0.167-0.032 0.222 0.183 0.455 0.315 0.926 0.446 1.396 0.028 0.054 0.082 0.163 0.109 0.217 0.625-0.029 1.251 0.006 1.875-0.018-0.116-0.622-0.283-1.233-0.466-1.837-0.479-0.205-1.003-0.239-1.518-0.201-0.139 0.073-0.277 0.147-0.414 0.22zM4.767 9.729c-0.427 0.176-0.85 0.379-1.203 0.681-0.39 0.363-0.601 0.871-0.781 1.362-0.553 1.614-0.679 3.327-0.859 5.011-0.003 0.078-0.008 0.235-0.010 0.313l0.054 0.107c0.158-0.053 0.315-0.109 0.475-0.154 0.128-0.202 0.262-0.401 0.413-0.586 0.171-0.236 0.329-0.483 0.505-0.715 0.294-0.444 0.849-0.555 1.308-0.754 0.081-0.401 0.187-0.796 0.302-1.189 0.158-0.044 0.316-0.087 0.474-0.13 0.342-0.094 0.686-0.186 1.016-0.318 0.224-0.455 0.279-1.195 0.913-1.238 0.508-0.109 1.011-0.245 1.482-0.467 0.058-0.025 0.174-0.078 0.232-0.105 1.338-0.886 2.954-1.341 4.55-1.409 0.226-0.047 0.449-0.111 0.672-0.173-2.18-0.77-4.542-0.857-6.828-0.69-0.92 0.053-1.818 0.263-2.717 0.455zM18.33 10.167c0.171 0.148 0.341 0.297 0.512 0.447 1.232 1.021 2.005 2.48 2.588 3.946 0.077 0.083 0.166 0.155 0.264 0.216 0.307 0.148 0.662 0.227 0.913 0.467 0.22 0.293 0.317 0.656 0.468 0.986 0.025 0.021 0.075 0.064 0.1 0.086 0.436 0.086 0.878 0.126 1.319 0.182 0.116 0.318 0.225 0.641 0.355 0.954 0.028 0.033 0.082 0.099 0.109 0.131 0.454 0.081 0.953 0.029 1.361 0.28 0.437 0.251 0.848 0.547 1.288 0.795 0.011-0.035 0.035-0.105 0.047-0.139-0.056-0.014-0.166-0.042-0.221-0.056-0.224-0.95-0.596-1.859-0.977-2.756-0.599-1.351-1.291-2.685-2.269-3.803-0.796-0.935-2.014-1.348-3.18-1.585-0.85-0.179-1.723-0.183-2.589-0.186l-0.086 0.033zM11.704 11.258c-0.605 0.229-1.151 0.585-1.74 0.852-0.697 0.495-1.217 1.191-1.608 1.945-1.005 1.919-1.547 4.046-1.857 6.18-0.004 0.033-0.009 0.101-0.011 0.134 0.027-0.001 0.080-0.004 0.107-0.005l0.125-0.068c0.264-0.421 0.594-0.792 0.927-1.157 0.412 0.010 0.828-0.005 1.226-0.125 0.042-0.035 0.124-0.107 0.166-0.144 0.023-0.327 0.077-0.651 0.145-0.972 0.164-0.043 0.33-0.086 0.494-0.131 0.289-0.085 0.575-0.183 0.854-0.298 0.078-0.375 0.171-0.748 0.269-1.118 0.171-0.104 0.341-0.207 0.514-0.307 0.182-0.105 0.368-0.203 0.556-0.298 0.418-1.825 1.168-3.626 2.494-4.981-0.906 0.048-1.778 0.31-2.661 0.495zM15.67 11.679c-0.018 0.039-0.053 0.116-0.072 0.154 0.030 0.052 0.091 0.154 0.121 0.206 0.494 0.706 0.733 1.548 0.962 2.368 0.672-0.005 1.346 0.029 2.017-0.013-0.043-0.974-0.301-1.958-0.738-2.821-0.764 0.004-1.524 0.134-2.29 0.106zM16.395 15.025c0 0.033 0.003 0.097 0.003 0.13 0.411 0.954 0.566 1.995 0.591 3.026 0.791 0.176 1.563 0.433 2.364 0.566 0.292-1.212 0.059-2.477-0.262-3.658-0.882-0.047-1.765-0.073-2.645-0.154l-0.032 0.014-0.020 0.076zM16.43 18.698c-0.010 0.095-0.016 0.19-0.019 0.286 0.078 1.239 0.082 2.519-0.335 3.706 0.898 0.327 1.816 0.599 2.704 0.951l0.006-0.013c0.536-1.276 0.723-2.66 0.742-4.034-1.017-0.332-2.055-0.601-3.068-0.948-0.008 0.013-0.023 0.039-0.030 0.052zM15.332 23.3c-0.038 0.123-0.071 0.246-0.104 0.37-0.001 0.739-0.28 1.433-0.574 2.099-0.287 0.619-0.572 1.247-1.003 1.783-0.064 0.155-0.13 0.312-0.195 0.47 0.027 0.034 0.078 0.102 0.104 0.138 0.884 0.647 1.698 1.384 2.578 2.037 0.107 0.075 0.231 0.176 0.369 0.112 1.274-1.672 2.293-3.578 2.665-5.664-1.234-0.5-2.53-0.841-3.741-1.397-0.025 0.014-0.073 0.040-0.098 0.053z"></path>
</svg>
