<!-- Generated by IcoMoon.io -->
<svg version="1.1" xmlns="http://www.w3.org/2000/svg" width="24" height="32" viewBox="0 0 24 32">
<title>mkc</title>
<path fill="#444" d="M11.916 0.612c0.143-0.337 0.271-0.612 0.282-0.612 0.044 0 0.524 1.175 0.765 1.867 0.278 0.806 0.699 2.263 0.945 3.274l0.176 0.729 0.59-0.022c1.424-0.055 3.156-0.535 4.606-1.278 0.198-0.103 0.363-0.179 0.37-0.172 0.513 0.633 4.749 5.972 4.753 5.994 0.007 0.018-0.194 0.172-0.447 0.341-1.318 0.882-2.538 2.084-3.303 3.255-0.483 0.74-0.86 1.56-1.077 2.34-0.157 0.575-0.157 0.633 0.004 0.187 0.308-0.857 0.886-1.831 1.527-2.582 0.326-0.381 0.875-0.926 1.168-1.153l0.128-0.106 0.732 0.549c0.399 0.304 0.791 0.601 0.868 0.663l0.143 0.11-0.326 0.165c-2.292 1.161-4.002 3.728-4.885 7.334-0.088 0.352-0.161 0.644-0.161 0.652-0.007 0.011-1.816-1.007-1.853-1.044-0.044-0.044 0.026-0.985 0.132-1.824 0.406-3.219 1.538-5.991 3.281-8.019 0.384-0.45 0.842-0.882 1.197-1.128 0.146-0.103 0.26-0.205 0.249-0.227-0.015-0.044-2.164-2.977-2.234-3.047-0.033-0.037-0.136-0.007-0.48 0.15-1.388 0.626-2.805 1.014-4.273 1.175-0.128 0.015-0.212 0.040-0.212 0.066 0.004 0.077 0.136 0.762 0.15 0.773 0.007 0.007 0.179 0 0.381-0.018 1.062-0.099 2.409-0.447 3.658-0.945 0.26-0.103 0.476-0.183 0.48-0.179 0.004 0.007 0.315 0.425 0.688 0.934l0.677 0.919-0.483 0.491c-0.747 0.747-1.344 1.542-1.908 2.538-1.139 1.999-1.875 4.533-2.109 7.25-0.022 0.282-0.048 0.52-0.055 0.527-0.026 0.029-1.069-0.546-2.402-1.322-0.773-0.447-1.428-0.813-1.457-0.813-0.033 0-0.681 0.363-1.446 0.809-1.326 0.769-2.387 1.355-2.413 1.326-0.007-0.007-0.033-0.245-0.055-0.527-0.271-3.134-1.179-5.932-2.64-8.114-0.428-0.633-0.835-1.131-1.377-1.673l-0.483-0.491 0.677-0.919c0.373-0.509 0.685-0.926 0.688-0.934 0.004-0.004 0.22 0.077 0.48 0.179 0.967 0.388 1.955 0.677 2.871 0.835 0.417 0.077 1.142 0.154 1.168 0.128 0.007-0.007 0.044-0.187 0.084-0.403 0.081-0.447 0.077-0.454-0.19-0.454-0.282 0-1.128-0.139-1.677-0.275-0.879-0.216-1.838-0.549-2.662-0.93-0.26-0.121-0.333-0.143-0.37-0.106-0.070 0.077-2.219 3.006-2.234 3.050-0.011 0.022 0.103 0.121 0.249 0.22 0.344 0.234 1.106 0.989 1.49 1.479 1.699 2.149 2.743 4.991 3.058 8.316 0.029 0.311 0.059 0.707 0.066 0.875l0.011 0.311-0.93 0.524c-0.513 0.289-0.934 0.52-0.937 0.516-0.004-0.007-0.037-0.143-0.073-0.304-0.103-0.476-0.333-1.282-0.524-1.849-0.959-2.838-2.53-4.892-4.467-5.84-0.165-0.081-0.3-0.154-0.3-0.165 0.004-0.011 0.392-0.311 0.868-0.666l0.868-0.648 0.128 0.106c0.293 0.227 0.842 0.773 1.168 1.153 0.648 0.758 1.212 1.71 1.527 2.582 0.161 0.443 0.161 0.388 0.004-0.187-0.586-2.124-2.201-4.163-4.493-5.672-0.19-0.124-0.341-0.242-0.333-0.26 0.004-0.018 1.073-1.373 2.376-3.010 1.3-1.633 2.369-2.981 2.376-2.988s0.172 0.070 0.37 0.172c1.069 0.546 2.362 0.974 3.567 1.179 0.524 0.088 1.564 0.168 1.604 0.125 0.018-0.018 0.124-0.414 0.238-0.875 0.432-1.736 0.919-3.288 1.384-4.387zM12.282 2.571c-0.029-0.103-0.066-0.19-0.081-0.19s-0.136 0.366-0.267 0.813c-1.212 4.065-2.069 9.286-2.464 14.977-0.037 0.516-0.055 0.952-0.044 0.963 0.026 0.026 2.281-1.278 2.376-1.369 0.051-0.051 0.084-0.469 0.22-2.776 0.088-1.498 0.168-2.706 0.183-2.691 0.011 0.015 0.092 1.245 0.179 2.735s0.161 2.713 0.161 2.717c0.011 0.015 2.406 1.402 2.424 1.402 0.048 0-0.103-2.102-0.278-3.863-0.311-3.127-0.758-6.005-1.34-8.642-0.322-1.457-0.524-2.23-1.069-4.076zM10.059 20.498c0.886-0.516 1.622-0.941 1.64-0.941 0.015-0.004 0.026 0.395 0.026 0.886v0.89l-0.136 0.048c-0.348 0.125-0.699 0.443-0.879 0.791-0.557 1.080 0.124 2.355 1.329 2.49 0.758 0.088 1.542-0.439 1.776-1.194 0.26-0.831-0.205-1.802-1-2.087l-0.139-0.048v-0.893c0-0.699 0.011-0.89 0.048-0.875 0.070 0.029 3.219 1.867 3.318 1.937l0.088 0.062-0.256 0.432c-0.648 1.091-1.044 1.988-1.293 2.922-0.088 0.322-0.22 1.022-0.22 1.161 0 0.018-0.97 0.029-2.16 0.029-1.186 0-2.16-0.011-2.16-0.029 0-0.015-0.026-0.19-0.055-0.392-0.172-1.128-0.714-2.483-1.531-3.819l-0.183-0.304 0.088-0.062c0.048-0.033 0.813-0.487 1.699-1.003zM6.562 22.505c0.593-0.333 1.088-0.608 1.099-0.608 0.070 0 1.062 1.827 1.062 1.955 0 0.022-0.231 0.132-0.513 0.249l-0.509 0.205-0.319-0.33c-0.304-0.315-0.322-0.33-0.414-0.286-0.051 0.022-0.348 0.157-0.652 0.3l-0.56 0.26v0.857l-0.33 0.139c-0.183 0.077-0.337 0.132-0.344 0.125s-0.136-0.399-0.286-0.868l-0.278-0.85 0.483-0.271c0.264-0.15 0.967-0.546 1.56-0.879zM16.471 22.307c0.139-0.223 0.26-0.41 0.271-0.41 0.040 0.004 3.109 1.743 3.116 1.769 0.011 0.044-0.527 1.71-0.557 1.71-0.015 0-0.168-0.059-0.341-0.132l-0.315-0.132v-0.861l-0.557-0.26c-0.308-0.143-0.601-0.275-0.652-0.3-0.088-0.040-0.113-0.022-0.421 0.289l-0.33 0.33-0.502-0.209c-0.278-0.113-0.505-0.227-0.505-0.253 0-0.073 0.531-1.106 0.791-1.542zM11.905 21.981c0.077-0.029 0.223-0.044 0.352-0.037 0.85 0.055 1.267 1.055 0.707 1.692-0.209 0.234-0.45 0.348-0.762 0.348-0.608 0-1.080-0.531-1.011-1.124 0.048-0.417 0.297-0.721 0.714-0.879zM6.456 24.677l0.454-0.22 0.622 0.659 0.696-0.289c0.384-0.161 0.714-0.293 0.736-0.293 0.048 0 0.209 0.516 0.308 0.989 0.040 0.19 0.084 0.557 0.099 0.813l0.022 0.469h1.161v1.538l-0.19-0.113c-0.97-0.571-2.197-0.89-3.731-0.97l-0.502-0.026-0.022-0.535c-0.015-0.293-0.033-0.633-0.044-0.754l-0.022-0.22 0.198-0.077 0.194-0.081 0.011-0.443 0.011-0.447zM17.174 24.79l0.304-0.33 0.117 0.051c0.066 0.026 0.176 0.077 0.245 0.117l0.128 0.070v0.872l0.198 0.073 0.194 0.073-0.022 0.26c-0.011 0.143-0.033 0.483-0.044 0.758l-0.026 0.498-0.498 0.026c-1.545 0.081-2.776 0.403-3.728 0.974l-0.194 0.117v-1.545h1.172v-0.267c0-0.498 0.106-1.12 0.297-1.754 0.070-0.227 0.088-0.253 0.157-0.234 0.040 0.011 0.373 0.143 0.736 0.293l0.659 0.275 0.304-0.326zM11.22 27.141l-0.011-0.337h1.985l-0.011 0.337-0.011 0.341h-1.941l-0.011-0.341zM11.227 27.913c0.018-0.040 0.201-0.048 0.981-0.040l0.963 0.011 0.011 0.359 0.011 0.355-0.981-0.007-0.981-0.011-0.011-0.308c-0.007-0.168-0.004-0.33 0.007-0.359zM11.213 29.66v-0.659h1.977v0.659h-1.977zM11.121 30.4c0.015-0.037 0.249-0.044 1.080-0.037l1.066 0.011 0.161 0.494c0.092 0.271 0.15 0.502 0.136 0.516s-0.326 0.157-0.696 0.319l-0.666 0.297-0.688-0.308c-0.553-0.249-0.681-0.319-0.674-0.373 0.011-0.055 0.216-0.729 0.282-0.919z"></path>
</svg>
