<!-- Generated by IcoMoon.io -->
<svg version="1.1" xmlns="http://www.w3.org/2000/svg" width="32" height="32" viewBox="0 0 32 32">
<title>mkm</title>
<path fill="#444" d="M0.056 2.868c-0.076-0.116-0.076-0.116 0.004-0.084 0.044 0.016 0.303 0.112 0.578 0.211 5.399 1.952 12.268 5.614 19.045 10.152 1.339 0.9 1.486 1.004 1.446 1.028-0.056 0.032-3.375 1.43-3.447 1.45-0.056 0.016-1.721-1.092-6.546-4.363-0.307-0.207-0.502-0.323-0.438-0.259 0.068 0.068 1.51 1.327 3.207 2.801 2.407 2.092 3.088 2.701 3.080 2.765-0.028 0.299-0.466 3.713-0.474 3.725-0.020 0.024-0.251-0.175-1.339-1.124-5.618-4.925-10.419-9.965-13.862-14.551-0.398-0.526-1.088-1.494-1.255-1.753zM26.756 12.9c1.207-0.53 2.191-0.968 2.195-0.968 0.012-0.004 1.335 1.94 1.339 1.972 0.008 0.052-0.765 0.506-0.821 0.482-0.024-0.008-0.227-0.171-0.45-0.359l-0.402-0.339-0.849 0.458c-0.466 0.251-0.865 0.47-0.881 0.486s0.016 0.295 0.068 0.626c0.052 0.327 0.080 0.61 0.068 0.622-0.072 0.060-1.211 0.713-1.247 0.713-0.092 0-1.14-2.319-1.199-2.646-0.012-0.068 0.287-0.211 2.179-1.048zM21.217 15.283c1.339-0.566 2.442-1.020 2.454-1.016 0.016 0.008 0.040 0.064 0.056 0.124 0.048 0.195 0.383 1.016 0.657 1.606 0.657 1.422 1.426 2.61 2.263 3.47l0.406 0.426-1.737 2.303c-0.956 1.271-1.745 2.311-1.749 2.319-0.004 0.004-0.167-0.084-0.359-0.195-1.267-0.745-3.211-1.307-5.319-1.534-0.339-0.036-0.618-0.068-0.622-0.072-0.008-0.012 0.669-5.303 0.681-5.319 0.012-0.012 1.673 1.251 1.805 1.371 0.044 0.040 0.044 0.092-0.008 0.287-0.080 0.307-0.080 0.885-0.004 1.183 0.331 1.275 1.709 2.028 2.944 1.614 0.661-0.223 1.227-0.781 1.458-1.442 0.187-0.538 0.139-1.259-0.12-1.797-0.57-1.179-2.104-1.65-3.203-0.976-0.108 0.064-0.215 0.116-0.239 0.108-0.076-0.020-1.865-1.402-1.829-1.418 0.016-0.004 1.128-0.474 2.462-1.040zM26.062 22.789c0.418-0.558 0.773-1.016 0.785-1.016s0.155 0.104 0.323 0.227c0.163 0.128 0.319 0.243 0.339 0.259 0.044 0.028-1.474 2.064-1.538 2.064-0.040 0-0.669-0.474-0.669-0.502 0-0.008 0.343-0.474 0.761-1.032zM27.222 23.662c0.418-0.558 0.769-1.012 0.777-1.012 0.012 0 0.175 0.124 0.371 0.271l0.351 0.271-0.717 0.956c-0.394 0.522-0.749 0.988-0.789 1.028-0.072 0.072-0.080 0.068-0.414-0.191-0.187-0.147-0.343-0.279-0.343-0.291s0.343-0.478 0.765-1.032zM28.409 24.547c0.406-0.538 0.753-0.98 0.769-0.98 0.080 0 0.669 0.494 0.649 0.546-0.028 0.072-1.454 1.956-1.502 1.988-0.060 0.036-0.713-0.47-0.681-0.526 0.016-0.028 0.359-0.486 0.765-1.028zM17.121 23.809l0.024-0.131 0.303 0.028c0.729 0.064 2.554 0.367 2.626 0.434 0.020 0.020-0.347 1.391-0.383 1.422-0.016 0.012-0.287 0.056-0.606 0.092-0.315 0.036-0.586 0.084-0.602 0.108-0.056 0.092-0.438 1.92-0.406 1.944 0.016 0.016 0.219 0.159 0.45 0.323 0.231 0.159 0.422 0.295 0.43 0.299 0.016 0.016-0.195 0.837-0.231 0.896-0.024 0.040-0.267-0.032-1.144-0.339-0.61-0.215-1.112-0.394-1.12-0.398-0.012-0.012 0.598-4.339 0.657-4.678zM29.863 25.666c0.462-0.606 0.845-1.104 0.849-1.104 0.040 0 1.267 0.446 1.287 0.47 0.024 0.024-0.41 1.944-0.446 1.976-0.036 0.036-1.761 0.98-1.769 0.972-0.57-0.821-0.753-1.1-0.753-1.148 0-0.036 0.375-0.558 0.833-1.167z"></path>
</svg>
