<!-- Generated by IcoMoon.io -->
<svg version="1.1" xmlns="http://www.w3.org/2000/svg" width="27" height="32" viewBox="0 0 27 32">
<title>mm2</title>
<path fill="#444" d="M4.871 6.807c1.696-1.084 3.705-1.654 5.716-1.657 0.018 1.513 0.628 3.057 1.839 4.007 0.164 0.173 0.485 0.277 0.447 0.568-0.002 4.256 0.016 8.513-0.011 12.771-1.46 0.927-2.272 2.646-2.277 4.351-2.853-0.007-5.689-1.184-7.666-3.251-1.484-1.493-2.477-3.435-2.902-5.491 0.586 0.817 1.49 1.414 2.492 1.555 1.502 0.254 3.1-0.565 3.792-1.917 0.567-1.034 0.584-2.341 0.056-3.394-0.616-1.296-2.046-2.152-3.483-2.056-1.14 0.046-2.208 0.673-2.863 1.598 0.586-2.884 2.349-5.525 4.859-7.082z"></path>
<path fill="#444" d="M16.663 5.148c2.976-0.009 5.924 1.294 7.915 3.506 1.357 1.462 2.249 3.319 2.664 5.262-0.567-0.837-1.484-1.437-2.487-1.583-1.163-0.199-2.401 0.228-3.209 1.082-1.008 1.026-1.322 2.66-0.759 3.984 0.528 1.377 1.961 2.339 3.437 2.309 1.188 0 2.321-0.637 3.006-1.598-0.582 2.895-2.369 5.53-4.881 7.092-1.688 1.077-3.684 1.627-5.682 1.65-0.011-1.707-0.819-3.428-2.284-4.355-0.005-4.337-0.026-8.674 0.011-13.011 1.451-0.93 2.263-2.637 2.27-4.339z"></path>
</svg>
