<!-- Generated by IcoMoon.io -->
<svg version="1.1" xmlns="http://www.w3.org/2000/svg" width="32" height="32" viewBox="0 0 32 32">
<title>mm3</title>
<path fill="#444" d="M5.889 6.901c1.551-0.98 3.149-1.88 4.812-2.651-0.313 2.362-1.101 5.142 0.611 7.166 2.306 3.077 7.689 2.9 9.705-0.41 1.374-2.017 0.587-4.539 0.305-6.757 1.703 0.771 3.334 1.679 4.869 2.748-0.354 3.117-1.229 6.644-4.258 8.195-3.631 1.824-8.291 1.872-11.906-0.016-2.981-1.623-3.921-5.134-4.138-8.275zM3.222 12.083c-1.711 2.394-2.708 5.166-3.214 8.050 3.615 1.269 6.708 3.615 9.135 6.556 4.563 0.088 9.127 0.072 13.698 0.008 2.45-2.916 5.519-5.302 9.151-6.54-0.53-2.884-1.47-5.68-3.214-8.066-1.229 2.458-2.703 4.923-5.27 6.275-4.468 2.352-10.226 2.352-15.016-0.008-2.609-1.285-4.017-3.84-5.27-6.275z"></path>
</svg>
