<!-- Generated by IcoMoon.io -->
<svg version="1.1" xmlns="http://www.w3.org/2000/svg" width="28" height="32" viewBox="0 0 28 32">
<title>mma</title>
<path fill="#444" d="M21.159 20.854c3.084 2.406 4.113 2.495 6.304 2.573-1.316 1.261-3.219 3.038-5.051 4.722l-17.353-0.014-5.056-4.772c2.597-0.142 2.796 0.163 6.175-2.509h14.981zM21.142 18.747c0.719-1.172 2.42-2.579 5.028-2.768-0.261-4.722-2.209-7.57-3.862-9.157-1.629-1.563-3.722-2.619-5.816-2.971 0.596 0.712 1.455 1.834 1.455 3.373 0 2.39-1.862 4.263-4.239 4.263-2.401 0-4.223-1.829-4.238-4.255-0.010-1.545 0.764-2.649 1.368-3.353-2.344 0.367-4.495 1.534-6.176 3.376-1.072 1.174-1.912 2.577-2.496 4.172-0.518 1.413-0.825 2.951-0.917 4.585 1.533 0.13 4.012 0.672 4.939 2.745l14.954-0.009z"></path>
</svg>
