<!-- Generated by IcoMoon.io -->
<svg version="1.1" xmlns="http://www.w3.org/2000/svg" width="27" height="32" viewBox="0 0 27 32">
<title>mmq</title>
<path fill="#444" d="M21.269 20.529c1.975 0 2.783-0.76 2.808-1.623 0.039-1.154-1.315-2.458-3.13-2.458-2.866 0-4.953 3.388-4.953 3.388 1.105 0.421 3.243 0.693 3.854 0.693h1.421zM6.816 20.529c0.614 0 2.752-0.272 3.854-0.693 0 0-2.087-3.388-4.953-3.388-1.811 0-3.166 1.304-3.13 2.458 0.028 0.863 0.832 1.623 2.808 1.623h1.421zM13.117 3.147c-9.361 0-12.793 5.202-12.793 5.202s1.040 2.392 4.888 2.6c0 0 3.122-3.122 8.011-3.122h0.111c4.889 0 8.010 3.122 8.010 3.122 3.846-0.208 4.886-2.6 4.886-2.6s-3.432-5.202-12.793-5.202h-0.32zM13.444 14.173c11.026 0 13.107-2.6 13.107-2.6s1.246 14.874-5.512 17.163c0 0-2.184 0.727-3.432-1.457s-2.914-5.202-4.265-5.202h-0.017c-1.351 0-3.016 3.019-4.264 5.202s-3.432 1.457-3.432 1.457c-6.761-2.289-5.512-17.163-5.512-17.163s2.080 2.6 13.107 2.6h0.222z"></path>
</svg>
