<!-- Generated by IcoMoon.io -->
<svg version="1.1" xmlns="http://www.w3.org/2000/svg" width="27" height="32" viewBox="0 0 27 32">
<title>moc</title>
<path fill="#444" d="M14.010 2.728c6.127 3.518 9.902 10.269 10.762 17.168 1.133-0.792 1.758-2.047 2.339-3.257 0.25 3.366 0.020 6.846-1.318 9.983-1.070-2.438-2.357-4.804-4.032-6.883-1.167-1.437-2.57-2.759-4.306-3.47 1.308-1.563 1.622-3.793 0.983-5.705 0.016 1.433-0.164 2.946-1.102 4.099 0.171-1.139-0.065-2.361-0.847-3.236-0.611-0.759-1.529-1.178-2.469-1.362 0.032-2.444 0.051-4.893-0.010-7.337zM2.424 19.89c-1.129-0.792-1.752-2.042-2.331-3.25-0.262 3.354-0.012 6.82 1.303 9.95 1.143-2.451 2.41-4.877 4.142-6.97 1.147-1.389 2.522-2.66 4.209-3.35-1.307-1.571-1.62-3.803-0.975-5.719-0.037 1.443 0.166 2.958 1.096 4.123-0.043-0.664-0.112-1.352 0.136-1.99 0.445-1.397 1.746-2.394 3.175-2.619-0.032-2.444-0.037-4.891 0.002-7.335-6.123 3.524-9.875 10.267-10.758 17.16zM0.255 8.411c1.527 1.813 2.268 4.188 2.377 6.531 1.068-3.277 2.769-6.363 5.098-8.915-1.1 0.030-2.176-0.357-2.989-1.104-1.508 1.145-2.968 2.355-4.487 3.488zM22.464 4.929c-0.828 0.755-1.919 1.139-3.037 1.107 2.371 2.524 4.083 5.626 5.161 8.905 0.035-2.351 0.832-4.726 2.361-6.527-1.531-1.115-2.984-2.329-4.485-3.484zM10.681 14.071c0.022 1.058 0.753 1.886 1.521 2.526-0.729 0.087-1.452 0.229-2.15 0.457 0.613 0.629 1.086 1.407 1.224 2.286 0.349 2.048-0.319 4.107-1.182 5.942 1.37 1.137 2.542 2.497 3.51 3.989 0.958-1.496 2.138-2.85 3.504-3.989-0.808-1.718-1.433-3.614-1.24-5.536 0.083-1.023 0.56-1.971 1.281-2.692-0.698-0.225-1.419-0.367-2.146-0.457 0.707-0.609 1.415-1.346 1.5-2.325 0.258-1.614-1.072-3.255-2.706-3.319-1.703-0.171-3.271 1.423-3.116 3.118zM6.925 19.348c1.567 0.859 2.536 2.453 3.021 4.125 0.506-1.553 0.895-3.328 0.187-4.881-0.231-0.402-0.508-0.92-0.97-1.054-0.849 0.461-1.541 1.151-2.237 1.809zM17.949 17.519c-0.765 0.562-1.171 1.496-1.245 2.426-0.095 1.204 0.162 2.414 0.579 3.539 0.43-1.697 1.442-3.271 2.995-4.138-0.725-0.664-1.419-1.415-2.329-1.827zM4.425 22.663c1.746 0.27 3.386 1.005 4.838 1.998-0.227-1.882-1.194-3.717-2.889-4.659-0.725 0.83-1.326 1.756-1.949 2.662zM17.943 24.657c1.448-0.991 3.084-1.732 4.826-2.002-0.617-0.893-1.226-1.793-1.902-2.643-1.752 0.873-2.686 2.771-2.924 4.645z"></path>
</svg>
