<!-- Generated by IcoMoon.io -->
<svg version="1.1" xmlns="http://www.w3.org/2000/svg" width="32" height="32" viewBox="0 0 32 32">
<title>mom</title>
<path fill="#444" d="M19.571 23.762c0.952 0.642 1.882 1.314 2.833 1.96-2.593 1.674-5.808 2.414-8.853 1.808 0.019-1.045 0.012-2.092-0.074-3.134 2.025 0.525 4.217 0.291 6.094-0.634zM15.737 14.524c0.786 0 1.423 0.637 1.423 1.423s-0.637 1.423-1.423 1.423c-0.786 0-1.423-0.637-1.423-1.423s0.637-1.423 1.423-1.423zM13.494 11.632c-0.575 0.243-1.154 0.479-1.734 0.711 0.196 0.286 0.389 0.572 0.582 0.859 0.092-0.054 0.125-0.070 0.2-0.108 0.265-0.135 0.441-0.207 0.74-0.211 0.774 0 1.401 0.627 1.401 1.401s-0.627 1.401-1.401 1.401c-0.774 0-1.401-0.627-1.401-1.401 0.009-0.188 0.028-0.38 0.119-0.548-0.666-0.172-0.331-0.086-1.005-0.257-0.052 0.63-0.079 1.259-0.079 1.889 1.712 1.126 3.272 2.526 5.247 3.184 3.163 2.135 6.261 4.365 9.4 6.537 0.673 0.439 1.281 1.045 2.099 1.197 1.448 0.343 2.898 0.682 4.338 1.061-0.818-1.271-1.684-2.509-2.509-3.776-0.363-0.599-0.99-0.94-1.546-1.331-2.812-1.96-5.617-3.928-8.429-5.889-0.553-0.391-1.154-0.739-1.605-1.257-1.181-1.488-2.941-2.316-4.417-3.463zM10.165 22.68c-0.363 0.549-0.737 1.088-1.128 1.615-0.165-0.107-0.489-0.324-0.651-0.434-0.1 0.365-0.198 0.732-0.296 1.1 0.942 0.77 1.999 1.381 3.093 1.908-0.024-1.159-0.021-2.318-0.041-3.477-0.327-0.236-0.653-0.472-0.978-0.711zM7.205 17.912c-0.761 0.971-1.488 1.968-2.237 2.948 0.377 0.687 0.761 1.369 1.188 2.027 0.16-0.785 0.332-1.569 0.544-2.342 0.508 0.272 1.016 0.551 1.557 0.751 0.072-0.081 0.219-0.243 0.291-0.324-0.584-0.956-1.080-1.965-1.343-3.060zM26.867 12.066c-0.446 0.539-0.894 1.073-1.348 1.605-0.453 0.031-0.909 0.062-1.362 0.091 0.248 1.026 0.301 2.082 0.224 3.132 0.925 0.658 1.86 1.302 2.783 1.965 0.549-2.242 0.379-4.598-0.298-6.793zM13.754 4.322c-0.401 0.083-0.801 0.167-1.202 0.253-1.095 1.651-2.123 3.346-3.198 5.011-0.384-0.112-0.768-0.222-1.152-0.334-0.3 0.742-0.737 1.417-1.374 1.915 0.207 0.351 0.611 0.653 0.675 1.059-1.176 1.56-2.385 3.096-3.568 4.651 0.062 0.415 0.117 0.832 0.181 1.25 1.476-1.972 2.974-3.928 4.474-5.882 0.866 0.186 1.732 0.372 2.6 0.546-0.458-0.768-0.947-1.522-1.419-2.283 1.359-2.042 2.612-4.152 3.983-6.187zM8.92 13.080c-0.217 0.265-0.436 0.53-0.653 0.794 0.644 1.142 1.15 2.356 1.82 3.485 0.062-1.331 0.091-2.664 0.124-3.995-0.429-0.093-0.861-0.188-1.29-0.284zM11.195 9.698c-0.174 0.277-0.351 0.551-0.525 0.825 0.243 0.384 0.489 0.77 0.732 1.157 1.231-0.53 2.5-0.961 3.714-1.524-1.305-0.174-2.612-0.322-3.921-0.458zM21.372 5.598c-0.322 0.973-0.744 1.908-1.157 2.848 1.226 0.785 2.271 1.829 3.036 3.067 0.365-0.055 0.751-0.031 1.102-0.165 0.506-0.496 0.916-1.083 1.381-1.617-1.116-1.693-2.604-3.117-4.362-4.133zM2.552 5.762c-0.305 0.472-0.627 0.933-0.971 1.379 1.622 1.090 3.232 2.201 4.827 3.334 0.415-0.393 0.747-0.861 0.983-1.383-1.638-1.071-3.248-2.189-4.839-3.33zM16.585 4.26c-0.661 1.014-1.309 2.034-2.001 3.027 1.159-0.126 2.337-0.076 3.463 0.248 0.37-0.954 0.706-1.92 1.135-2.85-0.854-0.217-1.72-0.367-2.597-0.425zM1.736 4.367c-0.57 0.215-1.135 0.436-1.703 0.651-0.026 0.62-0.038 1.243-0.031 1.865 0.198-0.002 0.596-0.005 0.794-0.007 0.417-0.575 0.825-1.159 1.24-1.739-0.103-0.255-0.203-0.513-0.3-0.77zM15.737 16.547c0.332 0 0.6-0.269 0.6-0.6s-0.269-0.6-0.6-0.6c-0.332 0-0.6 0.269-0.6 0.6s0.269 0.6 0.6 0.6zM13.282 14.884c0.332 0 0.6-0.269 0.6-0.6s-0.269-0.6-0.6-0.6c-0.332 0-0.6 0.269-0.6 0.6s0.269 0.6 0.6 0.6z"></path>
</svg>
