<!-- Generated by IcoMoon.io -->
<svg version="1.1" xmlns="http://www.w3.org/2000/svg" width="29" height="32" viewBox="0 0 29 32">
<title>mor</title>
<path fill="#444" d="M21.769 23.647c0 1.385-0.469 2.762-1.313 3.867-0.809 1.055-1.955 1.843-3.226 2.227-1.365 0.41-2.857 0.337-4.181-0.188-1.24-0.493-2.306-1.383-3.021-2.508-0.767-1.213-1.099-2.675-0.944-4.099 0.147-1.354 0.739-2.634 1.664-3.63 0.941-1.016 2.204-1.696 3.566-1.937 1.363-0.237 2.778-0.020 4.005 0.616 2.092 1.078 3.449 3.293 3.449 5.652zM23.539 23.292c0-1.901-0.668-3.744-1.887-5.206 0.879-0.346 1.7-0.853 2.408-1.506 0.839-0.771 1.524-1.74 1.767-2.828 0.158-0.689 0.134-1.424 0-2.118 0.536 0.395 1.040 0.87 1.415 1.412 0.879 1.283 1.175 3.211 1.199 4.846 0.026 1.729-0.237 3.162-0.847 4.694-0.732 1.846-2.165 3.474-3.885 4.591-0.554 0.36-1.14 0.665-1.744 0.923 1.023-1.394 1.574-3.079 1.574-4.808zM20.723 17.139c-1.863-1.611-4.357-2.288-6.78-1.846-0.117-0.029-0.232-0.062-0.349-0.097-1.603-0.492-3.1-1.617-3.718-3.217-0.026-0.068-0.053-0.135-0.073-0.205 0.041-0.047 0.085-0.094 0.126-0.141 0.71-0.762 1.544-1.433 2.473-1.766 0.996-0.358 2.098-0.329 3.183-0.707 0.917-0.322 1.819-0.935 2.118-1.766 0.272-0.753 0.047-1.682-0.355-2.473-0.68-1.348-1.863-2.291-3.179-2.828 1.286-0.193 2.672-0.117 3.888 0.355 1.254 0.486 2.327 1.394 3.18 2.473 0.735 0.932 1.31 1.992 1.412 3.179 0.099 1.143-0.244 2.402-1.061 3.179-0.551 0.525-1.318 0.83-1.763 1.415-0.492 0.645-0.589 1.635-0.355 2.473 0.22 0.779 0.727 1.43 1.351 1.94l-0.097 0.032zM12.065 15.879c-1.274 0.575-2.376 1.465-3.205 2.587-0.827 1.125-1.351 2.441-1.524 3.827-0.755-0.498-1.453-1.108-1.998-1.828-1.382-1.829-1.784-4.383-1.412-6.713 0.316-1.983 1.195-3.806 2.472-5.297 1.154-1.354 2.637-2.438 4.24-3.179-0.996 0.946-1.796 2.174-2.121 3.531-0.308 1.286-0.188 2.687 0.354 3.888 0.621 1.383 1.805 2.496 3.18 3.179 0.002 0.003 0.008 0.003 0.014 0.006zM7.283 23.67c0.071 1.526 0.572 3 1.442 4.257-0.070-0.015-0.138-0.029-0.208-0.041-1.374-0.281-2.728-0.683-3.885-1.415-1.119-0.706-2.057-1.72-2.828-2.824-0.761-1.096-1.362-2.279-1.766-3.534 0.653 0.867 1.5 1.605 2.473 2.118 0.767 0.407 1.614 0.674 2.473 0.706 0.36 0.015 0.721-0.011 1.078-0.073 0.387 0.296 0.797 0.566 1.222 0.806z"></path>
</svg>
