<!-- Generated by IcoMoon.io -->
<svg version="1.1" xmlns="http://www.w3.org/2000/svg" width="27" height="32" viewBox="0 0 27 32">
<title>mp1</title>
<path fill="#444" d="M8.956 11.368l-0 0.052c-0.020-0.004-0.006-0.002-0.043-0.004l0.043-0.048z"></path>
<path fill="#444" d="M13.244 2.204c5.537 0.029 3.164 0.003 7.119 0.058 1.361 0.003 2.724 0.033 4.084 0.081 0.84 0.016 1.68 0.043 2.521 0.087-0.157 1.794-1.886 2.651-3.613 3.008 1.016 0.52 2.096 0.974 2.817 1.906 0.875 1.157 0.434 2.828-0.71 3.633-1.358 0.965-3.078 1.25-4.693 0.998-0.859-0.138-1.832-0.596-2.033-1.529-0.325-1.453 1.431-2.797 2.762-2.174 0.385 0.19 0.823 0.759 0.709 1.228-0.133 0.599-0.842 0.807-1.375 0.802-0.149-0.001-0.171-0.23-0.073-0.36 0.098-0.131 0.443-0.166 0.471-0.25 0.102-0.305-0.147-0.548-0.373-0.633-0.237-0.089-0.728 0.040-0.906 0.248-0.259 0.303-0.15 0.941 0.167 1.19 0.906 0.711 2.427 0.414 3.069-0.814 0.246-0.469-0.039-1.272-0.438-1.587-1.010-0.795-2.505-1.004-3.696-0.668-0.923 0.26-1.872 1.141-1.966 2.203-0.285 2.407-0.211 4.573-0.211 7.25 0 2.373-0.211 4.863 0.486 7.167 0.255 0.938 0.823 1.956 1.712 2.276 0.774 0.278 1.871 0.235 2.631 0.042 1.067-0.271 1.333-0.522 1.844-1.22 0.369-0.504 0.441-1.116 0.256-1.903-0.296-1.26-2.424-1.517-3.212-0.529-0.229 0.287-0.392 1.015-0.074 1.274 0.353 0.288 1.219 0.254 1.466 0.040 0.188-0.163 0.227-0.656-0.061-0.809-0.091-0.048-0.408-0.054-0.239-0.308 0.182-0.273 0.847-0.271 1.075 0.209 0.313 0.658 0.158 1.274-0.372 1.696-0.875 0.697-2.537 0.849-3.275-0.071-1.010-1.259-0.602-3.593 0.961-4.254 1.407-0.595 2.872-0.526 4.185 0.015 1.693 0.698 2.865 3.040 2.609 5.133-0.262 2.139-2.134 3.218-4.167 3.794-1.462 0.414-3.32 0.561-4.729-0.032-1.364-0.574-2.028-1.055-2.537-2.079-0.656-1.347-0.698-2.912-0.768-4.384-0.207-4.305-0.278-8.587-0.429-12.888 0.016-0.596-0.225-1.4-0.818-1.383-0.731 0.021-0.892 1.342-0.816 2.090-0.038 4.681-0.041 9.265-0.52 14.028-0.137 1.361-0.491 2.854-1.654 3.711-2.141 1.629-5.041 1.505-7.475 0.605-1.127-0.583-2.12-1.314-2.589-2.547-1.119-2.775 0.802-6.165 3.821-6.431 1.255-0.003 2.663-0.025 3.487 1.065 0.734 1.049 0.848 2.716 0.005 3.724-0.737 0.741-1.989 0.706-2.778 0.117-0.567-0.423-0.989-1.086-0.789-1.85 0.111-0.425 0.931-0.538 1.183-0.202 0.152 0.202-0.208 0.19-0.344 0.364-0.133 0.17-0.102 0.353-0.020 0.495 0.211 0.366 1.092 0.47 1.456 0.182 0.269-0.213 0.178-1.046-0.082-1.304-0.675-0.668-1.716-0.836-2.511-0.366-0.5 0.296-0.887 0.989-0.818 1.575 0.058 0.496 0.214 0.862 0.355 1.107 0.17 0.294 0.394 0.475 0.752 0.773 1.075 0.896 2.927 1.092 4.218 0.23 1.355-0.959 1.536-2.916 1.649-4.447 0.152-3.613 0.040-7.179 0.021-10.794 0.035-0.875-0.25-1.912-0.89-2.477-0.991-0.875-2.082-1.205-3.244-0.989-0.874 0.162-1.899 0.797-2.151 1.816-0.127 0.572 0.449 1.158 0.877 1.378 0.686 0.363 1.782 0.529 2.276-0.021 0.242-0.27 0.326-0.985 0.146-1.253-0.168-0.25-0.863-0.336-1.065-0.125-0.158 0.166-0.161 0.859 0.33 0.808 0.128-0.013 0.236 0.133 0.162 0.243-0.071 0.105-0.317 0.173-0.493 0.14-0.504-0.096-1.4-0.533-1.189-1.354 0.561-1.225 2.361-0.973 3.041 0.005 0.762 0.827 0.417 2.26-0.612 2.686-1.678 0.753-3.529 0.489-5.143-0.253-1.117-0.514-1.904-1.774-1.649-3.069 0.287-1.526 2.094-2.591 3.443-2.979-0.071-0.111-0.325-0.067-0.678-0.12-1.535-0.229-2.918-1.234-3.099-2.831 1.287-0.095 2.481-0.075 3.771-0.094 1.117-0.024 2.233-0.049 3.353-0.043 1.239-0.033 2.477-0.051 3.716-0.033l2.373-0.023z"></path>
</svg>
