<!-- Generated by IcoMoon.io -->
<svg version="1.1" xmlns="http://www.w3.org/2000/svg" width="30" height="32" viewBox="0 0 30 32">
<title>mp2</title>
<path fill="#444" d="M11.881 22.156c-0.574-2.009 0.070-7.626-1.242-8.54s-5.222-2.413-6.035-3.604c-0.813-1.191 3.843-8.046 3.843-8.046s-6.428 3.364-8.365 9.011c-0.71 1.984 5.839 3.738 6.717 4.099s2.344 3.178 1.648 8.333c0 2.445 3.253 4.708 5.217 5.852 0.85 0.495 1.459 0.78 1.459 0.78-0.009 0 0.529-0.267 1.29-0.733 1.846-1.129 5.007-3.423 4.877-5.9-0.272-5.193 0.771-7.972 1.648-8.333 0.61-0.251 3.946-1.381 5.816-2.689 0.826-0.578 1.65-1.138 1.433-1.745-1.937-5.647-8.242-8.675-8.242-8.675s4.257 6.726 3.444 7.918c-0.813 1.191-4.912 2.7-6.224 3.615s-0.561 6.75-1.135 8.759c-0.367 1.284-1.452 2.109-2.188 2.537-0.416 0.242-0.72 0.357-0.72 0.357 0.010 0-0.277-0.107-0.687-0.323-0.832-0.439-2.171-1.325-2.555-2.672zM18.030 6.914c0-1.63-1.354-2.951-3.023-2.951s-3.023 1.321-3.023 2.951 1.354 2.951 3.023 2.951c1.67 0 3.023-1.321 3.023-2.951z"></path>
</svg>
