<!-- Generated by IcoMoon.io -->
<svg version="1.1" xmlns="http://www.w3.org/2000/svg" width="32" height="32" viewBox="0 0 32 32">
<title>mrd</title>
<path fill="#444" d="M23.543 13.752l-2.393 6.776c0 0 0.452 0.452 1.218 0.496l0.588-1.67c0 0 5.69 0.496 6.73 1.309 0 0-0.723 1.492-1.673-0.315 0 0-1.49 2.078 0.046 3.297 1.536 1.221 3.567 0.632 3.929-0.134 0 0-1.492-0.090-1.853-0.86-0.359-0.767 0.046-1.084 0.361-1.174 0.318-0.090 1.402-0.269 1.402-1.174 0-0.901-1.944-2.437-7.678-4.605l0.542-1.445c0 0-0.454-0.498-1.221-0.498zM15.819 14.537c0 0 2.935 0.421 4.336 0.782l-1.851-1.791c0 0-1.099 0.586-2.486 1.009zM14.916 14.656c-5.602-0.452-8.808-3.658-8.808-3.658 2.935 6.232 8.808 3.658 8.808 3.658zM0.011 7.654c0 0 2.122 1.536 7.226 1.673l-0.767 0.857c0 0 5.15 4.336 11.924 1.987l3.975 2.981-1.265 3.522c0 0-5.148 0.273-10.886-2.484-5.736-2.755-8.761-5.736-10.207-8.537z"></path>
</svg>
