<!-- Generated by IcoMoon.io -->
<svg version="1.1" xmlns="http://www.w3.org/2000/svg" width="32" height="32" viewBox="0 0 32 32">
<path fill="#444" d="M0 4.239c5.195 0 10.39 0 15.584 0 0 7.767 0 15.534 0 23.3-5.195 0-10.39 0-15.584 0v-23.301zM2.15 6.841c0 6.032 0 12.063 0 18.095 1.093-0.001 2.186-0 3.279 0 0-2.901-0.001-5.802 0.001-8.702 0.498 2.9 0.993 5.801 1.487 8.702 0.582 0.001 1.163-0.001 1.744 0.001 0.492-2.905 0.979-5.81 1.471-8.715 0.001 2.905 0 5.81 0 8.715 1.101 0 2.202-0.001 3.302 0 0-6.032-0-12.063 0-18.095-1.388 0.001-2.776-0-4.164 0.001-0.498 3.115-0.998 6.229-1.499 9.343-0.486-3.115-0.973-6.229-1.46-9.343-1.387 0.001-2.774 0.001-4.161 0zM16.195 4.239c5.195-0 10.39-0 15.584 0 0 7.767 0 15.534 0 23.3-5.195 0-10.39 0-15.584 0-0-7.767-0-15.534 0-23.3zM17.518 19.463c0 2.182 0 4.364 0 6.545 4.313 0.001 8.626 0 12.939 0-0-2.182-0-4.364 0-6.546h-12.939zM25.841 5.716c-0 4.123 0.001 8.245-0 12.368 1.538 0 3.077 0 4.616 0-0.001-4.122 0-8.245-0-12.368-1.538-0-3.077 0-4.615 0zM17.518 12.591c0 1.831 0 3.663 0 5.495 2.338 0 4.676 0 7.014 0-0-1.832-0-3.664 0-5.496-2.338 0-4.676 0-7.014 0zM17.518 5.716c-0 1.833 0 3.666-0 5.498 2.338 0 4.676-0 7.014 0-0-1.833 0-3.666-0-5.499-2.337 0-4.675-0-7.013 0z"></path>
</svg>
