<!-- Generated by IcoMoon.io -->
<svg version="1.1" xmlns="http://www.w3.org/2000/svg" width="18" height="32" viewBox="0 0 18 32">
<path fill="#444" d="M3.003 3.629c2.902-1.177 5.804-2.356 8.706-3.533 0 0.431 0 0.862 0 1.293-2.902 0.746-5.803 1.496-8.706 2.239zM3.375 4.104c3.56-0.926 7.121-1.849 10.681-2.772 0.001 0.482 0 0.964 0 1.446-3.561 0.442-7.12 0.887-10.681 1.326zM14.585 3.174c0.607-0.074 1.214-0.151 1.82-0.225 0 0.53-0 1.060 0.001 1.59-4.122 0.001-8.244 0-12.366 0-0.13-0.001-0.261 0.002-0.392-0.004 3.598-0.438 7.194-0.89 10.792-1.333 0.049-0.004 0.096-0.022 0.145-0.029zM0 5.078c5.914 0.001 11.829-0.001 17.743 0.001-0.001 8.868 0 17.736-0 26.605-5.914 0-11.829 0-17.743 0 0-8.868-0-17.737 0-26.605zM2.444 8.047c-0 6.888 0 13.776 0 20.664 1.244 0 2.488-0 3.733 0 0-3.318-0.001-6.636 0-9.954 0.567 3.318 1.131 6.636 1.697 9.954 0.662-0.001 1.323-0 1.985 0 0.558-3.318 1.114-6.636 1.674-9.954 0.002 3.318 0 6.636 0.001 9.954 1.253-0.001 2.506 0 3.759-0 0-6.888 0-13.776 0-20.664-1.579-0-3.158 0.001-4.737-0-0.57 3.558-1.138 7.115-1.708 10.673-0.555-3.558-1.11-7.115-1.664-10.673-1.58 0.001-3.16 0-4.74 0z"></path>
</svg>
