<!-- Generated by IcoMoon.io -->
<svg version="1.1" xmlns="http://www.w3.org/2000/svg" width="23" height="32" viewBox="0 0 23 32">
<title>ncc-white</title>
<path fill="#444" d="M18.712 9.993c1.659-0.935 3.133-2.15 4.646-3.295 0.221 1.297 0.167 2.78-0.754 3.813-1.109 1.191-2.548 2-3.927 2.833-0.149 0.077-0.156 0.259-0.21 0.397 0.551-0.010 1.044-0.284 1.523-0.529 0.921-0.502 1.786-1.1 2.6-1.762 0.138 1.056 0.077 2.243-0.61 3.112-0.607 0.773-1.6 1.042-2.479 1.375-0.646 0.256-1.362 0.34-1.96 0.712 0.189 0.289 0.523 0.187 0.802 0.149 0.994-0.163 1.938-0.525 2.876-0.878-0.14 0.8-0.332 1.679-0.97 2.239-0.261 0.256-0.64 0.243-0.976 0.279-1.003 0.074-2.004 0.161-3.010 0.192-0.89 0.127-1.491 0.887-2.074 1.5-0.157-0.903-0.707-1.829-1.633-2.096-0.826-0.215-1.823-0.16-2.461 0.474-0.467 0.415-0.701 1.020-0.834 1.616-0.419-0.481-0.876-0.944-1.422-1.282-0.593-0.345-1.301-0.187-1.949-0.275-0.815-0.096-1.654-0.045-2.449-0.252-0.826-0.488-1.051-1.526-1.208-2.403 1.018 0.397 2.055 0.787 3.146 0.922 0.213 0.048 0.391-0.013 0.535-0.182-0.138-0.087-0.282-0.163-0.432-0.227-1.199-0.407-2.473-0.697-3.54-1.405-1.091-0.812-1.236-2.31-1.088-3.562 0.935 0.715 1.898 1.405 2.953 1.934 0.385 0.174 0.789 0.383 1.227 0.314-0.096-0.187-0.215-0.366-0.407-0.462-1.212-0.699-2.414-1.439-3.446-2.391-0.68-0.611-1.108-1.489-1.165-2.401-0.032-0.586 0-1.173 0.062-1.757 1.389 1.018 2.714 2.135 4.197 3.019 1.020 0.64 2.129 1.136 3.092 1.863 0.349 0.224 0.205 0.698 0.28 1.043 0.145 1.301 1.236 2.238 2.356 2.763 0.778 0.387 1.671 0.341 2.513 0.284 0.979-0.163 1.859-0.724 2.54-1.428 0.537-0.573 0.8-1.353 0.797-2.133-0.014-0.223 0.066-0.438 0.266-0.553 0.806-0.615 1.736-1.035 2.596-1.562z"></path>
</svg>
