<!-- Generated by IcoMoon.io -->
<svg version="1.1" xmlns="http://www.w3.org/2000/svg" width="23" height="32" viewBox="0 0 23 32">
<title>ncc</title>
<path fill="#444" d="M9.943 1.879c1.052-0.715 2.504-0.741 3.549 0 0.061 0.854 0.034 1.711 0.039 2.567-0.001 3.372 0.003 6.743-0.003 10.115-1.092 0.608-2.509 0.611-3.6-0.004 0.017-4.227-0.012-8.452 0.014-12.679zM1.291 4.849c0.022 0.675-0.031 1.358 0.105 2.025 1.45 1.134 3.033 2.080 4.613 3.018 0.032-0.868-0.031-1.738 0.034-2.604 0.090-0.941 0.834-1.636 1.601-2.095-0.008-1.033 0.72-1.917 1.596-2.386 0.004-0.195 0.007-0.389 0.010-0.584-2.813 0.222-5.558 1.153-7.959 2.626zM14.187 2.223c0.009 0.2 0.018 0.4 0.030 0.601 0.887 0.451 1.591 1.353 1.605 2.377 0.749 0.45 1.467 1.117 1.584 2.029 0.092 0.882 0.021 1.771 0.040 2.656 1.589-0.938 3.181-1.884 4.628-3.033-0.045-0.671 0.108-1.332 0.096-2.002-2.412-1.471-5.161-2.414-7.982-2.627zM8.36 5.080c-0.005 2.338 0.003 4.677-0.004 7.016-0.018 0.746 0.278 1.511 0.883 1.971 0.013-3.49 0.013-6.981 0-10.471-0.437 0.38-0.886 0.867-0.88 1.484zM14.224 3.615c-0.010 3.482-0.018 6.964 0.004 10.446 0.594-0.466 0.881-1.225 0.878-1.967-0.001-2.291-0.001-4.583 0-6.876 0.031-0.654-0.389-1.219-0.882-1.603zM6.766 7.563c-0.032 0.904-0.001 1.811-0.010 2.717 0.285 0.175 0.575 0.346 0.868 0.511 0.010-1.558 0.014-3.116-0.001-4.674-0.462 0.348-0.843 0.846-0.856 1.446zM15.842 6.12c-0.017 1.559-0.008 3.121-0.004 4.682 0.278-0.169 0.553-0.339 0.826-0.514-0.018-0.96 0.013-1.921-0.012-2.881-0.021-0.541-0.411-0.966-0.811-1.287zM1.495 19.206c0.036 0.323 0.102 0.642 0.218 0.947 0.846 2.401 2.405 4.517 4.302 6.197 0.005-2.353 0.003-4.708 0.001-7.061-0.846-0.027-1.687-0.135-2.534-0.149-0.41-0.004-0.719-0.301-0.995-0.567-0.3 0.256-0.623 0.488-0.992 0.633zM10.888 18.795c-0.656 0.354-0.961 1.138-0.955 1.854-0.003 3.158 0.008 6.314-0.005 9.47 1.035 0.736 2.458 0.686 3.555 0.113 0.078-0.68 0.043-1.365 0.049-2.047-0.001-2.466 0.001-4.934-0.001-7.4 0.001-0.584-0.132-1.196-0.529-1.642-0.512-0.592-1.434-0.662-2.113-0.348zM19.977 19.136c-0.845 0.025-1.684 0.122-2.528 0.153-0.003 2.356 0 4.711-0.001 7.066 0.653-0.594 1.279-1.221 1.827-1.916 1.235-1.532 2.313-3.282 2.696-5.235-0.385-0.126-0.703-0.379-1.012-0.632-0.266 0.272-0.575 0.554-0.981 0.563zM6.762 19.355c-0.017 2.641-0.005 5.284-0.006 7.925-0.026 0.485 0.507 0.702 0.87 0.876 0.012-2.861-0.003-5.721 0.008-8.583-0.284-0.095-0.576-0.166-0.872-0.218zM15.828 19.571c0.021 2.859-0.013 5.718 0.017 8.576 0.352-0.18 0.898-0.37 0.817-0.869-0.008-2.639 0.006-5.279-0.008-7.919-0.28 0.051-0.557 0.122-0.826 0.211zM8.367 20.249c-0.019 2.774 0 5.547-0.010 8.321-0.097 0.507 0.515 0.598 0.859 0.728 0.004-2.615 0.014-5.232-0.004-7.847-0.154-0.468-0.544-0.821-0.845-1.201zM14.252 21.449c-0.017 2.615-0.009 5.233-0.003 7.849 0.288-0.134 0.825-0.173 0.829-0.586 0.010-2.818 0.004-5.637 0.003-8.456-0.296 0.378-0.693 0.724-0.829 1.194zM18.712 9.993c-0.86 0.527-1.79 0.947-2.596 1.562-0.2 0.114-0.28 0.329-0.266 0.553 0.004 0.78-0.259 1.559-0.797 2.133-0.681 0.704-1.561 1.265-2.54 1.428-0.842 0.057-1.735 0.102-2.513-0.284-1.12-0.525-2.211-1.462-2.356-2.763-0.075-0.345 0.069-0.819-0.28-1.043-0.963-0.726-2.072-1.223-3.092-1.863-1.483-0.883-2.807-2-4.197-3.019-0.062 0.584-0.095 1.17-0.062 1.757 0.057 0.912 0.485 1.79 1.165 2.401 1.031 0.952 2.234 1.692 3.446 2.391 0.192 0.096 0.311 0.275 0.407 0.462-0.438 0.069-0.842-0.14-1.227-0.314-1.055-0.529-2.017-1.219-2.953-1.934-0.148 1.252-0.003 2.75 1.088 3.562 1.068 0.708 2.342 0.998 3.54 1.405 0.15 0.064 0.294 0.14 0.432 0.227-0.144 0.169-0.322 0.23-0.535 0.182-1.091-0.135-2.128-0.525-3.146-0.922 0.157 0.877 0.381 1.915 1.208 2.403 0.795 0.206 1.635 0.156 2.449 0.252 0.647 0.088 1.356-0.070 1.949 0.275 0.546 0.337 1.003 0.8 1.422 1.282 0.134-0.597 0.367-1.201 0.834-1.616 0.638-0.633 1.635-0.689 2.461-0.474 0.926 0.267 1.476 1.194 1.633 2.096 0.584-0.612 1.184-1.373 2.074-1.5 1.005-0.031 2.007-0.118 3.010-0.192 0.336-0.036 0.715-0.023 0.976-0.279 0.638-0.56 0.83-1.439 0.97-2.239-0.938 0.353-1.882 0.715-2.876 0.878-0.279 0.038-0.612 0.14-0.802-0.149 0.598-0.372 1.314-0.457 1.96-0.712 0.88-0.333 1.872-0.602 2.479-1.375 0.686-0.869 0.747-2.056 0.61-3.112-0.813 0.662-1.679 1.26-2.6 1.762-0.479 0.245-0.972 0.519-1.523 0.529 0.054-0.137 0.061-0.32 0.21-0.397 1.379-0.833 2.818-1.642 3.927-2.833 0.921-1.033 0.974-2.516 0.754-3.813-1.513 1.146-2.986 2.36-4.646 3.295z"></path>
</svg>
