<svg xmlns="http://www.w3.org/2000/svg" viewBox="0 0 1024 1024"><path d="M745.851 495.508l3.458-.068c47.039-2.196 51.485-48.556 51.553-49.034.137-1.923-1.125-3.644-2.98-4.256-.41-.123-.8-.123-1.21-.123-1.534 0-2.93.732-3.714 2.06-.137.188-14.783 24.407-45.252 26.945-1.789.067-3.458.135-5.127.135-27.675 0-45.626-18.973-45.763-19.159-.869-.869-1.993-1.345-3.202-1.345-.666 0-1.398.135-2.062.476-1.652.92-2.521 2.862-1.992 4.717.135.41 12.448 39.649 56.288 39.649zm-139.387 29.938l-79.365 10.184-3.185-20.164-516.937 70.05L.266 538.68l516.052-70.647-3.458-21.953 55.948-9.18s10.185 24.407 44.776 24.407c33.075 0 70.731-41.711 70.731-41.711l-23.895-67.188 49.033 56.407a123.201 123.201 0 0 1 14.034-3.985l9.18-81.954 21.494 79.297c4.463.205 9.112.596 13.914 1.329l32.787-63.271-6.115 69.982a199.957 199.957 0 0 1 8.585 3.338c15.701 6.574 31.27 19.959 49.237 18.563 16.418-1.277 24.747-8.788 31.729-22.685 1.652-3.338 3.05-17.304 3.05-17.304 44.655 51.026 136.387-59.015 136.387-59.015-55.811 229.652-180.755 376.547-340.951 376.547-122.813 0-150.166-104.98-150.166-104.98s44.384 6.267 73.847-14.102c29.551-20.352 11.191-51.895 0-65.128z"/></svg>