<!-- Generated by IcoMoon.io -->
<svg version="1.1" xmlns="http://www.w3.org/2000/svg" width="32" height="32" viewBox="0 0 32 32">
<title>neo</title>
<path fill="#444" d="M19.071 9.288c1.033-0.747 2.338-1.115 3.609-1.001 1.674 0.124 3.258 1.091 4.131 2.525 0.569 0.908 0.854 1.99 0.816 3.059-0.050 1.201-0.502 2.386-1.289 3.298-1.191-1.192-2.383-2.383-3.575-3.575-0.585 0.561-1.169 1.125-1.748 1.694-1.251-1.243-2.491-2.496-3.743-3.737 0.361-0.908 1.011-1.691 1.798-2.263zM0 23.733c0.848 0.001 1.695-0 2.543 0 0.225-0.236 0.449-0.472 0.672-0.71 1.427-1.523 2.945-2.956 4.45-4.4 1.123 1.097 2.255 2.187 3.331 3.33 0.426-0.426 0.853-0.85 1.277-1.278-0.556-0.565-1.109-1.132-1.666-1.695 0.552-0.551 1.117-1.091 1.668-1.644-0.555-0.567-1.114-1.129-1.661-1.703 1.237-1.231 2.477-2.459 3.721-3.683 0.686 0.655 1.378 1.304 2.065 1.957-0.591 0.605-1.191 1.201-1.773 1.814 0.555 0.555 1.109 1.111 1.666 1.665-0.553 0.56-1.112 1.113-1.667 1.671 0.423 0.427 0.849 0.85 1.274 1.276 0.596-0.562 1.181-1.136 1.767-1.709 0.693 0.68 1.374 1.372 2.063 2.057-0.539 0.547-1.098 1.074-1.633 1.623 0.45 0.478 0.904 0.952 1.357 1.428 0.857-0.001 1.715 0 2.573-0.001-0.461-0.505-0.931-1-1.399-1.498 0.543-0.54 1.082-1.083 1.625-1.623-0.543-0.544-1.086-1.088-1.631-1.631 0.691-0.692 1.384-1.384 2.075-2.076 1.253 1.256 2.507 2.511 3.764 3.764-0.543 0.539-1.083 1.081-1.624 1.623 0.414 0.41 0.816 0.833 1.241 1.231 0.566-0.555 1.122-1.121 1.684-1.68 0.571 0.593 1.139 1.19 1.716 1.777 0.562-0.006 1.124 0.012 1.687 0.007 0.279 0.005 0.559-0.018 0.836 0.025-0.055-0.123-0.17-0.201-0.258-0.297-2.995-2.995-5.989-5.99-8.985-8.984-0.584 0.564-1.172 1.124-1.749 1.694-2.226-2.221-4.446-4.448-6.672-6.669-4.779 4.779-9.557 9.557-14.336 14.336z"></path>
</svg>
