<!-- Generated by IcoMoon.io -->
<svg version="1.1" xmlns="http://www.w3.org/2000/svg" width="32" height="32" viewBox="0 0 32 32">
<title>nms</title>
<path fill="#444" d="M23.308 14.818l0.108-0.002c1.47-0.069 1.609-1.517 1.611-1.532 0.004-0.060-0.035-0.114-0.093-0.133-0.013-0.004-0.025-0.004-0.038-0.004-0.048 0-0.092 0.023-0.116 0.064-0.004 0.006-0.462 0.763-1.414 0.842-0.056 0.002-0.108 0.004-0.16 0.004-0.865 0-1.426-0.593-1.43-0.599-0.027-0.027-0.062-0.042-0.1-0.042-0.021 0-0.044 0.004-0.064 0.015-0.052 0.029-0.079 0.089-0.062 0.147 0.004 0.013 0.389 1.239 1.759 1.239zM18.952 15.754l-2.48 0.318-0.1-0.63-16.154 2.189-0.21-1.464 16.127-2.208-0.108-0.686 1.748-0.287c0 0 0.318 0.763 1.399 0.763 1.034 0 2.21-1.303 2.21-1.303l-0.747-2.1 1.532 1.763c0.135-0.047 0.281-0.089 0.439-0.125l0.287-2.561 0.672 2.478c0.139 0.006 0.285 0.019 0.435 0.042l1.025-1.977-0.191 2.187c0.087 0.031 0.177 0.066 0.268 0.104 0.491 0.205 0.977 0.624 1.539 0.58 0.513-0.040 0.773-0.275 0.992-0.709 0.052-0.104 0.095-0.541 0.095-0.541 1.395 1.595 4.262-1.844 4.262-1.844-1.744 7.177-5.649 11.767-10.655 11.767-3.838 0-4.693-3.281-4.693-3.281s1.387 0.196 2.308-0.441c0.923-0.636 0.35-1.622 0-2.035z"></path>
</svg>
