<!-- Generated by IcoMoon.io -->
<svg version="1.1" xmlns="http://www.w3.org/2000/svg" width="22" height="32" viewBox="0 0 22 32">
<title>nph</title>
<path fill="#444" d="M12.733 20.78v-9.701c2.461 0.638 4.251 2.57 4.251 4.849 0 2.282-1.79 4.214-4.251 4.852zM4.932 15.928c0-2.279 1.79-4.211 4.251-4.849v9.701c-2.461-0.638-4.251-2.57-4.251-4.852zM21.889 15.928c0-4.636-3.964-8.48-9.155-9.204v-6.724l-3.55 3.050v3.674c-5.187 0.724-9.152 4.568-9.152 9.204 0 4.639 3.965 8.483 9.152 9.207v6.865l3.55-3.050v-3.815c5.192-0.724 9.155-4.568 9.155-9.207z"></path>
</svg>
