<!-- Generated by IcoMoon.io -->
<svg version="1.1" xmlns="http://www.w3.org/2000/svg" width="19" height="32" viewBox="0 0 19 32">
<title>ody</title>
<path fill="#444" d="M3.19 16.73c-0.394 0.869 0.697 0.77 1.239 1.083 0.355 0.204 0.68 0.451 0.878 0.797 0.231 0.406 0.598 1.155 0.649 1.536 0 0 1.248-0.406 1.823-1.894 0 0 1.993 0.145 2.739-0.048 0.743-0.192 1.197-0.506 1.197-0.506-0.888 0.048-1.822-0.12-1.822-0.12s0.553-1.344 1.524-2.204c1.506-1.329 5.066-1.055 5.644 1.055 0.172 0.634-0.087 1.713-0.496 2.225-0.38 0.473-0.924 0.815-1.422 1.149-1.079 0.718-2.232 1.109-3.479 1.425-1.506 0.385-3.475 0.289-3.475 0.289s-2.018 0.959-3.867 1.573c-1.115 0.367-1.951 1.245-2.33 2.394 0.069 0 2.402-2.096 5.923-1.837 0.818 0.060 1.672 0.202 2.481 0.024 1.97-0.427 2.171-1.63 2.932-2.011 1.055-0.526 2.291-1.055 3.478-0.629 1.753 0.629 1.897 2.55 0.995 3.843-0.207 0.297-0.538 0.724-0.971 0.821 0 0 0.391 0.661 0.415 1.079 0.052 0.99-0.941 2.288-2.026 1.907-0.632-0.226-0.888-1.068-0.74-1.666 0.087-0.349 0.276-0.56 0.625-0.65 0.812-0.205 1.248 0.385 1.248 0.385-0.096-0.67 0.112-1.359-1.287-1.675-1.308-0.295-2.062 0.286-2.892 0.282-1.249-0.002-2.015 0-3.356-0.165-1.407-0.178-3.461 0.213-4.182 0.502-0.466 0.186-1.347 0.565-1.516 1.158-0.373 1.308 2.453 0.172 2.814 0.090 1.569-0.346 3.046-0.369 4.655-0.385 0.848-0.006 1.921 0.049 2.637 0.153 0.099 1.771 0.677 2.201 2.044 2.656-0.069 0.135-0.135 0.273-0.205 0.409-0.276 0.553-1.644-0.012-2.018-0.126-0.857-0.262-1.759-0.445-2.652-0.496-1.371-0.081-2.694 0.057-4.068 0.024 0 0-0.932-0.027-4.050 0.142-1.019 0.057-1.53-0.219-1.756-0.617-0.659-1.161 0.273-2.125 0.273-2.125-0.108-0.045-1.257-0.596-0.577-1.826 0.992-1.792 2.595-2.426 4.020-3.761 0 0 0.156-0.674-0.126-1.419-0.256-0.67-0.815-0.881-1.392-1.182-0.366-0.196-0.817-0.442-1.001-0.836-0.516-1.125 1.252-2.391 1.892-3.079 0 0-1.408-2.081-1.408-4.672 0-4.315 3.497-7.812 7.809-7.812 4.318 0 7.811 3.497 7.811 7.812 0 2.399-2.144 4.038-2.144 4.038-1.789-0.55-3.184-0.223-4.303 0.451-2.032 1.223-2.529 3.235-2.529 3.235-1.576-0.238-3.313-1.098-4.338-2.123 0 0-1.233 1.142-1.317 1.329z"></path>
</svg>
