<!-- Generated by IcoMoon.io -->
<svg version="1.1" xmlns="http://www.w3.org/2000/svg" width="32" height="32" viewBox="0 0 32 32">
<title>ogw</title>
<path fill="#444" d="M14.189 2.956c0.058-0.164 0.122-0.325 0.194-0.484 0.041 3.747 0.006 7.496 0.018 11.243-0.006 4.665 0.014 9.331-0.010 13.998-3.227-3.020-6.428-6.067-9.648-9.094 0.093-0.084 0.19-0.164 0.293-0.236 1.568-1.046 3.128-2.104 4.694-3.152 0.254-0.135 0.288-0.444 0.387-0.686 1.352-3.865 2.719-7.725 4.073-11.589zM17.733 2.472c-0.041 3.363-0.006 6.728-0.018 10.092 0.006 5.049-0.014 10.099 0.010 15.148 3.227-3.018 6.425-6.067 9.646-9.090-0.091-0.088-0.187-0.169-0.291-0.241-1.549-1.029-3.085-2.078-4.633-3.109-0.122-0.087-0.264-0.171-0.302-0.326-1.481-4.154-2.902-8.331-4.413-12.475zM0.231 29.081c3.73 0.148 7.46 0.308 11.19 0.447-2.24-2.082-4.493-4.152-6.743-6.223-1.49 1.92-2.971 3.845-4.447 5.775zM20.58 29.528c3.731-0.139 7.46-0.299 11.19-0.447-1.476-1.93-2.957-3.856-4.445-5.775-2.252 2.070-4.504 4.141-6.744 6.223z"></path>
</svg>
