<!-- Generated by IcoMoon.io -->
<svg version="1.1" xmlns="http://www.w3.org/2000/svg" width="31" height="32" viewBox="0 0 31 32">
<path fill="#444" d="M12.775 11.45l2.558-4.571 7.247 13.3-9.805-8.729zM9.753 20.723l2.212-7.815 0.342-0.578 2.413 2.151-4.967 6.242zM10.111 21.871l5.016-6.299 3.464 6.554-8.48-0.255zM16.542 16.172l6.020 5.33-2.616 1.063-3.403-6.393zM3.399 28.256l6.475-11.583-3.274 11.569-3.201 0.014zM8.827 28.251l14.827-6.155 0.553 1.067-5.527 5.081-9.853 0.007zM9.157 22.825l9.566 0.24-10.912 4.528 1.346-4.768zM20.109 28.261l4.599-4.214 2.275 4.196-6.874 0.017z"></path>
</svg>
