<!-- Generated by IcoMoon.io -->
<svg version="1.1" xmlns="http://www.w3.org/2000/svg" width="31" height="32" viewBox="0 0 31 32">
<path fill="#444" d="M14.849 1.955l15.818 28.091h-30.667l14.849-28.091zM12.775 11.45l9.805 8.729-7.247-13.3-2.558 4.571zM9.753 20.723l4.967-6.242-2.413-2.151-0.342 0.578-2.212 7.815zM10.111 21.871l8.48 0.255-3.464-6.554-5.016 6.299zM16.542 16.172l3.403 6.393 2.616-1.063-6.020-5.33zM3.399 28.256l3.201-0.014 3.274-11.569-6.475 11.583zM8.827 28.251l9.853-0.007 5.527-5.081-0.553-1.067-14.827 6.155zM9.157 22.825l-1.346 4.768 10.912-4.528-9.566-0.24zM20.109 28.261l6.874-0.017-2.275-4.196-4.599 4.214z"></path>
</svg>
