<!-- Generated by IcoMoon.io -->
<svg version="1.1" xmlns="http://www.w3.org/2000/svg" width="32" height="32" viewBox="0 0 32 32">
<path fill="#444" d="M15.014 3.844l5.643 10.328 11.342 8.203-7.891-1.668 3.699 6.894h-25.64l4.102-7.672-6.269-6.376 8.681 1.888 6.333-11.597zM15.117 14.789l-3.921 7.118 7.826-0.004-3.905-7.114zM5.638 16.671l2.883 2.937-3.261 6.179 19.487 0.008-3.476-6.572-2.777-0.596 2.315 4.289-11.344 0.003 2.627-4.84-6.452-1.408zM10.184 16.584l2.465 0.52 2.498-4.475 2.659 4.766 6.131 1.357-4.808-3.621-4.117-7.486-4.828 8.939z"></path>
</svg>
