<!-- Generated by IcoMoon.io -->
<svg version="1.1" xmlns="http://www.w3.org/2000/svg" width="27" height="32" viewBox="0 0 27 32">
<title>onc</title>
<path fill="#444" d="M23.693 21.084l-0.633 2.993c-3.095 1.381-6.203 4.022-9.324 7.923l-0.094-0.117c-3.089-3.837-6.166-6.439-9.23-7.807l-0.633-2.993c2.724 1.049 6.043 3.594 9.957 7.636 3.914-4.042 7.233-6.587 9.957-7.636zM7.77 0c1.532 0.988 3.497 1.486 5.894 1.496l0.073 0-1.017 5.295c-2.839 0.396-4.796 1.963-5.87 4.7s-0.486 5.333 1.765 7.789c1.062 1.049 2.43 1.707 4.105 1.976l1.017 6.926c-3.888-4.029-7.45-6.631-10.686-7.808l-3.031-12.336c1.471 0.435 2.795 0.384 3.971-0.153 0.94-0.46 1.688-1.458 1.803-2.763 0.131-1.327-0.46-2.475-1.516-3.415l3.492-1.707zM19.703 0l3.492 1.707c-1.055 0.94-1.646 2.088-1.516 3.415 0.115 1.305 0.863 2.302 1.803 2.763 1.177 0.537 2.5 0.588 3.971 0.153l-3.031 12.336c-3.236 1.177-6.798 3.779-10.686 7.808l1.017-6.926c1.675-0.269 3.044-0.927 4.106-1.976 2.251-2.456 2.839-5.052 1.765-7.789s-3.031-4.304-5.87-4.7l-1.017-5.295c2.43 0 4.419-0.499 5.966-1.496zM12.643 8.863c-0.077 3.453-0.077 6.9 0 10.341-1.727-0.422-2.961-1.388-3.703-2.897s-0.742-3.070 0-4.681c0.755-1.394 1.989-2.315 3.703-2.763zM14.83 8.863c1.714 0.448 2.948 1.369 3.703 2.763 0.742 1.611 0.742 3.172 0 4.681s-1.976 2.475-3.703 2.897c0.077-3.44 0.077-6.887 0-10.341zM4.508 2.513c0.512 0.524 0.819 1.132 0.921 1.823 0.077 0.729 0 1.285-0.307 1.899-0.486 0.959-1.324 1.522-2.513 1.688 0.422-1.624 0.134-2.82-0.863-3.588l2.763-1.823zM22.964 2.513l2.763 1.823c-0.998 0.767-1.285 1.963-0.863 3.588-1.189-0.166-2.027-0.729-2.513-1.688-0.307-0.614-0.384-1.17-0.307-1.899 0.102-0.691 0.409-1.298 0.921-1.823z"></path>
</svg>
