<!-- Generated by IcoMoon.io -->
<svg version="1.1" xmlns="http://www.w3.org/2000/svg" width="30" height="32" viewBox="0 0 30 32">
<title>one</title>
<path fill="#444" d="M11.086 1.675c0.582-0.151 1.175-0.261 1.771-0.342-0.057 1.396-0.112 2.793-0.159 4.19-1.252 0.251-2.459 0.724-3.543 1.399-1.16 0.719-2.179 1.664-2.985 2.766-1.415 1.924-2.152 4.335-2.048 6.721 0.059 1.557 0.47 3.099 1.189 4.482 1.156 2.236 3.129 4.036 5.465 4.976 0.623 0.253 1.27 0.445 1.93 0.577 0.051 1.398 0.101 2.795 0.162 4.192-1.554-0.204-3.077-0.65-4.489-1.331-2.562-1.226-4.747-3.214-6.225-5.638-0.793-1.297-1.381-2.719-1.738-4.196-0.51-2.103-0.551-4.318-0.119-6.439 0.537-2.675 1.845-5.186 3.717-7.17 1.899-2.026 4.381-3.502 7.073-4.186zM16.69 1.333c0.058 1.397 0.118 2.793 0.159 4.191 1.241 0.248 2.438 0.716 3.515 1.382 1.231 0.758 2.304 1.768 3.134 2.951 0.767 1.091 1.326 2.327 1.639 3.624 0.397 1.637 0.397 3.368-0 5.006-0.336 1.396-0.96 2.723-1.82 3.873-0.751 1.004-1.679 1.877-2.73 2.561-1.135 0.741-2.414 1.261-3.745 1.522-0.048 1.398-0.1 2.795-0.162 4.193 1.322-0.175 2.622-0.523 3.851-1.044 1.787-0.755 3.419-1.869 4.778-3.253 1.364-1.385 2.453-3.041 3.176-4.846 1.156-2.86 1.374-6.085 0.628-9.077-0.358-1.449-0.94-2.842-1.717-4.116-1.475-2.426-3.664-4.411-6.225-5.637-1.409-0.679-2.929-1.125-4.48-1.329zM9.356 12.233c-0.669 0.966-1.069 2.117-1.145 3.289-0.108 1.471 0.294 2.975 1.131 4.19 0.779 1.146 1.936 2.024 3.243 2.48-0.098-4.139-0.104-8.28-0.006-12.419-1.297 0.455-2.445 1.325-3.224 2.459zM16.967 9.774c0.097 4.139 0.095 8.28-0.005 12.419 1.091-0.383 2.081-1.055 2.828-1.939 0.914-1.068 1.465-2.439 1.548-3.842 0.101-1.46-0.302-2.951-1.133-4.157-0.778-1.145-1.933-2.022-3.238-2.48z"></path>
</svg>
