<!-- Generated by IcoMoon.io -->
<svg version="1.1" xmlns="http://www.w3.org/2000/svg" width="28" height="32" viewBox="0 0 28 32">
<title>ori</title>
<path fill="#444" d="M8.884 6.058c2.672-1.011 5.642-1.207 8.429-0.586 3.081 0.681 5.938 2.398 7.922 4.86 1.789 2.195 2.839 4.993 2.868 7.83 0.068 3.036-1.042 6.057-3 8.369-0.321-0.76-0.713-1.494-1.204-2.159 0.657-2.144 1.342-4.279 2.011-6.419-1.4 1.373-2.799 2.747-4.201 4.118-0.286-0.218-0.579-0.426-0.88-0.622 0.009-0.667 0.079-1.331 0.151-1.994 0.258-2.205 0.599-4.4 0.957-6.591-1.549 2.353-3.091 4.71-4.669 7.043-0.394-0.099-0.795-0.171-1.195-0.241-0.789-3.239-1.374-6.523-1.989-9.797-0.609 3.276-1.196 6.56-1.989 9.799-0.394 0.070-0.786 0.157-1.173 0.261-1.605-2.485-3.009-5.093-4.454-7.673 0.332 3.131 0.75 6.258 0.879 9.406-0.243 0.186-0.48 0.379-0.712 0.579-1.52-1.613-2.885-3.364-4.292-5.075 0.689 2.538 1.382 5.075 2.070 7.614-0.423 0.662-0.776 1.368-1.052 2.104-1.828-2.017-3.016-4.618-3.251-7.336-0.267-2.739 0.405-5.55 1.865-7.881 1.594-2.571 4.084-4.548 6.909-5.608z"></path>
</svg>
