<!-- Generated by IcoMoon.io -->
<svg version="1.1" xmlns="http://www.w3.org/2000/svg" width="30" height="32" viewBox="0 0 30 32">
<title>otc-inner</title>
<path fill="#444" d="M10.77 8.782c0.662 0.928 1.321 1.859 1.979 2.79-0.478 1.143-0.903 2.306-1.306 3.477-0.597-0.383-1.179-0.792-1.77-1.185 0.366-1.694 0.73-3.388 1.097-5.082zM17.671 11.578c0.652-0.937 1.318-1.865 1.978-2.796 0.367 1.694 0.731 3.388 1.097 5.082-0.589 0.396-1.175 0.797-1.767 1.189-0.406-1.169-0.826-2.335-1.308-3.476zM12.378 8.962c1.888-0.006 3.777-0.006 5.665 0-0.483 0.639-0.974 1.272-1.455 1.913-0.918 0.007-1.835 0.002-2.753 0.002-0.484-0.64-0.976-1.274-1.457-1.916zM13.889 11.918c0.881-0.003 1.762-0.005 2.643 0.001 0.532 1.545 1.081 3.083 1.613 4.628-0.98 0.609-1.957 1.222-2.939 1.827-0.975-0.612-1.954-1.217-2.929-1.827 0.531-1.546 1.081-3.084 1.614-4.63zM2.035 11.974c1.618 0.002 3.236 0 4.853 0.001 0.158 0.783 0.871 1.426 1.679 1.446-0.095 0.368-0.19 0.736-0.285 1.104 0.908 0.663 1.824 1.316 2.735 1.974-0.067 0.23-0.156 0.454-0.205 0.688 0.438 0.302 0.897 0.572 1.343 0.861 0.996 0.631 1.992 1.262 2.988 1.892 0.038 0.029 0.096 0.027 0.134-0.002 1.366-0.865 2.731-1.73 4.097-2.595 0.081-0.053 0.17-0.098 0.234-0.172-0.067-0.225-0.137-0.45-0.208-0.673 0.911-0.658 1.828-1.31 2.735-1.975-0.096-0.367-0.191-0.735-0.284-1.103 0.488-0.018 0.963-0.255 1.275-0.631 0.203-0.232 0.333-0.519 0.406-0.817 1.617 0.004 3.235 0 4.852 0.002-2.013 2.213-4.169 4.296-6.441 6.242-1.692 1.44-3.441 2.814-5.271 4.075-0.486 0.326-0.966 0.665-1.471 0.961-2.459-1.558-4.763-3.35-6.971-5.244-2.182-1.887-4.258-3.897-6.197-6.034z"></path>
</svg>
