<!-- Generated by IcoMoon.io -->
<svg version="1.1" xmlns="http://www.w3.org/2000/svg" width="30" height="32" viewBox="0 0 30 32">
<title>otc</title>
<path fill="#444" d="M8.112 3.272c1.239 0.386 2.493 0.734 3.772 0.965 1.533 0.286 3.103 0.392 4.658 0.265 1.967-0.154 3.889-0.642 5.766-1.23-0.067 1.208-0.168 2.414-0.272 3.619-0.163 1.849-0.355 3.696-0.57 5.539 0.344 0.031 0.659-0.173 0.854-0.443 0.29-0.397 0.416-0.886 0.493-1.364 0.278-1.925 0.55-3.851 0.831-5.775 0.285 0.435 0.56 0.878 0.885 1.286 0.778 1.001 1.742 1.91 2.936 2.383-0.151 0.819-0.322 1.634-0.505 2.447 0.425-0.002 0.85 0.003 1.275-0.002 0.722-0.012 1.444 0 2.165-0.007l-0 0.041c-0.832 1.175-1.752 2.285-2.699 3.369-0.13 0.154-0.277 0.295-0.393 0.458l-0.012 0.006c-0.039 0.019-0.078 0.038-0.116 0.056l0.030 0.028c-0.583 0.622-1.157 1.253-1.759 1.857-0.053 0.053-0.112 0.107-0.129 0.183-0.7 2.202-1.511 4.369-2.429 6.489-0.043 0.102-0.080 0.213-0.173 0.282-0.658 0.517-1.333 1.012-2.008 1.508 0.224-1.563 0.448-3.127 0.673-4.69-0.404 0.344-0.814 0.68-1.232 1.007-0.178 1.012-0.362 2.024-0.562 3.033-0.103 0.561-0.237 1.116-0.333 1.678-1.311 0.886-2.643 1.748-4.052 2.471-1.401-0.73-2.732-1.585-4.040-2.468-0.318-1.567-0.627-3.136-0.896-4.713-0.419-0.327-0.828-0.666-1.235-1.006 0.223 1.563 0.45 3.125 0.674 4.688-0.659-0.482-1.316-0.967-1.96-1.468-0.062-0.052-0.13-0.104-0.161-0.182-0.659-1.514-1.264-3.052-1.813-4.61-0.251-0.694-0.47-1.4-0.711-2.097-0.645-0.664-1.28-1.337-1.904-2.021-0.921-1.009-1.794-2.062-2.622-3.149-0.181-0.246-0.373-0.485-0.536-0.744 0.728-0.006 1.456-0.008 2.184 0.001 0.425 0.005 0.851 0.002 1.276 0.002-0.183-0.813-0.357-1.627-0.506-2.447 0.521-0.205 1.004-0.496 1.44-0.844 0.976-0.77 1.736-1.777 2.378-2.833 0.281 1.934 0.557 3.868 0.837 5.802 0.080 0.481 0.209 0.974 0.508 1.369 0.195 0.259 0.503 0.451 0.836 0.42-0.145-1.201-0.271-2.404-0.391-3.608-0.177-1.847-0.344-3.697-0.451-5.55zM10.77 8.782c-0.367 1.694-0.731 3.388-1.097 5.082 0.591 0.393 1.172 0.802 1.77 1.185 0.403-1.171 0.828-2.334 1.306-3.477-0.658-0.931-1.317-1.862-1.979-2.79zM17.671 11.578c0.482 1.141 0.902 2.306 1.308 3.476 0.592-0.392 1.178-0.793 1.767-1.189-0.366-1.694-0.73-3.388-1.097-5.082-0.66 0.931-1.326 1.859-1.978 2.796zM12.378 8.962c0.481 0.642 0.973 1.276 1.457 1.916 0.918 0 1.835 0.005 2.753-0.002 0.481-0.641 0.973-1.274 1.455-1.913-1.888-0.007-3.777-0.006-5.665-0zM13.889 11.918c-0.533 1.545-1.083 3.084-1.614 4.63 0.976 0.61 1.955 1.215 2.929 1.827 0.982-0.605 1.96-1.218 2.939-1.827-0.531-1.545-1.081-3.083-1.613-4.628-0.881-0.006-1.762-0.004-2.643-0.001zM2.035 11.974c1.938 2.137 4.015 4.147 6.197 6.034 2.208 1.894 4.512 3.686 6.971 5.244 0.506-0.296 0.985-0.634 1.471-0.961 1.83-1.26 3.579-2.635 5.271-4.075 2.272-1.946 4.428-4.029 6.441-6.242-1.617-0.002-3.235 0.002-4.852-0.002-0.072 0.298-0.203 0.585-0.406 0.817-0.312 0.376-0.787 0.612-1.275 0.631 0.093 0.368 0.188 0.736 0.284 1.103-0.907 0.665-1.824 1.316-2.735 1.975 0.072 0.224 0.141 0.448 0.208 0.673-0.064 0.075-0.153 0.119-0.234 0.172-1.366 0.865-2.731 1.729-4.097 2.595-0.038 0.028-0.096 0.031-0.134 0.002-0.996-0.631-1.992-1.262-2.988-1.892-0.446-0.289-0.905-0.56-1.343-0.861 0.049-0.235 0.138-0.458 0.205-0.688-0.911-0.658-1.827-1.311-2.735-1.974 0.095-0.368 0.19-0.736 0.285-1.104-0.808-0.020-1.521-0.663-1.679-1.446-1.618-0.001-3.236 0.001-4.853-0.001z"></path>
</svg>
