<!-- Generated by IcoMoon.io -->
<svg version="1.1" xmlns="http://www.w3.org/2000/svg" width="27" height="32" viewBox="0 0 27 32">
<title>otp</title>
<path fill="#444" d="M0 3.884c8.889-0 17.778 0 26.667 0-0.223 0.839-0.449 1.676-0.672 2.515-8.441 0.001-16.883 0-25.325 0-0.224-0.838-0.447-1.677-0.67-2.515zM2.355 7.512c1.044-0.001 2.088-0 3.132-0-0 0.91 0 1.819-0 2.729h-3.132c-0-0.91 0-1.819 0-2.728zM8.593 7.509c1.044 0 2.088-0 3.132 0 0 5.638 0 11.276 0 16.914-1.044 0-2.088 0-3.132 0-0-5.638-0-11.276 0-16.914zM14.888 7.509c1.044 0 2.088-0 3.132 0 0 5.638 0 11.276 0 16.914-1.044 0-2.088 0-3.132 0-0-5.638-0-11.276 0-16.914zM21.124 7.509c1.044-0 2.088 0 3.132 0 0 5.638 0 11.276 0 16.914-1.044 0-2.088 0-3.132 0v-16.914zM0.718 11.626c1.952-0 3.905-0 5.858 0 0 2.915 0 5.831 0 8.746h-5.858c0-2.915 0-5.831 0-8.746zM3.353 13.501c-0.518 0.101-0.964 0.496-1.137 0.993-0.144 0.404-0.114 0.866 0.083 1.246 0.155 0.31 0.426 0.546 0.73 0.704-0.255 0.697-0.518 1.391-0.774 2.087 0.928-0 1.855 0 2.783-0-0.259-0.696-0.518-1.391-0.777-2.087 0.169-0.093 0.335-0.196 0.467-0.337 0.475-0.478 0.575-1.273 0.238-1.855-0.305-0.56-0.986-0.886-1.613-0.751zM2.355 21.766c1.044-0.001 2.088-0 3.132-0v2.657c-1.044 0-2.088 0-3.132 0-0-0.886 0-1.771 0-2.657zM0.671 25.6c8.441 0 16.882-0 25.323 0 0.224 0.839 0.448 1.677 0.672 2.515-8.889 0-17.777 0-26.665 0 0.223-0.838 0.446-1.677 0.67-2.515z"></path>
</svg>
