<!-- Generated by IcoMoon.io -->
<svg version="1.1" xmlns="http://www.w3.org/2000/svg" width="32" height="32" viewBox="0 0 32 32">
<title>papac</title>
<path fill="#444" d="M29.331 10.727q0.762 0 1.381 0.083t1.291 0.272v2.189h-1.027q-0.181-0.853-0.574-1.257t-1.027-0.404q-1.193 0-1.804 1.144t-0.611 3.393q0 2.091 0.559 3.167t1.638 1.076q0.551 0 0.898-0.185t0.555-0.555 0.359-1.042h1.034v2.287q-0.83 0.196-1.517 0.287t-1.427 0.091q-1.57 0-2.563-0.566t-1.465-1.71-0.472-2.895q0-1.638 0.555-2.85t1.634-1.868 2.582-0.657v0zM13.663 11.731q0.649 0 1.064 0.196t0.63 0.661 0.215 1.249q0 0.793-0.215 1.261t-0.661 0.683-1.2 0.215h-0.649v-4.25q0.287-0.015 0.815-0.015v0zM4.722 12.826l1.208 4.25h-2.718l1.51-4.25zM6.405 10.795h-2.016l-3.148 8.387q-0.196 0.536-0.37 0.823t-0.385 0.453-0.491 0.196v0.498h3.223v-0.498q-0.785-0.053-0.785-0.793 0-0.317 0.068-0.6t0.174-0.585l0.249-0.717h3.223l0.204 0.74q0.121 0.438 0.174 0.725t0.053 0.521q0 0.317-0.189 0.491t-0.581 0.219v0.498h7.952v-0.498q-0.34-0.060-0.502-0.143t-0.249-0.208-0.125-0.332-0.038-0.706v-2.416q0.468 0.030 1.2 0.030 1.268 0 2.114-0.381t1.291-1.121 0.445-1.744q0-1.419-0.951-2.102t-2.861-0.683h-4.386l0 0.498q0.287 0.075 0.449 0.17t0.242 0.245 0.098 0.393 0.019 0.596v6.507q0 0.362-0.023 0.6t-0.102 0.393-0.242 0.242c-0.108 0.052-0.185 0.089-0.313 0.125-0.156-0.040-0.241-0.094-0.358-0.178q-0.181-0.147-0.294-0.385t-0.279-0.804l-2.491-8.455zM20.079 12.826l1.208 4.25h-2.718l1.51-4.25zM21.763 10.795h-2.016l-3.148 8.387q-0.196 0.536-0.37 0.823t-0.385 0.453-0.491 0.196v0.498h3.223v-0.498q-0.785-0.053-0.785-0.793 0-0.317 0.068-0.6t0.174-0.585l0.249-0.717h3.223l0.204 0.74q0.121 0.438 0.174 0.725t0.053 0.521q0 0.317-0.189 0.491t-0.581 0.219v0.498h4.167v-0.498q-0.325-0.068-0.506-0.215t-0.294-0.385-0.279-0.804l-2.491-8.455z"></path>
</svg>
