<!-- Generated by IcoMoon.io -->
<svg version="1.1" xmlns="http://www.w3.org/2000/svg" width="32" height="32" viewBox="0 0 32 32">
<title>parl2</title>
<path fill="#444" d="M29.712 14.196l1.847 3.163c0.141 0.243 0.182 0.269 0.4 0.28v0.115h-2.374v-0.115c0.478-0.006 0.605-0.042 0.605-0.181 0-0.057-0.028-0.121-0.085-0.224l-0.351-0.595h-1.363l-0.266 0.533c-0.049 0.099-0.071 0.154-0.071 0.212 0 0.176 0.154 0.248 0.527 0.254h0.069v0.115h-1.46v-0.115c0.218-0.010 0.323-0.052 0.43-0.17 0.070-0.089 0.147-0.208 0.224-0.369l1.446-2.903h0.422zM29.030 15.371l-0.535 1.060h1.139l-0.605-1.060zM21.048 14.905h-0.014v2.292c0 0.327 0.149 0.424 0.668 0.44v0.115h-1.615v-0.115c0.232-0.010 0.387-0.058 0.498-0.145 0.085-0.067 0.113-0.14 0.113-0.259 0.008-0.020 0.008-0.058 0.008-0.109v-2.515l-0.141-0.125c-0.085-0.078-0.168-0.125-0.254-0.139-0.063-0.016-0.091-0.016-0.252-0.022v-0.113h1.938l2.465 2.219h0.014v-1.683c0-0.186-0.022-0.248-0.099-0.309-0.097-0.074-0.252-0.115-0.464-0.115h-0.097v-0.113h1.574v0.113c-0.428 0.016-0.583 0.115-0.583 0.373v3.107h-0.549l-3.21-2.899zM13.72 17.753v-0.115h0.162c0.196 0 0.323-0.036 0.4-0.113 0.063-0.057 0.077-0.131 0.077-0.311v-2.459c0-0.186-0.014-0.254-0.077-0.311-0.091-0.087-0.204-0.113-0.492-0.113h-0.113v-0.119h4.165v0.993h-0.163c-0.077-0.511-0.442-0.781-1.066-0.781h-0.83v1.433h0.149c0.47 0 0.702-0.238 0.759-0.771h0.161v1.74h-0.161c-0.030-0.299-0.099-0.472-0.262-0.61-0.119-0.115-0.252-0.151-0.497-0.151h-0.149v1.169c0 0.285 0.050 0.333 0.372 0.333h0.373c0.4 0 0.569-0.031 0.814-0.141 0.168-0.078 0.309-0.181 0.408-0.301 0.127-0.149 0.16-0.216 0.232-0.44h0.155l-0.24 1.068h-4.179zM8.998 14.433c0.121 0 0.212 0.006 0.303 0.022 0.343 0.056 0.561 0.331 0.561 0.708 0 0.239-0.077 0.446-0.202 0.575-0.143 0.141-0.345 0.198-0.704 0.198v-0h-0.238v-1.502h0.28zM9.442 14.212h-2.788v0.113h0.168c0.196 0 0.323 0.036 0.4 0.115 0.055 0.061 0.077 0.129 0.077 0.309v2.466c0 0.18-0.022 0.254-0.077 0.311-0.077 0.077-0.212 0.113-0.4 0.113h-0.141v0.115h2.683v-0.115h-0.163c-0.204 0-0.323-0.036-0.4-0.113-0.063-0.057-0.083-0.131-0.083-0.311v-1.076h0.155l1.257 1.615h1.77v-0.115c-0.232-0.006-0.393-0.078-0.519-0.248l-1.018-1.326c0.618-0.166 0.913-0.456 0.913-0.902 0-0.29-0.162-0.531-0.464-0.708-0.309-0.176-0.696-0.244-1.369-0.244zM1.882 15.371l0.604 1.060h-1.139l0.535-1.060zM2.562 14.196h-0.42l-1.447 2.903c-0.077 0.161-0.155 0.28-0.226 0.369-0.105 0.119-0.21 0.16-0.428 0.17v0.115h1.461v-0.115h-0.070c-0.372-0.006-0.527-0.078-0.527-0.254 0-0.058 0.022-0.113 0.070-0.212l0.267-0.533h1.364l0.35 0.595c0.055 0.103 0.085 0.166 0.085 0.224 0 0.139-0.127 0.174-0.604 0.181v0.115h2.374v-0.115c-0.218-0.010-0.261-0.036-0.4-0.28l-1.849-3.163z"></path>
</svg>
