<!-- Generated by IcoMoon.io -->
<svg version="1.1" xmlns="http://www.w3.org/2000/svg" width="32" height="32" viewBox="0 0 32 32">
<title>parl</title>
<path fill="#444" d="M12.084 15.358c0.69-0.010 1.652-0.1 2.056 0.197 0.282 0.207 0.328 0.67 0.213 1.084-0.058 0.215-0.149 0.461-0.283 0.64-0.244 0.322-0.704 0.481-1.089 0.541-0.121 0.018-1.437 0.008-1.439 0.020 0.181-0.827 0.363-1.656 0.541-2.483zM31.958 16.529c-0.328-2.441-2.662-3.41-4.668-4.193-1.477-0.575-3.139-0.837-4.9-1.167-0.664-0.060-1.326-0.121-1.99-0.181-0.471-0.022-0.942-0.044-1.415-0.066h-1.727c-0.29 0.006-0.579 0.010-0.871 0.018l-2.153 0.179c-1.036 0.188-2.060 0.28-3.026 0.527-1.664 0.424-3.1 0.992-4.455 1.678 0.318-0.66 0.636-1.318 0.953-1.974 0.229-0.406 0.461-0.811 0.69-1.218-0.26 0.169-0.442 0.602-0.624 0.856-0.67 0.938-1.338 1.875-2.006 2.811-0.006 0.010-0.010 0.022-0.019 0.032-0.318-1.072-0.636-2.147-0.951-3.221-0.137-0.525-0.276-1.052-0.413-1.577 0.235 1.571 0.61 3.264 0.642 4.964-0.302-0.143-0.604-0.283-0.906-0.427-0.614-0.312-1.213-0.614-1.791-0.953-0.401-0.235-0.801-0.471-1.199-0.706-0.019-0.006-0.035-0.012-0.050-0.018 0.344 0.258 0.69 0.515 1.034 0.773 0.489 0.385 0.978 0.769 1.464 1.151 0.344 0.282 0.69 0.559 1.034 0.839-0.36 0.114-0.722 0.231-1.084 0.346-1.155 0.356-2.312 0.712-3.469 1.068-0.010 0.006-0.022 0.010-0.032 0.016 1.529-0.169 3.032-0.66 4.751-0.674v0.018c-0.683 1.392-1.27 2.794-2.022 4.109v0.016h0.018c0.503-0.732 1.008-1.469 1.511-2.203 0.35-0.481 0.702-0.964 1.052-1.447 0.022-0.016 0.044-0.032 0.066-0.048 0.471 1.024 0.703 2.281 1.020 3.42 0.109 0.449 0.219 0.898 0.328 1.349v0.030h0.016c-0.093-0.606-0.185-1.215-0.28-1.825-0.077-0.628-0.153-1.259-0.229-1.889-0.044-0.422-0.089-0.843-0.131-1.266 1.195 0.499 2.243 1.105 3.304 1.727-0.127 0.559-0.253 1.119-0.379 1.676v0.050h3.091c0.94 0 1.904 0.035 2.582-0.231 0.843-0.328 1.314-0.897 1.644-1.743 0.183-0.46 0.399-1.219 0.248-1.873-0.115-0.489-0.42-0.825-0.839-1.004-0.618-0.263-1.554-0.213-2.433-0.213h-3.157c-0.241 1.087-0.483 2.171-0.724 3.256h-0.016c-0.678-0.441-1.278-0.99-1.907-1.479-0.314-0.246-0.708-0.493-0.954-0.807 1.085-0.346 2.171-0.69 3.256-1.036 0.276-0.086 1.127-0.241 1.282-0.411-0.505 0.179-1.079 0.201-1.644 0.312-0.515 0.073-1.030 0.143-1.545 0.213v-0.014c0.366-0.183 0.735-0.362 1.103-0.546 0.761-0.328 1.574-0.595 2.4-0.853 3.936-1.228 10.664-1.68 14.928-0.413 1.863 0.555 4.304 1.314 4.654 3.322 0.125 0.721-0.26 1.28-0.527 1.644-0.78 1.075-1.998 1.752-3.287 2.318-1.831 0.8-3.865 1.245-6.117 1.694-0.843 0.092-1.685 0.224-2.531 0.28-1.318 0.087-1.552 0.124-2.688 0.112l-0.963-0.025c-0.741-0.041-1.284-0.062-2.147-0.185-1.234-0.176-2.398-0.4-3.48-0.741-0.622-0.195-1.493-0.506-2.149-0.641-0.28-0.058 0.543 0.271 0.823 0.392 0.811 0.352 1.654 0.614 2.579 0.89 5.151 1.539 13.021 1.082 17.397-0.773 1.382-0.588 2.652-1.264 3.469-2.416 0.255-0.363 0.648-0.966 0.557-1.628zM24.988 14.046c-0.378 1.688-0.757 3.377-1.135 5.063h2.137c0.379-1.686 0.757-3.374 1.135-5.063h-2.137zM21.666 17.137c-0.27 0.712-2.387 1-2.566 0.034-0.159-0.871 0.541-1.622 1.151-1.777 0.694-0.175 1.642-0.072 1.563 0.658h2.416c0.028-1.328-0.575-1.735-1.692-1.942 0 0-2.107-0.121-2.795-0.008-1.515 0.252-2.364 0.861-2.781 2.23-0.097 0.32-0.235 0.776-0.163 1.231 0.238 1.493 1.594 1.545 3.32 1.545 0.777 0 1.553 0.008 2.155-0.179 0.851-0.268 1.385-0.994 1.711-1.793h-2.32z"></path>
</svg>
