<!-- Generated by IcoMoon.io -->
<svg version="1.1" xmlns="http://www.w3.org/2000/svg" width="32" height="32" viewBox="0 0 32 32">
<title>past</title>
<path fill="#444" d="M2.683 22.671l4.411-5.209 7.777 3.438-5.937-5.555 2.64-2.084-4.862 0.347-3.993-3.333 0.902 3.16h-3.613l4.133 2.849-1.458 6.388zM7.657 13.104c1.92-1.061 7.898-4.026 13.569-3.28 0 0-4.975-0.114-11.141 3.11l-2.457 0.188 0.029-0.017zM12.894 12.748l-0.999 0.061c7.197-3.57 13.569-2.222 13.569-2.222-7.696 0-12.934 2.766-15.115 4.183l2.545-2.022zM10.059 15.796c9.897-6.958 19.433-4.029 19.433-4.029-11.087-1.289-17.686 4.062-18.579 4.838l-0.854-0.809zM12.198 17.79c1.514-1.198 9.080-6.623 19.793-4.703 0 0-9.975-3.741-20.587 4l0.793 0.703zM7.196 12.772c3.601-2.538 8.126-3.088 8.126-3.088-4.28 0.208-7.582 1.673-8.954 2.388l-0.024 0.010c-1.723-1.432-4.225-3.523-4.225-3.523l0.313 0.935 4.418 3.686 0.755-0.050c0 0-0.157-0.13-0.42-0.349l0.012-0.009zM7.806 18.239l-4.463 5.182-0.779 0.021 4.646-5.474 0.596 0.271z"></path>
</svg>
