<!-- Generated by IcoMoon.io -->
<svg version="1.1" xmlns="http://www.w3.org/2000/svg" width="32" height="32" viewBox="0 0 32 32">
<title>pbook</title>
<path fill="#444" d="M9.655 15.291c-3.062 0-3.962-1.332-3.962-1.332s-2.346 1.654-5.646 1.654v0.287h4.474c0.058-0.406 0.535-0.786 1.116-0.786 0.622 0 1.208 0.436 1.208 0.868 0 0.436-0.586 0.872-1.208 0.872-0.563 0-1.027-0.36-1.108-0.751h-4.482v0.284c3.3 0 5.646 1.653 5.646 1.653s0.901-1.331 3.962-1.331v-1.418zM10.426 15.989c0-1.223 0.576-1.375 0.576-1.375l17.248 0.414c0.979 0 3.703-0.101 3.703 0.834 0 0.933-2.648 0.977-3.703 1.019l-17.248 0.505c0 0-0.576-0.175-0.576-1.398z"></path>
</svg>
