<!-- Generated by IcoMoon.io -->
<svg version="1.1" xmlns="http://www.w3.org/2000/svg" width="30" height="32" viewBox="0 0 30 32">
<title>pc2</title>
<path fill="#444" d="M26.728 26.845c-2.449-3.485-6.94-5.637-11.813-5.637s-9.364 2.152-11.813 5.637c-0.019-3.165 1.169-6.139 3.364-8.406 2.242-2.316 5.242-3.591 8.449-3.591 3.207 0 6.209 1.276 8.451 3.593 2.196 2.27 3.383 5.243 3.362 8.404zM29.327 22.335c-0.932-3.539-3.277-6.662-6.487-8.623l0.576-3.77-3.361 2.441c-1.104-0.394-2.257-0.659-3.427-0.789l-1.713-4.104-1.713 4.103c-1.17 0.13-2.322 0.395-3.427 0.789l-3.361-2.441 0.576 3.77c-3.21 1.961-5.556 5.085-6.487 8.623-0.334-1.147-0.503-2.332-0.503-3.526 0-7.529 6.691-13.654 14.915-13.654s14.915 6.125 14.915 13.654c-0 1.195-0.169 2.379-0.504 3.526z"></path>
</svg>
