<!-- Generated by IcoMoon.io -->
<svg version="1.1" xmlns="http://www.w3.org/2000/svg" width="32" height="32" viewBox="0 0 32 32">
<title>pca</title>
<path fill="#444" d="M15.986 4.638c0.758 1.455 1.297 3.004 1.997 4.483 1.707 0.148 3.256 0.929 4.841 1.455 1.437-0.566 2.794-1.313 4.231-1.881-0.384 1.455-1.012 2.83-1.375 4.291 1.064 1.071 1.865 2.371 2.566 3.702 1.256-0.067 2.509-0.171 3.764-0.223-0.859 1.134-1.777 2.218-2.643 3.346 0.431 1.427 0.726 2.923 0.602 4.418-0.035 0.416-0.388 1.476-0.61 0.905-1.278-3.296-3.31-6.423-6.345-8.34-3.103-1.966-7.090-2.69-10.613-1.486-4.599 1.344-7.994 5.339-9.591 9.754-0.122 0.339-0.511 0.1-0.566-0.221-0.284-1.674 0.018-3.372 0.444-4.991-0.908-1.123-1.816-2.244-2.698-3.388 1.297 0.057 2.589 0.176 3.886 0.223 0.711-1.463 1.655-2.804 2.781-3.977-0.246-1.336-0.511-2.669-0.778-4.003 1.271 0.514 2.394 1.385 3.707 1.777 1.468-0.571 2.934-1.183 4.514-1.385 0.646-1.479 1.16-3.017 1.886-4.459zM5.845 25.43c-0.221 0.617-0.561 2.151 0.032 1.812 0.999-0.573 1.8-1.527 3.001-2.164 4.549-2.412 10.416-2.407 14.787 0.394 0.708 0.425 1.293 1.019 1.962 1.497 0.197 0.14 0.46 0.478 0.611 0.286 0.106-0.134 0.107-0.243 0.111-0.413 0.007-0.317-0.090-0.654-0.17-0.976-0.122-0.487-0.309-0.967-0.457-1.438-1.333-3.357-4.532-5.871-8.086-6.46-5.053-0.874-10.392 2.553-11.791 7.461z"></path>
</svg>
