<!-- Generated by IcoMoon.io -->
<svg version="1.1" xmlns="http://www.w3.org/2000/svg" width="28" height="32" viewBox="0 0 28 32">
<title>pcy</title>
<path fill="#444" d="M21.82 21.786l0.664 0.759 2.655-3.223-0.048-1.421-3.272 3.885zM4.659 13.586l-1.803-0.332 4.551 8.723c0 0 1.612 0.948 1.423-0.948l-4.172-7.443zM18.69 10.031l-1.421-1.423-0.852 13.466c0 0 0.186 1.8 1.609 1.423l0.664-13.465zM5.227 24.16l-5.215-9.671 1.423-3.794 4.076 0.852 4.079 7.207 0.377-10.239 4.838-4.647 5.592 5.215-0.571 10.999 3.417-3.792 3.317-0.287 0.287 3.51-2.563 3.412 0.948 0.189c0 0 2.275 1.423 2.275 2.655 0 1.234-1.325 1.33-1.325 1.33s-3.605 0.566-5.313 0.093c-1.705-0.473-4.076-0.284-6.827 0.568-2.748 0.855-4.453 0.095-6.447-0.852-1.992-0.948-6.92-0.38-6.92-0.38s-0.759-1.705 4.36-1.705c0 0 0.284-0.57 0.191-0.663z"></path>
</svg>
