<!-- Generated by IcoMoon.io -->
<svg version="1.1" xmlns="http://www.w3.org/2000/svg" width="24" height="32" viewBox="0 0 24 32">
<title>pd2</title>
<path fill="#444" d="M16.475 6.965c0 0 1.74 3.338 1.74 5.519 0 2.175-2.537 5.804-2.537 5.804-0.146-1.163-1.16-3.921-1.669-5.228-0.509-1.303-1.523-3.409-1.523-6.456s2.104-6.605 2.104-6.605c-7.473 2.466-9.142 7.040-9.142 11.104 0 4.060 2.975 9.505 2.975 9.505-1.014-1.163-2.612-2.903-3.918-4.644s-2.323-5.295-2.323-5.295-2.175 2.32-2.175 6.527c0 4.21 3.338 8.274 4.281 9.506 0.943 1.238 0.943 2.252 1.669 3.338 0.722 1.089 1.74 1.886 2.83 1.886 0.039 0 0.082 0 0.12 0.004l-3.241-9.797 6.239 1.163-3.844-13.135 9.43 16.762-7.106-1.018 2.946 6.096h0.025c1.018 0 2.466-0.146 3.847-1.378 1.381-1.234 2.829-4.936 3.626-6.747 0.801-1.818 2.688-4.285 2.688-8.42 0-6.676-7.040-8.491-7.040-8.491z"></path>
</svg>
