<!-- Generated by IcoMoon.io -->
<svg version="1.1" xmlns="http://www.w3.org/2000/svg" width="28" height="32" viewBox="0 0 28 32">
<title>pd3</title>
<path fill="#444" d="M14.229 3.606c2.084 0 4.651 0.881 5.694 2.046l1.696 1.564 1.333 1.685 1.333 2.166 0.121 0.12c0.457 0.945 0.622 2.231 0.727 3.49l0.485 1.565 0.121 0.12v0.12l0.606 1.444c0.512 0.802-0.848 2.086-0.848 3.49v0.12c0 0.414 2.181 2.443 2.181 3.971v0.241c0 0.659-1.767 1.149-2.423 1.203v-0.361c0-0.325-0.058-0.332-0.122-0.602l-0.611 0.088 0.411 0.856c-0.274 0.363-1.402 0.742-1.859 0.742h-0.121c-0.467 0-0.453-0.407-0.606-0.722h-0.484l0.151 0.958c-0.516 0.045-1.666 0.073-2.192 0.157-0.747 0.118-0.746-0.251-0.746-1.236h-0.363c-0.28 0-0.363 0.084-0.363 0.361v0.963c-0.451 0.104-0.905 0.24-1.454 0.24-0.065 0-0.266-0.173-0.363-0.24v-0.722c-0.774-0.515-0.508-1.248-0.697-2.196-0.337-1.692-0.679-0.906-1.484-1.413-0.379-0.032-0.43-0.121-0.848-0.121h-2.423c-0.774 0-0.922 0.241-1.696 0.241-0.013 0.006-2.745 0.602-2.786 0.602h-1.212c-0.691 0-1.206-0.163-1.575-0.481-0.854-0.449-1.939-1.376-2.181-2.407l-0.849-2.046-0.121-0.361v-0.12l-0.485-2.527-0.121-0.842v-0.121c0-5.038 1.151-5.775 3.725-8.332 1.707-1.695 5.059-3.7 8.389-3.7h2.059zM22.831 16.12c-0.258 0.001-0.16 0.044-0.485 0.121l-0.363 0.24-0.122 1.925-0.605 1.925c0.076 0.907 1.107 0.003 1.938 1.564 0.563-0.131 1.333-0.773 1.333-1.444v-0.361c0-0.415-0.090-0.466-0.122-0.842l-0.484-2.045c-0.116-0.173-0.912-1.083-1.091-1.083zM16.651 13.714h-0.12c-2.307-0.001-4.24 1.579-4.24 3.971 0.065 0.771 0.942 1.825 1.455 2.166 0.268 0.14 0.591 0.361 0.969 0.361h0.242c2.421 0 3.552-0.85 4.361-2.527v-0.241c0-1.462-0.457-2.666-1.333-3.248-0.386-0.258-0.677-0.482-1.333-0.482zM23.072 11.908c-0.234 0.001-0.393 0.164-0.726 0.241l-0.121 0.121-0.122 0.12-0.242 0.24c-0.177 0.263-0.363 0.513-0.363 0.964 0 0.922 0.942 1.472 1.574 1.805 0.118 0.062 0.721 0.481 0.727 0.481 0.383 0 0.413-0.297 0.484-0.602v-0.24l0.121-0.241c0-1.295-0.155-2.887-1.333-2.887z"></path>
</svg>
