<!-- Generated by IcoMoon.io -->
<svg version="1.1" xmlns="http://www.w3.org/2000/svg" width="32" height="32" viewBox="0 0 32 32">
<title>pdep</title>
<path fill="#444" d="M17.844 8.092l1.196 0.010c-0.046 0.444-0.057 0.535-0.081 1.216-0.098 2.828-0.008 5.661 0.095 8.487 0.111 3.039 0.268 6.077 0.455 9.112-0.849 0.38-1.729 0.45-2.685 0.446-1.11-0.005-2.080-0.085-3.018-0.462-0.16-0.064-0.287-0.192-0.43-0.288-0.98-0.899 0.31-12.276-12.899-11.853l-0.174-0.018c-0.247-1.534-0.289-3.089-0.291-4.638l0.082-1.774c5.915-0.186 11.832-0.221 17.75-0.238zM20.333 13.679l-0.002 0.231c0.024 3.279 0.201 6.554 0.386 9.827 0.598-2.23 1.567-4.471 3.398-5.978-1.053-1.543-2.331-2.898-3.782-4.080zM20.607 8.115c-0.272 3.159-0.239 1.923-0.256 3.699 1.796 1.513 3.53 3.12 5.021 4.941 2.216-1.252 3.628-1.854 6.234-2.017l0.119 0.005c0.222-1.534 0.26-3.089 0.262-4.638l-0.074-1.788c-8.457-0.198-4.689-0.146-11.306-0.2zM18.065 4.637v0c-0.413 0.003-0.827 0.002-1.24 0.017-0.459-0.015-0.918-0.014-1.377-0.017-5.017 0.027-10.031 0.249-15.041 0.53l-0.192 1.809c10.511-0.705 21.056-0.615 31.571-0.028l-0.17-1.781c-4.513-0.281-9.031-0.503-13.551-0.53z"></path>
</svg>
