<!-- Generated by IcoMoon.io -->
<svg version="1.1" xmlns="http://www.w3.org/2000/svg" width="32" height="32" viewBox="0 0 32 32">
<title>pdgc</title>
<path fill="#444" d="M17.914 2.322c0.395-0.018 0.783 0.060 1.165 0.153 1.291 0.34 1.575 1.206 1.66 1.504 0.207 0.724 0.222 1.603 0.236 2.348-0 0.627-0.072 1.254-0.25 1.856-0.026 0.088-0.064 0.171-0.096 0.257l-0.006 0.051c-0.015 0.086-0.042 0.17-0.071 0.253-0.015 0.043-0.039 0.082-0.059 0.123-0.354 0.639-1.144 0.307-1.382 0.474s-0.422 0.495-0.202 0.807c0.278 0.393 0.275 0.257 0.385 0.44 0.161 0.269 0.128 0.495-0.226 0.875-0.693 0.743-1.013 1.422-0.842 1.749 0.237 0.451 0.949 0.627 1.294 0.677 0.77 0.112 1.95-0.103 2.367-0.205 1.064-0.26 1.3-0.402 2.080-0.804 0.893-0.46 1.583-1.027 2.179-1.884 0.175-0.279 0.277-0.418 0.321-0.529 0.318-0.803 0.394-1.217 0.415-1.905 0-1.933-0.879-3.499-1.964-3.499l-0-0c-0.487 0-0.932 0.316-1.276 0.839-0.012 0.013-0.021 0.031-0.037 0.040-0.142 0.081-0.146 0.178-0.548 0.043-0.41-0.137-0.458-0.441-0.471-1.456-0.002-0.61 0.154-1.201 0.344-1.391 0.425-0.378 0.975-0.476 1.522-0.517 0.547 0.008 0.3-0.006 0.74 0.032 4.116 2.58 6.763 7.262 6.778 12.117l-0.001 0.093 0.001 0.001c-0.032 6.054-3.816 10.913-9.18 13.409 0.19-0.775 0.62-1.462 1.069-2.111 0.461-0.658 0.976-1.282 1.672-2.065 0.005-0.006 0.354-0.309 0.497-0.442 0.085-0.079 0.161-0.155 0.23-0.228 0.154-0.163 0.267-0.309 0.336-0.45 0.123-0.249 0.119-0.513-0.104-0.698-0.113-0.082-0.23-0.137-0.374-0.138-0.194 0.020-0.112 0.003-0.249 0.040-0.151 0.049-0.307 0.139-0.491 0.274-0.357 0.286-0.711 0.577-1.054 0.881-0.559 0.454-1.139 0.922-1.873 1.019-0.077 0.007-0.154 0.001-0.231 0.001 0.010-0.125 0.010-0.25 0.011-0.375 0-0.049 0-0.070 0.001-0.097 0.080-0.596 0.135-0.726 0.227-0.918 0.044-0.091 0.243-0.494 0.294-0.6 0.11-0.229 0.198-0.421 0.273-0.608 0.332-0.803 0.385-1.035 0.393-1.271 0-0.894-0.944-1.618-2.11-1.618v-0c-1.165 0-2.11 0.724-2.11 1.618 0.009 0.718 0.661 1.403 1.31 1.613 0.503 0.798 0.575 1.67 0.138 2.483-0.552 1.027-0.789 0.832-0.764 1.079 0.037 0.374 0.134 0.993 0.376 1.379 0.176 0.282 0.359 0.517 0.723 0.955 0.277 0.333 0.349 0.421 0.465 0.573 0.096 0.128 0.052 0.067 0.134 0.185-0.692 0.255-1.408 0.432-2.13 0.577-0.203-0.63-0.662-1.065-1.336-1.105-0.815 0.033-1.284 0.683-1.411 1.432l-0.703 0.024c-0.555-0.007-0.256 0.001-0.897-0.028-0.113-0.762-0.609-1.38-1.411-1.429-0.645 0.015-1.117 0.483-1.322 1.066-0.807-0.161-1.592-0.412-2.365-0.693 0.316-0.171 0.576-0.415 0.829-0.665 0.704-0.511 1.088-1.439 1.248-2.272-0.084-0.095-0.042-0.048-0.126-0.14-0.433-0.282-0.712-0.782-0.849-1.269-0.005-0.013-0.002-0.006-0.006-0.021-0.068-0.244-0.041-0.122-0.082-0.366-0.038-0.267-0.040-0.536-0.017-0.805 0.003-0.030 0.011-0.060 0.017-0.090 0.023-0.243 0.088-0.476 0.183-0.7 0.047-0.078 0.012-0.021 0.108-0.167 0.891-0.071 1.297-0.643 1.326-1.517 0-0.894-0.944-1.618-2.11-1.618s-2.11 0.724-2.11 1.618c0.117 0.912 0.541 1.365 0.869 1.988 0.637 1.208 0.481 1.051 0.656 1.5 0.037 0.093 0.059 0.196 0.074 0.337 0.005 0.052 0.009 0.094 0.016 0.194l-0.166 0.050c-2.037-1.189-1.992-1.257-1.995-1.259-0.322-0.288-0.514-0.479-0.83-0.822-0.223-0.242-0.404-0.573-0.662-0.78-0.063-0.051-0.15-0.13-0.237-0.134-0.338 0.103-0.654 0.564 0.192 2.397 0.266 0.576 0.855 1.323 1.284 2.187 0.562 1.132 0.634 1.421 0.72 1.619-4.979-2.478-8.231-7.421-8.307-12.999l0.001-0.038-0.001-0.056 0.002-0.001c0.047-4.877 2.724-9.388 6.776-12.021 0.759-0.084 1.661-0.045 2.262 0.485 0.19 0.19 0.346 0.78 0.344 1.39-0.013 1.015-0.062 1.319-0.471 1.456-0.402 0.134-0.406 0.038-0.548-0.043-0.016-0.009-0.025-0.027-0.037-0.040-0.343-0.523-0.789-0.839-1.276-0.839l-0-0c-1.084 0-1.963 1.567-1.963 3.499-0.007 0.682 0.217 1.321 0.5 1.93 0.433 1.414 1.822 2.461 3.213 2.827 0.571 0.15 1.145 0.179 1.732 0.137 2.554-0.251 4.954-2.19 4.969-3.063 0.015-0.876-1.87-0.681-2.972-0.781-0.39-0.035-0.495-0.092-0.301-0.23 0.166-0.118 0.416-0.24 0.748-0.355 0.369-0.128 0.457-0.257 0.482-0.482 0.071-0.638-1.447-0.057-2.567-0.241-0.765-0.126-0.472-1.327-0.418-1.528 0.071-0.266 0.284-0.567 0.993-1.117 0.512-0.404 1.094-0.701 1.705-0.924 0.205-0.094 0.062-0.030 0.435-0.179l0.145-0.054 0.25-1.328 0.656 1.063c0.376-0.102 0.626-0.193 1.016-0.234l0.453-1.625c0.189 0.303 0.515 1.068 0.779 1.351 0 0 0.139 0.187 0.393 0.309s0.418 0.13 0.519 0.132c0.823 0.020 0.973-0.436 0.896-0.852-0.092-0.464-0.382-0.716-0.831-0.847-0.088-0.026-0.363-0.084-0.281-0.168 0.057-0.059 0.23-0.064 0.283-0.072v0zM17.761 25.476c-0.388 0-0.703 0.375-0.703 0.837s0.315 0.837 0.703 0.837c0.388 0 0.703-0.375 0.703-0.837s-0.315-0.837-0.703-0.837v0zM14.205 25.476c-0.388 0-0.703 0.375-0.703 0.837s0.315 0.837 0.703 0.837 0.703-0.375 0.703-0.837c0-0.462-0.315-0.837-0.703-0.837v0z"></path>
</svg>
