<!-- Generated by IcoMoon.io -->
<svg version="1.1" xmlns="http://www.w3.org/2000/svg" width="32" height="32" viewBox="0 0 32 32">
<title>peuro</title>
<path fill="#444" d="M10.563 11.193v0.465q-0.289 0.077-0.426 0.165t-0.208 0.215-0.099 0.331-0.028 0.599v4.648q0 0.556 0.070 1.014t0.257 0.785 0.518 0.504 0.852 0.176q0.718 0 1.071-0.289t0.497-0.806 0.144-1.546v-4.493q0-0.528-0.046-0.736t-0.18-0.335-0.521-0.232v-0.465h7.14q0.831 0 1.412 0.116t1.018 0.356q0.366 0.197 0.62 0.497t0.391 0.697 0.137 0.926q0 0.69-0.243 1.183t-0.655 0.821-1.102 0.616v0.070q0.521 0.225 0.863 0.602t0.616 0.954l0.444 0.958q0.296 0.641 0.588 0.961t0.694 0.391v0.465h-2.712q-0.409-0.563-0.923-1.676l-0.549-1.204q-0.247-0.535-0.423-0.761t-0.363-0.31-0.574-0.085h-0.409v2.268q0 0.528 0.049 0.739t0.19 0.338 0.521 0.225v0.465h-3.698v-0.465q0.261-0.070 0.412-0.151t0.225-0.225 0.095-0.366 0.021-0.56v-6.071q0-0.331-0.018-0.556t-0.092-0.366-0.225-0.229c-0.12-0.070-0.253-0.111-0.386-0.149-0.128 0.034-0.251 0.083-0.37 0.142q-0.148 0.081-0.225 0.225t-0.099 0.366-0.021 0.56v4.402q0 0.873-0.141 1.461t-0.437 0.99-0.736 0.648-0.99 0.352-1.232 0.106q-1 0-1.69-0.208t-1.123-0.627-0.641-1.018-0.208-1.542v-4.557q0-0.331-0.018-0.556t-0.092-0.366-0.225-0.229c-0.113-0.065-0.237-0.106-0.361-0.142v1.758h-0.965q-0.232-0.669-0.394-0.905t-0.387-0.373-0.768-0.137h-1.535v3.381h0.93q0.31 0 0.486-0.088t0.292-0.292 0.222-0.634h0.796v2.859h-0.796q-0.099-0.408-0.218-0.623t-0.285-0.306-0.497-0.092h-0.93v3.761h1.528q0.247 0 0.416-0.032t0.303-0.109 0.257-0.211 0.218-0.289 0.201-0.409 0.232-0.697h0.965l-0.134 2.571h-6.923v-0.465q0.261-0.070 0.412-0.151t0.225-0.225 0.095-0.366 0.021-0.56v-6.071q0-0.331-0.018-0.556t-0.092-0.366-0.225-0.229-0.419-0.158v-0.465h10.627zM19.232 12.017q-0.606 0-0.796 0.014v3.916h0.697q0.563 0 0.93-0.151t0.581-0.423 0.296-0.637 0.081-0.803q0-0.958-0.451-1.437t-1.338-0.479zM27.781 11.905q0.697 0 1.145 0.482t0.669 1.43 0.222 2.349q0 0.859-0.102 1.578t-0.338 1.243-0.616 0.817-0.923 0.292q-1.049 0-1.56-1.039t-0.511-3.166q0-2.035 0.497-3.011t1.518-0.975zM27.844 11.080q-1.352 0-2.331 0.585t-1.483 1.708-0.504 2.708q0 2.416 1.039 3.627t3.11 1.211q0.993 0 1.8-0.289t1.384-0.901 0.891-1.567 0.313-2.285q0-2.381-1.056-3.588t-3.162-1.208z"></path>
</svg>
