<!-- Generated by IcoMoon.io -->
<svg version="1.1" xmlns="http://www.w3.org/2000/svg" width="32" height="32" viewBox="0 0 32 32">
<title>pidw</title>
<path fill="#444" d="M4.685 10.139c0 3.907 0 7.814-0 11.721-1.562 0.001-3.123 0-4.685 0v-11.721h4.685zM9.79 12.874c0.45 0.006 0.905-0.005 1.349 0.085 0.41 0.076 0.822 0.235 1.118 0.539 0.273 0.276 0.431 0.645 0.521 1.018 0.125 0.526 0.146 1.070 0.139 1.608-0.018 0.692-0.125 1.415-0.515 2.003-0.292 0.45-0.771 0.757-1.288 0.886-0.579 0.157-1.183 0.103-1.774 0.113-0.001-2.084 0-4.167-0-6.25l0.451-0.001zM11.407 10.139h-5.909c0 3.907-0 7.813 0 11.72 1.879 0.001 3.758 0 5.637 0 0.835-0.002 1.678-0.103 2.465-0.392 0.83-0.299 1.578-0.839 2.086-1.564 0.651-0.914 0.933-2.037 1.031-3.141 0.069-0.821 0.067-1.655-0.085-2.467-0.132-0.714-0.381-1.412-0.783-2.021-0.46-0.709-1.135-1.27-1.906-1.613-0.795-0.359-1.67-0.5-2.537-0.522zM20.307 10.139h-3.777c0.673 3.906 1.338 7.814 2.008 11.72 1.379 0 2.757 0 4.136 0 0.492-2.116 0.982-4.233 1.474-6.35 0.039-0.158 0.066-0.32 0.12-0.474 0.158 0.615 0.29 1.238 0.437 1.856 0.384 1.656 0.768 3.312 1.153 4.968 1.379 0 2.757 0 4.136 0 0.67-3.904 1.335-7.809 2.006-11.713v-0.007h-3.775c-0.183 1.951-0.365 3.903-0.548 5.854-0.050 0.47-0.077 0.943-0.141 1.411-0.052-0.107-0.070-0.224-0.097-0.338-0.514-2.161-1.026-4.323-1.539-6.484-0.038-0.145-0.067-0.293-0.082-0.443h-3.104c-0.044 0.38-0.164 0.747-0.243 1.121-0.371 1.563-0.742 3.126-1.113 4.689-0.121 0.485-0.219 0.976-0.355 1.457-0.011-0.042-0.021-0.085-0.027-0.128-0.223-2.379-0.445-4.759-0.669-7.138z"></path>
</svg>
