<!-- Generated by IcoMoon.io -->
<svg version="1.1" xmlns="http://www.w3.org/2000/svg" width="32" height="32" viewBox="0 0 32 32">
<path fill="#444" d="M4.964 7.398c2.387-0.928 5.196-0.159 6.981 1.614 3.535 3.411 3.757 9.547 0.636 13.296-1.401 1.715-3.597 2.837-5.841 2.674-2.15-0.089-4.106-1.42-5.22-3.225-1.649-2.631-1.882-5.988-1.063-8.945 0.648-2.321 2.2-4.521 4.506-5.414zM2.605 12.377c-1.362 2.802-0.924 6.396 1.009 8.829 1.715 2.154 5.138 2.744 7.381 1.083 1.24-0.918 1.351-1.952 1.661-3.077-0.664 0.869-1.368 1.815-2.377 2.312-1.351 0.733-2.943 0.377-4.142-0.465-2.88-2.088-3.303-6.729-1.098-9.434 1.701-2.087 4.105-1.578 6.163-0.772-0.675-0.792-1.467-1.568-2.53-1.774-2.48-0.547-4.998 1.106-6.066 3.299zM13.369 7.971l-0.003-0.003 0.004 0-0.001 0.002zM15.295 8.511c0.912 0.96 1.786 2.742 2.27 3.855 1.405 3.52 0.345 7.517-1.731 10.536-0.706 0.19-1.409 0.38-2.107 0.582 1.49-1.886 2.674-4.129 2.81-6.574 0.108-3.225-0.927-6.543-3.155-8.925l1.913 0.525zM17.192 9.048c2.61 0.79 7.874 2.248 7.874 2.248s0.088 0.030 0.132 0.046c3.769 2 2.717 8.661-1.354 9.547-0.099 0.022-4.184 1.044-6.124 1.545 1.397-2.491 2.189-5.41 1.727-8.27-0.256-1.878-1.16-3.594-2.255-5.115zM28.117 12.998c0.896 0.268 1.828 0.435 2.689 0.803 1.564 1.013 1.622 3.679-0.008 4.657-0.92 0.47-1.983 0.524-2.969 0.784 1.040-1.921 1.242-4.246 0.287-6.244z"></path>
</svg>
