<!-- Generated by IcoMoon.io -->
<svg version="1.1" xmlns="http://www.w3.org/2000/svg" width="25" height="32" viewBox="0 0 25 32">
<title>pip</title>
<path fill="#444" d="M14.641 1.955c0.162-0.024 0.414-0.003 0.579 0.044 0.3 0.088 0.555 0.254 0.863 0.56 0.232 0.234 0.463 0.539 0.675 0.894 0.182 0.303 0.2 0.325 0.252 0.305 0.039-0.013 0.197-0.037 0.466-0.069 0.345-0.040 0.87-0.002 1.222 0.093 0.862 0.229 1.517 0.768 1.902 1.565 0.106 0.219 0.224 0.554 0.263 0.747 0.010 0.056 0.029 0.109 0.039 0.12 0.012 0.008 0.098 0.042 0.192 0.076 0.325 0.113 0.643 0.279 0.912 0.478 0.151 0.111 0.427 0.375 0.539 0.515 0.39 0.493 0.628 1.087 0.715 1.791 0.052 0.412 0.025 1.229-0.059 1.814-0.145 1.017-0.449 2.075-0.968 3.354-0.081 0.199-0.15 0.372-0.155 0.382-0.018 0.049-0.052 0.012-0.162-0.17-0.443-0.744-1.106-1.538-1.73-2.065-0.345-0.293-0.547-0.436-0.89-0.633-0.185-0.106-0.227-0.13-0.491-0.274-0.146-0.081-0.212-0.135-0.163-0.135 0.010 0 0.052-0.024 0.094-0.050 0.040-0.029 0.077-0.050 0.082-0.050 0.003 0 0.064-0.039 0.135-0.084 0.069-0.047 0.13-0.084 0.133-0.084s0.066-0.039 0.138-0.088c0.335-0.22 0.661-0.495 0.882-0.737 0.411-0.451 0.518-0.828 0.32-1.107-0.072-0.104-0.239-0.239-0.377-0.305-0.523-0.258-1.542-0.269-2.688-0.034-0.098 0.018-0.207 0.042-0.244 0.050-0.098 0.020-0.431 0.108-0.598 0.157-0.094 0.027-0.15 0.035-0.162 0.025-0.012-0.008-0.064-0.089-0.118-0.18-0.18-0.305-0.352-0.549-0.579-0.82-0.16-0.194-0.636-0.67-0.833-0.835-0.202-0.168-0.399-0.318-0.422-0.318-0.010 0-0.062 0.035-0.118 0.077-0.394 0.31-0.954 0.589-1.37 0.685-0.259 0.061-0.325 0.067-0.598 0.067-0.229 0-0.323-0.007-0.47-0.037-0.32-0.064-0.475-0.111-0.936-0.284-0.744-0.278-0.852-0.308-1.143-0.32-0.252-0.010-0.347 0.008-0.54 0.103-0.12 0.059-0.17 0.098-0.311 0.239-0.093 0.093-0.214 0.236-0.269 0.32-0.342 0.512-0.596 0.831-0.926 1.163-0.5 0.503-0.981 0.821-1.498 0.991-0.101 0.034-0.194 0.071-0.205 0.081-0.064 0.064-0.685 1.353-0.833 1.73-0.030 0.076-0.064 0.14-0.077 0.145-0.064 0.025-0.369-0.17-0.545-0.352-0.308-0.315-0.554-0.803-0.663-1.32-0.082-0.39-0.094-1.059-0.025-1.513 0.056-0.374 0.17-0.771 0.308-1.069l0.049-0.108-0.025-0.207c-0.030-0.236-0.035-0.64-0.010-0.818 0.051-0.355 0.067-0.433 0.155-0.71 0.12-0.385 0.396-0.885 0.643-1.161 0.049-0.056 0.062-0.062 0.077-0.042 0.008 0.013 0.017 0.044 0.017 0.067 0 0.067 0.081 0.35 0.143 0.503 0.168 0.412 0.454 0.734 0.805 0.9 0.239 0.114 0.345 0.136 0.651 0.135 0.227 0 0.281-0.007 0.428-0.045 0.296-0.079 0.675-0.29 0.993-0.549 0.178-0.146 0.384-0.369 0.794-0.862 0.512-0.613 0.729-0.813 1.067-0.983 0.276-0.138 0.476-0.183 0.791-0.182 0.259 0 0.39 0.025 0.633 0.116 0.271 0.101 0.5 0.246 0.769 0.485 0.076 0.067 0.138 0.109 0.146 0.101 0.007-0.008 0.069-0.109 0.136-0.226 0.631-1.091 1.296-1.776 1.929-1.986 0.089-0.029 0.209-0.059 0.264-0.067zM14.449 9.574c0.039-0.044 0.074-0.079 0.079-0.079 0.015 0 0.298 0.188 0.401 0.268 0.306 0.234 0.582 0.53 0.801 0.858 0.14 0.21 0.328 0.589 0.399 0.801 0.199 0.594 0.183 1.106-0.027 0.958-0.020-0.013-0.056-0.062-0.077-0.106-0.118-0.232-0.431-0.571-0.746-0.806-0.303-0.227-0.766-0.49-1.166-0.663l-0.177-0.076 0.003-0.108c0.003-0.131 0.064-0.328 0.157-0.512 0.084-0.163 0.258-0.426 0.353-0.535zM2.664 10.231c0.114-0.136 0.217-0.247 0.229-0.247 0.013 0 0.029 0.047 0.042 0.135 0.010 0.072 0.042 0.222 0.069 0.332 0.274 1.123 0.823 1.808 1.658 2.074 0.093 0.030 0.173 0.061 0.182 0.067 0.007 0.007-0.013 0.088-0.044 0.18-0.032 0.091-0.082 0.246-0.113 0.343s-0.061 0.195-0.069 0.219c-0.035 0.106-0.237 0.838-0.284 1.035-0.029 0.12-0.059 0.246-0.067 0.278s-0.024 0.094-0.032 0.138c-0.010 0.045-0.027 0.116-0.037 0.16-0.025 0.116-0.044 0.202-0.066 0.316-0.010 0.056-0.025 0.131-0.034 0.168-0.042 0.202-0.096 0.503-0.135 0.761-0.040 0.269-0.049 0.34-0.066 0.485-0.084 0.709-0.094 0.907-0.094 1.75 0 0.754 0.010 0.983 0.059 1.372 0.045 0.353 0.054 0.417 0.067 0.488 0.008 0.042 0.024 0.125 0.034 0.185 0.018 0.103 0.027 0.145 0.066 0.323 0.035 0.153 0.089 0.377 0.103 0.417 0.007 0.024 0.022 0.076 0.034 0.118s0.066 0.212 0.121 0.379c0.517 1.562 1.508 2.802 2.935 3.666 0.73 0.441 1.683 0.826 2.573 1.037 0.047 0.012 0.111 0.027 0.143 0.035s0.098 0.024 0.143 0.034c0.047 0.010 0.111 0.025 0.143 0.034s0.086 0.020 0.118 0.025c0.032 0.005 0.098 0.017 0.143 0.027 0.475 0.096 1.261 0.096 1.809-0.002 0.284-0.049 0.414-0.081 0.724-0.17 0.163-0.049 0.165-0.039 0.008 0.077-0.367 0.271-0.747 0.503-1.17 0.715-0.173 0.088-0.175 0.088-0.131 0.111 0.141 0.074 0.636 0.158 0.931 0.158 0.448 0 1.042-0.133 1.515-0.34 0.976-0.427 2.188-1.346 2.489-1.885 0.089-0.162 0.116-0.254 0.108-0.387-0.010-0.189-0.012-0.19-0.327-0.034-0.513 0.256-0.843 0.392-1.269 0.523-0.098 0.030-0.195 0.062-0.219 0.069s-0.076 0.022-0.118 0.034c-0.042 0.010-0.099 0.027-0.128 0.035-0.133 0.040-0.121 0.008 0.049-0.121 0.535-0.414 1.131-0.916 1.628-1.37 0.633-0.581 1.644-1.693 2.178-2.397 0.296-0.392 0.454-0.633 0.589-0.894 0.035-0.069 0.076-0.135 0.088-0.145 0.013-0.010 0.089-0.024 0.172-0.030 0.212-0.015 0.416-0.061 0.744-0.167 0.68-0.217 1.22-0.683 1.355-1.173 0.047-0.17 0.071-0.581 0.042-0.773-0.032-0.226-0.123-0.577-0.2-0.767-0.372-0.916-0.964-1.814-1.865-2.831-0.067-0.077-0.123-0.146-0.123-0.157 0-0.024 0.202 0.056 0.37 0.146 0.358 0.192 0.813 0.528 1.367 1.010 0.177 0.153 0.215 0.178 0.215 0.135 0-0.030-0.234-0.503-0.34-0.685-0.358-0.621-1.062-1.634-1.599-2.301-0.052-0.067-0.091-0.125-0.084-0.13 0.017-0.010 0.517 0.364 1.013 0.756 0.969 0.766 1.752 1.56 2.094 2.121 0.045 0.074 0.094 0.153 0.108 0.175 0.020 0.034 0.027 0.035 0.047 0.017 0.022-0.024 0.343-0.705 0.343-0.73 0-0.003 0.022-0.056 0.047-0.113 0.027-0.059 0.057-0.133 0.071-0.165 0.012-0.032 0.029-0.066 0.037-0.076 0.007-0.008 0.013-0.025 0.013-0.037s0.015-0.054 0.032-0.094c0.079-0.172 0.38-0.986 0.483-1.304 0.015-0.049 0.035-0.086 0.044-0.084 0.020 0.007 0.039 0.057 0.189 0.468 0.135 0.369 0.305 0.936 0.38 1.262 0.185 0.806 0.251 1.254 0.32 2.171 0.052 0.707-0.005 1.799-0.136 2.584-0.077 0.465-0.099 0.569-0.192 0.951-0.416 1.712-1.202 3.317-2.294 4.687-1.725 2.165-4.083 3.673-6.753 4.316-0.621 0.15-1.091 0.226-1.927 0.308-0.305 0.030-1.873 0.030-2.171 0-0.648-0.066-1.077-0.131-1.574-0.241-1.703-0.377-3.341-1.168-4.721-2.277-1.441-1.158-2.643-2.674-3.471-4.381-0.086-0.177-0.157-0.327-0.157-0.332s-0.022-0.059-0.050-0.119c-0.226-0.491-0.571-1.505-0.704-2.062-0.079-0.333-0.109-0.463-0.136-0.606-0.010-0.050-0.025-0.131-0.034-0.177-0.054-0.286-0.106-0.631-0.135-0.917-0.010-0.088-0.027-0.251-0.039-0.362-0.029-0.274-0.029-1.629 0-1.893 0.012-0.106 0.029-0.269 0.039-0.362s0.024-0.215 0.032-0.274c0.029-0.195 0.054-0.348 0.067-0.424 0.008-0.042 0.024-0.125 0.034-0.185s0.027-0.143 0.035-0.185c0.010-0.042 0.024-0.106 0.032-0.143 0.030-0.138 0.121-0.507 0.135-0.547 0.007-0.024 0.022-0.072 0.032-0.109 0.409-1.481 1.197-2.961 2.237-4.204zM7.33 10.448c0.283-0.082 0.49-0.050 0.584 0.093 0.044 0.067 0.047 0.082 0.047 0.242 0 0.163-0.003 0.175-0.062 0.296-0.035 0.067-0.081 0.145-0.103 0.168-0.13 0.143-0.355 0.273-0.56 0.318-0.045 0.010-0.209 0.034-0.362 0.050-0.446 0.052-0.63 0.099-0.811 0.212-0.113 0.069-0.165 0.067-0.195-0.007-0.061-0.146 0.224-0.581 0.566-0.865 0.279-0.232 0.623-0.428 0.897-0.508zM6.939 12.365c0.098-0.039 0.269-0.024 0.362 0.032 0.249 0.145 0.401 0.528 0.401 1.010-0.002 0.429-0.101 0.769-0.31 1.045-0.224 0.298-0.535 0.345-0.762 0.118-0.098-0.098-0.204-0.3-0.251-0.48-0.039-0.146-0.054-0.567-0.025-0.757 0.069-0.476 0.301-0.86 0.586-0.968zM10.299 12.595c0.077-0.089 0.148-0.071 0.188 0.050s0.025 0.678-0.024 0.897c-0.109 0.486-0.401 1.16-0.725 1.673-0.146 0.232-0.397 0.567-0.604 0.81-0.131 0.153-0.15 0.18-0.133 0.21 0.056 0.104 0.641 0.638 0.848 0.773 0.030 0.018 0.056 0.044 0.056 0.052 0 0.010-0.173 0.19-0.385 0.402l-0.385 0.385-0.067-0.054c-0.101-0.079-0.379-0.375-0.53-0.566-0.33-0.412-0.498-0.752-0.527-1.072-0.017-0.173 0.010-0.215 0.414-0.628 0.582-0.594 0.816-0.868 1.079-1.266 0.212-0.32 0.385-0.655 0.476-0.917 0.15-0.436 0.246-0.663 0.32-0.751zM13.902 12.811c0.157-0.018 0.523-0.005 0.665 0.025 0.362 0.076 0.665 0.251 0.818 0.473 0.158 0.229 0.205 0.468 0.15 0.773-0.040 0.234-0.094 0.365-0.175 0.434-0.148 0.123-0.311 0.040-0.528-0.271-0.054-0.076-0.14-0.18-0.19-0.231-0.321-0.316-0.85-0.468-1.602-0.461-0.168 0.002-0.311-0.002-0.316-0.007-0.018-0.017 0.074-0.157 0.173-0.264 0.242-0.263 0.586-0.424 1.007-0.471zM13.175 17.46c0.018-0.020 0.040-0.037 0.045-0.037 0.010 0 0.528 0.458 1.212 1.069 0.125 0.111 0.343 0.306 0.486 0.434 0.145 0.13 0.268 0.244 0.276 0.256 0.012 0.022-0.054 0.17-0.369 0.831-0.059 0.123-0.108 0.227-0.108 0.231 0 0.002-0.056 0.119-0.123 0.263-0.067 0.141-0.172 0.362-0.231 0.488-0.061 0.128-0.114 0.232-0.121 0.232s-0.013-0.266-0.013-0.589c0-0.332-0.007-0.589-0.015-0.589s-0.098 0.061-0.197 0.136c-0.212 0.158-0.476 0.335-0.736 0.493-0.101 0.061-0.185 0.111-0.187 0.111-0.003 0-0.069 0.037-0.146 0.081-0.608 0.35-1.538 0.704-2.178 0.83-0.746 0.146-1.326 0.167-2.095 0.072-0.628-0.077-1.296-0.279-1.784-0.542-0.215-0.114-0.55-0.342-0.677-0.456-0.061-0.057-0.12-0.103-0.13-0.103-0.013 0-0.017 0.032-0.008 0.104 0.020 0.207-0.052 0.327-0.189 0.311-0.098-0.010-0.165-0.066-0.269-0.224-0.155-0.234-0.321-0.618-0.529-1.229-0.064-0.19-0.118-0.357-0.118-0.37 0-0.012 0.141-0.18 0.316-0.374 0.173-0.192 0.421-0.47 0.549-0.614 0.13-0.145 0.241-0.258 0.246-0.247 0.005 0.008-0.005 0.175-0.022 0.372-0.024 0.293-0.025 0.362-0.008 0.379 0.042 0.042 0.813 0.316 1.133 0.402 0.392 0.106 0.454 0.121 0.757 0.183 0.199 0.040 0.382 0.071 0.614 0.103 0.574 0.079 1.508 0.079 2.037-0.002 0.399-0.059 0.582-0.099 0.926-0.195 0.576-0.162 1.205-0.448 1.569-0.712 0.088-0.064 0.088-0.061 0.022-0.202-0.013-0.027-0.069-0.155-0.125-0.283l-0.101-0.231 0.128-0.173c0.069-0.094 0.143-0.189 0.162-0.21zM13.729 19.109c-0.104-0.121-0.195-0.222-0.202-0.221-0.007 0-0.064 0.039-0.13 0.086-0.401 0.284-0.985 0.572-1.567 0.769-0.466 0.158-0.801 0.239-1.32 0.32-0.778 0.121-1.819 0.108-2.558-0.032-0.042-0.008-0.125-0.024-0.185-0.034-0.123-0.022-0.18-0.034-0.396-0.084-0.17-0.040-0.199-0.047-0.269-0.067-0.027-0.007-0.111-0.030-0.185-0.050-0.18-0.049-0.693-0.221-0.848-0.284-0.069-0.029-0.131-0.052-0.138-0.052-0.037 0-0.005 0.062 0.123 0.256 0.106 0.158 0.194 0.263 0.375 0.444 0.254 0.256 0.416 0.382 0.707 0.559 0.483 0.291 1.013 0.465 1.725 0.56 0.237 0.034 1.065 0.029 1.313-0.007 0.98-0.138 1.981-0.522 3.063-1.17 0.241-0.145 0.794-0.515 0.825-0.55 0.024-0.027 0.037-0.008-0.333-0.443z"></path>
</svg>
