<!-- Generated by IcoMoon.io -->
<svg version="1.1" xmlns="http://www.w3.org/2000/svg" width="30" height="32" viewBox="0 0 30 32">
<title>plc</title>
<path fill="#444" d="M23.586 15.947c-0.261 0.146-0.529 0.268-0.808 0.377-0.005-1.224-0.012-2.444-0.016-3.666-0.698-0.502-1.444-0.938-2.227-1.294-0.963-0.439-1.982-0.758-3.020-0.956l0.014 3.193c-3.271 0.014-6.542 0.028-9.813 0.041 0.002-0.566 0.145-1.134 0.418-1.591 0.79-1.317 2.664-1.71 4.401-1.954 3.058-0.43 5.687-0.409 8.501-0.083 0.901 0.104 1.82 0.241 2.633 0.649 1.063 0.533 1.945 1.532 1.979 2.52 0.040 1.069-0.917 2.125-2.063 2.765zM8.157 15.254c1.164-0.199 2.389-0.22 3.562-0.261 1.994-0.072 3.835-0.201 5.937 0.118 1.328 0.201 2.758 0.582 3.454 1.539 0.025 0.033 0.046 0.064 0.067 0.097-1.164 0.199-2.389 0.219-3.562 0.261-1.994 0.072-3.835 0.203-5.937-0.118-1.328-0.201-2.758-0.584-3.455-1.538-0.024-0.033-0.044-0.065-0.065-0.097zM21.2 19.95c-0.79 1.319-2.666 1.71-4.401 1.954-3.058 0.432-5.687 0.409-8.501 0.083-0.901-0.103-1.82-0.24-2.633-0.649-1.063-0.534-1.945-1.534-1.979-2.52-0.040-1.070 0.917-2.123 2.063-2.765 0.261-0.146 0.529-0.268 0.808-0.374l0.016 3.664c0.698 0.501 1.444 0.936 2.227 1.293 0.963 0.439 1.982 0.758 3.020 0.959l-0.014-3.195c3.271-0.014 6.542-0.028 9.813-0.044-0.002 0.568-0.145 1.138-0.418 1.594zM26.584 7.733c-2.631-2.199-6.796-2.83-10.55-2.775-3.525 0.053-6.687 0.707-9.512 2.842 0.007 1.95 0.016 3.9 0.025 5.849-1.541 0.007-3.082 0.014-4.625 0.021-0.901 1.196-1.622 2.617-1.841 4.045-0.377 2.455 0.727 4.932 2.668 6.554 2.631 2.199 6.796 2.83 10.55 2.774 3.525-0.051 6.687-0.709 9.512-2.839-0.007-1.952-0.016-3.901-0.025-5.851 1.541-0.005 3.082-0.012 4.625-0.021 0.901-1.195 1.622-2.617 1.841-4.045 0.377-2.455-0.727-4.932-2.668-6.554z"></path>
</svg>
