<!-- Generated by IcoMoon.io -->
<svg version="1.1" xmlns="http://www.w3.org/2000/svg" width="32" height="32" viewBox="0 0 32 32">
<title>pleaf</title>
<path fill="#444" d="M11.313 14.685c-0.492 2.024-0.652 3.58-0.652 3.58-0.137 1.066-0.137 1.92-0.137 1.92 5.595-2.956 14.302-9.895 14.302-9.895-5.554 3.003-8.815 2.634-10.013 2.48-1.181-0.151-1.693 0.028-1.8 0.069 0 0-1.397 0.608-1.699 1.845zM6.779 26.571c-0.372-1.215-1.637-1.531-3.432-0.896-1.794 0.633-3.326-0.422-3.326-0.422s6.332-0.53 17.627-7.916c11.295-7.39 14.329-13.221 14.329-13.221 0.079 3.773-3.034 8.048-3.034 8.048-1.478 0-3.219 1.002-3.219 1.002 0.896 0.317 2.796 0.53 2.796 0.53-5.962 8.708-10.66 6.438-10.66 6.438 0.423 1.688 2.48 2.956 2.48 2.956-2.853 3.589-7.494 0.79-8.179 0.263-0.686-0.529-2.799 0.476-2.799 0.476-1.358 0.574-2.004 1.182-2.34 1.66-0.291 0.411-0.244 1.083-0.244 1.083z"></path>
</svg>
