<!-- Generated by IcoMoon.io -->
<svg version="1.1" xmlns="http://www.w3.org/2000/svg" width="32" height="32" viewBox="0 0 32 32">
<title>pls</title>
<path fill="#444" d="M30.501 19.493c0 0-5.715 1.623-10.724 1.623-5.011 0-13.549-2.541-13.549-6.491 0-3.954 7.975-3.53 7.975-3.53s4.308 0.123 4.934 2.111c0.701 2.228-1.548 2.969-1.548 2.969s5.646 0.071 5.646-2.892c0-2.964-6.916-3.812-9.316-3.812s-13.9 0.284-13.9 6.774c0 6.393 11.15 8.609 16.141 8.609 9.207 0 14.342-5.362 14.342-5.362zM15.733 8.405c-0.157-0.006-0.315-0.008-0.474-0.008-5.998 0-8.469 0.651-8.469 0.651s2.118-1.903 9.034-1.903c6.914 0 16.157 2.75 16.157 8.043s-12.279 4.939-12.279 4.939c0 0-6.326-0.372-9.439-2.258-4.887-2.967 0.15-5.239 0.15-5.239 1.678-0.783 3.927-0.476 3.927-0.476s-2.47 1.129-2.47 2.61c0 1.481 4.73 2.259 7.553 2.259 2.777 0 6.495-0.907 6.771-2.6 0.826-5.087-10.461-6.020-10.461-6.020z"></path>
</svg>
