<!-- Generated by IcoMoon.io -->
<svg version="1.1" xmlns="http://www.w3.org/2000/svg" width="31" height="32" viewBox="0 0 31 32">
<path fill="#444" d="M24.086 11.469c1.405-1.671 4.177-1.953 5.896-0.611 1.017 0.795 1.263 2.261 0.884 3.445-0.287 0.858-0.778 1.635-1.337 2.338-0.499 0.623-1.66 1.799-1.66 1.799s2.299 0.010 2.339-0c0.34-0.306 0.655-1.199 0.655-1.199l0.603 0.019-0.205 3.421c0 0-7.144 0.026-7.774 0.006 0.070-0.622 0.496-1.095 0.938-1.498 0.768-0.704 1.354-1.572 1.979-2.399 0.715-1.158 1.345-2.487 1.125-3.887-0.138-0.543-0.571-1.056-1.257-1.12-0.444-0.042-0.864 0.028-1.099 0.346-0.174 0.236-0.124 0.596-0.16 0.886-0.083 0.014-0.251 0.041-0.336 0.053-0.268-0.484-0.754-1.017-0.59-1.6zM9.717 10.12h4.014c0 0 1.603 4.106 2.27 5.855 0.041 0.001 0.124 0.004 0.165 0.007 0.849-1.904 2.434-5.862 2.434-5.862h4.15l-0.005 0.84c0 0-1.198-0.088-1.181 0.545 0.137 1.557 0.401 7.388 0.693 7.989 0.236 0.487 1.266 0.514 1.266 0.514s-0.139 0.457-0.198 0.674c-1.51 0.019-5.723 0-5.723 0l-0.026-0.674c0 0 0.976 0.101 1.163-0.46 0.296-0.886-0.204-4.495-0.204-4.495l-2.314 5.641-1.475 0.098-2.517-5.921-0.26 3.611c0 0-0.132 0.942 0.209 1.241 0.24 0.211 0.954 0.284 0.954 0.284l0.059 0.674h-4.366l0.001-0.675c0 0 1.174 0.063 1.236-0.681 0.208-1.315 0.749-6.553 0.717-7.93-0.013-0.569-1.083-0.451-1.083-0.451l0.022-0.825zM0 10.12c0 0 2.392 0.010 4.939 0 1.116-0.004 2.375 0.146 3.157 0.664 0.83 0.55 1.308 1.301 1.314 2.251 0.003 0.358 0.164 1.555-1.337 2.828-1.215 1.030-3.928 0.87-3.928 0.87v5.258c0 0-1.339-1.544-1.79-1.84s-0.909-0.721-1.427-0.851l-0.018-7.201 0.578-0.415-1.488-1.565zM4.145 16.034c0 0 1.964 0.027 1.875-2.988-0.040-1.371-1.023-1.636-1.875-1.636v4.624z"></path>
</svg>
