<!-- Generated by IcoMoon.io -->
<svg version="1.1" xmlns="http://www.w3.org/2000/svg" width="29" height="32" viewBox="0 0 29 32">
<path fill="#444" d="M22.326 20.807h-6.13v-7.014h-0.059l-2.983 7.705h-0.060l-3.063-7.473h-0.060v6.782h-2.156v-0.060l0.849-0.526v-9.583l-0.849-0.533v-0.068h3.035l2.808 7.158h0.068l2.764-7.158h2.861v0.068l-0.841 0.518v9.598l0.681 0.426 0.627-0.426 4.408-10.643h0.068l4.274 10.643 0.767 0.526v0.060h-2.997l-1.202-3.215-1.292 0.834h-1.952l-0.218 0.518c-0.11 0.291-0.165 0.554-0.165 0.788 0 0.506 0.273 0.845 0.819 1.014v0.060zM22.342 17.3h2.688l-1.246-3.388h-0.060l-1.382 3.388zM-0 10.105v-0.068h4.297c1.201 0 2.157 0.263 2.869 0.788s1.066 1.284 1.066 2.275c0 0.511-0.106 0.977-0.319 1.397s-0.497 0.763-0.852 1.025c-0.356 0.263-0.752 0.465-1.191 0.609-0.438 0.142-0.892 0.214-1.363 0.214h-0.060l-1.292-0.834v6.91h-0.060c-0.22-0.326-0.533-0.642-0.938-0.95-0.406-0.308-0.842-0.529-1.307-0.665v-8.952h1.907v-0.060l-2.756-1.689zM3.154 15.272h0.706c1.272 0 1.907-0.693 1.907-2.080 0-0.722-0.168-1.247-0.504-1.578-0.335-0.329-0.886-0.495-1.652-0.495h-0.458v4.153z"></path>
</svg>
