<!-- Generated by IcoMoon.io -->
<svg version="1.1" xmlns="http://www.w3.org/2000/svg" width="32" height="32" viewBox="0 0 32 32">
<title>pmei</title>
<path fill="#444" d="M8.723 13.249c0 0 3.903-2.041 8.786-2.041 6.564 0 13.308 3.638 14.462 9.76 0 0-3.462-8.873-14.109-8.873-4.79 0-7.541 2.041-7.541 2.041l3.903 0.090-5.233 1.24 3.195 3.371-4.082-2.306 0.975 4.614-2.129-3.903-2.839 5.147 1.685-5.767-5.767 1.328 5.412-2.661-3.459-3.019 4.17 1.776-0.531-3.55 1.685 3.373 2.305-4.26-0.887 3.638z"></path>
</svg>
