<!-- Generated by IcoMoon.io -->
<svg version="1.1" xmlns="http://www.w3.org/2000/svg" width="32" height="32" viewBox="0 0 32 32">
<title>pmps</title>
<path fill="#444" d="M28.555 9.533q0.824 0 1.574 0.088t1.713 0.31v2.685h-1.268q-0.176-0.731-0.449-1.162t-0.68-0.634-1.028-0.204q-0.528 0-0.944 0.185t-0.657 0.551-0.241 0.884q0 0.537 0.208 0.93t0.699 0.768 1.426 0.856q1.139 0.592 1.791 1.162t0.963 1.241 0.31 1.56q0 1.139-0.528 1.977t-1.537 1.287-2.333 0.449q-0.944 0-1.967-0.107t-1.921-0.31v-2.852h1.268q0.231 1.102 0.773 1.643t1.588 0.542q0.546 0 0.981-0.185t0.699-0.597 0.264-1.032q0-0.574-0.213-0.995t-0.685-0.801-1.315-0.805q-0.722-0.361-1.305-0.75t-0.995-0.856c-0.262-0.287-0.456-0.625-0.618-0.977-0.063 0.305-0.216 0.582-0.365 0.852q-0.546 0.907-1.583 1.375t-2.592 0.468q-0.898 0-1.472-0.037v2.963q0 0.611 0.046 0.866t0.153 0.407 0.305 0.255 0.616 0.176v0.611h-9.671v-0.611q0.407-0.111 0.565-0.194t0.245-0.218 0.13-0.407 0.042-0.903v-4.537q0-0.75 0.028-1.768t0.056-1.444h-0.194q-0.111 0.37-0.236 0.727t-0.467 1.273l-2.481 6.684h-1.629l-2.611-7.508q-0.231-0.639-0.407-1.268h-0.167q0.093 1.528 0.093 3.611v4.259q0 0.685 0.065 0.954t0.259 0.444 0.676 0.296v0.611h-3.5v-0.611q0.343-0.093 0.542-0.204t0.301-0.296 0.125-0.472 0.023-0.731v-8.008q0-0.704-0.060-0.963t-0.236-0.426-0.694-0.315v-0.611h4.601l2.564 7.601 2.777-7.601h9.662q2.342 0 3.509 0.838c0.431 0.32 0.797 0.758 0.959 1.278 0.246-0.512 0.123-0.303 0.343-0.644q0.565-0.796 1.634-1.208t2.477-0.412zM14.286 10.301c-0.229 0.060-0.448 0.151-0.638 0.292q-0.176 0.162-0.245 0.435t-0.069 0.967v8.008q0 0.565 0.056 0.893t0.227 0.5c0.186 0.165 0.434 0.236 0.669 0.302 0.177-0.045 0.348-0.111 0.513-0.191q0.199-0.106 0.296-0.296t0.125-0.481 0.028-0.736v-7.98q0-0.435-0.023-0.731t-0.12-0.481-0.296-0.301c-0.161-0.094-0.341-0.148-0.52-0.199zM19.115 10.764q-0.648 0-1 0.019v5.212h0.796q0.926 0 1.472-0.264t0.81-0.838 0.264-1.546q0-0.963-0.264-1.532t-0.773-0.81-1.305-0.241z"></path>
</svg>
