<!-- Generated by IcoMoon.io -->
<svg version="1.1" xmlns="http://www.w3.org/2000/svg" width="28" height="32" viewBox="0 0 28 32">
<title>pmpu</title>
<path fill="#444" d="M24.644 6.663c2.338 2.645 3.455 5.817 3.544 9.323 0 7.767-6.296 14.063-14.063 14.063s-14.063-6.296-14.063-14.063c0.032-3.647 1.223-6.511 3.52-9.294l6.34 8.101c-0.182 0.893-0.139 0.493-0.175 1.194 0 2.418 1.96 4.377 4.377 4.377s4.377-1.96 4.377-4.377c-0.036-0.717 0.007-0.301-0.184-1.24l6.326-8.083zM8.429 3.14c-1.25 0.529-2.41 1.267-3.429 2.163l5.516 8.224 0.003 0.011c0.256-0.379 0.525-0.768 0.931-1.006l-3.021-9.393zM19.828 3.143l-3.022 9.395c0.367 0.248 0.672 0.585 0.899 0.964l5.515-8.223c-1.033-0.853-2.136-1.64-3.392-2.136zM14.959 1.952l-0.333 9.689c0.887 0.181 0.55 0.057 1.044 0.266l2.306-9.437c-0.979-0.304-1.995-0.457-3.017-0.518zM13.29 1.952c-1.011 0.102-2.041 0.171-3.008 0.515l2.306 9.437c0.483-0.204 0.152-0.082 1.027-0.261l-0.324-9.691z"></path>
</svg>
