<!-- Generated by IcoMoon.io -->
<svg version="1.1" xmlns="http://www.w3.org/2000/svg" width="28" height="32" viewBox="0 0 28 32">
<title>pmtg2</title>
<path fill="#444" d="M27.262 22.203c-0.346-0.374-0.716-0.645-1.071-0.908-0.563-0.417-1.046-0.774-1.254-1.408-0.838-3.414-2.456-7.064-3.695-9.357-0.103-0.456-0.134-0.941-0.159-1.411-0.003-0.012-0.031-0.461-0.034-0.508 0.003-0.043 0.015-0.23 0.015-0.233 0-0.424-0.119-0.715-0.35-0.896-0.389-0.307-0.881-0.12-1.040-0.059-0.253 0.093-0.544 0.050-0.881 0 0.014 0-1.697-0.201-1.697-0.201 0.002 0-1.009-0.087-1.009-0.087-0.424 0-0.734 0.374-0.839 0.724-0.008 0.024-0.014 0.047-0.017 0.070l-0.025 0.167c-0.006 0.026-0.006 0.052-0.006 0.079 0.003 0.269 0.122 0.505 0.333 0.651l0.418 0.286c-0.003-0.003 0.563 0.395 0.725 0.505 0.216 0.28 0.316 0.523 0.316 0.8v0.012c-0.051 0.076-0.131 0.207-0.131 0.207-0.301 0.479-0.582 0.929-0.921 1.279-0.015 0.018-0.122 0.141-0.122 0.141-0.094 0.099-0.25 0.265-0.296 0.561-0.005 0.023-0.008 0.049-0.008 0.073 0 0.275 0.139 0.532 0.346 0.786-0.233-0.245-0.503-0.438-0.753-0.499-0.307-0.073-0.6 0.023-0.782 0.26-0.031 0.041-0.068 0.108-0.085 0.155-0.097 0.28-0.182 0.449-0.245 0.561-0.006-0.003-0.015-0.003-0.020-0.006-0.187-0.339-0.886-1.586-0.886-1.586-1.813-3.3-2.701-4.746-3.556-4.717-1.379 0.164-2.362 0.090-3.821-0.052-0.031-0.003-0.079-0.003-0.111 0-0.512 0.058-1.103 0.777-1.103 1.201v0.072c0 0.234 0.167 0.435 0.395 0.467l0.071 0.009c1.063 0.149 1.151 0.526 1.151 0.964 0 0-0.006 0.099-0.012 0.161-0.276 1.083-0.571 1.676-0.85 2.149-0.043 0.073-0.076 0.198-0.076 0.283 0 0.356 0.293 0.642 0.619 0.844-0.082-0.018-0.17-0.047-0.245-0.050-0.477-0.023-0.679 0.266-0.744 0.389-0.014 0.026-0.034 0.079-0.043 0.105-0.571 1.837-1.228 3.704-2.064 5.864-0.034 0.058-0.173 0.283-0.173 0.283-0.557 0.929-1.080 1.802-2.121 2.287-0.074 0.035-0.168 0.114-0.216 0.181-0.122 0.178-0.188 0.385-0.188 0.604 0 0.222 0.068 0.438 0.194 0.608 0.222 0.298 0.583 0.409 0.918 0.28 0.045-0.015 0.105-0.049 0.142-0.079 1.043-0.826 2.399-1.124 4.147-0.908 0.034 0.003 0.088 0.005 0.119 0.003 0.398-0.038 0.691-0.374 0.725-0.836 0.003-0.005 0.006-0.081 0.006-0.081 0-0.482-0.261-0.864-0.651-0.964-0.023-0.006-0.046-0.012-0.071-0.015-0.179-0.017-0.23-0.070-0.273-0.143-0.009-0.099-0.054-0.671-0.054-0.671 0-1.408 0.594-3.143 1.816-5.298 0.028-0.044 0.028-0.032 0.039-0.082l0.060-0.33c0.002-0.018 0.002-0.026 0.002-0.032 0-0.009-0.002-0.009-0.008-0.044l-0.012-0.067c-0.006-0.034-0.017-0.073-0.031-0.105-0.091-0.228-0.315-0.435-0.574-0.602 0.426 0.082 0.802-0.029 1.029-0.307l0.173-0.257 0.122-0.21 0.080-0.126 0.111-0.213c0.012-0.015 0.023-0.044 0.028-0.061 0 0 0.074-0.193 0.079-0.202 0.071 0.029 0.14 0.055 0.14 0.055 2.206 1.078 4.241 8.729 4.452 11.136v0.006c0 0.409 0.231 0.797 0.583 0.946 0 0 0.466 0.032 0.466 0.032 0.097 0.009 0.060-0.005 0.143-0.061l0.176-0.12 0.634-0.572 1.763-1.665c0.435-0.319 0.534-0.783 0.586-1.031 0.008-0.035 0.014-0.087 0.014-0.135s-0.006-0.093-0.011-0.126l-0.006-0.017c-0.003-0.023-0.012-0.038-0.017-0.058-0.27-0.701-0.574-1.457-0.977-2.24-0.199-0.409-0.299-0.803-0.299-1.192 0-0.455 0.125-0.873 0.271-1.358 0.153-0.517 0.312-1.049 0.361-1.708 0-0.009 0-0.021 0-0.035 0-0.041-0.003-0.090-0.009-0.126-0.060-0.266-0.219-0.544-0.421-0.789 0.042 0.044 0.060 0.090 0.111 0.132 0.006 0.006 0.071 0.067 0.071 0.067 0.006 0.003 0.474 0.304 0.474 0.304 0.071 0.023 0.358 0.102 0.6 0.032 0 0 0.003-0.003 0.003-0.003s0 0.003-0.003 0.003c0.060-0.018 0.111-0.047 0.162-0.084 0.057-0.041 0.114-0.088 0.167-0.135 0.108 0.017 0.247 0.070 0.401 0.336 0.953 1.577 1.74 3.393 2.343 5.403 0.097 0.484 0.145 0.844 0.145 1.121 0 0.382-0.091 0.529-0.162 0.607l-0.159 0.141c-0.316 0.289-0.64 0.584-0.913 0.748-0.105 0.064-0.213 0.184-0.242 0.306l-0.009 0.035c0-0.006-0.060 0.4-0.060 0.4l0.185 0.561c0.179 0.222 0.455 0.321 0.816 0.295 0.091-0.008 0.222-0.061 0.295-0.12 0.307-0.251 0.717-0.449 1.257-0.61 1.017-0.187 1.902-0.17 2.701-0.12 0.588 0.090 1.316 0.221 2.015 0.546 0.017 0.009 0.037 0.018 0.060 0.023 0.426 0.129 0.839 0.018 1.075-0.292 0.003 0 0.17-0.511 0.17-0.511l-0.127-0.482c-0.023-0.076-0.026-0.050-0.080-0.105zM1.942 19.954c0 0 0.094-0.152 0.137-0.225 0.239-0.622 0.461-1.212 0.674-1.79-0.108-0.631-0.174-1.276-0.174-1.939 0-2.263 0.651-4.372 1.76-6.15-0.321-0.211-0.531-0.579-0.531-0.988v-0.073c0-0.812 0.895-1.808 1.711-1.904 0 0 0.253-0.003 0.256-0.003 0.401 0.040 0.759 0.072 1.1 0.099 1.893-1.524 4.273-2.445 6.862-2.445 2.371 0 4.569 0.771 6.379 2.073 0.464-0.023 0.799 0.138 1.017 0.307 0.234 0.187 0.504 0.52 0.586 1.095 1.961 2.064 3.172 4.88 3.172 7.987 0 0.371-0.020 0.739-0.054 1.101 0.287 0.849 0.543 1.714 0.753 2.564 0.108 0.324 0.35 0.555 0.736 0.853 0.483-1.416 0.75-2.935 0.75-4.518 0-7.558-5.986-13.706-13.341-13.706s-13.341 6.148-13.341 13.706c0 1.746 0.325 3.411 0.904 4.95 0.225-0.301 0.426-0.636 0.643-0.996zM24.075 23.728c0.191 0.032 0.392 0.067 0.595 0.111-2.414 3.543-6.413 5.867-10.933 5.867-4.401 0-8.309-2.202-10.74-5.587 0.666-0.184 1.433-0.221 2.326-0.114-0.006 0 0.264 0.006 0.264 0.006 0.054-0.006 0.106-0.020 0.156-0.032 2.030 2.146 4.861 3.484 7.993 3.484 3.218 0 6.115-1.419 8.153-3.668 0.805-0.114 1.527-0.105 2.186-0.067z"></path>
</svg>
