<!-- Generated by IcoMoon.io -->
<svg version="1.1" xmlns="http://www.w3.org/2000/svg" width="30" height="32" viewBox="0 0 30 32">
<title>po2</title>
<path fill="#444" d="M14.61 1.574c2.768 0 5.127 1.094 5.127 1.094l-0.522 1.512c2.247 0.754 4.199 2.253 5.693 4.064l1.283-1.028c0 0 1.626 1.582 2.521 3.959 0.976 2.59 0.814 5.399 0.814 5.399l-1.686 0.020c-0.050 2.075-0.516 4.159-1.528 5.983l1.458 0.934c0 0-1.632 2.773-4.004 4.601-2.664 2.053-4.954 2.313-4.954 2.313l-0.468-1.44c-1.152 0.379-2.366 0.501-3.57 0.559-0.805-0.020-1.058-0.010-1.991-0.151-0.412-0.062-0.816-0.167-1.224-0.25l-0.336 1.27c0 0-3.191-0.914-5.554-2.754-2.653-2.066-3.674-4.136-3.674-4.136l1.314-0.799c-1.073-1.866-1.549-3.992-1.603-6.13l-1.621-0.019c0 0-0.269-2.858 0.601-5.218 0.976-2.65 2.521-3.936 2.521-3.936l-0-0 1.281 1.003c1.459-1.955 3.476-3.25 5.691-4.187l-0.557-1.57c0 0 2.45-1.094 4.991-1.094l-0-0zM14.735 3.337l-0.485 0.020c-0.822 0.067-1.64 0.186-2.446 0.358l0.377 1.597c-2.958 0.605-5.719 2.64-7.228 5.248l-1.246-0.748c0 0-0.866 1.336-1.225 2.438s-0.513 2.693-0.513 2.693l1.443 0.162c-0.096 0.951-0.070 0.503-0.091 1.344 0.068 1.188 0.004 0.605 0.188 1.749 0.002 0.016 0 0.008 0.004 0.026 0.213 1.805 0.954 3.469 1.994 4.941l-1.071 0.544c0 0 1.127 1.571 2.484 2.617 1.364 1.051 3.239 1.736 3.239 1.736l0.376-0.992c1.332 0.563 2.784 0.806 4.226 0.818 1.581-0.040 3.009-0.261 4.509-0.845l0.56 1.027c0 0 1.685-0.603 2.985-1.719 1.306-1.122 2.663-2.641 2.663-2.641l-1.29-0.803 0.324-0.517c0.006-0.009 0.003-0.005 0.007-0.011 0.184-0.295 0.092-0.131 0.269-0.495 0.329-0.605 0.185-0.305 0.435-0.896 0.203-0.417 0.132-0.228 0.236-0.558 0.142-0.337 0.012-0.024 0.306-0.97 0.214-0.678 0.118-0.295 0.251-1.156 0.025-0.122 0.016-0.061 0.028-0.181 0.169-1.093 0.115-0.535 0.156-1.673-0.021-0.835 0.005-0.393-0.089-1.323l1.463-0.165c0 0-0.125-1.587-0.509-2.68s-1.229-2.45-1.229-2.45l-1.255 0.755c-1.46-2.689-4.353-4.637-7.298-5.284l0.372-1.586c-0.958-0.221-1.934-0.353-2.917-0.378zM14.823 6.399l0.319 0.006c0.983 0.058 1.971 0.227 2.897 0.569l-0.445 1.258c1.798 0.563 3.389 1.765 4.443 3.305l0.941-0.721c0 0 0.915 1.236 1.351 2.576 0.475 1.46 0.419 2.922 0.419 2.922l-1.168-0.026 0.004 0.144c0.002 1.436-0.365 2.842-1.057 4.102l1.033 0.543c0 0-0.876 1.643-2.255 2.824-1.475 1.263-3.266 1.846-3.266 1.846l-0.363-1.14c-0.914 0.336-1.881 0.451-2.851 0.475-0.772-0.014-1.56-0.079-2.301-0.307l-0.309 1.202c0 0-2.016-0.513-3.541-1.702-1.561-1.217-2.423-2.691-2.423-2.691l1.092-0.652c-0.853-1.366-1.237-2.906-1.277-4.499l0.005-0.181-1.357 0.018c0 0-0.017-1.543 0.443-2.876 0.5-1.452 1.375-2.622 1.375-2.622l1.051 0.813c1.062-1.565 2.668-2.797 4.496-3.358l-0.469-1.297c1.041-0.319 2.124-0.507 3.215-0.529zM14.789 13.127v0c-1.784 0-3.231 1.428-3.231 3.19s1.446 3.19 3.231 3.19c1.784 0 3.231-1.428 3.231-3.19s-1.446-3.19-3.231-3.19z"></path>
</svg>
