<!-- Generated by IcoMoon.io -->
<svg version="1.1" xmlns="http://www.w3.org/2000/svg" width="27" height="32" viewBox="0 0 27 32">
<title>por</title>
<path fill="#444" d="M6.799 14.409c-0.061 0.357-0.089 0.724-0.089 1.095 0 0.712 0.11 1.405 0.323 2.062l1.435-0.576c-0.176-0.516-0.274-1.070-0.274-1.649 0-0.187 0.012-0.372 0.032-0.554l-1.427-0.378zM8.259 11.24c-0.611 0.732-1.069 1.597-1.323 2.546l1.39 0.41c0.176-0.761 0.522-1.459 0.997-2.047l-1.064-0.909zM9.694 11.739c0.686-0.683 1.565-1.171 2.551-1.375l-0.554-1.298c-1.15 0.297-2.179 0.897-3.001 1.707l1.003 0.966zM7.258 18.166c0.329 0.752 0.799 1.445 1.399 2.042 0.404 0.403 0.85 0.749 1.329 1.035l0.816-1.465c-0.937-0.522-1.689-1.332-2.142-2.309l-1.402 0.698zM10.6 21.562c0.856 0.39 1.79 0.594 2.759 0.594 0.121 0 0.242-0.003 0.363-0.009l-0.219-1.729c-0.075 0.003-0.15 0.003-0.227 0.003-0.669 0-1.309-0.13-1.895-0.366l-0.781 1.507zM14.31 22.090c1.292-0.185 2.494-0.741 3.477-1.62l-1.225-1.251c-0.697 0.59-1.557 0.994-2.5 1.144l0.248 1.727zM18.185 20.083c0.802-0.842 1.355-1.86 1.629-2.964l-1.692-0.248c-0.242 0.776-0.669 1.47-1.225 2.036l1.289 1.177zM19.921 16.6c0.058-0.358 0.089-0.724 0.089-1.096 0-0.96-0.205-1.874-0.574-2.702l-1.369 0.842c0.187 0.531 0.291 1.101 0.291 1.695 0 0.38-0.043 0.749-0.121 1.107l1.684 0.153zM19.13 12.206c-0.643-1.128-1.608-2.045-2.771-2.636l-0.709 1.278c0.952 0.502 1.722 1.298 2.194 2.263l1.286-0.905zM15.866 9.346c-0.775-0.317-1.62-0.49-2.508-0.49-0.363 0-0.723 0.029-1.072 0.086l0.504 1.34c0.162-0.014 0.323-0.023 0.485-0.023 0.703 0 1.372 0.141 1.98 0.401l0.611-1.315zM1.417 12.987c-0.159 0.788-0.242 1.6-0.242 2.437 0 1.459 0.251 2.88 0.738 4.212l4.405-1.788c-0.231-0.72-0.355-1.482-0.355-2.26 0-0.464 0.046-0.92 0.13-1.364l-4.676-1.237zM4.032 7.558c-1.115 1.332-1.954 2.906-2.424 4.627l4.639 1.39c0.3-1.044 0.824-1.989 1.52-2.785l-3.734-3.232zM8.204 10.329c0.899-0.868 2.021-1.508 3.266-1.828l-1.966-4.697c-1.882 0.637-3.557 1.721-4.907 3.125l3.607 3.4zM2.297 20.565c0.599 1.298 1.43 2.494 2.47 3.535 0.77 0.77 1.621 1.425 2.54 1.952l2.306-4.131c-0.545-0.317-1.050-0.703-1.508-1.162-0.664-0.664-1.182-1.433-1.546-2.273l-4.264 2.079zM8.048 26.45c1.658 0.813 3.494 1.242 5.394 1.242 0.314 0 0.629-0.011 0.94-0.035l-0.577-4.774c-0.176 0.011-0.351 0.017-0.53 0.017-1.064 0-2.096-0.228-3.036-0.658l-2.191 4.207zM15.086 27.586c2.473-0.332 4.774-1.405 6.637-3.108l-3.483-3.521c-1.075 0.998-2.405 1.638-3.837 1.857l0.683 4.772zM22.319 23.889c1.591-1.667 2.661-3.702 3.125-5.911l-5.036-0.773c-0.277 1.24-0.877 2.385-1.753 3.336l3.664 3.347zM25.594 17.128c0.075-0.559 0.115-1.131 0.115-1.704 0-2.047-0.504-3.979-1.392-5.674l-4.402 2.773c0.432 0.932 0.672 1.969 0.672 3.065 0 0.36-0.026 0.717-0.075 1.067l5.083 0.473zM23.856 8.945c-1.148-1.839-2.771-3.356-4.694-4.374l-2.526 4.524c1.226 0.637 2.252 1.611 2.95 2.803l4.27-2.952zM18.295 4.155c-1.488-0.646-3.129-1.003-4.853-1.003-1.095 0-2.157 0.144-3.165 0.416l1.813 4.803c0.387-0.063 0.782-0.095 1.185-0.095 1.003 0 1.96 0.205 2.831 0.571l2.188-4.692zM13.358 2.656c3.557 0 6.907 1.393 9.43 3.916s3.912 5.87 3.912 9.428c0 3.564-1.387 6.917-3.909 9.437-2.517 2.521-5.87 3.907-9.433 3.907s-6.913-1.386-9.433-3.907c-2.52-2.523-3.906-5.873-3.906-9.437 0-7.358 5.982-13.344 13.34-13.344z"></path>
</svg>
