<!-- Generated by IcoMoon.io -->
<svg version="1.1" xmlns="http://www.w3.org/2000/svg" width="28" height="32" viewBox="0 0 28 32">
<title>psalvat05</title>
<path fill="#444" d="M5.796 0.913c0.755-0.335 2.119-0.057 1.872 1.033 2.22 2.174 3.317 4.339 3.193 7.762 1.426 0.248 0.789-2.010 0.546-2.665-0.412-2.086 0.632-3.952 2.167-3.884 7.398-0.673 10.925-1.264 14.308-1.403 0.164 1.831-2.111 3.024-2.546 4.72-0.516 1.34-2.776 1.499-4.369 1.727-1.403 1.573-2.372 3.304-4.010 4.885 1.112 0.463 1.719 1.198 2.958 1.651 2.255-0.114 2.865 2.002 2.672 3.947-1.082 0.913 0.726 2.035 1.224 2.131 0.394 0.508 0.642 2.536-0.609 2.313-1.115 0.207-1.871-0.602-1.899-1.563-1.069-0.195-1.064-1.477-1.019-2.366-1.201 0.9-0.248 3.153 0.448 3.289 0.89 0.726 1.568 2.081 1.593 3.406 1.052 0.005 1.095 1.522 1.31 2.549 0.938 0.248 0.233 2.372-0.096 2.7-1.729 0.589-2.002-2.399-2.731-3.658-0.319-3.929-6.081-2.554-6.371-6.392-1.608-1.067-5.512-0.442-6.69-2.258-1.504-0.852-3.13-2.89-4.462-3.686-0.147 1.863 1.583 2.334 1.33 4.371-1.36 0.26-2.296-1.183-2.495-2.048-1.418-1.145-1.373-4.488-0.743-6.589 1.216-0.475 1.722 0.989 2.47 0.372 1.375-1.431 1.368-5.062-1.16-5.087-1.236 0.698-2.763 0.043-2.392-1.474 1.305-0.963 2.002-1.927 3.886-2.354 1.115-0.253 0.725-1.033 1.618-1.43z"></path>
</svg>
