<!-- Generated by IcoMoon.io -->
<svg version="1.1" xmlns="http://www.w3.org/2000/svg" width="31" height="32" viewBox="0 0 31 32">
<title>psega</title>
<path fill="#444" d="M23.506 4.707c3.999 0.452 6.349 2.366 7.105 8.29h-4.014c-0.259-1.563-0.783-4.051-3.339-4.173-2.263-0.108-3.216 3.598-3.216 7.248s1.086 7.090 3.216 7.207c2.226 0.122 2.835-2.462 3.235-3.877h4.031c-0.422 5.383-3.061 8.070-7.961 7.882-4.339-0.276-6.622-4.534-7.435-8.328-0.069 0.733-0.256 1.447-0.456 2.154q-0.644 2.090-1.633 3.31-1.195 1.22-2.595 1.837t-3.602 0.617h-6.83v-21.806h6.635q2.516 0 3.797 0.558 1.487 0.558 2.565 1.882t1.692 3.436c0.202 0.69 0.335 1.398 0.419 2.112 0.728-3.803 3.096-8.187 7.441-8.347h0.942zM4.061 8.941v13.989l2.303 0.022q0.947-0.081 1.733-0.408t1.288-0.989q0.502-0.414 0.831-1.842t0.329-3.763q0-2.425-0.337-3.823-0.337-1.192-1.048-1.995t-1.73-1.056q0.042-0.112-2.145-0.112l-1.225-0.022z"></path>
</svg>
