<!-- Generated by IcoMoon.io -->
<svg version="1.1" xmlns="http://www.w3.org/2000/svg" width="29" height="32" viewBox="0 0 29 32">
<title>psum</title>
<path fill="#444" d="M21.496 20.589c0 4.373-4.847 6.694-8.608 7.081-1.307 0.134-2.983 0.278-4.269-0.011-0.429-0.095-0.82-0.215-1.175-0.352-0.108-0.045-0.158-0.099-0.158-0.161l-0.519-4.689c0-0.104 0.054-0.158 0.161-0.158l0.773 0.415c0.108 0.033 0.593 2.852 2.899 3.4 1.494 0.358 3.167 0 4.572-0.492 1.679-0.594 3.368-1.814 3.368-3.779 0-1.802-1.199-3.264-3.6-4.388-3.003-1.399-7.23-2.893-7.23-6.875 0-4.295 4.244-6.229 7.958-6.368 1.346-0.048 2.906-0.102 4.227 0.167 0.107 0.021 0.161 0.074 0.161 0.16l0.354 4.988c0 0.107-0.050 0.161-0.158 0.161l-0.909-0.576c-0.108 0-0.761-1.87-1.047-2.399-1.244-2.288-4.766-1.342-6.44-0.075-1.542 1.17-1.593 3.541-0.498 4.955 2.356 3.045 7.076 2.753 9.279 6.061 0.549 0.823 0.859 1.942 0.859 2.935zM24.154 26.021l-2.059-2.812c-0.143 0.325-0.313 0.638-0.501 0.936l2.56 1.876zM11.915 30l0.358-1.119c-0.116 0.009-0.235 0.021-0.355 0.027l-0.003 1.092zM20.568 28.628l-0.808-2.455c-0.203 0.161-0.412 0.317-0.626 0.466l1.434 1.989zM16.351 30l-0.009-1.95c-0.185 0.065-0.37 0.128-0.557 0.188l0.567 1.762zM4.109 5.976l2.55 3.484c0.074-0.48 0.191-0.934 0.354-1.358l-2.905-2.127zM19.915 10.833l-1.017-0.648c-0.102-0.039-0.188-0.092-0.269-0.164l-0.331 0.244 0.143-0.441c-0.224-0.295-0.409-0.761-0.671-1.42-0.092-0.233-0.202-0.507-0.298-0.74l-1.152 1.593 0.012-2.708c-0.186-0.047-0.4-0.080-0.663-0.080-0.257 0-0.518 0.033-0.781 0.080l-0.758 2.363-0.618-1.924c-0.379 0.173-0.712 0.373-0.969 0.564-0.308 0.232-0.489 0.525-0.606 0.808l0.003 0.898-0.17-0.233c-0.072 0.666 0.11 1.375 0.489 1.868 0.948 1.226 2.449 1.843 4.036 2.493 1.855 0.764 3.958 1.626 5.294 3.633 0.233 0.352 0.421 0.754 0.582 1.175l5.96 0.024-6.915-2.219 6.915-2.216-7.26 0.027 5.891-4.245-6.897 2.27 0.776-1.064c-0.122 0.038-0.254 0.063-0.394 0.063h-0.334zM21.556 9.487v0.039l2.599-3.55-2.708 1.984 0.108 1.485 0.002 0.042zM22.612 21.070l4.152 1.366-4.254-3.067c0.078 0.406 0.131 0.818 0.131 1.22 0 0.164-0.021 0.319-0.030 0.48zM8.864 22.54l1.104-0.809-0.635 1.933c0.259 0.489 0.608 0.922 1.097 1.172l1.513-2.097-0.009 2.372c0.492-0.003 1.038-0.078 1.617-0.212l0.582-1.813 0.486 1.509c0.060-0.018 0.117-0.033 0.176-0.053 0.376-0.134 0.993-0.4 1.533-0.812l-0.006-0.99 0.438 0.606c0.37-0.396 0.635-0.892 0.635-1.503 0-0.486 0-1.972-2.941-3.35-0.278-0.131-0.57-0.263-0.868-0.397-2.807-1.268-6.589-2.983-6.983-6.851l-5.1-1.68 5.891 4.245-7.26-0.027 6.911 2.216-6.911 2.219 7.26-0.030-5.891 4.248 6.896-2.27-0.85 1.164 0.656 0.355c0.418 0.199 0.567 0.584 0.659 0.856zM20.568 3.369l-0.030 0.042c0.003 0.003 0.009 0.003 0.012 0.006l0.017-0.048zM16.351 2l-0.34 1.053c0.113-0.003 0.221-0.006 0.334-0.011l0.006-1.042zM4.109 26.021l1.757-1.285-0.105-0.97-1.652 2.255zM11.915 2l0.006 1.772c0.167-0.060 0.338-0.12 0.507-0.17l-0.513-1.602zM7.698 28.628l0.018-0.024h-0.008l-0.009 0.024zM9.103 5.32c-0.206 0.167-0.403 0.343-0.588 0.531l-0.817-2.482 1.405 1.951z"></path>
</svg>
