<!-- Generated by IcoMoon.io -->
<svg version="1.1" xmlns="http://www.w3.org/2000/svg" width="32" height="32" viewBox="0 0 32 32">
<title>ptg</title>
<path fill="#444" d="M9.899 9.248c0.848-0.164 1.725 0.051 2.482 0.438 0.707 0.34 1.313 0.885 1.723 1.553 0.452 0.746 0.642 1.626 0.641 2.491 0.015 1.117-0.244 2.217-0.585 3.274-0.369 1.105-0.85 2.17-1.392 3.201-0.477 0.895-0.998 1.767-1.575 2.602-1.374-0.079-2.744-0.265-4.089-0.56-1.138-0.244-2.258-0.582-3.326-1.045-0.908-0.41-1.788-0.921-2.496-1.632-0.629-0.625-1.095-1.435-1.228-2.318-0.009-0.068-0.022-0.135-0.032-0.202-0.028-0.314-0.031-0.631-0-0.945 0.012-0.070 0.026-0.139 0.035-0.209 0.071-0.429 0.181-0.855 0.361-1.252 0.291-0.669 0.795-1.25 1.442-1.594 0.744-0.406 1.612-0.522 2.449-0.485 0.691 0.024 1.378 0.148 2.039 0.353 0.207-0.568 0.492-1.107 0.826-1.61 0.248-0.383 0.541-0.736 0.867-1.055 0.517-0.488 1.151-0.877 1.858-1.004zM14.4 10.494c0.33 0.418 0.585 0.894 0.743 1.403 1.429-0.098 2.867-0.080 4.29 0.090 1.353 0.164 2.691 0.464 3.978 0.914 1.832 0.641 3.564 1.586 5.064 2.82 0.706 0.584 1.37 1.224 1.932 1.948-0.452-0.693-0.98-1.335-1.536-1.947-0.64-0.708-1.36-1.34-2.117-1.919-1.67-1.254-3.59-2.163-5.604-2.708-0.732-0.21-1.481-0.351-2.232-0.469-1.494-0.216-3.015-0.282-4.519-0.133zM15.263 12.523c0.179 1.322 0.043 2.68-0.362 3.95 1.189-0.38 2.407-0.674 3.645-0.84 1.428-0.185 2.885-0.204 4.31 0.020 1.172 0.185 2.321 0.53 3.392 1.045 1.664 0.792 3.128 1.981 4.288 3.41 0.546 0.678 1.037 1.403 1.424 2.184 0.052 0.091 0.051 0.199 0.014-0.038-0.433-1.454-1.084-2.849-1.978-4.076-1.183-1.638-2.793-2.945-4.596-3.845-2.21-1.108-4.667-1.654-7.122-1.821-1.003-0.060-2.012-0.071-3.014 0.011zM18.248 16.25c-1.224 0.2-2.43 0.519-3.585 0.974-0.295 0.852-0.646 1.685-1.050 2.491 0.916-0.654 1.92-1.186 2.976-1.577 1.294-0.482 2.663-0.751 4.040-0.832 1.43-0.082 2.869 0.024 4.276 0.291 1.019 0.197 2.026 0.468 2.995 0.844-0.509-0.413-1.056-0.78-1.634-1.089-1.158-0.625-2.436-1.015-3.738-1.19-1.42-0.19-2.866-0.138-4.279 0.089z"></path>
</svg>
