<!-- Generated by IcoMoon.io -->
<svg version="1.1" xmlns="http://www.w3.org/2000/svg" width="23" height="32" viewBox="0 0 23 32">
<title>ptk</title>
<path fill="#444" d="M4.155 21.218c0 0-4.153 0.981-4.153 5.060s4.304 3.625 4.982 3.172c0.681-0.453 1.511-1.588 2.871-1.437 1.19 0.133 2.374 0.302 3.573 0.191 0.66-0.058 1.326-0.191 1.931-0.472 0.89-0.416 1.668-1.202 2.719-0.743 0.49 0.215 0.78 0.734 1.286 0.906 0.555 0.189 1.249-0.028 1.671-0.41 0.909-0.83 1.064 0.804 1.797 0.65 1.517-0.324 2.22-2.137 1.483-3.468-1.171-2.115-4.859-2.313-6.922-1.952-1.243 0.219-2.575 0.493-3.762 0.919-2.944 1.055-10.045 1.433-7.477-2.418zM6.351 4.3c0.484 0.077 1.125-0.222 1.64-0.222 0.669-0.006 1.344 0.086 1.98 0.299 1.812 0.604 2.719 0.829 5.288 0.453 2.569-0.38 5.513 0.906 5.513 3.247s-4.757 2.871-7.101 3.398c-2.34 0.53-4.607 2.266-5.513 3.549s-0.377 2.115 2.34 1.283c1.387-0.422 2.861-0.583 4.304-0.66 1.218-0.065 2.624-0.096 3.394 1.061 1.286 1.93-2.43 2.571-3.546 2.482-1.378-0.11-2.763-0.058-4.135 0.108-1.329 0.16-2.482 0.654-3.753 1.024-1.307 0.385-2.491 0.034-3.256-1.092-0.712-1.045-1.014-2.621-0.259-3.753 0.339-0.508 0.786-0.935 1.255-1.323 0.959-0.801 2.059-1.44 3.167-2.010 0.484-0.249 0.974-0.484 1.467-0.715 0.21-0.099 2.085-0.641 1.527-1.181-0.336-0.324-1.591 0.102-1.977 0.151-1.064 0.13-2.261 0.318-3.324 0.093-2.489-0.522-3.33-3.66-3.21-5.813 0.031-0.561 0.108-2.417 1.021-2.417 0.663 0 1.265 0.382 1.773 0.777 0.42 0.333 0.774 1.095 1.329 1.246 0.024 0.006 0.049 0.009 0.074 0.016z"></path>
</svg>
