<!-- Generated by IcoMoon.io -->
<svg version="1.1" xmlns="http://www.w3.org/2000/svg" width="32" height="32" viewBox="0 0 32 32">
<title>pxbox</title>
<path fill="#444" d="M7.855 4.953c0.907-0.021 1.847 0.1 2.647 0.523 0.944 0.499 1.245 0.737 1.299 0.768 0.119 0.074 0.259 0.099 0.393 0.132 0.457 0.094 0.924 0.132 1.388 0.168 1.15 0.080 2.303 0.102 3.455 0.1 0.814-0.008 1.628-0.018 2.439-0.086 0.194-0.022 0.401-0.016 0.58-0.098 0.517-0.238 0.901-0.495 1.358-0.731 0.359-0.177 0.522-0.342 1.128-0.507 1.381-0.377 2.843-0.198 4.188 0.311 0.721 0.273 1.407 0.66 1.982 1.177 0.060 0.056 0.127 0.11 0.161 0.188 0.451 0.883 0.78 1.822 1.085 2.764 0.348 1.088 0.645 2.192 0.922 3.3 0.256 1.037 0.492 2.079 0.706 3.126 0.221 1.054 0.319 2.129 0.365 3.203 0.050 1.214 0.054 2.422-0.018 3.635-0.022 0.33 0.015 0.317-0.113 1.063-0.075 0.438-0.235 0.796-0.408 1.208-0.165 0.39-0.368 0.769-0.64 1.097-0.237 0.282-0.532 0.528-0.884 0.649-0.394 0.138-0.792 0.122-1.192 0.072-0.362-0.045-0.734-0.207-1.056-0.348-0.435-0.194-0.839-0.449-1.232-0.717-0.607-0.42-1.187-0.88-1.74-1.369-0.594-0.627-1.25-1.199-1.981-1.661-0.73-0.457-1.531-0.831-2.389-0.957-0.61-0.204-1.252-0.287-1.89-0.351-0.864-0.080-1.731-0.107-2.598-0.103-0.488-0.003-0.976 0.006-1.463 0.026-1.009 0.020-2.020 0.146-2.991 0.425-0.389 0.114-0.775 0.248-1.137 0.432-0.261 0.162-0.512 0.339-0.765 0.512-1 0.701-1.904 1.523-2.82 2.333-0.306 0.27-0.484 0.415-0.638 0.521-0.531 0.341-1.024 0.613-1.594 0.882-0.19 0.083-0.405 0.164-0.608 0.212-0.501 0.138-1.041 0.207-1.549 0.064-0.411-0.112-0.765-0.377-1.031-0.704-0.377-0.465-0.619-1.019-0.863-1.561-0.188-0.464-0.244-0.967-0.29-1.462-0.118-1.57 0.009-3.144 0.122-4.71 0.058-0.53 0.164-1.053 0.261-1.576 0.301-1.549 0.637-3.091 0.976-4.631 0.125-0.564 0.24-1.132 0.422-1.681 0.426-1.313 1.044-2.559 1.777-3.727 0.066-0.095 0.117-0.202 0.198-0.286 0.693-0.576 1.481-1.049 2.341-1.328 0.548-0.181 1.122-0.279 1.699-0.293zM25.723 6.657c-0.224 0.027-0.441 0.118-0.616 0.261-0.244 0.195-0.408 0.489-0.444 0.8-0.040 0.314 0.048 0.644 0.243 0.894 0.225 0.299 0.596 0.481 0.971 0.475 0.373 0.005 0.742-0.18 0.967-0.478 0.2-0.259 0.287-0.601 0.236-0.923-0.044-0.308-0.213-0.595-0.46-0.784-0.25-0.197-0.581-0.283-0.896-0.245zM5.964 8.171c-0.721 0.092-1.38 0.557-1.71 1.204-0.237 0.449-0.308 0.98-0.214 1.477 0.097 0.515 0.38 0.992 0.786 1.323 0.349 0.289 0.787 0.469 1.239 0.508 0.563 0.053 1.144-0.113 1.59-0.461 0.343-0.261 0.606-0.625 0.752-1.030 0.193-0.535 0.177-1.143-0.049-1.665-0.212-0.5-0.611-0.917-1.101-1.152-0.398-0.194-0.854-0.263-1.293-0.205zM23.036 9.259c-0.302 0.062-0.576 0.244-0.751 0.497-0.168 0.241-0.244 0.543-0.209 0.835 0.032 0.307 0.189 0.597 0.425 0.795 0.268 0.23 0.64 0.33 0.989 0.27 0.319-0.050 0.614-0.237 0.797-0.502 0.195-0.274 0.266-0.632 0.193-0.96-0.074-0.357-0.32-0.673-0.648-0.833-0.244-0.123-0.53-0.155-0.797-0.102zM28.255 9.26c-0.296 0.061-0.566 0.237-0.74 0.483-0.17 0.236-0.25 0.534-0.222 0.823 0.026 0.311 0.18 0.608 0.416 0.81 0.269 0.237 0.647 0.341 1 0.28 0.387-0.060 0.733-0.323 0.9-0.676 0.197-0.406 0.144-0.92-0.137-1.274-0.276-0.367-0.77-0.544-1.217-0.446zM25.727 11.927c-0.266 0.037-0.519 0.164-0.706 0.358-0.249 0.252-0.375 0.618-0.338 0.97 0.029 0.329 0.202 0.642 0.464 0.843 0.248 0.196 0.576 0.285 0.889 0.248 0.342-0.036 0.664-0.228 0.86-0.511 0.179-0.254 0.254-0.578 0.206-0.884-0.049-0.348-0.261-0.666-0.559-0.851-0.241-0.152-0.536-0.213-0.817-0.173zM10.695 13.483c-0.33 0.034-0.653 0.128-0.95 0.276-0.694 0.34-1.234 0.98-1.45 1.723-0.166 0.565-0.151 1.183 0.045 1.738 0.136 0.39 0.363 0.748 0.653 1.042 0.568 0.579 1.395 0.891 2.204 0.827 0.857-0.055 1.673-0.532 2.143-1.251 0.481-0.712 0.599-1.65 0.32-2.461-0.257-0.771-0.868-1.415-1.624-1.711-0.423-0.17-0.888-0.229-1.341-0.183zM20.695 14.108c-0.621 0.062-1.207 0.397-1.578 0.899-0.331 0.438-0.489 0.999-0.443 1.545 0.052 0.725 0.483 1.407 1.11 1.772 0.613 0.367 1.402 0.415 2.056 0.127 0.645-0.275 1.145-0.866 1.304-1.549 0.175-0.702-0.012-1.481-0.491-2.024-0.475-0.557-1.232-0.854-1.959-0.77z"></path>
</svg>
