<!-- Generated by IcoMoon.io -->
<svg version="1.1" xmlns="http://www.w3.org/2000/svg" width="32" height="32" viewBox="0 0 32 32">
<title>pz2</title>
<path fill="#444" d="M22.032 17.946c0 3.339-2.707 6.045-6.045 6.045s-6.045-2.707-6.045-6.045c0-3.339 2.707-6.045 6.045-6.045s6.045 2.707 6.045 6.045zM24.142 21.455l-0.381 5.716h6.578l1.205-10.503c-3.395 0.813-5.252 2.803-7.402 4.787zM7.647 18.669c-2.252-1.695-4.926-3.444-7.512-4.574l-0.124-1.083 8.959-0.124c0 0-0.728 0.728-1.125 2.317s-0.198 3.464-0.198 3.464zM7.832 21.455l0.381 5.716h-6.578l-1.205-10.503c3.395 0.813 5.252 2.803 7.402 4.787zM11.872 24.686h-1.591v2.501h11.396v-2.501h-1.591c-1.115 0.868-2.546 1.39-4.107 1.39s-2.992-0.522-4.107-1.39zM24.353 18.656c2.252-1.695 4.926-3.444 7.512-4.574l0.124-1.083-8.959-0.124c0 0 0.728 0.728 1.125 2.317s0.198 3.464 0.198 3.464zM24.115 4.814c0.679 1.765 1.096 3.652 1.094 5.548l6.425 0-3.719-5.548-3.8-0zM16.713 4.814c0.103 1.153 0.132 2.311 0.137 3.468-0.003 0.693-0.012 1.387-0.048 2.080l6.228 0c-0.010-1.162-0.169-2.232-0.489-3.351-0.222-0.748-0.463-1.492-0.802-2.197l-5.025-0zM9.768 4.813c-0.34 0.703-0.585 1.449-0.802 2.197-0.294 1.093-0.508 2.215-0.49 3.351l5.906 0c-0.035-0.693-0.046-1.386-0.048-2.079 0.005-1.157 0.036-2.315 0.137-3.469l-4.703-0zM3.793 4.813l-3.719 5.548 6.222 0c0.005-1.897 0.413-3.781 1.094-5.548l-3.597-0z"></path>
</svg>
