<!-- Generated by IcoMoon.io -->
<svg version="1.1" xmlns="http://www.w3.org/2000/svg" width="32" height="32" viewBox="0 0 32 32">
<title>rakdos</title>
<path fill="#444" d="M20.513 3.6c-0.653 0.887-1.092 1.991-0.982 3.107 0.083 0.855 0.526 1.625 1.068 2.272 0.634 0.779 1.418 1.452 1.895 2.349 0.458 0.847 0.453 1.846 0.402 2.781 0.518-0.273 0.929-0.715 1.295-1.165 0.79-1.021 1.205-2.352 1.034-3.641-0.101-0.866-0.466-1.679-0.55-2.548-0.044-0.426 0.026-0.854 0.162-1.258 0.154 0.893 0.548 1.778 1.253 2.37 0.385 0.313 0.782 0.612 1.134 0.963 0.692 0.67 1.244 1.513 1.456 2.461 0.121 0.517 0.128 1.054 0.073 1.581-0.329-0.626-0.777-1.256-1.468-1.507 0.152 1.374 0.036 2.847-0.689 4.057 0.583 0.351 1.115 0.791 1.533 1.33 0.43 0.541 0.727 1.17 1.024 1.789 0.279 0.578 0.591 1.176 1.123 1.562 0.496 0.371 1.119 0.506 1.723 0.57-0.375 0.502-0.974 0.786-1.579 0.895-0.617 0.109-1.277 0.11-1.86-0.147-0.785-0.33-1.391-0.999-2.225-1.227-0.499-0.137-1.059-0.15-1.526 0.101-0.484 0.245-0.831 0.746-0.866 1.291-0.041 0.452 0.14 0.886 0.369 1.265-0.325 0.329-0.804 0.4-1.245 0.417 0.032 0.648 0.182 1.306 0.544 1.854 0.519 0.775 1.132 1.493 1.854 2.086-0.848 0.189-1.749 0.103-2.553-0.222-0.681 0.771-1.681 1.154-2.651 1.413 0.409-0.451 0.785-0.958 0.957-1.55 0.125-0.422 0.103-0.903-0.129-1.284-0.232-0.377-0.703-0.549-1.13-0.507-0.411 0.062-0.742 0.439-0.72 0.862-0.225-0.155-0.462-0.369-0.454-0.667 0.040-0.422 0.353-0.797 0.285-1.235-0.046-0.222-0.316-0.317-0.506-0.212-0.592 0.267-0.956 0.936-0.916 1.578 0.011 0.22 0.078 0.432 0.145 0.641-0.368-0.284-0.661-0.692-0.691-1.169-0.237 0.443-0.483 0.884-0.632 1.367-0.121-0.531-0.201-1.074-0.182-1.62 0.001-3.531 0.008-7.062 0.003-10.594-0.003-0.341 0.082-0.721 0.339-0.959 0.661-0.171 1.327 0.041 1.981 0.139 0.105-0.331 0.078-0.698-0.118-0.989-0.755-1.282-1.167-2.786-1.021-4.277 0.056-0.927 0.39-1.832 0.955-2.568 0.551-0.732 1.278-1.322 2.083-1.753zM21.912 17.578c-0.834 0.22-1.664 0.475-2.441 0.853-0.423 0.211-0.844 0.455-1.15 0.825 0.228 0.206 0.434 0.437 0.587 0.704 0.122 0.193 0.24 0.436 0.484 0.492 0.345 0.084 0.649-0.156 0.915-0.34 0.51-0.401 0.995-0.854 1.36-1.395 0.145-0.361 0.159-0.761 0.245-1.139zM10.088 17.578c0.864 0.228 1.725 0.492 2.526 0.895 0.392 0.201 0.78 0.437 1.064 0.782-0.227 0.206-0.434 0.436-0.585 0.704-0.124 0.193-0.241 0.437-0.485 0.493-0.26 0.072-0.509-0.071-0.721-0.205-0.464-0.309-0.868-0.702-1.239-1.116-0.16-0.192-0.35-0.383-0.392-0.638-0.063-0.304-0.113-0.61-0.169-0.916zM11.487 3.6c0.585 0.797 0.997 1.758 0.999 2.76 0.007 0.688-0.225 1.361-0.59 1.94-0.57 0.913-1.411 1.611-2.043 2.475-0.309 0.422-0.556 0.899-0.662 1.415-0.127 0.631-0.129 1.28-0.088 1.92-0.294-0.135-0.529-0.363-0.765-0.578-1.13-1.070-1.77-2.677-1.563-4.233 0.099-0.822 0.427-1.595 0.536-2.414 0.065-0.467 0.003-0.942-0.149-1.386-0.161 0.955-0.609 1.898-1.398 2.489-0.811 0.62-1.588 1.333-2.059 2.255-0.426 0.802-0.568 1.733-0.46 2.631 0.329-0.626 0.777-1.256 1.468-1.507-0.152 1.374-0.036 2.848 0.689 4.057-0.832 0.489-1.535 1.192-2.006 2.035-0.474 0.794-0.737 1.726-1.392 2.402-0.522 0.539-1.28 0.745-2.006 0.813 0.649 0.846 1.826 1.055 2.828 0.927 1.123-0.157 1.852-1.182 2.938-1.431 0.47-0.111 0.988-0.108 1.421 0.125 0.486 0.245 0.834 0.748 0.87 1.293 0.040 0.451-0.14 0.885-0.369 1.264 0.324 0.329 0.803 0.4 1.244 0.417-0.032 0.649-0.183 1.309-0.546 1.856-0.519 0.774-1.131 1.491-1.852 2.083 0.848 0.188 1.749 0.103 2.553-0.222 0.681 0.771 1.681 1.154 2.652 1.413-0.421-0.463-0.806-0.986-0.971-1.598-0.118-0.439-0.079-0.946 0.199-1.318 0.352-0.449 1.121-0.612 1.55-0.182 0.178 0.154 0.231 0.392 0.243 0.618 0.225-0.155 0.462-0.369 0.454-0.667-0.040-0.424-0.356-0.8-0.284-1.239 0.044-0.196 0.278-0.307 0.46-0.224 0.5 0.194 0.842 0.692 0.938 1.208 0.069 0.347-0.008 0.698-0.122 1.027 0.368-0.284 0.661-0.692 0.691-1.17 0.237 0.443 0.483 0.885 0.632 1.367 0.101-0.468 0.189-0.942 0.182-1.422-0.001-3.599-0.008-7.196-0.004-10.794 0.009-0.334-0.085-0.681-0.306-0.937-0.661-0.213-1.351 0.025-2.013 0.119-0.087-0.298-0.095-0.631 0.072-0.904 0.459-0.794 0.825-1.653 0.986-2.561 0.16-0.904 0.146-1.845-0.071-2.739-0.394-1.491-1.555-2.671-2.887-3.385z"></path>
</svg>
