<!-- Generated by IcoMoon.io -->
<svg version="1.1" xmlns="http://www.w3.org/2000/svg" width="28" height="32" viewBox="0 0 28 32">
<title>rex</title>
<path fill="#444" d="M13.867 2.133c7.658 0 13.867 6.208 13.867 13.867s-6.208 13.867-13.867 13.867c-3.89 0-7.407-1.602-9.925-4.182 0.371 0.112 0.767 0.113 1.117 0.055 0.379-0.063 0.71-0.201 0.771-0.199 0.128 0.003 0.454 0.134 0.599 0.091 0.288-0.086 0.165-0.26 0.378-0.447 0.022-0.019 0.068-0.028 0.116-0.034l0.022-0.003c0.040-0.005 0.079-0.009 0.102-0.019 0.058-0.024 0.131-0.065 0.204-0.107l0.051-0.030c0.129-0.075 0.248-0.144 0.273-0.118 0.043 0.044 0.114 0.033 0.229 0.016s0.159-0.143 0.31-0.212c0.116-0.053 0.18-0.033 0.294-0.065 0.108-0.037 0.178-0.081 0.212-0.131 0.072-0.105 0.065-0.196 0.065-0.245 0.051 0.024 0.102 0.055 0.154 0.087l0.020 0.012c0.172 0.103 0.362 0.209 0.627 0.13 0.248-0.074 0.294-0.278 0.425-0.36 0.121-0.075 0.154-0.044 0.294-0.082l0.163-0.082c0.033-0.016 0.065-0.082 0.082-0.114 0.033 0.016 0.075 0.038 0.131 0.049 0.062 0.012 0.119 0.011 0.175 0.008l0.042-0.002c0.056-0.002 0.113-0.003 0.175 0.010 0.059 0.012 0.16 0.070 0.2 0.116 0.147 0.169 0.282 0.351 0.394 0.545 0.001 0.002 0.003 0.005 0.005 0.010l0.003 0.006c0.030 0.061 0.123 0.275 0.166 0.566 0.082-0.065 0.142-0.12 0.18-0.212 0.040-0.099 0.051-0.236 0.049-0.343-0.002-0.082-0.042-0.281-0.065-0.36-0.089-0.303-0.246-0.464-0.409-0.67-0.207-0.263-0.458-0.441-0.817-0.474-0.161-0.015-0.315 0.072-0.46 0.165l-0.024 0.016-0.058 0.038c-0.147 0.096-0.283 0.179-0.405 0.141-0.050-0.015-0.033-0.082 0-0.114s0.146-0.085 0.229-0.196c0.078-0.103 0.037-0.13-0.004-0.148l-0.012-0.005c-0.032-0.014-0.057-0.027-0.016-0.076 0.054-0.063 0.199-0.089 0.278-0.098 0.583-0.064 1.177 0.18 1.634 0.523-0.016-0.065-0.113-0.253-0.131-0.278-0.19-0.27-0.294-0.346-0.556-0.507-0.428-0.263-0.867-0.339-0.948-0.36-0.131-0.033-0.526-0.051-0.703-0.033-0.166 0.018-0.61 0.139-0.61 0.399 0 0.093 0.005 0.157 0.087 0.255-0.065 0.049-0.159 0.109-0.261 0.18s-0.215 0.189-0.278 0.245c-0.11 0.099-0.062 0.181-0.196 0.245-0.122 0.059-0.318 0.008-0.507 0.033-0.071 0.009-0.116 0.060-0.18 0.082-0.054 0.018-0.11 0.021-0.163 0.049-0.144 0.076-0.177 0.169-0.198 0.262l-0.003 0.015-0.003 0.015c-0.002 0.007-0.003 0.015-0.004 0.022l-0.003 0.015c-0.005 0.022-0.010 0.043-0.017 0.065-0.033 0.098-0.217 0.224-0.294 0.245-0.054 0.015-0.135-0.015-0.212-0.016-0.067-0.002-0.132 0.025-0.18 0.033-0.143 0.024-0.198 0.145-0.343 0.147-0.11 0.002-0.22-0.137-0.327-0.164-0.073-0.018-0.153-0.005-0.225 0.019-0.094 0.030-0.216 0.128-0.282 0.112-0.016-0.033-0.001-0.163 0-0.245 0.002-0.104-0.019-0.183 0.016-0.278 0.038-0.104 0.113-0.155 0.163-0.196 0.036-0.029 0.049-0.070 0.082-0.082 0.074-0.027 0.165 0.021 0.278 0.033 0.052 0.005 0.11-0.014 0.163-0.016 0.044-0.002 0.107-0.045 0.163-0.098 0.011-0.010 0.020-0.023 0.029-0.036l0.008-0.011c0.017-0.024 0.034-0.047 0.062-0.050 0.050-0.006 0.102 0.045 0.163 0.065 0.108 0.035 0.17 0.048 0.278 0.049 0.079 0.001 0.144-0.058 0.208-0.119l0.017-0.016c0.048-0.046 0.096-0.090 0.151-0.11 0.049-0.018 0.133 0.028 0.212 0.033 0.040 0.002 0.098-0.033 0.147-0.049s0.085-0.018 0.114-0.016c0.043 0.002 0.138 0.051 0.18 0.049 0.095-0.005 0.21-0.044 0.256-0.081 0.027-0.021 0.138-0.089 0.169-0.213 0.014-0.057-0.011-0.142 0-0.212 0.065-0.016 0.131-0.049 0.163-0.065s0.060-0.047 0.065-0.114c0.010-0.132-0.033-0.147-0.033-0.31 0-0.294-0.088-0.406-0.082-0.507 0.024 0 0.046 0 0.067 0h0.021c0.085-0.001 0.15-0.009 0.206-0.066 0.071-0.073 0.116-0.146 0.147-0.229 0.028-0.074 0.040-0.175 0.098-0.245 0.022-0.026 0.069-0.045 0.118-0.062l0.023-0.008c0.041-0.014 0.081-0.028 0.104-0.045 0.152-0.113 0.131-0.196 0.261-0.278s0.539-0.065 0.884 0.057c0.271 0.096 0.554 0.237 0.767 0.417 0.016-0.065-0.090-0.212-0.147-0.294-0.116-0.169-0.198-0.282-0.36-0.409-0.159-0.124-0.376-0.231-0.572-0.278-0.225-0.054-0.455-0.083-0.686-0.082-0.12 0.001-0.227 0.018-0.343 0.049-0.090 0.024-0.24 0.091-0.327 0.18-0.068 0.070-0.090 0.179-0.147 0.212-0.055 0.033-0.123 0.030-0.147-0.033-0.025-0.065 0.021-0.127 0.033-0.196 0.010-0.061-0.025-0.133 0.016-0.18 0.043-0.048 0.14-0.019 0.196-0.049 0.147-0.078 0.049-0.065 0.212-0.196s0.36-0.131 0.882-0.114c0.151 0.005 0.343 0.065 0.474 0.098 0.010-0.010-0.032-0.056-0.079-0.102l-0.011-0.010-0.011-0.011c-0.020-0.019-0.041-0.038-0.063-0.056-0.247-0.213-0.487-0.388-0.882-0.425-0.109-0.010-0.378-0.040-0.654 0.016-0.135 0.027-0.244 0.090-0.36 0.147-0.107 0.053-0.222 0.098-0.294 0.163-0.035 0.031 0.063 0.068 0.033 0.098-0.046 0.045-0.103 0.061-0.147 0.082-0.112 0.052-0.198 0.074-0.235 0.238-0.075 0.334-0.043 0.562-0.026 0.644s0.179 0.047 0.18 0.098c0.002 0.144-0.089 0.169-0.114 0.31-0.016 0.093-0.016 0.299 0 0.392 0.006 0.034 0.019 0.068 0.033 0.101l0.008 0.020c0.023 0.056 0.043 0.111 0.027 0.168-0.002 0.006-0.082 0.025-0.166 0.087-0.074 0.055-0.146 0.151-0.229 0.196-0.075 0.041-0.18 0.048-0.201 0.057-0.101 0.043-0.183 0.127-0.287 0.16-0.102 0.032-0.225-0.018-0.319 0.032-0.122 0.064-0.131 0.196-0.254 0.258-0.078 0.039-0.24 0.040-0.327 0.049-0.027 0.003-0.047 0.006-0.065 0.009l-0.009 0.002-0.004 0.001-0.009 0.001c-0.039 0.006-0.083 0.014-0.191 0.021-0.179 0.012-0.343-0.065-0.556-0.131 0-0.065-0.016-0.098-0.065-0.196-0.023-0.046-0.088-0.127-0.163-0.147-0.086-0.023-0.184 0.021-0.229 0.049-0.057 0.037-0.242 0.236-0.278 0.294-0.122 0.2-0.147 0.31-0.212 0.507-0.096-0.061-0.16-0.136-0.221-0.21l-0.023-0.028c-0.045-0.055-0.091-0.109-0.148-0.154-0.028-0.022-0.131-0.065-0.212-0.065-0.033-0.098-0.096-0.229-0.114-0.278-0.098-0.261 0.004-1.153 0.033-1.193 0.147 0.016 0.268 0.074 0.409 0.163 0.077 0.049 0.212 0.147 0.327 0.229-0.082-0.229-0.231-0.5-0.351-0.72-0.031-0.057-0.086-0.113-0.141-0.167l-0.017-0.017c-0.075-0.074-0.144-0.143-0.144-0.207 0-0.114 0.065-0.654 0.294-0.833s0.569-0.046 0.621-0.294c0.062-0.294 0.049-0.605 0.065-0.899 0.003-0.049 0.053-0.036 0.065 0 0.017 0.049 0.035 0.136 0.050 0.225l0.006 0.035 0.002 0.010 0.003 0.021c0.019 0.116 0.034 0.22 0.036 0.232 0.147 0.686-0.071 1.038-0.114 1.781-0.019 0.324-0.049 0.735-0.033 1.046 0.026-0.104 0.058-0.23 0.093-0.356l0.011-0.040c0.049-0.179 0.101-0.352 0.142-0.454 0.073-0.18 0.203-0.494 0.392-0.85 0.062-0.117 0.157-0.188 0.212-0.278 0.066-0.108 0.089-0.227 0.098-0.261 0.163-0.637-0.016-0.931 0.245-1.552 0.019 0.136 0.114 0.309 0.208 0.484l0.020 0.038c0.057 0.106 0.112 0.213 0.148 0.312 0.020 0.054-0.006 0.175-0.033 0.229-0.114 0.229-0.251 0.433-0.343 0.605-0.237 0.44-0.465 1.042-0.523 1.503-0.022 0.173-0.033 0.343-0.033 0.556 0.084-0.217 0.17-0.447 0.278-0.654 0.21-0.4 0.404-0.78 0.654-1.16 0.061-0.093 0.163-0.229 0.229-0.294 0.082 0.049 0.098 0.147 0.178 0.273 0.047-0.12 0.043-0.24 0.036-0.362l-0.002-0.038c-0.006-0.109-0.012-0.219 0.017-0.33 0.035-0.078 0.062-0.144 0.082-0.196l0.007-0.017 0.013-0.035 0.013-0.035 0.013-0.035c0.084-0.219 0.168-0.426 0.232-0.532-0.033 0.278-0.069 0.441-0.114 0.637-0.046 0.199-0.088 0.437-0.13 0.637-0.050 0.247-0.083 0.427-0.098 0.539l-0-0 0.011-0.024c0.063-0.138 0.141-0.297 0.224-0.464l0.046-0.093c0.048-0.095 0.097-0.193 0.146-0.292l0.033-0.066c0.098-0.197 0.193-0.396 0.275-0.581 0.043-0.096 0.343-1.209 0.654-1.552-0.008 0.418-0.016 1.062-0.033 1.454-0.010 0.239-0.029 0.59-0.049 0.784 0.098-0.196 0.173-0.49 0.229-0.686 0.045-0.16 0.123-0.301 0.18-0.523 0.037-0.144 0.053-0.319 0.065-0.441 0.012-0.116 0.096-0.346 0.114-0.539 0.027-0.273 0.016-0.588 0.082-0.85 0.016 0.147 0.030 0.378 0.049 0.539 0.016 0.138 0.033 0.278 0.016 0.441 0.114-0.18 0.163-0.474 0.18-0.637 0.029 0.162 0.016 0.46-0.008 0.766l-0.003 0.040-0.003 0.040-0.002 0.020c-0.039 0.454-0.033 0.85-0.065 1.242 0.036-0.048 0.081-0.214 0.18-0.523 0.036-0.113 0.089-0.237 0.131-0.392 0.013-0.047 0.046-0.071 0.065-0.114 0.024-0.052 0.049-0.114 0.049-0.18s0.002-0.139 0.016-0.196c0.012-0.048 0.056-0.053 0.082-0.098 0.028-0.048 0.038-0.135 0.049-0.18 0.039-0.161 0.060-0.325 0.065-0.49 0.090 0.213 0.167 0.365 0.245 0.588 0.1 0.287 0.188 0.61 0.327 0.85 0.158 0.273 0.407 0.509 0.703 0.719 0.271 0.192 0.624 0.38 0.98 0.588 0.060 0.035 0.121 0.071 0.181 0.106l0.073 0.043c0.375 0.221 0.745 0.441 1.053 0.603 0.29 0.152 1.454 0.605 1.814 1.029 0.619 0.731 0.877 0.87 1.061 1.004l0.011 0.008 0.006 0.004 0.011 0.009 0.006 0.004c0.507 0.392 0.719 0.82 1.405 0.997 0.846 0.217 1.16 0.212 1.781 0.082 0.167-0.035 0.316 0.026 0.49 0 0.104-0.016 0.164-0.079 0.245-0.114 0.027-0.012 0.060-0.021 0.094-0.032l0.026-0.008c0.056-0.016 0.111-0.034 0.142-0.059 0.241-0.195 0.188-0.482-0.212-0.752-0.157-0.106-0.31-0.163-0.49-0.229s-0.297-0.084-0.425-0.131c-0.228-0.083-0.36-0.173-0.539-0.261-0.253-0.126-0.473-0.206-0.67-0.36-0.432-0.338-0.849-0.845-1.405-1.389-0.118-0.115-0.252-0.239-0.386-0.362l-0.050-0.046c-0.184-0.169-0.363-0.335-0.495-0.474-0.235-0.248-0.212-0.409-0.441-0.752-0.049-0.074-0.034-0.208-0.065-0.294-0.080-0.223-0.049-0.389-0.098-0.621-0.027-0.126-0.146-0.134-0.163-0.261-0.011-0.078 0.098-0.163 0.131-0.212s0.049-0.114 0.065-0.18c0.147 0.229 0.245 0.392 0.523 0.327 0.066-0.016 0.12-0.040 0.147-0.098 0.027-0.059 0.004-0.172-0.014-0.235-0.025-0.085-0.053-0.155-0.081-0.222l-0.010-0.024-0.009-0.021-0.009-0.021c-0.058-0.135-0.115-0.276-0.154-0.522-0.049-0.294-0.656-0.792-0.98-1.029-0.027-0.020-0.217-0.131-0.193-0.154 1.010-0.99 1.696 0.089 2.399-0.205 0.261-0.114 0.432-0.116 0.948 0.507 0.1 0.12 0.49 0.114 0.719 0.245 0.301 0.172 0.616 0.375 0.964 0.507 0.538 0.204 1.003 0.272 1.554 0.438 0.103 0.031 0.2 0.074 0.298 0.117l0.083 0.037c0.153 0.068 0.308 0.129 0.483 0.143 0.819 0.062 0.964-0.033 1.16-0.18 0 0.065 0 0.114 0.033 0.196 0.14 0.309 0.381 0.086 0.441 0.033 0.038 0.069 0.070 0.165 0.135 0.205 0.086 0.053 0.296 0.069 0.372-0.026 0.034-0.043 0.047-0.105 0.062-0.153l0.003-0.010 0.003 0.016c0.017 0.086 0.054 0.159 0.089 0.218l0.006 0.011c0.075 0.124 0.28-0.038 0.392-0.082 0.050-0.020 0.066 0.157 0.114 0.18 0.087 0.040 0.212 0.114 0.229 0.212 0.033 0.31 0.152 0.45 0.336 0.529 0.201 0.087 0.494-0.243 0.572-0.344 0.91-1.19 1.181-1.571 0.252-2.832-0.098-0.131-0.196-0.196-0.245-0.229s-0.131-0.052-0.131-0.098c0-0.131-0.085-0.217-0.163-0.343-0.046-0.073-0.229-0.229-0.327-0.409-0.173-0.299-0.442-0.448-0.705-0.588l-0.030-0.016c-0.678-0.363-0.968-0.489-1.216-0.597l-0.038-0.017-0.070-0.031c-0.122-0.054-0.241-0.111-0.36-0.172-0.136-0.070-0.185-0.124-0.304-0.222-0.171-0.143-0.35-0.278-0.537-0.4-0.174-0.113-0.369-0.233-0.563-0.352l-0.060-0.037-0.12-0.072c-0.359-0.215-0.693-0.407-0.866-0.503-0.629-0.327-0.816-0.575-0.955-0.763l-0.009-0.012-0.013-0.017-0.011-0.014c-0.030-0.039-0.059-0.076-0.091-0.109-0.179-0.186-0.48-0.236-0.705-0.389-0.102-0.069-0.144-0.205-0.24-0.283-0.084-0.069-0.201-0.090-0.29-0.153-0.183-0.127-0.219-0.221-0.268-0.384-0.016-0.049-0.163-0.572-0.915-0.49-0.189 0.012-0.147-0.045-0.11-0.102l0.004-0.006 0.004-0.006c0.001-0.002 0.002-0.004 0.004-0.006l0.003-0.006c0.008-0.014 0.014-0.027 0.014-0.039 0.015-0.067-0.016-0.196-0.114-0.294-0.049-0.049 0.016-0.212-0.098-0.31-0.241-0.218-0.453-0.247-0.649-0.256l-0.022-0.001c-0.011-0-0.022-0.001-0.032-0.001l-0.021-0.001c-0.004-0-0.007-0-0.011-0l-0.021-0.001c-0.046-0.002-0.091-0.004-0.135-0.009-0.214-0.025-0.338-0.169-0.451-0.321l-0.017-0.023-0.044-0.061c-0.115-0.158-0.233-0.302-0.441-0.308-0.503-0.013-0.754 0.475-1.048 0.573-0.114 0.033-0.174 0.053-0.294 0.049-0.011-0-0.022-0-0.034-0h-0.015c-0.057 0-0.144 0.002-0.23 0.006l-0.029 0.001c-0.102 0.005-0.197 0.014-0.231 0.026-0.123 0.044-0.202 0.087-0.278 0.132l-0.021 0.012-0.021 0.012c-0.096 0.058-0.197 0.119-0.383 0.187-0.239 0.063-0.382 0.007-0.627 0.042-0.082 0.012-0.161 0.045-0.234 0.083-0.308 0.161-1.051 0.496-1.247 0.382-0.056-0.034-0.119-0.097-0.17-0.14l-0.159-0.076c-0.144-0.122-0.38-0.048-0.552-0.124-0.285-0.126-0.237-0.412-0.574-0.2-0.455 0.286 0.319 0.695 0.401 0.877 0.076 0.169 0.036 0.373 0.104 0.546l0.214 0.256c0.006 0.016 0.001 0.041-0.014 0.048-0.149 0.069-0.349 0.029-0.476-0.062-0.112-0.080-0.218-0.189-0.325-0.299l-0.023-0.023-0.023-0.023c-0.014-0.014-0.027-0.028-0.041-0.042l-0.017-0.016c-0.244-0.24-0.504-0.437-0.863-0.267-0.189 0.090-0.364 0.209-0.539 0.325-0.031 0.021-0.074 0.046-0.076 0.083-0.018 0.343 0.74 0.556 0.774 0.587 0.079 0.072-0.023 0.262 0.039 0.349l0.343 0.245c0.023 0.032 0.022 0.082 0 0.114-0.098 0.142-0.245 0.129-0.398 0.097l-0.027-0.006-0.019-0.004c-0.013-0.003-0.026-0.006-0.038-0.009l-0.029-0.006c-0.009-0.002-0.019-0.004-0.029-0.006-0.899-0.131-1.129-0.643-1.522-0.525-0.633 0.19-0.41 0.408-0.15 0.616l0.024 0.019c0.133 0.106 0.268 0.208 0.299 0.303 0.055 0.169 0.049 0.355 0.104 0.525 0.008 0.025 0.017 0.051 0.026 0.077l0.006 0.017 0.009 0.026 0.005 0.015 0.005 0.015 0.005 0.015 0.005 0.015c0.005 0.015 0.010 0.029 0.015 0.044l0.005 0.014c0.064 0.199 0.068 0.352-0.29 0.26-0.109-0.028-0.219-0.084-0.33-0.141l-0.087-0.045c-0.251-0.13-0.497-0.234-0.719-0.012-0.089 0.089 0.048 0.462 0.064 0.483 0.032 0.043 0.080 0.070 0.13 0.094l0.025 0.012c0.058 0.029 0.116 0.058 0.151 0.109 0.041 0.060 0.056 0.133 0.069 0.206l0.006 0.031c0.011 0.063 0.024 0.126 0.052 0.181 0.062 0.12 0.142 0.094 0.213 0.21s-0.045 0.097-0.082 0.065c-0.024-0.021-0.048-0.043-0.070-0.066l-0.012-0.013-0.012-0.013-0.030-0.031c-0.112-0.116-0.224-0.216-0.447-0.138-0.149 0.052-0.039 0.291 0.102 0.538l0.011 0.019 0.016 0.028 0.005 0.009 0.018 0.031c0.013 0.022 0.026 0.045 0.039 0.067l0.013 0.022c0.118 0.201 0.219 0.378 0.172 0.43-0.148 0.161-0.752-0.752-1.053-0.382-0.133 0.163 0.013 0.366 0.166 0.576l0.019 0.026 0.014 0.019 0.014 0.019 0.014 0.019c0.137 0.192 0.251 0.385 0.14 0.555-0.072 0.11-0.169 0.008-0.261-0.116l-0.010-0.013-0.015-0.021c-0.002-0.002-0.003-0.005-0.005-0.007l-0.010-0.014c-0.064-0.089-0.123-0.175-0.168-0.194-0.079-0.032-0.17-0.041-0.254-0.026-0.201 0.037-0.256 0.251-0.216 0.432 0.11 0.494 0.468 0.745-0.074 1.233-0.114 0.102-0.199-0.011-0.292-0.141l-0.010-0.014-0.010-0.014-0.005-0.007-0.010-0.014c-0.005-0.007-0.010-0.014-0.015-0.021l-0.011-0.014c-0.058-0.075-0.121-0.141-0.197-0.158-0.029-0.006-0.113-0.012-0.137 0.006-0.044 0.032-0.064 0.047-0.082 0.098-0.135 0.386 0.49 0.882 0.333 0.963-0.295 0.152-0.451-0.736-0.749-0.546-0.32 0.203 0.22 0.988-0.075 0.939-0.169-0.042-0.236-0.181-0.294-0.338l-0.007-0.021-0.007-0.021-0.007-0.021-0.007-0.021c-0.002-0.007-0.005-0.014-0.007-0.021l-0.008-0.024-0.007-0.020c-0.065-0.173-0.151-0.338-0.373-0.397-0.376-0.098-0.147 0.637-0.425 1.079-0.003 0.007-0.143 0.227-0.196 0.147-0.085-0.127-0.219-0.307-0.349-0.445l-0.002-0.093-0.002-0.229c0-7.658 6.208-13.867 13.867-13.867zM20.517 21.049c0 0-0.183 0.304-0.415 0.575l-0.017 0.020-0.009 0.010c-0.245 0.278-0.327 0.474-0.245 0.621s0.327 0.016 0.425-0.278c0.027-0.082 0.060-0.193 0.093-0.309l0.007-0.025c0.014-0.050 0.028-0.101 0.041-0.151l0.007-0.025c0.039-0.145 0.077-0.291 0.114-0.437zM20.142 20.575c-0.038 0.193-0.071 0.34-0.098 0.441s-0.066 0.215-0.114 0.343c-0.229 0.512-0.398 0.719-0.507 0.621s-0.109-0.218 0-0.36c0.174-0.196 0.414-0.545 0.719-1.046zM1.366 19.611c-0.048 0.033-0.106 0.105-0.098 0.196 0.013 0.143 0.118 0.307 0.145 0.358l0.010 0.019c0.060 0.107 0.158 0.238 0.226 0.341l0.012 0.018-0.18-0.147c-0.098-0.114-0.204-0.176-0.229-0.114-0.018 0.046-0.002 0.15 0.016 0.261 0.014 0.085 0.020 0.178 0.072 0.238 0.057 0.067 0.16 0.173 0.222 0.236 0.123 0.124 0.201 0.201 0.329 0.319 0.185 0.171 0.406 0.351 0.619 0.482 0-0.156-0.026-0.364-0.033-0.556-0.009-0.25-0.002-0.45-0.016-0.621-0.011-0.124-0.082-0.212-0.147-0.261-0.013-0.010-0.021 0.013-0.030 0.037l-0.004 0.010c-0.009 0.024-0.018 0.046-0.032 0.034-0.083-0.067-0.113-0.141-0.212-0.261-0.125-0.151-0.322-0.355-0.441-0.479-0.127-0.134-0.176-0.146-0.229-0.109zM19.978 19.791c0 0-0.409 0.964-0.915 1.373-0.338 0.272-0.403 0.463-0.196 0.572 0.218 0.044 0.425-0.082 0.621-0.376 0.294-0.441 0.49-1.569 0.49-1.569zM19.063 20.608c-0.109 0.185-0.343 0.343-0.703 0.474s-0.485 0.251-0.376 0.36c0.087 0.087 0.223 0.12 0.409 0.098s0.409-0.332 0.67-0.931zM18.246 19.53c0 0-0.021 0.047-0.060 0.125l-0.008 0.017c-0.099 0.198-0.303 0.57-0.585 0.92-0.218 0.24-0.261 0.398-0.131 0.474 0.072 0.035 0.127 0.045 0.163 0.033 0.108-0.037 0.217-0.183 0.31-0.392 0.212-0.474 0.31-1.177 0.31-1.177zM19.030 18.925c-0.196 0.61-0.447 1.073-0.752 1.389s-0.354 0.545-0.147 0.686c0.163 0.054 0.343-0.098 0.539-0.458 0.108-0.198 0.232-0.46 0.294-0.768 0.034-0.167 0.055-0.45 0.065-0.85zM17.936 19.334c-0.006 0.010-0.315 0.51-0.801 0.899-0.251 0.174-0.294 0.327-0.131 0.458 0.083 0.066 0.162 0.119 0.245 0.082 0.054-0.024 0.135-0.122 0.245-0.294 0.113-0.264 0.184-0.433 0.212-0.507 0.198-0.512 0.228-0.635 0.229-0.637zM17.249 19.154c-0.153 0.24-0.365 0.479-0.637 0.719-0.163 0.109-0.185 0.202-0.065 0.278 0.153 0.163 0.289 0.158 0.409-0.016 0.073-0.106 0.161-0.314 0.212-0.507 0.050-0.187 0.077-0.345 0.082-0.474zM2.461 18.647c-0.107 0.124-0.12 0.116-0.12 0.284 0 0.254 0.010 0.621 0.039 0.877 0.033 0.294 0.224 0.288 0.327 0.082 0.088-0.178 0.114-0.507 0.131-0.605 0.074-0.445-0.31-0.719-0.376-0.637zM16.89 18.468l-0.017 0.028c-0.224 0.368-0.458 0.658-0.702 0.87-0.12 0.109-0.153 0.207-0.098 0.294 0.076 0.131 0.163 0.12 0.261-0.033 0.043-0.066 0.139-0.242 0.233-0.43l0.013-0.027 0.014-0.028 0.014-0.028 0.013-0.028c0.013-0.028 0.026-0.055 0.039-0.082 0.056-0.119 0.132-0.298 0.229-0.539l-0 0zM1.774 18.876v-0c-0.096 0.043-0.145 0.128-0.147 0.131-0.046 0.080 0.069 0.233 0.205 0.374l0.016 0.016 0.008 0.008 0.017 0.017c0.043 0.043 0.087 0.084 0.132 0.125 0.146 0.132 0.252-0.234 0.146-0.458-0.046-0.096-0.12-0.229-0.245-0.229-0.049 0-0.079-0.007-0.131 0.016zM16.416 18.157l-0.003 0.005-0.002 0.004c-0.036 0.070-0.274 0.518-0.665 0.759-0.425 0.261-0.125 0.399-0.049 0.409 0.128 0.015 0.278-0.098 0.458-0.36 0.082-0.12 0.17-0.28 0.212-0.441 0.046-0.174 0.049-0.342 0.049-0.371v-0.004zM15.893 17.945c-0.006 0.010-0.182 0.312-0.343 0.392-0.040 0.020-0.082 0.035-0.124 0.049l-0.039 0.013c-0.115 0.039-0.223 0.082-0.279 0.215-0.054 0.131-0.005 0.191 0.147 0.18 0.098 0 0.229-0.114 0.392-0.343 0.233-0.326 0.245-0.49 0.245-0.505v-0.001h0zM6.088 17.536c-0.023 0.141-0.006 0.26-0.016 0.327-0.008 0.048-0.017 0.080-0.026 0.111l-0.004 0.012c-0.018 0.054-0.037 0.107-0.051 0.237-0.025 0.216 0.022 0.472 0.098 0.49 0.084 0.020 0.131-0.049 0.245-0.278 0.041-0.083 0.114-0.251 0.098-0.376-0.004-0.034-0.049-0.114-0.033-0.229s0.062-0.176 0.036-0.288c-0.010-0.042-0.068-0.142-0.15-0.153-0.079-0.011-0.183 0.064-0.196 0.147zM24.21 17.487c-0.044-0.054-0.087-0.054-0.131 0-0.153 0.153-0.256 0.267-0.31 0.343-0.009 0.013-0.028 0.033-0.052 0.058l-0.012 0.012c-0.068 0.068-0.177 0.167-0.292 0.268l-0.031 0.028-0.024 0.021c-0.022 0.020-0.045 0.039-0.067 0.059l-0.019 0.016c-0.179 0.156-0.336 0.289-0.336 0.289s0.088-0.047 0.214-0.11l0.019-0.010c0.052-0.026 0.109-0.054 0.168-0.082l0.022-0.011c0.034-0.016 0.068-0.032 0.102-0.047l0.023-0.010c0.076-0.034 0.151-0.065 0.22-0.090 0.31-0.114 0.539-0.31 0.637-0.425s-0.065-0.229-0.131-0.31zM22.87 16.866c-0.278-0.016-0.245 0.131-0.539 0.686-0.196 0.37-0.414 0.654-0.654 0.85 0.109-0.054 0.234-0.125 0.376-0.212 0.070-0.043 0.462-0.236 0.572-0.343 0.132-0.128 0.441-0.523 0.458-0.621s0.065-0.343-0.212-0.36zM15.55 17.487c-0.087 0.218-0.212 0.37-0.376 0.458-0.245 0.131-0.294 0.196-0.245 0.294 0.033 0.065 0.098 0.082 0.196 0.049 0.087-0.076 0.174-0.185 0.261-0.327s0.142-0.3 0.163-0.474zM21.972 16.784c-0.098-0.12-0.196-0.142-0.294-0.065-0.076 0.054-0.147 0.272-0.212 0.654s-0.207 0.675-0.425 0.882c0.198-0.086 0.34-0.168 0.425-0.245s0.172-0.203 0.261-0.376c0.261-0.447 0.343-0.73 0.245-0.85zM21.351 16.866c-0.065 0-0.153 0.12-0.261 0.36-0.207 0.381-0.365 0.714-0.474 0.997 0.153-0.229 0.294-0.392 0.425-0.49s0.234-0.24 0.31-0.425c0.065-0.294 0.065-0.441 0-0.441zM22.299 16.882c-0.076-0.011-0.147 0.065-0.212 0.229-0.022 0.131-0.098 0.289-0.229 0.474-0.188 0.267-0.286 0.548-0.294 0.57l-0 0.001 0-0c0.005-0.002 0.042-0.023 0.114-0.081 0.006-0.005 0.015-0.014 0.028-0.027l0.009-0.009c0.030-0.030 0.074-0.076 0.126-0.128s0.071-0.065 0.113-0.106l0.009-0.009c0.022-0.022 0.050-0.052 0.090-0.098 0.131-0.147 0.261-0.425 0.327-0.588s0.033-0.212-0.082-0.229v0zM23.491 17.029c-0.153-0.054-0.283 0.054-0.392 0.327-0.099 0.281-0.202 0.47-0.28 0.588l-0.010 0.016c-0.014 0.020-0.027 0.038-0.038 0.054l-0.008 0.010c-0.034 0.044-0.058 0.070-0.067 0.079l-0.003 0.003-0.002 0.002-0.001 0c0 0 0.128-0.033 0.343-0.196 0.019-0.014 0.037-0.028 0.054-0.041l0.013-0.010 0.006-0.005 0.013-0.010c0.070-0.056 0.14-0.12 0.257-0.261 0.034-0.040 0.065-0.081 0.096-0.124l0.010-0.014c0.117-0.171 0.187-0.354 0.009-0.417zM23.949 17.128c-0.076-0.054-0.185 0.049-0.327 0.31-0.098 0.218-0.256 0.425-0.474 0.621 0.316-0.185 0.55-0.349 0.703-0.49 0.229-0.212 0.212-0.36 0.098-0.441zM20.975 16.523c-0.109-0.022-0.218 0.093-0.327 0.343l-0.474 1.078c0.112-0.15 0.194-0.254 0.245-0.31 0.15-0.167 0.275-0.268 0.343-0.343 0.15-0.166 0.257-0.3 0.327-0.36 0.142-0.12 0.174-0.218 0.098-0.294-0.033-0.054-0.104-0.093-0.212-0.114zM15.256 17.226l-0.001 0.002c-0.011 0.026-0.122 0.281-0.277 0.374-0.163 0.098-0.196 0.114-0.196 0.229 0 0.076 0.038 0.104 0.114 0.082 0.098-0.033 0.185-0.136 0.261-0.31 0.088-0.2 0.099-0.314 0.099-0.357v-0.005c0-0.005-0-0.009-0.001-0.014zM20.468 16.425c-0.174-0.076-0.316 0.027-0.425 0.31-0.142 0.381-0.37 0.746-0.686 1.095 0.186-0.064 0.349-0.157 0.49-0.278s0.359-0.355 0.654-0.703c0.153-0.207 0.142-0.349-0.033-0.425zM19.733 16.229c-0.163-0.054-0.3 0.076-0.409 0.392-0.199 0.569-0.515 0.881-0.628 0.979l-0.008 0.007c-0.022 0.018-0.034 0.027-0.034 0.027l0.001-0c0.002-0.001 0.006-0.003 0.014-0.006l0.006-0.003c0.046-0.020 0.091-0.041 0.136-0.063l0.016-0.008c0.117-0.059 0.279-0.149 0.432-0.263 0.259-0.192 0.487-0.465 0.572-0.588 0.18-0.261 0.147-0.392-0.098-0.474zM19.096 15.984c-0.131-0.033-0.223 0.093-0.278 0.376-0.141 0.628-0.584 1.225-0.619 1.272l-0.002 0.002-0.001 0.001c0 0 0.262-0.185 0.523-0.474 0.186-0.206 0.38-0.508 0.441-0.637 0.147-0.31 0.131-0.49-0.065-0.539zM14.896 17.095l-0.294 0.294c-0.033 0.054-0.033 0.104 0 0.147s0.087 0.044 0.163 0c0.044-0.044 0.071-0.109 0.082-0.196s0.027-0.169 0.049-0.245zM18.704 15.886c-0.131-0.142-0.261-0.044-0.392 0.294s-0.278 0.599-0.441 0.784c0.294-0.185 0.523-0.387 0.686-0.605s0.212-0.376 0.147-0.474zM18.213 15.624c-0.087-0.022-0.153 0.038-0.196 0.18-0.065 0.294-0.294 0.556-0.294 0.556s0.163-0.072 0.294-0.163c0.119-0.083 0.206-0.182 0.245-0.229 0.082-0.098 0.082-0.31-0.049-0.343zM17.903 15.461c-0.065-0.054-0.131-0.005-0.196 0.147s-0.147 0.305-0.245 0.458c0.229-0.142 0.376-0.261 0.441-0.36s0.065-0.18 0-0.245zM17.592 15.281c-0.054-0.022-0.093-0.005-0.114 0.049-0.017 0.051-0.042 0.115-0.067 0.178l-0.008 0.019c-0.029 0.070-0.058 0.141-0.088 0.21l-0.001 0.002c0 0 0.163-0.114 0.245-0.212s0.114-0.212 0.033-0.245zM17.331 15.232c-0.022-0.098-0.060-0.109-0.114-0.033-0.044 0.087-0.060 0.169-0.049 0.245 0.131-0.044 0.185-0.114 0.163-0.212zM19.537 13.614c-0.076 0.055-0.27 0.325-0.114 0.474 0.11 0.105 0.161 0.106 0.294 0.18 0.216 0.092 0.368 0.141 0.458 0.147 0.081 0.005 0.231 0.013 0.435 0.013h0.033c0.138-0 0.3-0.004 0.48-0.013 0.335-0.018 0.398-0.295 0.278-0.539-0.129-0.261-0.477-0.473-0.703-0.539-0.366-0.107-0.874 0.071-1.16 0.278zM17.119 10.134c-0.183 0.19-0.015 0.526 0.016 0.752 0.020 0.147 0.003 0.302 0.025 0.448 0.040 0.271 0.33 0.218 0.253 0.532-0.047 0.19-0.268 0.234-0.392 0.409-0.057 0.080-0.154 0.237-0.098 0.36 0.104 0.23 0.216 0.23 0.409 0.376 0.229 0.163 0.082 0.245 0.114 0.31 0.153 0.069 0.28 0.142 0.376 0.245 0.028 0.031 0.048 0.068 0.066 0.106l0.016 0.033c0.018 0.038 0.037 0.075 0.065 0.106 0.1 0.109 0.254 0.176 0.443 0.211 0.275 0.052 0.632-0.192 0.93-0.489 0.332-0.331 0.584-0.736 0.455-1.073-0.209-0.544-0.925-0.963-1.223-1.313-0.122-0.143-0.479-1.082-0.96-1.18-0.24-0.049-0.414 0.083-0.494 0.167zM15.256 8.418c-0.48 0.048-0.76 0.517-0.654 0.931 0.107 0.417 0.244 0.496 0.441 0.833 0.076 0.12 0.060 0.223-0.049 0.31-0.417 0.259-0.719 0.31-0.861 0.814s0.636 1.142 1.123 0.886c0.433-0.227 0.409-0.605 0.752-0.948 0.218-0.218 0.289-0.349 0.327-0.703 0.031-0.293-0.011-0.561-0.114-0.931-0.034-0.122-0.082-0.257-0.131-0.392-0.087-0.243-0.192-0.487-0.343-0.654-0.124-0.137-0.327-0.163-0.49-0.147z"></path>
</svg>
