<!-- Generated by IcoMoon.io -->
<svg version="1.1" xmlns="http://www.w3.org/2000/svg" width="30" height="32" viewBox="0 0 30 32">
<title>rix</title>
<path fill="#444" d="M12.709 2.752c0.317 0.002 0.633 0.002 0.951-0.003 0.005 3.793-0.003 7.585 0.003 11.378 0.699-0.015 1.4-0.005 2.099-0.021-0.007-3.787-0.008-7.573 0-11.36 0.322 0.007 0.646 0.013 0.97 0.020 0.352 3.867 0.707 7.735 1.086 11.599 2.259 0.38 4.3 1.54 6.060 2.966 1.449-0.413 2.889-0.862 4.341-1.263-0.413 1.536-0.892 3.053-1.3 4.591 1.712 2.512 2.594 5.558 2.578 8.593-4.58 0.007-9.157 0.005-13.737 0.002 0.002-3.686-0.016-7.373 0.008-11.058-0.699-0.085-1.403-0.043-2.104-0.025-0.008 3.693-0.002 7.386-0.003 11.080-4.553 0.007-9.105 0.005-13.658 0-0.016-2.847 0.755-5.706 2.275-8.12 0.076-0.174 0.268-0.347 0.188-0.551-0.418-1.522-0.873-3.032-1.286-4.553 1.482 0.426 2.956 0.882 4.438 1.311 1.732-1.425 3.749-2.543 5.968-2.974 0.365-3.872 0.748-7.741 1.123-11.612zM7.325 20.506c1.318 1.082 2.63 2.173 3.978 3.218 0.117-1.777 0.207-3.553 0.303-5.331-1.5 0.531-3.032 1.097-4.28 2.114zM17.765 18.356c0.087 1.786 0.178 3.575 0.291 5.361 1.401-1.020 2.709-2.163 4.070-3.236-1.253-1.051-2.831-1.609-4.361-2.125zM20.642 26.372c1.739 0.281 3.499 0.438 5.247 0.653-0.479-1.64-1.147-3.237-2.063-4.683-1.076 1.331-2.112 2.694-3.185 4.030zM3.622 26.984c1.708-0.178 3.408-0.393 5.114-0.582-1.031-1.326-2.053-2.66-3.114-3.961-0.903 1.393-1.528 2.956-2 4.543z"></path>
</svg>
