<!-- Generated by IcoMoon.io -->
<svg version="1.1" xmlns="http://www.w3.org/2000/svg" width="32" height="32" viewBox="0 0 32 32">
<title>rna</title>
<path fill="#444" d="M-0 8.027c1.512-0.002 3.023 0.004 4.535-0.003-0.52 0.301-0.883 0.869-0.885 1.476-0.004 1.4-0.001 2.8-0.001 4.2 1.8-1.776 3.925-3.24 6.279-4.178 2.668-1.075 5.623-1.431 8.468-0.999 3.779 0.554 7.262 2.504 9.954 5.178 0.002-1.325-0.001-2.649 0.002-3.974 0.061-0.681-0.291-1.366-0.888-1.702 1.512 0.007 3.023 0.001 4.535 0.003 0 5.319 0.001 10.639-0.001 15.958-0.977-1.661-2.207-3.174-3.646-4.457-0.004-0.787-0.002-1.573-0.002-2.359-0.542-0.478-1.11-0.926-1.7-1.342-0.017 0.446 0.031 0.899-0.024 1.342-0.556 1.422-1.12 2.843-1.682 4.263-0.561-1.432-1.137-2.86-1.689-4.294-0.033-1.072-0.005-2.147-0.014-3.22-0.624-0.27-1.263-0.503-1.913-0.702-0.446 2.291-0.422 4.672 0.069 6.955-2.238 1.648-4.098 3.803-5.398 6.26-1.301-2.456-3.16-4.611-5.398-6.26 0.489-2.282 0.516-4.663 0.068-6.954-0.649 0.199-1.287 0.434-1.911 0.701-0.007 1.064 0.012 2.13-0.009 3.195-0.544 1.447-1.132 2.881-1.695 4.321-0.519-1.311-1.036-2.623-1.555-3.935-0.065-0.172-0.163-0.342-0.151-0.532 0.001-0.379 0.003-0.759 0.001-1.138-0.59 0.416-1.158 0.865-1.701 1.342 0.001 0.785 0 1.57 0.001 2.355-1.438 1.287-2.672 2.798-3.649 4.462 0-5.32 0-10.64 0-15.96zM15.354 12.771c-0.462 0.126-0.883 0.392-1.197 0.754-0.783 0.863-0.794 2.29-0.026 3.166 0.742 0.922 2.18 1.148 3.169 0.496 0.989-0.596 1.421-1.939 0.955-2.998-0.437-1.109-1.755-1.758-2.9-1.417z"></path>
</svg>
