<!-- Generated by IcoMoon.io -->
<svg version="1.1" xmlns="http://www.w3.org/2000/svg" width="27" height="32" viewBox="0 0 27 32">
<title>rtr</title>
<path fill="#444" d="M1.353 29.168l0.208-0.662c0.528-1.682 0.795-3.471 0.795-5.316 0-3.038-0.772-6.030-2.172-8.424l-0.194-0.332 11.304-11.815v9.22l-0.297 0.136c-1.988 0.913-3.273 2.913-3.273 5.097 0 3.092 2.517 5.607 5.611 5.607s5.611-2.516 5.611-5.607c0-2.184-1.285-4.185-3.273-5.097l-0.297-0.136v-9.22l11.304 11.815-0.194 0.332c-1.401 2.394-2.172 5.386-2.172 8.424 0 1.845 0.267 3.634 0.795 5.316l0.208 0.662h-23.96z"></path>
</svg>
