<!-- Generated by IcoMoon.io -->
<svg version="1.1" xmlns="http://www.w3.org/2000/svg" width="25" height="32" viewBox="0 0 25 32">
<title>rvr</title>
<path fill="#444" d="M3.506 14.991l2.11-9.13c0.001-0.003 0.004-0.005 0.007-0.005s0.006 0.002 0.007 0.005l2.109 9.114c0.004 0.017 0.015 0.026 0.033 0.026h2.857c0.018 0 0.027-0.009 0.027-0.027v-6.367c0-0.018-0.009-0.027-0.027-0.027h-1.129c-0.014 0-0.017-0.006-0.011-0.018l4.010-7.185c0.006-0.011 0.013-0.011 0.019 0l4.015 7.188c0.006 0.010 0.003 0.015-0.009 0.015h-1.147c-0.009 0-0.017 0.008-0.017 0.017v3.233c0 0.012 0.006 0.019 0.019 0.019l4.541 0c0.015 0 0.023-0.008 0.023-0.023l0.002-3.030c0-0.013 0.004-0.025 0.012-0.036l1.733-2.387c0.006-0.008 0.012-0.008 0.018 0l1.732 2.384c0.005 0.006 0.007 0.014 0.007 0.022v5.441c0 0.011-0.003 0.021-0.011 0.030l-1.721 2.106c-0.011 0.014-0.022 0.014-0.033 0l-1.681-2.057c-0.007-0.008-0.017-0.013-0.028-0.013h-4.596c-0.011 0-0.017 0.006-0.017 0.017v6.514c0 0.005 0.005 0.009 0.010 0.009 0.003 0 0.007-0.002 0.009-0.005 0.477-0.91 1.312-1.54 2.367-1.568 0.013-0 0.024-0.006 0.032-0.016l1.204-1.551c0.003-0.004 0.008-0.007 0.014-0.007s0.010 0.003 0.014 0.007l1.2 1.548c0.007 0.010 0.017 0.015 0.030 0.016 1.213 0.053 2.074 0.82 2.528 1.899 0.005 0.011 0.012 0.017 0.024 0.019 0.718 0.128 1.262 0.631 1.505 1.306 0.025 0.068 0.037 0.144 0.037 0.228-0.002 2.223-0.001 4.444 0.002 6.665 0 0.008-0.004 0.012-0.012 0.012h-25.304c-0.011 0-0.017-0.006-0.017-0.017v-12.771c0-0.011 0.006-0.017 0.017-0.017h2.014c0.011 0 0.016-0.005 0.016-0.016l0.006-1.537c0-0.012 0.006-0.018 0.018-0.018l1.411 0.006c0.012 0 0.019-0.006 0.022-0.017zM15.395 13.15c0-1.035-0.851-1.886-1.886-1.886s-1.886 0.851-1.886 1.886c0 1.035 0.851 1.886 1.886 1.886s1.886-0.851 1.886-1.886zM7.509 17.884c0-1.035-0.852-1.886-1.886-1.886s-1.886 0.852-1.886 1.886c0 1.035 0.852 1.886 1.886 1.886s1.886-0.852 1.886-1.886zM21.878 23.093c0-1.035-0.852-1.886-1.886-1.886s-1.886 0.852-1.886 1.886c0 1.035 0.852 1.886 1.886 1.886s1.886-0.852 1.886-1.886z"></path>
</svg>
