<!-- Generated by IcoMoon.io -->
<svg version="1.1" xmlns="http://www.w3.org/2000/svg" width="26" height="32" viewBox="0 0 26 32">
<title>s00</title>
<path fill="#444" d="M21.186 8.669c0.127 0 0.188-0.060 0.188-0.188l-0.412-5.793c0-0.102-0.063-0.162-0.188-0.188-1.534-0.311-3.349-0.251-4.909-0.193-4.312 0.162-9.246 2.407-9.246 7.395 0 4.63 4.912 6.361 8.4 7.988 2.788 1.306 4.183 3.003 4.183 5.096 0 2.284-1.963 3.698-3.914 4.389-1.629 0.574-3.574 0.989-5.308 0.574-2.679-0.64-3.244-3.914-3.371-3.952l-0.895-0.481c-0.127 0-0.187 0.063-0.187 0.187l0.599 5.442c0 0.076 0.063 0.14 0.188 0.188 0.412 0.162 0.865 0.301 1.363 0.412 1.491 0.333 3.444 0.171 4.96 0.012 4.367-0.45 9.998-3.146 9.998-8.226 0-1.151-0.361-2.451-0.998-3.409-2.56-3.843-8.042-3.504-10.779-7.037-1.274-1.646-1.214-4.402 0.577-5.756 1.948-1.474 6.035-2.572 7.481 0.086 0.333 0.612 1.094 2.784 1.218 2.784l1.053 0.669zM9.285 26.354c0.266 0.193 0.567 0.358 0.923 0.441 0.39 0.092 0.818 0.14 1.278 0.14 0.123 0 0.26-0.013 0.39-0.019l4.208-4.42 1.595 0.326c-0.266-1.566-1.516-2.857-3.799-3.926-0.326-0.155-0.666-0.307-1.024-0.469-2.556-1.154-5.578-2.524-6.951-5.029l-5.905 2.73 8.635 4.316 0.65 5.911zM12.266 5.745c-0.080 0.058-0.165 0.108-0.238 0.165-0.564 0.425-0.929 1.088-1.034 1.868-0.117 0.898 0.121 1.836 0.638 2.505 1.157 1.497 2.943 2.229 4.833 3.006 1.576 0.647 3.186 1.319 4.525 2.464l4.268-7.721-9.066 1.835-3.926-4.122zM25.042 24.328l-1.906-0.39c0.276-0.736 0.432-1.509 0.464-2.314l1.443 2.705z"></path>
</svg>
