<!-- Generated by IcoMoon.io -->
<svg version="1.1" xmlns="http://www.w3.org/2000/svg" width="27" height="32" viewBox="0 0 27 32">
<title>scg</title>
<path fill="#444" d="M10.939 19.162c-1.494 0-2.071-1.54-2.071-1.54l3.588-2.791c0.828 1.995-0.022 4.332-1.517 4.332zM27.218 23.423l-5.449-6.459 1.31-2.475-0.896-1.512 1.793-1.924-0.826-1.721 3.932-6.391-5.246 3.368 1.242-4.055-10.001 9.485 0.618-5.566-2.203 4.809-0.692-3.023-1.378 5.36-1.103-2.13-0.482 3.507-2.967 4.673-4.899 5.428 1.31 2.888 0.482-1.718 1.45 0.413v-0.757l1.035 0.274 0.275-1.099 1.171 0.619 0.346-1.579 1.864 1.373-1.382 0.071v0.96l-1.517-0.139 0.482 0.964-1.446-0.619-0.139 1.238-1.725-0.206-0.482 1.373 0.414 0.896 5.934-0.964 4.413-3.3v2.269l1.032 1.031 0.764-0.825 0.686-0.345-0.207-1.512 2.485-0.619-0.967-1.373 2.899-2.956 8.070 2.269z"></path>
</svg>
