<!-- Generated by IcoMoon.io -->
<svg version="1.1" xmlns="http://www.w3.org/2000/svg" width="31" height="32" viewBox="0 0 31 32">
<title>selesnya</title>
<path fill="#444" d="M16.793 5.746c0.297 0.039 0.592 0.086 0.887 0.138-0.388 0.867-0.781 1.734-1.234 2.57-0.089 0.168-0.197 0.342-0.172 0.541 0.049 1.474 0.079 2.949 0.136 4.423 0.771-1.216 1.513-2.451 2.278-3.67 0.081-0.131 0.172-0.269 0.169-0.43 0.033-1.022 0.113-2.042 0.23-3.059 0.28 0.101 0.558 0.208 0.835 0.321-0.031 0.926-0.066 1.852-0.093 2.778 0.78-0.492 1.556-0.991 2.335-1.485 0.233 0.185 0.466 0.371 0.693 0.564-0.817 0.597-1.646 1.179-2.508 1.708-0.135 0.073-0.226 0.2-0.293 0.335-0.686 1.287-1.39 2.563-2.072 3.852 1.302-0.691 2.593-1.399 3.894-2.090 0.123-0.060 0.23-0.15 0.298-0.27 0.532-0.861 1.11-1.693 1.712-2.506 0.193 0.226 0.38 0.459 0.565 0.693-0.485 0.787-0.973 1.572-1.453 2.362 0.916-0.037 1.832-0.083 2.748-0.125 0.112 0.276 0.219 0.553 0.321 0.833-0.997 0.109-1.997 0.199-3.001 0.226-0.151-0.006-0.295 0.040-0.418 0.126-1.25 0.779-2.509 1.541-3.758 2.321 1.415 0.053 2.831 0.081 4.247 0.13 0.186 0.003 0.387 0.029 0.553-0.074 0.897-0.482 1.819-0.916 2.752-1.324 0.053 0.294 0.099 0.589 0.138 0.886-0.809 0.438-1.617 0.879-2.423 1.321 0.807 0.327 1.615 0.649 2.423 0.973-0.039 0.296-0.086 0.591-0.138 0.885-0.966-0.389-1.935-0.774-2.9-1.167-0.093-0.035-0.187-0.073-0.287-0.077-1.153-0.017-2.326 0.197-3.356 0.729-0.781 0.402-1.463 1.016-1.885 1.791-0.537 0.973-0.655 2.139-0.468 3.224 0.162 0.939 0.644 1.822 1.363 2.451 0.889 0.788 2.055 1.198 3.219 1.347 0.7 0.098 1.407 0.061 2.112 0.071-0.381 0.39-0.784 0.762-1.213 1.099-0.12 0.072-0.27-0.009-0.398-0.024-0.741-0.171-1.482-0.343-2.226-0.504 0.686 0.329 1.385 0.632 2.081 0.944-0.303 0.213-0.616 0.411-0.933 0.601-0.81-0.358-1.608-0.741-2.417-1.103 0.609 0.478 1.23 0.94 1.842 1.414-0.313 0.155-0.631 0.299-0.953 0.437-0.259-0.196-0.515-0.397-0.777-0.59 0.017 0.283 0.039 0.567 0.060 0.85-0.295 0.087-0.587 0.191-0.89 0.25-0.068 0.016-0.13-0.028-0.189-0.053-0.255-0.138-0.503-0.292-0.76-0.428 0.065 0.217 0.135 0.433 0.205 0.648-0.31 0.050-0.62 0.094-0.932 0.131-0.083-0.257-0.164-0.514-0.252-0.769-0.159 0.27-0.308 0.546-0.459 0.821-0.354 0.011-0.708 0.011-1.062 0-0.151-0.275-0.301-0.551-0.459-0.822-0.088 0.255-0.169 0.513-0.252 0.771-0.312-0.037-0.622-0.082-0.932-0.132 0.070-0.215 0.14-0.432 0.205-0.648-0.282 0.146-0.547 0.323-0.833 0.462-0.067 0.039-0.143 0.015-0.212 0.001-0.268-0.065-0.53-0.152-0.795-0.232 0.022-0.283 0.044-0.567 0.061-0.85-0.262 0.193-0.518 0.393-0.777 0.59-0.321-0.137-0.64-0.281-0.953-0.436 0.557-0.444 1.146-0.847 1.684-1.313-0.753 0.324-1.487 0.69-2.239 1.015-0.316-0.193-0.631-0.389-0.934-0.601 0.714-0.314 1.43-0.625 2.13-0.97-0.838 0.168-1.667 0.38-2.503 0.558-0.081 0.018-0.169 0.020-0.23-0.045-0.418-0.326-0.802-0.695-1.172-1.073 0.727-0.008 1.458 0.028 2.181-0.079 1.17-0.159 2.338-0.587 3.216-1.398 0.697-0.636 1.156-1.516 1.306-2.445 0.182-1.129 0.035-2.343-0.57-3.329-0.5-0.826-1.297-1.441-2.179-1.815-0.935-0.397-1.958-0.563-2.971-0.546-0.1 0.003-0.195 0.042-0.287 0.077-0.965 0.393-1.933 0.778-2.901 1.167-0.053-0.294-0.099-0.589-0.138-0.885 0.808-0.323 1.617-0.645 2.423-0.972-0.807-0.442-1.614-0.883-2.423-1.321 0.039-0.296 0.085-0.591 0.138-0.885 0.917 0.405 1.829 0.823 2.71 1.302 0.139 0.088 0.303 0.11 0.465 0.098 1.459-0.048 2.919-0.080 4.377-0.133-1.209-0.756-2.429-1.493-3.639-2.248-0.148-0.089-0.297-0.202-0.478-0.196-1.023-0.028-2.044-0.115-3.060-0.229 0.102-0.28 0.21-0.557 0.321-0.833 0.916 0.041 1.832 0.088 2.748 0.125-0.48-0.79-0.968-1.575-1.453-2.363 0.185-0.234 0.371-0.466 0.565-0.693 0.525 0.735 1.076 1.453 1.542 2.227 0.121 0.19 0.203 0.432 0.427 0.527 1.314 0.7 2.62 1.414 3.935 2.112-0.682-1.288-1.387-2.565-2.072-3.852-0.067-0.135-0.158-0.262-0.293-0.335-0.861-0.532-1.693-1.108-2.508-1.708 0.228-0.193 0.46-0.379 0.693-0.564 0.779 0.494 1.554 0.993 2.335 1.485-0.027-0.926-0.062-1.852-0.093-2.778 0.276-0.112 0.555-0.219 0.835-0.321 0.113 1.016 0.2 2.036 0.23 3.058-0.004 0.162 0.087 0.299 0.169 0.43 0.765 1.219 1.507 2.454 2.278 3.67 0.056-1.452 0.084-2.906 0.134-4.359 0.011-0.151-0.003-0.305-0.083-0.436-0.481-0.893-0.913-1.811-1.322-2.739 0.295-0.052 0.591-0.098 0.887-0.138 0.43 0.819 0.861 1.637 1.292 2.454 0.433-0.817 0.862-1.636 1.293-2.454zM15.499 26.904c-0.179 0.541-0.35 1.086-0.53 1.627-0.025 0.1-0.086 0.214-0.017 0.312 0.175 0.334 0.369 0.659 0.548 0.992 0.181-0.332 0.373-0.658 0.549-0.992 0.065-0.098 0.008-0.212-0.018-0.312-0.181-0.541-0.35-1.086-0.532-1.627zM14.388 27.324c-0.531 0.418-1.085 0.809-1.605 1.24-0.111 0.245-0.060 0.542-0.099 0.808 0.357-0.203 0.714-0.405 1.072-0.605 0.086-0.056 0.198-0.101 0.229-0.209 0.145-0.407 0.264-0.825 0.402-1.235zM16.62 27.333c0.11 0.364 0.23 0.724 0.344 1.087 0.037 0.098 0.060 0.22 0.163 0.273 0.391 0.235 0.794 0.449 1.189 0.678-0.023-0.257-0.016-0.519-0.069-0.773-0.066-0.085-0.157-0.147-0.24-0.213-0.465-0.347-0.921-0.706-1.387-1.053zM3.189 15.369v0 0c-1.066 0.62-2.125 1.252-3.186 1.88 1.061 0.627 2.121 1.259 3.187 1.88-0.169-1.247-0.167-2.513-0.001-3.76zM27.81 15.367v0 0c0.105 0.779 0.145 1.566 0.119 2.352-0.011 0.314-0.037 0.628-0.063 0.941-0.013 0.157-0.037 0.312-0.055 0.468 1.066-0.62 2.125-1.252 3.187-1.88-2.122-1.258-1.060-0.631-3.187-1.881v0zM26.646 11.521c0.537 1.134 0.916 2.343 1.122 3.581 0.826-0.936 1.648-1.875 2.472-2.812-1.198-0.255-2.395-0.519-3.594-0.769zM4.354 11.521v0c-1.2 0.25-2.396 0.513-3.594 0.769 0.824 0.937 1.645 1.876 2.471 2.812 0.208-1.238 0.585-2.446 1.123-3.58zM28.038 7.817c-1.217 0.138-2.435 0.274-3.651 0.417 0.85 0.912 1.577 1.938 2.14 3.051l1.511-3.468zM2.962 7.817c0.502 1.157 1.008 2.312 1.511 3.468 0.563-1.113 1.29-2.139 2.14-3.051-1.217-0.142-2.434-0.279-3.651-0.417zM6.392 4.269v0c0.129 1.262 0.267 2.522 0.401 3.783 0.868-0.878 1.863-1.626 2.944-2.221-1.113-0.523-2.228-1.046-3.344-1.562zM24.607 4.269c-1.116 0.516-2.23 1.039-3.343 1.562 1.081 0.594 2.076 1.343 2.944 2.221 0.132-1.261 0.271-2.521 0.4-3.783zM20.288 1.991c-0.909 0.848-1.811 1.703-2.719 2.553 1.203 0.217 2.373 0.611 3.463 1.163-0.494-2.478-0.245-1.239-0.745-3.717zM10.712 1.991c-0.252 1.238-0.499 2.478-0.745 3.717 1.091-0.553 2.26-0.947 3.463-1.163-0.909-0.848-1.808-1.707-2.719-2.553zM15.5 1.2v0 0c-1.214 2.202-0.608 1.101-1.819 3.304 1.205-0.177 2.434-0.177 3.639 0-1.212-2.203-0.606-1.102-1.819-3.304v0z"></path>
</svg>
