<!-- Generated by IcoMoon.io -->
<svg version="1.1" xmlns="http://www.w3.org/2000/svg" width="32" height="32" viewBox="0 0 32 32">
<title>shm</title>
<path fill="#444" d="M27.852 24.982c1.477-1.505 1.957-2.546 1.468-3.296-0.306-0.467-0.985-0.825-1.676-0.997-1.236-0.305-2.511-0.026-3.707 0.454-1.933 0.777-3.656 2.077-4.934 3.685-0.29-0.914-0.793-1.75-1.482-2.479-0.582-0.615-1.302-1.154-2.088-1.302-0.784-0.148-1.637 0.092-2.434 0.34-0.485 0.149-0.948 0.303-1.4 0.511 0.111-0.273 0.188-0.548 0.257-0.838 0.139-0.613 0.228-1.301-0.013-1.831-0.354-0.77-1.413-1.206-2.374-1.274-0.81-0.059-1.55 0.144-2.221 0.493 0.375-0.375 0.669-0.808 0.921-1.29 0.264-0.495 0.488-1.045 0.419-1.575-0.080-0.637-0.574-1.25-1.16-1.575-0.737-0.411-1.625-0.367-2.467-0.302-0.478 0.037-0.943 0.079-1.404 0.181 0.434-0.365 0.788-0.805 1.091-1.296 0.279-0.445 0.512-0.933 0.516-1.448 0.006-0.609-0.308-1.253-0.779-1.649-0.536-0.45-1.208-0.793-1.919-0.911-0.806-0.133-1.681-0.218-2.476-0.202 1.949-0.904 4.155-1.361 6.317-1.365 1.891-0.005 3.776 0.499 5.549 1.199 3.479 1.377 6.643 4.062 8.904 6.588 0.655-0.619 1.207-1.33 1.885-1.701 0.569-0.309 1.169-0.534 1.811-0.6 1.1-0.113 2.327 0.229 3.529 0.912-3.346 0.831-5.017 2.936-5.232 4.263 0.897-0.181 1.933-0.177 3.065-0.135 2.066 0.074 4.451 0.266 5.578 1.907 0.505 0.735 0.757 1.763 0.478 2.567-0.244 0.705-0.895 1.239-1.552 1.699-0.788 0.555-1.583 0.997-2.472 1.265z"></path>
</svg>
