<!-- Generated by IcoMoon.io -->
<svg version="1.1" xmlns="http://www.w3.org/2000/svg" width="32" height="32" viewBox="0 0 32 32">
<title>sld2</title>
<path fill="#444" d="M1.945 18.497c0.615 0.295 1.366 0.257 1.838-0.286 0.2-0.23 0.322-0.484 0.365-0.763 0.307-1.986-1.349-2.836-2.661-3.921-1.179-0.975-1.656-2.254-1.433-3.837 0.407-2.883 3.064-3.432 5.289-2.061 0.035 0.022 0.055 0.061 0.051 0.102l-0.179 2.022c-0 0.002-0.001 0.004-0.001 0.006-0.005 0.017-0.022 0.028-0.038 0.024-0.002-0.001-0.004-0.001-0.006-0.002-0.005-0.002-0.011-0.009-0.018-0.020-0.005-0.007-0.008-0.015-0.009-0.024-0.149-0.836-0.674-1.765-1.567-1.971-0.417-0.097-0.803-0.003-1.158 0.282-0.823 0.659-0.826 1.934-0.263 2.741 0.423 0.604 1.098 1.061 1.744 1.546 1.184 0.889 1.978 1.863 2.093 3.404 0.138 1.833-0.561 3.582-2.534 3.998-1.195 0.252-2.309-0.090-3.374-0.753-0.014-0.009-0.021-0.022-0.019-0.038l0.189-3.183c0.001-0.014 0.013-0.025 0.027-0.025 0.012 0 0.023 0.008 0.026 0.019 0.282 1.009 0.699 2.29 1.639 2.74zM11.417 10.996c0.139-0.973 0.606-2.19 1.559-2.648 0.689-0.331 1.559-0.191 2.215 0.172 0.015 0.009 0.023 0.022 0.023 0.039v1.586c0 0 0 0 0 0 0 0.018-0.015 0.034-0.034 0.034-0.010 0-0.020-0.005-0.026-0.012-0.008-0.009-0.015-0.023-0.020-0.042-0.086-0.309-0.214-0.6-0.383-0.871-0.212-0.341-0.686-0.674-1.056-0.407-0.755 0.549-0.633 3.499-0.575 4.332 0.035 0.512 0.154 1.701 0.825 1.69 0.799-0.014 1.073-0.776 1.235-1.423 0.002-0.008 0.009-0.013 0.017-0.013 0.010 0 0.017 0.008 0.018 0.017l-0.002 1.573c0 0.019-0.009 0.032-0.026 0.039-0.537 0.211-1.073 0.422-1.607 0.631-0.397 0.155-1.020-0.314-1.254-0.604-0.886-1.097-1.101-2.738-0.907-4.094zM8.671 16.455c0.997-0.303 2.025-0.653 2.267-1.741 0.001-0.011 0.010-0.019 0.021-0.019s0.021 0.010 0.021 0.021c0 0.001-0 0.002-0 0.002v1.947c0 0.020-0.009 0.034-0.028 0.042l-3.935 1.545c-0.022 0.009-0.033 0.001-0.033-0.022v-4.356c0-0.034-0.020-0.066-0.051-0.082l-0.849-0.424c-0.003-0.002-0.006-0.004-0.008-0.006-0.009-0.010-0.007-0.026 0.004-0.035 0.003-0.002 0.006-0.004 0.009-0.005l0.857-0.236c0.025-0.007 0.038-0.024 0.038-0.050v-4.17c-0-0.038-0.018-0.075-0.049-0.098l-0.521-0.392c-0.006-0.004-0.009-0.011-0.009-0.018 0-0.012 0.010-0.022 0.022-0.022h4.342c0.025 0 0.038 0.013 0.038 0.038l-0.006 1.594c0 0.001 0 0.001 0 0.002 0 0.015-0.012 0.028-0.028 0.028-0.013 0-0.024-0.009-0.027-0.022-0.138-0.529-0.478-0.672-1.013-0.722-0.352-0.033-0.706-0.044-1.061-0.031-0.017 0.001-0.026 0.010-0.026 0.027v3.308c0 0.023 0.011 0.032 0.034 0.025l1.788-0.482c0.029-0.008 0.038 0.002 0.025 0.029l-0.423 0.904c-0.009 0.020-0.025 0.034-0.046 0.040l-1.341 0.412c-0.022 0.007-0.036 0.027-0.036 0.049v2.899c0 0.018 0.009 0.025 0.027 0.019zM24.648 8.902c-0.349 0.020-0.724-0.029-0.863 0.395-0.003 0.007-0.009 0.012-0.017 0.012-0.010 0-0.018-0.008-0.018-0.017v-0.907c0-0.023 0.019-0.041 0.042-0.041l2.793-0.004c0.031 0 0.057 0.026 0.057 0.057l0.007 0.896c0 0.004-0.001 0.009-0.004 0.012-0.006 0.008-0.019 0.010-0.028 0.003-0.003-0.003-0.006-0.006-0.007-0.011-0.102-0.396-0.525-0.403-0.897-0.38-0.016 0.001-0.023 0.010-0.023 0.025v2.889c0 0 0 0.001 0 0.001-0 0.014-0.012 0.025-0.026 0.024-0 0-0.001-0-0.001-0l-0.932-0.046c-0.027-0.002-0.041-0.016-0.041-0.043v-2.827c0-0.028-0.014-0.041-0.042-0.039zM17.578 8.956v5.14c0 0.019-0.012 0.037-0.030 0.043l-1.217 0.473c-0.031 0.012-0.046 0.001-0.046-0.032v-5.708c0-0.036-0.014-0.065-0.043-0.087l-0.52-0.397c-0.005-0.004-0.007-0.009-0.007-0.015 0-0.011 0.009-0.020 0.019-0.020 0.882-0.001 1.766-0.002 2.652-0.002 0.805-0.001 1.792 0.35 1.781 1.336-0.006 0.562-0.282 0.966-0.827 1.213-0.019 0.009-0.024 0.022-0.016 0.041l0.945 2.094c0.009 0.019 0.003 0.033-0.016 0.041l-1.232 0.486c-0.020 0.008-0.034 0.002-0.043-0.018l-1.19-2.58c-0.002-0.004-0.003-0.009-0.003-0.014 0-0.018 0.015-0.032 0.032-0.032 0.001 0 0.003 0 0.004 0 0.649 0.079 1.076-0.443 1.101-1.047 0.034-0.809-0.666-0.99-1.319-0.942-0.017 0.001-0.025 0.010-0.025 0.028zM22.022 10.173l0.977-0.266c0.002-0.001 0.005-0.001 0.007-0.001 0.014 0 0.025 0.011 0.025 0.025 0 0.003-0 0.005-0.001 0.007l-0.143 0.446c-0.006 0.017-0.019 0.031-0.036 0.036l-0.803 0.246c-0.019 0.006-0.028 0.019-0.029 0.038l-0.021 1.026c0 0 0 0 0 0.001 0 0.015 0.013 0.028 0.028 0.028 0.003 0 0.007-0.001 0.010-0.002 0.407-0.153 1.010-0.359 1.104-0.855 0.004-0.018 0.014-0.024 0.031-0.020 0.006 0.002 0.011 0.004 0.015 0.008s0.005 0.009 0.005 0.016c0.002 0.323 0.002 0.646 0.001 0.97-0 0.020-0.010 0.034-0.029 0.042l-2.145 0.846c-0.001 0.001-0.003 0.001-0.004 0.001-0.012 0.002-0.023-0.006-0.026-0.018-0-0.001-0-0.003-0-0.004v-1.819c0-0.021-0.009-0.036-0.028-0.045l-0.491-0.246c-0.032-0.016-0.032-0.030 0.003-0.041l0.489-0.153c0.018-0.005 0.027-0.018 0.027-0.037v-1.536c0-0.019-0.009-0.037-0.025-0.048l-0.547-0.396c-0.006-0.004-0.009-0.011-0.009-0.019 0-0.013 0.010-0.023 0.023-0.024h2.716c0.031 0 0.046 0.015 0.046 0.046v0.906c0 0 0 0.001 0 0.001 0 0.009-0.007 0.016-0.016 0.016-0.007 0-0.014-0.005-0.016-0.012-0.169-0.476-0.746-0.39-1.152-0.388-0.020 0-0.030 0.010-0.030 0.031l0.013 1.168c0 0.013 0.011 0.025 0.025 0.025 0.002 0 0.005-0 0.007-0.001zM28.337 11.501c0.163 0.056 0.222-0.020 0.246-0.171 0.13-0.838 0.222-1.68 0.274-2.525 0.002-0.029 0.013-0.033 0.033-0.012 0.017 0.018 0.024 0.044 0.021 0.079-0.004 0.038-0.005 0.064-0.004 0.079 0.055 0.846 0.152 1.688 0.29 2.524 0.003 0.020 0.021 0.035 0.042 0.035l0.166 0.002c0.023 0 0.036-0.011 0.041-0.034 0.123-0.672 0.203-1.349 0.239-2.032 0.001-0.018 0.011-0.025 0.028-0.022 0.005 0.001 0.010 0.003 0.014 0.007s0.005 0.010 0.005 0.018c0.038 0.702 0.137 1.395 0.294 2.079 0.025 0.111 0.094 0.178 0.205 0.168 0.023-0.002 0.037-0.014 0.043-0.035 0.13-0.471 0.214-0.976 0.25-1.515 0.001-0.020 0.012-0.021 0.032-0.004 0.008 0.007 0.013 0.015 0.014 0.026l0.183 1.887c0.002 0.019-0.009 0.037-0.027 0.045-1.288 0.536-1.737 1.743-1.833 3.044-0 0-0 0.001-0 0.001-0.001 0.007-0.008 0.012-0.015 0.010-0.001-0-0.001-0-0.002-0l-0.014-0.005c-0.006-0.002-0.010-0.006-0.010-0.013-0.078-1.297-0.556-2.513-1.826-3.036-0.019-0.008-0.028-0.022-0.026-0.042 0.065-0.766 0.127-1.403 0.186-1.914 0.002-0.015 0.008-0.024 0.021-0.026 0.017-0.004 0.026 0.004 0.027 0.021 0.022 0.524 0.108 1.036 0.257 1.537 0.007 0.026 0.023 0.034 0.048 0.023l0.133-0.056c0.021-0.009 0.036-0.027 0.041-0.049 0.152-0.665 0.255-1.384 0.308-2.156 0.001-0.015 0.008-0.023 0.022-0.024 0.016-0.001 0.024 0.006 0.025 0.022 0.036 0.682 0.116 1.359 0.239 2.031 0.003 0.016 0.013 0.027 0.028 0.032zM23.261 13.616c-0.034 0.004-0.051 0.023-0.051 0.057-0.009 2.598-0.007 5.189 0.005 7.772 0.003 0.511 0.023 0.862 0.061 1.053 0.154 0.769 0.566 1.461 1.304 1.794 0.009 0.004 0.015 0.013 0.015 0.023 0 0.014-0.011 0.025-0.025 0.025l-4.041-0.001c-0.081 0-0.091-0.027-0.032-0.082l0.56-0.51c0.011-0.010 0.018-0.025 0.018-0.041v-9.932c0-0.020 0.009-0.033 0.028-0.040 0.658-0.257 1.315-0.512 1.971-0.765 0.178-0.069 0.316-0.11 0.413-0.122 1.026-0.13 2.236-0.182 3.17 0.238 1.092 0.49 1.439 2.186 0.997 3.21-0.331 0.768-1.13 1.303-1.929 1.495-0.020 0.005-0.025 0.016-0.015 0.034 0.685 1.292 1.42 2.554 2.205 3.784 0.808 1.266 2.417 3.27 4.059 3.367 0.015 0.002 0.027 0.015 0.027 0.030s-0.011 0.027-0.025 0.030c-2.585 0.309-4.891-0.725-6.34-2.875-0.165-0.244-0.36-0.584-0.585-1.019-0.572-1.104-1.087-2.252-1.546-3.444-0.014-0.036-0.002-0.055 0.038-0.058 1.158-0.073 1.784-1.109 1.917-2.158 0.182-1.434-0.956-2.012-2.198-1.867zM16.754 24.317c-0 0-0 0-0.001 0-0.020 0-0.036-0.016-0.036-0.036 0-0.010 0.004-0.020 0.012-0.027l0.576-0.52c0.014-0.013 0.021-0.029 0.021-0.049l-0.030-7.783c0-0.011-0.007-0.021-0.018-0.025l-0.772-0.278c-0.013-0.005-0.021-0.017-0.021-0.030s0.008-0.025 0.021-0.030l3.365-1.311c0.003-0.001 0.007-0.002 0.010-0.002 0.014 0 0.026 0.012 0.026 0.026 0 0.005-0.001 0.009-0.004 0.013l-0.585 1.013c-0.004 0.007-0.006 0.015-0.006 0.024v8.36c0 0.034 0.015 0.067 0.041 0.089l0.542 0.476c0.045 0.040 0.039 0.067-0.019 0.083-0.029 0.008-0.041 0.017-0.073 0.016-1.021-0.004-2.037-0.007-3.048-0.008zM12.995 21.975l-2.426 0.662c-0.019 0.005-0.033 0.016-0.043 0.032-0.164 0.266-0.298 0.518-0.4 0.756-0.178 0.413 0.263 0.742 0.601 0.837 0.013 0.004 0.023 0.016 0.023 0.030 0 0.017-0.014 0.031-0.031 0.031-0 0-0 0-0 0l-2.37 0.002c-0.003 0-0.006-0-0.009-0.001-0.023-0.005-0.038-0.028-0.033-0.051 0.001-0.003 0.002-0.006 0.003-0.009l2.807-6.051c0.010-0.022 0.004-0.037-0.019-0.045l-0.584-0.22c-0.013-0.005-0.021-0.017-0.021-0.031s0.009-0.026 0.021-0.031l3.623-1.416c0.003-0.001 0.007-0.002 0.010-0.002 0.015 0 0.026 0.012 0.026 0.026 0 0.004-0.001 0.008-0.003 0.012l-0.489 0.982c-0.009 0.017-0.010 0.034-0.004 0.051l1.052 3.148c0.007 0.021 0.030 0.033 0.051 0.027l0.732-0.205c0.003-0.001 0.006-0.001 0.009-0.001 0.018 0 0.033 0.015 0.033 0.033 0 0.006-0.002 0.012-0.005 0.018l-0.539 0.849c-0.020 0.031-0.024 0.069-0.012 0.104 0.228 0.676 0.454 1.354 0.681 2.035 0.089 0.269 0.324 0.493 0.501 0.708 0.005 0.006 0.008 0.014 0.008 0.022 0 0.019-0.016 0.035-0.035 0.035l-2.433 0.018c-0.020 0-0.038-0.013-0.043-0.032l-0.626-2.29c-0.006-0.024-0.031-0.038-0.054-0.032l-0 0zM12.183 18.794c-0.003-0.008-0.010-0.014-0.019-0.014s-0.015 0.005-0.018 0.012l-1.201 2.936c-0.001 0.002-0.001 0.005-0.001 0.007 0 0.011 0.009 0.020 0.020 0.020 0.002 0 0.004-0 0.005-0.001l1.861-0.524c0.010-0.003 0.017-0.014 0.014-0.025l-0.661-2.411zM2.035 20.782c-0.005-0.003-0.009-0.008-0.012-0.013-0.008-0.016-0-0.035 0.016-0.043 0.005-0.003 0.011-0.004 0.017-0.003 0.967 0.112 1.879-0.054 2.738-0.498 0.005-0.003 0.010-0.004 0.016-0.004 0.018 0 0.034 0.015 0.034 0.034 0 0 0 0 0 0l-0.014 3.089c0 0 0 0 0 0.001 0 0.021 0.017 0.038 0.038 0.038 0.314 0.001 0.633 0.002 0.957 0.001 1.081-0.002 1.791-0.537 2.46-1.324 0.004-0.006 0.011-0.009 0.018-0.009 0.012 0 0.021 0.010 0.021 0.021 0 0.004-0.001 0.008-0.004 0.012l-1.131 2.206c-0.010 0.021-0.032 0.034-0.055 0.034h-4.983c-0 0-0 0-0.001 0-0.016 0-0.030-0.014-0.030-0.030 0-0.009 0.004-0.017 0.010-0.022l0.531-0.488c0.040-0.037 0.063-0.089 0.063-0.143v-2.389c-0-0.019-0.010-0.037-0.026-0.048l-0.663-0.423z"></path>
</svg>
