<!-- Generated by IcoMoon.io -->
<svg version="1.1" xmlns="http://www.w3.org/2000/svg" width="32" height="32" viewBox="0 0 32 32">
<title>snc</title>
<path fill="#444" d="M0.894 11.637c-0.563-1.615-0.528-3.436 0.115-5.023 0.962 1.895 2.397 3.513 3.997 4.895 0.685 0.588 1.403 1.138 2.162 1.628-0.787 0.573-1.513 1.225-2.216 1.898-1.198-0.5-2.303-1.232-3.203-2.169-0.344-0.362-0.686-0.749-0.854-1.228zM30.992 6.613c-0.777 1.531-1.868 2.884-3.098 4.075-0.943 0.907-1.964 1.736-3.063 2.448 0.787 0.574 1.511 1.228 2.218 1.897 1.405-0.59 2.691-1.495 3.654-2.682 0.356-0.431 0.509-0.981 0.631-1.516 0.308-1.399 0.198-2.894-0.342-4.223zM13.042 12.388c0.996-0.147 2.033 0.412 2.489 1.303 0.16 0.362 0.749 0.375 0.926 0.022 0.255-0.5 0.683-0.909 1.197-1.135 0.643-0.288 1.413-0.281 2.046 0.031 0.795 0.377 1.359 1.202 1.401 2.083 0.015 0.171-0.027 0.354 0.057 0.512 0.096 0.201 0.333 0.314 0.55 0.276 0.146-0.019 0.256-0.125 0.383-0.189 0.542-0.288 1.205-0.355 1.787-0.151 0.543 0.185 1.006 0.588 1.272 1.095 0.239 0.449 0.317 0.979 0.222 1.479-0.098 0.535-0.398 1.027-0.825 1.363-0.376 0.301-0.853 0.471-1.335 0.481-0.526 0.015-1.054-0.165-1.462-0.496-0.487-0.389-0.802-0.987-0.842-1.61-0.009-0.141 0.005-0.292-0.067-0.421-0.102-0.202-0.348-0.308-0.567-0.26-0.117 0.019-0.21 0.099-0.306 0.161-0.515 0.336-1.16 0.461-1.764 0.348-0.741-0.13-1.402-0.626-1.742-1.296-0.14-0.285-0.552-0.346-0.793-0.158-0.081 0.057-0.125 0.149-0.172 0.234-0.302 0.55-0.825 0.973-1.426 1.154-0.719 0.224-1.536 0.091-2.145-0.353-0.196-0.15-0.498-0.131-0.673 0.044-0.108 0.103-0.158 0.253-0.154 0.4-0.003 0.537-0.204 1.070-0.557 1.474-0.337 0.391-0.811 0.662-1.32 0.747-0.499 0.086-1.027-0.001-1.469-0.248-0.488-0.272-0.87-0.73-1.046-1.26-0.175-0.52-0.155-1.105 0.061-1.61 0.243-0.577 0.733-1.045 1.322-1.256 0.655-0.241 1.42-0.139 1.999 0.248 0.229 0.161 0.583 0.092 0.727-0.15 0.092-0.133 0.076-0.3 0.079-0.453 0.005-0.587 0.238-1.165 0.629-1.602 0.389-0.438 0.936-0.734 1.518-0.808zM10.46 11.834c0.098 0.371 0.074 0.781-0.101 1.126-0.217 0.421-0.632 0.743-1.104 0.815-0.543 0.085-1.096-0.061-1.587-0.289-1.195 0.834-2.26 1.842-3.229 2.927 0.166 0.442 0.364 0.871 0.567 1.297 0.551 1.141 1.149 2.258 1.762 3.367 0.715-0.232 1.484-0.406 2.232-0.242 0.559 0.125 1.087 0.423 1.467 0.855 0.49 0.59 0.584 1.414 0.467 2.149 0.501 0.285 1.045 0.484 1.597 0.642 0.774 0.219 1.569 0.356 2.367 0.448 0.496 0.050 0.996 0.111 1.495 0.065 0.86-0.062 1.717-0.184 2.557-0.379 0.732-0.175 1.46-0.404 2.117-0.777-0.125-0.765-0.011-1.633 0.533-2.223 0.462-0.474 1.097-0.783 1.759-0.835 0.638-0.053 1.271 0.099 1.873 0.296 0.531-0.959 1.047-1.925 1.537-2.905 0.284-0.577 0.566-1.157 0.793-1.759-0.971-1.083-2.035-2.094-3.231-2.927-0.481 0.226-1.021 0.367-1.555 0.295-0.484-0.064-0.914-0.39-1.135-0.82-0.176-0.346-0.199-0.755-0.102-1.128-1.218-0.591-2.452-1.153-3.723-1.62-0.27 0.605-0.745 1.205-1.43 1.336-0.4 0.048-0.833 0.053-1.196-0.149-0.469-0.254-0.793-0.71-1.008-1.188-1.272 0.467-2.506 1.029-3.723 1.621zM0.234 14.478c0.229 0.812 0.531 1.662 1.179 2.238 0.497 0.417 1.045 0.77 1.611 1.088 0.535 0.294 1.095 0.56 1.699 0.676-0.329-0.725-0.659-1.45-0.988-2.175 0.27-0.296 0.54-0.593 0.811-0.889-0.713-0.352-1.401-0.758-2.048-1.22-0.633-0.454-1.235-0.973-1.674-1.623-0.239-0.346-0.42-0.731-0.532-1.137-0.392 0.964-0.346 2.056-0.057 3.041zM31.709 11.437c-0.164 0.614-0.506 1.167-0.926 1.639-0.474 0.536-1.049 0.973-1.641 1.37-0.54 0.358-1.103 0.683-1.685 0.969 0.27 0.296 0.54 0.592 0.811 0.889-0.33 0.725-0.661 1.45-0.99 2.175 0.56-0.107 1.084-0.346 1.584-0.613 0.563-0.306 1.105-0.652 1.607-1.051 0.374-0.293 0.654-0.69 0.856-1.116 0.269-0.567 0.446-1.175 0.577-1.787 0.153-0.821 0.128-1.696-0.193-2.475zM0.645 16.627c-0.027 0.973 0.177 1.975 0.71 2.801 0.297 0.46 0.704 0.85 1.18 1.122 0.375 0.213 0.769 0.394 1.176 0.535 0.795 0.271 1.668 0.406 2.495 0.202-0.413-0.768-0.829-1.536-1.244-2.304-0.433-0.091-0.857-0.221-1.272-0.377-1.141-0.429-2.216-1.078-3.046-1.979zM28.971 18.329c-0.619 0.285-1.267 0.514-1.935 0.653-0.414 0.768-0.829 1.536-1.243 2.305 0.751 0.188 1.544 0.088 2.277-0.132 0.535-0.165 1.051-0.395 1.529-0.687 0.554-0.348 0.995-0.863 1.279-1.451 0.358-0.739 0.498-1.57 0.477-2.387-0.668 0.723-1.494 1.286-2.384 1.699zM2.549 21.113c0.37 0.954 1.122 1.746 2.047 2.179 0.657 0.313 1.387 0.449 2.111 0.46 0.348 0.008 0.699-0.026 1.038-0.112 0.888-0.222 1.677-0.802 2.166-1.574-0.33-0.438-0.873-0.679-1.413-0.707-0.482-0.034-0.945 0.125-1.405 0.243-0.593 0.167-1.204 0.291-1.823 0.284-0.958-0.001-1.889-0.316-2.721-0.774zM27.333 21.843c-0.76 0.105-1.533 0.002-2.269-0.198-0.413-0.103-0.82-0.241-1.245-0.282-0.642-0.055-1.333 0.178-1.728 0.705 0.59 0.939 1.629 1.583 2.738 1.67 0.83 0.057 1.681-0.056 2.448-0.388 0.983-0.42 1.788-1.24 2.176-2.238-0.658 0.36-1.371 0.634-2.119 0.73zM10.294 22.479c-0.472 0.777-1.272 1.316-2.137 1.563-0.941 0.275-1.944 0.23-2.898 0.046 0.445 0.51 1.031 0.89 1.676 1.095 0.769 0.248 1.6 0.253 2.388 0.1 0.648-0.123 1.27-0.355 1.869-0.629-0.333-0.198-0.666-0.396-0.998-0.594 0.171-0.506 0.218-1.056 0.1-1.58zM21.704 22.479c-0.106 0.524-0.070 1.074 0.105 1.579-0.333 0.199-0.667 0.397-1.001 0.596 0.707 0.323 1.449 0.585 2.222 0.686 0.794 0.107 1.624 0.038 2.365-0.28 0.515-0.215 0.978-0.55 1.345-0.971-0.548 0.098-1.105 0.167-1.663 0.145-0.78-0.026-1.566-0.216-2.234-0.628-0.462-0.28-0.853-0.669-1.139-1.127z"></path>
</svg>
