<!-- Generated by IcoMoon.io -->
<svg version="1.1" xmlns="http://www.w3.org/2000/svg" width="32" height="32" viewBox="0 0 32 32">
<path fill="#444" d="M8.951 2.336c0.801-0.463 1.81-0.656 2.689-0.302 0.809 0.308 1.393 1.053 1.609 1.878 2.488 1.079 5.087 1.91 7.741 2.468 1.894 0.391 3.824 0.636 5.76 0.623 0.129 0.014 0.237-0.070 0.35-0.119 0.771-0.378 1.714-0.48 2.511-0.119 0.722 0.319 1.245 0.994 1.467 1.742 0.046 0.147 0.062 0.311 0.167 0.433 0.383 0.509 0.552 1.158 0.534 1.789-0.034 1.138-0.665 2.24-1.633 2.84-0.45 0.288-0.974 0.439-1.502 0.48-0.242 0.099-0.476 0.218-0.729 0.286 0.34 1.549 0.283 3.192-0.213 4.702-0.445 1.386-1.258 2.634-2.269 3.674 0.442 0.423 0.714 0.99 0.853 1.58 0.287 0.384 0.499 0.828 0.571 1.306 0.203 1.209-0.339 2.486-1.298 3.236-0.509 0.407-1.145 0.641-1.793 0.682-0.489 0.234-1.015 0.418-1.564 0.413-0.656 0.017-1.319-0.225-1.796-0.677-0.078-0.074-0.159-0.149-0.263-0.183-2.376-0.972-4.792-1.85-7.249-2.595-2.301-0.689-4.634-1.298-7.013-1.644-0.83 0.448-1.876 0.579-2.741 0.153-0.549-0.257-0.956-0.736-1.233-1.264-0.359-0.156-0.707-0.348-0.988-0.624-0.65-0.606-0.986-1.521-0.907-2.404 0.078-0.988 0.643-1.919 1.475-2.454 0.752-0.493 1.713-0.67 2.585-0.431 0.728-0.416 1.616-0.623 2.438-0.385 0.662 0.18 1.223 0.646 1.561 1.237 1.196-1.091 2.095-2.518 2.494-4.093 0.423-1.647 0.342-3.414-0.182-5.029-0.685 0.268-1.472 0.337-2.166 0.060-0.631-0.237-1.133-0.747-1.418-1.351-0.794-0.291-1.448-0.939-1.732-1.737-0.36-0.959-0.172-2.080 0.427-2.903 0.753-1.070 2.189-1.624 3.459-1.267zM2.245 19.045c-0.754 0.406-1.236 1.289-1.121 2.145 0.060 0.533 0.369 1.025 0.812 1.325-0.122-1.379 0.465-2.761 1.422-3.738-0.386-0.001-0.775 0.078-1.113 0.269zM8.758 3.858c-0.706 0.735-1.154 1.728-1.19 2.75-0.010 0.589 0.134 1.217 0.554 1.652 0.349 0.359 0.879 0.49 1.365 0.413-0.617-0.416-0.986-1.14-1.015-1.878-0.060-1.253 0.717-2.503 1.871-2.999 0.502-0.224 1.075-0.279 1.61-0.145-0.258-0.405-0.697-0.694-1.182-0.718-0.775-0.049-1.49 0.389-2.014 0.925zM7.325 3.479c-0.87 0.356-1.453 1.324-1.317 2.261 0.063 0.526 0.371 1.006 0.807 1.304-0.113-1.378 0.463-2.759 1.423-3.735-0.312-0.002-0.626 0.045-0.913 0.17zM21.795 23.966c-0.783 0.782-1.272 1.881-1.242 2.994 0.016 0.598 0.231 1.234 0.725 1.603 0.338 0.259 0.781 0.324 1.194 0.269-0.405-0.281-0.724-0.685-0.878-1.155-0.412-1.202 0.111-2.597 1.105-3.352 0.624-0.487 1.467-0.714 2.244-0.509-0.261-0.405-0.699-0.699-1.187-0.725-0.748-0.045-1.443 0.366-1.961 0.874zM10.414 4.599c-0.832 0.505-1.348 1.548-1.126 2.515 0.116 0.526 0.514 1.006 1.055 1.119 2.224 0.274 4.41 0.793 6.566 1.395 2.675 0.756 5.302 1.676 7.882 2.71-0.401-1.513 0.193-3.155 1.245-4.267-1.411-0.038-2.817-0.196-4.206-0.438-2.682-0.473-5.307-1.248-7.841-2.24-0.719-0.309-1.421-0.661-2.135-0.983-0.475-0.169-1.015-0.070-1.439 0.19zM11.349 9.108c0.354 0.902 0.504 1.872 0.56 2.835 0.073 1.323-0.087 2.67-0.553 3.914-0.572 1.553-1.628 2.898-2.916 3.926 1.868 0.793 3.794 1.446 5.757 1.961 2.569 0.662 5.217 1.107 7.877 1.056 0.637-0.354 1.387-0.557 2.113-0.393 1.125-1.018 2.036-2.299 2.496-3.753 0.47-1.469 0.488-3.077 0.057-4.557-0.542-0.054-1.026-0.342-1.402-0.724-1.699-0.722-3.435-1.362-5.182-1.961-2.878-0.967-5.808-1.804-8.806-2.303zM28.87 9.050c-1.124 0.258-1.912 1.467-1.745 2.6 0.059 0.409 0.263 0.808 0.604 1.052 0.402 0.294 0.954 0.325 1.413 0.155 0.914-0.335 1.552-1.285 1.532-2.255-0.014-0.46-0.174-0.938-0.525-1.251-0.341-0.308-0.838-0.399-1.28-0.301zM26.555 8.623c-0.703 0.762-1.135 1.789-1.121 2.832 0.013 0.596 0.211 1.234 0.695 1.615 0.341 0.276 0.8 0.349 1.226 0.295-0.66-0.445-1.034-1.236-1.022-2.024 0.006-1.176 0.727-2.322 1.796-2.818 0.523-0.251 1.131-0.32 1.695-0.178-0.278-0.438-0.77-0.734-1.295-0.727-0.772 0.007-1.464 0.458-1.975 1.006zM5.084 18.52c-0.74 0.271-1.334 0.844-1.75 1.501-0.49 0.791-0.767 1.753-0.596 2.681 0.094 0.515 0.37 1.033 0.847 1.283 0.308 0.174 0.675 0.202 1.020 0.156-0.647-0.434-1.017-1.208-1.018-1.978-0.012-1.159 0.677-2.297 1.712-2.821 0.541-0.283 1.182-0.373 1.777-0.22-0.151-0.207-0.324-0.407-0.55-0.531-0.436-0.25-0.979-0.241-1.441-0.071zM5.814 19.927c-0.889 0.375-1.497 1.333-1.457 2.296 0.022 0.546 0.292 1.117 0.798 1.367 0.289 0.158 0.625 0.143 0.941 0.195 1.905 0.275 3.78 0.718 5.635 1.228 2.778 0.772 5.506 1.719 8.181 2.794-0.405-1.512 0.191-3.157 1.245-4.267-1.57-0.043-3.134-0.233-4.677-0.523-2.55-0.486-5.047-1.236-7.459-2.192-0.649-0.293-1.297-0.592-1.938-0.902-0.397-0.184-0.868-0.162-1.268 0.003zM23.89 24.542c-1.024 0.294-1.736 1.368-1.665 2.422 0.031 0.432 0.21 0.868 0.55 1.148 0.41 0.351 1.020 0.398 1.512 0.204 0.907-0.346 1.534-1.3 1.507-2.269-0.020-0.453-0.179-0.924-0.527-1.231-0.368-0.328-0.91-0.409-1.377-0.275z"></path>
</svg>
