<!-- Generated by IcoMoon.io -->
<svg version="1.1" xmlns="http://www.w3.org/2000/svg" width="32" height="32" viewBox="0 0 32 32">
<path fill="#444" d="M8.758 3.858c0.524-0.536 1.239-0.974 2.014-0.925 0.485 0.024 0.924 0.314 1.182 0.718-0.535-0.134-1.108-0.079-1.61 0.145-1.154 0.496-1.932 1.746-1.871 2.999 0.028 0.737 0.397 1.462 1.015 1.878-0.486 0.078-1.016-0.054-1.365-0.413-0.42-0.435-0.565-1.063-0.554-1.652 0.036-1.022 0.484-2.015 1.19-2.75zM7.325 3.479c0.287-0.126 0.601-0.173 0.913-0.17-0.96 0.977-1.536 2.358-1.423 3.735-0.435-0.298-0.743-0.778-0.807-1.304-0.136-0.937 0.447-1.905 1.317-2.261zM10.414 4.599c0.424-0.259 0.964-0.358 1.439-0.19 0.714 0.322 1.416 0.673 2.135 0.983 2.534 0.993 5.159 1.767 7.841 2.24 1.39 0.242 2.796 0.4 4.206 0.438-1.052 1.113-1.646 2.754-1.245 4.267-2.579-1.034-5.206-1.954-7.882-2.71-2.156-0.602-4.342-1.121-6.566-1.395-0.541-0.113-0.94-0.593-1.055-1.119-0.222-0.966 0.294-2.009 1.126-2.515zM26.554 8.624c0.511-0.548 1.203-0.998 1.975-1.006 0.525-0.007 1.017 0.289 1.295 0.727-0.565-0.143-1.172-0.073-1.695 0.178-1.069 0.497-1.79 1.642-1.796 2.818-0.012 0.788 0.362 1.579 1.022 2.024-0.426 0.054-0.885-0.019-1.226-0.295-0.485-0.381-0.683-1.018-0.695-1.615-0.014-1.043 0.418-2.070 1.121-2.832zM28.87 9.050c0.442-0.097 0.938-0.006 1.28 0.301 0.352 0.312 0.512 0.791 0.525 1.251 0.019 0.97-0.619 1.921-1.532 2.255-0.459 0.17-1.010 0.139-1.413-0.155-0.341-0.244-0.545-0.643-0.604-1.052-0.167-1.134 0.62-2.342 1.745-2.6zM11.349 9.108c2.998 0.499 5.928 1.336 8.806 2.303 1.746 0.6 3.483 1.239 5.182 1.961 0.376 0.383 0.859 0.671 1.402 0.724 0.432 1.48 0.413 3.089-0.057 4.557-0.461 1.454-1.371 2.735-2.496 3.753-0.726-0.164-1.475 0.039-2.113 0.393-2.66 0.051-5.308-0.394-7.877-1.056-1.963-0.514-3.889-1.168-5.757-1.961 1.288-1.028 2.343-2.373 2.916-3.926 0.466-1.245 0.626-2.591 0.553-3.914-0.056-0.963-0.206-1.933-0.56-2.835zM5.084 18.521c0.462-0.17 1.006-0.179 1.441 0.071 0.227 0.125 0.399 0.325 0.55 0.531-0.595-0.153-1.236-0.063-1.777 0.22-1.035 0.524-1.724 1.662-1.712 2.821 0.001 0.77 0.371 1.545 1.018 1.978-0.346 0.046-0.712 0.018-1.020-0.156-0.478-0.25-0.754-0.768-0.847-1.283-0.171-0.929 0.106-1.89 0.596-2.681 0.416-0.657 1.010-1.231 1.75-1.501zM2.245 19.046c0.338-0.192 0.727-0.27 1.113-0.269-0.957 0.978-1.544 2.36-1.422 3.738-0.443-0.3-0.752-0.791-0.812-1.325-0.115-0.855 0.367-1.738 1.121-2.145zM5.814 19.927c0.4-0.165 0.871-0.187 1.268-0.003 0.641 0.31 1.289 0.609 1.938 0.902 2.413 0.956 4.91 1.705 7.459 2.192 1.543 0.291 3.107 0.48 4.677 0.523-1.054 1.11-1.65 2.754-1.245 4.267-2.675-1.074-5.403-2.022-8.181-2.794-1.855-0.51-3.73-0.953-5.635-1.228-0.316-0.052-0.652-0.037-0.941-0.195-0.506-0.25-0.777-0.821-0.798-1.367-0.039-0.963 0.569-1.922 1.457-2.296zM21.795 23.966c0.518-0.509 1.213-0.919 1.961-0.874 0.488 0.026 0.926 0.32 1.187 0.725-0.776-0.206-1.619 0.022-2.244 0.509-0.994 0.754-1.517 2.149-1.105 3.352 0.154 0.47 0.474 0.874 0.878 1.155-0.413 0.054-0.857-0.010-1.194-0.269-0.494-0.369-0.709-1.005-0.725-1.603-0.030-1.113 0.459-2.212 1.242-2.994zM23.89 24.543c0.467-0.134 1.009-0.053 1.377 0.275 0.348 0.307 0.507 0.777 0.527 1.231 0.026 0.969-0.6 1.922-1.507 2.269-0.492 0.194-1.102 0.148-1.512-0.204-0.34-0.281-0.52-0.716-0.55-1.148-0.071-1.054 0.641-2.129 1.665-2.422z"></path>
</svg>
