<!-- Generated by IcoMoon.io -->
<svg version="1.1" xmlns="http://www.w3.org/2000/svg" width="29" height="32" viewBox="0 0 29 32">
<path fill="#444" d="M13.434 6.969c0.384-0.164 0.768-0.328 1.152-0.494 0.482 0.209 0.966 0.412 1.448 0.622 0.491 0.215 0.776 0.777 0.716 1.302-0.344 3.681-0.684 7.363-1.033 11.044-0.752-0.087-1.513-0.083-2.266-0.001-0.346-3.681-0.688-7.363-1.030-11.045-0.044-0.411 0.114-0.84 0.426-1.114 0.166-0.153 0.383-0.226 0.587-0.314zM9.038 10.575c0.54-0.382 1.085-0.757 1.626-1.136 0.421 3.44 0.85 6.879 1.27 10.32-0.827 0.248-1.618 0.614-2.34 1.088-0.544-2.443-1.090-4.884-1.634-7.327-0.233-1.079 0.182-2.286 1.079-2.945zM18.505 9.439c0.543 0.383 1.093 0.758 1.635 1.143 0.892 0.658 1.303 1.864 1.070 2.939-0.543 2.443-1.089 4.884-1.633 7.327-0.721-0.477-1.513-0.843-2.342-1.088 0.419-3.441 0.848-6.881 1.269-10.321zM20.684 21.791c0.78-2.65 1.571-5.296 2.357-7.944 0.346 0.354 0.686 0.714 1.032 1.070 0.332 0.339 0.543 0.797 0.575 1.27 0.014 2.616-0.977 5.202-2.673 7.185-0.363-0.578-0.796-1.112-1.29-1.582zM5.001 15.022c0.37-0.398 0.753-0.783 1.13-1.175 0.783 2.647 1.572 5.292 2.357 7.939-0.492 0.475-0.926 1.008-1.292 1.586-0.998-1.188-1.777-2.569-2.215-4.059-0.279-0.944-0.433-1.926-0.462-2.91-0.022-0.499 0.158-1.001 0.483-1.38z"></path>
</svg>
