<!-- Generated by IcoMoon.io -->
<svg version="1.1" xmlns="http://www.w3.org/2000/svg" width="29" height="32" viewBox="0 0 29 32">
<path fill="#444" d="M12.529 2.139c0.159-0.082 0.324-0.157 0.498-0.204 0.551 1.145 1.036 2.321 1.559 3.479 0.525-1.157 1.001-2.337 1.559-3.479 0.19 0.048 0.366 0.137 0.54 0.225 3.446 1.655 6.891 3.308 10.337 4.962-0.79 0.567-1.402 1.38-1.705 2.305-0.29 0.865-0.314 1.805-0.142 2.697 0.086 0.466 0.262 0.909 0.354 1.375 0.49 2.486 0.433 5.159-0.633 7.496-0.974 2.179-2.696 3.922-4.576 5.346-1.795 1.359-3.752 2.486-5.737 3.541-2.052-1.095-4.079-2.262-5.924-3.686-1.209-0.939-2.339-1.998-3.241-3.239-1.030-1.399-1.717-3.050-1.954-4.773-0.206-1.441-0.13-2.91 0.111-4.342 0.065-0.389 0.161-0.772 0.278-1.149 0.332-1.113 0.354-2.34-0.060-3.434-0.317-0.856-0.903-1.603-1.642-2.135 3.459-1.662 6.919-3.321 10.379-4.983zM5.001 15.023c-0.325 0.379-0.504 0.881-0.483 1.38 0.029 0.984 0.182 1.966 0.462 2.91 0.439 1.49 1.217 2.872 2.215 4.059 0.366-0.578 0.801-1.11 1.292-1.586-0.784-2.647-1.573-5.292-2.357-7.939-0.377 0.392-0.759 0.777-1.13 1.175zM13.433 6.969c-0.204 0.088-0.421 0.161-0.587 0.314-0.312 0.274-0.47 0.703-0.426 1.114 0.342 3.682 0.685 7.364 1.030 11.045 0.753-0.082 1.514-0.086 2.266 0.001 0.349-3.681 0.688-7.363 1.033-11.044 0.060-0.525-0.225-1.087-0.716-1.302-0.481-0.21-0.966-0.413-1.448-0.622-0.383 0.166-0.768 0.33-1.152 0.494zM9.038 10.575c-0.897 0.659-1.312 1.866-1.079 2.945 0.544 2.443 1.090 4.884 1.634 7.327 0.722-0.474 1.513-0.841 2.34-1.088-0.42-3.44-0.849-6.879-1.27-10.32-0.542 0.379-1.086 0.754-1.626 1.136zM18.505 9.439c-0.422 3.44-0.85 6.88-1.269 10.321 0.828 0.246 1.621 0.612 2.342 1.088 0.543-2.443 1.090-4.884 1.633-7.327 0.234-1.074-0.178-2.281-1.070-2.939-0.542-0.386-1.092-0.761-1.635-1.143zM20.684 21.791c0.495 0.47 0.928 1.004 1.29 1.582 1.697-1.983 2.687-4.569 2.673-7.185-0.032-0.474-0.243-0.932-0.575-1.27-0.346-0.355-0.686-0.715-1.032-1.070-0.786 2.648-1.577 5.294-2.357 7.944zM27.738 8.379c0.229-0.201 0.481-0.4 0.788-0.459 0.446 0.421 0.641 1.050 0.622 1.652-0.023 0.883-0.367 1.72-0.778 2.489-0.597-0.526-1.24-1.002-1.924-1.408 0.162-0.874 0.64-1.675 1.291-2.274zM0.486 8.090c0.066-0.068 0.124-0.19 0.239-0.15 0.289 0.083 0.528 0.281 0.747 0.479 0.629 0.594 1.090 1.379 1.251 2.234-0.682 0.41-1.328 0.884-1.925 1.41-0.41-0.77-0.757-1.606-0.778-2.49-0.016-0.526 0.126-1.072 0.466-1.482z"></path>
</svg>
