<!-- Generated by IcoMoon.io -->
<svg version="1.1" xmlns="http://www.w3.org/2000/svg" width="27" height="32" viewBox="0 0 27 32">
<title>sok</title>
<path fill="#444" d="M13.805 25.23h4.572v-5.343h-4.572v5.343zM13.805 19.050h4.572v-5.34h-4.572v5.34zM12.861 19.887h-4.576v5.343h4.576v-5.343zM12.861 13.71h-4.576v5.34h4.576v-5.34zM14.273 3.662c0.534 0.345 1.083 0.471 1.505 1.128 0.438 0.684 0.339 1.458 0.339 1.458h2.279c0 0 1.502 1.88 2.803 3.334 2.128 2.378 5.463 1.686 5.463 1.686l-0.684 1.823h-5.358v12.425h1.595c0 0 0.399 0.75 0.399 1.334 0 0.588-0.411 1.341-0.411 1.341h-0.6l-0.962 1.601h-14.62l-0.962-1.601h-0.6c0 0-0.411-0.753-0.411-1.341 0-0.584 0.402-1.334 0.402-1.334h1.592v-12.425h-5.355l-0.683-1.823c0 0 3.33 0.692 5.46-1.686 1.304-1.454 2.803-3.334 2.803-3.334h2.279c0 0-0.099-0.774 0.338-1.458 0.423-0.656 0.972-0.782 1.505-1.128 0.798-0.515 0.939-1.88 0.939-1.88s0.147 1.365 0.944 1.88z"></path>
</svg>
