<!-- Generated by IcoMoon.io -->
<svg version="1.1" xmlns="http://www.w3.org/2000/svg" width="32" height="32" viewBox="0 0 32 32">
<path fill="#444" d="M13.553 2.769c1.978-0.32 4.027-0.237 5.966 0.279 1.484 0.392 2.994 0.676 4.511 0.906-1.495 0.096-2.981 0.31-4.442 0.639-1.080 1.612-2.32 3.116-3.695 4.486-1.378-1.364-2.616-2.868-3.692-4.48-1.464-0.341-2.958-0.545-4.457-0.646 1.129-0.162 2.249-0.375 3.362-0.621 0.818-0.178 1.619-0.432 2.448-0.562zM0 7.644c3.5-1.853 7.601-2.576 11.516-1.937 1.406 1.754 2.84 3.495 4.375 5.142 1.522-1.654 2.977-3.37 4.357-5.144 2.817-0.446 5.737-0.225 8.452 0.649 1.062 0.339 2.092 0.773 3.080 1.288-0.701 0.763-1.299 1.623-1.745 2.559-0.931-0.755-1.994-1.339-3.113-1.764-1.123-0.406-2.365-0.526-3.535-0.265-0.909 0.194-1.685 0.749-2.374 1.349-0.831 0.718-1.498 1.6-2.139 2.486-1.217 1.723-2.205 3.603-2.985 5.562-1.051-2.634-2.471-5.142-4.342-7.284-0.691-0.734-1.465-1.419-2.383-1.855-1.023-0.452-2.187-0.473-3.274-0.279-0.841 0.153-1.626 0.508-2.383 0.894-0.625 0.326-1.215 0.717-1.765 1.157-0.442-0.938-1.043-1.795-1.743-2.558zM2.298 11.569c1.079-1.099 2.473-1.948 4.016-2.164-0.593 1.516-0.842 3.199-0.511 4.806 0.149 0.72 0.388 1.426 0.758 2.063-1.023 0.947-2.050 1.89-3.075 2.834 0.009-2.553-0.362-5.119-1.188-7.539zM25.465 9.404c1.544 0.217 2.933 1.069 4.017 2.162-0.829 2.419-1.193 4.985-1.196 7.537-1.023-0.942-2.047-1.884-3.068-2.827 0.644-1.14 0.938-2.467 0.903-3.772-0.031-1.062-0.273-2.111-0.655-3.1zM14.314 16.571c0.57 1.12 1.096 2.262 1.575 3.423 0.479-1.162 1.002-2.306 1.578-3.423 0.228 0.343 0.498 0.656 0.795 0.94-0.126 3.708-0.932 7.393-2.374 10.812-1.442-3.419-2.244-7.103-2.376-10.81 0.299-0.285 0.568-0.601 0.801-0.942zM4.457 19.975c0.705-1.122 1.569-2.146 2.568-3.018 0.593 0.768 1.393 1.405 2.34 1.665 1.022 0.284 2.145 0.156 3.082-0.339 0.206 2.318 0.642 4.615 1.319 6.843-2.578-2.495-5.813-4.32-9.308-5.151zM24.752 16.958c1 0.871 1.866 1.894 2.569 3.018-3.495 0.825-6.719 2.658-9.304 5.139 0.674-2.223 1.111-4.519 1.313-6.833 0.974 0.515 2.151 0.633 3.203 0.304 0.896-0.278 1.653-0.892 2.22-1.628z"></path>
</svg>
