<!-- Generated by IcoMoon.io -->
<svg version="1.1" xmlns="http://www.w3.org/2000/svg" width="30" height="32" viewBox="0 0 30 32">
<path fill="#444" d="M0.754 7.138c0.376-1.967 1.193-3.894 2.526-5.404-0.415 1.116-0.84 2.233-1.076 3.402-0.294 1.456-0.472 2.946-0.386 4.432 0.048 0.201 0.002 0.487 0.187 0.637 2.245 1.66 4.567 3.217 6.795 4.898-2.4 1.191-4.791 2.401-7.195 3.587-0.184 3.16 0.445 6.323 1.603 9.255 0.302 0.788 0.67 1.547 1.010 2.319-3.155-3.206-4.513-7.891-4.167-12.314 2.177-0.98 4.348-1.974 6.519-2.968-1.975-1.486-3.991-2.916-5.989-4.371 0.005-1.158-0.068-2.332 0.172-3.474zM26.569 1.737c1.035 1.147 1.724 2.568 2.194 4.030 0.482 1.565 0.585 3.218 0.501 4.845-1.989 1.467-4.017 2.88-5.987 4.373 2.167 0.998 4.337 1.991 6.513 2.969 0.248 2.39-0.121 4.824-0.921 7.082-0.687 1.948-1.799 3.748-3.239 5.23 1.050-2.213 1.934-4.53 2.321-6.958 0.274-1.524 0.348-3.076 0.297-4.621-2.398-1.176-4.785-2.374-7.169-3.576 0.226-0.307 0.59-0.47 0.887-0.698 1.902-1.343 3.791-2.705 5.689-4.053 0.355-0.142 0.325-0.539 0.365-0.852 0.199-2.663-0.457-5.314-1.449-7.768zM6.061 12.015c-0.053-1.785 0.474-3.53 1.198-5.143-0.005 1.398-0.202 2.81 0.039 4.199 0.035 0.219 0.092 0.461 0.287 0.593 1.61 1.212 3.204 2.447 4.807 3.668-1.905 1.083-3.848 2.1-5.771 3.152-0.579 2.649-0.567 5.431 0.173 8.046-1.141-1.626-1.722-3.597-1.867-5.566-0.083-0.942-0.108-1.898 0.066-2.831 0.028-0.148 0.095-0.298 0.256-0.344 1.651-0.922 3.395-1.671 5.049-2.589-1.415-1.057-2.816-2.136-4.237-3.187zM22.591 6.872c0.731 1.614 1.23 3.361 1.196 5.147-1.414 1.048-2.818 2.112-4.218 3.177 0.156 0.114 0.324 0.208 0.493 0.301 1.534 0.76 3.079 1.502 4.586 2.315 0.276 0.135 0.206 0.493 0.254 0.751 0.319 2.763-0.293 5.651-1.828 7.983 0.651-2.632 0.804-5.415 0.153-8.062-1.509-0.811-3.013-1.63-4.516-2.45-0.419-0.222-0.848-0.431-1.237-0.705 1.573-1.225 3.161-2.433 4.752-3.636 0.221-0.149 0.292-0.427 0.33-0.676 0.219-1.374 0.080-2.765 0.035-4.146zM11.115 13.365c0.611-0.379 1.223-0.755 1.836-1.129 0.005 0.202 0.014 0.409 0.019 0.612 1.302 0.005 2.605 0.005 3.907 0 0.003-0.206 0.012-0.407 0.017-0.611 0.618 0.373 1.233 0.75 1.85 1.125-0.652 0.521-1.305 1.041-1.983 1.527-0.231 0.177-0.555 0.083-0.82 0.129-0.79 0.012-1.58 0.021-2.37-0.014-0.396 0.066-0.659-0.262-0.951-0.457-0.492-0.407-1.025-0.762-1.506-1.181zM13.204 15.812c1.129-0.101 2.27-0.081 3.4-0.025 0.827 0.384 1.599 0.886 2.426 1.276-0.471 1.781-0.985 3.549-1.469 5.326-0.136 0.461-0.195 0.98-0.56 1.333-0.69 0.739-1.351 1.508-2.076 2.214-0.748-0.729-1.426-1.525-2.143-2.283-0.214-0.209-0.288-0.511-0.361-0.79-0.529-1.935-1.072-3.867-1.605-5.801 0.817-0.377 1.571-0.876 2.388-1.25z"></path>
</svg>
