<!-- Generated by IcoMoon.io -->
<svg version="1.1" xmlns="http://www.w3.org/2000/svg" width="29" height="32" viewBox="0 0 29 32">
<title>spg</title>
<path fill="#444" d="M8.265 25.258l6.135-3.252 6.135 3.252-6.135 4.453-6.135-4.453zM7.32 24.265l1.378-7.913-5.718-5.59 7.881-1.169 3.54-7.208 3.54 7.208 7.881 1.169-5.718 5.59 1.378 7.913-7.080-3.764-7.080 3.764zM2.339 11.996l4.982 4.869-1.201 6.824-6.119-4.453 2.339-7.24zM26.461 11.996l2.339 7.24-6.119 4.453-1.201-6.824 4.982-4.869zM13.038 2.289l-3.027 6.167-6.84 1.025 2.307-7.192h7.56zM23.322 2.289l2.307 7.192-6.84-1.025-3.027-6.167h7.56z"></path>
</svg>
