<!-- Generated by IcoMoon.io -->
<svg version="1.1" xmlns="http://www.w3.org/2000/svg" width="28" height="32" viewBox="0 0 28 32">
<path fill="#444" d="M4.56 13.421c1.582 0.31 3.118 0.918 4.438 1.852 0.655 0.468 1.259 1.018 1.738 1.667-0.087 0.215-0.268 0.37-0.442 0.514-0.451 0.353-0.977 0.609-1.53 0.757-0.649 0.174-1.352 0.177-1.987-0.052-0.572-0.215-1.114-0.545-1.51-1.017-0.391-0.461-0.608-1.045-0.697-1.637-0.106-0.69-0.072-1.392-0.009-2.085zM19.165 14.989c1.221-0.772 2.597-1.29 4.013-1.567 0.070 0.79 0.107 1.598-0.066 2.379-0.125 0.572-0.394 1.12-0.815 1.532-0.366 0.365-0.822 0.631-1.303 0.815-0.685 0.255-1.451 0.24-2.146 0.028-0.564-0.171-1.102-0.45-1.545-0.842-0.117-0.116-0.259-0.238-0.294-0.403 0.581-0.781 1.336-1.421 2.155-1.942z"></path>
</svg>
