<!-- Generated by IcoMoon.io -->
<svg version="1.1" xmlns="http://www.w3.org/2000/svg" width="28" height="32" viewBox="0 0 28 32">
<path fill="#444" d="M13.463 2.14c1.818-0.054 3.647 0.249 5.347 0.9 2.396 0.91 4.524 2.504 6.078 4.542 1.658 2.157 2.654 4.814 2.817 7.53 0.142 2.187-0.24 4.407-1.116 6.416-0.714 1.646-1.754 3.148-3.038 4.4-1.28 1.249-2.802 2.25-4.46 2.923-2.267 0.927-4.782 1.223-7.204 0.876-2.768-0.389-5.403-1.652-7.447-3.558-1.968-1.819-3.392-4.22-4.032-6.823-0.512-2.067-0.541-4.251-0.084-6.331 0.593-2.732 2.049-5.266 4.099-7.166 2.077-1.943 4.766-3.22 7.587-3.591 0.483-0.064 0.969-0.104 1.455-0.117zM7.803 5.318c0.211 0.416 0.424 0.83 0.636 1.246 1.040 0.176 2.128 0.061 3.105-0.341 0.832-0.337 1.575-0.879 2.163-1.556 0.005-0.316 0.001-0.632 0.002-0.949-2.061 0.027-4.114 0.578-5.906 1.599zM14.027 4.665c0.47 0.539 1.034 0.996 1.668 1.327 1.094 0.58 2.381 0.781 3.601 0.572 0.212-0.415 0.424-0.831 0.636-1.247-1.792-1.022-3.846-1.573-5.908-1.599 0.002 0.315-0.002 0.631 0.002 0.947zM11.902 6.41c-1.020 0.471-2.173 0.647-3.287 0.499 0.569 1.115 1.137 2.231 1.705 3.347 0.016 0.044 0.069 0.043 0.105 0.059 0.55 0.17 1.15 0.185 1.705 0.027 0.626-0.173 1.186-0.561 1.578-1.077 0-1.377 0.001-2.754 0-4.132-0.517 0.532-1.132 0.967-1.806 1.277zM14.026 5.131c-0 1.377-0 2.754 0 4.131 0.363 0.474 0.863 0.844 1.431 1.033 0.626 0.215 1.322 0.207 1.946-0.011 0.571-1.126 1.148-2.25 1.721-3.376-0.64 0.085-1.293 0.065-1.926-0.060-1.201-0.23-2.321-0.842-3.172-1.718zM3.011 10.257c0.215 0.141 0.431 0.281 0.647 0.422 0.166-0.379 0.355-0.754 0.631-1.065 0.089 0.271 0.201 0.536 0.344 0.784 0.649-0.226 1.253-0.574 1.778-1.016 0.799-0.671 1.405-1.568 1.734-2.558 0.007-0.037 0.038-0.079 0.013-0.116-0.209-0.41-0.418-0.82-0.627-1.229-1.901 1.147-3.484 2.815-4.519 4.78zM19.607 6.65c-0.019 0.042-0.057 0.087-0.027 0.135 0.216 0.665 0.556 1.29 0.997 1.832 0.656 0.81 1.54 1.434 2.523 1.781 0.149-0.246 0.257-0.513 0.347-0.785 0.277 0.31 0.465 0.687 0.631 1.065 0.216-0.141 0.433-0.281 0.649-0.422-1.038-1.963-2.619-3.635-4.522-4.78-0.199 0.391-0.398 0.782-0.599 1.172zM4.813 10.671c0.36 0.488 0.866 0.84 1.378 1.151 0.466 0.279 0.939 0.546 1.413 0.81 0.472-0.041 0.935-0.199 1.322-0.475 0.572-0.401 0.97-1.021 1.149-1.691-0.568-1.113-1.135-2.226-1.703-3.339-0.6 1.622-1.935 2.951-3.559 3.545zM17.661 10.465c0.173 0.639 0.541 1.232 1.072 1.634 0.404 0.311 0.9 0.494 1.408 0.532 0.482-0.277 0.969-0.546 1.444-0.834 0.499-0.305 0.99-0.65 1.341-1.127-1.626-0.594-2.957-1.924-3.563-3.544-0.567 1.113-1.134 2.226-1.702 3.338zM12.569 10.526c-0.64 0.26-1.361 0.308-2.032 0.146 0.658 1.291 1.316 2.582 1.975 3.873 0.45 0.057 0.919-0.136 1.197-0.495 0.001-1.433 0-2.867 0-4.301-0.32 0.335-0.71 0.604-1.14 0.778zM14.025 9.75c0.001 1.433-0.001 2.866 0.001 4.299 0.283 0.358 0.751 0.559 1.205 0.493 0.653-1.292 1.315-2.579 1.971-3.87-0.453 0.108-0.929 0.128-1.388 0.042-0.679-0.121-1.311-0.469-1.789-0.964zM2.040 12.681c-0.348 1.232-0.489 2.519-0.444 3.797 0.484-0 0.968 0 1.451-0-0.181-0.745-0.24-1.517-0.193-2.282 0.077-1.098 0.292-2.189 0.681-3.221-0.223-0.146-0.447-0.29-0.67-0.437-0.34 0.687-0.62 1.404-0.826 2.142zM24.2 10.976c0.381 0.998 0.595 2.054 0.676 3.118 0.060 0.798-0.002 1.605-0.184 2.385 0.482 0 0.965 0 1.447 0 0.089-2.045-0.353-4.108-1.266-5.939-0.223 0.147-0.449 0.29-0.672 0.437zM10.27 10.89c-0.139 0.365-0.334 0.71-0.588 1.007-0.421 0.498-1.007 0.854-1.645 0.99 0.185 0.113 0.371 0.223 0.555 0.338 1.020 0.619 1.967 1.363 2.788 2.229 0.335-0.198 0.625-0.474 0.826-0.808-0.63-1.245-1.27-2.486-1.902-3.73-0.008-0.006-0.025-0.019-0.034-0.026zM15.533 14.642c0.197 0.339 0.493 0.611 0.828 0.811 0.591-0.624 1.246-1.185 1.948-1.68 0.449-0.32 0.923-0.602 1.395-0.888-0.466-0.097-0.904-0.313-1.269-0.617-0.443-0.367-0.771-0.861-0.974-1.397-0.65 1.252-1.283 2.514-1.927 3.77zM4.56 13.421c-0.063 0.692-0.097 1.394 0.009 2.085 0.089 0.592 0.306 1.176 0.697 1.637 0.396 0.471 0.938 0.802 1.51 1.017 0.635 0.229 1.339 0.226 1.987 0.052 0.553-0.148 1.079-0.404 1.53-0.757 0.174-0.144 0.356-0.299 0.442-0.514-0.479-0.649-1.083-1.2-1.738-1.667-1.32-0.933-2.855-1.542-4.438-1.852zM19.165 14.989c-0.818 0.522-1.573 1.161-2.155 1.942 0.034 0.166 0.177 0.288 0.294 0.403 0.442 0.392 0.98 0.671 1.545 0.842 0.695 0.211 1.461 0.227 2.146-0.028 0.481-0.185 0.937-0.451 1.303-0.815 0.421-0.413 0.69-0.96 0.815-1.532 0.172-0.781 0.136-1.588 0.066-2.379-1.416 0.277-2.792 0.795-4.013 1.567zM12.674 14.869c0.271 0.528 0.54 1.056 0.809 1.584 0.071-0.041 0.147-0.074 0.225-0.098 0-0.618-0-1.236 0-1.855-0.289 0.238-0.66 0.371-1.035 0.369zM14.025 16.354c0.080 0.024 0.157 0.057 0.23 0.099 0.269-0.528 0.539-1.055 0.806-1.584-0.375 0.002-0.745-0.134-1.035-0.37 0.001 0.618 0 1.237 0 1.855zM11.598 15.689c0.352 0.403 0.702 0.817 0.968 1.284-0.184 0.267-0.382 0.524-0.594 0.77 0.401-0.215 0.802-0.433 1.202-0.651-0.006-0.132 0.018-0.266 0.081-0.383-0.289-0.582-0.589-1.16-0.883-1.74-0.206 0.29-0.473 0.533-0.774 0.721zM14.482 16.699c0.061 0.122 0.091 0.256 0.084 0.392 0.399 0.218 0.798 0.435 1.199 0.651-0.21-0.251-0.417-0.506-0.595-0.78 0.277-0.458 0.616-0.874 0.971-1.273-0.301-0.188-0.569-0.431-0.774-0.722-0.294 0.577-0.589 1.155-0.885 1.731zM13.735 16.679c-0.126 0.047-0.225 0.163-0.242 0.297-0.037 0.202 0.118 0.411 0.321 0.437 0.241 0.045 0.476-0.191 0.433-0.432-0.026-0.233-0.294-0.391-0.511-0.302zM1.614 16.794c0.126 1.976 0.738 3.92 1.773 5.609 0.271-0.148 0.542-0.294 0.812-0.443 0.259-1.059 0.217-2.194-0.141-3.226-0.035-0.091-0.057-0.19-0.118-0.269-0.375-0.498-0.633-1.076-0.809-1.672h-1.518zM24.607 16.795c-0.169 0.558-0.406 1.1-0.743 1.579-0.040 0.059-0.089 0.112-0.118 0.178-0.417 1.079-0.485 2.286-0.208 3.408 0.27 0.148 0.54 0.295 0.81 0.443 1.035-1.689 1.646-3.633 1.776-5.609-0.506 0-1.012-0-1.518 0zM11.621 18.295c0.341 0.249 0.633 0.568 0.826 0.944 0.302-0.578 0.605-1.155 0.906-1.733-0.028-0.037-0.055-0.073-0.082-0.11-0.55 0.3-1.1 0.598-1.65 0.898zM14.383 17.506c0.302 0.578 0.606 1.155 0.907 1.734 0.195-0.376 0.485-0.7 0.829-0.946-0.55-0.3-1.101-0.597-1.651-0.897-0.029 0.036-0.057 0.072-0.085 0.109zM12.729 19.387c0.753-0.133 1.528-0.132 2.281 0-0.296-0.567-0.592-1.134-0.889-1.701-0.162 0.058-0.342 0.058-0.503 0-0.296 0.567-0.593 1.133-0.889 1.7zM11.13 18.589c-0.745 0.655-1.622 1.187-2.594 1.414-0.163 0.030-0.296 0.135-0.442 0.206 1.115 0.423 2.035 1.271 2.65 2.283 0.506-0.966 1.009-1.932 1.517-2.897-0.183-0.47-0.531-0.868-0.96-1.131-0.062 0.035-0.12 0.076-0.171 0.125zM15.475 19.594c0.507 0.966 1.011 1.932 1.518 2.899 0.612-1.014 1.537-1.863 2.653-2.284-0.124-0.059-0.237-0.141-0.367-0.186-0.948-0.21-1.815-0.703-2.549-1.329-0.097-0.078-0.181-0.173-0.294-0.229-0.429 0.264-0.777 0.661-0.962 1.13zM4.492 19.078c0.228 0.874 0.244 1.797 0.076 2.683 1.003-0.545 2.007-1.090 3.011-1.634-0.129-0.001-0.257-0.006-0.386-0.010-0.982-0.033-1.968-0.373-2.701-1.039zM20.16 20.127c1.004 0.545 2.009 1.089 3.012 1.635-0.176-0.885-0.149-1.809 0.075-2.683-0.83 0.757-1.98 1.077-3.087 1.048zM12.54 19.747c-0.456 0.872-0.914 1.743-1.37 2.615 1.028-0.432 2.164-0.569 3.271-0.493 0.727 0.055 1.451 0.207 2.125 0.493-0.455-0.872-0.911-1.743-1.366-2.615-0.872-0.192-1.788-0.193-2.66-0zM4.875 21.957c0.78 0.265 1.514 0.67 2.145 1.199 0.882 0.735 1.557 1.718 1.905 2.813 0.548-1.049 1.098-2.096 1.647-3.145-0.62-1.107-1.626-2.047-2.861-2.406-0.945 0.513-1.891 1.025-2.836 1.539zM17.167 22.821c0.546 1.050 1.095 2.099 1.645 3.147 0.238-0.745 0.626-1.44 1.129-2.038 0.766-0.913 1.795-1.593 2.923-1.974-0.946-0.513-1.891-1.028-2.839-1.538-1.233 0.362-2.239 1.296-2.858 2.403zM3.558 22.672c1.19 1.833 2.87 3.355 4.835 4.317 0.104-0.206 0.214-0.41 0.32-0.615-0.23-0.896-0.691-1.729-1.317-2.41-0.777-0.856-1.802-1.478-2.912-1.798-0.307 0.171-0.618 0.335-0.926 0.506zM12.574 22.278c-0.573 0.107-1.14 0.275-1.653 0.557-0.564 1.083-1.132 2.165-1.699 3.247 1.594-0.573 3.298-0.818 4.989-0.781 1.463 0.037 2.926 0.284 4.304 0.781-0.566-1.084-1.135-2.165-1.701-3.248-0.649-0.351-1.376-0.537-2.106-0.623-0.71-0.077-1.431-0.060-2.134 0.067zM23.217 22.175c-0.948 0.281-1.833 0.78-2.553 1.46-0.787 0.737-1.369 1.693-1.641 2.738 0.107 0.208 0.217 0.413 0.327 0.62 1.957-0.976 3.644-2.485 4.83-4.322-0.286-0.157-0.574-0.311-0.86-0.469-0.032-0.015-0.066-0.045-0.103-0.027zM9.003 26.504c-0.112 0.208-0.218 0.419-0.329 0.628 2.271 1.067 4.873 1.4 7.342 0.962 1.053-0.184 2.078-0.513 3.049-0.961-0.113-0.209-0.212-0.428-0.337-0.628-1.637-0.655-3.415-0.924-5.173-0.889-1.552 0.034-3.106 0.315-4.551 0.888z"></path>
</svg>
