<!-- Generated by IcoMoon.io -->
<svg version="1.1" xmlns="http://www.w3.org/2000/svg" width="28" height="32" viewBox="0 0 28 32">
<title>ss1</title>
<path fill="#444" d="M0.025 1.097c3.601-0.187 5.648 0.24 8.362 0.981-2.605 2.447-3.278 6.662-1.478 9.766 0.663 1.228 1.695 2.207 2.842 2.982-0.010 0.79-0.010 1.58-0.010 2.368-2.686 2.742-2.164 7.738 1.004 9.886-1.104-2.498-0.864-6.147 1.827-7.521 0.005-2.227 0.005-4.455 0-6.683-1.328-0.377-2.531-1.241-3.188-2.475-1.042-1.838-0.777-4.31 0.65-5.872 1.32-1.537 3.629-2.1 5.505-1.325 2.087 0.798 3.428 3.104 3.132 5.314-0.196 2.062-1.792 3.836-3.782 4.358-0.003 2.23-0.005 4.463 0.003 6.695 2.684 1.374 2.928 5.029 1.807 7.519 3.176-2.146 3.706-7.157 1.009-9.899-0.005-0.795-0.005-1.593 0.003-2.388 2.179-1.338 3.673-3.734 3.831-6.295 0.191-2.373-0.775-4.758-2.457-6.423 2.722-0.752 5.559-1.213 8.388-0.986 0 8.451-0.003 16.903 0.003 25.354-3.262 0.11-6.565 0.515-9.624 1.705-1.565 0.599-3.023 1.516-4.119 2.801-1.3-1.601-3.204-2.549-5.13-3.176-2.768-0.889-5.678-1.241-8.576-1.328 0-8.454 0-16.905 0-25.359zM13.146 6.14c-1.313 0.393-1.708 2.286-0.663 3.173 0.91 0.93 2.651 0.451 2.995-0.793 0.535-1.366-0.948-2.921-2.332-2.38z"></path>
</svg>
