<!-- Generated by IcoMoon.io -->
<svg version="1.1" xmlns="http://www.w3.org/2000/svg" width="29" height="32" viewBox="0 0 29 32">
<title>ss2</title>
<path fill="#444" d="M2.27 1.3c0.106 0.003 0.206-0.042 0.312-0.035 0.316 0.005 0.632-0.005 0.948 0.006 0.095 0.055 0.211 0.019 0.315 0.034 1.023 0.104 2.003 0.455 2.93 0.888 0.686 0.34 1.353 0.715 2.006 1.114 0.041 0.020 0.083 0.035 0.127 0.047 0.24-0.417 0.537-0.804 0.885-1.139 0.401-0.385 0.895-0.676 1.435-0.815 0.269-0.052 0.54-0.116 0.816-0.093-0.096 0.204-0.171 0.417-0.212 0.64-0.056 0.194-0.042 0.398-0.042 0.597-0.001 0.1 0.014 0.2 0.044 0.295 0.026 0.115 0.046 0.235 0.11 0.337 0.124 0.219 0.357 0.342 0.578 0.442 0.442 0.178 0.922 0.224 1.392 0.275 0.48 0.005 0.96 0.001 1.44 0.002 0.114-0.004 0.231 0.008 0.341-0.029 0.377-0.028 0.752-0.094 1.109-0.218 0.236-0.097 0.484-0.211 0.63-0.43 0.074-0.094 0.091-0.214 0.137-0.321 0.089-0.474 0.061-0.98-0.14-1.422-0.027-0.054-0.032-0.115-0.040-0.174 0.235 0.007 0.466 0.055 0.699 0.080 0.215 0.052 0.423 0.126 0.626 0.213 0.603 0.282 1.095 0.758 1.479 1.295 0.098 0.146 0.219 0.281 0.28 0.449 0.039-0.004 0.082 0.005 0.119-0.013 0.835-0.503 1.68-0.998 2.582-1.371 0.387-0.175 0.794-0.3 1.197-0.431 0.069-0.010 0.14-0.019 0.207-0.045 0.116-0.046 0.247-0.035 0.36-0.093 0.256-0.019 0.507-0.089 0.764-0.085 0.107 0.002 0.209-0.044 0.318-0.035 0.305 0.005 0.61-0.002 0.916 0.003 0.016 0.007 0.049 0.022 0.066 0.029 0.438-0.006 0.875 0.021 1.308 0.084 0.001 0.511-0.003 1.023 0.002 1.534 0.355-0.028 0.707-0.082 1.064-0.071-0.003 7.772 0.003 15.544-0.003 23.315-0.758 0.257-1.51 0.534-2.265 0.801-0.164 0.067-0.339 0.105-0.498 0.183-0.023 0.005-0.070 0.015-0.094 0.021-0.125 0.060-0.259 0.098-0.389 0.143-0.204 0.081-0.416 0.141-0.62 0.222-0.252 0.092-0.508 0.171-0.755 0.277-0.111 0.015-0.205 0.080-0.315 0.097-1.177 0.429-2.36 0.846-3.542 1.263-0.66 0.246-1.33 0.468-1.989 0.716-0.019 0.004-0.058 0.013-0.077 0.017-0.618 0.232-1.243 0.448-1.865 0.668-0.066 0.028-0.133 0.051-0.202 0.070-0.067 0.024-0.134 0.050-0.194 0.090-1.225 0.014-2.45 0.003-3.675 0.006-0.895-0.328-1.806-0.632-2.699-0.97-0.307-0.092-0.607-0.213-0.91-0.319-0.258-0.093-0.521-0.173-0.774-0.279-0.332-0.106-0.659-0.229-0.986-0.348-0.232-0.082-0.467-0.156-0.696-0.247-0.493-0.173-0.986-0.345-1.476-0.526-0.691-0.242-1.382-0.485-2.069-0.738-0.564-0.189-1.122-0.396-1.682-0.597-0.47-0.156-0.932-0.336-1.402-0.493-0.053-0.015-0.098-0.047-0.143-0.077-0.014-0.001-0.042-0.002-0.056-0.003 0.010-4.202 0.001-8.405 0.004-12.608-0.001-3.56 0.002-7.12-0.002-10.68 0.191-0.003 0.382-0.003 0.573 0.012 0.177 0.039 0.361 0.030 0.541 0.054 0.030-0.147-0.018-0.292-0.015-0.438 0.003-0.352 0-0.704 0.001-1.056 0.017-0.013 0.051-0.038 0.068-0.050 0.105 0 0.21 0.001 0.312-0.029 0.26-0.044 0.524-0.043 0.788-0.041zM2.092 1.894c-0.072 0.006-0.151-0.008-0.215 0.034-0.051 0.002-0.102 0.002-0.152 0.003 0 7.86 0.003 15.72-0.002 23.58 0.17-0.001 0.34-0.008 0.51 0.002 0.267 0.058 0.542 0.004 0.81 0.050 1.686 0.113 3.37 0.337 5.019 0.716-0.272-0.25-0.568-0.476-0.838-0.73-1.349-1.256-2.414-2.831-3.012-4.579-0.41-1.241-0.656-2.534-0.794-3.831-0.059-0.641-0.129-1.282-0.119-1.927-0.001-0.095 0.013-0.195-0.025-0.286-0.010-0.302-0.002-0.605-0.004-0.908 0.051-0.301 0.020-0.608 0.035-0.913 0.033-0.532 0.061-1.064 0.118-1.593 0.060-0.802 0.183-1.598 0.302-2.394 0.108-0.581 0.197-1.169 0.357-1.739 0.145 0.327 0.359 0.624 0.621 0.868 0.219 0.212 0.514 0.366 0.824 0.353 0.295 0.009 0.565-0.142 0.796-0.311 0.458-0.35 0.713-0.884 0.961-1.39 0.379-0.837 0.694-1.703 1.085-2.535 0.079-0.151 0.131-0.317 0.233-0.456-0.106-0.117-0.26-0.17-0.387-0.258-1.050-0.624-2.136-1.22-3.32-1.549-0.548-0.151-1.115-0.241-1.685-0.241-0.373 0.005-0.748-0.004-1.12 0.033zM24.593 2.076c-1.335 0.355-2.544 1.046-3.717 1.756-0.031 0.027-0.102 0.052-0.068 0.103 0.27 0.515 0.493 1.053 0.717 1.59 0.284 0.676 0.541 1.368 0.909 2.005 0.174 0.284 0.362 0.573 0.642 0.765 0.28 0.228 0.653 0.369 1.015 0.287 0.383-0.094 0.7-0.369 0.918-0.69 0.097-0.146 0.216-0.284 0.261-0.457 0.015 0 0.046 0.001 0.061 0.001 0.28 1.173 0.448 2.369 0.595 3.565 0 0.2 0.041 0.397 0.064 0.595 0.012 0.139-0 0.28 0.025 0.419 0.050 0.491 0.061 0.985 0.066 1.479 0.045 0.278 0.025 0.56 0.029 0.841-0.002 0.258 0.003 0.517-0.002 0.775-0.049 0.36-0.024 0.724-0.049 1.085-0.026 0.197-0.021 0.396-0.056 0.592 0.002 0.273-0.065 0.538-0.078 0.81-0.172 1.256-0.421 2.509-0.863 3.7-0.604 1.592-1.596 3.027-2.836 4.192-0.286 0.284-0.604 0.532-0.912 0.791 1.66-0.375 3.353-0.605 5.050-0.716 0.255-0.045 0.517 0.007 0.772-0.048 0.171-0.014 0.344-0.004 0.516-0.003-0.007-0.767-0-1.533-0.003-2.3 0.002-7.093-0.003-14.186 0.002-21.28-0.286-0.036-0.574-0.072-0.863-0.062-0.737-0.036-1.482 0.007-2.195 0.206zM10.484 3.609c-0.098 0.166-0.218 0.318-0.314 0.485-0.757 1.276-1.154 2.723-1.853 4.027-0.279 0.509-0.635 0.985-1.1 1.339-0.424 0.331-0.935 0.558-1.472 0.617-0.217 0.018-0.434 0.002-0.65-0.015-0.082 0.542-0.139 1.089-0.189 1.635-0.047 0.339-0.041 0.684-0.087 1.023-0.013 0.304-0.018 0.608-0.022 0.912-0.032 0.28-0.015 0.562-0.019 0.844 0.004 0.245-0.012 0.491 0.015 0.735 0.020 0.341-0.002 0.684 0.047 1.023 0.048 0.775 0.145 1.546 0.284 2.31 0.219 1.156 0.531 2.31 1.1 3.346 0.245 0.449 0.511 0.891 0.836 1.287-0.009-0.224-0.046-0.447-0.072-0.669-0.007-0.247-0.042-0.491-0.052-0.737-0.052-0.372 0.006-0.75-0.051-1.121-0.013-0.131 0.020-0.259 0.026-0.389-0.013-0.917 0.089-1.831 0.231-2.736 0.252-1.486 0.659-2.95 1.257-4.335 0.607-1.387 1.356-2.716 2.279-3.918 0.718-0.952 1.544-1.817 2.416-2.629 0.011-0.039 0.038-0.073 0.077-0.086-0.002 0.010-0.006 0.030-0.008 0.040-0.102 0.087-0.189 0.188-0.263 0.3-0.838 1.004-1.582 2.090-2.196 3.246-0.78 1.493-1.362 3.094-1.693 4.747-0.125 0.617-0.205 1.241-0.273 1.866-0.016 0.398-0.071 0.793-0.072 1.192 0.004 0.504-0.017 1.010 0.041 1.511 0.095 1.625 0.439 3.233 0.996 4.763 0.018-0.057 0.036-0.114 0.050-0.172 0.093-0.447 0.233-0.882 0.351-1.322 0.095-0.36 0.211-0.714 0.34-1.064 0.143-0.44 0.302-0.875 0.486-1.3 0.15-0.388 0.309-0.774 0.495-1.147 1.194-2.546 2.797-4.909 4.78-6.906 1.038-1.062 2.171-2.030 3.38-2.891 0.112-0.066 0.21-0.151 0.314-0.227-0.263 0.268-0.568 0.49-0.826 0.762-0.502 0.503-1.017 0.994-1.482 1.533-0.879 0.986-1.678 2.045-2.386 3.16-0.818 1.3-1.506 2.682-2.061 4.114-0.234 0.632-0.477 1.263-0.647 1.916-0.114 0.402-0.232 0.805-0.318 1.215-0.102 0.475-0.219 0.948-0.282 1.431-0.075 0.503-0.188 1.007-0.173 1.519 1.172-1.891 2.588-3.632 4.209-5.155 1.779-1.685 3.81-3.103 5.997-4.208 0.356-0.182 0.73-0.334 1.081-0.523 0.015 0.003 0.044 0.008 0.059 0.011-0.034 0.022-0.069 0.043-0.104 0.063-0.771 0.466-1.501 0.994-2.213 1.545-0.7 0.558-1.381 1.143-2.013 1.779-1.66 1.617-3.077 3.481-4.206 5.506-0.332 0.613-0.662 1.23-0.925 1.877 0.119-0.1 0.223-0.214 0.334-0.322 0.573-0.574 1.195-1.097 1.839-1.589 1.171-0.878 2.447-1.629 3.816-2.153 0.592-0.219 1.198-0.41 1.821-0.512 0.175-0.011 0.343-0.080 0.52-0.070 0.020-0.020 0.041-0.040 0.061-0.060 0.009 0.015 0.028 0.047 0.038 0.062-0.276 0.067-0.54 0.174-0.799 0.288-1.202 0.541-2.279 1.33-3.241 2.223-0.443 0.389-0.832 0.833-1.224 1.273-0.93 1.090-1.745 2.288-2.333 3.598-0.112 0.242-0.194 0.497-0.3 0.742 0.366 0.001 0.732 0.003 1.099-0.001 0.465-0.834 1.136-1.542 1.909-2.098 0.504-0.372 1.057-0.674 1.62-0.946 1.954-1.014 3.621-2.627 4.572-4.623 0.342-0.673 0.562-1.4 0.741-2.132 0.165-0.706 0.296-1.42 0.373-2.141 0.051-0.289 0.048-0.584 0.095-0.873 0.016-0.21 0.011-0.422 0.030-0.632 0.025-0.21-0.002-0.422 0.038-0.631 0.009-0.432-0.001-0.866 0.005-1.298 0.005-0.154-0.044-0.304-0.030-0.459-0.014-0.739-0.084-1.475-0.157-2.21-0.034-0.371-0.1-0.739-0.128-1.11-0.38 0.035-0.769 0.035-1.136-0.081-0.676-0.208-1.268-0.657-1.687-1.224-0.291-0.379-0.506-0.808-0.709-1.238-0.296-0.633-0.539-1.288-0.817-1.928-0.274-0.621-0.55-1.246-0.936-1.806-0.040-0.061-0.090-0.115-0.146-0.161-0.079 0.233-0.223 0.438-0.38 0.626-0.374 0.431-0.902 0.698-1.443 0.856-0.44 0.139-0.9 0.189-1.357 0.236-0.654 0.024-1.309 0.025-1.962 0.002-0.631-0.049-1.268-0.147-1.853-0.396-0.428-0.19-0.834-0.461-1.111-0.845-0.119-0.151-0.186-0.334-0.29-0.495z"></path>
</svg>
