<!-- Generated by IcoMoon.io -->
<svg version="1.1" xmlns="http://www.w3.org/2000/svg" width="32" height="32" viewBox="0 0 32 32">
<title>ss3</title>
<path fill="#444" d="M12.417 1c0.463 0.158 0.89 0.402 1.32 0.635 1.313 0.725 2.503 1.674 3.482 2.813 2.878-1.029 5.854-1.915 8.925-2.071 1.123-0.107 2.247 0.006 3.371 0.031 0.012 0.515 0.002 1.030 0.006 1.544 0.363-0.049 0.727-0.089 1.089-0.149 0.013 7.586 0.001 15.172 0.006 22.758-4.072 1.419-8.141 2.851-12.211 4.274-0.215 0.072-0.427 0.178-0.659 0.164-1.183-0.002-2.366-0.002-3.549-0.001-0.216 0.004-0.411-0.098-0.61-0.162-4.066-1.427-8.135-2.847-12.201-4.275 0.002-7.583 0-15.165 0.001-22.748 0.369 0.039 0.734 0.103 1.103 0.141 0.002-0.517-0.003-1.033 0.003-1.549 0.5 0.003 0.997-0.040 1.496-0.060 3.534-0.128 7.011 0.762 10.316 1.94-0.415-1.199-1.010-2.356-1.887-3.285zM3.176 3.070c0.004 7.54 0.011 15.081-0.003 22.621 2.811-0.015 5.671 0.174 8.352 1.083 1.361 0.471 2.711 1.114 3.723 2.164-0.518-1.786-0.613-3.735-0.032-5.518 0.549-1.743 1.744-3.217 3.171-4.329 1.811-1.368 3.567-2.863 4.911-4.709 0.665-0.949 1.277-2.010 1.344-3.194 0.654 1.379 0.984 2.912 0.95 4.438-0.034 1.414-0.421 2.824-1.147 4.040-0.729 1.245-1.767 2.285-2.93 3.127-1.348 0.97-2.628 2.052-3.705 3.323-0.796 0.97-1.51 2.104-1.594 3.389 1.007-1.18 2.356-2.017 3.798-2.559 2.788-1.058 5.812-1.285 8.769-1.249-0.020-2.98-0.003-5.959-0.008-8.938 0.004-4.539-0.009-9.078 0.006-13.617-0.097-0.010-0.192-0.024-0.286-0.045-1.993-0.14-4.009 0.002-5.958 0.455-1.667 0.388-3.31 0.873-4.94 1.393 0.866 1.185 1.522 2.545 1.758 4.001 1.021-0.96 1.543-2.415 1.342-3.806 0.899 1.606 1.221 3.552 0.803 5.352-0.35 1.502-1.205 2.852-2.306 3.917-0.634 0.605-1.288 1.19-1.882 1.837-1.018 1.128-1.952 2.376-2.471 3.818-0.258 0.723-0.425 1.503-0.3 2.271-1.027-0.897-1.643-2.175-1.96-3.482-0.329 0.602-0.506 1.277-0.607 1.953-0.2 1.437 0.044 2.905 0.563 4.252-2.283-1.102-4.165-3.085-5.014-5.488-0.664-1.89-0.764-4.018-0.053-5.909 0.586-1.536 1.603-2.93 2.948-3.884-0.403 0.679-0.698 1.505-0.45 2.292 0.225 0.801 1.044 1.393 1.879 1.313 0.768-0.045 1.41-0.574 1.837-1.18 0.694-1.019 0.939-2.259 1.068-3.463 0.101-1.235 0.062-2.491-0.237-3.698-1.1-0.356-2.181-0.78-3.306-1.053-1.435-0.375-2.891-0.684-4.368-0.827-1.217-0.133-2.443-0.114-3.665-0.091z"></path>
</svg>
