<!-- Generated by IcoMoon.io -->
<svg version="1.1" xmlns="http://www.w3.org/2000/svg" width="30" height="32" viewBox="0 0 30 32">
<path fill="#444" d="M15 1c8.279 0 15 6.721 15 15s-6.721 15-15 15c-8.279 0-15-6.721-15-15s6.721-15 15-15zM2.839 9.147c-1.144 2.025-1.798 4.363-1.798 6.853 0 7.704 6.254 13.958 13.958 13.958 3.477 0 6.659-1.274 9.104-3.381-0.413-0.507-0.747-1.089-1.24-1.522-0.297-0.065-0.608-0.083-0.914-0.123-0.329-0.043-0.651-0.112-0.946-0.281l-0.001-0c-0.51-0.303-0.836-0.817-1.178-1.286l-0.040-0.055 0.038-0.057c0.141-0.209 0.284-0.42 0.426-0.63-1.366 0.164-2.83 0.307-4.098-0.314-0.366-0.165-0.556-0.469-0.678-0.817-0.106-0.302-0.159-0.638-0.247-0.932-1.512-0.088-3.045-0.030-4.496 0.432 0.439 0.399 0.888 0.784 1.343 1.164l0.052 0.043-0.022 0.064c-0.195 0.558-0.369 1.155-0.791 1.588l-0 0c-0.251 0.253-0.562 0.41-0.881 0.554-0.295 0.133-0.598 0.255-0.858 0.444-0.294 0.554-0.468 1.164-0.704 1.745l-0.062 0.153-0.104-0.129c-0.42-0.52-0.759-1.118-1.261-1.563-0.296-0.064-0.605-0.082-0.909-0.122-0.327-0.043-0.648-0.11-0.942-0.276l-0.001-0c-0.514-0.303-0.843-0.819-1.183-1.29l-0.039-0.054 0.037-0.056c0.32-0.49 0.637-0.984 0.953-1.477-0.467-3.491-0.954-6.98-1.461-10.465-0.427-0.365-0.851-0.733-1.274-1.102l-0.044-0.038 0.012-0.056c0.069-0.319 0.139-0.654 0.249-0.971zM24.41 26.306c0.702-0.641 1.338-1.353 1.897-2.124-0.2 0.119-0.418 0.209-0.633 0.302-0.24 0.103-0.476 0.211-0.675 0.378-0.247 0.458-0.407 0.956-0.588 1.444zM27.522 22.171c0.92-1.861 1.437-3.956 1.437-6.171 0-7.704-6.255-13.958-13.958-13.958-3.454 0-6.617 1.258-9.056 3.339 0.459 0.603 0.899 1.218 1.355 1.821 0.543 0.015 1.117-0.024 1.617 0.23l0.001 0c0.564 0.301 0.889 0.875 1.22 1.399 1.448-0.337 2.957-0.387 4.431-0.212l0.005 0.001 0.005 0.001c0.24 0.052 0.508 0.090 0.752 0.173 0.262 0.089 0.495 0.23 0.646 0.483l0.001 0.002c0.284 0.525 0.394 1.119 0.542 1.692 0.735-0.004 1.467-0.069 2.194-0.174-0.225-0.197-0.451-0.393-0.676-0.59l-0.045-0.039 0.014-0.058c0.156-0.649 0.298-1.346 0.768-1.853l0.002-0.002c0.224-0.221 0.507-0.341 0.797-0.449 0.261-0.097 0.528-0.184 0.754-0.341 0.335-0.684 0.537-1.425 0.825-2.128l0.064-0.157 0.103 0.135c0.479 0.624 0.937 1.264 1.411 1.891 0.539 0.013 1.107-0.026 1.605 0.224l0.001 0c0.632 0.331 0.966 0.996 1.323 1.579l0.032 0.053-0.034 0.052c-0.32 0.486-0.635 0.976-0.949 1.466 0.463 3.301 0.934 6.601 1.376 9.904l0.001 0.005 0 0.005c0.013 0.392 0.232 0.67 0.504 0.912 0.293 0.261 0.649 0.482 0.911 0.744l0.021 0.021zM5.589 5.695c-0.803 0.733-1.519 1.559-2.133 2.46 0.415-0.321 0.94-0.439 1.43-0.601 0.242-0.618 0.467-1.24 0.703-1.86zM9.765 20.411l-0.003-0.003 0.12-0.040c1.893-0.621 3.897-0.858 5.87-0.586 0.35-1.038 0.38-2.143 0.623-3.205l0.192 0.010c0.165 1.313 0.287 2.638 0.221 3.963l-0.002 0.032-0.020 0.025c-0.189 0.235-0.376 0.473-0.558 0.714 0.661 0.452 1.422 0.584 2.204 0.582 0.829-0.002 1.681-0.156 2.467-0.254 0.744-0.206 1.441-0.55 2.169-0.803l0.337-0.117-0.231 0.272c-0.448 0.529-1.060 0.858-1.61 1.261-0.32 0.307-0.535 0.701-0.78 1.066 0.593 0.797 1.612 0.902 2.541 0.877l0.049-0.001 0.030 0.039c0.201 0.257 0.402 0.513 0.603 0.77 0.117-0.303 0.235-0.605 0.353-0.908l0.016-0.042 0.043-0.015c0.436-0.152 0.925-0.308 1.326-0.559 0.371-0.232 0.666-0.546 0.762-1.022-0.374-0.325-0.778-0.628-1.079-1.025l-0.010-0.014-0.005-0.016c-0.216-0.685-0.237-1.412-0.352-2.119l-0-0.001c-0.42-2.959-0.809-5.921-1.253-8.876l-0.005-0.036 0.019-0.031c0.282-0.445 0.564-0.891 0.847-1.336-0.224-0.285-0.411-0.627-0.738-0.805-0.494-0.185-1.035-0.096-1.551-0.107l-0.048-0.001-0.028-0.038c-0.277-0.372-0.55-0.748-0.825-1.124-0.162 0.434-0.323 0.867-0.481 1.301l-0.017 0.048-0.049 0.013c-0.489 0.133-1.006 0.208-1.45 0.466-0.157 0.139-0.259 0.317-0.345 0.506-0.082 0.182-0.149 0.375-0.228 0.555 0.306 0.27 0.611 0.539 0.917 0.808 0.68-0.13 1.357-0.266 2.045-0.341l0.344-0.037-0.273 0.212c-0.746 0.577-1.578 0.838-2.468 1.063-0.868 0.22-1.944 0.301-2.805 0.291-0.184 0.241-0.222 0.536-0.233 0.84-0.013 0.348 0.011 0.709-0.067 1.031l-0.19-0.001c-0.303-1.316-0.346-2.715-0.917-3.956-0.055-0.037-0.137-0.093-0.187-0.128-2.205-0.608-4.536-0.112-6.616 0.71-0.656 0.331-1.301 0.698-1.992 0.955l-0.304 0.113 0.191-0.262c0.722-0.99 1.903-1.383 2.915-1.982-0.073-0.509-0.402-0.805-0.818-0.958-0.451-0.166-1.003-0.167-1.463-0.086l-0.059 0.010-0.036-0.048c-0.28-0.371-0.559-0.743-0.838-1.118-0.166 0.446-0.332 0.891-0.505 1.334l-0.018 0.045-0.047 0.013c-0.467 0.133-0.973 0.197-1.385 0.467l-0 0c-0.185 0.119-0.272 0.299-0.324 0.496-0.053 0.199-0.071 0.415-0.105 0.613 0.351 0.311 0.7 0.625 1.047 0.941l0.026 0.024 0.005 0.034c0.54 3.659 0.995 7.332 1.565 10.988l0.006 0.036-0.019 0.031c-0.278 0.448-0.556 0.896-0.838 1.342 0.147 0.14 0.288 0.29 0.444 0.426l0.001 0.001c0.263 0.24 0.589 0.328 0.93 0.37 0.362 0.045 0.741 0.040 1.087 0.092l0.039 0.006 0.024 0.031c0.197 0.258 0.394 0.517 0.592 0.777 0.117-0.298 0.236-0.597 0.353-0.895l0.017-0.044 0.046-0.014c0.884-0.264 1.859-0.603 2.211-1.539-0.494-0.415-0.986-0.845-1.379-1.361-0.615 0.166-1.23 0.336-1.861 0.431l-0.326 0.049 0.247-0.219c0.545-0.483 1.22-0.762 1.895-1.010z"></path>
</svg>
