<!-- Generated by IcoMoon.io -->
<svg version="1.1" xmlns="http://www.w3.org/2000/svg" width="32" height="32" viewBox="0 0 32 32">
<title>sta</title>
<path fill="#444" d="M23.675 24.069c-2.172 0.296-4.376 0.714-6.288-0.613 0.281-0.375 0.57-0.742 0.862-1.106 0.092-1.832-0.078-3.664-0.306-5.479-0.347 1.515-0.384 3.094-0.906 4.57-2.755-0.4-5.557-0.075-8.2 0.792v0c-0.973 0.353-1.96 0.737-2.746 1.434 0.901-0.136 1.779-0.384 2.657-0.62 0.567 0.767 1.295 1.393 2.021 2.001-0.475 1.409-1.896 1.924-3.191 2.31-0.192 0.489-0.386 0.979-0.578 1.468-0.322-0.425-0.645-0.848-0.967-1.27-0.959-0.145-2.099 0.031-2.871-0.675-0.245-0.214-0.464-0.453-0.7-0.67 0.411-0.65 0.817-1.304 1.223-1.957-0.792-5.076-1.423-10.177-2.174-15.258-0.5-0.456-1.003-0.909-1.509-1.357 0.114-0.595 0.095-1.334 0.67-1.704 0.584-0.381 1.298-0.475 1.96-0.664 0.27-0.692 0.528-1.387 0.787-2.085 0.436 0.587 0.873 1.17 1.312 1.751 1.32-0.234 3.172 0.017 3.336 1.654-1.407 0.848-3.074 1.376-4.083 2.76 0.956-0.356 1.848-0.864 2.757-1.323v0c2.924-1.156 6.202-1.848 9.301-0.987 0.075 0.053 0.231 0.158 0.308 0.211 0.812 1.74 0.873 3.705 1.298 5.554 0.211-0.876-0.136-1.968 0.484-2.702 1.284-0.133 2.582-0.145 3.867-0.311l0.013-0.001c1.248-0.264 2.402-0.75 3.423-1.539-0.973 0.106-1.932 0.3-2.894 0.484-0.467-0.409-0.931-0.82-1.398-1.231 0.259-0.553 0.403-1.206 0.881-1.621 0.628-0.37 1.362-0.478 2.057-0.667 0.247-0.681 0.5-1.362 0.756-2.043 0.431 0.589 0.859 1.179 1.293 1.762 0.734 0.017 1.504-0.106 2.207 0.161 0.503 0.27 0.781 0.806 1.134 1.231-0.411 0.645-0.82 1.293-1.229 1.938 0.617 4.103 1.156 8.217 1.74 12.325 0.159 0.973 0.186 1.976 0.484 2.922 0.428 0.564 1.009 0.99 1.537 1.454-0.247 1.49-1.773 1.946-3.002 2.374-0.192 0.495-0.386 0.99-0.575 1.484-0.328-0.422-0.656-0.839-0.984-1.259-1.362 0.036-2.855-0.136-3.697-1.351 0.37-0.539 0.684-1.131 1.162-1.587 0.756-0.556 1.601-1.006 2.218-1.735-1.017 0.353-1.99 0.834-3.030 1.12l-0.416 0.055z"></path>
</svg>
