<!-- Generated by IcoMoon.io -->
<svg version="1.1" xmlns="http://www.w3.org/2000/svg" width="25" height="32" viewBox="0 0 25 32">
<title>sth</title>
<path fill="#444" d="M15.447 22.006h-2.57v-5.538h2.57v5.538zM12.056 22.006h-2.57v-5.538h2.57v5.538zM12.877 11.11h-0.826l0.005 4.749h-2.57v-4.741h-0.822v4.741h-2.171v0.609h2.171v5.538h-2.171v0.582h2.171v6.091h0.822v-6.091h2.57v6.091h0.821v-6.091h2.57v6.091h0.743v-6.091h2.332v-0.582h-2.332v-5.538h2.332v-0.609h-2.332v-4.741h-0.743v4.741h-2.57v-4.749zM19.51 28.682h5.442v-10.861h-5.442v10.861zM0.009 28.679h5.442v-10.858h-5.442v10.858zM19.512 16.109h5.439c0-8.057-6.005-11.449-6.005-11.449l-1.908 5.090c0 0 2.474 1.905 2.474 6.359zM7.924 9.75l-1.907-5.090c0 0-6.005 3.391-6.005 11.449h5.439c0-4.454 2.473-6.359 2.473-6.359zM7.288 3.318h10.387l-2.261 6.432h-5.793l-2.332-6.432z"></path>
</svg>
