<!-- Generated by IcoMoon.io -->
<svg version="1.1" xmlns="http://www.w3.org/2000/svg" width="32" height="32" viewBox="0 0 32 32">
<title>xssm</title>
<path fill="#444" d="M15.842 28.866c-0.805-0.198-1.272-0.934-1.362-1.726-0.009 0.006-0.023 0.008-0.028 0.018-0.261 0.508-0.932 0.748-1.411 0.992-0.301-0.82-0.192-1.573-0.175-2.104-0.013 0.001-0.025 0.003-0.037 0.008-0.605 0.269-1.38 0.265-2.034 0.234 0.511-1.666 1.69-3.315 2.955-4.507 0 0 0.057-0.050 0.057-0.050-0.007-0.245-0.213-0.598-0.229-0.841-0.009 0.008-0.021 0.014-0.027 0.024-0.412 0.72-0.812 1.163-1.46 1.742-0.107 0.096-0.59 0.454-0.707 0.463-0.119-0.421-0.177-1.203-0.199-1.64-0.011 0.003-0.023 0.004-0.032 0.010-0.702 0.503-1.863 0.87-2.801 0.911 0.070-0.453 0.212-1.104 0.436-1.499-0.011-0-0.085 0.048-0.096 0.050-0.249 0.050-1.002 0.464-3.188 0.172-0.013-0.002-0.026-0.007-0.039-0.010 0.443-0.837 0.918-1.489 1.359-1.955-0.013-0.004-0.025-0.011-0.038-0.012-2.72-0.209-4.249-1.33-4.215-1.368 1.495-1.671 2.537-1.449 2.538-1.575-1.145-0.554-2.723-1.449-3.422-2.516-0.145-0.222-0.41-0.572-0.321-0.619 0.015-0.008 0.913-0.312 0.925-0.313 1.689-0.173 2.447-0.176 2.447-0.176-0.58-0.572-2.045-0.774-2.798-0.528 0.002 0.003 0.002 0.003-0.001 0h-0l-0-0-0.008-0.007c-1.514-1.728-1.839-3.138-1.934-3.578l2.523-0.107c1.040 0.199 1.269 0.199 2.248 0.596 0 0 0.061 0 0.061 0-0.634-0.708-1.746-1.381-2.72-1.327-0.009-0.033-0.014-0.067-0.027-0.098-0.923-2.23-1.148-3.822-1.121-4.411l1.667 0.071c0.025 0.017 0.049 0.035 0.076 0.050 4.68 2.519 5.261 4.737 7.494 6.109 0.319 0.196 0.856 0.466 1.193 0.631-0.011 0.013-0.026 0.021-0.038 0.031-0.206 0.161-0.237 0.176-0.398 0.436-0.032 0.052-0.019 0.060-0.023 0.084-0.165 1.029-0.13 2.24 0.089 3.237 0.005 0.024 0.002 0.050 0.003 0.074 0.272 1.269 1.238 2.597 2.398 3.168 0.069 0.034 0.202 0.117 0.15 0.060-0.667-0.739-0.887-1.155-1.188-1.683 0.004-0.014 0.006-0.030 0.014-0.043 0.447-0.828 0.795-1.463 0.758-2.866-0-0.017-0.001-0.033-0.002-0.050 0.854-0.624 1.795-1.089 2.845-1.25 1.050 0.161 1.991 0.626 2.845 1.25-0.001 0.017-0.002 0.034-0.002 0.050-0.037 1.404 0.311 2.038 0.758 2.866 0.007 0.013 0.009 0.028 0.014 0.043-0.301 0.528-0.521 0.944-1.188 1.683-0.052 0.057 0.081-0.026 0.15-0.060 1.16-0.571 2.127-1.899 2.398-3.168 0.001-0.024-0.002-0.050 0.003-0.074 0.219-0.996 0.253-2.208 0.089-3.237-0.004-0.024 0.009-0.032-0.023-0.084-0.161-0.26-0.191-0.275-0.398-0.436-0.013-0.010-0.028-0.017-0.038-0.031 0.336-0.165 0.873-0.435 1.193-0.631 2.233-1.372 2.814-3.589 7.494-6.109 0.027-0.014 0.050-0.033 0.076-0.050l1.667-0.071c0.027 0.59-0.199 2.181-1.122 4.411-0.013 0.031-0.018 0.065-0.027 0.098-0.974-0.054-2.086 0.618-2.72 1.327h0.061c0.979-0.398 1.208-0.398 2.248-0.596l2.523 0.107c-0.095 0.44-0.421 1.85-1.934 3.578l-0.008 0.007-0 0h-0c-0.003 0.003-0.003 0.003-0.001-0-0.753-0.246-2.218-0.044-2.798 0.528 0 0 0.758 0.003 2.447 0.176 0.012 0.001 0.911 0.306 0.925 0.313 0.089 0.048-0.176 0.398-0.321 0.619-0.699 1.067-2.277 1.961-3.422 2.516 0.001 0.126 1.044-0.096 2.538 1.575 0.033 0.037-1.495 1.158-4.215 1.368-0.013 0.001-0.025 0.008-0.038 0.012 0.442 0.466 0.917 1.118 1.36 1.955-0.013 0.003-0.026 0.008-0.039 0.010-2.186 0.292-2.939-0.122-3.188-0.172-0.010-0.002-0.085-0.050-0.096-0.050 0.224 0.395 0.366 1.046 0.436 1.499-0.938-0.041-2.098-0.408-2.801-0.911-0.009-0.007-0.021-0.007-0.032-0.010-0.022 0.437-0.080 1.219-0.199 1.64-0.117-0.009-0.6-0.367-0.707-0.463-0.649-0.579-1.048-1.022-1.46-1.742-0.006-0.010-0.018-0.016-0.027-0.024-0.016 0.243-0.222 0.596-0.229 0.841 0 0 0.057 0.050 0.057 0.050 1.265 1.193 2.444 2.841 2.955 4.507-0.654 0.031-1.43 0.035-2.034-0.234-0.012-0.005-0.024-0.007-0.037-0.008 0.017 0.531 0.127 1.284-0.175 2.104-0.478-0.243-1.149-0.484-1.411-0.992-0.005-0.010-0.018-0.012-0.028-0.018-0.056 0.783-0.663 1.714-1.52 1.741l-0.158-0.015zM16 14.918c-0.214 0.345-0.512 0.618-0.831 0.862 0.198 0.829 0.509 1.624 0.831 2.411 0.322-0.787 0.633-1.582 0.831-2.411-0.319-0.244-0.617-0.518-0.831-0.862zM23.536 10.682v0c-0.268 1.083 0.247 2.174 0.052 3.255-0.475 1.335-1.439 2.399-2.277 3.513 0.294-0.059 0.694-0.167 0.933-0.369 1.019-0.907 1.413-2.174 2.378-3.123 0-0.006 0.006-0.027 0.247-0.233 0.005-0.005 0.011-0.010 0.011-0.015-0.098 0.002-0.579 0.045-0.677 0.046 0.016-0.851-0.157-1.717-0.197-2.565-0.166-0.179-0.299-0.334-0.47-0.508zM8.464 10.682c-0.171 0.175-0.304 0.33-0.47 0.508-0.040 0.848-0.213 1.714-0.197 2.565-0.098-0.001-0.579-0.043-0.677-0.046 0 0.005 0.006 0.011 0.011 0.015 0.24 0.206 0.246 0.227 0.247 0.233 0.965 0.949 1.359 2.217 2.378 3.123 0.239 0.202 0.639 0.31 0.933 0.369-0.838-1.114-1.802-2.179-2.277-3.514-0.196-1.082 0.32-2.173 0.052-3.255v0z"></path>
</svg>
