<!-- Generated by IcoMoon.io -->
<svg version="1.1" xmlns="http://www.w3.org/2000/svg" width="28" height="32" viewBox="0 0 28 32">
<title>td2</title>
<path fill="#444" d="M7.259 18.179c-0.256 0.682-3.409 4.346-4.005 4.431s-2.727-1.193-3.153-2.216c-0.426-1.023 1.272-11.784 1.619-12.783s1.236-1.723 1.96-2.216c0.725-0.493 11.931-3.494 12.698-3.409 0.599 0.067 2.642 2.045 2.557 2.471s-3.409 4.687-3.92 4.858-2.557-0.426-5.88 2.812c-2.591 2.525-1.619 5.369-1.875 6.051zM20.239 13.835c-0.257 0.681 0.711 3.527-1.884 6.048-3.329 3.233-5.373 2.633-5.885 2.803s-3.842 4.425-3.928 4.851c-0.086 0.426 1.954 2.408 2.553 2.475 0.767 0.086 11.978-2.897 12.703-3.389s1.614-1.214 1.964-2.213c0.349-0.998 2.064-11.757 1.639-12.781s-2.553-2.305-3.15-2.221c-0.597 0.084-3.756 3.744-4.012 4.425zM15.384 17.29c6.457-7.347 11.017-13.895 10.186-14.625s-6.74 4.632-13.197 11.979c-6.457 7.347-11.017 13.895-10.186 14.625s6.74-4.632 13.197-11.979z"></path>
</svg>
