<svg version="1.0" xmlns="http://www.w3.org/2000/svg" viewBox="0 0 400 400"><path d="M131.1 88.7c-2.5 3.7-9.3 14.1-15.2 23-5.9 8.9-11.2 17-11.7 18-.8 1.4 1.5 13.1 8.7 45.3l9.7 43.5 3.9 1.9c2.2 1 7 4.9 10.6 8.6 12.8 13 19.6 32.8 21.5 62.5l.7 11 7.6 4.5c9 5.3 25.3 20.6 29.6 27.9 1.7 2.8 3.2 5.1 3.5 5.1.3 0 1.9-2.3 3.5-5.1 4.3-7.3 21.6-23.6 30.2-28.4l7-4 .7-11c1.9-29.7 8.7-49.5 21.5-62.5 3.6-3.7 8.4-7.6 10.6-8.6l4-1.9 2.6-12c4.6-21 16-71.9 16.5-73.6.2-.9-4.5-9.1-11.4-19.5-6.5-9.8-13.8-21-16.2-24.7-2.5-3.8-4.6-6.2-4.8-5.4-.2.8.4 5.5 1.2 10.3.9 4.9 1.6 13.4 1.6 18.9 0 8.5-.4 10.8-2.2 14.5-1.3 2.4-3.5 5.3-5 6.3l-2.6 1.9-21.3-11.3-21.3-11.4-7-14.7c-3.9-8.2-7.3-14.8-7.6-14.8-.3 0-3.7 6.6-7.6 14.8l-7 14.7-21.3 11.4-21.3 11.3-2.6-1.9c-1.5-1-3.7-3.9-4.9-6.3-1.9-3.7-2.3-6-2.3-14.5 0-5.5.7-14 1.6-18.9.8-4.8 1.4-9.5 1.2-10.3-.2-.8-2.3 1.6-4.7 5.4zm34.2 109.7 13.7 17.5v6.1c0 3.4-.4 6-.9 5.8-.5-.2-6.1-4.9-12.4-10.5l-11.4-10.2-1.7-11.3c-.9-6.2-1.9-12.1-2.2-13.1-1.3-4.2 2.2-.6 14.9 15.7zm84.3-15.7c-.3 1-1.3 6.9-2.2 13.1l-1.7 11.3-11.4 10.2c-6.3 5.6-11.9 10.3-12.4 10.5-.5.2-.9-2.4-.9-5.8v-6.1l13.7-17.5c12.7-16.3 16.2-19.9 14.9-15.7zM20.2 96.8c-24.9 56.9-25.1 117.6-.4 157.4 9.3 15 23.7 29.6 38.5 39.1 6.4 4.1 24.9 13.8 25.4 13.3.2-.2-.2-4.8-.8-10.2-1.5-12.7-.6-30.6 2-40.9 4.1-15.8 12.9-29.4 22.8-35.2 3-1.7 4.3-3.1 4-4.2-.2-.9-3.7-15.7-7.7-32.9-7-29.7-7.5-31.3-9.4-30.6-1.2.3-5.7.9-10 1.1-15 1-26.2-3.2-36.6-13.7-9.7-9.7-16.3-24.1-20.5-44.3-.9-4.8-2-8.7-2.4-8.7-.3 0-2.5 4.4-4.9 9.8zM373 92.7c-7.1 36.3-21 55.2-44.1 60.3-5.4 1.2-19.3.9-23.5-.4-1.9-.7-2.4.9-9.7 32.1-7.1 29.8-7.6 32.9-6.1 33.8 21.5 12.8 31.9 43.1 27.4 79.4-.6 4.6-.9 8.5-.7 8.7.5.5 18.9-9.1 25.4-13.3 14.8-9.5 29.2-24.1 38.5-39.1 24.7-39.8 24.6-100.5-.4-157.4-2.4-5.4-4.6-9.8-5-9.8-.4 0-1.2 2.6-1.8 5.7z"/><path d="M110.7 231.8c-10 8-15.6 20.2-17.7 38.8-1 9.2-.1 26.6 1.4 28.2.3.2 1.6-.2 2.8-1 4.1-2.6 10.6-4.8 17.7-5.9 8.7-1.3 17 0 26.4 4.3 3.7 1.7 7 2.8 7.3 2.5 1-1-1.3-20.5-3.6-30.3-3.9-16.8-14.7-34.6-23.4-38.8-4.7-2.2-5.5-2.1-10.9 2.2zM278.2 229.7c-8.7 4.2-19.3 22.1-23.2 38.8-2.4 10.1-4.7 29.2-3.7 30.2.4.3 3.7-.8 7.4-2.5 9.4-4.3 17.7-5.6 26.4-4.3 7.1 1.1 13.6 3.3 17.7 5.9 1.2.8 2.5 1.2 2.8 1 1.5-1.5 2.3-18.2 1.3-27.7-1.8-18.8-7.5-31.2-17.9-39.5-5.1-4-6.1-4.2-10.8-1.9z"/></svg>
