<!-- Generated by IcoMoon.io -->
<svg version="1.1" xmlns="http://www.w3.org/2000/svg" width="32" height="32" viewBox="0 0 32 32">
<path fill="#444" d="M15.354 8.084c0.213-0.462 0.437-0.919 0.647-1.383 0.208 0.464 0.433 0.921 0.647 1.383 1.344 0.716 2.682 1.446 4.041 2.131 0.481-0.082 0.948-0.307 1.226-0.722 0.356-0.487 0.442-1.101 0.502-1.685 0.257 0.516 0.609 0.976 0.92 1.459-0.515 2.212-0.964 4.439-1.47 6.655-1.485 0.795-2.338 2.385-2.739 3.966-0.286 1.021-0.331 2.097-0.433 3.137-1.027 0.586-1.952 1.35-2.695 2.272-0.741-0.923-1.668-1.685-2.693-2.272-0.091-0.261-0.038-0.557-0.070-0.831-0.132-1.742-0.521-3.547-1.594-4.968-0.406-0.534-0.919-0.986-1.508-1.307-0.505-2.214-0.957-4.442-1.47-6.655 0.312-0.482 0.665-0.942 0.921-1.459 0.064 0.729 0.217 1.539 0.82 2.026 0.333 0.264 0.84 0.491 1.236 0.229 1.234-0.667 2.48-1.308 3.713-1.978zM10.585 10.758c0.201 0.632 0.574 1.207 0.671 1.87 0.163 1.037 0.316 2.077 0.495 3.111 0.973 0.847 1.936 1.706 2.911 2.551 0.004-0.766 0.002-1.532-0.002-2.297-1.372-1.734-2.691-3.511-4.075-5.235zM17.587 15.674c-0.117 0.158-0.282 0.312-0.254 0.529-0.008 0.697-0.001 1.395-0.002 2.092 0.98-0.846 1.947-1.708 2.922-2.56 0.176-1.035 0.329-2.073 0.492-3.11 0.096-0.66 0.471-1.231 0.666-1.862-1.3 1.616-2.533 3.287-3.824 4.91zM0.221 11.293c0.185-1.253 0.506-2.483 0.92-3.679 0.427 1.395 1.218 2.763 2.508 3.519 0.938 0.575 2.074 0.732 3.154 0.604 0.34 1.422 0.672 2.845 1.007 4.268-1.331 0.903-2.070 2.455-2.32 4.006-0.149 0.854-0.161 1.722-0.139 2.586-1.64-0.926-3.134-2.193-4.046-3.864-1.262-2.243-1.454-4.935-1.084-7.44zM30.862 7.617c0.906 2.64 1.399 5.505 0.863 8.277-0.345 1.828-1.239 3.554-2.571 4.859-0.736 0.737-1.61 1.315-2.502 1.845 0.047-1.595-0.076-3.26-0.826-4.701-0.382-0.75-0.94-1.413-1.636-1.89 0.335-1.423 0.668-2.847 1.008-4.269 1.112 0.133 2.285-0.043 3.239-0.656 1.242-0.765 2.004-2.102 2.424-3.465zM8.196 19.045c0.204-0.43 0.516-0.808 0.922-1.058 1.19 0.966 1.632 2.57 1.727 4.041-1-0.312-2.109-0.326-3.087 0.072-0.066-1.030-0.024-2.109 0.437-3.054zM22.138 18.782c0.217-0.29 0.448-0.624 0.79-0.765 0.627 0.392 0.973 1.099 1.156 1.792 0.208 0.744 0.201 1.524 0.162 2.289-0.982-0.393-2.089-0.374-3.091-0.068 0.050-1.138 0.367-2.285 0.983-3.248z"></path>
</svg>
