<svg version="1.0" xmlns="http://www.w3.org/2000/svg" viewBox="0 0 900 900"><path d="M545 67.1c-7 1.2-20.6 3-30.5 3.9-19.3 1.9-53.7 10.4-77.5 19.1-16.4 6.1-48.3 21.7-60.5 29.7-21.1 13.7-45.5 36.7-61.2 57.7-9.8 13-22.1 33.4-27.8 46.1-5.3 11.8-5.7 11.1-5.6-10.5.1-17.2.5-20.4 5.7-40.1 4.3-16.8 6.1-21 17.4-43.5 5-9.9 10-20.1 11.1-22.8l1.9-4.7-4.3 2.1c-2.3 1.2-7.3 4.3-11.2 6.9-3.8 2.6-10.4 6.5-14.5 8.7-4.1 2.2-15.5 8.7-25.2 14.4-9.7 5.7-21.4 12.4-26 14.9-17.2 9.4-39.3 26.7-60.7 47.5-30.1 29.4-46.4 51.2-62.7 83.7-9.8 19.5-19 42.4-24.2 60.1-4.6 15.5-4.7 15.8-6.5 13.6-2.8-3.5-13.7-22.1-23.7-40.4-5.1-9.4-10.7-19.3-12.5-22-1.8-2.8-5.2-9.3-7.7-14.5-2.5-5.2-5.4-10.6-6.5-11.9l-2-2.5-.6 12.5c-.4 6.8-1.2 19.6-1.9 28.4-2 26.9-1.5 70.6 1.1 93.5C41.3 503.9 79.6 590.6 142 653c26.3 26.3 48.4 42 84.9 60.3 32.8 16.5 53.5 24.6 86.2 34.1 17.5 5 28.3 6.8 54.9 9.1 10.2.9 18.6 1.8 18.8 2 .2.2-6.1 8.8-14 19.2-7.9 10.3-15.5 20.4-16.8 22.3-1.3 1.9-5 6.3-8.2 9.7-3.1 3.5-6.2 7.2-6.8 8.3-.9 1.8-.8 2 1.7 2 1.5 0 5.2-.4 8.2-1 8.2-1.4 21.4-3.1 31.6-4 19.3-1.9 53.7-10.4 77.5-19.1 16.4-6.1 48.3-21.7 60.5-29.7 21.1-13.7 45.5-36.7 61.2-57.7 9.8-13 22.1-33.4 27.8-46.1 3.6-7.9 4.4-9.2 5-7.3 1.1 3.3.7 32.7-.5 38.9-3.2 17.1-11 42.1-14.8 48-2.4 3.6-16.2 32.3-15.8 32.7.6.6 5.6-1.9 12.6-6.1 3.6-2.1 9.2-5.1 12.5-6.6 33.2-15 85.6-55.3 118.1-90.8 39-42.6 66.6-86.4 81-128.5l4.7-13.8 2.2 3.4c4.8 6.9 13.5 21.8 23 39.2 5.4 9.9 11.2 20.2 13 23 1.8 2.7 5.2 9.3 7.7 14.5 2.5 5.2 5.4 10.6 6.5 11.9l2 2.5.6-12.5c.4-6.8 1.2-19.6 1.9-28.4 2-26.9 1.5-70.6-1.1-93.5-12.4-106.9-50.7-193.7-113.1-256-17-17-30.3-28-48.9-40.2-14.7-9.7-51.1-28.4-71.6-36.8-32.4-13.3-74.5-25-97.1-27-7.1-.7-15.2-1.5-18.1-1.8l-5.2-.7 9.5-14.9c12-18.8 17.3-26.1 25.2-34.8 3.4-3.9 6.7-7.9 7.3-8.9.9-1.7.6-1.9-2.8-1.8-2.1.1-5.8.5-8.3 1zm-39 29.4c0 .2-4.7 7.9-10.5 17-5.8 9.2-11.2 18-12.1 19.6-.8 1.7-3.1 5.1-5 7.6-1.9 2.4-3.4 5-3.4 5.7 0 1 3.2 1.5 12.3 2 15 .9 48.4 3.4 55.2 4.2 7.8.9 38.4 9 56 14.9 27.1 9 62.5 25.2 87.6 40.1 30.2 17.9 61.3 46.9 85.7 79.9 10.3 13.8 24.5 37.7 32.7 54.8 25.6 53.4 41.4 120.2 43.1 183.2l.6 20-6.4-10.6c-3.6-5.8-11.6-18.1-17.9-27.2-6.3-9.1-13.3-19.4-15.7-22.9-2.3-3.4-5.1-7.1-6.1-8.2-1.9-1.8-1.9-1.7-3.1 4-.6 3.3-1.8 8.5-2.6 11.6-.8 3.2-1.4 7.6-1.4 9.7 0 5-4 21.1-8.5 33.9-6.6 19.1-18.9 43.9-31.3 63.2-23.2 36.1-63.2 79.1-98.7 106.2-10.4 7.9-24.8 17.8-25.2 17.4-.2-.2.7-4.8 2.1-10.2 1.3-5.5 3-12.7 3.6-16 1.4-8.2 1.5-37.1.1-45.9-1.3-8.3-10.6-43.6-12.6-48.3-2.1-4.6-6.9-7.2-13.3-7.2-9.6 0-49.3-4-59.9-6.1-19.8-3.8-38.6-11.4-50.3-20.2-3-2.3-10.3-8.5-16.1-13.8-8.3-7.6-12.6-12.7-20.1-23.6-5.3-7.6-11-15.1-12.6-16.6-5.5-5.3-8.2-4.9-32.8 4.6-26.6 10.3-30.1 11.2-42.9 11.1-11.5-.1-19.1-2.2-28.9-8.1-6.4-3.9-16.4-12.9-22.5-20.2l-3.9-4.7 11.1 1.3c20.7 2.2 31.4-1.5 37.2-13 3.7-7.4 3.5-16.9-.6-29.1-8.8-26.5-32.1-48.1-66-61.2-26.3-10.2-50.1-7.5-69.1 7.7-16.9 13.5-26.2 30.3-28.9 52.3-3 23.8 5.6 56.5 24.6 94.1 14.3 28.2 27.2 46.4 47.9 67.1 28.9 29 60.8 48.1 102.2 61.3 24 7.7 45.4 11.1 69.9 11.1 28-.1 52.6-5.1 77.5-16 6.4-2.8 41.6-20.8 61.6-31.6l6.2-3.3-2.5 6.2c-6.9 17.1-20.9 40.8-33.1 55.8-8.2 10.2-23.9 25.9-33.7 33.8-22.4 18-55.5 34.9-89.5 45.5-10.7 3.3-39.9 10.6-42.7 10.6-.7 0 4.1-7.1 10.8-15.8 6.6-8.6 13.5-17.6 15.2-20 1.8-2.3 5.3-6.8 8-9.9 5.5-6.5 5.1-7.3-3.5-7.3-8.8 0-59.8-3.9-73.8-5.5-44.9-5.5-120.9-37.7-162.3-68.8-13.4-10.1-34.8-30.4-46.7-44.2-18.2-21.3-35.9-48.6-48.5-74.8-25.6-53.4-41.4-120.2-43.1-183.2l-.6-20 6.4 10.5c8.1 13.4 25.8 39.7 30.3 45 1.9 2.3 4.8 6.7 6.5 9.8 3.5 6.5 5.8 9.7 6.4 9.1.7-.7 3.8-21.1 4-26.9.6-12.3 9.4-45.2 17.8-66 19.7-48.9 40-78.6 78.8-115.3 15.9-15.1 39.3-32.7 52.5-39.5 3.3-1.7 8.3-4.5 11.1-6.1l5.2-3-2.4 8.7c-5.2 18.6-6.4 27.4-6.5 45-.1 9.2.4 19.8 1 23.7 1.3 8.3 10.6 43.6 12.6 48.3 2.1 4.6 6.9 7.2 13.3 7.2 9.6 0 49.3 4 59.9 6.1 19.8 3.8 38.6 11.4 50.3 20.2 3 2.3 10.3 8.5 16.1 13.8 8.3 7.6 12.6 12.7 20.1 23.6 5.3 7.6 11 15.1 12.6 16.6 5.5 5.2 8.2 4.9 32.7-4.3 26.4-9.8 31.1-11 43.6-11 17.6 0 27.6 4.6 42.2 19.5l9.9 10-14.4.5c-11.7.4-15.1.9-18.8 2.6-13.7 6.3-18.6 20.9-13 38.9 7.1 22.7 23.8 41.1 50 55.2 31.9 17.3 59.3 18.5 81.6 3.7 24.3-16.1 37-44.7 33.6-75.7-3.7-33.8-24.8-82.1-51.1-117.2-9.1-12-27.6-31.3-38.6-40.2-32.2-26-73.5-44.9-115.4-52.9-24.8-4.8-56.8-4.5-80.3.7-24.7 5.4-35.6 10.2-97.4 42.9l-7.2 3.8 2.5-6.2c6.9-17 20.9-40.7 33.1-55.7 8.2-10.2 23.9-25.9 33.7-33.8 22.4-18 55.5-34.9 89.5-45.5 18.7-5.9 45-11.8 45-10.1zm-30.5 125.1c23.4 3.4 46.4 10.8 70 22.4 24.7 12.1 41.7 24.3 59.1 42.2 17.9 18.4 30 35.8 42.5 60.8 20.7 41.5 26.9 72 19 94.3-3.7 10.8-13.6 22-24.3 27.8-5.5 2.9-7.4 3.4-15.3 3.7-11.3.5-18.4-1.2-32.3-7.8-14-6.7-22.7-12.6-30.5-20.9-7.4-7.9-14.3-20.6-15.3-28.2-.9-7 .2-7.3 20.7-6.6 13.3.5 19.4 1.3 30.4 3.7 14.5 3.3 19.8 3.5 20.3 1 .1-.8-1.4-4.2-3.4-7.5-2.1-3.3-5.9-9.6-8.6-13.9-4.9-8.2-22.9-28.8-34.3-39.4-7.8-7.3-17.5-13.2-28.1-16.9-7.4-2.6-9-2.8-23.9-2.8-12.5 0-17.5.4-23 1.9-5.5 1.4-27.9 9.4-39.6 14.1-1.3.5-3.7-2.3-10.5-12-6.6-9.6-11.2-14.9-18.8-21.8-5.6-5-10.2-9.4-10.4-9.8-.6-1.5 21.5-11.7 30.8-14.2 15.8-4.2 23.4-5 41.8-4.4 28.4 1 49.7 7.5 73.2 22.5l9.5 6.1 1.3-3.2c2.2-5.2.1-10-8.2-18.5-14.3-14.8-35.2-25.8-63.1-33.2-31.4-8.4-61.5-9-95.2-2-14.1 2.9-14.6 3.1-42.1 16.2-4.2 2-4.5 2-12 .4-10.3-2.2-26.4-4.3-39.2-5.2l-10.5-.7 5.1-1.7c2.8-.9 18.1-8.4 34-16.6 32.5-16.9 37.2-19 49.9-23.3 25.3-8.4 52.6-10.6 81-6.5zm-189.1 193c8 2 27.2 11.3 35.1 16.9 12.8 9.1 22.4 22.1 26.1 35.2 2.2 8.1 1.7 9.3-4.3 9.3-7.5 0-28.5-2-43-4.1-16.6-2.4-22.1-2.5-23-.3-.4 1 1.7 6.3 5.2 13.2 5.4 10.7 6.9 12.8 20.3 27.1 8 8.6 17.4 18.1 21 21.3 16.6 14.4 38.5 22 58.7 20.4 14.1-1.2 21.3-3.4 55.2-16.7 2-.7 3 .4 10.9 11.7 6.6 9.5 11.2 14.8 18.8 21.7 5.6 5 10.2 9.4 10.4 9.8.2.5-4.5 3.3-10.5 6.2-17.5 8.8-34.7 12.7-56 12.7-28.9 0-52.5-6.5-77.1-21.4-6-3.6-11.2-6.6-11.5-6.6-.4 0-1.1 1.7-1.6 3.7-1.5 5.4 1.2 10.4 10 18.9 14.8 14.2 34.3 24.2 61 31.3 32 8.5 61.6 9.2 95.7 2.1 14.1-2.9 13.8-2.8 42-16.2 4.2-2 4.5-2 12-.4 10.3 2.2 26.4 4.3 39.2 5.2l10.5.7-5.1 1.7c-2.8.9-18.1 8.4-34 16.6-32.5 16.9-37.2 19-49.9 23.3-46.2 15.4-98.7 9.9-151-15.9-25-12.3-42-24.5-60-43.1-17.3-18-29.3-35.2-41.9-60.5-20.4-40.8-26.5-71.6-18.7-93.7 4.5-13 17.1-25.7 29.9-30.3 5.1-1.8 18.2-1.7 25.6.2z"/></svg>