<!-- Generated by IcoMoon.io -->
<svg version="1.1" xmlns="http://www.w3.org/2000/svg" width="31" height="32" viewBox="0 0 31 32">
<path fill="#444" d="M16.493 2.904c0.797-0.193 1.612-0.288 2.427-0.368-0.512 0.724-1.027 1.446-1.523 2.181 0.601 0.074 1.2 0.175 1.791 0.308 2.395 0.54 4.716 1.541 6.628 3.099 0.997 0.812 1.872 1.774 2.57 2.855 0.756 1.165 1.3 2.462 1.639 3.807 0.324 1.274 0.467 2.59 0.483 3.903v0.532c-0.025 1.045-0.122 2.086-0.191 3.128-0.155-0.382-0.309-0.765-0.464-1.148-0.16-0.39-0.306-0.787-0.5-1.163-0.225-0.45-0.482-0.887-0.787-1.288-0.394 2.134-1.397 4.147-2.843 5.763-0.744 0.834-1.603 1.562-2.536 2.176-0.902 0.604-1.893 1.055-2.856 1.549 0.277-0.467 0.562-0.929 0.837-1.398 0.534-1.034 0.629-2.281 0.274-3.387-0.931 1.945-2.412 3.637-4.267 4.747-0.936 0.564-1.96 0.979-3.019 1.245-0.84 0.214-1.703 0.321-2.565 0.4 0.514-0.721 1.024-1.445 1.52-2.179-1.49-0.183-2.957-0.547-4.358-1.086-1.173-0.455-2.3-1.037-3.328-1.765-0.942-0.666-1.801-1.453-2.529-2.349-0.866-1.059-1.543-2.269-2.008-3.554-0.595-1.625-0.851-3.357-0.887-5.083v-0.697c0.026-1.035 0.123-2.066 0.189-3.098 0.256 0.623 0.504 1.25 0.761 1.873 0.269 0.607 0.593 1.194 0.991 1.726 0.265-1.44 0.809-2.826 1.579-4.071 1.152-1.878 2.841-3.395 4.766-4.452 0.622-0.338 1.26-0.645 1.89-0.968-0.245 0.414-0.494 0.825-0.741 1.238-0.212 0.34-0.351 0.721-0.448 1.109-0.201 0.801-0.169 1.655 0.082 2.441 0.945-1.982 2.466-3.7 4.368-4.809 0.949-0.557 1.986-0.962 3.055-1.217zM15.205 4.158c-1.109 0.431-2.143 1.061-3.025 1.862-0.873 0.784-1.583 1.736-2.146 2.763 0.63-0.426 1.299-0.797 2.012-1.064 2.473-0.949 5.358-0.721 7.66 0.584 1.053 0.592 1.981 1.402 2.722 2.357 0.529 0.676 0.987 1.413 1.312 2.209 0.279 0.674 0.439 1.392 0.507 2.117 0.049 0.605 0.019 1.232-0.213 1.8-0.186 0.463-0.526 0.865-0.961 1.112-0.574 0.334-1.273 0.392-1.917 0.27-0.621-0.11-1.2-0.391-1.704-0.766-0.462-0.322-0.835-0.755-1.136-1.227-0.242-0.34-0.372-0.771-0.313-1.188 0.043-0.327 0.26-0.62 0.553-0.768 0.375-0.193 0.81-0.202 1.222-0.185-0.376-0.426-0.849-0.788-1.404-0.938-0.672-0.188-1.395-0.063-2.024 0.214-0.338 0.14-0.641 0.346-0.931 0.565-0.124-0.17-0.236-0.348-0.364-0.516-0.458-0.611-1.027-1.138-1.671-1.547-0.836-0.532-1.786-0.871-2.761-1.034-0.528-0.086-1.065-0.13-1.6-0.089-0.352-0.533-0.636-1.114-0.803-1.732-0.259-0.932-0.24-1.933 0.024-2.862l-0.019-0.002c-0.772 0.473-1.501 1.020-2.154 1.648-0.939 0.899-1.725 1.957-2.309 3.119-0.545 1.089-0.933 2.264-1.090 3.474-0.049 0.363-0.038 0.73-0.058 1.095-0.182-0.144-0.354-0.301-0.531-0.45-0.511-0.431-0.912-0.975-1.264-1.539 0.002 1.571 0.187 3.151 0.661 4.653 0.418 1.339 1.068 2.609 1.939 3.71 0.765 0.974 1.696 1.814 2.724 2.502 1.212 0.813 2.554 1.422 3.946 1.858 1.444 0.446 2.944 0.745 4.459 0.775-0.022 0.078-0.078 0.14-0.119 0.209-0.35 0.556-0.717 1.101-1.091 1.641 0.475-0.094 0.945-0.212 1.405-0.364 1.342-0.436 2.597-1.151 3.635-2.109 0.846-0.775 1.548-1.703 2.089-2.713-0.301 0.195-0.603 0.391-0.92 0.56-1.292 0.699-2.756 1.075-4.224 1.084-1.481 0.012-2.964-0.347-4.275-1.036-1.124-0.588-2.119-1.418-2.905-2.412-0.788-0.985-1.429-2.113-1.713-3.35-0.162-0.742-0.261-1.515-0.125-2.269 0.099-0.559 0.363-1.102 0.805-1.468 0.425-0.361 0.982-0.543 1.535-0.555 0.824-0.020 1.637 0.267 2.302 0.746 0.518 0.341 0.94 0.81 1.267 1.335 0.222 0.326 0.342 0.733 0.296 1.127-0.037 0.345-0.266 0.656-0.575 0.808-0.371 0.186-0.798 0.192-1.204 0.175 0.36 0.397 0.792 0.748 1.311 0.91 0.696 0.227 1.458 0.099 2.115-0.189 0.338-0.14 0.644-0.342 0.934-0.563 0.239 0.346 0.479 0.693 0.769 0.999 0.953 1.042 2.263 1.713 3.633 2.012 0.654 0.138 1.326 0.226 1.994 0.173 0.556 0.839 0.931 1.812 0.981 2.824 0.027 0.6-0.026 1.215-0.215 1.786 1.956-1.154 3.58-2.884 4.568-4.934 0.509-1.059 0.875-2.193 1.022-3.361 0.044-0.343 0.034-0.69 0.053-1.035 0.004-0.003 0.014-0.008 0.018-0.011 0.313 0.279 0.648 0.535 0.933 0.845 0.323 0.345 0.59 0.736 0.845 1.132 0.002-2.030-0.32-4.084-1.149-5.947-0.564-1.278-1.368-2.449-2.36-3.432-0.93-0.926-2.017-1.685-3.181-2.285-1.335-0.688-2.77-1.173-4.238-1.488-0.854-0.178-1.719-0.315-2.592-0.332-0.072-0.003-0.144 0.001-0.214-0.015 0.388-0.627 0.798-1.239 1.218-1.845-0.669 0.137-1.331 0.316-1.967 0.567zM13.002 8.27c-1.105 0.314-2.147 0.861-3.025 1.603 0.725 0.058 1.444 0.198 2.134 0.431 1.373-0.632 2.918-0.954 4.427-0.747 0.725 0.097 1.428 0.337 2.069 0.688 0.479 0.273 0.9 0.634 1.297 1.014-0.543-0.351-1.1-0.706-1.733-0.87-0.602-0.183-1.237-0.252-1.865-0.212-0.958 0.058-1.894 0.346-2.745 0.784 0.793 0.46 1.499 1.071 2.063 1.795 0.604-0.327 1.278-0.544 1.968-0.566 0.628-0.023 1.263 0.136 1.804 0.457 0.444 0.261 0.824 0.621 1.14 1.025 0.368 0.473 0.644 1.008 0.957 1.517-0.565-0.111-1.123-0.263-1.696-0.324-0.283-0.021-0.585-0.043-0.849 0.079-0.141 0.056-0.152 0.229-0.126 0.357 0.033 0.264 0.217 0.469 0.358 0.683 0.324 0.466 0.785 0.819 1.279 1.089 0.563 0.287 1.23 0.431 1.851 0.267 0.448-0.115 0.824-0.459 0.983-0.893 0.229-0.609 0.168-1.279 0.070-1.909-0.195-1.27-0.832-2.428-1.623-3.424-0.838-1.070-1.944-1.931-3.192-2.47-1.733-0.753-3.726-0.888-5.544-0.371zM7.771 15.236c-0.382 0.245-0.6 0.679-0.67 1.118-0.101 0.631-0.007 1.273 0.122 1.893 0.299 1.308 1.039 2.473 1.919 3.468 0.91 1.008 2.075 1.782 3.356 2.23 1.475 0.521 3.098 0.614 4.622 0.261 1.251-0.286 2.43-0.875 3.416-1.697-0.726-0.056-1.445-0.203-2.137-0.43-0.090 0.026-0.173 0.077-0.261 0.11-1.306 0.557-2.757 0.829-4.172 0.635-0.731-0.098-1.439-0.343-2.085-0.698-0.47-0.27-0.886-0.626-1.273-1.003 0.247 0.157 0.49 0.322 0.748 0.462 0.58 0.333 1.236 0.516 1.896 0.596 0.916 0.102 1.849-0.038 2.716-0.34 0.331-0.121 0.666-0.247 0.97-0.427-0.795-0.452-1.493-1.069-2.058-1.788-0.576 0.312-1.215 0.522-1.871 0.56-0.592 0.038-1.195-0.083-1.723-0.355-0.483-0.246-0.898-0.61-1.241-1.028-0.408-0.494-0.699-1.069-1.034-1.612 0.666 0.127 1.323 0.331 2.005 0.343 0.213-0.007 0.456-0.009 0.626-0.156 0.104-0.155 0.038-0.359-0.019-0.52-0.271-0.479-0.625-0.923-1.083-1.237-0.384-0.282-0.818-0.502-1.288-0.594-0.496-0.102-1.050-0.078-1.484 0.207z"></path>
</svg>
