<svg version="1.0" xmlns="http://www.w3.org/2000/svg" viewBox="0 0 900 900"><path d="M545 67.1m-39 29.4c0 .2-4.7 7.9-10.5 17-5.8 9.2-11.2 18-12.1 19.6-.8 1.7-3.1 5.1-5 7.6-1.9 2.4-3.4 5-3.4 5.7 0 1 3.2 1.5 12.3 2 15 .9 48.4 3.4 55.2 4.2 7.8.9 38.4 9 56 14.9 27.1 9 62.5 25.2 87.6 40.1 30.2 17.9 61.3 46.9 85.7 79.9 10.3 13.8 24.5 37.7 32.7 54.8 25.6 53.4 41.4 120.2 43.1 183.2l.6 20-6.4-10.6c-3.6-5.8-11.6-18.1-17.9-27.2-6.3-9.1-13.3-19.4-15.7-22.9-2.3-3.4-5.1-7.1-6.1-8.2-1.9-1.8-1.9-1.7-3.1 4-.6 3.3-1.8 8.5-2.6 11.6-.8 3.2-1.4 7.6-1.4 9.7 0 5-4 21.1-8.5 33.9-6.6 19.1-18.9 43.9-31.3 63.2-23.2 36.1-63.2 79.1-98.7 106.2-10.4 7.9-24.8 17.8-25.2 17.4-.2-.2.7-4.8 2.1-10.2 1.3-5.5 3-12.7 3.6-16 1.4-8.2 1.5-37.1.1-45.9-1.3-8.3-10.6-43.6-12.6-48.3-2.1-4.6-6.9-7.2-13.3-7.2-9.6 0-49.3-4-59.9-6.1-19.8-3.8-38.6-11.4-50.3-20.2-3-2.3-10.3-8.5-16.1-13.8-8.3-7.6-12.6-12.7-20.1-23.6-5.3-7.6-11-15.1-12.6-16.6-5.5-5.3-8.2-4.9-32.8 4.6-26.6 10.3-30.1 11.2-42.9 11.1-11.5-.1-19.1-2.2-28.9-8.1-6.4-3.9-16.4-12.9-22.5-20.2l-3.9-4.7 11.1 1.3c20.7 2.2 31.4-1.5 37.2-13 3.7-7.4 3.5-16.9-.6-29.1-8.8-26.5-32.1-48.1-66-61.2-26.3-10.2-50.1-7.5-69.1 7.7-16.9 13.5-26.2 30.3-28.9 52.3-3 23.8 5.6 56.5 24.6 94.1 14.3 28.2 27.2 46.4 47.9 67.1 28.9 29 60.8 48.1 102.2 61.3 24 7.7 45.4 11.1 69.9 11.1 28-.1 52.6-5.1 77.5-16 6.4-2.8 41.6-20.8 61.6-31.6l6.2-3.3-2.5 6.2c-6.9 17.1-20.9 40.8-33.1 55.8-8.2 10.2-23.9 25.9-33.7 33.8-22.4 18-55.5 34.9-89.5 45.5-10.7 3.3-39.9 10.6-42.7 10.6-.7 0 4.1-7.1 10.8-15.8 6.6-8.6 13.5-17.6 15.2-20 1.8-2.3 5.3-6.8 8-9.9 5.5-6.5 5.1-7.3-3.5-7.3-8.8 0-59.8-3.9-73.8-5.5-44.9-5.5-120.9-37.7-162.3-68.8-13.4-10.1-34.8-30.4-46.7-44.2-18.2-21.3-35.9-48.6-48.5-74.8-25.6-53.4-41.4-120.2-43.1-183.2l-.6-20 6.4 10.5c8.1 13.4 25.8 39.7 30.3 45 1.9 2.3 4.8 6.7 6.5 9.8 3.5 6.5 5.8 9.7 6.4 9.1.7-.7 3.8-21.1 4-26.9.6-12.3 9.4-45.2 17.8-66 19.7-48.9 40-78.6 78.8-115.3 15.9-15.1 39.3-32.7 52.5-39.5 3.3-1.7 8.3-4.5 11.1-6.1l5.2-3-2.4 8.7c-5.2 18.6-6.4 27.4-6.5 45-.1 9.2.4 19.8 1 23.7 1.3 8.3 10.6 43.6 12.6 48.3 2.1 4.6 6.9 7.2 13.3 7.2 9.6 0 49.3 4 59.9 6.1 19.8 3.8 38.6 11.4 50.3 20.2 3 2.3 10.3 8.5 16.1 13.8 8.3 7.6 12.6 12.7 20.1 23.6 5.3 7.6 11 15.1 12.6 16.6 5.5 5.2 8.2 4.9 32.7-4.3 26.4-9.8 31.1-11 43.6-11 17.6 0 27.6 4.6 42.2 19.5l9.9 10-14.4.5c-11.7.4-15.1.9-18.8 2.6-13.7 6.3-18.6 20.9-13 38.9 7.1 22.7 23.8 41.1 50 55.2 31.9 17.3 59.3 18.5 81.6 3.7 24.3-16.1 37-44.7 33.6-75.7-3.7-33.8-24.8-82.1-51.1-117.2-9.1-12-27.6-31.3-38.6-40.2-32.2-26-73.5-44.9-115.4-52.9-24.8-4.8-56.8-4.5-80.3.7-24.7 5.4-35.6 10.2-97.4 42.9l-7.2 3.8 2.5-6.2c6.9-17 20.9-40.7 33.1-55.7 8.2-10.2 23.9-25.9 33.7-33.8 22.4-18 55.5-34.9 89.5-45.5 18.7-5.9 45-11.8 45-10.1z"/></svg>