<!-- Generated by IcoMoon.io -->
<svg version="1.1" xmlns="http://www.w3.org/2000/svg" width="31" height="32" viewBox="0 0 31 32">
<path fill="#444" d="M15.205 4.158c0.636-0.251 1.298-0.43 1.967-0.567-0.42 0.606-0.83 1.218-1.218 1.845 0.070 0.016 0.142 0.012 0.214 0.015 0.873 0.016 1.739 0.154 2.592 0.332 1.467 0.315 2.902 0.801 4.238 1.488 1.164 0.6 2.252 1.36 3.181 2.285 0.992 0.983 1.796 2.154 2.36 3.432 0.829 1.863 1.151 3.917 1.149 5.947-0.255-0.396-0.522-0.787-0.845-1.132-0.284-0.31-0.619-0.566-0.933-0.845-0.005 0.003-0.014 0.008-0.018 0.011-0.019 0.345-0.009 0.692-0.053 1.035-0.147 1.168-0.513 2.302-1.022 3.361-0.988 2.050-2.612 3.78-4.568 4.934 0.189-0.572 0.241-1.186 0.215-1.786-0.049-1.011-0.425-1.985-0.981-2.824-0.668 0.053-1.341-0.035-1.994-0.173-1.37-0.299-2.68-0.97-3.633-2.012-0.29-0.306-0.53-0.654-0.769-0.999-0.289 0.222-0.596 0.423-0.934 0.563-0.658 0.288-1.42 0.416-2.115 0.189-0.519-0.162-0.951-0.513-1.311-0.91 0.405 0.017 0.833 0.012 1.204-0.175 0.309-0.152 0.538-0.463 0.575-0.808 0.046-0.395-0.073-0.801-0.296-1.127-0.327-0.525-0.749-0.994-1.267-1.335-0.665-0.479-1.478-0.766-2.302-0.746-0.553 0.012-1.11 0.194-1.534 0.555-0.442 0.366-0.706 0.909-0.805 1.468-0.136 0.754-0.037 1.527 0.125 2.269 0.285 1.237 0.926 2.365 1.713 3.35 0.786 0.995 1.781 1.824 2.905 2.412 1.311 0.689 2.794 1.048 4.275 1.036 1.468-0.009 2.932-0.385 4.224-1.084 0.317-0.168 0.619-0.365 0.92-0.56-0.541 1.010-1.243 1.938-2.089 2.713-1.038 0.958-2.293 1.673-3.635 2.109-0.46 0.152-0.93 0.27-1.405 0.364 0.374-0.54 0.741-1.085 1.091-1.641 0.040-0.069 0.097-0.131 0.119-0.209-1.515-0.029-3.014-0.329-4.459-0.775-1.391-0.436-2.733-1.045-3.946-1.858-1.028-0.688-1.959-1.528-2.724-2.502-0.87-1.102-1.52-2.372-1.939-3.71-0.474-1.502-0.659-3.082-0.661-4.653 0.352 0.564 0.753 1.108 1.264 1.539 0.178 0.149 0.349 0.306 0.531 0.45 0.020-0.365 0.010-0.732 0.058-1.095 0.157-1.21 0.545-2.385 1.090-3.474 0.584-1.161 1.37-2.22 2.309-3.119 0.654-0.627 1.383-1.175 2.154-1.648l0.019 0.002c-0.264 0.929-0.283 1.93-0.024 2.862 0.167 0.618 0.451 1.199 0.803 1.732 0.534-0.042 1.072 0.003 1.6 0.089 0.975 0.163 1.926 0.502 2.761 1.034 0.644 0.409 1.214 0.936 1.671 1.547 0.128 0.167 0.24 0.346 0.364 0.516 0.29-0.219 0.594-0.425 0.931-0.565 0.629-0.277 1.351-0.402 2.024-0.214 0.556 0.15 1.028 0.511 1.404 0.938-0.412-0.017-0.847-0.008-1.222 0.185-0.293 0.149-0.509 0.441-0.553 0.768-0.059 0.417 0.071 0.847 0.313 1.188 0.301 0.473 0.674 0.905 1.136 1.227 0.503 0.375 1.083 0.656 1.704 0.766 0.644 0.122 1.343 0.064 1.917-0.27 0.435-0.247 0.775-0.649 0.961-1.112 0.233-0.568 0.262-1.195 0.213-1.8-0.068-0.725-0.228-1.444-0.507-2.117-0.325-0.796-0.783-1.533-1.312-2.209-0.74-0.955-1.668-1.765-2.722-2.357-2.302-1.305-5.188-1.532-7.66-0.584-0.713 0.267-1.382 0.638-2.012 1.064 0.562-1.027 1.272-1.979 2.146-2.763 0.882-0.801 1.915-1.431 3.025-1.862z"></path>
</svg>
