<!-- Generated by IcoMoon.io -->
<svg version="1.1" xmlns="http://www.w3.org/2000/svg" width="31" height="32" viewBox="0 0 31 32">
<path fill="#444" d="M14.852 12.885l0.017-0.003c0.005 0.020 0.009 0.040 0.013 0.061 0.121-0.114 0.259-0.236 0.377-0.319 2.351-1.656 4.316 0.171 4.316 0.171l0.123 0.114-0.082 0.146c0 0-0.93 0.806-1.007 2.239-0.093 1.741 1.415 3.158 3.158 3.158 0.872 0 1.713-0.498 2.338-1.207 0.631-0.716 1.045-1.651 1.038-2.532-0.012-1.495-0.073-3.934-1.668-5.902-1.604-1.98-4.75-3.464-10.898-3.088l-0.238 0.015 0.012-0.238c0.028-0.546 0.305-1.151 0.745-1.704 0.642-0.806 1.626-1.5 2.62-1.736l0.302-0.072-0.042 0.308c0 0-0.074 0.584 0.397 1.079 0.339 0.357 0.948 0.657 2.019 0.709 5.571 0.271 9.872 5.064 11.6 11.152 0.601 2.118 0.444 4.985 0.444 4.985l-0.036 0.658-0.356-0.555c0 0-0.294-0.46-0.611-0.75-0.081-0.074-0.163-0.138-0.241-0.172-0.029-0.013-0.055-0.029-0.079-0.016-0.020 0.011-0.033 0.036-0.048 0.067-0.031 0.065-0.053 0.154-0.069 0.27-0.406 2.972-2.788 5.518-5.158 7.116l-0.434 0.265c0 0 0.077-0.436 0.072-0.53-0.022-0.403 0.096-1.935-0.182-3.227-0.17-0.791-0.477-1.5-1.113-1.725-0.871-0.308-1.693-0.205-3.382 0.26l-0.065 0.018-0.064-0.023c-0.848-0.306-2.086-0.753-3.013-2.764l-0.017 0.003c-0.004-0.020-0.009-0.040-0.013-0.061-0.121 0.114-0.259 0.235-0.377 0.318-2.351 1.656-4.316-0.171-4.316-0.171l-0.123-0.114c0 0 0.594-0.69 0.894-1.395 0.116-0.272 0.196-0.857 0.196-0.991 0-1.743-1.415-3.158-3.158-3.158-0.872 0-1.713 0.498-2.338 1.207-0.631 0.716-1.044 1.651-1.037 2.532 0.012 1.495 0.073 3.934 1.668 5.902 1.604 1.98 4.75 3.465 10.898 3.088l0.238-0.015-0.012 0.238c-0.028 0.546-0.305 1.151-0.745 1.704-0.642 0.806-1.626 1.5-2.62 1.736l-0.302 0.072 0.042-0.308c0 0 0.074-0.584-0.397-1.079-0.339-0.357-0.948-0.657-2.019-0.709-5.571-0.271-9.873-5.064-11.6-11.152-0.601-2.118-0.444-4.985-0.444-4.985l0.036-0.658 0.356 0.555c0 0 0.294 0.46 0.611 0.75 0.081 0.074 0.163 0.138 0.241 0.172 0.029 0.013 0.055 0.029 0.079 0.016 0.020-0.011 0.033-0.036 0.048-0.067 0.031-0.066 0.053-0.155 0.069-0.27 0.406-2.972 2.788-5.518 5.158-7.116l0.448-0.277c0 0-0.092 0.448-0.086 0.542 0.022 0.403-0.096 1.935 0.182 3.227 0.17 0.791 0.477 1.5 1.113 1.725 0.871 0.308 1.693 0.205 3.382-0.26l0.065-0.018 0.064 0.023c0.848 0.306 2.086 0.752 3.013 2.764z"></path>
</svg>
