<!-- Generated by IcoMoon.io -->
<svg version="1.1" xmlns="http://www.w3.org/2000/svg" width="29" height="32" viewBox="0 0 29 32">
<title>thb</title>
<path fill="#444" d="M2.223 5.818c1.722-2.619 4.153-4.85 7.098-5.818 0.046 0.801-0.025 1.606 0.048 2.407 0.375 1.373 1.613 2.284 2.009 3.644-2.462 0.888-4.826 2.867-5.303 5.662 0.936-1.392 1.873-2.869 3.29-3.778 0.69-0.469 1.495-0.718 2.305-0.835 0.187 1.228 0.041 2.472 0.131 3.708 0.091 0.98 1.022 1.641 1.92 1.682 1.062 0.123 2.422-0.041 2.933-1.171 0.407-1.37-0.114-2.861 0.32-4.227 0.858 0.136 1.686 0.454 2.396 0.976 1.357 0.885 2.27 2.29 3.149 3.64-0.416-2.013-1.827-3.623-3.464-4.693-0.602-0.361-1.236-0.664-1.85-1.004 0.446-1.199 1.359-2.119 1.893-3.264 0.131-0.897 0.023-1.81 0.061-2.714 1.029 0.103 1.926 0.704 2.812 1.209 2.243 1.611 4.297 3.694 5.374 6.344 0.843 1.912 1.294 4.010 1.276 6.114-0.728-0.295-1.505-0.63-2.3-0.437-1.088 0.178-2.087 1.025-2.353 2.155-0.106 0.859-0.138 1.812 0.353 2.56 0.488 0.914 1.555 1.118 2.346 1.641-0.629 1.751-1.516 3.416-2.656 4.865-1.064 1.27-2.324 2.358-3.703 3.238-0.277 0.171-0.584 0.274-0.886 0.381 0.415-2.907 2.1-5.397 3.891-7.586-1.556 0.897-2.696 2.39-3.594 3.956-0.717 1.372-1.367 2.881-1.286 4.479 0.017 0.649 0.247 1.261 0.423 1.877-1.662 1.114-3.715 1.253-5.638 1.134-1.204-0.131-2.459-0.371-3.454-1.139 0.367-1.161 0.561-2.419 0.217-3.615-0.529-1.71-1.324-3.351-2.45-4.722-0.516-0.699-1.186-1.256-1.928-1.675 0.551 1.025 1.342 1.879 1.913 2.892 0.767 1.332 1.443 2.785 1.548 4.358-1.181-0.506-2.255-1.273-3.104-2.265-1.815-1.698-3.28-3.866-3.985-6.311 0.823-0.305 1.795-0.542 2.283-1.373 0.556-0.785 0.473-1.808 0.402-2.724-0.189-0.749-0.738-1.356-1.322-1.81-1.025-0.65-2.304-0.407-3.3 0.178-0.237-2.821 0.757-5.588 2.185-7.94zM7.179 15.25c-0.148 0.794 0.418 1.465 0.987 1.9 0.75 0.588 1.755 0.397 2.613 0.248 0.503-0.145 0.99 0.090 1.458 0.255 0.227-0.602 0.382-1.234 0.418-1.882-0.511-0.405-1.073-0.742-1.676-0.978-0.854-0.369-1.8-0.259-2.701-0.226-0.426 0.034-1.020 0.159-1.1 0.683zM16.007 15.723c-0.139 0.625 0.095 1.239 0.33 1.803 1.211-0.509 2.509 0.385 3.695-0.214 0.785-0.29 1.344-1.087 1.389-1.95-0.076-0.449-0.564-0.618-0.929-0.744-1.553-0.314-3.252 0.062-4.485 1.104zM14.232 22.646c-0.561-0.19-1.005-0.626-1.556-0.837-0.297-0.048-0.597 0.002-0.893 0.021 0.056 0.245 0.1 0.554 0.398 0.588 0.722 0.147 1.445 0.35 2.18 0.395 0.773-0.138 1.546-0.29 2.318-0.449-0.005-0.2-0.012-0.4-0.018-0.6-0.919-0.269-1.563 0.775-2.429 0.882zM11.582 25.997c0.236 0.34 0.4 0.804 0.818 0.944 0.692 0.242 1.433 0.228 2.155 0.233 0.551-0.010 1.13-0.005 1.634-0.267 0.377-0.183 0.581-0.578 0.828-0.902-0.758-0.593-1.75-0.35-2.63-0.399-0.937 0.060-1.981-0.204-2.806 0.392z"></path>
</svg>
