<!-- Generated by IcoMoon.io -->
<svg version="1.1" xmlns="http://www.w3.org/2000/svg" width="32" height="32" viewBox="0 0 32 32">
<path fill="#444" d="M16.005 30.086v0.001c-3.32-0.090-7.224-4.059-8.848-7.48 0 0-1.252-0.744-1.794-1.194-0.531-0.44-1.061-1.414-1.22-1.923-0.204-0.653-0.313-2.663-0.171-3.693 0.065-0.473 0.281-1.024 0.534-1.344 0.291-0.368 1.104-0.313 1.711-0.112 0 0-0.069-1.827-0.036-2.574 0-5.428 4.398-9.836 9.822-9.853v-0.001c5.425 0.015 9.825 4.425 9.825 9.853 0.034 0.747-0.036 2.574-0.036 2.574 0.607-0.201 1.42-0.256 1.711 0.112 0.253 0.321 0.461 0.873 0.534 1.345 0.128 0.823 0.029 2.79-0.171 3.693-0.116 0.521-0.699 1.478-1.22 1.923-0.536 0.458-1.794 1.194-1.794 1.194-1.623 3.42-5.526 7.388-8.846 7.48zM16.005 2.906v0.001c-0.486 0.002-0.963 0.042-1.428 0.119l-0.636 8.752-3.359-0.012 5.421 6.089 5.422-6.091-3.359 0.012-0.636-8.753c-0.464-0.077-0.94-0.118-1.425-0.119zM16.002 19.226l-7.296-8.222 4.448-0.009 0.553-7.779c-3.766 1.022-6.544 4.466-6.544 8.551 0 0.318-0.010 1.228-0.015 1.784-0.009 0.948 0.004 1.79 0.072 3.368 0 0-0.827-1.040-1.098-1.235-0.433-0.312-0.837-0.099-0.952 0.19-0.254 0.639-0.007 3.481 0.073 3.485 0.263 1.272 2.514 2.432 2.934 2.438 0.527 2.688 4.91 7.114 7.824 7.193v-0.001c2.914-0.077 7.3-4.505 7.827-7.193 0.42-0.006 2.671-1.166 2.934-2.438 0.080-0.005 0.327-2.847 0.073-3.485-0.115-0.289-0.519-0.502-0.952-0.19-0.271 0.195-1.098 1.235-1.098 1.235 0.069-1.578 0.081-2.421 0.072-3.368-0.005-0.556-0.015-1.466-0.015-1.784 0-4.085-2.778-7.528-6.544-8.551l0.553 7.779 4.448 0.008-7.299 8.223zM11.424 16.785c1.688 0.349 3.438 2.288 3.185 3.513s-1.711 1.552-3.4 1.203c-1.688-0.349-2.989-1.656-2.736-2.882 0.116-0.56 0.604-0.614 0.955-1.103 0.421-0.587 1.078-0.921 1.995-0.732zM11.456 17.819c-0.611-0.126-1.042 0.061-1.312 0.402-0.225 0.284-0.548 0.309-0.616 0.638-0.149 0.721 0.734 1.515 1.859 1.747s2.162 0.142 2.311-0.579c0.149-0.721-1.116-1.976-2.241-2.208zM20.583 16.784c0.917-0.189 1.574 0.145 1.995 0.732 0.351 0.49 0.84 0.543 0.955 1.103 0.253 1.226-1.048 2.533-2.736 2.882s-3.146 0.022-3.4-1.203c-0.253-1.226 1.497-3.165 3.185-3.513zM20.55 17.818c-1.125 0.232-2.39 1.487-2.241 2.208s1.186 0.812 2.311 0.579c1.125-0.232 2.008-1.026 1.859-1.747-0.068-0.329-0.391-0.354-0.616-0.638-0.27-0.341-0.701-0.529-1.312-0.402z"></path>
</svg>
