<!-- Generated by IcoMoon.io -->
<svg version="1.1" xmlns="http://www.w3.org/2000/svg" width="25" height="32" viewBox="0 0 25 32">
<path fill="#444" d="M6.751 3.319c1.769-1.255 3.951-1.884 6.113-1.859 2.473 0.070 4.937 1.009 6.76 2.695 1.256 1.129 2.108 2.644 2.6 4.249 0.616 1.962 0.856 4.045 0.644 6.093 0.811-0.13 1.748 0.162 2.152 0.919 0.441 0.885 0.339 1.916 0.162 2.856-0.304 1.49-0.961 2.962-2.082 4.016-0.459 0.454-1.091 0.611-1.687 0.782-0.926 2.083-2.288 4.002-4.108 5.396-1.342 1.036-2.927 1.766-4.595 2.077-2.464-0.391-4.709-1.781-6.354-3.634-1.031-1.132-1.813-2.464-2.45-3.849-0.64-0.156-1.294-0.362-1.765-0.85-1.078-1.074-1.721-2.526-2.003-4.007-0.164-0.909-0.259-1.899 0.156-2.758 0.39-0.768 1.335-1.077 2.15-0.945-0.196-1.841 0.053-3.696 0.465-5.491 0.54-2.274 1.919-4.347 3.84-5.688zM23.803 15.607c-0.372-0.226-0.821-0.099-1.186 0.072-0.177 0.595-0.441 1.158-0.745 1.697 0.085-1.472 0.235-2.945 0.231-4.422-0.073-2.309-0.543-4.705-1.893-6.627-1.31-1.873-3.37-3.25-5.636-3.627 0.627 2.596 1.049 5.238 1.253 7.9 1.389 0.016 2.778 0.007 4.166-0.004-2.45 2.79-4.889 5.589-7.328 8.387-2.441-2.799-4.874-5.602-7.331-8.386 1.385 0.013 2.768 0.013 4.154 0.009 0.244-2.67 0.625-5.332 1.28-7.933-2.434 0.457-4.639 1.976-5.931 4.089-0.879 1.379-1.253 3.002-1.507 4.597-0.204 2 0.016 4.005 0.124 6.004-0.313-0.535-0.576-1.097-0.755-1.689-0.437-0.251-0.961-0.237-1.385 0.034-0.383 0.761-0.241 1.678-0.12 2.489 0.047 0.196 0.101 0.391 0.142 0.589 0.32 1.024 0.828 2.023 1.611 2.77 0.463 0.466 1.15 0.412 1.746 0.53 0.102 0.505 0.348 0.96 0.58 1.414 1.207 2.325 3.117 4.357 5.545 5.409 0.58 0.229 1.169 0.444 1.779 0.578 0.559-0.038 1.087-0.278 1.614-0.459 3.054-1.204 5.346-3.929 6.48-6.96 0.473-0.108 1.009-0.029 1.427-0.317 0.59-0.383 0.955-1.004 1.31-1.592 0.261-0.453 0.442-0.939 0.574-1.44 0.178-0.638 0.277-1.266 0.308-1.689 0.031-0.421 0.018-1.151-0.495-1.416-0.004-0.002-0.008-0.004-0.011-0.006zM5.572 16.872c0.448-0.247 0.944-0.482 1.471-0.428 0.656 0.107 1.227 0.481 1.748 0.875 0.98 0.768 1.943 1.594 2.626 2.651-0.181-0.080-0.362-0.164-0.54-0.247-0.013 0.503 0.223 1.385-0.475 1.509-1.201 0.372-2.602 0.489-3.728-0.168-0.9-0.524-1.499-1.43-1.857-2.39 0.758-0.868 1.851-1.338 2.983-1.452-0.628-0.538-1.468-0.557-2.229-0.351zM5.437 18.772c0.403 1.069 1.321 2.010 2.479 2.201 0.814 0.175 1.64-0.038 2.429-0.235 0.13-0.564 0.133-1.313-0.4-1.671-0.519-0.39-0.979-0.857-1.529-1.202-1.078-0.27-2.179 0.188-2.978 0.907zM16.196 17.583c0.59-0.462 1.208-0.936 1.95-1.115 0.565-0.129 1.113 0.142 1.605 0.389-0.435-0.060-0.879-0.156-1.319-0.086-0.336 0.077-0.615 0.297-0.906 0.469 1.135 0.077 2.219 0.574 2.977 1.431-0.441 1.309-1.472 2.508-2.875 2.786-1.001 0.153-2.067 0.061-2.996-0.352-0.345-0.352-0.149-0.942-0.19-1.391-0.174 0.092-0.348 0.183-0.521 0.273 0.568-0.963 1.439-1.686 2.274-2.404zM16.897 17.872c-0.574 0.375-1.066 0.86-1.61 1.275-0.47 0.38-0.343 1.053-0.326 1.581 0.84 0.221 1.729 0.438 2.593 0.218 0.945-0.196 1.689-0.916 2.149-1.735 0.063-0.146 0.234-0.332 0.11-0.488-0.77-0.714-1.874-1.119-2.916-0.85zM11.339 2.476c-0.714 2.831-1.201 5.73-1.353 8.648-1.161-0.020-2.323-0.003-3.484-0.010 2.041 2.375 4.103 4.734 6.179 7.079 2.032-2.372 4.119-4.699 6.145-7.077-1.164 0.003-2.328-0.006-3.493 0.004-0.133-2.919-0.627-5.821-1.353-8.649-0.878-0.129-1.766-0.13-2.642 0.006z"></path>
</svg>
