<!-- Generated by IcoMoon.io -->
<svg version="1.1" xmlns="http://www.w3.org/2000/svg" width="32" height="32" viewBox="0 0 32 32">
<path fill="#444" d="M16.005 2.906c0.485 0.002 0.961 0.042 1.425 0.119l0.636 8.753 3.359-0.012-5.422 6.091-5.421-6.089 3.359 0.012 0.636-8.752c0.465-0.077 0.942-0.118 1.428-0.119v-0.001zM11.456 17.819c1.125 0.232 2.39 1.487 2.241 2.208s-1.186 0.812-2.311 0.579-2.008-1.026-1.859-1.747c0.068-0.329 0.391-0.354 0.616-0.638 0.27-0.341 0.701-0.529 1.312-0.402zM20.55 17.818c0.611-0.126 1.042 0.061 1.312 0.402 0.225 0.284 0.548 0.309 0.616 0.638 0.149 0.721-0.734 1.515-1.859 1.747s-2.162 0.142-2.311-0.579 1.116-1.976 2.241-2.208z"></path>
</svg>
