<!-- Generated by IcoMoon.io -->
<svg version="1.1" xmlns="http://www.w3.org/2000/svg" width="25" height="32" viewBox="0 0 25 32">
<path fill="#444" d="M11.339 2.476c0.876-0.136 1.765-0.134 2.642-0.006 0.726 2.828 1.22 5.73 1.353 8.649 1.164-0.010 2.328-0.001 3.493-0.004-2.026 2.378-4.113 4.705-6.145 7.077-2.076-2.344-4.138-4.704-6.179-7.079 1.161 0.007 2.323-0.010 3.484 0.010 0.152-2.917 0.638-5.817 1.353-8.648zM5.437 18.772c0.799-0.719 1.9-1.177 2.978-0.907 0.551 0.345 1.011 0.812 1.529 1.202 0.533 0.358 0.53 1.107 0.4 1.671-0.789 0.197-1.616 0.41-2.429 0.235-1.158-0.191-2.076-1.132-2.479-2.201zM16.897 17.872c1.041-0.269 2.146 0.136 2.916 0.85 0.124 0.156-0.047 0.342-0.11 0.488-0.46 0.819-1.204 1.54-2.149 1.735-0.863 0.221-1.753 0.003-2.593-0.218-0.018-0.527-0.145-1.201 0.326-1.581 0.543-0.415 1.036-0.9 1.61-1.275z"></path>
</svg>
