<!-- Generated by IcoMoon.io -->
<svg version="1.1" xmlns="http://www.w3.org/2000/svg" width="25" height="32" viewBox="0 0 25 32">
<path fill="#444" d="M4.837 6.761c1.291-2.112 3.497-3.631 5.931-4.089-0.654 2.602-1.036 5.263-1.28 7.933-1.386 0.004-2.77 0.004-4.154-0.009 2.457 2.784 4.891 5.587 7.331 8.386 2.439-2.799 4.879-5.598 7.328-8.387-1.388 0.012-2.777 0.020-4.166 0.004-0.204-2.661-0.627-5.304-1.253-7.9 2.266 0.377 4.325 1.754 5.636 3.627 1.35 1.922 1.82 4.318 1.893 6.627 0.004 1.477-0.146 2.949-0.231 4.422 0.304-0.539 0.568-1.103 0.745-1.697 0.365-0.171 0.814-0.298 1.186-0.072 0.524 0.26 0.538 0.998 0.507 1.421-0.056 0.759-0.332 2.175-0.882 3.129-0.355 0.589-0.72 1.209-1.31 1.592-0.418 0.288-0.954 0.209-1.427 0.317-1.134 3.031-3.425 5.757-6.48 6.96-0.527 0.181-1.055 0.421-1.614 0.459-0.611-0.134-1.199-0.349-1.779-0.578-2.428-1.052-4.338-3.084-5.545-5.409-0.232-0.454-0.478-0.909-0.58-1.414-0.596-0.118-1.283-0.064-1.746-0.53-0.783-0.746-1.291-1.746-1.611-2.77-0.041-0.197-0.095-0.393-0.142-0.589-0.121-0.811-0.263-1.728 0.12-2.489 0.424-0.27 0.948-0.285 1.385-0.034 0.18 0.592 0.443 1.154 0.755 1.689-0.108-1.998-0.329-4.004-0.124-6.004 0.254-1.595 0.628-3.218 1.507-4.597zM5.572 16.872c0.761-0.206 1.601-0.187 2.229 0.351-1.132 0.114-2.225 0.584-2.983 1.452 0.358 0.96 0.957 1.865 1.857 2.39 1.126 0.657 2.527 0.54 3.728 0.168 0.698-0.124 0.462-1.006 0.475-1.509 0.178 0.083 0.359 0.167 0.54 0.247-0.684-1.058-1.646-1.883-2.626-2.651-0.521-0.394-1.093-0.768-1.748-0.875-0.527-0.054-1.022 0.181-1.471 0.428zM16.196 17.583c-0.836 0.719-1.706 1.442-2.274 2.404 0.174-0.091 0.348-0.181 0.521-0.273 0.041 0.448-0.155 1.039 0.19 1.391 0.929 0.413 1.995 0.505 2.996 0.352 1.402-0.278 2.434-1.477 2.875-2.786-0.758-0.857-1.842-1.354-2.977-1.431 0.291-0.172 0.57-0.391 0.906-0.469 0.44-0.070 0.884 0.026 1.319 0.086-0.492-0.247-1.040-0.517-1.605-0.389-0.742 0.178-1.36 0.653-1.95 1.115z"></path>
</svg>
