<!-- Generated by IcoMoon.io -->
<svg version="1.1" xmlns="http://www.w3.org/2000/svg" width="32" height="32" viewBox="0 0 32 32">
<path fill="#444" d="M23.527 5.438c1.295 1.638 2.069 3.705 2.069 5.952 0 0.346 0.011 1.333 0.016 1.937 0.009 1.029-0.004 1.944-0.079 3.656 0 0 0.898-1.129 1.191-1.341 0.47-0.339 0.908-0.107 1.033 0.206 0.276 0.693 0.008 3.778-0.079 3.783-0.286 1.38-2.729 2.64-3.185 2.646-0.572 2.919-5.333 7.725-8.496 7.808v0.001c-3.163-0.086-7.921-4.891-8.493-7.808-0.456-0.007-2.899-1.266-3.185-2.646-0.087-0.005-0.355-3.090-0.079-3.783 0.125-0.314 0.563-0.545 1.033-0.206 0.294 0.211 1.191 1.341 1.191 1.341-0.074-1.713-0.088-2.628-0.078-3.656 0.005-0.604 0.016-1.591 0.016-1.937 0-2.247 0.774-4.315 2.070-5.953 1.2-1.517 2.848-2.665 4.742-3.245 0.096-0.030 0.194-0.058 0.291-0.084l0.893-0.195-0.64 9.49-3.646-0.013 5.885 6.61 5.886-6.611-3.646 0.013-0.64-9.49 0.894 0.195c0.098 0.027 0.195 0.055 0.291 0.084 1.895 0.58 3.543 1.728 4.743 3.246zM10.977 17.413c-0.823-0.181-1.402 0.088-1.766 0.577-0.303 0.408-0.738 0.443-0.83 0.916-0.201 1.035 0.988 2.174 2.503 2.508s2.91 0.204 3.111-0.832c0.201-1.035-1.503-2.836-3.018-3.17zM21.037 17.413c-1.515 0.334-3.218 2.134-3.017 3.17s1.596 1.165 3.111 0.832c1.514-0.334 2.703-1.473 2.503-2.508-0.092-0.473-0.527-0.508-0.83-0.916-0.364-0.489-0.943-0.759-1.766-0.577z"></path>
</svg>
