<!-- Generated by IcoMoon.io -->
<svg version="1.1" xmlns="http://www.w3.org/2000/svg" width="32" height="32" viewBox="0 0 32 32">
<path fill="#444" d="M7.617 16.529c0.856-1.153 1.797-2.509 2.45-3.388l-1.261 3.793c-0.387-0.097-0.784-0.23-1.189-0.405zM17.314 10.807l-4.188-0.133 4.087-1.485c0.099 0.574 0.127 1.114 0.101 1.618zM16.887 12.831l-3.918-1.536 4.293 0.067c-0.073 0.536-0.206 1.026-0.375 1.469zM15.725 14.795l-3.060-3.063 4.002 1.61c-0.283 0.589-0.622 1.076-0.942 1.453zM13.517 16.458l-1.563-3.867 2.978 2.981c-0.376 0.303-0.853 0.618-1.414 0.886zM11.449 17.084l-0.089-4.278 1.646 3.872c-0.474 0.183-0.995 0.327-1.558 0.406zM9.352 17.050l1.384-4.136 0.158 4.225c-0.489 0.028-1.004 0.003-1.542-0.088zM26.163 28.374c-0.036 0.009-0.073 0.018-0.109 0.027-0.231 0.055-0.467 0.095-0.695 0.114 0.051-0.735 0.102-1.474 0.145-2.075l0.66 1.933zM26.599 25.347c0.569-0.045 1.259-0.092 1.95-0.136 0.004 0.306-0.023 0.572-0.072 0.805l-1.879-0.669zM28.314 26.548c-0.087 0.207-0.192 0.385-0.303 0.547l-1.015-1.016 1.318 0.47zM27.263 27.918c-0.166 0.108-0.36 0.204-0.571 0.286l-0.444-1.302 1.015 1.016zM13.44 9.821l0.027-0.021c0 0 1.406-1.040 3.237-2.389 0.169 0.425 0.299 0.835 0.395 1.231l-3.659 1.179z"></path>
</svg>
