<!-- Generated by IcoMoon.io -->
<svg version="1.1" xmlns="http://www.w3.org/2000/svg" width="32" height="32" viewBox="0 0 32 32">
<path fill="#444" d="M5.522 27.206c-1.326-0.543-2.683-1.308-4.056-2.339-0.018-0.013 3.063-4.175 5.81-7.879 0.464 0.208 0.917 0.366 1.359 0.48l-3.113 9.738zM17.166 7.070c3.358-2.472 7.793-5.723 7.834-5.67 1.037 1.315 1.798 2.636 2.333 3.943l-9.7 3.126c-0.113-0.449-0.266-0.915-0.467-1.399zM27.534 5.862c0.617 1.69 0.864 3.353 0.848 4.944h-10.502c0.026-0.557-0.010-1.155-0.128-1.792l9.782-3.153zM28.366 11.362c-0.097 2.011-0.603 3.897-1.295 5.566l-9.662-3.887c0.195-0.503 0.346-1.064 0.423-1.679h10.534zM26.851 17.439c-0.997 2.223-2.299 4.021-3.332 5.158l-7.4-7.408c0.361-0.419 0.749-0.968 1.070-1.638l9.663 3.887zM22.739 23.388c-1.142 1.071-2.882 2.392-5.047 3.397l-3.966-9.81c0.641-0.304 1.181-0.664 1.6-1.008l7.413 7.421zM17.184 27.011c-1.638 0.7-3.499 1.206-5.514 1.293l-0.211-10.656c0.636-0.083 1.224-0.246 1.756-0.453l3.969 9.816zM11.115 28.317c-1.611 0.007-3.313-0.26-5.074-0.91l3.139-9.819c0.602 0.11 1.179 0.141 1.725 0.111l0.21 10.618zM27.103 31.127c-0.684 0.134-1.373 0.177-1.937 0.082 0.039-0.502 0.095-1.294 0.155-2.143l0.014-0.2c0.309-0.021 0.631-0.077 0.942-0.16l0.826 2.421zM26.805 28.534c0.263-0.103 0.506-0.227 0.708-0.366l2 2.002c-0.477 0.358-1.154 0.641-1.867 0.831l-0.842-2.467zM28.264 27.348c0.142-0.198 0.278-0.417 0.388-0.68l2.538 0.904c-0.209 0.764-0.569 1.301-0.929 1.774l-1.997-1.999zM28.819 26.138c0.060-0.272 0.092-0.584 0.084-0.949l0.297-0.018c0.832-0.051 1.607-0.095 2.104-0.125 0.097 0.788 0.086 1.434 0.002 1.978l-2.487-0.886z"></path>
</svg>
