<!-- Generated by IcoMoon.io -->
<svg version="1.1" xmlns="http://www.w3.org/2000/svg" width="32" height="32" viewBox="0 0 32 32">
<path fill="#444" d="M8.104 7.176c0.019 0.015 0.038 0.031 0.056 0.049l2.123 2.125c0.175 0.146 0.355 0.286 0.543 0.417 0.656 0.451 1.347-0.173 1.888-0.517 4.090-3.050 8.255-6.002 12.348-9.052 2.637 3.258 4.383 7.418 4.053 11.668-0.269 4.223-2.354 8.095-5.087 11.241l0.009 0.009c0.47 0.428 0.941 0.996 1.468 1.368 0.070 0.050 0.169 0.085 0.283 0.108 0.963-0.074 2.46-0.186 3.712-0.273 0.729-0.082 1.458-0.162 2.189-0.218 0 0 0.119 0.51 0.146 0.704 0.148 0.742 0.116 1.757 0.007 2.456-0.095 0.613-0.374 1.274-0.66 1.74-0.063 0.197-0.54 0.793-0.54 0.793l0.548 0.479c0.217 0.217 0.216 0.569-0.001 0.786-0.099 0.099-0.227 0.153-0.356 0.161l-0.040 0.001c-0.141-0.001-0.282-0.055-0.39-0.163l-0.485-0.491-0.237 0.158c-0.317 0.21-0.691 0.397-1.096 0.554-0.434 0.196-0.881 0.359-1.352 0.448-0.34 0.063-1.381 0.149-2.117 0.031-0.238-0.038-0.78-0.189-0.843-0.199 0.036-0.432 0.076-0.864 0.118-1.296 0.091-1.402 0.258-3.616 0.348-4.795-0.010-0.033-0.022-0.066-0.034-0.098-0.009-0.014-0.017-0.027-0.026-0.041l-1.467-1.468c-3.389 3.024-7.772 5.233-12.404 5.095-3.829 0.005-7.455-1.696-10.409-4.040 2.994-4.192 6.058-8.338 9.103-12.495 0.309-0.507 0.843-1.155 0.459-1.76-0.059-0.085-0.121-0.167-0.184-0.249l-2.402-2.404c-0.017-0.017-0.032-0.034-0.046-0.052l-0.107-0.102c-0.215-0.219-0.212-0.571 0.007-0.785s0.571-0.212 0.786 0.007l0.091 0.099zM17.166 7.070c0.201 0.484 0.354 0.95 0.467 1.399l9.7-3.126c-0.535-1.307-1.296-2.628-2.333-3.943-0.041-0.052-4.477 3.198-7.834 5.67zM28.366 11.362h-10.533c-0.077 0.615-0.229 1.176-0.423 1.679l9.662 3.887c0.692-1.669 1.198-3.555 1.295-5.566zM26.851 17.439l-9.663-3.887c-0.32 0.67-0.709 1.218-1.069 1.638l7.4 7.408c1.033-1.137 2.335-2.935 3.332-5.159zM9.352 17.050c0.537 0.092 1.053 0.116 1.542 0.089l-0.158-4.225-1.384 4.136zM11.115 28.317l-0.21-10.618c-0.546 0.030-1.123-0.001-1.725-0.111l-3.139 9.819c1.761 0.65 3.463 0.916 5.074 0.91zM7.617 16.529c0.406 0.174 0.803 0.307 1.189 0.405l1.261-3.793c-0.653 0.88-1.594 2.235-2.45 3.388zM5.522 27.206l3.113-9.738c-0.442-0.114-0.895-0.272-1.359-0.48-2.747 3.703-5.827 7.865-5.81 7.879 1.373 1.031 2.73 1.796 4.056 2.339zM17.184 27.012l-3.969-9.816c-0.532 0.207-1.12 0.37-1.756 0.453l0.211 10.656c2.015-0.087 3.876-0.593 5.514-1.293zM11.449 17.084c0.562-0.078 1.084-0.223 1.558-0.406l-1.647-3.872 0.089 4.278zM27.263 27.918l-1.015-1.016 0.444 1.301c0.21-0.082 0.405-0.178 0.571-0.286zM27.103 31.127l-0.826-2.421c-0.311 0.083-0.634 0.139-0.943 0.16l-0.014 0.2c-0.059 0.849-0.116 1.641-0.155 2.143 0.564 0.095 1.253 0.051 1.937-0.083zM27.534 5.862l-9.782 3.153c0.118 0.637 0.154 1.235 0.127 1.792h10.502c0.016-1.591-0.231-3.254-0.848-4.944zM26.163 28.374l-0.66-1.933c-0.042 0.601-0.093 1.34-0.145 2.075 0.228-0.020 0.463-0.059 0.695-0.114 0.037-0.009 0.073-0.018 0.109-0.027zM26.599 25.347l1.879 0.669c0.048-0.234 0.075-0.499 0.071-0.805-0.691 0.044-1.382 0.090-1.95 0.136zM28.314 26.548l-1.318-0.47 1.015 1.016c0.111-0.162 0.215-0.34 0.303-0.547zM16.887 12.831c0.169-0.443 0.302-0.933 0.375-1.469l-4.293-0.067 3.918 1.536zM15.725 14.795c0.32-0.378 0.659-0.864 0.942-1.453l-4.002-1.61 3.060 3.063zM13.44 9.821l3.659-1.179c-0.096-0.395-0.226-0.806-0.395-1.231-1.83 1.348-3.237 2.389-3.237 2.389l-0.027 0.021zM17.314 10.806c0.026-0.504-0.002-1.044-0.101-1.618l-4.087 1.485 4.188 0.133zM13.517 16.458c0.561-0.267 1.037-0.582 1.413-0.885l0.001-0.001-2.978-2.981 1.563 3.866zM15.324 15.968c-0.419 0.344-0.959 0.704-1.598 1.007l3.966 9.81c2.164-1.004 3.904-2.325 5.046-3.396l0.001-0.001-7.414-7.42zM26.805 28.534l0.842 2.467c0.713-0.19 1.389-0.473 1.867-0.831l-2-2.002c-0.203 0.139-0.445 0.262-0.708 0.366zM28.264 27.348l1.997 1.999c0.36-0.473 0.72-1.010 0.929-1.774l-2.538-0.904c-0.11 0.262-0.246 0.482-0.388 0.68zM28.819 26.138l2.487 0.886c0.083-0.544 0.095-1.191-0.002-1.978-0.496 0.030-1.272 0.074-2.104 0.125l-0.297 0.018c0.007 0.365-0.025 0.677-0.085 0.949z"></path>
</svg>
