<!-- Generated by IcoMoon.io -->
<svg version="1.1" xmlns="http://www.w3.org/2000/svg" width="32" height="32" viewBox="0 0 32 32">
<path fill="#444" d="M15.836 0h0.33c1.273 0.018 2.551 0.211 3.752 0.642 0.329 0.118 0.651 0.258 0.956 0.429 0.099 0.281 0.193 0.565 0.29 0.847 0.281-0.048 0.562-0.095 0.843-0.143 1.76 1.248 3.187 2.927 4.264 4.787 0.3 0.525 0.582 1.063 0.804 1.627-0.069 0.225-0.138 0.451-0.208 0.676 0.207 0.11 0.421 0.206 0.624 0.323 0.543 1.078 0.951 2.226 1.203 3.407 0.198 0.957 0.32 1.94 0.247 2.917-0.156 0.163-0.314 0.325-0.472 0.488 0.157 0.163 0.315 0.325 0.472 0.488 0.071 0.94-0.041 1.886-0.224 2.808-0.25 1.218-0.666 2.402-1.225 3.513-0.2 0.121-0.418 0.215-0.625 0.326 0.069 0.225 0.138 0.451 0.207 0.676-0.182 0.473-0.415 0.923-0.656 1.367-1.092 1.967-2.574 3.738-4.41 5.050-0.282-0.048-0.563-0.098-0.845-0.146-0.097 0.282-0.191 0.565-0.29 0.846-0.48 0.27-1 0.459-1.526 0.615-1.033 0.301-2.109 0.442-3.184 0.456h-0.438c-0.901-0.024-1.802-0.13-2.677-0.35-0.664-0.169-1.322-0.387-1.922-0.722-0.099-0.281-0.193-0.564-0.29-0.846-0.281 0.049-0.562 0.097-0.843 0.146-1.831-1.307-3.308-3.071-4.4-5.030-0.246-0.451-0.483-0.909-0.668-1.388 0.069-0.225 0.139-0.451 0.207-0.676-0.207-0.11-0.421-0.206-0.623-0.323-0.712-1.417-1.197-2.954-1.393-4.529-0.070-0.595-0.108-1.196-0.058-1.794 0.156-0.163 0.314-0.325 0.472-0.488-0.157-0.163-0.315-0.325-0.472-0.488-0.071-0.934 0.040-1.872 0.22-2.788 0.247-1.219 0.665-2.401 1.217-3.515 0.014-0.035 0.055-0.046 0.084-0.064 0.185-0.092 0.369-0.186 0.553-0.28-0.070-0.225-0.139-0.451-0.208-0.676 0.162-0.419 0.364-0.821 0.575-1.217 1.1-2.027 2.606-3.858 4.493-5.198 0.281 0.048 0.562 0.095 0.843 0.143 0.097-0.282 0.191-0.565 0.291-0.847 0.38-0.213 0.786-0.377 1.199-0.513 1.13-0.372 2.321-0.542 3.509-0.558zM11.903 1.742c-0.142 0.417-0.286 0.834-0.428 1.251-0.416-0.070-0.831-0.142-1.247-0.21-0.998 0.759-1.872 1.673-2.623 2.675-0.648 0.867-1.215 1.797-1.669 2.781 0.116 0.37 0.229 0.741 0.345 1.111-0.352 0.181-0.705 0.359-1.056 0.539-0.401 0.853-0.718 1.747-0.932 2.666-0.193 0.835-0.31 1.691-0.304 2.55 0.289 0.299 0.578 0.597 0.867 0.896-0.29 0.297-0.577 0.597-0.866 0.894-0.003 0.601 0.055 1.202 0.155 1.795 0.199 1.184 0.57 2.337 1.081 3.423 0.352 0.179 0.704 0.358 1.056 0.537-0.116 0.37-0.229 0.741-0.345 1.111 0.139 0.305 0.292 0.604 0.454 0.898 0.968 1.747 2.245 3.342 3.837 4.558 0.417-0.067 0.832-0.142 1.249-0.21 0.14 0.417 0.285 0.833 0.427 1.25 0.543 0.245 1.117 0.414 1.698 0.541 1.574 0.332 3.217 0.332 4.791 0.001 0.583-0.127 1.16-0.297 1.705-0.542 0.141-0.417 0.286-0.833 0.427-1.25 0.417 0.067 0.833 0.144 1.251 0.209 0.956-0.731 1.801-1.601 2.531-2.557 0.686-0.9 1.283-1.871 1.758-2.898-0.116-0.37-0.23-0.741-0.345-1.111 0.352-0.179 0.703-0.358 1.055-0.537 0.406-0.862 0.723-1.765 0.937-2.694 0.188-0.828 0.304-1.675 0.3-2.524-0.29-0.297-0.576-0.597-0.866-0.894 0.289-0.299 0.578-0.597 0.867-0.896 0.003-0.733-0.084-1.465-0.227-2.184-0.21-1.047-0.555-2.066-1.008-3.032-0.352-0.18-0.704-0.359-1.056-0.538 0.115-0.37 0.229-0.741 0.345-1.111-0.528-1.14-1.203-2.211-1.988-3.192-0.675-0.839-1.439-1.608-2.298-2.259-0.045-0.009-0.092 0.010-0.136 0.014-0.372 0.064-0.745 0.127-1.117 0.19-0.141-0.417-0.286-0.833-0.427-1.25-0.526-0.238-1.082-0.404-1.645-0.53-0.987-0.216-2.002-0.293-3.011-0.247-1.21 0.063-2.426 0.286-3.538 0.777zM13.106 2.221c1.014-0.338 2.093-0.439 3.157-0.42 0.845 0.020 1.694 0.126 2.503 0.378 0.291 0.093 0.58 0.201 0.843 0.358 0.137 0.449 0.274 0.899 0.41 1.348 0.48-0.089 0.959-0.183 1.439-0.272 1.145 1.102 2.221 2.291 3.081 3.632 0.261 0.42 0.517 0.85 0.683 1.318-0.169 0.384-0.338 0.769-0.506 1.153 0.458 0.219 0.915 0.439 1.373 0.658 0.486 1.124 0.833 2.315 0.945 3.537 0.033 0.403 0.053 0.81 0.001 1.213-0.295 0.291-0.587 0.586-0.882 0.877 0.293 0.293 0.587 0.586 0.881 0.878 0.058 0.46 0.028 0.926-0.018 1.386-0.128 1.162-0.464 2.293-0.928 3.364l-1.372 0.658c0.169 0.384 0.337 0.769 0.506 1.153-0.113 0.329-0.28 0.636-0.451 0.937-0.619 1.059-1.398 2.016-2.229 2.915-0.354 0.377-0.715 0.747-1.091 1.102-0.478-0.094-0.956-0.189-1.436-0.271-0.13 0.449-0.271 0.895-0.406 1.342-0.523 0.301-1.115 0.454-1.703 0.571-0.897 0.168-1.816 0.2-2.726 0.139-0.592-0.044-1.182-0.134-1.755-0.295-0.357-0.103-0.712-0.224-1.032-0.415-0.137-0.448-0.274-0.897-0.41-1.345-0.479 0.090-0.958 0.181-1.436 0.273-0.685-0.659-1.343-1.348-1.947-2.082-0.608-0.743-1.177-1.527-1.613-2.385-0.079-0.158-0.151-0.319-0.207-0.486 0.169-0.384 0.338-0.769 0.506-1.153-0.458-0.219-0.915-0.439-1.373-0.658-0.486-1.122-0.832-2.313-0.944-3.533-0.034-0.404-0.054-0.813-0.002-1.216 0.294-0.292 0.588-0.585 0.882-0.878-0.295-0.291-0.586-0.586-0.881-0.877-0.052-0.402-0.032-0.81 0.001-1.213 0.112-1.222 0.459-2.413 0.945-3.537 0.458-0.219 0.915-0.439 1.373-0.658-0.169-0.384-0.338-0.769-0.506-1.153 0.101-0.295 0.248-0.572 0.399-0.844 0.508-0.893 1.137-1.71 1.81-2.485 0.495-0.563 1.014-1.107 1.561-1.621 0.477 0.095 0.956 0.183 1.433 0.274 0.137-0.449 0.273-0.899 0.41-1.348 0.224-0.134 0.467-0.232 0.713-0.316zM7.926 22.41c-0.155 0.346-0.307 0.694-0.461 1.041 0.303 0.655 0.71 1.255 1.137 1.834 0.648 0.864 1.378 1.664 2.147 2.421 0.416-0.079 0.831-0.16 1.246-0.239 0.35-0.641 0.7-1.282 1.049-1.924-0.846-1.217-1.693-2.435-2.539-3.652-0.86 0.172-1.72 0.346-2.58 0.518zM21.584 10.738c-0.288 0.698-0.573 1.396-0.861 2.094 0.799 0.949 1.597 1.899 2.395 2.85 0.82 0.001 1.64 0 2.459 0 0.282-0.283 0.566-0.563 0.849-0.846 0.006-0.154 0.008-0.309 0-0.463-0.053-1.217-0.365-2.412-0.83-3.534-0.446-0.212-0.891-0.426-1.337-0.639-0.892 0.179-1.784 0.358-2.676 0.537zM6.405 10.839c-0.199 0.475-0.366 0.964-0.499 1.462-0.217 0.825-0.359 1.679-0.328 2.534 0.282 0.283 0.567 0.564 0.849 0.848 0.819 0 1.637 0 2.455-0 0.798-0.951 1.597-1.901 2.396-2.851-0.288-0.697-0.573-1.395-0.86-2.093-0.892-0.18-1.785-0.359-2.677-0.537-0.445 0.212-0.89 0.426-1.336 0.638zM9.443 16.002c0.783 0.93 1.565 1.862 2.348 2.793 2.806-0 5.612-0 8.418-0 0.784-0.93 1.565-1.862 2.349-2.792-0.783-0.932-1.565-1.865-2.349-2.796h-8.418c-0.784 0.931-1.566 1.864-2.348 2.796zM13.604 25.842c-0.352 0.648-0.706 1.296-1.059 1.945 0.127 0.413 0.252 0.826 0.379 1.239 0.334 0.152 0.688 0.254 1.046 0.334 0.875 0.192 1.778 0.235 2.671 0.188 0.83-0.056 1.669-0.187 2.436-0.522 0.127-0.413 0.252-0.826 0.38-1.239-0.354-0.648-0.708-1.297-1.063-1.945-1.597 0-3.194-0-4.791 0zM14.779 2.503c-0.634 0.078-1.268 0.21-1.855 0.467-0.127 0.414-0.252 0.829-0.379 1.242 0.354 0.648 0.708 1.297 1.062 1.945 1.597 0 3.194 0 4.791 0 0.353-0.648 0.706-1.296 1.059-1.945-0.127-0.414-0.252-0.828-0.379-1.242-0.514-0.226-1.066-0.352-1.62-0.436-0.886-0.126-1.789-0.132-2.678-0.032zM20.005 4.533c-0.35 0.641-0.7 1.282-1.049 1.923 0.846 1.218 1.693 2.434 2.539 3.652 0.86-0.172 1.72-0.346 2.58-0.518 0.155-0.346 0.307-0.694 0.461-1.041-0.284-0.617-0.663-1.184-1.061-1.732-0.666-0.903-1.423-1.736-2.222-2.523-0.416 0.079-0.831 0.16-1.247 0.239zM10.749 4.294c-0.888 0.875-1.726 1.806-2.441 2.829-0.314 0.454-0.612 0.923-0.843 1.427 0.154 0.347 0.306 0.695 0.461 1.041 0.86 0.172 1.72 0.346 2.58 0.518 0.846-1.218 1.693-2.435 2.539-3.652-0.349-0.641-0.7-1.282-1.049-1.923-0.416-0.079-0.831-0.16-1.246-0.239zM18.956 25.544c0.349 0.641 0.7 1.282 1.049 1.923 0.416 0.079 0.831 0.16 1.246 0.239 0.8-0.787 1.557-1.62 2.223-2.524 0.398-0.548 0.776-1.115 1.061-1.731-0.153-0.347-0.306-0.695-0.46-1.041-0.86-0.172-1.72-0.346-2.58-0.518-0.846 1.218-1.693 2.434-2.539 3.652zM6.425 16.317c-0.283 0.283-0.568 0.565-0.85 0.848-0.006 0.157-0.008 0.314 0 0.471 0.054 1.213 0.366 2.406 0.829 3.525 0.446 0.212 0.891 0.426 1.337 0.638 0.892-0.179 1.785-0.357 2.677-0.538 0.287-0.698 0.573-1.395 0.86-2.093-0.799-0.95-1.598-1.9-2.396-2.851-0.819-0.001-1.638 0-2.457-0zM23.12 16.317c-0.798 0.951-1.598 1.901-2.397 2.851 0.288 0.697 0.573 1.395 0.86 2.093 0.892 0.179 1.785 0.359 2.678 0.537 0.445-0.212 0.89-0.427 1.335-0.638 0.13-0.308 0.244-0.622 0.346-0.94 0.31-0.986 0.515-2.018 0.481-3.056-0.283-0.283-0.568-0.564-0.85-0.848-0.818 0-1.637-0-2.454 0zM13.585 6.792c-0.86 1.236-1.72 2.472-2.58 3.708 0.283 0.691 0.568 1.382 0.851 2.073h8.29c0.283-0.691 0.568-1.382 0.851-2.073-0.859-1.236-1.718-2.472-2.577-3.708-1.611 0.001-3.223 0-4.834 0zM11.855 19.428c-0.283 0.691-0.568 1.381-0.85 2.073 0.859 1.236 1.717 2.472 2.577 3.708 1.612-0.001 3.224-0.001 4.837 0 0.86-1.236 1.718-2.472 2.577-3.708-0.283-0.691-0.567-1.381-0.85-2.072-2.764 0-5.527 0-8.29 0z"></path>
</svg>
