<!-- Generated by IcoMoon.io -->
<svg version="1.1" xmlns="http://www.w3.org/2000/svg" width="32" height="32" viewBox="0 0 32 32">
<path fill="#444" d="M11.903 1.742c1.113-0.491 2.329-0.714 3.538-0.777 1.008-0.046 2.024 0.032 3.011 0.247 0.563 0.126 1.119 0.291 1.645 0.53 0.142 0.417 0.286 0.833 0.427 1.25 0.372-0.063 0.745-0.126 1.117-0.19 0.045-0.004 0.091-0.024 0.136-0.014 0.859 0.651 1.623 1.42 2.298 2.259 0.785 0.981 1.46 2.051 1.988 3.192-0.116 0.37-0.23 0.741-0.345 1.111 0.352 0.179 0.705 0.358 1.056 0.538 0.453 0.966 0.798 1.985 1.008 3.032 0.143 0.719 0.231 1.45 0.227 2.184-0.289 0.299-0.578 0.597-0.867 0.896 0.29 0.297 0.577 0.597 0.866 0.894 0.004 0.85-0.112 1.696-0.3 2.524-0.213 0.928-0.531 1.832-0.937 2.694-0.352 0.179-0.704 0.358-1.055 0.537 0.115 0.37 0.229 0.741 0.345 1.111-0.475 1.028-1.073 1.998-1.758 2.898-0.73 0.956-1.575 1.826-2.531 2.557-0.418-0.065-0.833-0.142-1.251-0.209-0.14 0.417-0.285 0.833-0.427 1.25-0.545 0.245-1.122 0.415-1.705 0.542-1.574 0.331-3.217 0.33-4.791-0.001-0.581-0.127-1.156-0.295-1.698-0.541-0.141-0.417-0.286-0.833-0.427-1.25-0.417 0.068-0.832 0.143-1.249 0.21-1.592-1.216-2.869-2.811-3.837-4.558-0.162-0.294-0.314-0.593-0.454-0.898 0.116-0.37 0.229-0.741 0.345-1.111-0.352-0.179-0.704-0.358-1.056-0.537-0.511-1.086-0.882-2.239-1.081-3.423-0.1-0.593-0.158-1.194-0.155-1.795 0.29-0.297 0.577-0.597 0.866-0.894-0.289-0.299-0.578-0.597-0.867-0.896-0.006-0.858 0.111-1.714 0.304-2.55 0.214-0.919 0.531-1.812 0.932-2.666 0.352-0.181 0.705-0.358 1.056-0.539-0.116-0.37-0.229-0.741-0.345-1.111 0.454-0.983 1.021-1.913 1.669-2.781 0.751-1.002 1.625-1.917 2.623-2.675 0.416 0.068 0.831 0.14 1.247 0.21 0.142-0.417 0.286-0.834 0.428-1.251zM13.106 2.221c-0.246 0.084-0.489 0.182-0.713 0.316-0.138 0.449-0.273 0.899-0.41 1.348-0.478-0.091-0.956-0.179-1.433-0.274-0.546 0.514-1.065 1.058-1.561 1.621-0.673 0.774-1.303 1.592-1.81 2.485-0.152 0.272-0.298 0.549-0.399 0.844 0.169 0.384 0.337 0.769 0.506 1.153-0.457 0.219-0.915 0.439-1.373 0.658-0.486 1.123-0.833 2.315-0.945 3.537-0.033 0.403-0.053 0.811-0.001 1.213 0.295 0.291 0.587 0.586 0.881 0.877-0.294 0.293-0.587 0.586-0.882 0.878-0.052 0.403-0.032 0.812 0.002 1.216 0.112 1.22 0.459 2.411 0.944 3.533 0.458 0.219 0.915 0.439 1.373 0.658-0.169 0.384-0.337 0.769-0.506 1.153 0.057 0.167 0.128 0.328 0.207 0.486 0.436 0.858 1.004 1.642 1.613 2.385 0.604 0.734 1.262 1.423 1.947 2.082 0.478-0.092 0.957-0.183 1.436-0.273 0.136 0.449 0.273 0.897 0.41 1.345 0.321 0.19 0.676 0.312 1.032 0.415 0.572 0.16 1.163 0.251 1.755 0.295 0.909 0.061 1.829 0.029 2.726-0.139 0.587-0.117 1.18-0.27 1.703-0.571 0.135-0.447 0.276-0.893 0.406-1.342 0.48 0.083 0.958 0.177 1.436 0.271 0.376-0.355 0.738-0.725 1.091-1.102 0.831-0.899 1.61-1.856 2.229-2.915 0.172-0.301 0.339-0.608 0.451-0.937-0.169-0.384-0.337-0.769-0.506-1.153l1.372-0.658c0.463-1.070 0.8-2.202 0.928-3.364 0.046-0.46 0.077-0.926 0.018-1.386-0.295-0.292-0.588-0.585-0.881-0.878 0.295-0.291 0.586-0.586 0.882-0.877 0.052-0.402 0.032-0.809-0.001-1.213-0.112-1.222-0.459-2.413-0.945-3.537-0.458-0.219-0.915-0.439-1.373-0.658 0.169-0.385 0.338-0.769 0.506-1.153-0.167-0.468-0.423-0.897-0.683-1.318-0.86-1.341-1.936-2.53-3.081-3.632-0.48 0.090-0.959 0.184-1.439 0.272-0.136-0.449-0.273-0.899-0.41-1.348-0.263-0.158-0.552-0.265-0.843-0.358-0.809-0.252-1.658-0.357-2.503-0.378-1.064-0.019-2.143 0.082-3.157 0.42zM10.749 4.294c0.416 0.079 0.831 0.16 1.246 0.239 0.35 0.641 0.7 1.282 1.049 1.923-0.846 1.217-1.693 2.434-2.539 3.652-0.86-0.172-1.72-0.346-2.58-0.518-0.155-0.346-0.307-0.694-0.461-1.041 0.231-0.503 0.528-0.972 0.843-1.427 0.716-1.023 1.553-1.954 2.441-2.829zM20.005 4.533c0.416-0.079 0.831-0.16 1.247-0.239 0.799 0.787 1.556 1.62 2.222 2.523 0.398 0.548 0.777 1.116 1.061 1.732-0.154 0.347-0.306 0.695-0.461 1.041-0.86 0.172-1.72 0.346-2.58 0.518-0.846-1.218-1.693-2.434-2.539-3.652 0.349-0.641 0.7-1.282 1.049-1.923zM14.779 2.503c0.889-0.101 1.792-0.094 2.678 0.032 0.554 0.083 1.106 0.21 1.62 0.436 0.127 0.414 0.252 0.828 0.379 1.242-0.352 0.648-0.706 1.296-1.059 1.945-1.597 0-3.194 0-4.791 0-0.354-0.648-0.708-1.296-1.062-1.945 0.127-0.414 0.252-0.829 0.379-1.242 0.587-0.258 1.221-0.389 1.855-0.467zM13.585 6.792c1.611 0 3.222 0 4.834-0 0.859 1.236 1.718 2.472 2.577 3.708-0.283 0.692-0.568 1.382-0.851 2.073h-8.29c-0.283-0.691-0.568-1.382-0.851-2.073 0.86-1.236 1.72-2.472 2.58-3.708zM6.405 10.839c0.446-0.212 0.89-0.426 1.336-0.638 0.892 0.179 1.785 0.357 2.677 0.537 0.287 0.698 0.573 1.396 0.86 2.093-0.799 0.95-1.598 1.9-2.396 2.851-0.819 0.001-1.637 0-2.455 0-0.282-0.284-0.567-0.565-0.849-0.848-0.031-0.856 0.111-1.709 0.328-2.534 0.134-0.498 0.3-0.987 0.499-1.462zM21.584 10.738c0.892-0.179 1.784-0.358 2.676-0.537 0.446 0.212 0.891 0.426 1.337 0.639 0.465 1.122 0.777 2.317 0.83 3.534 0.007 0.154 0.006 0.308-0 0.463-0.283 0.282-0.566 0.563-0.849 0.846-0.82-0-1.639 0-2.459-0-0.798-0.95-1.596-1.9-2.395-2.85 0.288-0.698 0.573-1.396 0.861-2.094zM9.443 16.002c0.783-0.932 1.565-1.865 2.348-2.796h8.418c0.784 0.931 1.566 1.864 2.349 2.796-0.784 0.93-1.565 1.862-2.349 2.792-2.806 0-5.612 0-8.418 0-0.784-0.93-1.565-1.862-2.348-2.793zM6.425 16.317c0.819 0 1.638-0.001 2.457 0 0.798 0.951 1.597 1.901 2.396 2.851-0.287 0.698-0.573 1.395-0.86 2.093-0.892 0.18-1.785 0.359-2.677 0.538-0.446-0.212-0.891-0.426-1.337-0.638-0.464-1.119-0.776-2.311-0.829-3.525-0.008-0.157-0.006-0.314-0-0.471 0.283-0.283 0.568-0.564 0.85-0.848zM23.12 16.317c0.818-0.001 1.636-0 2.454-0 0.282 0.284 0.567 0.565 0.85 0.848 0.034 1.038-0.172 2.070-0.481 3.056-0.102 0.318-0.216 0.632-0.346 0.94-0.446 0.211-0.89 0.425-1.335 0.638-0.893-0.178-1.785-0.358-2.678-0.537-0.287-0.698-0.573-1.396-0.86-2.093 0.799-0.951 1.598-1.9 2.397-2.851zM11.855 19.428c2.763 0 5.527 0 8.29 0 0.283 0.691 0.568 1.381 0.85 2.072-0.859 1.236-1.717 2.472-2.577 3.708-1.612-0.001-3.225-0.001-4.837 0-0.86-1.236-1.718-2.472-2.577-3.708 0.283-0.691 0.567-1.381 0.85-2.073zM7.926 22.41c0.86-0.172 1.72-0.346 2.58-0.518 0.846 1.217 1.693 2.435 2.539 3.652-0.349 0.641-0.7 1.282-1.049 1.924-0.416 0.079-0.831 0.16-1.246 0.239-0.769-0.757-1.499-1.557-2.147-2.421-0.428-0.579-0.834-1.179-1.137-1.834 0.154-0.347 0.306-0.695 0.461-1.041zM18.956 25.544c0.846-1.218 1.693-2.434 2.539-3.652 0.86 0.172 1.72 0.346 2.58 0.518 0.154 0.347 0.307 0.694 0.46 1.041-0.284 0.616-0.663 1.184-1.061 1.731-0.666 0.904-1.424 1.737-2.223 2.524-0.416-0.079-0.831-0.16-1.246-0.239-0.35-0.641-0.701-1.282-1.049-1.923zM13.604 25.842c1.597-0 3.194 0 4.791 0 0.354 0.648 0.708 1.297 1.063 1.945-0.127 0.413-0.253 0.826-0.38 1.239-0.767 0.335-1.606 0.466-2.436 0.522-0.893 0.047-1.796 0.004-2.671-0.188-0.358-0.080-0.712-0.182-1.046-0.334-0.127-0.413-0.252-0.826-0.379-1.239 0.353-0.649 0.706-1.297 1.059-1.945z"></path>
</svg>
