<!-- Generated by IcoMoon.io -->
<svg version="1.1" xmlns="http://www.w3.org/2000/svg" width="29" height="32" viewBox="0 0 29 32">
<title>tmp</title>
<path fill="#444" d="M17.284 4.469c3.529 0 5.019 3.677 5.019 5.021 0 1.412-0.863 2.744-0.863 2.744 2.042-1.099 3.532 0.939 3.532 0.939 1.175-0.623 3.607 0 3.607 2.511s-2.196 2.901-2.196 2.901h-8.551l6.355 5.96-3.844-0.545 5.725 6.036-17.177-9.958 5.176 0.627-2.823-2.12h-8.629c-4.155-2.196-2.508-5.804-0.784-6.821 1.726-1.021 3.922 0.312 3.922 0.312-1.254-2.665 1.255-5.334 3.45-5.334s3.295 1.648 3.295 1.648 1.254-3.922 4.785-3.922zM12.775 18.577l3.589 3.089-3.619-0.321 8.971 5.264-3.559-3.677 3.616 0.5-5.194-4.846-3.804-0.009z"></path>
</svg>
