<!-- Generated by IcoMoon.io -->
<svg version="1.1" xmlns="http://www.w3.org/2000/svg" width="32" height="32" viewBox="0 0 32 32">
<path fill="#444" d="M12.464 5.836c1.716-1.263 3.815-1.956 5.932-2.102 0.434-0.023 0.868-0.010 1.302-0.009 1.849 0.101 3.685 0.622 5.278 1.573 1.149 0.684 2.157 1.601 2.952 2.676 0.211 0.273 0.382 0.575 0.598 0.844 0.4 0.536 0.68 1.154 0.874 1.793 0.253 0.834 0.375 1.7 0.469 2.564 0.014 0.128 0.011 0.271 0.098 0.376 0.158 0.21 0.293 0.437 0.411 0.671 0.522 1.042 0.667 2.229 0.646 3.381 0.281 0.403 0.479 0.859 0.637 1.322 0.235 0.715 0.357 1.469 0.336 2.223-0.012 1.162-0.389 2.351-1.183 3.218-0.663 0.713-1.515 1.221-2.4 1.61-1.121 0.48-2.335 0.778-3.559 0.765-0.036 0.008-0.069 0.022-0.098 0.044-0.782 0.502-1.653 0.858-2.55 1.093-1.16 0.293-2.36 0.443-3.557 0.393-1.349-0.050-2.693-0.326-3.943-0.839-0.438-0.181-0.869-0.384-1.267-0.645-0.111-0.082-0.256-0.038-0.383-0.048-0.523-0.020-1.044-0.095-1.553-0.212-1.185-0.28-2.333-0.764-3.316-1.488-0.43-0.32-0.824-0.697-1.124-1.143-0.408-0.602-0.654-1.305-0.756-2.023-0.125-0.841-0.055-1.705 0.156-2.527 0.157-0.593 0.386-1.173 0.724-1.688 0.058-0.088 0.027-0.199 0.033-0.297-0.012-0.253 0.030-0.505 0.031-0.758 0.002-0.098 0.019-0.194 0.039-0.29-0.411 0.142-0.838 0.236-1.269 0.288-0.406 0.060-0.818 0.042-1.227 0.038-1.081-0.070-2.136-0.403-3.089-0.914-0.619-0.333-1.203-0.737-1.707-1.229v-0.032c0.158-0.221 0.315-0.444 0.483-0.657 0.763-0.975 1.762-1.791 2.931-2.226 0.519-0.201 1.069-0.302 1.622-0.354-0.224-0.598-0.32-1.239-0.312-1.877-0.017-0.504 0.036-1.011-0.031-1.513-0.095-0.977-0.433-1.945-1.039-2.723-0.254-0.294-0.538-0.56-0.799-0.848 0.515-0.001 1.031 0 1.546-0.001 0.867 0.049 1.725 0.295 2.477 0.732 0.912 0.524 1.664 1.315 2.16 2.241 0.28 0.522 0.474 1.084 0.64 1.651 0.088-0.128 0.189-0.247 0.272-0.378 0.669-1.032 1.521-1.946 2.514-2.673zM8.017 18.084c-0.119 0.155-0.213 0.327-0.298 0.503-0.368 0.772-0.558 1.632-0.532 2.488-0.012 1.073 0.367 2.193 1.186 2.916 0.467 0.423 1.012 0.751 1.579 1.020 0.701 0.333 1.448 0.569 2.211 0.707-0.273-0.322-0.531-0.66-0.725-1.036-0.219-0.429-0.395-0.894-0.428-1.377 0.29 0.53 0.652 1.020 1.070 1.456 0.758 0.797 1.713 1.394 2.741 1.776 1.908 0.736 4.008 1.004 6.034 0.69 1.4-0.229 2.801-0.623 4.013-1.381 1.013-0.614 1.874-1.499 2.391-2.571-0.148 0.918-0.596 1.776-1.233 2.451 0.307-0.048 0.61-0.119 0.909-0.202 1.047-0.306 2.066-0.774 2.896-1.493 0.478-0.415 0.831-0.966 1.022-1.569 0.301-0.951 0.278-1.983 0.023-2.941-0.143-0.506-0.334-1.010-0.645-1.438-2.004 0.848-4.199 1.341-6.381 1.155 0.394 0.339 0.765 0.711 1.045 1.151-0.385-0.306-0.81-0.558-1.249-0.777-1.183-0.581-2.493-0.868-3.802-0.955-0.925-0.050-1.856-0.006-2.767 0.166-1.336 0.236-2.642 0.74-3.727 1.565 0.291-0.433 0.654-0.81 1.047-1.15-0.469 0.050-0.94 0.034-1.411 0.031-1.712-0.082-3.393-0.522-4.969-1.185zM16.376 5.017c-1.245 0.333-2.437 0.882-3.468 1.658-0.879 0.656-1.632 1.476-2.224 2.398 0.514 0.359 1.047 0.691 1.601 0.985 1.66 0.882 3.493 1.416 5.353 1.661 0.741 0.094 1.49 0.139 2.235 0.071 2.74-0.208 5.443-1.122 7.689-2.717-0.903-1.425-2.212-2.584-3.726-3.325-1.29-0.635-2.71-1.001-4.144-1.091-1.115-0.065-2.238 0.073-3.316 0.36zM10.163 9.863c-0.516 1.065-0.732 2.246-0.849 3.413-0.041 0.189-0.017 0.387-0.073 0.574-0.341 0.38-0.584 0.838-0.75 1.317-0.212 0.632-0.32 1.299-0.324 1.966 0.359 0.13 2.23 0.826 3.257 1.012 1.418 0.257 1.717 0.259 3.054 0.334 0.259 0.014 0.809 0.014 1.039 0.013 0.092 0.001 0.163-0.068 0.247-0.094 0.176-0.080 0.359-0.143 0.537-0.219 0.143-0.050 0.297-0.077 0.433-0.144 0.146-0.029 0.291-0.064 0.434-0.106 0.166-0.024 0.327-0.074 0.494-0.089 0.012-0.006 0.036-0.018 0.049-0.024 0.254-0.017 0.505-0.057 0.759-0.077 0.651-0.017 1.308-0.031 1.951 0.073 0.269 0.034 0.531 0.101 0.797 0.153 0.167 0.053 0.337 0.095 0.505 0.145 0.324 0.11 0.643 0.235 0.953 0.379 0.293 0.015 0.587 0.001 0.881 0.003 0.060-0.004 1.072-0.057 1.517-0.104 0.824-0.083 1.645-0.227 2.452-0.415 0.883-0.206 2.219-0.706 2.545-0.84 0.009-0.13-0-0.259-0.001-0.389-0.062-0.773-0.228-1.554-0.601-2.242-0.137-0.236-0.277-0.477-0.479-0.663 0.006-0.171-0.044-0.337-0.044-0.507-0.045-0.13-0.014-0.268-0.047-0.4-0.070-0.497-0.123-1.005-0.262-1.488-0.020-0.096-0.021-0.201-0.075-0.286-0.007-0.049-0.005-0.101-0.032-0.145-0.106-0.402-0.273-0.784-0.448-1.159-0.488 0.328-0.976 0.663-1.5 0.931-1.523 0.78-4.425 2.030-7.613 1.967-3.303-0.066-6.507-1.287-8.745-2.879-0.015-0.003-0.045-0.008-0.060-0.010zM12.512 12.675c0.019 0.006 0.057 0.018 0.076 0.023 1.167 0.697 2.284 1.5 3.228 2.483 0.294 0.336 0.599 0.671 0.812 1.066 0.051 0.109 0.144 0.33 0.144 0.33s-1.154 0.265-2.594 0.149c-1.183-0.095-2.272-0.651-2.62-0.894-0.032-0.020-0.065-0.038-0.099-0.054-0.088-0.298-0.020-0.614 0.036-0.913 0.031-0.185 0.11-0.357 0.15-0.54 0.145-0.338 0.282-0.683 0.472-1 0.115-0.227 0.277-0.427 0.395-0.65zM12.162 14.73c-0.063 0.223-0.123 0.451-0.118 0.684 0.925 0.534 2.011 0.753 3.072 0.738 0.223-0.023 0.45 0.001 0.669-0.054-0.356-0.468-0.785-0.874-1.227-1.259-0.577-0.491-1.191-0.938-1.836-1.335-0.23 0.387-0.426 0.796-0.56 1.227zM25.498 12.798c0.074-0.045 0.144-0.101 0.23-0.123 0.313 0.46 0.852 1.34 1.012 2.081 0.070 0.323 0.104 0.767 0.078 0.987-0.404 0.31-1.104 0.619-1.706 0.794-1.701 0.494-3.643 0.041-3.643 0.041s0.085-0.2 0.136-0.297c0.227-0.429 0.551-0.796 0.883-1.146 0.166-0.208 0.385-0.364 0.568-0.556 0.751-0.674 1.58-1.259 2.443-1.782zM22.458 16.097c0.111 0.026 0.225 0.041 0.339 0.039 1.172 0.079 2.385-0.135 3.412-0.722-0.036-0.687-0.342-1.326-0.685-1.909-1.133 0.717-2.217 1.546-3.066 2.593zM4.98 5.276c0.215 0.291 0.334 0.64 0.475 0.968 0.090 0.338 0.193 0.675 0.236 1.023 0.052 0.123-0.009 0.268 0.056 0.385 0.005 0.266 0.001 0.533 0.003 0.799 0.008 0.136-0.045 0.265-0.043 0.401-0.044 0.2-0.014 0.406-0.054 0.606-0.023 0.596 0.030 1.194 0.179 1.772 0.047 0.117 0.063 0.246 0.125 0.356 0.19 0.571 0.579 1.065 1.050 1.434 0.051 0.040 0.123 0.063 0.141 0.132l-0.12-0.001c-0.065-0.048-0.151-0.040-0.222-0.076-0.49-0.164-0.902-0.502-1.227-0.897-0.225 0.001-0.449-0.003-0.674 0.002-0.345 0.041-0.688 0.11-1.016 0.225-0.681 0.23-1.302 0.617-1.838 1.093-0.277 0.267-0.55 0.537-0.793 0.835 0.601 0.445 1.273 0.795 1.981 1.037 0.436 0.139 1.096 0.273 1.519 0.315 0.348 0.034 0.68 0.044 1.014-0.005 0.792-0.117 1.425-0.345 1.704-0.438 0.061-0.2 0.128-0.397 0.197-0.594 0.174-0.418 0.386-0.824 0.667-1.18 0.049-0.326 0.068-0.656 0.119-0.981 0.039-0.327 0.109-0.65 0.15-0.976 0.052-0.149 0.080-0.312 0.11-0.469 0.044-0.090 0.057-0.191 0.071-0.289 0.070-0.134 0.089-0.291 0.148-0.431 0.043-0.076 0.026-0.167 0.024-0.249-0.060-0.375-0.123-0.752-0.242-1.114-0.015-0.076-0.036-0.152-0.071-0.222-0.274-0.863-0.752-1.672-1.413-2.295-0.611-0.607-1.414-1.006-2.259-1.166z"></path>
</svg>
