<!-- Generated by IcoMoon.io -->
<svg version="1.1" xmlns="http://www.w3.org/2000/svg" width="32" height="32" viewBox="0 0 32 32">
<path fill="#444" d="M12.162 14.73c0.134-0.43 0.33-0.84 0.56-1.226 0.645 0.398 1.259 0.844 1.836 1.335 0.443 0.385 0.872 0.791 1.227 1.259-0.219 0.054-0.447 0.031-0.669 0.054-1.061 0.015-2.147-0.204-3.072-0.738-0.005-0.233 0.055-0.461 0.118-0.684zM22.458 16.097c0.848-1.047 1.932-1.876 3.066-2.593 0.343 0.584 0.649 1.223 0.685 1.909-1.027 0.587-2.24 0.802-3.412 0.722-0.115 0.003-0.228-0.013-0.339-0.039z"></path>
</svg>
