<!-- Generated by IcoMoon.io -->
<svg version="1.1" xmlns="http://www.w3.org/2000/svg" width="32" height="32" viewBox="0 0 32 32">
<path fill="#444" d="M15.516 18.493h-0.005c-0.233 0-0.777 0.001-1.034-0.013-1.337-0.075-1.636-0.077-3.054-0.334-1.026-0.186-2.898-0.883-3.257-1.012 0.004-0.667 0.111-1.333 0.324-1.966 0.166-0.48 0.41-0.938 0.75-1.317 0.057-0.187 0.032-0.385 0.073-0.574 0.117-1.167 0.333-2.348 0.849-3.413 0.015 0.002 0.045 0.008 0.060 0.010 2.238 1.592 5.443 2.814 8.745 2.879 3.151 0.063 6.021-1.158 7.559-1.939 0.021-0.010 0.039-0.019 0.054-0.028 0.524-0.268 1.012-0.604 1.5-0.931 0.175 0.376 0.342 0.758 0.448 1.159 0.027 0.044 0.025 0.096 0.032 0.145 0.053 0.085 0.054 0.19 0.075 0.286 0.14 0.483 0.192 0.991 0.262 1.488 0.032 0.131 0.002 0.27 0.047 0.4 0 0.171 0.051 0.336 0.044 0.507 0.201 0.187 0.341 0.428 0.479 0.663 0.373 0.688 0.539 1.469 0.601 2.242 0.001 0.13 0.010 0.259 0.001 0.389-0.326 0.133-1.662 0.634-2.545 0.84-0.807 0.188-1.628 0.332-2.452 0.415-0.444 0.047-1.457 0.1-1.517 0.104-0.294-0.002-0.588 0.012-0.881-0.003-0.31-0.144-0.63-0.269-0.953-0.379-0.168-0.050-0.338-0.092-0.505-0.145-0.265-0.052-0.528-0.119-0.797-0.153-0.643-0.103-1.3-0.090-1.951-0.073-0.254 0.020-0.505 0.061-0.759 0.077-0.012 0.006-0.036 0.018-0.049 0.024-0.167 0.015-0.329 0.065-0.494 0.089-0.142 0.043-0.288 0.078-0.434 0.106-0.136 0.067-0.29 0.094-0.433 0.144-0.178 0.076-0.361 0.139-0.537 0.219-0.084 0.026-0.155 0.094-0.247 0.094zM25.728 12.675c-0.086 0.022-0.156 0.078-0.23 0.123-0.863 0.523-1.692 1.108-2.443 1.782-0.183 0.192-0.402 0.347-0.568 0.556-0.332 0.35-0.656 0.717-0.883 1.146-0.050 0.097-0.136 0.297-0.136 0.297s1.942 0.453 3.643-0.041c0.602-0.175 1.302-0.484 1.706-0.794 0.026-0.22-0.009-0.664-0.078-0.987-0.16-0.742-0.699-1.621-1.012-2.081zM15.816 15.181c-0.944-0.983-2.061-1.785-3.228-2.483-0.019-0.006-0.057-0.018-0.076-0.023-0.119 0.223-0.281 0.423-0.395 0.65-0.19 0.317-0.327 0.662-0.472 1-0.040 0.183-0.119 0.355-0.15 0.54-0.056 0.299-0.124 0.615-0.036 0.913 0.034 0.016 0.067 0.034 0.099 0.054 0.348 0.242 1.437 0.799 2.62 0.894 1.441 0.116 2.594-0.149 2.594-0.149s-0.092-0.221-0.144-0.33c-0.214-0.395-0.519-0.73-0.812-1.066zM3.241 15.37c-0.708-0.241-1.38-0.591-1.981-1.037 0.243-0.298 0.516-0.568 0.793-0.835 0.536-0.476 1.157-0.863 1.838-1.093 0.328-0.115 0.671-0.184 1.016-0.225 0.224-0.005 0.449-0.001 0.674-0.002 0.325 0.395 0.737 0.733 1.227 0.897 0.071 0.036 0.157 0.028 0.222 0.076l0.12 0.001c-0.019-0.069-0.091-0.092-0.141-0.132-0.469-0.371-0.86-0.863-1.050-1.434-0.062-0.111-0.079-0.24-0.125-0.356-0.149-0.578-0.202-1.177-0.179-1.772 0.040-0.2 0.010-0.407 0.054-0.606-0.001-0.136 0.052-0.265 0.043-0.401-0.002-0.266 0.002-0.533-0.003-0.799-0.066-0.117-0.005-0.261-0.056-0.385-0.042-0.348-0.146-0.685-0.236-1.023-0.141-0.328-0.26-0.677-0.475-0.968 0.844 0.159 1.647 0.559 2.259 1.166 0.662 0.623 1.139 1.432 1.413 2.295 0.036 0.070 0.056 0.145 0.071 0.222 0.119 0.361 0.182 0.739 0.242 1.114 0.002 0.083 0.019 0.173-0.024 0.249-0.059 0.141-0.078 0.298-0.148 0.431-0.014 0.098-0.028 0.199-0.071 0.289-0.030 0.157-0.058 0.32-0.11 0.469-0.041 0.326-0.11 0.649-0.15 0.976-0.051 0.325-0.070 0.655-0.119 0.981-0.282 0.356-0.493 0.762-0.667 1.18-0.069 0.197-0.136 0.394-0.197 0.594-0.267 0.089-0.854 0.3-1.596 0.421-0.036 0.005-0.073 0.011-0.109 0.017-0.338 0.013-0.676 0.023-1.014 0.005-0.423-0.042-1.083-0.176-1.519-0.315zM8.017 18.084c1.575 0.664 3.257 1.103 4.968 1.185 0.47 0.004 0.942 0.019 1.411-0.031-0.393 0.34-0.756 0.717-1.047 1.15 1.085-0.825 2.391-1.33 3.727-1.565 0.91-0.172 1.842-0.216 2.767-0.166 1.309 0.087 2.619 0.373 3.802 0.955 0.439 0.219 0.865 0.471 1.249 0.777-0.28-0.44-0.651-0.812-1.045-1.151 2.182 0.185 4.378-0.307 6.382-1.155 0.312 0.427 0.502 0.932 0.645 1.438 0.254 0.958 0.278 1.991-0.023 2.941-0.192 0.602-0.544 1.154-1.022 1.569-0.83 0.719-1.849 1.187-2.896 1.493-0.299 0.083-0.602 0.154-0.909 0.202 0.637-0.674 1.085-1.532 1.233-2.45-0.517 1.071-1.377 1.957-2.391 2.571-1.212 0.758-2.613 1.152-4.013 1.381-2.026 0.314-4.126 0.046-6.034-0.69-1.028-0.382-1.983-0.979-2.741-1.776-0.418-0.436-0.78-0.926-1.070-1.456 0.033 0.483 0.209 0.948 0.428 1.377 0.194 0.376 0.452 0.714 0.725 1.036-0.763-0.138-1.51-0.374-2.211-0.707-0.567-0.269-1.112-0.597-1.579-1.020-0.819-0.723-1.198-1.843-1.186-2.916-0.025-0.856 0.165-1.716 0.532-2.488 0.085-0.176 0.179-0.348 0.298-0.502zM16.376 5.017c1.078-0.288 2.2-0.426 3.316-0.36 1.434 0.089 2.854 0.456 4.144 1.091 1.514 0.741 2.823 1.9 3.726 3.325-2.246 1.594-4.949 2.509-7.689 2.717-0.745 0.068-1.494 0.023-2.235-0.071-1.86-0.245-3.693-0.779-5.353-1.66-0.554-0.294-1.087-0.626-1.601-0.985 0.592-0.922 1.345-1.742 2.224-2.398 1.031-0.776 2.223-1.325 3.468-1.658z"></path>
</svg>
