<!-- Generated by IcoMoon.io -->
<svg version="1.1" xmlns="http://www.w3.org/2000/svg" width="27" height="32" viewBox="0 0 27 32">
<title>tor</title>
<path fill="#444" d="M14.213 9.562c0.321-0.643 0.798-1.079 0.843-2.083 0 0-3.549 0.146-3.374 3.184 0 0 1.779 0.402 2.531-1.102zM16.953 28.317c0 0-0.14 0.203-0.261 0.286-0.207 0.135-0.43 0.126-0.43 0.126h-1.214c0 0-0.47 0.743-1.749 0.743s-1.819-0.809-1.819-0.809-1.414 0.135-2.022-0.27c-0.203-0.134-0.384-0.525-0.384-0.525s0.080-0.261 0.097-0.301c0.066-0.172 0.075-0.344 0.109-0.528 0.023-0.115 0.017-0.226 0.066-0.333 0.043-0.092 0.161-0.212 0.247-0.283 0.077-0.060 0.198-0.164 0.283-0.221 0.195-0.126 0.394-0.198 0.574-0.344 0.189-0.152 0.548-0.502 0.548-0.502l-0.112-0.149c0 0-0.278 0.186-0.318 0.215-0.187 0.144-0.35 0.281-0.565 0.382-0.212 0.101-0.665 0.355-0.665 0.355s-0.089-0.101-0.143-0.184c-0.095-0.14-0.212-0.25-0.293-0.402-0.043-0.086-0.275-0.344-0.275-0.344l-0.089 0.112c0 0 0.247 0.519 0.261 0.623 0.017 0.106 0.134 0.336 0.115 0.435-0.080 0.399-0.155 0.648-0.195 1.053-0.017 0.184-0.068 0.333-0.068 0.333s-2.424-0.066-3.233-0.671c-0.806-0.608-1.010-1.618-1.010-1.618s0.204-0.471-0.47-0.471c-0.674 0-1.214-0.47-1.214-0.47-2.762-3.371-2.694-7.143-2.694-7.143l1.010-1.010c0 0 0.405-0.674 0.135-1.010-0.27-0.338-0.27-0.471-0.27-1.145s0.404-1.213 0.404-1.213c2.694-3.838 5.523-4.242 5.523-4.242s-2.625 2.355-2.625 7.676c0 5.321 3.907 8.354 8.42 8.354s6.399-2.49 6.399-2.49 3.098-4.312 1.28-5.995c-1.819-1.684-1.684-3.772-1.684-3.772-0.27 0-0.944 0.405-0.944 0.405-0.471-0.272-0.944-0.944-0.944-0.944-0.74 1.010-1.615 1.279-1.615 1.279l-0.539-0.404c-0.54 1.144-1.414 2.154-1.414 2.154-0.474 0.203-1.079-0.132-1.079-0.132-0.405 1.28 0.54 2.964 0.54 2.964-0.54 0.267-1.28 0.068-1.888-0.54-0.605-0.608-1.076-0.944-1.549-0.47-0.471 0.47-0.201 1.21-0.201 1.21-0.404-0.066-1.009-0.402-1.009-0.402-0.27 0.537-0.27 1.549-0.27 1.549-3.841-1.953-1.147-4.179-1.147-4.179 0.069-1.684 0.203-2.625 1.348-3.233 1.144-0.605 1.549-1.076 1.348-1.615-0.204-0.54-0.451-1.315 0.046-1.839 0.789-0.838 3.052-0.789 3.726-3.148s2.493-2.694 2.493-2.694c-0.339 1.079 0.671 3.098 1.884 2.224 1.214-0.878 3.368-0.878 3.368-0.878-0.941 1.618-0.605 2.762-0.605 2.762 1.615-1.010 4.177 0.809 4.378 1.145 0.203 0.339 0.339 1.213 0.539 1.417 0.201 0.2 0.54 0.941 0.135 1.010s-0.605 0.539 0 0.941c0.608 0.407 0.405 1.483 0.608 1.953 0.201 0.473 0.875 1.079 0.806 2.022-0.066 0.944-0.74 1.279-0.674 1.887 0.069 0.605-0.066 3.637-0.066 3.637-0.474-1.010-2.023-1.821-2.023-1.821s1.753 1.618 1.753 3.167c0 1.552-3.098 2.898-3.098 2.898-0.743 1.348-1.953 2.157-1.953 2.157s-1.414-0.069-2.022 0.201c-0.539 0.241-0.921 0.855-0.996 0.986 0 0-0.358-0.576-0.152-1.77 0 0-0.763 0.878-0.45 1.851z"></path>
</svg>
