<!-- Generated by IcoMoon.io -->
<svg version="1.1" xmlns="http://www.w3.org/2000/svg" width="23" height="32" viewBox="0 0 23 32">
<title>tsp</title>
<path fill="#444" d="M17.678 8.759c-2.333 0.822-3.783 1.063-6.256 1.046-2.434-0.014-3.856-0.263-6.149-1.085-0.44-0.869-0.712-1.868-0.712-2.732h13.869c0 0.931-0.752 2.77-0.752 2.77zM14.905 20.411c2.201 1.158 3.631 2.849 3.631 4.907 0 0.303-0.028 0.291-0.087 0.687h-2.872c-1.974-1.472-3.34-3.895-3.34-7.142l-0.019-0.348c0 0 1.223 1.125 2.686 1.896zM10.758 18.961c0 3.248-1.369 5.673-3.346 7.045h-2.869c-0.062-0.294-0.093-0.284-0.093-0.592 0-2.056 1.436-3.749 3.632-4.902 1.472-0.771 2.689-1.999 2.689-1.999l-0.014 0.449zM22.972 5.692v-2.448c0-0.172-0.134-0.312-0.306-0.312h-22.347c-0.168 0-0.305 0.14-0.305 0.312v2.448c0 0.162 0.137 0.3 0.305 0.3h1.815l-0.003 0.235c0 2.804 1.96 4.877 4.386 6.155 1.408 0.735 1.728 1.63 1.728 3.304 0 1.652-0.351 2.594-1.772 3.34-2.431 1.276-4.389 3.351-4.389 6.152 0 0.286 0.020 0.556 0.057 0.828h-1.821c-0.168 0-0.305 0.14-0.305 0.308v2.452c0 0.165 0.137 0.302 0.305 0.302h22.347c0.172 0 0.306-0.137 0.306-0.302v-2.452c0-0.168-0.134-0.308-0.306-0.308h-1.864c0.031-0.272 0.056-0.541 0.056-0.828 0-2.801-1.963-4.877-4.391-6.152-1.419-0.746-1.77-1.688-1.77-3.34 0-1.612 0.373-2.543 1.82-3.304 2.429-1.276 4.388-3.351 4.388-6.155l-0.003-0.235h1.767c0.169 0 0.303-0.138 0.303-0.3z"></path>
</svg>
