<!-- Generated by IcoMoon.io -->
<svg version="1.1" xmlns="http://www.w3.org/2000/svg" width="27" height="32" viewBox="0 0 27 32">
<title>tsr</title>
<path fill="#444" d="M16.262 16.419c-0.282 0.576-0.511 1.177-0.747 1.773-0.147 0.36-0.22 0.759-0.149 1.146 0.083 0.484 0.358 0.911 0.692 1.262 0.168 0.185 0.361 0.346 0.558 0.5 0.609 0.56 1.091 1.266 1.352 2.054 0.241 0.714 0.301 1.482 0.233 2.23-0.047 0.527-0.159 1.047-0.3 1.556 0.363 0 0.726-0.001 1.089 0 0.141 0.003 0.297 0.012 0.407 0.111 0.089 0.073 0.129 0.187 0.149 0.298 0.103 0.6 0.201 1.201 0.305 1.801 0.023 0.144 0.012 0.303-0.077 0.424-0.089 0.113-0.236 0.155-0.373 0.173-0.801 0.045-1.604 0.080-2.407 0.051-0.714-0.011-1.427-0.072-2.138-0.136-0.658-0.081-1.318-0.162-1.968-0.294-0.735-0.134-1.467-0.292-2.188-0.491-0.648-0.184-1.296-0.373-1.929-0.606-1.822-0.649-3.571-1.507-5.191-2.563-0.85-0.548-1.656-1.162-2.432-1.809-0.292-0.243-0.577-0.495-0.854-0.754-0.128-0.116-0.272-0.245-0.291-0.428-0.017-0.133 0.069-0.248 0.156-0.337 0.409-0.413 0.832-0.813 1.252-1.216 0.161-0.147 0.31-0.329 0.53-0.385 0.181-0.048 0.369 0.038 0.492 0.17 0.237 0.24 0.471 0.483 0.728 0.702 0.152-0.524 0.383-1.028 0.703-1.472 0.611-0.874 1.534-1.491 2.526-1.855 0.594-0.235 1.221-0.369 1.848-0.478-1.843-0.479-3.686-0.953-5.53-1.428 4.518 0 9.036 0.001 13.554 0zM13.394 18.75c-0.299 0.596-0.557 1.215-0.73 1.86-0.288 1.020-0.362 2.103-0.186 3.149 0.073 0.431 0.175 0.862 0.358 1.261 0.184 0.421 0.46 0.802 0.8 1.112 0.554 0.491 1.28 0.783 2.019 0.816 0.271-0.518 0.455-1.091 0.465-1.68 0.001-0.436-0.074-0.874-0.233-1.281-0.189-0.501-0.478-0.96-0.816-1.373-0.177-0.228-0.389-0.426-0.564-0.655-0.322-0.397-0.595-0.836-0.797-1.306-0.255-0.597-0.369-1.255-0.317-1.903zM11.747 18.047c-0.194 0.283-0.413 0.551-0.674 0.774-0.319 0.289-0.693 0.512-1.079 0.698-0.583 0.272-1.218 0.402-1.847 0.515-0.473 0.109-0.943 0.25-1.373 0.479-0.457 0.238-0.874 0.564-1.182 0.979-0.364 0.47-0.571 1.043-0.677 1.623 0.57 0.393 1.264 0.622 1.958 0.597 0.593-0.010 1.173-0.204 1.676-0.512 0.817-0.522 1.496-1.246 2.014-2.062 0.598-0.938 0.968-2.005 1.184-3.092zM11.59 5.402l0.089-0.169c2.416 0.248 4.805 0.805 7.008 1.85 1.001 0.465 1.964 1.013 2.87 1.644-0.102 0.545-0.272 1.092-0.606 1.542-0.263 0.362-0.65 0.638-1.087 0.746-0.35 0.095-0.719 0.108-1.078 0.062-1.214-0.273-2.422-0.577-3.608-0.953-0.783-0.258-1.561-0.545-2.291-0.931-0.248-0.145-0.494-0.296-0.719-0.475-0.374-0.312-0.678-0.717-0.836-1.181-0.181-0.518-0.149-1.094 0.034-1.607 0.108-0.299 0.039-0.122 0.223-0.527zM9.141 2.192v0c-1.226 0.031-0.701 0.006-1.576 0.056-0.168 0.007-0.355 0.047-0.465 0.186-0.092 0.124-0.093 0.289-0.070 0.436 0.101 0.599 0.202 1.199 0.304 1.798 0.019 0.119 0.074 0.237 0.175 0.306 0.113 0.080 0.256 0.083 0.389 0.087h1.078c-0.235 0.827-0.379 1.691-0.313 2.553 0.045 0.646 0.215 1.284 0.507 1.863 0.275 0.536 0.65 1.019 1.093 1.426 0.195 0.155 0.386 0.315 0.554 0.5 0.351 0.367 0.635 0.824 0.7 1.336 0.050 0.335-0.007 0.678-0.128 0.992-0.244 0.625-0.493 1.248-0.774 1.858 4.517-0.001 9.033-0.001 13.55-0-1.84-0.482-3.681-0.958-5.525-1.428 0.708-0.124 1.418-0.285 2.078-0.576 0.471-0.194 0.917-0.451 1.325-0.756 0.39-0.301 0.732-0.665 1.013-1.070 0.295-0.43 0.513-0.911 0.66-1.41 0.191 0.166 0.373 0.342 0.554 0.519 0.133 0.135 0.254 0.306 0.45 0.352 0.2 0.060 0.398-0.060 0.54-0.19 0.497-0.474 0.992-0.95 1.478-1.434 0.080-0.084 0.151-0.196 0.134-0.317-0.017-0.142-0.112-0.257-0.213-0.351-1.291-1.207-2.714-2.273-4.232-3.177-1.018-0.592-2.067-1.133-3.16-1.573-1.091-0.46-2.219-0.827-3.363-1.129-1.868-0.479-3.785-0.767-5.712-0.838-0.35-0.013-0.701-0.012-1.051-0.017z"></path>
</svg>
