<!-- Generated by IcoMoon.io -->
<svg version="1.1" xmlns="http://www.w3.org/2000/svg" width="22" height="32" viewBox="0 0 22 32">
<title>una</title>
<path fill="#444" d="M11.2 19.213v0.001h-8.656c-0.073 0-0.13-0.029-0.172-0.087-2.749-3.767-1.554-8.643 2.032-11.334 2.45-1.839 4.777-3.098 6.714-5.781 0.017-0.024 0.046-0.039 0.075-0.039l0-0.001c0.002 0 0.004-0 0.006-0 0.030 0 0.058 0.015 0.075 0.039 1.938 2.682 4.265 3.941 6.714 5.781 3.586 2.692 4.781 7.567 2.032 11.334-0.042 0.058-0.099 0.087-0.172 0.087h-8.65zM11.194 9.8c-1.661 0-3.009 1.349-3.009 3.009s1.349 3.009 3.009 3.009c1.661 0 3.009-1.349 3.009-3.009s-1.349-3.009-3.009-3.009zM6.309 20.15c-0.434 0.718-0.684 1.56-0.684 2.459s0.25 1.742 0.684 2.46h-3.849c-1.357 0-2.46-1.102-2.46-2.46s1.102-2.459 2.46-2.459h3.849zM16.091 25.069c0.434-0.718 0.684-1.56 0.684-2.46s-0.25-1.741-0.684-2.459h3.849c1.357 0 2.459 1.102 2.459 2.459s-1.102 2.46-2.459 2.46h-3.849zM7.003 20.15h8.393c0.589 0.654 0.947 1.519 0.947 2.466 0 0.941-0.353 1.801-0.934 2.453h-8.418c-0.581-0.652-0.934-1.511-0.934-2.453 0-0.948 0.358-1.813 0.947-2.466zM6.882 27.893c-0.009 0.024-0.031 0.041-0.057 0.043-1.884 0.122-3.529 0.807-4.936 2.055-0.068 0.061-0.102 0.045-0.102-0.045v-3.909c0-0.050 0.026-0.076 0.077-0.076l5.548 0.017c0.005 0 0.011 0.001 0.016 0.002 0.056 0.010 0.094 0.065 0.084 0.122-0.001 0.005-0.002 0.011-0.004 0.016l-0.628 1.775zM20.481 29.9c-1.548-1.336-2.9-1.728-4.879-2.009-0.052-0.006-0.086-0.034-0.102-0.083l-0.622-1.718c-0.003-0.009-0.005-0.019-0.005-0.028 0-0.045 0.037-0.083 0.082-0.083l5.563-0.017c0.052 0 0.078 0.025 0.078 0.076v3.811c0 0.102-0.038 0.12-0.115 0.053zM12.236 27.957h-2.091c-0.020 0-0.039-0.009-0.051-0.025l-1.284-1.667c-0.009-0.011-0.014-0.025-0.014-0.040 0-0.035 0.029-0.064 0.064-0.064h4.676c0.035 0 0.064 0.029 0.064 0.064 0 0.014-0.005 0.028-0.014 0.040l-1.301 1.667c-0.012 0.016-0.031 0.025-0.051 0.025z"></path>
</svg>
