<!-- Generated by IcoMoon.io -->
<svg version="1.1" xmlns="http://www.w3.org/2000/svg" width="32" height="32" viewBox="0 0 32 32">
<title>und</title>
<path fill="#444" d="M4.677 17.848c0.922 0.022 1.753 0.399 2.481 0.945 0.39-0.172 0.781-0.344 1.171-0.518 0.284 1.083 0.674 2.137 1.166 3.142-0.383 0.169-0.768 0.338-1.151 0.51-0.19 1.304-0.867 2.613-2.108 3.189-1.684 0.898-3.951 0.055-4.727-1.663-0.979-1.838-0.211-4.407 1.713-5.276 0.239-0.117 0.49-0.214 0.752-0.263 0.171-0.032 0.345-0.043 0.518-0.064l0.185-0zM5.057 19.48c-0.402 0.030-0.703 0.297-0.856 0.659-0.533 0.331-1.147 0.637-1.438 1.231-0.16 0.281-0.13 0.609-0.132 0.92-0.067 0.208-0.197 0.39-0.271 0.596 0.257 0.064 0.565 0.058 0.755 0.269 0.224 0.236 0.533 0.384 0.857 0.408 0.567 0.051 1.109-0.162 1.624-0.37 0.383 0.139 0.852 0.001 1.075-0.344 0.179-0.341 0.148-0.751 0.021-1.103-0.095-0.221-0.021-0.458-0.008-0.686 0.111 0.019 0.222 0.038 0.332 0.058 0.032-0.24 0.013-0.48-0.056-0.712-0.157 0.089-0.31 0.187-0.459 0.289-0.114-0.104-0.24-0.193-0.377-0.264-0.224-0.404-0.518-0.824-0.99-0.948l-0.078-0.002zM26.896 19.48c0.402 0.030 0.703 0.297 0.856 0.659 0.533 0.331 1.147 0.637 1.438 1.231 0.16 0.281 0.13 0.609 0.132 0.92 0.067 0.208 0.197 0.39 0.271 0.596-0.257 0.064-0.565 0.058-0.755 0.269-0.224 0.236-0.533 0.384-0.857 0.408-0.567 0.051-1.109-0.162-1.624-0.37-0.383 0.139-0.852 0.001-1.075-0.345-0.179-0.341-0.148-0.751-0.021-1.103 0.095-0.221 0.021-0.458 0.008-0.686-0.111 0.019-0.222 0.038-0.332 0.058-0.032-0.24-0.013-0.48 0.055-0.712 0.157 0.089 0.31 0.187 0.459 0.289 0.114-0.104 0.24-0.193 0.377-0.264 0.224-0.404 0.518-0.824 0.99-0.948l0.078-0.001zM27.453 17.845c-0.17 0.008-0.341 0.004-0.51 0.024-0.773 0.093-1.495 0.437-2.094 0.927-0.489-0.211-0.974-0.427-1.463-0.64-0.206 1.106-0.549 2.179-1.002 3.209 0.424 0.187 0.849 0.372 1.273 0.557 0.185 1.275 0.828 2.559 2.025 3.152 1.663 0.94 3.946 0.154 4.771-1.544 1.049-1.866 0.25-4.539-1.752-5.388-0.41-0.175-0.796-0.291-1.249-0.298zM11.523 16.24c-0.955 0.398-1.913 0.794-2.863 1.203 0.383 2.119 1.223 4.217 2.746 5.776 2.179 2.306 6.166 2.585 8.597 0.521 1.848-1.577 2.756-3.995 3.019-6.361-0.94 0.396-1.874 0.799-2.809 1.2-0.877-0.744-1.754-1.484-2.629-2.231-1.226 0.854-2.447 1.715-3.668 2.574-0.799-0.893-1.598-1.786-2.395-2.681zM11.731 7.132c0.135 0.609 0.502 1.117 1.151 1.239-0.625 0.164-1.020 0.627-1.151 1.252-0.13-0.633-0.513-1.106-1.163-1.236 0.638-0.151 1.046-0.612 1.163-1.255zM11.408 11.042c0.068 0.003 0.138-0.008 0.204 0.009 0.411 0.104 0.598 0.646 0.298 0.954-0.479 0.536-1.244-0.268-0.802-0.778 0.086-0.091 0.171-0.156 0.299-0.184zM11.377 13.675c0.096 0.023 0.118 0.019 0.202 0.073 0.371 0.238 0.403 0.887-0.062 1.024-0.625 0.291-0.992-0.724-0.443-1.033 0.096-0.044 0.194-0.076 0.302-0.064zM14.618 6.521c-1.905 0.008-3.811 0.003-5.716 0.003v3.241c0.44-0.003 0.88-0.003 1.32-0.003-0.573 2.181-0.789 4.461-0.518 6.708 0.646-0.268 1.291-0.539 1.939-0.807 0.739 0.828 1.476 1.655 2.22 2.481-1.265-3.8-0.739-7.97 0.755-11.622zM18.4 13.858c-1.541 0.669-3.079 1.348-4.618 2.028 0.151 0.726 0.331 1.447 0.534 2.16 1.098-0.763 2.189-1.533 3.282-2.304 0.148 0.117 0.445 0.349 0.596 0.466 0.096-0.781 0.161-1.564 0.206-2.35zM20.271 7.145c0.122 0.635 0.513 1.083 1.145 1.231-0.627 0.161-1.026 0.619-1.158 1.247-0.104-0.643-0.523-1.085-1.145-1.244 0.64-0.146 1.018-0.606 1.158-1.234zM20.475 11.029c0.063 0.015 0.129 0.017 0.188 0.044 0.359 0.166 0.479 0.703 0.158 0.958-0.497 0.578-1.275-0.502-0.645-0.88 0.092-0.072 0.178-0.117 0.3-0.122zM20.631 13.695c0.053 0.006 0.107 0.005 0.159 0.018 0.242 0.059 0.423 0.259 0.393 0.515 0.114 0.401-0.416 0.734-0.76 0.539-0.333-0.174-0.396-0.64-0.146-0.914 0.101-0.097 0.21-0.154 0.354-0.158zM20.455 16.217c0.044 0.010 0.090 0.015 0.132 0.031 0.239 0.088 0.415 0.331 0.335 0.587 0.055 0.45-0.627 0.7-0.88 0.338-0.302-0.271-0.19-0.828 0.216-0.932 0.106-0.031 0.042-0.018 0.196-0.025zM17.382 6.523c1.27 3.155 1.877 6.661 1.19 10.029 0.573 0.487 1.145 0.976 1.721 1.458 0.633-0.268 1.265-0.536 1.898-0.807 0.411-2.475 0.219-5.018-0.409-7.442 0.44 0 0.88 0 1.322 0-0.003-1.078 0-2.158 0-3.235-1.908-0.003-3.813 0-5.721-0.003zM28.305 7.448l-0.152 0.002c-0.397 0.045-0.693 0.072-1.064 0.245-1.382 0.534-2.189 1.947-2.345 3.371-0.687 0.299-1.372 0.601-2.059 0.903 0.133 1.192 0.174 2.395 0.128 3.595 1.057-0.469 2.116-0.929 3.173-1.4 1.007 0.773 2.374 1.171 3.595 0.677 1.296-0.445 2.101-1.687 2.421-2.965-1.052 0.437-2.087 0.911-3.129 1.372-0.661-0.45-1.32-0.901-1.978-1.354 0.146-0.815 0.286-1.629 0.432-2.444 1.044-0.466 2.095-0.914 3.129-1.4-0.675-0.33-1.388-0.599-2.149-0.601zM3.687 7.448l-0.208 0.007c-0.149 0.019-0.299 0.029-0.447 0.055-0.521 0.094-1.019 0.29-1.484 0.54 1.033 0.484 2.085 0.934 3.129 1.4 0.143 0.812 0.286 1.627 0.429 2.442-0.659 0.453-1.317 0.903-1.973 1.356-1.044-0.463-2.082-0.932-3.134-1.38 0.32 1.197 1.007 2.387 2.199 2.879 1.26 0.614 2.749 0.247 3.813-0.58 1.054 0.461 2.108 0.921 3.16 1.393-0.057-1.2-0.010-2.405 0.135-3.597-0.685-0.299-1.367-0.601-2.051-0.901-0.156-1.382-0.914-2.759-2.239-3.321-0.426-0.175-0.865-0.303-1.332-0.293zM13.605 13.855c0.029 0.513 0.065 1.026 0.107 1.538 0.567-0.245 1.135-0.497 1.702-0.747-0.604-0.263-1.205-0.528-1.809-0.791z"></path>
</svg>
