<!-- Generated by IcoMoon.io -->
<svg version="1.1" xmlns="http://www.w3.org/2000/svg" width="32" height="32" viewBox="0 0 32 32">
<title>unf</title>
<path fill="#444" d="M15.566 8.685c0.334-0.219 0.713-0.393 1.117-0.412 0.092-0.025 0.188-0.026 0.28 0 0.293 0.016 0.584 0.108 0.825 0.277 0.163 0.128 0.307 0.285 0.4 0.472 0.181 0.341 0.213 0.736 0.193 1.115-0.019 0.116-0.002 0.235-0.036 0.349-0.049 0.3-0.116 0.599-0.221 0.885-0.105-0.053-0.202-0.119-0.292-0.195-0.005-0.112 0.036-0.219 0.028-0.331-0.007-0.155 0.016-0.313-0.021-0.466-0.007-0.128-0.005-0.257-0.044-0.38-0.049-0.262-0.132-0.548-0.356-0.714-0.113-0.092-0.263-0.098-0.4-0.121-0.183 0.014-0.366 0.056-0.525 0.152-0.205 0.121-0.392 0.277-0.543 0.462-0.327 0.371-0.574 0.803-0.81 1.234-0.44 0.824-0.78 1.698-1.072 2.584-0.086 0.268-0.185 0.532-0.256 0.804 1.763-0.663 3.529-1.317 5.287-1.992 2.336-0.87 4.705-1.67 7.137-2.227 0.485-0.104 0.971-0.207 1.461-0.284 0.144-0.033 0.292-0.036 0.436-0.072 0.156-0.008 0.31-0.035 0.464-0.055 0.197 0.004 0.387-0.062 0.584-0.052 0.229 0.002 0.457-0.009 0.684-0.043 0.117 0.016 0.235 0.024 0.353 0.037 0.17 0.012 0.345-0.012 0.512 0.033 0.306 0.041 0.615 0.101 0.894 0.24 0.122 0.062 0.26 0.127 0.325 0.256 0.075 0.181-0.001 0.375-0.083 0.539-0.18 0.34-0.445 0.626-0.729 0.883-0.807 0.713-1.752 1.246-2.704 1.739-2.319 1.157-4.771 2.017-7.235 2.808-0.058 0.017-0.12 0.051-0.18 0.025-0.099-0.035-0.198-0.073-0.294-0.115-0.032-0.073-0.016-0.148 0.003-0.222 1.008-0.364 2.008-0.75 2.993-1.175 0.884-0.39 1.765-0.798 2.586-1.311 0.254-0.164 0.507-0.334 0.732-0.537 0.141-0.115 0.26-0.256 0.358-0.409 0.059-0.1 0.104-0.214 0.103-0.331-0.018-0.198-0.164-0.388-0.361-0.436-0.167-0.046-0.341-0.022-0.511-0.028-0.172-0.008-0.336 0.055-0.507 0.053-1.082 0.178-2.136 0.493-3.179 0.83-1.294 0.417-2.569 0.889-3.838 1.373-1.735 0.666-3.475 1.316-5.215 1.969 0.001 0.014 0.003 0.043 0.005 0.057 0.883 0.494 1.783 0.958 2.691 1.403 0.103 0.046 0.208 0.092 0.304 0.153-0.018 0.072-0.064 0.132-0.1 0.195-0.176 0.295-0.277 0.626-0.369 0.954-1.033-0.486-2.056-0.993-3.061-1.534-0.086-0.045-0.167-0.103-0.262-0.125-0.070 0.352-0.143 0.703-0.209 1.055-0 0.113-0.048 0.217-0.053 0.329-0.002 0.112-0.048 0.217-0.051 0.329-0.004 0.128-0.052 0.251-0.051 0.38 0 0.137-0.050 0.267-0.050 0.404 0.003 0.179-0.060 0.352-0.052 0.532 0.008 0.137-0.033 0.27-0.033 0.407-0.018 0.133-0.018 0.268-0.016 0.402 0.004 0.282-0.019 0.567 0.042 0.844 0.005 0.163 0.053 0.32 0.094 0.477 0.083 0.276 0.239 0.543 0.483 0.705 0.098 0.060 0.207 0.116 0.326 0.111 0.116-0.002 0.237 0.012 0.35-0.028 0.415-0.119 0.774-0.382 1.067-0.693 0.071-0.062 0.114-0.149 0.189-0.205 0.085-0.024 0.175-0.035 0.264-0.034-0.072 0.305-0.243 0.575-0.427 0.824-0.306 0.406-0.73 0.742-1.23 0.866-0.12 0.023-0.242 0.031-0.364 0.044-0.143-0.023-0.291-0.023-0.427-0.073-0.432-0.143-0.802-0.45-1.042-0.835-0.295-0.457-0.434-0.994-0.517-1.526-0.002-0.127-0.028-0.252-0.048-0.376-0.009-0.177-0.005-0.355-0.010-0.532-0.024-0.227-0.027-0.456-0.010-0.683 0.020-0.101 0.006-0.202 0-0.304 0.021-0.167 0.011-0.335 0.019-0.502 0.032-0.202 0.046-0.407 0.052-0.612 0.019-0.117 0.044-0.235 0.046-0.354-0.003-0.112 0.045-0.216 0.048-0.327 0-0.136 0.053-0.264 0.056-0.4 0.031-0.151 0.057-0.303 0.082-0.455-0.117 0.005-0.219 0.065-0.327 0.102-0.24 0.085-0.475 0.184-0.717 0.264-0.043-0.391-0.178-0.77-0.392-1.1-0.051-0.076-0.117-0.144-0.143-0.234 0.128-0.032 0.249-0.086 0.374-0.13 0.070-0.029 0.147-0.044 0.204-0.097-0.071-0.062-0.153-0.108-0.234-0.155-0.886-0.545-1.758-1.114-2.606-1.716-0.668-0.465-1.301-0.984-1.869-1.567-0.391-0.406-0.761-0.842-1.029-1.34-0.107-0.217-0.208-0.456-0.169-0.703 0.058-0.177 0.24-0.269 0.406-0.32 0.138-0.020 0.273-0.063 0.414-0.053 0.178-0.011 0.35 0.048 0.527 0.051 0.8 0.142 1.567 0.424 2.32 0.724 0.793 0.325 1.571 0.684 2.335 1.071 0.101 0.052 0.207 0.096 0.3 0.162-0.064 0.056-0.122 0.123-0.195 0.168-0.084-0.009-0.155-0.063-0.232-0.094-0.469-0.207-0.961-0.365-1.462-0.475-0.119-0.015-0.233-0.057-0.354-0.060-0.086 0-0.169-0.026-0.255-0.034-0.193-0.032-0.392-0.005-0.577 0.058-0.097 0.035-0.183 0.131-0.166 0.24 0.012 0.111 0.074 0.21 0.134 0.302 0.288 0.396 0.684 0.691 1.062 0.994 0.998 0.738 2.041 1.411 3.096 2.064 0.012-0.017 0.037-0.052 0.050-0.070 0.253-0.816 0.532-1.624 0.86-2.413 0.404-0.954 0.895-1.878 1.53-2.701 0.297-0.385 0.636-0.744 1.038-1.020zM15.64 11.129c-0.395 0.713-0.699 1.474-0.971 2.241-0.025 0.065-0.046 0.133-0.050 0.203 0.101-0.010 0.193-0.054 0.287-0.089 0.815-0.307 1.631-0.612 2.446-0.916 0.256-0.101 0.521-0.185 0.769-0.305-0.163-0.155-0.351-0.278-0.536-0.402-0.49-0.317-1.036-0.546-1.604-0.679-0.113-0.025-0.224-0.059-0.34-0.053zM12.407 11.643c-0.719 0.376-1.346 0.927-1.812 1.591-0.027 0.036-0.047 0.106 0.004 0.132 0.25 0.174 0.509 0.335 0.764 0.502 0.156 0.098 0.307 0.205 0.47 0.29 0.030-0.067 0.059-0.135 0.079-0.206 0.254-0.762 0.533-1.516 0.87-2.245 0.042-0.090 0.098-0.176 0.102-0.278-0.171 0.043-0.32 0.14-0.478 0.213zM15.862 15.674c-0.281 0.112-0.572 0.201-0.847 0.329 0.287 0.17 0.59 0.309 0.882 0.468 0.439 0.217 0.873 0.445 1.322 0.64 0.418-0.452 0.947-0.809 1.539-0.988 0.386-0.119 0.792-0.167 1.196-0.155-0.010-0.117-0.018-0.235-0.022-0.352-0.020-0.111-0.043-0.222-0.052-0.334-0.074-0.345-0.152-0.694-0.305-1.014-1.236 0.473-2.474 0.942-3.713 1.406zM8.034 15.563c-0.334 0.026-0.656 0.158-0.92 0.362-0.332 0.251-0.561 0.626-0.659 1.028-0.010 0.15-0.062 0.298-0.050 0.45 0.033 0.148 0.033 0.302 0.079 0.447 0.127 0.444 0.432 0.835 0.836 1.061 0.231 0.139 0.497 0.207 0.762 0.241 0.128-0.002 0.26 0.014 0.385-0.021 0.269-0.045 0.534-0.136 0.756-0.297 0.376-0.251 0.643-0.653 0.743-1.092 0.014-0.090 0.025-0.181 0.045-0.271 0.031-0.168-0.020-0.334-0.042-0.5-0.047-0.228-0.141-0.444-0.273-0.636-0.255-0.392-0.68-0.663-1.137-0.752-0.175-0.020-0.35-0.057-0.525-0.022zM19.401 16.554c-0.168 0.038-0.34 0.052-0.502 0.115-0.954 0.295-1.709 1.138-1.901 2.118-0.1 0.523-0.063 1.079 0.135 1.576 0.139 0.353 0.343 0.683 0.62 0.945 0.438 0.47 1.056 0.759 1.691 0.832 0.142-0.005 0.284 0.035 0.425 0.009 0.646-0.019 1.279-0.286 1.756-0.721 0.536-0.481 0.88-1.178 0.917-1.899 0.017-0.086 0.033-0.174 0.012-0.261-0.023-0.083-0.012-0.17-0.025-0.254-0.044-0.505-0.262-0.983-0.565-1.384-0.13-0.157-0.271-0.306-0.426-0.439-0.217-0.186-0.469-0.326-0.729-0.441-0.258-0.11-0.535-0.165-0.811-0.202-0.199-0.001-0.399-0.011-0.597 0.007zM22.488 17.374c0.076 0.131 0.16 0.258 0.232 0.391 0.024 0.044 0.049 0.092 0.096 0.116 0.452 0.216 0.901 0.44 1.337 0.688 0.444 0.263 0.889 0.535 1.263 0.895 0.124 0.128 0.248 0.268 0.305 0.44 0.007 0.113 0.036 0.262-0.075 0.334-0.13 0.083-0.287 0.103-0.438 0.111-0.176 0.050-0.353-0.023-0.531-0.011-0.547-0.082-1.077-0.253-1.588-0.46-0.044 0.096-0.048 0.202-0.074 0.302-0.061 0.228-0.147 0.448-0.247 0.662-0.044 0.097-0.117 0.18-0.14 0.286 0.104 0.047 0.215 0.076 0.323 0.114 0.94 0.302 1.895 0.57 2.871 0.722 0.117 0.034 0.241 0.020 0.359 0.048 0.167 0.047 0.342 0.014 0.512 0.042 0.145 0.024 0.292 0.004 0.439 0.012 0.119 0.004 0.235-0.020 0.354-0.025 0.16 0.005 0.313-0.045 0.467-0.081 0.276-0.078 0.571-0.221 0.682-0.504 0.044-0.219-0.067-0.423-0.194-0.593-0.209-0.276-0.473-0.505-0.746-0.714-0.36-0.28-0.744-0.526-1.134-0.761-0.849-0.504-1.732-0.949-2.625-1.368-0.479-0.222-0.957-0.449-1.446-0.646zM5.44 17.544c-1.146 0.418-2.271 0.894-3.354 1.455-0.494 0.262-0.984 0.539-1.428 0.881-0.254 0.205-0.52 0.426-0.642 0.738-0.041 0.162 0.004 0.338 0.092 0.477 0.083 0.116 0.208 0.194 0.331 0.26 0.343 0.173 0.728 0.228 1.104 0.279 0.192-0.006 0.381 0.032 0.573 0.025 0.27-0.004 0.54 0.012 0.809-0.018 0.132-0.010 0.265-0 0.398-0.012 0.16-0.032 0.322-0.043 0.485-0.050 0.145-0.036 0.296-0.036 0.443-0.063 1.049-0.142 2.086-0.375 3.108-0.652 0.981-0.275 1.954-0.583 2.902-0.958-0.049-0.106-0.125-0.197-0.197-0.287-0.020-0.037-0.062-0.047-0.1-0.035-1.126 0.372-2.267 0.709-3.43 0.942-0.283 0.045-0.564 0.109-0.851 0.125-0.266 0.054-0.538 0.043-0.808 0.042-0.141-0.004-0.279-0.039-0.417-0.068-0.168-0.048-0.353-0.125-0.436-0.291-0.053-0.103-0.092-0.23-0.030-0.338 0.099-0.194 0.288-0.316 0.462-0.437 0.46-0.287 0.963-0.498 1.466-0.698 0.112-0.047 0.23-0.077 0.336-0.138-0.182-0.269-0.318-0.568-0.381-0.888-0.033-0.134-0.056-0.271-0.050-0.41-0.136 0.007-0.255 0.076-0.382 0.119zM10.597 17.661c-0.040 0.088-0.044 0.186-0.066 0.28-0.053 0.204-0.138 0.4-0.242 0.583-0.036 0.051-0.025 0.117 0.008 0.167 0.093 0.166 0.193 0.328 0.304 0.483 0.076 0.105 0.147 0.216 0.246 0.302 0.005-0.052 0.005-0.104 0.011-0.156 0.043-0.199 0.005-0.405 0.038-0.606 0.005-0.12 0.041-0.235 0.034-0.356-0.008-0.172 0.055-0.336 0.053-0.507 0.005-0.119 0.053-0.231 0.050-0.351-0.15 0.037-0.299 0.092-0.437 0.162zM13.451 17.762c-0.023 0.033-0.015 0.077-0.023 0.115-0.060 0.358-0.125 0.714-0.169 1.074-0.040 0.139-0.025 0.285-0.055 0.426-0.038 0.163-0.022 0.333-0.055 0.497-0.037 0.15-0.011 0.305-0.034 0.457-0.013 0.083-0.009 0.168-0.017 0.251-0.037 0.151-0.013 0.307-0.020 0.46 0.263 0.121 0.551 0.172 0.832 0.233 0.158 0.010 0.311 0.063 0.47 0.057 0.127-0.007 0.253 0.030 0.38 0.008 0.101-0.017 0.202 0.019 0.303 0 0.084-0.011 0.169-0.007 0.253-0.010 0.376-0.049 0.753-0.117 1.113-0.242 0.118-0.043 0.244-0.071 0.348-0.144-0.221-0.44-0.383-0.921-0.39-1.417-0.033-0.124-0.017-0.252-0.017-0.378-0.454-0.214-0.909-0.425-1.356-0.652-0.47-0.237-0.945-0.466-1.408-0.718-0.047-0.029-0.105-0.032-0.157-0.017z"></path>
</svg>
