<!-- Generated by IcoMoon.io -->
<svg version="1.1" xmlns="http://www.w3.org/2000/svg" width="28" height="32" viewBox="0 0 28 32">
<title>unh</title>
<path fill="#444" d="M25.269 2.548v0 0l0 0h-0l0.006 0.152c0.011 0.195 0.010 0.389 0.012 0.584-0.040 1.48 0.010 2.998-0.024 4.481-0.023 1.014 0.132 1.775-0.138 2.65-0.357 0.111-0.827 0.144-1.195 0.173 0.103 1.089 0.283 2.168 0.351 3.258 0.056 0.628 0.064 1.307 0.43 1.85 0.191 0.311 0.525 0.492 0.863 0.605 0.412 0.131 0.823 0.268 1.232 0.409-0.008 0.064 0.001 0.183-0.008 0.249l-0.136 0.052c-1.090 0.394-2.159 1.171-2.461 2.346-0.369 1.446-0.697 2.918-1.344 4.272-0.863 1.781-2.095 3.407-3.678 4.605-1.471 1.030-3.257 1.544-5.033 1.694-1.975 0.107-4.025-0.155-5.791-1.087-0.806-0.413-1.47-1.035-2.188-1.575-0.612-0.512-1.061-1.182-1.488-1.846-1.013-1.65-1.618-3.526-1.92-5.429-0.086-0.644-0.279-1.305-0.712-1.805-0.576-0.625-1.166-1.031-1.921-1.415 0.042-0.080-0.039-0.207 0.029-0.25 0.215-0.137 0.544-0.135 0.774-0.24 0.713-0.156 1.424-0.585 1.606-1.34 0.234-0.822 0.238-1.682 0.401-2.516 0.124-0.643 0.208-1.292 0.198-1.947-0.347-0.035-0.693-0.072-1.041-0.11-0.095-1.065-0.007-2.134-0.024-3.201 0.021-1.464-0.013-3.076 0.082-4.538 1.062-0.123 2.168-0.024 3.25-0.032 2.528-0.017 4.982-0.029 7.51 0.014-0.067 1.103-0.466 2.138-0.802 3.178-0.904 3.312-1.805 6.657-2.020 10.099 0 1.534 0.035 3.217 0.958 4.516 0.311 0.431 0.668 0.863 1.168 1.082 1.025 0.424 2.311 0.22 3.089-0.595 0.874-0.924 1.198-2.21 1.389-3.431 0.263-2.739-0.187-5.48-0.751-8.152-0.433-2.274-1.090-4.495-1.621-6.745 4.939-0.027 1.070-0.011 8.211-0.012 0.912-0.001 1.825-0.002 2.737-0.004v-0zM19.891 3.26l-4.631 0.014c0.732 2.739 1.424 5.498 1.84 8.306 0.151 1.154 0.37 2.303 0.354 3.471-0.019 1.141 0.092 2.302-0.206 3.417-0.27 1.279-0.836 2.582-1.932 3.361-1.204 0.856-2.967 0.854-4.119-0.095-1.057-0.868-1.514-2.236-1.707-3.547-0.274-2.056 0.016-4.139 0.378-6.167 0.528-2.944 1.343-5.826 2.196-8.688-3.078 0.001-6.157-0.005-9.237 0.004-0.152 0.87-0.039 1.756-0.076 2.632-0.072 1.26 0.012 2.522-0.076 3.782 0.469 0.016 0.939 0.017 1.409 0.027-0.31 1.341-0.538 2.704-0.701 4.071-0.016 0.744-0.136 1.526-0.584 2.142-0.244 0.359-0.632 0.576-0.95 0.859 0.978 0.632 1.443 1.784 1.613 2.894 0.42 2.624 1.412 5.289 3.396 7.133 1.502 1.471 3.599 2.227 5.677 2.33 2.085 0.144 4.252-0.302 6.019-1.453 2.104-1.368 3.476-3.622 4.224-5.977 0.449-1.259 0.5-2.663 1.238-3.81 0.259-0.436 0.668-0.745 1.074-1.035-0.326-0.204-0.684-0.391-0.895-0.727-0.554-0.802-0.656-1.806-0.655-2.753-0.139-1.229-0.27-2.462-0.537-3.671 0.441-0.013 1.010-0.028 1.453-0.030 0.068-0.323 0.031-0.636 0.028-0.97-0.008-1.834 0.015-3.669 0.037-5.503l-4.631-0.014zM20.087 4.598l3.101 0.011c-0.021 1.275-0.020 2.549-0.024 3.824-0.582-0.003-1.164-0.004-1.746 0.008 0.562 2.522 0.91 5.095 0.941 7.679-0.075 2.863-0.605 5.837-2.243 8.248-1.217 1.85-3.121 3.222-5.329 3.495-2.323 0.35-4.978-0.152-6.791-1.724-1.981-1.699-2.922-4.29-3.289-6.811-0.37-2.91-0.069-5.862 0.521-8.723 0.13-0.721 0.366-1.421 0.454-2.15-0.55-0.003-1.101-0.001-1.651-0.003 0.001-1.277 0.055-2.554 0.021-3.833 2.095-0.045 4.192-0.012 6.29-0.015-0.8 2.546-1.403 5.153-1.861 7.781-0.431 2.587-0.74 5.329 0.182 7.849 0.481 1.384 1.466 2.671 2.871 3.196 0.815 0.382 1.773 0.323 2.644 0.302 1.36-0.204 2.549-1.117 3.27-2.282 0.794-1.279 1.177-2.777 1.32-4.263-0.001-1.244 0.081-2.5-0.122-3.733-0.267-2.997-0.973-5.93-1.659-8.851l3.1-0.006zM13.549 25.096c-0.466 0-0.844 0.378-0.844 0.844s0.378 0.844 0.844 0.844c0.466 0 0.844-0.378 0.844-0.844s-0.378-0.844-0.844-0.844l-0-0zM9.72 24.506c0.305 0.468 0.662 0.9 1.086 1.263 1.010 0.772 1.682 1.016 1.682 1.016s-0.196-0.256-0.208-0.958c0.023-0.406 0.222-0.804 0.222-0.804s-0.814-0.032-1.621-0.188c-0.391-0.086-0.795-0.161-1.162-0.329zM17.31 24.506c0 0-0.355 0.172-1.162 0.329s-1.621 0.188-1.621 0.188 0.199 0.398 0.222 0.804c-0.012 0.702-0.208 0.958-0.208 0.958s0.672-0.244 1.682-1.016c0.535-0.409 1.086-1.263 1.086-1.263l-0-0zM18.911 21.899c-0.466 0-0.844 0.378-0.844 0.844s0.378 0.844 0.844 0.844c0.466 0 0.844-0.378 0.844-0.844s-0.378-0.844-0.844-0.844zM7.712 21.89c-0.466 0-0.844 0.378-0.844 0.844s0.378 0.844 0.844 0.844c0.466 0 0.844-0.378 0.844-0.844s-0.378-0.844-0.844-0.844v-0zM20.287 18.087c-0.466 0-0.844 0.378-0.844 0.844s0.378 0.844 0.844 0.844c0.466 0 0.844-0.378 0.844-0.844s-0.378-0.844-0.844-0.844zM6.456 18.016c-0.466 0-0.844 0.378-0.844 0.844s0.378 0.844 0.844 0.844c0.466 0 0.844-0.378 0.844-0.844s-0.378-0.844-0.844-0.844v-0zM20.599 14.079c-0.466 0-0.844 0.378-0.844 0.844s0.378 0.844 0.844 0.844c0.466 0 0.844-0.378 0.844-0.844s-0.378-0.844-0.844-0.844zM6.322 14.008c-0.466 0-0.844 0.378-0.844 0.844s0.378 0.844 0.844 0.844c0.466 0 0.844-0.378 0.844-0.844s-0.378-0.844-0.844-0.844l-0-0zM6.903 10.257c-0.466 0-0.844 0.378-0.844 0.844s0.378 0.844 0.844 0.844c0.466 0 0.844-0.378 0.844-0.844s-0.378-0.844-0.844-0.844l-0-0zM20.198 10.249c-0.466 0-0.844 0.378-0.844 0.844s0.378 0.844 0.844 0.844c0.466 0 0.844-0.378 0.844-0.844s-0.378-0.844-0.844-0.844zM19.827 5.342l-0.408 1.007-1.009 0.41 0.985 0.441 0.409 0.953 0.428-0.957 0.989-0.46-0.985-0.396-0.409-0.998zM7.269 5.337l-0.408 1.007-1.009 0.41 0.985 0.441 0.409 0.953 0.428-0.957 0.99-0.46-0.985-0.396-0.409-0.998z"></path>
</svg>
