<!-- Generated by IcoMoon.io -->
<svg version="1.1" xmlns="http://www.w3.org/2000/svg" width="32" height="32" viewBox="0 0 32 32">
<title>usg</title>
<path fill="#444" d="M22.762 17.225c0 0.632 0.514 1.146 1.146 1.146s1.146-0.514 1.146-1.146c0-0.632-0.513-1.146-1.146-1.146s-1.146 0.513-1.146 1.146zM23.909 14.135c1.703 0 3.090 1.385 3.090 3.090 0 1.703-1.387 3.090-3.090 3.090-1.705 0-3.090-1.388-3.090-3.090 0-1.705 1.386-3.090 3.090-3.090zM23.909 13.126c-2.265 0-4.101 1.836-4.101 4.099s1.836 4.1 4.101 4.1c2.263 0 4.101-1.836 4.101-4.1s-1.838-4.099-4.101-4.099zM31.798 14.951l0.194 3.147-2.003 0.598c-0.078 0.317-0.178 0.626-0.303 0.923l1.373 1.705-1.942 2.139-1.887-0.966c-0.291 0.178-1.070 0.777-0.917 0.467 0.073-0.15-0.074 2.286-0.074 2.286l-3.186 0.039-0.669-2.069c-0.315-0.082-0.62-0.19-0.915-0.32l-1.525 1.535-2.37-2.216 1.115-1.742c-0.201-0.323-0.372-0.667-0.51-1.027l-2.355-0.184v-2.836l2.063-0.428c0.082-0.405 0.202-0.796 0.358-1.168l-1.373-1.825 1.983-2.215 1.641 1.293c0.319-0.215 0.661-0.403 1.019-0.557l0.215-2.37h2.877l0.356 1.946c0.541 0.086 1.060 0.244 1.543 0.463l1.559-1.593 2.294 1.905-1.258 1.872c0.26 0.383 0.477 0.796 0.646 1.232l2.048-0.035zM6.946 14.775c0 0.632 0.513 1.148 1.146 1.148s1.146-0.516 1.146-1.148c0-0.632-0.514-1.146-1.146-1.146s-1.146 0.514-1.146 1.146zM8.091 11.687c1.703 0 3.090 1.386 3.090 3.088 0 1.705-1.388 3.090-3.090 3.090-1.705 0-3.090-1.385-3.090-3.090 0-1.703 1.385-3.088 3.090-3.088zM8.091 10.676c-2.265 0-4.101 1.836-4.101 4.1 0 2.265 1.836 4.101 4.101 4.101 2.264 0 4.1-1.836 4.1-4.101 0-2.264-1.836-4.1-4.1-4.1zM15.981 12.502l0.194 3.149-2.003 0.596c-0.078 0.32-0.178 0.627-0.303 0.925l1.373 1.705-1.942 2.136-1.887-0.966c-0.29 0.18-1.068 0.778-0.917 0.469 0.074-0.15-0.073 2.286-0.073 2.286l-3.186 0.039-0.67-2.069c-0.315-0.084-0.622-0.192-0.915-0.321l-1.525 1.535-2.372-2.214 1.115-1.741c-0.199-0.324-0.37-0.667-0.51-1.027l-2.353-0.186v-2.836l2.063-0.428c0.082-0.403 0.203-0.794 0.358-1.167l-1.373-1.825 1.983-2.214 1.641 1.293c0.319-0.217 0.659-0.403 1.017-0.559l0.217-2.368h2.877l0.356 1.944c0.54 0.088 1.058 0.246 1.543 0.465l1.56-1.592 2.292 1.905-1.257 1.871c0.26 0.385 0.477 0.796 0.647 1.234l2.048-0.037z"></path>
</svg>
