<!-- Generated by IcoMoon.io -->
<svg version="1.1" xmlns="http://www.w3.org/2000/svg" width="32" height="32" viewBox="0 0 32 32">
<title>ust</title>
<path fill="#444" d="M3.016 6.186c1.3-0.857 2.942-1.2 4.471-0.891 1.591 0.306 3.024 1.314 3.868 2.696 0.686 1.092 0.992 2.393 0.961 3.676 3.633 1.721 7.271 3.434 10.906 5.152 0.964-0.706 2.147-1.12 3.347-1.102 1.642 0.010 3.255 0.813 4.252 2.115 1.025 1.307 1.408 3.085 1.032 4.699-0.313 1.371-1.161 2.615-2.338 3.385-1.425 0.952-3.311 1.173-4.911 0.556-2.029-0.733-3.461-2.752-3.57-4.895-3.648-1.722-7.296-3.447-10.945-5.168-1.067 0.94-2.438 1.547-3.865 1.61-1.739 0.098-3.496-0.643-4.651-1.944-0.894-0.989-1.423-2.274-1.569-3.593 1.663 0.777 3.321 1.566 4.981 2.349 1.203-0.686 2.384-1.409 3.597-2.076-0.204-1.391-0.504-2.768-0.728-4.156-1.613-0.78-3.243-1.523-4.854-2.304 0.004-0.027 0.013-0.081 0.017-0.109zM24.311 19.173c-0.215 0.111-0.413 0.251-0.591 0.414-0.234-0.16-0.473-0.314-0.72-0.453-0.107 0.363-0.138 0.741-0.087 1.117 0.173-0.031 0.347-0.062 0.521-0.091 0.020 0.358 0.136 0.73-0.013 1.076-0.198 0.553-0.247 1.196 0.034 1.73 0.351 0.542 1.086 0.758 1.687 0.54 0.807 0.327 1.657 0.661 2.547 0.581 0.508-0.038 0.994-0.27 1.345-0.64 0.298-0.331 0.782-0.321 1.184-0.422-0.116-0.323-0.32-0.609-0.425-0.935-0.004-0.487 0.044-1.002-0.208-1.443-0.456-0.932-1.419-1.412-2.255-1.931-0.226-0.594-0.81-1.076-1.465-1.032-0.741 0.195-1.203 0.855-1.554 1.488z"></path>
</svg>
