<!-- Generated by IcoMoon.io -->
<svg version="1.1" xmlns="http://www.w3.org/2000/svg" width="29" height="32" viewBox="0 0 29 32">
<title>v09</title>
<path fill="#444" d="M16.344 2.96c1.293-0.008 2.855 0.291 3.931 1.037l8.074 0.076-1.97 7.794c0 0 1.623 4.161-2.671 8.455 0 0 1.888-4.294 0.132-8.196 0 0-4.1 1.105-7.611 6.244-3.512 5.141-1.171 9.955 4.747 8.717 0 0-3.056 1.953-7.544 1.953-4.485 0-8.065-2.471-10.405-5.203l-0.185-0.232c-2.059-2.95-3.556-7.032-2.433-11.377 1.124-4.347 3.777-6.817 3.777-6.817-2.677 5.42 1.397 8.893 7.25 6.779 5.855-2.115 7.952-5.806 7.952-5.806-3.341-2.677-7.967-1.927-7.967-1.927 1.51-0.908 3.165-1.433 4.924-1.498zM19.711 5.073l1.553 1.129-12.894 12.894 16.094-8.706 0.8 1.365 1.6-6.636-7.153-0.047z"></path>
</svg>
