<!-- Generated by IcoMoon.io -->
<svg version="1.1" xmlns="http://www.w3.org/2000/svg" width="20" height="32" viewBox="0 0 20 32">
<title>v0x</title>
<path fill="#444" d="M9.206 0.168c1.481 0.061 2.767 0.765 3.865 1.72 1.286 1.161 2.043 3.198 2.419 5.975 0.246 1.931 0.319 3.886 0.25 5.831l1.254 0.286c0.131-0.356 0.448-0.559 0.819-0.577 0.483 0 0.874 0.391 0.874 0.874l-0.005 0.089 0.481 0.11 0.318 15.251-0.010 0.004c0.011 0.055 0.005 0.017 0.010 0.115 0 0.483-0.391 0.874-0.874 0.874-0.27-0.006-0.544-0.125-0.699-0.354l-2.221 0.902c-0.13 0.349-0.45 0.545-0.813 0.564-0.469-0.008-0.848-0.372-0.872-0.841l-2.899-0.496c-0.128 0.377-0.441 0.602-0.836 0.622-0.483 0-0.874-0.391-0.874-0.874l0.002-0.040-2.578-0.441c-0.085 0.39-0.465 0.621-0.84 0.64-0.483 0-0.874-0.391-0.874-0.874l0.003-0.058-2.375-0.406c-0.131 0.34-0.453 0.526-0.805 0.544-0.461-0.008-0.848-0.365-0.872-0.831l-0.717-0.123-0.318-14.775 0.321-0.005 0.118-0.023c0.017-0.429 0.293-0.755 0.825-0.806 0.343-0.033 0.722 0.228 0.831 0.488l1.202-0.236c-0.023-0.492-0.006-0.158-0.061-1.003-0.080-1.082-0.126-1.819-0.156-2.581-0.061-1.585-0.025-2.897 0.143-4.033 0.225-1.516 0.788-2.605 1.508-3.525 1.146-1.463 2.554-1.952 4.455-1.988h-0zM9.112 3.209v0c-0.888-0.007-1.59 0.519-2.114 1.195-0.783 1.056-0.831 2.38-0.723 5.189 0.028 0.715 0.072 1.421 0.149 2.469 0.070 0.943 0.043 0.573 0.081 1.11l2.202 0.096c0.081-0.399 0.458-0.639 0.844-0.658 0.439 0.006 0.773 0.312 0.859 0.733l0.2 0.009 1.589 0.132 0.366 0.038c0.070-1.748-0.026-3.495-0.224-5.232-0.284-2.098-0.645-3.067-1.399-4.043-0.485-0.625-1.044-0.964-1.83-1.038z"></path>
</svg>
