<!-- Generated by IcoMoon.io -->
<svg version="1.1" xmlns="http://www.w3.org/2000/svg" width="23" height="32" viewBox="0 0 23 32">
<title>v10</title>
<path fill="#444" d="M11.263 30.713c5.813 0 8.189-2.928 8.189-2.928l-2.206-3.52c0 0-2.501 1.908-5.897 1.908s-6.661-1.824-6.661-1.824l-1.952 3.563c0 0 2.714 2.801 8.527 2.801zM9.608 17.092c-2.011-0.533-3.266-1.27-4.796-3.734-1.401-2.258-0.57-6.408-0.57-6.408s-2.227 1.785-2.227 5.348c0 3.563 3.055 7.573 8.337 7.573s7.127-4.582 7.127-7.064c0-2.495-2.020-4.517-4.518-4.517s-4.52 2.023-4.52 4.517c0 1.614 0.896 3.253 2.119 3.83 0.316 0.149 0.524 0.849-0.951 0.455zM21.965 12.268c0 6.064-4.914 10.978-10.978 10.978s-10.978-4.914-10.978-10.978c0-6.063 4.915-10.981 10.978-10.981s10.978 4.918 10.978 10.981z"></path>
</svg>
