<!-- Generated by IcoMoon.io -->
<svg version="1.1" xmlns="http://www.w3.org/2000/svg" width="29" height="32" viewBox="0 0 29 32">
<title>v11</title>
<path fill="#444" d="M12.127 8.594c-0.772 3.101-0.881 3.907-1.354 4.032-0.443 0.119-1.259-1.070-2.204-2.456-1.207-1.77-2.512-3.797-3.339-4.662 0 0 0.038 2.332 0.313 4.85 0.351 3.202 0.928 6.775 0.505 7.056-0.757 0.505-5.386-5.009-6.048-5.23 0 0 2.268 8.821 3.4 10.46 0 0 5.232-0.44 7.12-1.134 0 0 0.589-1.114 1.355-3.591s1.671-6.805 2.364-6.805c0.694 0 1.599 4.328 2.364 6.805s1.354 3.591 1.354 3.591c1.888 0.694 7.121 1.134 7.121 1.134 1.131-1.639 3.399-10.46 3.399-10.46-0.659 0.221-5.291 5.735-6.048 5.23-0.423-0.281 0.154-3.855 0.505-7.056 0.278-2.518 0.316-4.85 0.316-4.85-0.829 0.864-2.135 2.892-3.341 4.662-0.945 1.386-1.761 2.575-2.205 2.456-0.473-0.125-0.534-0.945-1.354-4.032-0.818-3.086-2.112-6.741-2.112-6.741s-1.345 3.664-2.112 6.741zM25.488 27.466c0 0 0.504 0.757 0.345 1.827 0 0-0.409-0.032-0.946-0.601-0.534-0.566-1.322-1.259-1.322-1.259h-7.687c0 0-0.472 0.376-0.725 0.789-0.252 0.409-0.63 0.85-0.914 1.039v0c-0.284-0.189-0.661-0.63-0.913-1.039-0.252-0.412-0.726-0.789-0.726-0.789h-7.686c0 0-0.789 0.693-1.323 1.259-0.536 0.569-0.945 0.601-0.945 0.601-0.157-1.071 0.345-1.827 0.345-1.827-1.447-2.080-1.018-3.33-1.018-3.33 7.561-0.209 9.618-0.333 9.998-0.714 0.376-0.377 0.42-0.838 1.006-2.773 0.589-1.932 1.262-3.191 1.262-3.191s0.682 1.256 1.262 3.191c0.581 1.934 0.63 2.395 1.007 2.773 0.38 0.38 2.436 0.505 9.998 0.714 0 0 0.429 1.25-1.018 3.33z"></path>
</svg>
