<!-- Generated by IcoMoon.io -->
<svg version="1.1" xmlns="http://www.w3.org/2000/svg" width="30" height="32" viewBox="0 0 30 32">
<title>v12</title>
<path fill="#444" d="M12.465 8.804c1.378 0 2.681 0.319 3.84 0.887 0.062-0.362 0.096-0.734 0.096-1.115 0-1.142-0.291-2.211-0.797-3.126-1.003-0.261-2.054-0.4-3.139-0.4-6.871 0-12.44 5.571-12.44 12.442 0 2.728 0.878 5.251 2.367 7.301 0.527-1.227 1.326-2.31 2.318-3.176-0.636-1.213-0.998-2.594-0.998-4.059 0-4.835 3.919-8.755 8.753-8.755z"></path>
<path fill="#444" d="M18.767 6.305c0.261 0.703 0.406 1.469 0.406 2.271 0 1.017-0.232 1.975-0.639 2.82 0.2 0.267 0.368 0.568 0.492 0.9 0.642 1.717-0.113 3.586-1.687 4.178-0.417-2.456-2.553-4.327-5.127-4.327-2.873 0-5.202 2.329-5.202 5.203 0 1.976 1.101 3.694 2.723 4.575-2.689 0.327-4.915 2.34-5.482 5.025h25.591c-0.126-11.434-3.633-17.739-11.075-20.645z"></path>
</svg>
