<!-- Generated by IcoMoon.io -->
<svg version="1.1" xmlns="http://www.w3.org/2000/svg" width="27" height="32" viewBox="0 0 27 32">
<title>v13</title>
<path fill="#444" d="M13.333 2.581c7.363 0 13.331 6.008 13.329 13.419 0.002 7.41-5.966 13.419-13.329 13.419s-13.331-6.008-13.329-13.419c-0.002-7.41 5.966-13.419 13.329-13.419zM18.921 8.743c-3.387-0.062-4.891 4.554-4.749 7.382 0.148 2.958 1.308 6.945 4.901 6.949 3.358 0.003 4.844-4.56 4.858-7.143 0.023-4.227-1.955-7.131-5.009-7.187zM18.942 10.112c1.909-0.011 2.499 3.613 2.579 5.904 0.076 2.165-0.274 5.958-2.428 5.796-1.895-0.142-2.469-3.512-2.493-5.753-0.020-1.902 0.050-5.934 2.341-5.947zM8.784 8.883c-0.448 0.017-0.443 0.001-0.886 0.083-2.222 0.411-3.785 2.495-4.378 4.549l1.225 0.49c0.822-2.317 2.643-3.494 4.005-2.993 0.937 0.345 2.113 1.705 1.276 3.544-0.613 1.346-4.251 4.848-6.551 7.301l0.015 1.010 8.801 0.015 1.056-3.827h-1.194c-0.334 1.142-0.935 1.517-1.592 1.73l-4.316-0.046c1.87-2.247 4.064-3.359 5.464-5.082 1.401-1.724 1.004-4.483-0.245-5.648-0.748-0.673-1.661-1.111-2.68-1.127z"></path>
</svg>
