<!-- Generated by IcoMoon.io -->
<svg version="1.1" xmlns="http://www.w3.org/2000/svg" width="32" height="32" viewBox="0 0 32 32">
<title>v14</title>
<path fill="#444" d="M3.939 6.585c3.951-3.924 10.426-4.554 15.297-2.058 0.153 3.432 0.275 6.86 0.47 10.288-3.447-1.664-6.639-3.814-10.097-5.448 2.562 3.325 5.619 6.242 8.253 9.513-3.921 0.076-7.822 0.466-11.739 0.58 0.721 0.725 1.79 0.649 2.722 0.84 2.768 0.45 5.535 0.92 8.303 1.39-1.733 1.913-3.978 3.272-5.669 5.222 2.917-0.905 5.7-2.176 8.589-3.165-0.080 1.122-0.176 2.245-0.237 3.367-3.31 1.905-7.41 2.386-11.048 1.187-2.833-0.897-5.333-2.836-6.852-5.398-3.172-5.024-2.39-12.25 2.008-16.32z"></path>
<path fill="#444" d="M20.621 5.387c1.741 1.34 3.31 3.046 4.073 5.135-0.206 1.47-1.401 2.615-2.184 3.844-0.592-3.001-1.298-5.978-1.89-8.979z"></path>
<path fill="#444" d="M23.469 18.194c0.626-1.794 1.248-3.604 2.222-5.241 0.218 1.454 0.298 2.924 0.198 4.394-0.805 0.279-1.611 0.569-2.42 0.847z"></path>
<path fill="#444" d="M21.873 20.126c3.127 0.015 6.253-0.176 9.376-0.030-1.741 0.878-3.554 1.603-5.28 2.508 0.916 1.428 1.878 2.829 2.703 4.31-1.439-0.687-2.859-1.416-4.337-2.019-0.466 1.225-0.87 2.481-1.378 3.692-0.401-2.814-0.794-5.631-1.084-8.46z"></path>
</svg>
