<!-- Generated by IcoMoon.io -->
<svg version="1.1" xmlns="http://www.w3.org/2000/svg" width="32" height="32" viewBox="0 0 32 32">
<title>v15</title>
<path fill="#444" d="M19.214 7.365c0.669-0.38 1.461-0.419 2.211-0.459 3.285-0.067 6.515 0.83 9.803 0.679-0.935 1.034-2.040 1.916-3.253 2.603-0.523 0.278-1.071 0.567-1.674 0.612-0.694 0-1.383-0.095-2.077-0.108 1.978 0.982 3.99 1.898 5.981 2.857 0.6 0.3 1.238 0.527 1.805 0.887-1.37 0.518-2.803 0.946-4.28 0.976-0.619-0.010-1.234-0.14-1.791-0.414-3.321 3.359-6.622 6.738-9.94 10.099-3.334-3.346-6.637-6.721-9.948-10.090-0.628 0.316-1.336 0.438-2.034 0.406-1.274-0.062-2.511-0.419-3.703-0.854-0.115-0.044-0.223-0.102-0.322-0.173 2.599-1.226 5.21-2.433 7.789-3.699-0.7 0.010-1.395 0.115-2.095 0.108-0.538-0.031-1.028-0.285-1.498-0.526-1.256-0.677-2.362-1.6-3.361-2.612 2.577 0.094 5.126-0.391 7.694-0.512 1.176-0.046 2.41-0.122 3.526 0.317 0.591 0.213 0.997 0.851 0.817 1.478-0.386 1.835-1.284 3.513-2.176 5.144 1.76 1.924 3.543 3.827 5.311 5.745 1.784-1.911 3.562-3.831 5.336-5.752-0.896-1.31-1.743-2.668-2.358-4.135-0.193-0.496-0.392-1.008-0.407-1.546-0.017-0.436 0.279-0.829 0.646-1.034z"></path>
</svg>
