<!-- Generated by IcoMoon.io -->
<svg version="1.1" xmlns="http://www.w3.org/2000/svg" width="28" height="32" viewBox="0 0 28 32">
<title>v17</title>
<path fill="#444" d="M13.75 2.229c7.606 0 13.771 6.165 13.771 13.771s-6.165 13.771-13.771 13.771c-7.606 0-13.771-6.165-13.771-13.771s6.165-13.771 13.771-13.771zM17.992 6.339c1.205 0.613 4.359 4.623 3.377 4.070-7.088-3.987-10.967-1.44-9.846-1.215 5.52 1.106 9.519 6.514 9.049 6.261-9.543-5.124-14.362-1.651-13.17-1.595 5.159 0.246 9.094 4.143 8.4 4.143-8.935-3.665-10.733 1.127-9.941 1.124 5.69-0.021 7.168 3.588 6.825 3.446-3.591-1.488-6.466-1.2-5.864 2.157 0 0 0.148 0.567 0.632 1.041 1.007 0.985 3.625 1.933 6.297 1.933 6.465 0 11.705-5.24 11.705-11.705 0-3.386-1.448-6.946-4.066-8.677-1.353-0.895-4.772-1.683-3.398-0.984z"></path>
</svg>
