<!-- Generated by IcoMoon.io -->
<svg version="1.1" xmlns="http://www.w3.org/2000/svg" width="32" height="32" viewBox="0 0 32 32">
<title>van</title>
<path fill="#444" d="M27.974 8.906c0.434 0.105 0.775 0.276 1.037 0.462 1.86-0.411 2.94-0.42 2.94-0.42-8.716-2.032-15.571-0.084-21.411 3.554-5.838 3.639-10.493 9.901-10.493 9.901l0.254 1.468 2.539-3.498c2.063-0.836 5.539 0.362 6.402 0.684-0.533-0.673-1.465-1.592-2.805-1.997 0 0 1.583-0.404 3.478 1.602 0.778-0.765 1.548-1.481 2.31-2.15-0.36-0.639-0.995-1.445-2.022-1.779 0 0 1.265-0.175 2.577 1.298 3.128-2.672 6.085-4.556 8.698-5.887-0.336-0.362-0.848-0.866-1.629-1.547 0 0 1.020 0.452 2.225 1.25 1.441-0.702 2.768-1.235 3.951-1.637-0.195-0.354-0.498-0.78-0.972-1.219 0 0 0.844 0.213 1.677 0.988 0.65-0.205 1.249-0.368 1.793-0.499-0.295-0.382-0.55-0.575-0.55-0.575z"></path>
</svg>
