<!-- Generated by IcoMoon.io -->
<svg version="1.1" xmlns="http://www.w3.org/2000/svg" width="26" height="32" viewBox="0 0 26 32">
<title>vis</title>
<path fill="#444" d="M25.87 1.208l-12.498 25.479c0.99 0.179 1.672 1.044 1.697 2.034 0 1.143-0.927 2.070-2.070 2.070s-2.070-0.927-2.070-2.070c0.002-1.005 0.726-1.836 1.697-2.034l-12.498-25.479h25.74zM9.164 3.135h-5.266v0.994c0.456 0.005 0.738 0.077 0.905 0.211 0.099 0.080 0.218 0.301 0.26 0.419l7.928 16.429 8.106-16.667q0.274-0.438 1.004-0.392v-0.994h-5.065v0.994q1.196 0 0.867 0 0.493 0.045 0.31 0.465 0 0.283-5.14 12.523l-5.236-12.529c-0.019-0.3 0.242-0.513 1.326-0.459v-0.994z"></path>
</svg>
