<!-- Generated by IcoMoon.io -->
<svg version="1.1" xmlns="http://www.w3.org/2000/svg" width="32" height="32" viewBox="0 0 32 32">
<title>vma</title>
<path fill="#444" d="M31.675 13.264l-2.311 1.041h-1.799l-5.587 8.81-3.402 3.201 0.92-8.141 5.181-8.636 2.756 1.963 4.243 1.762zM14.256 16.98l0.679 1.133 0.091 0.808 0.973 8.609 1.064-9.417 4.707-7.846 2.906-0.727-3.366-2.398-1.427-2.671-3.884 6.535-3.884-6.535-1.427 2.671-3.367 2.398 2.906 0.727 4.028 6.714zM7.323 9.54l-2.756 1.963-4.242 1.762 2.311 1.042h1.799l5.587 8.81 3.402 3.201-0.92-8.141-5.181-8.636z"></path>
</svg>
