<!-- Generated by IcoMoon.io -->
<svg version="1.1" xmlns="http://www.w3.org/2000/svg" width="24" height="32" viewBox="0 0 24 32">
<title>voc</title>
<path fill="#444" d="M0.815 5.786c2.911-1.139 5.73-2.568 8.237-4.451 0.022 0.72-0.053 1.449 0.036 2.163 0.999 1.192 2.051 2.343 3.071 3.519 1.038-1.19 2.096-2.363 3.117-3.567-0.014-0.707-0.010-1.411-0.008-2.118 2.505 1.883 5.324 3.316 8.237 4.451-0.116 2.258 0.338 4.492 0.815 6.689-0.963 0.876-1.932 1.749-2.896 2.625 0.002 1.236-0.006 2.471 0.004 3.707 0.357 0.288 0.713 0.58 1.066 0.874-2.505 4.392-6.054 8.217-10.321 10.939-4.295-2.694-7.836-6.547-10.347-10.939 0.353-0.292 0.707-0.584 1.062-0.872 0.012-1.236 0.002-2.473 0.006-3.709-0.961-0.878-1.932-1.749-2.894-2.627 0.478-2.193 0.94-4.427 0.815-6.685zM5.756 9.503c-0.904 1.575-0.809 3.555-0.077 5.175 1.247 2.864 2.959 5.497 4.735 8.055-0.488-2.213-0.837-4.455-1.020-6.711-0.136-1.38 0.089-2.758 0.383-4.102-0.665-0.896-1.283-1.836-2.041-2.659-0.193-0.251-0.589-0.384-0.858-0.414-0.405 0.026-0.944 0.179-1.122 0.654zM16.673 9.176c-0.798 0.84-1.433 1.816-2.128 2.74 0.251 1.214 0.482 2.448 0.407 3.693-0.158 2.398-0.537 4.779-1.046 7.126 1.806-2.602 3.551-5.282 4.797-8.205 0.742-1.69 0.78-3.781-0.29-5.314-0.274-0.392-1.082-0.731-1.739-0.039z"></path>
</svg>
