<!-- Generated by IcoMoon.io -->
<svg version="1.1" xmlns="http://www.w3.org/2000/svg" width="32" height="32" viewBox="0 0 32 32">
<title>vow</title>
<path fill="#444" d="M25.151 4.407c3.091 2.149 3.774 5.623 4.018 6.555 0.163 0.622 0.609 1.152 1.34 1.59l1.49 0.785c0 0-0.898 0.635-2.693 1.905-0.495 0.267-0.667 0.655-0.514 1.162 0.172 0.559 0.122 1.431-0.15 2.617s-1.093 2.254-2.46 3.205c0 0 0.413-1.814 0.096-3.495-0.211-1.121-0.936-1.467-2.175-1.040l-4.755 1.942c-0.463 0.817-0.821 1.444-1.073 1.881s-0.252 0.795 0 1.073l0.944 1.123 2.033 0.224c0.838 0 1.313 0.352 1.425 1.056-2.544-0.279-4.763 0.589-6.657 2.604h-0.042c-1.894-2.015-4.112-2.882-6.657-2.604 0.112-0.704 0.587-1.056 1.425-1.056l2.033-0.224 0.944-1.123c0.252-0.278 0.252-0.636 0-1.073s-0.61-1.064-1.073-1.881l-4.755-1.942c-1.239-0.428-1.964-0.081-2.175 1.040-0.317 1.681 0.096 3.495 0.096 3.495-1.367-0.951-2.187-2.020-2.46-3.205s-0.323-2.058-0.15-2.617c0.152-0.508-0.019-0.895-0.514-1.162-1.795-1.27-2.693-1.905-2.693-1.905l1.49-0.785c0.731-0.438 1.178-0.968 1.34-1.59 0.244-0.932 0.928-4.406 4.018-6.555-0.932 2.607-0.614 4.843 0.954 6.707 0.212-0.626 0.532-1.074 0.96-1.344 0.478 1.541 1.446 2.46 2.905 2.757l0.908-1.040-0.548-3.291 1.863-2.483c-0.471 1.722-0.372 3.142 0.296 4.259 0.463-0.374 1.067-0.558 1.813-0.551 0.746-0.007 1.351 0.177 1.814 0.551 0.669-1.117 0.768-2.537 0.297-4.259l1.863 2.483-0.548 3.291 0.908 1.040c1.459-0.297 2.428-1.216 2.905-2.757 0.428 0.271 0.748 0.719 0.96 1.344 1.568-1.864 1.886-4.1 0.954-6.707zM14.025 13.32c-0.627 0.030-0.663 1.183-0.383 1.953s0.61 1.647 1.695 3.298c-0.021-0.131-0.962-2.756-0.328-4.066-0.238-0.81-0.566-1.205-0.984-1.185zM17.975 13.32c-0.418-0.020-0.746 0.375-0.984 1.185 0.634 1.309-0.307 3.935-0.328 4.066 1.085-1.651 1.415-2.528 1.695-3.298s0.243-1.922-0.383-1.953z"></path>
</svg>
