<!-- Generated by IcoMoon.io -->
<svg version="1.1" xmlns="http://www.w3.org/2000/svg" width="32" height="32" viewBox="0 0 32 32">
<title>w16</title>
<path fill="#444" d="M2.246 7.849c9.157 0.018 18.312-0.003 27.469 0.010 1.589 3.223 2.56 6.918 1.915 10.512-0.364 2-0.988 3.958-1.915 5.769-9.157 0.013-18.312-0.008-27.469 0.010-1.695-3.408-2.588-7.372-1.77-11.146 0.387-1.778 0.913-3.543 1.77-5.155zM2.868 8.863c-0.643 1.517-1.257 3.065-1.499 4.706-0.544 3.259 0.101 6.603 1.499 9.567 8.757 0.041 17.514 0.039 26.271 0.003 0.735-1.716 1.409-3.488 1.589-5.359 0.387-3.060-0.292-6.149-1.587-8.92-8.76-0.036-17.517-0.039-26.274 0.003zM23.024 14.374c1.011-1.778 3.050-2.751 5.052-2.769-0.031 0.114-0.098 0.341-0.132 0.454-0.702 0.214-1.486 0.281-2.067 0.779-0.823 0.614-1.184 1.615-1.45 2.567 0.88-0.289 1.866-0.568 2.753-0.139 1.589 0.658 1.951 2.91 0.944 4.208-1.295 1.785-4.51 1.502-5.411-0.537-0.632-1.453-0.485-3.205 0.31-4.564zM17.061 13.379c1.187-0.457 2.32-1.045 3.349-1.798 0.036 2.42-0.034 4.843 0.031 7.263-0.054 0.88 0.748 1.331 1.396 1.716-1.587-0.062-3.174 0.005-4.758-0.049 0.485-0.235 0.991-0.433 1.494-0.63 0.010-2.149 0.005-4.299 0.003-6.45-0.506-0.013-1.011-0.023-1.515-0.052zM3.536 9.81c-1.793 3.881-1.811 8.499-0.031 12.39 8.321 0.008 16.642 0.021 24.961-0.008 1.703-3.674 1.84-8.050 0.23-11.784-2.451-0.328-4.936-0.010-7.333 0.537-3.408 0.805-6.657 2.219-9.668 3.994 1.298 0.003 2.606-0.222 3.899-0.018-1.478 0.741-3.184 0.831-4.74 1.362 1.411 0.993 3.135 1.558 4.373 2.771-1.749-0.428-3.352-1.29-5.062-1.842 0.596 1.401 1.419 2.704 1.891 4.159-1.344-0.965-2.041-2.567-3.109-3.801-0.942 1.404-1.491 3.14-2.771 4.275 0.338-1.576 1.032-3.047 1.463-4.598-1.646 0.513-3.192 1.352-4.892 1.687 1.288-1.169 2.887-1.922 4.34-2.867-1.396-0.862-3.063-1.311-4.288-2.423 1.61 0.268 3.14 0.875 4.727 1.249-0.462-1.347-1.109-2.627-1.466-4.010 1.244 0.875 1.816 2.4 2.779 3.55 0.568-1.084 1.084-2.193 1.651-3.279 0.137-0.305 0.374-0.537 0.653-0.715-0.142 1.197-0.542 2.34-0.787 3.517 3.623-2.062 7.614-3.504 11.75-4.061-1.731-0.168-3.47-0.088-5.204-0.106-4.456 0.013-8.909-0.023-13.365 0.018zM24.407 15.675c-0.049 1.251-0.152 2.585 0.392 3.752 0.255 0.642 1.251 0.805 1.615 0.173 0.55-0.939 0.441-2.157 0.067-3.14-0.338-0.828-1.337-0.769-2.075-0.784z"></path>
</svg>
