<!-- Generated by IcoMoon.io -->
<svg version="1.1" xmlns="http://www.w3.org/2000/svg" width="32" height="32" viewBox="0 0 32 32">
<title>w17</title>
<path fill="#444" d="M9.113 7.857c16.023-0.002 9.156-0.005 20.601 0.003 1.589 3.223 2.56 6.918 1.915 10.512-0.364 2-0.988 3.958-1.915 5.769-9.157 0.013-18.312-0.008-27.469 0.010-1.695-3.408-2.588-7.372-1.77-11.146 0.387-1.778 0.913-3.543 1.77-5.155l6.867 0.007zM11.906 8.837c-3.013 0.001-6.026 0.015-9.039 0.026-0.643 1.517-1.257 3.065-1.499 4.706-0.544 3.259 0.101 6.603 1.499 9.567 8.757 0.041 17.514 0.039 26.271 0.003 0.735-1.716 1.409-3.488 1.589-5.359 0.387-3.060-0.292-6.149-1.587-8.92l-6.569-0.021c-3.555 0.001-7.111-0.002-10.666-0.003zM18.854 9.789c1.237 0.006 1.366-0.008 2.602 0.057 0.217 0.011 0.433 0.035 0.65 0.052-4.136 0.557-8.128 2-11.75 4.061 0.245-1.177 0.645-2.32 0.787-3.517-0.279 0.178-0.516 0.41-0.653 0.715-0.568 1.086-1.084 2.196-1.651 3.279-0.962-1.151-1.535-2.676-2.779-3.55 0.356 1.383 1.004 2.663 1.465 4.010-1.587-0.374-3.117-0.98-4.727-1.249 1.226 1.112 2.892 1.561 4.288 2.423-1.453 0.944-3.052 1.698-4.34 2.867 1.7-0.335 3.246-1.174 4.892-1.687-0.431 1.551-1.125 3.021-1.463 4.598 1.28-1.135 1.829-2.872 2.771-4.275 1.068 1.233 1.765 2.836 3.109 3.801-0.472-1.455-1.295-2.758-1.891-4.159 1.711 0.552 3.313 1.414 5.062 1.842-1.239-1.213-2.962-1.778-4.373-2.771 1.556-0.531 3.261-0.622 4.74-1.362-1.293-0.204-2.601 0.021-3.899 0.018 3.011-1.775 6.259-3.189 9.668-3.994 2.397-0.547 4.882-0.864 7.333-0.537 1.61 3.733 1.473 8.11-0.23 11.784-8.319 0.028-16.64 0.015-24.961 0.008-1.78-3.891-1.762-8.509 0.031-12.39 4.456-0.041 8.909-0.005 13.365-0.018 1.084 0.005 0.434 0.004 1.952-0.003zM28.003 11.563h-5.685v2.921h0.049q0.467-1.618 1.8-1.618h2.533l-3.564 7.661 0.024 0.036q0.8-0.309 2.012-0.309l2.842-8.649-0.012-0.042zM20.41 11.58c-1.029 0.753-2.162 1.342-3.349 1.798 0.503 0.028 1.009 0.039 1.515 0.052 0.003 2.152 0.008 4.301-0.003 6.451-0.503 0.196-1.009 0.395-1.494 0.63 1.584 0.054 3.171-0.013 4.758 0.049-0.648-0.384-1.45-0.836-1.396-1.716-0.064-2.42 0.005-4.843-0.031-7.263z"></path>
</svg>
