<!-- Generated by IcoMoon.io -->
<svg version="1.1" xmlns="http://www.w3.org/2000/svg" width="27" height="32" viewBox="0 0 27 32">
<title>war</title>
<path fill="#444" d="M3.832 13.454l0.1-0.050-1.941-6.885-1.875 9.821-0.116 0.581 0.332-0.481c0.017-0.017 1.46-2.090 3.5-2.986zM21.483 14.101c0.564 0.365 5.292 3.368 5.259 6.437 0 2.986-3.567 4.048-3.6 4.064-0.066 0.033-7.531 2.77-9.721 7.399-2.206-4.612-9.655-7.382-9.721-7.399-0.033 0-3.6-1.078-3.6-4.064 0-3.069 4.711-6.088 5.292-6.436l1.875-11.795 2.555 13.454-0.083 0.050c-2.372 0.68-4.695 2.82-4.711 4.313 0 0.647 0.415 1.095 1.244 1.344 3.616 1.078 6.635 3.733 7.183 4.214 0.547-0.498 3.55-3.119 7.183-4.213 0.829-0.249 1.244-0.697 1.244-1.344-0.017-1.493-2.339-3.633-4.711-4.313l-0.116-0.033 0.017-0.116 2.538-13.338 1.875 11.778zM8.212 18.845l-0.182-0.083 3.218-2.687 2.19-16.075 2.19 16.075 3.202 2.687-0.166 0.083c-3.401 1.659-5.093 5.176-5.109 5.209l-0.116 0.232-0.116-0.232c-0.017-0.033-1.692-3.55-5.11-5.209zM26.543 16.44c-0.017-0.017-1.46-2.090-3.5-2.986l-0.1-0.050 1.941-6.885 0.099 0.514 1.891 9.887-0.332-0.481z"></path>
</svg>
