<!-- Generated by IcoMoon.io -->
<svg version="1.1" xmlns="http://www.w3.org/2000/svg" width="28" height="32" viewBox="0 0 28 32">
<title>who</title>
<path fill="#444" d="M25.774 27.326c-0.064 0.611-0.132 1.222-0.194 1.834-2.156 0.489-4.315 0.964-6.473 1.447-1.744 0.387-3.488 0.782-5.233 1.165-3.906-0.865-7.809-1.741-11.714-2.609-0.068-0.612-0.133-1.224-0.199-1.837 3.968 0.858 7.935 1.723 11.904 2.578 3.971-0.851 7.939-1.72 11.909-2.578v-0zM15.761 9.373c1.521 0.419 3.042 0.839 4.563 1.258-0.080 1.616-0.158 3.232-0.238 4.848-1.441-0.189-2.883-0.378-4.324-0.568 0-1.846-0-3.693 0-5.539zM21.267 10.893c1.222 0.336 2.444 0.673 3.666 1.011-0.142 1.419-0.285 2.838-0.427 4.258-1.155-0.181-2.309-0.363-3.464-0.545 0.075-1.574 0.149-3.149 0.225-4.723zM16.515 16.109l2.748 0.211c-0.031 1.119-0.064 2.237-0.096 3.355-0.884 0.038-1.768 0.078-2.652 0.117-0-1.228-0-2.456 0-3.683zM14.29 7.091c-0.001 7.29-0 14.58-0 21.869 3.473-0.752 6.947-1.505 10.42-2.258 0.555-5.32 1.109-10.64 1.663-15.959-4.027-1.217-8.055-2.435-12.082-3.652zM11.691 9.738c0.001 1.643 0 3.286 0 4.93-1.257 0.165-2.515 0.331-3.773 0.495-0.070-1.441-0.141-2.882-0.211-4.323 1.328-0.368 2.656-0.735 3.984-1.102zM6.204 11.255c0.065 1.375 0.13 2.749 0.195 4.124-0.973 0.153-1.945 0.307-2.917 0.46-0.125-1.243-0.25-2.486-0.374-3.729 1.032-0.285 2.064-0.569 3.096-0.854zM13.445 7.091c-4.027 1.216-8.054 2.434-12.081 3.651 0.554 5.32 1.108 10.64 1.662 15.96 3.473 0.753 6.946 1.506 10.418 2.258 0-7.29 0-14.579 0-21.869zM13.866 3.476c-4.622 1.486-9.244 2.97-13.866 4.457 0.076 0.76 0.153 1.52 0.229 2.28 4.547-1.373 9.094-2.748 13.641-4.121 4.546 1.374 9.092 2.748 13.639 4.121 0.075-0.76 0.151-1.52 0.225-2.281-4.622-1.486-9.246-2.969-13.868-4.456zM13.868 0.228c-0.663 0.473-1.325 0.946-1.987 1.42 0 0.53 0 1.061 0 1.592 0.651-0.209 1.301-0.419 1.952-0.628 0.043-0.020 0.086 0.008 0.128 0.018 0.631 0.205 1.263 0.407 1.895 0.611 0-0.531 0-1.062 0-1.592-0.663-0.474-1.326-0.947-1.988-1.421z"></path>
</svg>
