<!-- Generated by IcoMoon.io -->
<svg version="1.1" xmlns="http://www.w3.org/2000/svg" width="28" height="32" viewBox="0 0 28 32">
<title>woc</title>
<path fill="#444" d="M2.294 1.706c0.364-0.209 0.729-0.42 1.060-0.68 1.375 0.925 2.854 1.694 4.384 2.329 0.664 0.273 1.339 0.516 2.026 0.724 0.741 0.22 1.448 0.567 2.051 1.053 1.086 0.867 1.812 2.153 2.055 3.516 0.14-0.836 0.533-1.611 1.025-2.294 0.439-0.601 0.97-1.137 1.58-1.565 0.437-0.305 0.919-0.554 1.435-0.692 1.401-0.436 2.761-1.005 4.050-1.707 0.817-0.438 1.607-0.924 2.423-1.363 0.472 0.364 1.001 0.645 1.52 0.935 0.595 0.322 1.202 0.624 1.83 0.876-3.468 1.263-6.94 2.516-10.41 3.773-0.197 0.478-0.477 0.926-0.851 1.287-0.605 0.595-1.421 0.969-2.267 1.041-0.867 0.080-1.76-0.151-2.472-0.653-0.594-0.411-1.054-1.004-1.317-1.675-3.473-1.257-6.946-2.511-10.416-3.774 0.794-0.315 1.552-0.711 2.294-1.132zM0.275 4.524c0.222 0.892 0.405 1.792 0.581 2.693 0.622 3.341 1.031 6.729 1.071 10.13 0.018 1.778-0.054 3.56-0.302 5.322 0.779 0.642 1.59 1.245 2.398 1.849 0.439-4.813 0.384-9.677-0.268-14.468-0.221-1.564-0.49-3.125-0.897-4.653-0.863-0.286-1.722-0.583-2.583-0.873zM24.875 5.397c-0.272 1.006-0.473 2.030-0.65 3.056-0.29 1.706-0.49 3.428-0.62 5.153-0.271 3.631-0.225 7.284 0.108 10.91 0.805-0.608 1.623-1.199 2.396-1.849-0.093-0.686-0.17-1.376-0.214-2.067-0.248-3.646 0.032-7.309 0.566-10.918 0.265-1.732 0.582-3.457 0.997-5.159-0.862 0.288-1.721 0.586-2.583 0.872zM13.86 13.422c1.398 2.356 2.897 4.706 4.929 6.573-1.070 1.004-2.013 2.138-2.859 3.337-0.745 1.044-1.406 2.145-2.063 3.245-0.672-1.133-1.355-2.261-2.124-3.331-0.832-1.166-1.757-2.27-2.803-3.251 0.976-0.9 1.839-1.917 2.619-2.989 0.838-1.148 1.587-2.357 2.302-3.584zM4.093 5.819c0.472 2.299 0.769 4.631 0.954 6.97 0.176 2.25 0.248 4.507 0.237 6.764-0.011 1.911-0.078 3.822-0.221 5.728 1.25 0.907 2.514 1.795 3.79 2.665 1.154 0.783 2.317 1.553 3.518 2.262 0.486 0.279 0.974 0.564 1.499 0.766 0.527-0.211 1.022-0.492 1.512-0.778 0.469-0.274 0.929-0.564 1.388-0.854 2.011-1.291 3.969-2.662 5.903-4.067-0.218-2.878-0.265-5.768-0.187-8.652 0.109-3.623 0.431-7.249 1.158-10.804-1.851 0.625-3.703 1.249-5.554 1.875-0.417 0.718-1.027 1.321-1.746 1.737-1.333 0.784-3.040 0.876-4.453 0.252-0.933-0.404-1.735-1.109-2.246-1.989-1.85-0.626-3.701-1.25-5.551-1.875z"></path>
</svg>
