<!-- Generated by IcoMoon.io -->
<svg version="1.1" xmlns="http://www.w3.org/2000/svg" width="32" height="32" viewBox="0 0 32 32">
<title>woe</title>
<path fill="#444" d="M6.655 7.329c1.431 0.402 2.818 0.965 4.111 1.699 0.909 0.511 1.77 1.105 2.582 1.758-0.99 1.571-2.074 3.114-3.484 4.34 1.931 1.683 3.423 3.826 4.534 6.123 0.057 0.139 0.148 0.268 0.183 0.415 0.002 1.002 0 2.004 0.001 3.007-0.968-0.986-2.005-1.907-3.136-2.702-2.010-1.423-4.281-2.504-6.694-3.023 0.632-3.873 1.272-7.744 1.902-11.617zM22.362 8.442c-1.327 0.627-2.569 1.425-3.712 2.344 0.991 1.571 2.074 3.114 3.484 4.341-2.025 1.766-3.565 4.033-4.695 6.457-0.037 0.070-0.021 0.15-0.024 0.226 0.001 0.954 0 1.908 0 2.861 0.67-0.671 1.358-1.325 2.099-1.917 2.254-1.815 4.893-3.192 7.731-3.809-0.632-3.873-1.271-7.744-1.902-11.617-1.022 0.29-2.023 0.655-2.981 1.114zM2.153 9.599c-0.718 4.284-1.438 8.567-2.153 12.851 2.691-0.243 5.43 0.041 8.010 0.846 0.817 0.255 1.633 0.511 2.45 0.766-0.553-0.31-1.107-0.619-1.66-0.929-0.529-0.297-1.056-0.597-1.61-0.845-1.653-0.747-3.432-1.215-5.236-1.394 0.664-3.547 1.325-7.094 1.993-10.64-0.597-0.22-1.196-0.435-1.794-0.654zM28.053 10.254c0.665 3.547 1.33 7.093 1.994 10.64-2.279 0.229-4.524 0.905-6.512 2.051-0.665 0.372-1.331 0.743-1.995 1.117 1.078-0.329 2.145-0.69 3.23-0.992 2.348-0.629 4.808-0.837 7.229-0.619-0.72-4.283-1.436-8.567-2.155-12.851-0.597 0.219-1.196 0.433-1.792 0.654zM15.304 11.885c-0.711 1.18-1.537 2.302-2.554 3.236 0.418 0.39 0.813 0.806 1.172 1.251 0.804 0.978 1.441 2.076 2.077 3.166 0.301-0.505 0.591-1.016 0.903-1.514 0.663-1.057 1.427-2.059 2.349-2.903-0.391-0.363-0.76-0.749-1.1-1.16-0.839-1-1.496-2.133-2.15-3.257-0.234 0.393-0.459 0.791-0.698 1.181z"></path>
</svg>
