<!-- Generated by IcoMoon.io -->
<svg version="1.1" xmlns="http://www.w3.org/2000/svg" width="27" height="32" viewBox="0 0 27 32">
<title>wot</title>
<path fill="#444" d="M17.639 26.521c2.491-0.347 4.897-1.408 6.726-3.153 0.443-0.423 1.146-1.167 0.751-1.848-0.006-0.010-0.005-0.019 0.002-0.028 0.302-0.371 0.579-0.759 0.833-1.164 0.008-0.013 0.024-0.017 0.038-0.012 0.653 0.277 0.768 1.052 0.621 1.667-0.252 1.052-1 2.018-1.765 2.757-2.271 2.192-5.419 3.521-8.494 4.059-3.11 0.544-6.369 0.472-9.334-0.691-2.97-1.165-5.578-3.511-6.637-6.573-0.314-0.907-0.46-1.903-0.337-2.859 0.009-0.069 0.024-0.071 0.045-0.004 0.592 1.871 1.895 3.504 3.912 3.914 2.298 0.466 4.752-0.579 6.567-1.917 2.505-1.846 4.69-4.808 4.828-8.026 0.044-1.020-0.136-1.988-0.541-2.902-0.014-0.032-0.010-0.035 0.013-0.008 1.451 1.698 2.65 3.977 2.564 6.271 0 0.003 0.001 0.004 0.004 0.005 0.004 0.001 0.007 0.001 0.009 0s0.002-0.002 0.003-0.004c0.011-0.068 0.032-0.168 0.062-0.298 0.565-2.41 0.443-5.076-0.777-7.281-1.937-3.502-5.757-4.93-9.608-4.752-0.030 0.002-0.075 0.005-0.103 0-0.001-0-0.002-0.001-0.002-0.003s0.001-0.002 0.002-0.003c3.486-0.962 7.624-1.333 10.91 0.529 2.023 1.146 3.393 3.002 3.922 5.273 0.318 1.365 0.291 2.847-0.004 4.21-0.873 4.032-3.82 7.232-7.387 9.135-1.332 0.71-2.718 1.26-4.159 1.651-0.070 0.019-0.069 0.028 0.004 0.028 0.79-0.005 1.597-0.052 2.42-0.143 0.446-0.049 0.991-0.152 1.636-0.311 3.464-0.85 6.139-2.994 8.108-5.908 1.437-2.127 2.31-4.839 1.938-7.405-0.166-1.141-0.753-2.564-1.954-2.961-0.011-0.004-0.018-0.011-0.021-0.023l-0.010-0.055c-0.002-0.012 0.003-0.018 0.015-0.019 1.844-0.118 3.042 1.2 3.598 2.816 1.411 4.1-0.114 8.492-2.812 11.649-1.504 1.76-3.369 3.215-5.399 4.274-0.087 0.046-0.151 0.078-0.191 0.095-0.002 0.001-0.004 0.002-0.005 0.004-0.003 0.005-0.001 0.010 0.004 0.013 0.002 0.001 0.004 0.001 0.006 0.001zM7.322 9.637c0.768 1.203 1.672 2.309 2.715 3.286 0.003 0.003 0.004 0.006 0.004 0.010s-0.002 0.008-0.004 0.010c-1.113 1.037-2.054 2.224-2.862 3.511-0.349 0.556-0.687 1.119-1.014 1.688-0.001 0.001-0.002 0.002-0.003 0.004-0.006 0.006-0.017 0.006-0.023-0-0.001-0.001-0.002-0.002-0.003-0.003-0.353-0.618-0.72-1.229-1.103-1.835-0.782-1.238-1.701-2.357-2.758-3.356-0.014-0.013-0.014-0.027 0-0.040 1.229-1.146 2.249-2.486 3.114-3.92 0.254-0.42 0.504-0.841 0.75-1.261 0.003-0.005 0.009-0.009 0.016-0.009s0.013 0.003 0.016 0.009c0.374 0.65 0.76 1.285 1.156 1.906z"></path>
</svg>
