<!-- Generated by IcoMoon.io -->
<svg version="1.1" xmlns="http://www.w3.org/2000/svg" width="32" height="32" viewBox="0 0 32 32">
<title>wth</title>
<path fill="#444" d="M18.133 23.306c0 0 0.39 1.424-2.391 1.424-2.784 0-2.331-1.554-2.331-1.554h-11.712l3.437-13.35 0.324-0.115-3.381 13.238c0 0 2.686-0.571 4.022-0.767 1.338-0.199 7.377-1.139 9.967 1.189 0 0 1.745-0.904 5.434-0.904s6.537 0.645 8.285 0.451l-3.213-12.273 0.453 0.194 3.214 12.468h-12.105zM5.742 9.421l0.36-0.13-3.003 12.71c0 0 3.732-0.837 6.777-0.799 3.045 0.036 4.681 0.928 4.681 0.928s-2.526-0.743-5.089-0.631c-2.563 0.11-5.213 0.618-6.959 1.026l3.232-13.105zM6.373 9.032l0.396-0.144-2.834 12.239c0 0 2.192-0.247 3.009-0.371 0.852-0.13 4.715-0.928 8.17 1.225 0 0-3.307-1.338-6.388-1.041-3.084 0.298-4.346 0.559-5.276 0.743l2.923-12.652zM7.359 8.032l0.664 0.551-2.386 11.364c0 0 1.322 0.058 3.13-0.314 1.772-0.364 4.758 0.413 6.772 2.305 0 0-3.062-2.297-7.369-1.664-1.669 0.242-3.753 0.444-3.753 0.444 0.002-0.005 2.942-12.686 2.942-12.686zM8.946 6.124c0 0 0.484 1.909 2.41 2.022 1.925 0.115 4.093-1.47 4.58 1.829 0 0-0.132 11.645-0.132 11.648 0-0.074-0.348-0.3-0.396-0.341-0.362-0.283-0.75-0.54-1.149-0.772-1.182-0.697-2.511-1.311-3.897-1.41-0.808-0.057-1.607 0.068-2.395 0.223-1.141 0.22-1.871 0.165-1.871 0.165l2.849-13.364zM16.39 9.776c0.019-0.005 0.029-0.007 0.029-0.007 0.021-0.005 1.983-0.506 3.657-0.506 0.813 0 1.511 0.18 2.125 0.336 0.686 0.177 1.278 0.328 1.808 0.165 0.374-0.115 0.753-0.263 1.069-0.398l3.477 12.453c0 0-9.059-1.554-12.167 0.775l0.002-12.818zM26.169 10.315l3.227 12.376c0 0-1.489 0-4.952-0.422-3.463-0.419-7.28 0.262-7.28 0.262s3.398-1.652 11.81-0.357l-3.357-12.117 0.552 0.259zM28.277 10.555l-1.154-0.007-0.643-0.285-0.062-0.216-0.835-0.393-0.266-0.844c0 0-0.58 0.324-1.422 0.583s-2.072-0.518-3.82-0.518c-1.746 0-3.753 0.518-3.753 0.518-0.84-2.331-1.811-2.201-4.272-1.683-2.457 0.518-3.17-2.912-3.17-2.912l-0.777 3.365-0.938-0.808-0.285 1.208-0.653 0.228-0.060 0.192-0.588 0.211-0.045 0.16-0.647 0.259-0.178 0.751h-1.072l-3.626 13.913h13.074c0 0-0.098 1.326 2.573 1.326 2.669 0 2.799-1.196 2.799-1.196h13.527l-3.71-13.851z"></path>
</svg>
