<!-- Generated by IcoMoon.io -->
<svg version="1.1" xmlns="http://www.w3.org/2000/svg" width="28" height="32" viewBox="0 0 28 32">
<title>x1e</title>
<path fill="#444" d="M28 2v28h-28v-28h28zM6.802 6.934c0 0.108 0 0.325 0 0.435 1.488 0.683 3.186 0.489 4.775 0.681-0.778 2.759-1.536 5.525-2.395 8.258-0.646 2.072-0.971 4.25-1.794 6.263-0.489 0.433-1.342 0.185-1.738 0.784 0.939 0.398 1.964-0.052 2.944-0.006 0.87-0.142 1.826 0.101 2.645-0.259-0.351-0.834-1.699 0.177-2.109-0.717-0.304-1.975 0.452-3.92 0.887-5.822 2.283-0.743 4.71-0.881 7.082-1.133 0.401 2.257 0.786 4.519 1.185 6.776-0.605 0.483-1.4 0.493-2.119 0.676 0.041 0.121 0.121 0.362 0.162 0.483 2.193-0.155 4.394-0.392 6.589-0.11 0.022-0.202 0.032-0.405 0.030-0.61-0.562-0.093-1.152-0.097-1.684-0.319-0.308-0.237-0.42-0.633-0.551-0.982-0.511-1.594-0.747-3.255-1.101-4.885-0.564-2.869-1.099-5.749-1.482-8.648 0.599-0.325 1.389-0.168 1.895-0.653-0.11-0.045-0.329-0.131-0.442-0.177-1.572 0.043-3.13 0.338-4.704 0.351-2.694 0.032-5.413 0.097-8.075-0.388zM14.92 8.026l0.874 0.011c0.422 2.022 0.618 4.088 1.081 6.104-2.083 0.159-4.165 0.383-6.259 0.291 0.56-2.122 1.116-4.245 1.682-6.367 1.457-0.014 0.583-0.004 2.622-0.039z"></path>
</svg>
