<!-- Generated by IcoMoon.io -->
<svg version="1.1" xmlns="http://www.w3.org/2000/svg" width="28" height="32" viewBox="0 0 28 32">
<title>x2e</title>
<path fill="#444" d="M28 2.323v27.354h-28v-27.354h28zM15.891 6.882c-0.815 0.063-1.591 0.31-2.364 0.554-1.223 0.37-2.264 1.325-3.601 1.282-1.282 0.136-2.462-0.607-3.741-0.454-0.028 0.194-0.054 0.388-0.080 0.582 1.010 0.433 2.509 0.118 3.097 1.271 0.495 1.284 0.37 2.699 0.48 4.047 0.181 2.081 0.209 4.17 0.196 6.259-0.026 0.454-0.007 0.991-0.373 1.327-0.864 0.668-2.102 0.245-2.994 0.805l0.093 0.291c0.816 0.151 1.618-0.203 2.43-0.248 1.643-0.241 3.265 0.22 4.859 0.558 1.523 0.33 3.125 0.345 4.629-0.084 0.834-0.222 1.678-0.603 2.203-1.314 0.689-0.915 0.855-2.122 0.771-3.235-0.252-2.044-2.042-3.593-3.974-4.053 1.307-0.687 2.709-1.734 2.841-3.33 0.241-1.9-1.275-3.618-3.030-4.116-0.791-0.179-0.315-0.103-1.441-0.14zM14.461 8.198c1.192 0.007 2.215 0.545 2.806 1.59 0.618 1.243 0.213 2.882-0.896 3.709-0.629 0.476-1.432 0.603-2.143 0.911 1.353 0.831 3.119 0.974 4.209 2.236 0.883 0.915 0.818 2.292 0.599 3.45-0.213 1.090-1.027 2.046-2.113 2.341-1.269 0.338-2.705 0.398-3.911-0.19-0.831-0.422-0.995-1.432-1.006-2.272-0.015-2.587 0.177-5.174 0.002-7.758 0.015-1.221-0.054-2.722 1.002-3.567 0.463-0.328 0.909-0.378 1.452-0.451z"></path>
</svg>
