<!-- Generated by IcoMoon.io -->
<svg version="1.1" xmlns="http://www.w3.org/2000/svg" width="26" height="32" viewBox="0 0 26 32">
<title>x2ps</title>
<path fill="#444" d="M0.013 22.304v-0.603q0.384-0.878 1.111-1.911t1.769-2.258q0.987-1.161 1.504-1.911t0.772-1.417 0.256-1.38q0-1.006-0.448-1.577t-1.225-0.571q-0.731 0-1.211 0.517t-0.699 1.632h-1.646v-2.158q1.115-0.448 1.746-0.626t1.248-0.27 1.339-0.091q1.344 0 2.194 0.361t1.23 0.978 0.379 1.44q0 0.722-0.27 1.344t-0.932 1.417-2.235 2.276q-0.704 0.686-1.316 1.385t-0.905 1.092v0.091h3.245q0.594 0 0.887-0.087t0.462-0.302 0.279-0.645h1.051l-0.17 2.64c0.168-0.041 0.328-0.104 0.484-0.176q0.207-0.106 0.309-0.296t0.13-0.481 0.029-0.735v-7.973q0-0.435-0.024-0.731t-0.125-0.481-0.309-0.301-0.574-0.208v-0.61h5.606q2.441 0 3.657 0.837c0.371 0.258 0.686 0.597 0.88 1.008 0.058-0.132 0.14-0.251 0.221-0.37q0.565-0.796 1.634-1.208t2.477-0.412v0q0.824 0 1.574 0.088t1.713 0.31v2.685h-1.268q-0.176-0.731-0.449-1.162t-0.68-0.634-1.028-0.204q-0.528 0-0.944 0.185t-0.657 0.551-0.241 0.884q0 0.537 0.208 0.93t0.699 0.768 1.426 0.856q1.139 0.592 1.791 1.162t0.963 1.241 0.31 1.56q0 1.139-0.528 1.977t-1.537 1.287-2.333 0.449q-0.944 0-1.967-0.106t-1.921-0.31v-2.852h1.268q0.231 1.102 0.773 1.643t1.588 0.542q0.546 0 0.981-0.185t0.699-0.597 0.264-1.032q0-0.574-0.213-0.995t-0.685-0.801-1.315-0.805q-0.722-0.361-1.305-0.75t-0.995-0.856c-0.185-0.212-0.352-0.441-0.48-0.691-0.177 0.409-0.082 0.224-0.275 0.559q-0.569 0.906-1.65 1.373t-2.702 0.467q-0.936 0-1.534-0.037v2.96q0 0.61 0.048 0.865t0.159 0.407 0.318 0.254 0.642 0.176v0.61h-13.526zM13.413 10.761q-0.675 0-1.042 0.018v5.207h0.83q0.965 0 1.534-0.264t0.844-0.837 0.275-1.545q0-0.962-0.275-1.531t-0.806-0.809-1.361-0.24z"></path>
</svg>
