<!-- Generated by IcoMoon.io -->
<svg version="1.1" xmlns="http://www.w3.org/2000/svg" width="28" height="32" viewBox="0 0 28 32">
<title>x2u</title>
<path fill="#444" d="M0 2.108h28v27.785h-28v-27.785zM17.877 7.163c-0.23 0.095-0.629 0.099-0.618 0.431 0.392 0.622 1.142 1.053 1.232 1.835 0.241 1.568 0.211 3.162 0.243 4.743 0 1.695 0.047 3.397-0.099 5.087-0.041 0.61-0.254 1.215-0.702 1.643-0.963 0.976-2.402 1.284-3.728 1.307-1.193 0.032-2.449-0.439-3.143-1.45-0.93-1.359-1.068-3.069-1.131-4.665-0.045-2.656 0.004-5.314 0.073-7.969-0.041-0.345 0.103-0.896-0.347-1.012-0.922-0.149-1.822 0.226-2.738 0.295-0.381 0.093-0.857 0.017-1.163 0.297-0.097 0.444 0.39 0.493 0.676 0.64 0.877 0.263 1.148 1.281 1.236 2.085 0.090 2.464-0.039 4.932 0.073 7.396 0.099 1.437 0.228 2.944 0.963 4.217 0.821 1.241 2.29 2.070 3.789 2.029 2.389-0.063 4.745-1.077 6.384-2.826 0.595 0.676 0.857 1.654 1.706 2.087 0.855 0.545 2.057 0.321 2.651-0.504-0.601-0.304-1.264-0.586-1.648-1.172-0.687-0.986-0.719-2.24-0.747-3.397-0.002-3.379-0.011-6.761 0.017-10.138-0.060-0.437 0.052-1.26-0.577-1.269-0.81-0.009-1.618 0.116-2.404 0.308z"></path>
</svg>
