<!-- Generated by IcoMoon.io -->
<svg version="1.1" xmlns="http://www.w3.org/2000/svg" width="28" height="32" viewBox="0 0 28 32">
<title>x3e</title>
<path fill="#444" d="M28 2.431v27.139h-28v-27.139h28zM15.458 6.968c-1.485 0.111-0.857 0.009-1.895 0.225-0.892 0.222-1.577 0.857-2.335 1.331-1.615 0.424-3.229-0.291-4.835-0.368 0.028 0.112 0.088 0.336 0.116 0.45 0.668 0.394 1.559 0.179 2.208 0.635 0.31 0.383 0.336 0.909 0.422 1.376 0.336 3.14 0.327 6.309 0.228 9.464-0.125 0.793-0.004 1.74-0.513 2.404-0.694 0.258-1.462 0.088-2.184 0.194-0.377 0.224-0.185 0.687 0.233 0.622 2.718-0.287 5.454-0.099 8.18-0.129 0.332 0.017 0.474-0.157 0.431-0.519-1.060-0.196-2.178 0.138-3.201-0.263-0.491-0.172-0.711-0.709-0.676-1.198 0.011-1.786-0.084-3.584 0.131-5.361 1.135 0.015 2.249 0.476 3.028 1.31 1.437 1.488 2.423 3.334 3.636 4.995 0.42 0.569 1.042 1.060 1.79 0.999 1.083-0.054 2.201 0.069 3.259-0.209-0.047-0.125-0.14-0.37-0.187-0.495-0.698 0.004-1.534 0.013-1.982-0.627-1.549-2.025-2.761-4.31-4.508-6.179 0.616-0.14 1.251-0.287 1.779-0.657 1.424-0.92 2.126-2.759 1.786-4.407-0.194-1.129-0.902-2.145-1.878-2.744-1.073-0.672-1.791-0.711-3.033-0.85zM14.377 8.349c1.248 0.113 2.292 0.707 2.893 1.82 0.562 1.215 0.666 2.819-0.213 3.911-1.073 1.307-3.158 1.4-4.551 0.592-1.193-0.793-0.946-2.395-0.967-3.629-0.054-0.956 0.228-2.126 1.236-2.481 0.556-0.215 1.020-0.208 1.602-0.213z"></path>
</svg>
