<!-- Generated by IcoMoon.io -->
<svg version="1.1" xmlns="http://www.w3.org/2000/svg" width="32" height="32" viewBox="0 0 32 32">
<title>x4ea</title>
<path fill="#444" d="M20.258 5.125l-0.144 0.249 3.662 1.41-3.677 1.411 0.714 1.235h-3.973l2.703 7.353 2.174-5.791 0.435 0.751 3.073-2.47-0.627 3.882h2.379l-4.008 9.455h7.878v4.265h-30.846v-4.265h4.892v-13.181h-4.892v-4.304h20.258zM11.885 9.429h-1.885v13.181h7.162l-5.277-13.181z"></path>
<path fill="#444" d="M25.75 1.125l2.063 0.031-0.426 4.563 3.613-2.594 1 1.781-4.063 1.719 4.063 1.875-0.969 1.844-3.603-2.6 0.572 4.569h-2.082l0.014-0.283h-0.014l0.020-0.123 0.204-4.163-3.829 2.631-1-1.719 4.313-1.969-4.188-2.063 1.162-1.656 3.567 2.781-0.416-4.625z"></path>
</svg>
