<!-- Generated by IcoMoon.io -->
<svg version="1.1" xmlns="http://www.w3.org/2000/svg" width="32" height="32" viewBox="0 0 32 32">
<title>xcle</title>
<path fill="#444" d="M22.84 2.617c0 0 1.686 0.183 1.686 1.926l6.257 1.743c0 0 1.563 0.603 1.080 2.649l-5.172 19.307c0 0-1.083 1.445-2.346 1.083l-8.344-2.295-8.346 2.295c-1.263 0.363-2.346-1.083-2.346-1.083l-5.174-19.307c-0.48-2.046 1.083-2.649 1.083-2.649l6.257-1.743c0-1.743 1.683-1.926 1.683-1.926h13.681zM22.786 3.34h-13.572c-0.077 0.014-0.32 0.068-0.546 0.22-0.323 0.214-0.471 0.525-0.471 0.982v0.549c0 0-6.638 1.852-6.735 1.878-0.175 0.080-0.695 0.394-0.695 1.225 0 0.169 0.023 0.358 0.072 0.572 0.009 0.031 5.046 18.833 5.129 19.135 0.219 0.252 0.874 0.906 1.492 0.731l8.543-2.352 8.541 2.352c0.617 0.174 1.269-0.48 1.491-0.731 0.083-0.303 5.12-19.104 5.129-19.135 0.048-0.214 0.072-0.403 0.072-0.572 0-0.831-0.523-1.146-0.695-1.225-0.097-0.026-6.738-1.878-6.738-1.878l-0-0.549c0-0.457-0.148-0.769-0.468-0.982-0.226-0.152-0.469-0.206-0.549-0.22h-0zM8.053 6.051v18.566c0 0 0.157 1.206 1.123 1.206h5.212l-6.978 1.923c0 0-0.4 0.2-0.603-0.24l-5.132-19.050c0 0-0.203-0.601 0.28-0.76l6.098-1.646zM23.952 6.011l6.092 1.646c0.483 0.16 0.282 0.76 0.282 0.76l-5.134 19.050c-0.198 0.44-0.6 0.24-0.6 0.24l-6.978-1.926h5.214c0.96 0 1.124-1.203 1.124-1.203v-18.567zM22.729 4.208c0.28 0 0.32 0.36 0.32 0.36v19.97c0 0.32-0.32 0.4-0.32 0.4h-13.433c-0.282 0-0.282-0.4-0.282-0.4v-19.97c0-0.24 0.282-0.36 0.282-0.36h13.433zM17.613 6.679c-0.12 0.007-0.070-0.004-0.151 0.019q-0.322 0.161-0.506 0.472t-0.334 0.713q-0.069-0.035-0.316-0.075t-0.564-0.075-0.633-0.058-0.5-0.023q-0.828 0-1.622 0.276t-1.427 0.805-1.018 1.312-0.385 1.795q0 1.105 0.351 1.893t0.92 1.289 1.306 0.736 1.507 0.236q0.196 0 0.431-0.012l0.121-0.005-0.045 0.095q-0.367 0.829-0.367 1.976 0 0.824 0.267 1.509t0.779 1.175 1.258 0.768 1.715 0.278q0.245 0 0.568-0.017t0.646-0.045 0.607-0.045 0.451-0.017q0.2 0 0.262 0.173t0.084 0.328q0.022 0.1 0.106 0.106t0.195-0.039q-0.056-0.189-0.078-0.468t-0.022-0.568q0-0.356 0.056-0.635 0.033-0.145 0.067-0.267 0-0.056-0.061-0.089t-0.106-0.033q-0.011 0-0.045 0.033-0.067 0.156-0.239 0.356t-0.451 0.384-0.679 0.312-0.924 0.128q-0.546 0-0.963-0.167t-0.718-0.451-0.501-0.646-0.323-0.752-0.173-0.779-0.050-0.724q0.189-0.011 0.651-0.022t1.219-0.011q0.401 0 0.746 0.011t0.618 0.061 0.445 0.15 0.217 0.278q0.022 0.078 0.128 0.122t0.128-0.067q0-0.278 0.045-0.534t0.111-0.468 0.122-0.373 0.078-0.262q-0.033-0.045-0.117-0.056t-0.128 0.056q-0.089 0.089-0.301 0.167t-0.501 0.139-0.635 0.095-0.701 0.033q-0.156 0.011-0.468 0.006t-0.646-0.017-0.618-0.033-0.373-0.045q0.033-0.59 0.212-1.141t0.479-0.98 0.713-0.69 0.913-0.262q0.445 0 0.802 0.117t0.612 0.295 0.412 0.373 0.212 0.351q0.045 0.156 0.161 0.161t0.139-0.084q0.045-0.334 0.106-0.601t0.117-0.412q0.134-0.479 0.306-0.818t0.429-0.54q0.156-0.111 0.078-0.178t-0.267-0.122q-0.156 0-0.267 0.206t-0.195 0.445-0.139 0.44-0.111 0.189q-0.089-0.022-0.301-0.050t-0.49-0.056-0.59-0.045-0.579-0.017q-0.891 0-1.704 0.251t-1.436 0.785c-0.294 0.267-0.568 0.563-0.755 0.917-0.372 0.061-0.204 0.047-0.502 0.059q-0.587 0-1.082-0.282t-0.851-0.823-0.558-1.317-0.201-1.778q0-0.725 0.161-1.358t0.466-1.093 0.748-0.725 1.007-0.265q0.529 0 0.915 0.138t0.644 0.368 0.403 0.518 0.19 0.575q0.092 0.069 0.161 0.069 0.046 0 0.092-0.040t0.046-0.098q0-0.104 0.011-0.253t0.035-0.311 0.052-0.328 0.052-0.293q0.046-0.265 0.132-0.524t0.201-0.46 0.247-0.328 0.27-0.127q0.046 0 0.075-0.023t0.086-0.127q0-0.092-0.115-0.115l-0.056-0.008z"></path>
</svg>
