<!-- Generated by IcoMoon.io -->
<svg version="1.1" xmlns="http://www.w3.org/2000/svg" width="32" height="32" viewBox="0 0 32 32">
<title>xduels</title>
<path fill="#444" d="M29.291 2.468c0 0 2.733 8.023 2.639 13.338 0.025 5.83-2.706 13.717-2.706 13.717l-26.443 0.010c0 0-2.741-6.344-2.712-13.202s2.648-13.852 2.648-13.852l26.575-0.010zM28.166 4.011l-24.348 0.010-0.046 0.143c-0.3 0.933-0.601 1.972-0.882 3.089-0.753 2.991-1.222 5.965-1.273 8.714-0.002 0.124-0.004 0.247-0.004 0.37-0.012 2.855 0.476 5.851 1.299 8.789 0.285 1.019 0.591 1.957 0.896 2.789l0.028 0.075 24.269-0.010 0.069-0.223c0.31-1.005 0.62-2.101 0.909-3.247 0.448-1.777 0.804-3.509 1.031-5.124 0.184-1.31 0.279-2.51 0.275-3.573l-0-0.017 0-0.017c0.020-1.153-0.105-2.535-0.359-4.092-0.221-1.357-0.533-2.806-0.912-4.298-0.282-1.113-0.585-2.185-0.888-3.174l-0.062-0.202zM14.642 5.774v0.001l12.070 0.045c0 0 2.035 5.002 1.865 10.004-0.21 6.186-1.78 10.343-1.78 10.343l-21.67-0.018c0 0-1.628-5.059-1.713-10.315s2.078-10.059 2.078-10.059l9.15-0zM16.187 8.12h-6.188v0.099l4.034 2.473v0.088h-2.792v12.244l-1.242 0.769v0.088h6.188q3.506 0 5.49-2.061t1.984-5.82q0-2.341-0.896-4.122t-2.594-2.77-3.984-0.989zM16.187 9.592q1.934 0 2.847 1.522t0.912 4.885q0 3.242-0.923 4.831t-2.836 1.588h-1.572v-12.826h1.572z"></path>
</svg>
