<!-- Generated by IcoMoon.io -->
<svg version="1.1" xmlns="http://www.w3.org/2000/svg" width="32" height="32" viewBox="0 0 32 32">
<title>xice</title>
<path fill="#444" d="M22.84 2.617c0 0 1.686 0.183 1.686 1.926l6.257 1.743c0 0 1.563 0.603 1.080 2.649l-5.172 19.307c0 0-1.083 1.445-2.346 1.083l-8.344-2.295-8.346 2.295c-1.263 0.363-2.346-1.083-2.346-1.083l-5.174-19.307c-0.48-2.046 1.083-2.649 1.083-2.649l6.257-1.743c0-1.743 1.683-1.926 1.683-1.926h13.681zM22.786 3.34h-13.572c-0.077 0.014-0.32 0.068-0.546 0.22-0.323 0.214-0.471 0.525-0.471 0.982v0.549c0 0-6.638 1.852-6.735 1.878-0.175 0.080-0.695 0.394-0.695 1.225 0 0.169 0.023 0.358 0.072 0.572 0.009 0.031 5.046 18.833 5.129 19.135 0.219 0.252 0.874 0.906 1.492 0.731l8.543-2.352 8.541 2.352c0.617 0.174 1.269-0.48 1.491-0.731 0.083-0.303 5.12-19.104 5.129-19.135 0.048-0.214 0.072-0.403 0.072-0.572 0-0.831-0.523-1.146-0.695-1.225-0.097-0.026-6.738-1.878-6.738-1.878l-0-0.549c0-0.457-0.148-0.769-0.468-0.982-0.226-0.152-0.469-0.206-0.549-0.22h-0zM8.053 6.086v18.566c0 0 0.157 1.206 1.123 1.206h5.212l-6.978 1.923c0 0-0.4 0.2-0.603-0.24l-5.132-19.050c0 0-0.203-0.601 0.28-0.76l6.098-1.646zM23.952 6.046l6.092 1.646c0.483 0.16 0.282 0.76 0.282 0.76l-5.134 19.050c-0.198 0.44-0.6 0.24-0.6 0.24l-6.977-1.926h5.214c0.96 0 1.124-1.203 1.124-1.203v-18.567zM22.729 4.243c0.28 0 0.32 0.36 0.32 0.36v19.97c0 0.32-0.32 0.4-0.32 0.4h-13.433c-0.282 0-0.282-0.4-0.282-0.4v-19.97c0-0.24 0.282-0.36 0.282-0.36h13.433zM15.197 6.848c-0.18 0.021-0.362 0.033-0.543 0.046q-0.427 0.028-1.031 0.028-0.923 0-1.419-0.040t-0.587-0.040q-0.068 0-0.125 0.040t-0.057 0.154q0 0.103 0.057 0.12t0.137 0.028q0.103 0.011 0.331 0t0.399 0.011q0.239 0.023 0.331 0.142t0.103 0.484q0 0.068 0.006 0.222t0.011 0.439 0.011 0.724 0.006 1.088q0 0.593-0.034 1.288t-0.091 1.328-0.131 1.106-0.142 0.61q-0.057 0.091-0.342 0.148t-0.764 0.057q-0.080 0-0.125 0.051t-0.046 0.097q0 0.057 0.040 0.12t0.097 0.063l0.182-0.023q0.114-0.011 0.325-0.028t0.45-0.023 0.49-0.011 0.456-0.006h0.068q0.536 0 0.9 0.011t0.604 0.028 0.376 0.028c0.058 0.005 0.116 0.010 0.174 0.011-0.245 0.266-0.408 0.603-0.564 0.925q-0.366 0.826-0.366 1.968 0 0.82 0.266 1.502t0.776 1.17 1.253 0.765 1.707 0.277q0.244 0 0.565-0.017t0.643-0.044 0.604-0.044 0.449-0.017q0.2 0 0.261 0.172t0.083 0.327q0.022 0.1 0.105 0.105t0.194-0.039q-0.055-0.188-0.078-0.466t-0.022-0.565q0-0.355 0.055-0.632 0.033-0.144 0.067-0.266 0-0.055-0.061-0.089t-0.105-0.033q-0.011 0-0.044 0.033-0.067 0.155-0.238 0.355t-0.449 0.382-0.676 0.31-0.92 0.127q-0.543 0-0.959-0.166t-0.715-0.449-0.499-0.643-0.322-0.748-0.172-0.776-0.050-0.721q0.188-0.011 0.649-0.022t1.214-0.011q0.399 0 0.743 0.011t0.615 0.061 0.443 0.15 0.216 0.277q0.022 0.078 0.127 0.122t0.127-0.067q0-0.277 0.044-0.532t0.111-0.466 0.122-0.371 0.078-0.261q-0.033-0.044-0.116-0.055t-0.127 0.055q-0.089 0.089-0.299 0.166t-0.499 0.139-0.632 0.094-0.698 0.033q-0.155 0.011-0.466 0.006t-0.643-0.017-0.615-0.033-0.371-0.044q0.033-0.588 0.211-1.136t0.477-0.976 0.709-0.687 0.909-0.261q0.443 0 0.798 0.116t0.61 0.294 0.41 0.371 0.211 0.349q0.044 0.155 0.161 0.161t0.139-0.083q0.044-0.333 0.105-0.599t0.116-0.41q0.133-0.477 0.305-0.815t0.427-0.538q0.155-0.111 0.078-0.177t-0.266-0.122q-0.155 0-0.266 0.205t-0.194 0.443-0.139 0.438-0.111 0.188q-0.089-0.022-0.299-0.050t-0.488-0.055-0.588-0.044-0.576-0.017q-0.887 0-1.696 0.249t-1.43 0.782c-0.050 0.046-0.101 0.092-0.151 0.138-0 0-0 0-0.001 0.001l-0.012-0.012q-0.034-0.023-0.16-0.023-0.148 0-0.325-0.011t-0.348-0.040-0.296-0.057-0.171-0.063q-0.068-0.057-0.103-0.445t-0.051-0.918-0.011-1.105 0.017-1.009q0.011-0.57 0.046-1.242t0.074-1.254 0.091-0.974 0.108-0.416q0.046-0.011 0.137-0.034t0.199-0.034 0.222-0.023 0.205-0.011q0.262-0.023 0.262-0.217 0-0.091-0.074-0.108c-0.101-0.017-0.050-0.011-0.154-0.017l-0.044 0.006z"></path>
</svg>
