<!-- Generated by IcoMoon.io -->
<svg version="1.1" xmlns="http://www.w3.org/2000/svg" width="28" height="32" viewBox="0 0 28 32">
<title>mid</title>
<path fill="#444" d="M17.694 19.067c-2.756 3.105-2.428 6.056 0.985 8.853-1.817 0.12-2.984-0.524-3.501-1.933-0.717 0.119-1.236 0.662-1.557 1.628-0.582-1.25-0.399-2.349 0.548-3.296-1.404-0.182-2.609 0.27-3.615 1.356-0.022-1.105 0.655-2.142 2.030-3.111-0.691-0.087-1.294-0-1.811 0.261 1.666-2.152 3.973-3.405 6.921-3.758zM15.151 3.733c-6.458 0-11.694 5.235-11.694 11.694 0 0.187 0.004 0.373 0.013 0.558 0.957-0.218 2.021-0.239 3.194-0.062 0.358-0.936 0.537-1.404 0.537-1.404 1.36-1.32 2.646-2.373 3.855-3.156 0.74-0.049 1.55-0.049 2.431 0 2.015-1.996 3.867-3.453 5.557-4.371l1.081 1.811c0.403 0.614 0.403 1.105 0 1.474 0.527 0.578 0.641 1.335 0.344 2.273-0.144-0.586-0.468-0.999-0.972-1.238 0.182 0.781 0.11 1.44-0.218 1.978-0.241-0.63-0.629-1.059-1.166-1.286 0.085 1.315-0.142 2.121-0.68 2.417-0.11-0.305-0.314-0.504-0.612-0.595-0.313-0.051-0.671-0.029-0.943 0.241-0.78 0.757-0.465 1.916-0.030 2.191 0.382 0.306 0.852 0.366 1.408 0.18 0.528-0.12 0.734-0.787 0.764-1.267 0.457 0.408 0.646 0.841 0.564 1.302 0.665-0.41 1.023-1.087 1.075-2.030 0.37 0.389 0.482 0.906 0.335 1.551 0.635-0.329 1.017-1.032 1.146-2.109 1.099 1.54 1.469 3.066 1.109 4.579-0.427-0.624-1.035-0.687-1.821-0.19-1.168 0.738-2.611 1.951-2.984 4.273l-0.011 0.071c-0.185 1.624 1.142 3.198 3.704 2.595 0.247-0.055 0.572-0.149 0.957-0.376 2.881-2.13 4.749-5.551 4.749-9.409 0-6.458-5.235-11.694-11.694-11.694zM13.065 12.246c-1.062 0.52-1.789 0.612-2.181 0.277-0.65 0.281-0.954 0.748-0.913 1.401 0.408-0.526 1.143-0.681 2.205-0.465 0.532-0.292 0.828-0.697 0.89-1.214z"></path>
</svg>
