<!-- Generated by IcoMoon.io -->
<svg version="1.1" xmlns="http://www.w3.org/2000/svg" width="28" height="32" viewBox="0 0 28 32">
<title>mid-border</title>
<path fill="#444" d="M15.151 3.078c6.82 0 12.349 5.529 12.349 12.349 0 5.395-3.46 9.982-8.281 11.663 0.008 0.009 0.016 0.019 0.024 0.029 0.528 0.648 1.177 1.038 1.947 1.169-2.838 1.028-4.917 0.666-6.238-1.084-0.6 0.365-0.9 0.938-0.9 1.719-1.209-0.563-1.692-1.775-1.449-3.638 0 0-0.448 0.19-1.749 1.489-0.868 0.866-2.156 1.178-3.865 0.935 1.68-0.772 2.549-1.982 2.605-3.632-1.328 0.283-0.797 0.481-2.547 1.733-1.167 0.834-2.588 1.022-4.265 0.563 1.214-0.749 1.795-1.619 1.745-2.612-0.95 0.609-1.846 0.714-2.686 0.317 0 0 0-0 0-0l0.007-0.004c0.122-0.061 1.66-0.85 2.199-2.058 0.371-0.831 1.206-1.264 2.506-1.3l0.040-0.001-0.508-0.567c-1.084 0.427-2.739 0.491-3.36-0.468-0.41-0.633-1.304-1.132-2.681-1.498l-0.042-0.011c0.782-0.959 1.723-1.627 2.825-2.003-0.014-0.245-0.022-0.492-0.022-0.741 0-6.82 5.529-12.349 12.349-12.349zM17.694 19.067c-2.948 0.353-5.254 1.606-6.921 3.758 0.517-0.261 1.12-0.349 1.811-0.261-1.376 0.97-2.053 2.007-2.030 3.111 1.006-1.086 2.21-1.538 3.615-1.356-0.948 0.947-1.13 2.046-0.548 3.296 0.321-0.966 0.84-1.509 1.557-1.628 0.517 1.408 1.684 2.053 3.501 1.933-3.412-2.797-3.74-5.748-0.985-8.853zM15.151 3.733c-6.458 0-11.694 5.235-11.694 11.694 0 0.187 0.004 0.373 0.013 0.558 0.957-0.218 2.021-0.239 3.194-0.062 0.358-0.936 0.537-1.404 0.537-1.404 1.36-1.32 2.646-2.373 3.855-3.156 0.74-0.049 1.55-0.049 2.431 0 2.015-1.996 3.867-3.453 5.558-4.371l1.080 1.811c0.403 0.614 0.403 1.105 0 1.474 0.527 0.578 0.641 1.335 0.344 2.273-0.144-0.586-0.468-0.999-0.972-1.238 0.182 0.781 0.11 1.44-0.218 1.978-0.241-0.63-0.629-1.059-1.166-1.286 0.085 1.315-0.142 2.121-0.68 2.417-0.11-0.305-0.314-0.504-0.612-0.595-0.313-0.051-0.671-0.029-0.943 0.241-0.78 0.757-0.465 1.916-0.030 2.191 0.382 0.306 0.852 0.366 1.408 0.18 0.528-0.12 0.734-0.787 0.764-1.267 0.457 0.408 0.646 0.841 0.564 1.302 0.665-0.41 1.023-1.087 1.075-2.030 0.37 0.389 0.482 0.906 0.335 1.551 0.635-0.329 1.017-1.032 1.146-2.109 1.099 1.54 1.469 3.066 1.109 4.579-0.427-0.624-1.035-0.687-1.821-0.19-1.168 0.738-2.611 1.951-2.984 4.273l-0.011 0.071c-0.185 1.624 1.142 3.198 3.704 2.595 0.247-0.055 0.572-0.149 0.957-0.376 2.881-2.13 4.749-5.551 4.749-9.409 0-6.458-5.235-11.694-11.694-11.694zM13.065 12.246c-1.062 0.52-1.789 0.612-2.181 0.277-0.65 0.281-0.954 0.748-0.913 1.401 0.408-0.526 1.143-0.681 2.205-0.465 0.532-0.292 0.828-0.697 0.89-1.214z"></path>
</svg>
