<!-- Generated by IcoMoon.io -->
<svg version="1.1" xmlns="http://www.w3.org/2000/svg" width="25" height="32" viewBox="0 0 25 32">
<title>xkld</title>
<path fill="#444" d="M12.5 29.348c-1.218-0.023-2.377-0.535-3.312-1.212 0.003-0.008-0.014-0.001-0.008-0.008 0.411-0.472 0.801-0.93 1.117-1.45-0.284-0.163-0.571-0.323-0.857-0.48 0.002-0.006-0.009-0-0.005-0.006 0.307-0.436 0.618-0.905 0.856-1.392 0.519-1.073 0.906-2.236 0.892-3.439-0.021-6.016 0.018 5.946-0.001-4.564l-0.009-1.52h-0.012v-0l-0 0h-0.891c-0.016-0.001-0.006-0.001-0.028 0-1.443-0.012-1.437-0.001-1.475 0-0.209 0.095-0.111 0.046-0.368 0.21-1.074 0.728-1.882 1.811-2.527 2.919h-0c-1.219-1.926-1.728-4.269-1.569-6.567 0.040-0.58 0.141-1.163 0.224-1.705 0.004-0.025 0.018-0.061 0.018-0.087-0.409 0.494-0.568 1.201-0.676 1.816-0.173 1.19-0.17 2.408 0.015 3.597 0.434 1.911 1.223 3.817 2.646 5.206 0.174 0.194 0.327 0.355 0.545 0.578 0.031 0.032 0.126 0.114 0.142 0.157-0.004 0.027 0.017-0.017 0.007 0.008-0.202 0.508-0.623 1.013-0.936 1.436-0.594 0.674-1.225 1.365-2.051 1.756-0.136-0.83-0.176-1.681-0.443-2.483-0.315-1.082-0.875-2.078-1.558-2.968-0.412-0.532-1.117-1.181-1.601-1.647l-0.018-0.012c-0.074-0.18-0.034-0.104-0.127-0.392-0.319-1.069-0.488-2.675-0.488-4.583 0-2.009 0.228-3.774 0.571-4.794 1.356-1.9 3.397-3.799 5.49-4.857 0.2-0.099 0.411-0.167 0.629-0.214v0l-0.431 2.821-0-0-0.23 1.483 2.704 2.962h2.178c0.006-0.079 0.015-0.252 0.021-0.331 0-0.001 0-0.001 0-0.002 0.104-1.43 0.556-2.823 1.568-3.861 1.012 1.038 1.464 2.431 1.568 3.861l0 0.002c0.006 0.079 0.015 0.252 0.021 0.331h2.178l2.704-2.962-0.23-1.483-0 0-0.431-2.821c0.428 0.116 0.218 0.045 0.629 0.214 2.093 1.059 4.135 2.957 5.49 4.857 0.343 1.020 0.571 2.785 0.571 4.794 0 1.908-0.169 3.514-0.488 4.583-0.093 0.288-0.052 0.212-0.127 0.392l-0.018 0.012c-0.485 0.466-1.189 1.115-1.601 1.647-0.683 0.89-1.243 1.886-1.558 2.968-0.267 0.802-0.307 1.652-0.443 2.483-0.826-0.391-1.457-1.082-2.051-1.756-0.313-0.423-0.734-0.928-0.936-1.436-0.010-0.025 0.011 0.019 0.007-0.008 0.015-0.043 0.11-0.125 0.142-0.157 0.218-0.223 0.371-0.384 0.545-0.578 1.423-1.389 2.212-3.295 2.646-5.206 0.186-1.189 0.189-2.406 0.015-3.597-0.108-0.614-0.267-1.321-0.676-1.816-0 0.026 0.014 0.061 0.018 0.087 0.082 0.542 0.184 1.124 0.224 1.704 0.159 2.298-0.351 4.641-1.569 6.567h-0c-0.645-1.108-1.454-2.192-2.527-2.919-0.257-0.164-0.159-0.115-0.368-0.21-0.037-0.001-0.032-0.012-1.474 0-0.021-0.001-0.012-0.001-0.028 0h-0.904l-0.009 1.52c-0.019 10.51 0.020-1.452-0.001 4.564-0.014 1.203 0.373 2.366 0.892 3.439 0.237 0.487 0.549 0.956 0.856 1.392 0.004 0.005-0.007-0-0.005 0.006-0.287 0.157-0.573 0.318-0.857 0.48 0.316 0.519 0.706 0.977 1.117 1.45 0.006 0.007-0.011-0-0.008 0.008-0.935 0.676-2.094 1.189-3.312 1.212v0z"></path>
</svg>
