<!-- Generated by IcoMoon.io -->
<svg version="1.1" xmlns="http://www.w3.org/2000/svg" width="32" height="32" viewBox="0 0 32 32">
<title>xln</title>
<path fill="#444" d="M15.738 0.016c0.186-0.005 0.372-0.010 0.558-0.016 0.353 2.029 0.583 4.078 0.904 6.112 1.619 0.196 3.171 0.8 4.526 1.705 1.174-0.333 2.345-0.68 3.519-1.016-0.326 1.131-0.668 2.26-0.991 3.393-0.064 0.157 0.083 0.292 0.145 0.424 0.836 1.266 1.329 2.734 1.526 4.234 2.021 0.293 4.042 0.591 6.063 0.888 0.001 0.187 0.004 0.376 0.008 0.566-2.024 0.338-4.064 0.573-6.091 0.896-0.192 1.622-0.823 3.164-1.729 4.517 0.343 1.184 0.703 2.364 1.033 3.552-1.206-0.336-2.399-0.717-3.606-1.050-1.325 0.898-2.864 1.431-4.443 1.648-0.295 2.039-0.588 4.079-0.888 6.119-0.19 0.004-0.38 0.008-0.568 0.013-0.31-1.947-0.563-3.905-0.849-5.857-0.034-0.121-0.026-0.339-0.206-0.332-1.52-0.201-2.958-0.802-4.24-1.631-1.223 0.357-2.444 0.724-3.67 1.071 0.331-1.191 0.704-2.369 1.038-3.558 0.070-0.17-0.085-0.316-0.152-0.456-0.772-1.218-1.258-2.614-1.428-4.046-2.054-0.347-4.125-0.602-6.184-0.918-0.004-0.19-0.006-0.381-0.010-0.569 2.059-0.338 4.136-0.567 6.193-0.916 0.167-1.569 0.769-3.061 1.614-4.384-0.343-1.216-0.703-2.426-1.051-3.639 1.209 0.348 2.413 0.72 3.626 1.053 1.328-0.92 2.874-1.473 4.464-1.716 0.288-2.030 0.591-4.057 0.888-6.086zM14.241 8.463c-1.046 0.25-2.035 0.728-2.891 1.379-0.17 0.117-0.329 0.313-0.277 0.533 0.058 0.245 0.303 0.366 0.483 0.515 0.734 0.524 1.44 1.090 2.181 1.604 0.272 0.187 0.676-0.023 0.691-0.35 0.172-1.053 0.317-2.112 0.469-3.168 0.081-0.361-0.327-0.66-0.656-0.514zM17.493 8.417c-0.264 0.057-0.427 0.337-0.357 0.596 0.136 1.007 0.283 2.013 0.429 3.017 0.014 0.233 0.142 0.5 0.401 0.528 0.244 0.048 0.429-0.147 0.615-0.268 0.737-0.563 1.5-1.090 2.229-1.663 0.275-0.181 0.228-0.616-0.050-0.771-0.95-0.723-2.077-1.282-3.266-1.439zM10.196 11.069c-0.238 0.085-0.362 0.322-0.505 0.512-0.558 0.826-0.989 1.751-1.185 2.732-0.093 0.303 0.202 0.627 0.512 0.562 1.043-0.141 2.088-0.282 3.128-0.448 0.382-0.010 0.556-0.51 0.302-0.777-0.543-0.754-1.105-1.495-1.652-2.245-0.134-0.192-0.338-0.405-0.598-0.336zM21.523 11.072c-0.608 0.664-1.085 1.443-1.648 2.147-0.179 0.28-0.526 0.549-0.411 0.92 0.111 0.292 0.451 0.3 0.712 0.347 0.974 0.132 1.946 0.294 2.922 0.42 0.317 0.059 0.603-0.285 0.499-0.59-0.239-1.116-0.74-2.182-1.448-3.078-0.133-0.206-0.406-0.278-0.625-0.167zM8.834 17.113c-0.238 0.080-0.401 0.333-0.319 0.583 0.234 1.087 0.725 2.125 1.412 3 0.16 0.253 0.562 0.288 0.739 0.037 0.556-0.705 1.070-1.442 1.617-2.154 0.147-0.209 0.373-0.446 0.254-0.722-0.104-0.341-0.532-0.294-0.812-0.363-0.964-0.108-1.922-0.324-2.89-0.381zM22.026 17.27c-0.756 0.122-1.519 0.192-2.269 0.341-0.328 0.064-0.433 0.513-0.214 0.748 0.581 0.801 1.173 1.594 1.768 2.386 0.171 0.317 0.649 0.316 0.823 0.003 0.727-0.952 1.32-2.077 1.462-3.274-0.262-0.642-1.065-0.202-1.57-0.204zM13.731 19.491c-0.748 0.512-1.455 1.080-2.193 1.605-0.197 0.158-0.484 0.316-0.47 0.607 0.023 0.255 0.264 0.401 0.446 0.544 0.836 0.592 1.783 1.045 2.786 1.261 0.312 0.106 0.645-0.207 0.576-0.523-0.145-1.048-0.285-2.098-0.451-3.143-0.009-0.329-0.425-0.546-0.694-0.352zM17.763 19.509c-0.199 0.102-0.187 0.368-0.238 0.557-0.137 0.969-0.283 1.939-0.419 2.909-0.093 0.332 0.248 0.681 0.582 0.563 1.104-0.235 2.156-0.722 3.049-1.411 0.259-0.155 0.311-0.552 0.059-0.738-0.774-0.61-1.58-1.18-2.366-1.776-0.181-0.158-0.45-0.251-0.668-0.104z"></path>
</svg>
