<!-- Generated by IcoMoon.io -->
<svg version="1.1" xmlns="http://www.w3.org/2000/svg" width="32" height="32" viewBox="0 0 32 32">
<title>xmods</title>
<path fill="#444" d="M12.018 21.423l3.982 3.982 3.905-3.905 3.279 3.279-7.184 7.184-7.261-7.261 3.279-3.279zM24.702 8.739l-3.279 3.279 3.982 3.982-3.905 3.905 3.279 3.279 7.184-7.184-7.261-7.261zM7.221 8.816l-7.184 7.184 7.107 7.107 3.279-3.279-3.828-3.828 3.905-3.905-3.279-3.279zM15.961 9.032l-6.969 6.968 6.968 6.968 6.968-6.968-6.968-6.968zM16 0.037c-0.175 0.017-7.184 7.184-7.184 7.184l3.279 3.279 3.905-3.905 3.828 3.828 3.279-3.279c0 0-6.932-7.125-7.107-7.107z"></path>
</svg>
