<!-- Generated by IcoMoon.io -->
<svg version="1.1" xmlns="http://www.w3.org/2000/svg" width="22" height="32" viewBox="0 0 22 32">
<title>xrin</title>
<path fill="#444" d="M0.988 1.317c0.861 1.813 2.43 2.406 2.43 2.406 1.799-0.898 3.795-1.373 5.86-1.373 7.254 0 13.156 5.901 13.156 13.155 0 3.51-1.369 6.81-3.856 9.296-1.426 1.427-3.119 2.483-4.963 3.126 0 0-1.167 2.227-2.6 2.755 0 0 0.478-1.672-0.047-3.344l-1.767-2.578c-5.084-0.071-9.182-4.212-9.182-9.309 0-2.564 1.034-4.885 2.712-6.568l-0.741-3.556c-2.194-1.383-1.003-4.010-1.003-4.010zM9.278 4.641c-1.803 0-3.509 0.444-5.010 1.225l0.309 1.571c1.38-0.804 2.988-1.269 4.7-1.269 5.158 0 9.337 4.179 9.337 9.337 0 4.257-2.849 7.847-6.746 8.97l0.811 1.346c4.33-1.43 7.463-5.514 7.463-10.316 0-5.992-4.873-10.864-10.865-10.864zM13.273 11.192l-0.29 0.167-1.279 1.575 0.125 0.217 1.196-0.047 1.533 2.655q0.355 0.615 0.325 0.995t-0.484 0.625l-0.030 0.017-0.003-0.006q-0.072 0.042-0.118 0.060t-0.101 0.034q-0.043 0.009-0.080 0.014t-0.099 0.009q-0.143 0.002-0.265 0t-0.241-0.014q-0.152-0.041-0.345-0.082t-0.421-0.103q-0.4-0.107-0.654-0.185t-0.376-0.121l-1.778-0.599q-0.357-0.116-0.608-0.204t-0.38-0.143q-0.057-0.015-0.099-0.032t-0.073-0.014q0 0-0.010-0.003t-0.009-0.003q-0.038-0.010-0.067-0.018t-0.079-0.011q0.136-0.127 0.243-0.221t0.189-0.174q0.059-0.066 0.12-0.126t0.101-0.131q0.071-0.073 0.134-0.158t0.132-0.189q0.385-0.56 0.417-1.214t-0.288-1.209q-0.334-0.579-0.948-0.876t-1.313-0.199q-0.508 0.068-1.041 0.287t-1.397 0.702l-3.548 2.048 0.265 0.459 0.104-0.044q0.615-0.355 1.050-0.188t0.866 0.916l2.627 4.549q0.439 0.76 0.367 1.22t-0.695 0.803l-0.097 0.056 0.265 0.459 3.765-2.174-0.265-0.459-0.15 0.103q-0.615 0.355-1.050 0.188t-0.88-0.94l-1.177-2.039 0.357-0.19q0.205-0.118 0.364-0.178t0.247-0.046q0.169 0.015 0.536 0.133t0.96 0.339l1.823 0.733q0.499 0.195 0.865 0.313t0.626 0.178q0.374 0.090 0.743 0.005t0.78-0.321l0.965-0.557-0.004-0.006 2.612-1.508-0.251-0.434-0.041 0.040q-0.362 0.209-0.695 0.023t-0.681-0.789l-2.292-3.97zM6.603 12.597c0.087 0.006 0.175 0.006 0.261 0.018 0.215 0.031 0.422 0.104 0.611 0.21q0.465 0.262 0.758 0.769 0.279 0.483 0.273 0.961t-0.306 0.877q-0.058 0.066-0.111 0.128t-0.099 0.121q-0.182 0.186-0.443 0.361t-0.835 0.49l-0.652 0.376-1.916-3.318 0.671-0.371q0.446-0.258 0.704-0.383t0.517-0.178q0.098-0.025 0.204-0.037t0.23-0.020l0.134-0.005zM11.448 8.594c-0.132 0.019-0.237 0.034-0.354 0.107q-0.265 0.153-0.351 0.452t0.068 0.564l0.007 0.012q0.153 0.265 0.461 0.353t0.573-0.066q0.277-0.16 0.35-0.467t-0.081-0.573q-0.16-0.278-0.455-0.357c-0.121-0.026-0.048-0.014-0.219-0.026z"></path>
</svg>
