<!-- Generated by IcoMoon.io -->
<svg version="1.1" xmlns="http://www.w3.org/2000/svg" width="32" height="32" viewBox="0 0 32 32">
<title>y22</title>
<path fill="#444" d="M30.097 9.367c0.489 0.832 0.904 1.709 1.222 2.621 0.358 1.028 0.585 2.102 0.656 3.188 0.079 1.152-0.026 2.313-0.283 3.437-0.324 1.411-0.887 2.76-1.595 4.020-2.638-0-5.277 0-7.915-0-0.398-0.002-0.8 0.017-1.192-0.064-0.595-0.108-1.154-0.388-1.604-0.792-0.599-0.525-1.014-1.223-1.336-1.944-1.211-2.613-2.422-5.226-3.633-7.839-0.189-0.354-0.294-0.751-0.301-1.152-0.014-0.507 0.115-1.008 0.304-1.476 5.226 0 10.451 0 15.677 0zM21.135 10.207q-0.756 0-1.414 0.28t-1.139 0.743l1.383 1.749 0.037-0.043q-0.098-0.262-0.098-0.634 0-0.591 0.292-0.999t0.865-0.408q0.494 0 0.816 0.347t0.323 1.024q0 1.176-1.002 2.824t-2.922 3.927l0.030 0.049h5.703v-2.681h-0.055l-0.622 1.359-0.037 0.012h-3.071q0.463-0.548 1.014-1.143t0.92-0.972 0.75-0.816 0.6-0.78 0.36-0.749 0.14-0.841-0.155-0.801-0.427-0.634-0.637-0.451-0.786-0.274-0.871-0.088zM27.631 10.207q-0.756 0-1.414 0.28t-1.139 0.743l1.383 1.749 0.037-0.043q-0.097-0.262-0.098-0.634 0-0.591 0.292-0.999t0.865-0.408q0.494 0 0.816 0.347t0.323 1.024q0 1.176-1.002 2.824t-2.922 3.927l0.030 0.049h5.703v-2.681h-0.055l-0.622 1.359-0.037 0.012h-3.071q0.463-0.548 1.015-1.143t0.92-0.972 0.749-0.816 0.6-0.78 0.359-0.749 0.14-0.841-0.155-0.801-0.427-0.634-0.637-0.451-0.786-0.274-0.871-0.088zM9.306 9.367l-4.090 0c0.272 0.62 0.403 1.327 0.235 1.993-0.069 0.312-0.226 0.592-0.354 0.882-1.244 2.734-2.488 5.468-3.733 8.201-0.167 0.376-0.36 0.739-0.567 1.094-0.229 0.39-0.487 0.765-0.797 1.096 1.924 0 3.847-0 5.771 0-0.244-0.562-0.439-1.159-0.451-1.776-0.012-0.448 0.098-0.906 0.353-1.278 0.122-0.187 0.285-0.342 0.437-0.503 0.837-0.874 1.675-1.748 2.512-2.622-0.907-0-1.814 0-2.72-0 0.805-1.491 1.609-2.982 2.413-4.473 1.239 2.676 2.476 5.352 3.715 8.028 0.093 0.205 0.196 0.406 0.263 0.622 0.114 0.348 0.148 0.732 0.034 1.084-0.114 0.364-0.364 0.667-0.644 0.918 2.341 0 4.682 0 7.023 0-0.349-0.357-0.669-0.745-0.931-1.17-0.245-0.385-0.423-0.806-0.616-1.218-1.251-2.697-2.503-5.394-3.753-8.091-0.341-0.89-0.286-1.888-0.010-2.787l-4.090-0z"></path>
</svg>
