<!-- Generated by IcoMoon.io -->
<svg version="1.1" xmlns="http://www.w3.org/2000/svg" width="32" height="32" viewBox="0 0 32 32">
<title>y22</title>
<path fill="#444" d="M30.097 9.367c0.489 0.832 0.904 1.709 1.222 2.622 0.358 1.028 0.585 2.102 0.656 3.188 0.079 1.152-0.026 2.313-0.283 3.437-0.324 1.411-0.887 2.76-1.595 4.020-2.638-0-5.277 0-7.915-0-0.398-0.002-0.8 0.017-1.192-0.064-0.595-0.108-1.154-0.388-1.604-0.792-0.599-0.525-1.014-1.223-1.336-1.944-1.211-2.613-2.422-5.226-3.633-7.839-0.189-0.354-0.294-0.751-0.301-1.152-0.014-0.507 0.115-1.008 0.304-1.476 5.226 0 10.451 0 15.677 0zM21.265 10.205c-0.365-0.010-0.716 0.068-1.061 0.176-0.299 0.111-0.603 0.238-0.837 0.462-0.19 0.178-0.37 0.403-0.386 0.674-0.019 0.197 0.021 0.413 0.16 0.562 0.11 0.123 0.281 0.173 0.442 0.168 0.226 0.005 0.46-0.091 0.594-0.277 0.161-0.219 0.146-0.514 0.295-0.74 0.108-0.183 0.321-0.274 0.527-0.285 0.309-0.039 0.631 0.084 0.834 0.32 0.227 0.264 0.363 0.606 0.378 0.954 0.024 0.446-0.090 0.887-0.237 1.304-0.127 0.35-0.284 0.688-0.458 1.017-0.45 0.844-1.002 1.628-1.576 2.392-0.543 0.716-1.108 1.416-1.675 2.113 0.007 0.012 0.021 0.036 0.028 0.048 1.903 0.006 3.807 0.001 5.711 0.002v-2.686c-0.026-0-0.052-0-0.077 0-0.203 0.457-0.41 0.912-0.611 1.369-0.088 0.015-0.177 0.007-0.265 0.009-0.945 0-1.89 0-2.834 0 0.675-0.769 1.369-1.52 2.071-2.264 0.482-0.503 0.968-1.015 1.313-1.624 0.176-0.309 0.315-0.646 0.356-1.003 0.065-0.452 0.020-0.932-0.193-1.342-0.203-0.398-0.553-0.701-0.938-0.917-0.288-0.157-0.597-0.276-0.917-0.35-0.353-0.070-0.14-0.036-0.643-0.078zM27.74 10.204c-0.486 0.034-0.279 0.004-0.622 0.067-0.345 0.079-0.683 0.201-0.985 0.386-0.247 0.165-0.473 0.383-0.586 0.663-0.073 0.234-0.066 0.514 0.086 0.717 0.102 0.142 0.279 0.212 0.45 0.209 0.239 0.012 0.491-0.087 0.629-0.289 0.141-0.198 0.138-0.454 0.251-0.665 0.072-0.156 0.217-0.274 0.383-0.317 0.258-0.067 0.544-0.047 0.775 0.092 0.228 0.132 0.383 0.359 0.487 0.596 0.147 0.322 0.156 0.689 0.107 1.034-0.092 0.61-0.337 1.185-0.616 1.731-0.445 0.855-0.994 1.651-1.572 2.421-0.56 0.746-1.147 1.471-1.737 2.194 0.007 0.012 0.021 0.036 0.028 0.048 1.903 0.006 3.807 0.001 5.711 0.002v-2.686c-0.026 0-0.052 0-0.077 0-0.204 0.457-0.41 0.912-0.612 1.37-0.273 0.018-0.548 0.003-0.822 0.008-0.759-0-1.518 0-2.277-0 0.671-0.763 1.36-1.512 2.057-2.251 0.554-0.58 1.119-1.174 1.465-1.907 0.206-0.428 0.278-0.914 0.232-1.385-0.043-0.432-0.238-0.845-0.542-1.154-0.326-0.334-0.748-0.56-1.186-0.709-0.238-0.073-0.321-0.106-0.609-0.145-0.138-0.019-0.278-0.019-0.417-0.029zM9.306 9.367l-4.090 0c0.272 0.62 0.403 1.327 0.235 1.993-0.069 0.312-0.226 0.592-0.354 0.882-1.244 2.734-2.488 5.468-3.733 8.201-0.167 0.376-0.36 0.739-0.567 1.094-0.229 0.39-0.487 0.765-0.797 1.096 1.924 0 3.847-0 5.771 0-0.244-0.562-0.439-1.159-0.451-1.776-0.012-0.448 0.098-0.906 0.353-1.278 0.122-0.187 0.285-0.342 0.437-0.503 0.837-0.874 1.675-1.748 2.512-2.622-0.907-0-1.814 0-2.72-0 0.805-1.491 1.609-2.982 2.413-4.473 1.239 2.676 2.476 5.352 3.715 8.028 0.093 0.205 0.196 0.406 0.263 0.622 0.114 0.348 0.148 0.732 0.034 1.084-0.114 0.364-0.364 0.667-0.644 0.918 2.341 0 4.682 0 7.023 0-0.349-0.357-0.669-0.745-0.931-1.17-0.245-0.385-0.423-0.806-0.616-1.218-1.251-2.697-2.503-5.394-3.753-8.091-0.341-0.89-0.286-1.888-0.010-2.787l-4.090-0z"></path>
</svg>
