<!-- Generated by IcoMoon.io -->
<svg version="1.1" xmlns="http://www.w3.org/2000/svg" width="32" height="32" viewBox="0 0 32 32">
<title>y24</title>
<path fill="#444" d="M30.097 9.367c0.489 0.832 0.904 1.709 1.222 2.621 0.358 1.028 0.585 2.102 0.656 3.188 0.079 1.152-0.026 2.313-0.283 3.437-0.324 1.411-0.887 2.76-1.595 4.020-2.638-0-5.277 0-7.915-0-0.398-0.002-0.8 0.017-1.192-0.064-0.595-0.108-1.154-0.388-1.604-0.792-0.599-0.525-1.014-1.223-1.336-1.944-1.212-2.613-2.422-5.226-3.633-7.839-0.189-0.354-0.294-0.751-0.301-1.152-0.014-0.507 0.115-1.008 0.304-1.476 5.226 0 10.451 0 15.677 0zM21.135 10.207c-0.504 0-0.975 0.093-1.414 0.28s-0.819 0.435-1.139 0.743l1.383 1.749 0.037-0.043c-0.065-0.175-0.098-0.386-0.098-0.634 0-0.394 0.098-0.727 0.292-0.999s0.483-0.408 0.865-0.408c0.329 0 0.601 0.116 0.816 0.347s0.323 0.573 0.323 1.024c0 0.784-0.334 1.725-1.002 2.824s-1.642 2.408-2.922 3.927l0.030 0.049h5.703v-2.681h-0.055l-0.622 1.359-0.037 0.012h-3.071c0.309-0.366 0.647-0.746 1.014-1.143s0.674-0.72 0.92-0.972c0.246-0.252 0.496-0.524 0.75-0.816s0.454-0.552 0.6-0.78 0.266-0.477 0.359-0.749c0.093-0.272 0.14-0.552 0.14-0.841s-0.052-0.556-0.155-0.801c-0.104-0.246-0.246-0.457-0.427-0.634s-0.393-0.327-0.637-0.451-0.506-0.215-0.786-0.274c-0.28-0.059-0.571-0.088-0.871-0.088zM24.536 16.309l0.018 0.043 0.897 0.787h2.684v2.232h0.049c0.224-0.094 0.497-0.167 0.82-0.22s0.617-0.083 0.881-0.092v-1.921h0.165l0.97-0.854v-0.049h-1.134v-6.544h-0.049l-5.3 6.618zM25.616 16.199l2.47-3.172h0.049v3.208h-2.507l-0.012-0.037zM9.306 9.367l4.090 0c-0.276 0.9-0.332 1.897 0.010 2.787 1.25 2.698 2.502 5.394 3.753 8.091 0.193 0.412 0.371 0.833 0.616 1.218 0.262 0.425 0.581 0.813 0.931 1.17-2.341-0-4.682 0-7.023-0 0.28-0.251 0.53-0.554 0.644-0.918 0.114-0.352 0.080-0.736-0.034-1.084-0.066-0.216-0.169-0.417-0.263-0.622-1.239-2.675-2.476-5.352-3.715-8.028-0.804 1.491-1.608 2.982-2.413 4.473 0.907 0 1.814 0 2.72 0-0.837 0.874-1.675 1.748-2.512 2.622-0.153 0.162-0.316 0.316-0.437 0.503-0.256 0.372-0.366 0.83-0.353 1.278 0.012 0.617 0.207 1.214 0.451 1.776-1.924-0-3.847 0-5.771 0 0.31-0.33 0.568-0.706 0.797-1.096 0.207-0.355 0.4-0.719 0.567-1.094 1.245-2.733 2.489-5.467 3.733-8.201 0.128-0.29 0.284-0.57 0.354-0.882 0.168-0.667 0.038-1.373-0.235-1.993l4.090-0z"></path>
</svg>
