<!-- Generated by IcoMoon.io -->
<svg version="1.1" xmlns="http://www.w3.org/2000/svg" width="32" height="32" viewBox="0 0 32 32">
<path fill="#444" d="M30.097 9.367c0.489 0.832 0.904 1.709 1.222 2.621 0.358 1.028 0.585 2.102 0.656 3.188 0.079 1.152-0.026 2.313-0.283 3.437-0.324 1.411-0.887 2.76-1.595 4.020-2.638-0-5.277 0-7.915-0-0.398-0.002-0.8 0.017-1.192-0.064-0.595-0.108-1.154-0.388-1.604-0.792-0.599-0.525-1.014-1.223-1.336-1.944-1.212-2.613-2.422-5.226-3.633-7.839-0.189-0.354-0.294-0.751-0.301-1.152-0.014-0.507 0.115-1.008 0.304-1.476 5.226 0 10.451 0 15.677 0zM25.003 18.278c0.285 0.289 0.626 0.515 1.025 0.677s0.828 0.244 1.287 0.244c0.496 0 0.942-0.073 1.336-0.22s0.715-0.348 0.961-0.604c0.246-0.256 0.433-0.549 0.561-0.879s0.192-0.685 0.192-1.068c0-0.325-0.049-0.638-0.146-0.937s-0.255-0.585-0.473-0.857-0.483-0.509-0.796-0.711c-0.313-0.201-0.701-0.363-1.162-0.485s-0.973-0.187-1.534-0.195l0.165-1.605h3.472v-1.934h-0.049l-0.427 0.622h-3.648l-0.488 4.411c0.541 0 1.032 0.047 1.473 0.14s0.801 0.216 1.080 0.366 0.513 0.324 0.702 0.522c0.189 0.197 0.323 0.396 0.403 0.595s0.119 0.401 0.119 0.604c0 0.46-0.134 0.823-0.403 1.089s-0.643 0.4-1.123 0.4c-0.46 0-0.833-0.144-1.12-0.433s-0.43-0.665-0.43-1.129l-0.037-0.012-0.94 1.397zM18.277 19.028l0.030 0.049h5.711v-2.684h-0.055l-0.622 1.361-0.037 0.012h-3.075c0.309-0.366 0.648-0.747 1.016-1.144l0.921-0.973c0.246-0.252 0.496-0.525 0.75-0.818s0.454-0.553 0.601-0.781c0.146-0.228 0.266-0.478 0.36-0.75s0.14-0.553 0.14-0.842-0.052-0.556-0.156-0.802c-0.104-0.246-0.246-0.458-0.427-0.634s-0.393-0.327-0.638-0.452-0.506-0.216-0.787-0.275c-0.281-0.059-0.571-0.088-0.872-0.088-0.504 0-0.976 0.094-1.415 0.281s-0.82 0.435-1.141 0.744l1.385 1.751 0.037-0.043c-0.065-0.175-0.098-0.386-0.098-0.634 0-0.395 0.098-0.728 0.293-1.001s0.484-0.409 0.866-0.409c0.329 0 0.602 0.116 0.818 0.348s0.323 0.573 0.323 1.025c0 0.785-0.335 1.728-1.004 2.828s-1.644 2.411-2.925 3.932zM5.216 9.367h8.18c-0.276 0.9-0.332 1.897 0.010 2.787 1.25 2.698 2.502 5.394 3.753 8.091 0.193 0.412 0.371 0.833 0.616 1.218 0.262 0.425 0.581 0.813 0.931 1.17-2.341-0-4.682 0-7.023-0 0.28-0.251 0.53-0.554 0.644-0.918 0.114-0.352 0.080-0.736-0.034-1.084-0.066-0.216-0.169-0.417-0.263-0.622-1.239-2.675-2.476-5.352-3.715-8.028-0.804 1.491-1.608 2.982-2.413 4.473 0.907 0 1.814 0 2.72 0-0.837 0.874-1.675 1.748-2.512 2.622-0.153 0.162-0.316 0.316-0.437 0.503-0.256 0.372-0.366 0.83-0.353 1.278 0.012 0.617 0.207 1.214 0.451 1.776-1.924-0-3.847 0-5.771 0 0.31-0.33 0.568-0.706 0.797-1.096 0.207-0.355 0.4-0.719 0.567-1.094 1.245-2.733 2.489-5.467 3.733-8.201 0.128-0.29 0.284-0.57 0.354-0.882 0.168-0.667 0.038-1.373-0.235-1.993z"></path>
</svg>
