<!-- Generated by IcoMoon.io -->
<svg version="1.1" xmlns="http://www.w3.org/2000/svg" width="32" height="32" viewBox="0 0 32 32">
<path fill="#444" d="M30.097 9.367c0.489 0.832 0.904 1.709 1.222 2.621 0.358 1.028 0.585 2.102 0.656 3.188 0.079 1.152-0.026 2.313-0.283 3.437-0.324 1.411-0.887 2.76-1.595 4.020-2.638-0-5.277 0-7.915-0-0.398-0.002-0.8 0.017-1.192-0.064-0.595-0.108-1.154-0.388-1.604-0.792-0.599-0.525-1.014-1.223-1.336-1.944-1.211-2.613-2.422-5.226-3.633-7.839-0.189-0.354-0.294-0.751-0.301-1.152-0.014-0.507 0.115-1.008 0.304-1.476 5.226 0 10.451 0 15.677 0zM24.454 15.46c0 0.525 0.058 0.997 0.174 1.416s0.275 0.768 0.476 1.047c0.201 0.279 0.44 0.512 0.717 0.699s0.57 0.321 0.879 0.403c0.309 0.081 0.637 0.122 0.982 0.122 0.81 0 1.491-0.278 2.044-0.833s0.83-1.24 0.83-2.053c0-0.785-0.233-1.431-0.699-1.938s-1.075-0.76-1.828-0.76h-0.439l-1.111 0.439c0.11-0.667 0.306-1.247 0.589-1.739s0.666-0.883 1.15-1.172c0.484-0.289 1.046-0.435 1.684-0.439v-0.5c-0.74 0-1.447 0.138-2.121 0.415s-1.253 0.651-1.739 1.123c-0.486 0.472-0.873 1.036-1.159 1.693s-0.43 1.35-0.43 2.078zM26.395 15.21c0-0.325 0.020-0.667 0.061-1.025h0.683c0.561 0 0.969 0.202 1.224 0.607s0.381 1.049 0.381 1.931c0 0.301-0.038 0.586-0.113 0.854s-0.193 0.493-0.354 0.674-0.351 0.272-0.571 0.272c-0.435 0-0.763-0.261-0.982-0.784s-0.33-1.366-0.33-2.529zM21.135 10.207c-0.504 0-0.975 0.093-1.414 0.28s-0.819 0.435-1.139 0.743l1.383 1.749 0.037-0.043c-0.065-0.175-0.098-0.386-0.098-0.634 0-0.394 0.098-0.727 0.292-0.999s0.483-0.408 0.865-0.408c0.329 0 0.601 0.116 0.816 0.347s0.323 0.573 0.323 1.024c0 0.784-0.334 1.725-1.002 2.824s-1.642 2.408-2.922 3.927l0.030 0.049h5.703v-2.681h-0.055l-0.622 1.359-0.037 0.012h-3.071c0.309-0.366 0.647-0.746 1.015-1.143s0.674-0.72 0.92-0.972c0.246-0.252 0.496-0.524 0.75-0.816s0.454-0.552 0.6-0.78c0.146-0.227 0.266-0.477 0.36-0.749s0.14-0.552 0.14-0.841c0-0.288-0.052-0.556-0.155-0.801s-0.246-0.457-0.427-0.634c-0.181-0.177-0.393-0.327-0.637-0.451s-0.506-0.215-0.786-0.274c-0.28-0.059-0.571-0.088-0.871-0.088zM9.306 9.367l4.090 0c-0.276 0.9-0.332 1.897 0.010 2.787 1.25 2.698 2.502 5.394 3.753 8.091 0.193 0.412 0.371 0.833 0.616 1.218 0.262 0.425 0.581 0.813 0.931 1.17-2.341-0-4.682 0-7.023-0 0.28-0.251 0.53-0.554 0.644-0.918 0.114-0.352 0.080-0.736-0.034-1.084-0.066-0.216-0.169-0.417-0.263-0.622-1.239-2.675-2.476-5.352-3.715-8.028-0.804 1.491-1.608 2.982-2.413 4.473 0.907 0 1.814 0 2.72 0-0.837 0.874-1.675 1.748-2.512 2.622-0.153 0.162-0.316 0.316-0.437 0.503-0.256 0.372-0.366 0.83-0.353 1.278 0.013 0.617 0.207 1.214 0.451 1.776-1.924-0-3.847 0-5.771 0 0.31-0.33 0.568-0.706 0.797-1.096 0.207-0.355 0.4-0.719 0.567-1.094 1.245-2.733 2.489-5.467 3.733-8.201 0.128-0.29 0.284-0.57 0.354-0.882 0.168-0.667 0.038-1.373-0.235-1.993l4.090-0z"></path>
</svg>
