<!-- Generated by IcoMoon.io -->
<svg version="1.1" xmlns="http://www.w3.org/2000/svg" width="25" height="32" viewBox="0 0 25 32">
<title>zne</title>
<path fill="#444" d="M10.682 0.053l1.732 3.357 0.066 4.153 4.501 7.209c0.593 1.722 0.479 3.493-0.335 5.313 1.854-2.854 2.473-4.848 1.856-5.982-0.617-1.136-2.022-3.437-4.217-6.906l0.016-3.866 1.421-3.279 9.279 15.081-9.279 16.815-1.605-2.76 0.018-4.431-4.854-6.686c-0.814-1.379-0.679-3.004 0.409-4.87-2.215 2.221-2.856 4.076-1.924 5.562l4.463 6.365-0.028 4.042-1.517 2.778-10.684-15.947 10.682-15.951z"></path>
</svg>
