<!-- Generated by IcoMoon.io -->
<svg version="1.1" xmlns="http://www.w3.org/2000/svg" width="29" height="32" viewBox="0 0 29 32">
<title>znr</title>
<path fill="#444" d="M0.291 6.184l6.996-6.184 3.559 4.028-6.996 6.184-3.559-4.028zM28.22 6.184l-3.559 4.028-6.996-6.184 3.559-4.028 6.996 6.184zM0 22.183l3.254-3.066 5.378 7.504-2.447 2.152-6.185-6.589zM28.5 22.183l-3.254-3.066-5.378 7.504 2.447 2.152 6.185-6.589zM26.43 14.499l-7.591 0.798-4.555 6.617-4.547-6.606-7.648-0.804 12.195 17.496 12.146-17.501zM14.284 3.034l-12.197 10.757 7.739 0.814 4.459-3.986 4.448 3.977 7.692-0.809-12.14-10.752z"></path>
</svg>
