<?xml version="1.0" standalone="no"?>
<!DOCTYPE svg PUBLIC "-//W3C//DTD SVG 1.1//EN" "http://www.w3.org/Graphics/SVG/1.1/DTD/svg11.dtd" >
<svg xmlns="http://www.w3.org/2000/svg">
<metadata>
<json>
<![CDATA[
{
	"fontFamily": "keyrune",
	"majorVersion": 4,
	"minorVersion": 0.85,
	"fontURL": "https://keyrune.andrewgioia.com",
	"description": "Magic: the Gathering set symbol pictographic font\nFont generated by IcoMoon.",
	"copyright": "2022",
	"designer": "Andrew Gioia",
	"designerURL": "https://andrewgioia.com",
	"license": "OFL",
	"licenseURL": "https://scripts.sil.org/OFL",
	"version": "Version 4.0",
	"fontId": "keyrune",
	"psName": "keyrune",
	"subFamily": "Regular",
	"fullName": "keyrune"
}
]]>
</json>
</metadata>
<defs>
<font id="keyrune" horiz-adv-x="1024">
<font-face units-per-em="1024" ascent="960" descent="-64" />
<missing-glyph horiz-adv-x="1024" />
<glyph unicode="&#x20;" horiz-adv-x="512" d="" />
<glyph unicode="&#x21;" glyph-name="exclam" data-tags="exclam" horiz-adv-x="332" d="M199 895q10 0 10-26v-24q0-99-10.5-201t-20-154-15.5-69q-5-16-18-16-15 0-15 30v18q-1 36-2 72.5t-2.5 67-3 59-3 52-2.5 44-2 35.5-2 26-1 16l-1 6q0 15 13 23 70 41 75 41zM170 292q21 0 36.5-15t15.5-37q0-21-15-36t-37-15-37.5 14.5-15.5 37.5 15.5 37 37.5 14z" />
<glyph unicode="&#x22;" glyph-name="quotedbl" data-tags="quotedbl" horiz-adv-x="398" d="M154 937q17 0 27-11.5t10-27.5q0-14-14-40-13-23-38.5-68l-42.5-75t-18-32q-8-10-19-10-9 0-14.5 6.5t-5.5 15.5v2q0 5 60 183 21 57 55 57zM324 937q16 0 26-11.5t10-27.5-13-40q-14-24-39-68.5t-42-74.5-19-32q-8-10-19-10-9 0-14.5 6.5t-5.5 15.5v2q0 5 61 183 18 57 55 57z" />
<glyph unicode="&#x23;" glyph-name="numbersign" data-tags="numbersign" horiz-adv-x="565" d="M354 561q0 5-7 5h-107q-8 0-10-7-2-19-7-55t-8.5-60.5-3.5-26.5q0-5 8-5h105q10 0 11 8 19 140 19 141zM414 835h7q16 0 16-12 0-5-13.5-102.5t-13.5-102.5 5-5h75q20 0 20-27 0-20-16-20h-88q-4 0-6-6-2-19-7-55t-8.5-60.5-3.5-26.5q0-6 7-6h104q18 0 18-23t-18-23h-107q-11 0-13-11-26-182-27-184-5-10-22-10-21 0-21 14 0 4 12.5 93.5t12.5 91.5q0 6-9 6h-70q-31 0-37.5-1.5t-7.5-6.5q-26-186-27-188-5-9-25-9t-20 14q0 3 13 92.5t13 91.5q0 7-10 7h-75q-17 0-17 19 0 15 3 21t14 6h89q3 0 3 2 20 140 20 147 0 5-7 5h-103q-19 0-19 23 0 24 19 24h110q10 0 10 8 16 109 25 183 3 21 4 23 5 8 24 8h1q20 0 20-14 0-4-14-102t-14-101q0-5 8-5h106q9 0 10 7l30 208q5 7 17 7h3z" />
<glyph unicode="&#x24;" glyph-name="dollar" data-tags="dollar" horiz-adv-x="493" d="M385 749q0-20-11.5-32.5t-30.5-12.5q-22 0-34.5 16t-17 36-17 39-33.5 23h-2q-6 0-6-5v-178q0-3-0.5-9t-0.5-7q0-6 1.5-9.5t6-6.5 8.5-4.5 14.5-5.5 19.5-7q95-41 120-125 10-33 10-62 0-81-50-130t-121-61q-9-2-9-12v-71q0-19-20-19-21 0-21 19v71q0 10-9 10-71 2-118.5 46t-47.5 89q0 24 14.5 40.5t36.5 16.5q19 0 31-13t12-35q0-6-2-17t-2-18q0-35 26.5-51t52.5-16q5 0 5 4v266q0 13-9 14-67 14-103 63.5t-36 105.5q0 62 40 106t99 49q9 1 9 8v22q0 20 21 20h1q21 0 21-20v-22q0-6 7-6 64-7 104.5-40.5t40.5-68.5zM187 818q-21 0-53.5-26t-32.5-71q0-33 21-57t39-32 24-8q5 0 5 5v162q0 27-3 27zM240 507q-8 0-8-9 0-74-0.5-143t-0.5-73q0-32 5-32h2q11 0 33.5 12.5t45.5 44.5 23 73q0 40-23.5 71.5t-45.5 43.5-31 12z" />
<glyph unicode="&#x25;" glyph-name="percent" data-tags="percent" horiz-adv-x="839" d="M218 79q-9 0-17 6t-8 14q0 4 4 12 404 690 407 693 8 10 24 10 9 0 19.5-4.5t10.5-13.5q0-5-4-11-412-694-413-695-9-11-23-11zM183 732q-23 0-40-14.5t-25-37.5-11.5-44.5-3.5-42.5q0-40 12.5-88t37.5-70q21-17 45-17 62 0 74 87 6 36 6 56 0 66-25.5 118.5t-69.5 52.5zM198 771q53 0 97-43.5t44-138.5q0-93-43-151.5t-113-58.5q-53 0-97 43t-44 137q0 101 45 156.5t111 55.5zM642 463q-23 0-40-14t-25.5-37-12-44-3.5-42l1-2q0-40 12-88t37-69q19-17 45-17 62 0 75 86 5 30 5 57 0 65-25 117.5t-69 52.5zM656 502q53 0 97.5-43.5t44.5-138.5q0-93-43.5-151.5t-112.5-58.5q-53 0-97 43t-44 137q0 101 45 156.5t110 55.5z" />
<glyph unicode="&#x26;" glyph-name="ampersand" data-tags="ampersand" horiz-adv-x="847" d="M102 637q0 3-11 16.5t-21.5 38.5-10.5 55q0 69 54.5 122.5t125.5 53.5q22 0 45-5t43.5-20 20.5-38q0-20-14-33t-32-13q-21 0-43.5 25.5t-45.5 25.5q-37 0-73-33.5t-36-84.5q0-30 14.5-57.5t25.5-27.5q2 0 18 6.5t42 13.5 53 7q38 0 63.5-15.5t25.5-41.5-27-42-67-16h-1q-25 0-47.5 6t-35.5 12-15 6q-3 0-5.5-2t-4-4-3.5-4l-1-2q-27-49-27-107 0-36 13-70.5t40.5-68 80-55.5 122.5-25h18q59 0 103 17t67 45 33.5 57 10.5 58q0 53-29 88t-77 35q-44 0-77.5-30t-33.5-68q0-26 16.5-44.5t42.5-18.5q11 0 24 5t13 12q0 4-4 6t-9.5 3-12.5 5-12 11q-7 10-7 22 0 15 11.5 26t28.5 11q23 0 41.5-17t18.5-42q0-31-26-54.5t-63-23.5q-41 0-70 30t-29 73q0 40 26.5 76.5t72.5 59.5q47 23 134.5 37t118.5 28q37 16 62.5 47.5t25.5 74.5q0 47-29.5 78t-67.5 31q-31 0-31-9l8-11q9-11 9-25 0-18-12-30t-30-12q-20 0-33 14.5t-13 35.5q0 32 27 54t63 22q58 0 104.5-49t46.5-122q0-82-63.5-140.5t-150.5-60.5q-15 0-15-8 0-1 8.5-15t17.5-41 9-58v-2q0-104-90-182t-215-78q-126 0-212 81.5t-86 193.5q0 30 6.5 58t16.5 48 19.5 34 18.5 23l8 10q2 4 2 7v1zM267 606q43 0 43 24 0 26-44 26-24 0-44.5-4t-31-9.5-10.5-10.5q0-3 3-6 28-20 84-20z" />
<glyph unicode="&#x27;" glyph-name="quotesingle" data-tags="quotesingle" horiz-adv-x="229" d="M154 937q17 0 27-11.5t10-27.5q0-14-14-40-13-23-38.5-68l-42.5-75t-18-32q-8-10-19-10-9 0-14.5 7.5t-5.5 16.5v1q0 4 60 182 21 57 55 57z" />
<glyph unicode="&#x28;" glyph-name="parenleft" data-tags="parenleft" horiz-adv-x="371" d="M324 27q0-9-6.5-15t-15.5-6q-11 0-24 11-106 84-169 203.5t-63 252.5q0 125 59.5 245.5t167.5 207.5q19 14 31 14 9 0 15.5-5.5t6.5-13.5q0-13-15-25-84-75-135.5-183.5t-51.5-238.5q0-123 48-232t135-188q17-17 17-27z" />
<glyph unicode="&#x29;" glyph-name="parenright" data-tags="parenright" horiz-adv-x="371" d="M49 923q0 9 6.5 15t15.5 6 24-11q106-83 168.5-203.5t62.5-253.5q0-125-60-245t-168-207q-20-15-30-15-9 0-15.5 6t-6.5 15 15 24q84 76 135.5 183.5t51.5 237.5q0 124-47.5 233t-134.5 188q-17 14-17 27z" />
<glyph unicode="&#x2a;" glyph-name="asterisk" data-tags="asterisk" horiz-adv-x="343" d="M329 837q0-19-24-32.5t-48-21.5-24-13q0-6 14.5-10t32.5-8 32.5-16 14.5-32q0-17-12-28.5t-27-11.5q-16 0-33 13.5t-29 27-16 13.5q-7 0-7-9 0-14 4.5-40t4.5-31q0-21-15-30.5t-28-9.5-25 10-12 33q0 12 3.5 34t3.5 28q0 11-6 11-5 0-34.5-22.5t-51.5-22.5q-17 0-25 13t-8 23q0 20 23.5 34.5t47 23 23.5 15.5q0 6-14 11t-31.5 9-31.5 16-14 30q0 15 12.5 25.5t26.5 10.5q18 0 43.5-27t36.5-27q5 0 5 7 0 4-4.5 27t-4.5 37q0 46 41 46 40 0 40-47 0-17-6-41.5t-6-25.5q0-2 2-2 4 0 34.5 25t51.5 25q15 0 27.5-11.5t12.5-28.5z" />
<glyph unicode="&#x2b;" glyph-name="plus" data-tags="plus" horiz-adv-x="717" d="M78 442q-24 0-24 22v13q0 23 25 23h251v255q0 20 20 20h15q24 0 24-26v-249h255q21 0 21-20v-14q0-16-7.5-20t-20.5-4h-248v-253q0-23-22-23h-15q-22 0-22 24v252h-252z" />
<glyph unicode="&#x2c;" glyph-name="comma" data-tags="comma" d="M102 307q37 0 64-34t27-83q0-60-39.5-98t-64.5-38q-19 0-19 18 0 8 5.5 12.5t17.5 12 21 15.5q26 24 26 48 0 18-11 27t-25 10.5-31 8-25 18.5q-8 11-8 27 0 24 18.5 40t43.5 16z" />
<glyph unicode="&#x2d;" glyph-name="hyphen" data-tags="hyphen" d="M204 548q16 0 16-40 0-15-18-29-23-16-44.5-31t-36-25.5-27.5-20-21-15-15-10.5l-10.5-7.5t-7-4-5.5-2-4-0.5q-19 0-19 26v15q0 10 3.5 14.5t16.5 13.5q44 31 100 70 65 46 72 46z" />
<glyph unicode="&#x2e;" glyph-name="period" data-tags="period" d="M116 308q25 0 43-17.5t18-42.5-17-42.5-43-17.5q-25 0-43.5 17.5t-18.5 43.5 18 42.5 43 16.5z" />
<glyph unicode="&#x2f;" glyph-name="slash" data-tags="slash" horiz-adv-x="445" d="M37 14q-31 0-31 14 0 4 386 762 5 9 16 9 9 0 20-4.5t11-14.5q0-3-175-335-133-265-201-402-12-24-13-25-5-4-13-4z" />
<glyph unicode="&#x30;" glyph-name="zero" data-tags="zero" horiz-adv-x="486" d="M241 656q93 0 159.5-69t66.5-166-66.5-165.5-160.5-68.5q-93 0-160.5 68t-67.5 166q0 97 67.5 166t161.5 69zM240 599q-66 0-113-51.5t-47-122.5q0-73 48-125t115-52q64 0 112 49t48 124-48.5 126.5-114.5 51.5z" />
<glyph unicode="&#x31;" glyph-name="one" data-tags="one" horiz-adv-x="364" d="M168 636q33 0 61.5 0.5t44.5 1.5 19 1q14 0 14-22 0-18-48-20-18-1-29-2-14-1-14-16v-312q0-20 18-21 11-1 22.5-1.5t19-1 15.5-1 12-1.5 9-2 7-3 4-4.5 2.5-6 0.5-8.5q0-18-18-18-1 0-8 0.5t-19 1.5-27 2-34.5 1.5-38.5 0.5-38-0.5-34-1.5-26.5-2-18.5-1.5-8-0.5q-14 0-14 21 0 18 18 20 15 1 37 3 29 1 35 4t6 17v315q0 14-15 16-79 4-81 4-15 4-15 24 0 16 15 16 3 0 19-1t45-1.5 62-0.5z" />
<glyph unicode="&#x32;" glyph-name="two" data-tags="two" horiz-adv-x="460" d="M78 192q-28 0-28 19 0 5 2 8.5t8.5 8.5 14.5 9.5 24 15 32 23.5q73 58 127 126 25 33 25 59 0 47-44 81t-92 34q-38 0-60.5-22t-24.5-51q0-27-15-27h-1q-20 0-20 37 0 55 40 90.5t101 35.5q72 0 125.5-42.5t53.5-106.5q0-29-15-59t-28.5-46-51.5-53-52-52q-4-6-4-7 0-9 11-9 23 0 75 4 39 3 66.5 19.5t50.5 65.5q4 11 13 11 18 0 18-13 0-3-38-131-1-4-3-6.5t-3.5-4-5-2.5-5-1-6.5-0.5-7-0.5q-40-2-110.5-5t-119.5-5.5-53-2.5z" />
<glyph unicode="&#x33;" glyph-name="three" data-tags="three" horiz-adv-x="368" d="M122 659q25 0 59-11t66-40.5 32-68.5q0-27-15-63t-30-61-15-26q0-5 7.5-7t26-7.5 36.5-16.5q58-32 58-117 0-100-44-156-25-33-68.5-49.5t-88.5-16.5q-55 0-86 25.5t-31 48.5q0 18 13.5 29.5t31.5 11.5q17 0 30-11t21-24.5 27-24.5 47-11q48 0 70.5 39t22.5 93q0 116-125 116-15 0-27-1t-14-1q-8 0-12.5 4.5t-4.5 9.5q0 3 0.5 5t3 4.5 6 5 10.5 8.5 15 14q66 64 66 125 0 36-21.5 67.5t-72.5 31.5q-54 0-54-39v-14l1-8q0-13-18-13t-18 42q0 43 25.5 75t69.5 32z" />
<glyph unicode="&#x34;" glyph-name="four" data-tags="four" horiz-adv-x="457" d="M41 205q-17 0-17 14 0 9 17 33 258 371 267 383 7 9 17 9 14 0 14-18l-1-334q0-11 10-11h17q18 0 30 1t13 1q20 0 20-13 0-4-4-31t-7-30q-4-4-13-4h-57q-9 0-9-7v-171q0-12-10-12h-41q-11 0-11 12v168q0 10-8 10h-227zM266 273q10 0 10 13v218q0 8-5 8-2 0-6-4-153-226-153-230 0-5 6-5h148z" />
<glyph unicode="&#x35;" glyph-name="five" data-tags="five" horiz-adv-x="390" d="M120 468q74 0 128.5-55.5t54.5-145.5q0-82-48-152-27-40-72-74.5t-66-34.5q-7 0-12.5 4.5t-5.5 11.5 9.5 14.5 23.5 15 34.5 26 37.5 44.5q37 60 37 122 0 70-41.5 113.5t-95.5 43.5q-17 0-34-6l-18-5q-13 0-13 16 0 3 16 60.5t32 114.5l16 56q5 13 18 13 6 0 84.5-24.5t86.5-24.5 17 9 16.5 21 9.5 14q4 3 8 3 5 0 10.5-4t5.5-10q0-3-47-112-4-11-13-11-7 0-86 24.5t-81 24.5h-1q-8 0-11.5-10t-19.5-71v-2q-1-2-1-3 0-6 7-6h14z" />
<glyph unicode="&#x36;" glyph-name="six" data-tags="six" horiz-adv-x="494" d="M377 350q0 49-17.5 99.5t-58.5 90-96 39.5q-57 0-81.5-45t-24.5-107q0-90 47-150t113-60q51 0 84.5 36t33.5 97zM209 616q101 0 174-68.5t73-169.5q0-84-54.5-143t-140.5-59q-90 0-158.5 71t-68.5 190q0 147 102.5 265.5t256.5 146.5q2 1 7 1 9 0 15-7.5t6-15.5q0-12-17-19-162-53-251-191l-1-1v-2q0-3 4-3h3q3 1 8 1.5t11 1.5 14.5 1.5 16.5 0.5z" />
<glyph unicode="&#x37;" glyph-name="seven" data-tags="seven" horiz-adv-x="460" d="M53 427q-5 0-11 4t-6 13q0 1 4.5 31.5t9 83.5 5.5 108q0 19 19 19 3 0 5.5-0.5t4.5-2.5 3-4 2-6.5 1.5-8.5 2-11.5 2.5-13.5q2-12 15-12h309q22 0 22-19v-1q0-5-59-182-68-206-116-374-15-51-19-59.5t-14-9.5q-6-1-19-1h-7q-29 0-29 14 0 5 114 338 66 182 66 187 0 20-30 25-57 5-102 5-85 0-111-7-12-2-16-10t-17-52q-7-23-12-38-5-16-17-16z" />
<glyph unicode="&#x38;" glyph-name="eight" data-tags="eight" horiz-adv-x="457" d="M104 731q0-66 48.5-108.5t78.5-42.5q8 0 15 7 61 56 61 133 0 50-29.5 85.5t-74.5 35.5h-1q-41-1-69.5-33t-28.5-77zM225 231q51 0 88 32t37 81-40.5 93-106.5 77q-10 6-16 6-9 0-30.5-20t-43-59.5-21.5-80.5q0-56 39-92.5t94-36.5zM214 182q-82 0-140 54t-58 126q0 70 71 127 18 14 40 31 21 16 21 19t-5 6q-48 33-78.5 78.5t-30.5 95.5q0 64 51.5 117t128.5 53q71 0 120-38t49-107q0-51-30.5-98.5t-78.5-74.5q-3-2-3-6 0-1 3-4 73-33 117-84t44-107q0-74-67-131t-154-57z" />
<glyph unicode="&#x39;" glyph-name="nine" data-tags="nine" horiz-adv-x="521" d="M108 461q0-82 49.5-151.5t133.5-69.5q46 0 68.5 19t33.5 54q11 38 11 72 0 87-54 149.5t-124 62.5q-46 0-82-34t-36-102zM282 200q-103 0-176 71t-73 166q0 87 62 146.5t149 59.5q98 0 168.5-75.5t70.5-183.5q0-120-90-232t-234-156q-26-7-32-7-10 0-14.5 9t-4.5 16q0 12 17 17 45 14 86.5 37.5t69 46.5 48 45 30 35 9.5 15q0 3-3 3l-5-2-30-6t-23-3.5-25-1.5z" />
<glyph unicode="&#x3a;" glyph-name="colon" data-tags="colon" horiz-adv-x="233" d="M127 626q25 0 43-18t18-43q0-24-17.5-42t-43.5-18q-25 0-42.5 17.5t-17.5 43.5 17.5 43 42.5 17zM127 308q25 0 43-17.5t18-42.5q0-24-17.5-42t-43.5-18q-25 0-42.5 17.5t-17.5 43.5 17.5 42.5 42.5 16.5z" />
<glyph unicode="&#x3b;" glyph-name="semicolon" data-tags="semicolon" d="M127 307q36 0 63-34t27-83q0-60-39-98t-65-38q-7 0-13 5t-6 13 5.5 12.5 17.5 12 21 15.5q27 26 27 48v1q0 22-17 29.5t-41 13-34 20.5q-8 9-8 27 0 24 18.5 40t43.5 16zM127 626q25 0 43-18t18-43q0-24-17.5-42t-43.5-18q-25 0-42.5 17.5t-17.5 43.5 17.5 43 42.5 17z" />
<glyph unicode="&#x3c;" glyph-name="less" data-tags="less" horiz-adv-x="688" d="M53 460q0 11 19 18 537 196 540 196 24 0 24-39 0-14-20-20l-451-165 458-166q13-5 13-18 0-12-7-24.5t-23-12.5q-8 0-535 193-18 6-18 19v19z" />
<glyph unicode="&#x3d;" glyph-name="equal" data-tags="equal" horiz-adv-x="717" d="M78 517q-24 0-24 23v14q0 23 24 23h565q21 0 21-21v-13q0-26-27-26h-559zM78 365q-23 0-23 22v15q0 22 24 22h565q21 0 21-20v-15q0-16-7-20t-20-4h-560z" />
<glyph unicode="&#x3e;" glyph-name="greater" data-tags="greater" horiz-adv-x="688" d="M636 460v-19q0-13-18-19-528-193-535-193-16 0-23 12.5t-7 24.5q0 13 14 18l457 166-451 165q-20 6-20 20 0 39 24 39 3 0 540-196 19-7 19-18z" />
<glyph unicode="&#x3f;" glyph-name="question" data-tags="question" horiz-adv-x="389" d="M163 308q25 0 43-17.5t18-42.5q0-24-17.5-42t-43.5-18q-25 0-43.5 17.5t-18.5 43.5 18.5 42.5 43.5 16.5zM164 911q89 0 135-48t46-103q0-35-17.5-65.5t-42.5-54.5l-50-48t-42.5-58-17.5-73q0-5 0.5-12.5t0.5-10.5q0-19-8-27.5t-18-8.5q-28 0-28 56 0 37 14 71.5t34 61.5 40 53 34 57.5 14 63.5q0 44-26 75.5t-63 31.5q-22 0-38-12t-23.5-26-20-26-29.5-12q-19 0-31 13t-12 32q0 46 66 60 45 10 83 10z" />
<glyph unicode="&#x40;" glyph-name="at" data-tags="at" d="M742 132q13 0 13-12 0-17-42-40t-81-35q-64-20-138-20h-1q-173 1-288 101t-115 269v1q0 43 9.5 87.5t33.5 99 75.5 105.5 124.5 87q110 56 222 56 147 0 239.5-93.5t92.5-229.5q0-127-74-219t-166-92q-27 0-47 8t-29.5 19-15 22-8 19-3.5 8l-5-5q-26-32-62-54.5t-73-22.5q-40 0-67.5 28t-27.5 71q0 67 70.5 161.5t136.5 134.5q43 25 77 25 11 0 20-2t10-2q8 0 15.5 16t9.5 17q5 4 14 4 23 0 23-17 0-4-10.5-37.5t-28.5-104.5-32-152q-5-22-5-40 0-26 15-37.5t34-11.5q33 0 71.5 21t62.5 55q52 72 52 192v1q0 131-82.5 204.5t-205.5 73.5q-100 0-187-46.5t-141-135.5-54-201q0-151 93.5-247.5t244.5-96.5q68 0 125.5 18t85.5 41q15 9 19 9zM601 566q0 11-11 11-34 0-95.5-59.5t-95.5-146.5q-14-33-14-62 0-28 13.5-39.5t29.5-11.5q18 0 48.5 15t51.5 40q3 4 8 9l6.5 6.5t3.5 5 3 6.5 2 7q50 217 50 219z" />
<glyph unicode="&#x41;" glyph-name="A" data-tags="A" horiz-adv-x="840" d="M140 205q-17 0-34-0.5t-30-1.5-23-2-16-1.5-7-0.5q-21 0-21 21 0 5 0.5 8.5t2 6.5l2.5 5t4.5 3.5 4.5 2 6.5 1.5 7 1.5 9 1.5 9.5 1q24 3 36 12.5t23 36.5q72 161 156 328 148 280 153 287 2 2 6 5 11 8 25 8 27 0 43-39l147-340q112-271 114-274 11-16 29.5-21t32-7 15.5-12q2-8 2-14 0-22-21-22l-17 2q-17 1-45.5 2.5t-55.5 1.5q-33 0-60-1.5t-42.5-3-18.5-1.5q-21 0-21 17 0 5 0.5 9t2 7.5 2 5.5 4.5 4 6 2.5 8 1.5 9.5 1.5 12.5 1.5 15 2q21 4 21 20 0 15-24.5 91.5t-52.5 139.5q-4 10-18 10h-241q-16 0-23-12-35-65-62.5-134.5t-27.5-86.5q0-18 11.5-23.5t40.5-8.5q9 0 13-1 22-2 22-25 0-22-22-22-3 0-17.5 1.5t-40 3-55.5 1.5zM521 565q9 0 9 8t-39.5 100-50.5 111q-4 7-11 7-9 0-19-18-105-198-105-203t6-5h210z" />
<glyph unicode="&#x42;" glyph-name="B" data-tags="B" horiz-adv-x="577" d="M92 907q31 0 89.5 5t88.5 5q111 0 170-41 63-46 63-118 0-47-27-89t-70-69l-3-3q0-1 4-3 60-11 101-61t41-117q0-68-39-119.5t-91-74.5q-51-23-123-23-24 0-70 3t-70 3q-17 0-55-1t-62-1h-2q-6 0-9.5 1t-7 7-3.5 17q0 12 7.5 15t36.5 6q9 1 14 2 7 1 10.5 2.5t7 6 3.5 12.5v560q0 19-10.5 24.5t-37.5 7.5h-5q-18 0-18 26 0 18 18 18 1 0 7-0.5t17.5-0.5h24.5zM412 736q0 21-7 42.5t-23 43.5-47.5 36-73.5 14q-57 0-72-12-5-4-5-13v-221q0-13 11-13h59q108 0 143 65 15 30 15 58zM263 247q81 0 138 43.5t57 120.5q0 51-29.5 94.5t-91.5 56.5q-33 7-86 7h-52q-15 0-15-16v-264q0-11 1.5-17t8.5-12.5 21-8.5q30-4 48-4z" />
<glyph unicode="&#x43;" glyph-name="C" data-tags="C" horiz-adv-x="716" d="M118 567q0-141 84-237.5t204-96.5q90 0 164.5 55t102.5 146q5 14 15 14 17 0 17-12-23-159-26-166-5-17-23-17h-29q-12 0-17.5-2t-15-9-15.5-10q-90-52-190-52-71 0-139 28t-120 78q-52 51-81.5 120t-29.5 142q0 75 31 145t83 120q110 105 261 105h1q55 0 101.5-13.5t72-27.5 27.5-14q8 0 14 17t16 20q2 0 6 0.5t5 0.5q11 0 13-12l7-52q7-53 14-107t7-58q0-17-21-17-19 0-22 6.5t-7 41.5q-5 38-27 67-35 44-89 72.5t-120 28.5q-111 0-192.5-84t-81.5-220z" />
<glyph unicode="&#x44;" glyph-name="D" data-tags="D" horiz-adv-x="726" d="M307 254q122 0 212 73.5t90 201.5q0 76-32 146.5t-91 114.5q-87 63-213 63-43 0-55.5-6t-12.5-26v-521q0-19 8-27.5t29-12.5q33-6 65-6zM11 875q0 21 23 21h186q200 0 297-45 83-39 139-116t56-179q0-129-90-226t-207-119q-36-6-91-6h-290q-24 0-24 29 0 6 1 9.5t4.5 6 7 4 11 2 13.5 1 18 0.5 21 1q17 1 22.5 9.5t5.5 27.5v518q0 25-13.5 31t-53.5 7h-17q-19 0-19 24z" />
<glyph unicode="&#x45;" glyph-name="E" data-tags="E" horiz-adv-x="591" d="M446 730q29 0 29-29v-189q0-29-29-29-27 0-27 22v55q0 23-27 23h-141q-11 0-18-1t-15.5-4.5-12.5-12.5-4-23v-235q0-11 1.5-17.5t9-13 21.5-8.5q45-7 96-7 34 0 84 6t63 16q9 7 36 55.5t35 53.5q6 3 10 3 7 0 12.5-6t5.5-17v-1q0-9-31-146-2-12-8.5-16t-22.5-4h-352q-46 0-85.5-6t-41.5-6q-12 0-18.5 11.5t-6.5 18.5q0 11 8 16t40 17q18 7 30 11 23 8 23 40v534q0 11-5 14t-23 6q-9 1-22 2t-19.5 2-13.5 3.5-10 7.5-3 14q0 23 20 23h471q17 0 22-17 4-19 11.5-53t13-57.5 5.5-25.5q0-15-21-15-16 0-29 18-45 79-51 86-9 9-29 9h-193q-20 0-25.5-10t-5.5-29v-154q0-23 20-23h157q11 0 18 1.5t14 9.5 7 23v32q0 22 27 22z" />
<glyph unicode="&#x46;" glyph-name="F" data-tags="F" horiz-adv-x="553" d="M461 700q0-3-1-15.5t-2-34-1-46.5q0-26 1-47.5t2-34 1-14.5q0-27-28-27-4 0-7 0.5t-5.5 2.5-4.5 4-3 6l-2 8t-2 11-1.5 12.5-1.5 15.5-2 18q-1 15-18 15h-167q-10 0-15.5-5t-6-10-0.5-14v-254q0-12 1.5-18t11-12.5 29.5-7.5h38.5t14.5-0.5 12.5-1l9-1t7-2.5 4.5-4 3-5.5 1-8.5v-10q0-21-18-21l-19 2q-20 1-53 2.5t-66 1.5q-21 0-42.5-0.5t-37.5-1.5-29-2-20.5-1.5-8.5-0.5q-24 0-24 23 0 6 1 10.5t3.5 7.5 4.5 4.5 8.5 2.5 10.5 1.5 14 1 17 1.5q19 2 24.5 9.5t5.5 22.5v543q0 6-0.5 10t-2 7-3 5-5.5 3.5-6.5 2.5-9 1.5-10.5 0.5-13.5 0.5-15.5 0.5q-24 0-24 22 0 31 19 31 3 0 14-1.5t30.5-2.5 41.5-1q17 0 77 1.5t89 1.5h199q28 0 34-25 2-10 8.5-38t11-48.5 4.5-23.5q0-10-6-16.5t-15-6.5q-17 0-49 59-10 16-15 26-8 13-15 17t-21 4h-189q-13 0-20-6t-8-12.5-1-18.5v-171q0-15 15-15h171q4 0 6.5 0.5t5 1.5 3.5 2 2.5 4 2.5 5.5 2 8 1.5 10 2 13 2.5 15.5q4 28 24 28 10 0 17-6t7-15z" />
<glyph unicode="&#x47;" glyph-name="G" data-tags="G" horiz-adv-x="707" d="M375 180q-145 0-252 113.5t-107 273.5q0 154 100.5 257.5t243.5 103.5q42 0 82-10t63.5-22 42-23.5 20.5-11.5h4q11 0 26.5 19.5t18.5 20.5q5 3 13 3 14 0 14-14v-28q0-29 1-59t3-52 3.5-39.5 2.5-27.5 1-11q0-16-29-16-14 0-17 9.5t-10.5 37-28.5 56.5q-39 53-98 86t-124 33q-41 0-79.5-16t-73-49-55.5-93.5-21-139.5q0-96 26-167t68.5-108 85.5-54 87-17q58 0 109 24t60 42q3 6 3 18v115q0 20-13 26t-54 9q-18 1-29 2-29 2-29 24 0 23 23 23 3 0 16.5-1t37-2 51.5-1h2q29 0 54 1t39 2 17 1q13 0 19.5-6.5t6.5-14.5q0-17-25.5-26t-28.5-21q-1-3-1-11v-173q0-20-14-20-6 0-16.5 10.5t-14.5 10.5q-6 0-14-8-90-79-210-79z" />
<glyph unicode="&#x48;" glyph-name="H" data-tags="H" horiz-adv-x="780" d="M162 205q-19 0-39-0.5t-34.5-1.5-26-2-18.5-1.5-8-0.5q-21 0-21 28 0 19 45 21 15 1 25 2 17 1 22 9.5t5 23.5v542q0 8-2 13.5t-4.5 9-9 5.5-9.5 2.5-13.5 2-14.5 1.5q-3 1-14 1.5t-16 2-10 6-5 12.5 6 17.5 18 9.5q3 0 18.5-0.5t42.5-1 59-0.5h3q33 0 60.5 0.5t43.5 1 19 0.5q16 0 19-21 0-2 0.5-5t0.5-4q0-12-10.5-15.5t-45.5-5.5q-14 0-22-1-23-1-23-30v-169q0-15 13-15h346q18 0 18 19v151q0 36-22 44-9 4-29.5 4.5t-32 4.5-11.5 19q0 24 25 24 3 0 16.5-0.5t37-1 51.5-0.5q20 0 41 0.5t37 1.5 28.5 1.5 20 1 8.5 0.5q19 0 19-21 0-6-1-10.5t-4.5-8-7-5.5-10.5-3.5-12.5-2-16.5-2-19-2.5q-27-3-27-29v-543q0-31 28-33 6 0 15.5-0.5t14.5-1 11.5-1.5 10-2.5 6.5-4 4.5-6.5 1.5-10q0-26-21-26-1 0-8 0.5t-18.5 1.5-26.5 2-34 1.5-38 0.5-38-0.5-33.5-1.5-25.5-2-18-1.5-8-0.5q-17 0-17 20 0 6 0.5 9.5t2 7 2.5 5 5 3 7 2.5 9.5 1.5 12 1 16 1 18.5 1.5q20 1 25.5 10t5.5 29v277q0 12-14 12h-349q-15 0-15-18v-277q0-9 1.5-14t13-11.5 34.5-8.5q2 0 13.5-1t17.5-2 12.5-6 6.5-13q0-29-16-29-1 0-7.5 0.5t-18.5 1.5-26.5 2-33.5 1.5-38 0.5z" />
<glyph unicode="&#x49;" glyph-name="I" data-tags="I" horiz-adv-x="330" d="M53 901l17-1q17-1 45-2.5t56-1.5q29 0 53 1t37.5 2 16.5 1q17 0 17-19 0-5-0.5-8.5t-1-6.5-2.5-5l-3.5-3.5t-5.5-2.5-6.5-2-8.5-1.5-10-1-12.5-1-14.5-1.5q-16-1-16-17v-553q0-24 18-26 10-1 22-1.5t19-0.5 14.5-1 11.5-2 7.5-3 5-6 1.5-9q0-30-20-30-1 0-8 0.5t-19.5 1.5-27.5 2-35 1.5-40 0.5-40-0.5-35.5-1.5-27.5-2-19.5-1.5-8.5-0.5q-16 0-18 23-1 3-1 10 0 12 8.5 15t40.5 5q22 1 37 2 22 1 22 29v532q0 3 0.5 8.5t0.5 6.5q0 13-8 16t-36 4q-15 0-24 1-23 2-23 22 0 28 22 28z" />
<glyph unicode="&#x4a;" glyph-name="J" data-tags="J" horiz-adv-x="323" d="M169 896q32 0 59 1t42.5 2 18.5 1q17 0 17-20 0-7-1-12t-4-8-5.5-5-9-3.5-11.5-1.5-15.5-1-18.5-2q-27-2-27-35v-550q0-60-25-114t-65-93q-9-9-26-22.5t-47.5-29-52.5-15.5q-35 0-58.5 25t-23.5 54q0 21 13 35.5t33 14.5q17 0 30.5-10.5t21-23.5 19.5-23.5 27-10.5q35 0 52 63 9 33 9 66v636q0 7-1.5 12t-3 8.5-6.5 6-8.5 4-12 2.5-14 1.5-17.5 1.5-20 2q-23 3-23 22 0 27 23 27 1 0 8-0.5t19-1 27-1.5 34.5-1.5 38.5-0.5h4z" />
<glyph unicode="&#x4b;" glyph-name="K" data-tags="K" horiz-adv-x="669" d="M287 199q-1 0-8 0.5t-19 1.5-27 2-35 1.5-39 0.5-38.5-0.5-34.5-1.5-27-2-19-1.5-8-0.5q-18 0-18 23 0 6 1.5 10.5t5 7.5 6.5 4.5 9 2.5 9.5 1.5 11.5 1 11 0.5q26 2 36 11.5t10 38.5v509q0 7-1 13t-1.5 10.5-3.5 8-4 6-6.5 4.5-7.5 3-10 2-10.5 1.5-13.5 1.5-15 1q-29 2-29 25 0 9 7.5 17t22.5 8q3 0 17.5-1.5t40-2.5 55.5-1h1q30 0 55.5 1t39.5 2.5 17 1.5q16 0 23-9t7-18q0-14-14-18t-35.5-4-29.5-4q-15-8-15-34v-222q0-17 13-17 8 0 27 21 21 23 71.5 79.5t81.5 91.5 33 39q8 10 8 22 0 15-10.5 21.5t-23 6.5-23 5-10.5 17q0 21 23 21 3 0 17-0.5t38-1 53-0.5h6q27 0 50 0.5t36 1 16 0.5q29 0 29-21 0-13-13.5-18.5t-39-9.5-38.5-9q-11-5-22.5-13t-17.5-14-18-19.5-16-17.5q-178-192-181-197-2-4-2-7 0-8 8-16 278-293 283-296 2-2 6-5 18-12 39.5-15t29.5-11q7-9 7-16 0-8-7.5-15.5t-22.5-7.5q-5 0-18.5 2t-29.5 2h-25t-19.5 0.5-13.5 0.5-11.5 1.5-8 2.5-8 4.5-6.5 7-9 9.5q-69 80-157 181-75 87-89 102t-21 15h-1q-14 0-14-21v-216q0-6 0.5-10.5t1.5-8.5 3.5-6.5 4-4.5 6.5-3.5 8-2.5 11-1.5 12.5-1 16-1 18.5-1.5q22-3 22-22 0-29-20-29z" />
<glyph unicode="&#x4c;" glyph-name="L" data-tags="L" horiz-adv-x="576" d="M155 896q33 0 61 0.5t44 1.5 19 1q11 0 14-6.5t3-20.5q0-24-23-24-10 0-21.5-0.5t-17.5-0.5h-13.5t-11.5-0.5-8-2-6-3.5-3.5-5.5-2-7.5-0.5-10v-519q0-33 27-33h199q38 0 56 28 5 8 22.5 46t20.5 41q6 8 15 8 5 0 11-1.5t13-7 7-14.5q0-8-20-145-1-7-2.5-11t-8-7.5-17.5-3.5q-3 0-27 0.5t-64 1.5-90 2-116 1.5-130 0.5h-54q-17 0-17 16 0 13 8.5 17.5t39.5 10.5q6 1 9 2 23 6 23 33v541q0 6-0.5 9.5t-2 6.5-4 4.5-5.5 2-7.5 1-10 0.5h-27.5q-26 2-26 25 0 25 20 25 4 0 18-0.5t40.5-1.5 57.5-1h8z" />
<glyph unicode="&#x4d;" glyph-name="M" data-tags="M" horiz-adv-x="1021" d="M738 199q-19 0-19 24 0 15 11 19.5t35 6.5q16 1 25.5 3t19 7 14 15.5 4.5 26.5v222q0 155-3 164-1 6-7 6-7 0-14-12-39-63-102.5-178.5t-110.5-203.5-54-97q-10-12-23-12-18 0-36 37-50 103-114.5 217t-105.5 180-46 69q-1 1-3 1-4 0-4-5-6-108-6-213 0-87 4-183 2-29 8-34 10-7 33.5-7t40-5.5 16.5-24.5q0-23-18-23-1 0-8 0.5t-18.5 1.5-25.5 2-33.5 1.5-37.5 0.5-37.5-0.5-33.5-1.5-25.5-2-18.5-1.5-8-0.5q-19 0-19 22 0 7 1.5 11.5t5 8 7 5 11.5 3 13.5 2.5 17.5 2 20 2 14 3.5 9 5 5 9 2.5 10 1.5 13 1 13.5q26 315 26 458 0 12-12 26-1 1-13 15.5t-20 22-26 16-39 8.5q-20 3-20 19 0 10 3.5 15.5t6.5 6 8 0.5h147q18 0 26-13l194-324 119-190q6-12 18-12 9 0 14 11l278 519q5 9 18 9h149q5 0 7.5-0.5t5-6 2.5-15.5q0-8-2.5-13t-10-8-15.5-4.5-23-5-29-7.5q-25-6-25-30 2-170 3.5-287t2-154.5 0.5-56.5v-7q0-17 1-24.5t9-15.5 25-10q7-1 17.5-1.5t15.5-1 12-1.5 9.5-3 6-5 4.5-7.5 1-10.5q0-10-6-16t-15-6l-19 2q-19 1-50.5 2.5t-62.5 1.5q-20 0-40-0.5t-35-1.5-27.5-2-19.5-1.5-8-0.5z" />
<glyph unicode="&#x4e;" glyph-name="N" data-tags="N" horiz-adv-x="818" d="M153 760v4q0 14-34 45-40 40-91 44-19 0-19 23 0 26 23 26h126q25 0 41-19l160-186 94-105q188-204 196-209 2-2 4-2 7 0 7 10 0 12 1 34.5t1.5 41 0.5 34.5q0 138-10 305-1 30-14 38t-52 12q-23 3-23 22 0 9 7 16.5t23 7.5q2 0 14.5-0.5t35-1.5 48.5-1 47.5 1 34 1.5 14.5 0.5q22 0 22-23 0-8-2-13t-8-7.5-9.5-3-13.5-1-14-0.5q-26-2-35.5-16t-10.5-55q-4-174-4-266 0-76 1-141t2-101.5 1-44.5q0-49-21-49-12 0-50 43l-212 242q-225 250-227 250l-4-4q-14-210-14-364v-29q0-41 8-53t39-14q38 0 62-7 13-6 13-27 0-19-17-19-1 0-8 0.5t-18.5 1.5-26.5 2-34 1.5-38 0.5q-30 0-60-1.5t-48-2.5l-18-2q-21 0-21 20 0 22 15 27 6 2 27.5 3.5t37 8 22.5 21.5q4 10 19 287 6 118 10 194z" />
<glyph unicode="&#x4f;" glyph-name="O" data-tags="O" horiz-adv-x="796" d="M778 550q0-159-107.5-264.5t-259.5-105.5q-75 0-147 29t-127 82q-117 113-119 275 0 155 111.5 265.5t266.5 110.5q162 0 272-116t110-276zM116 598q0-68 18.5-131t53.5-114 92-82 127-31q47 0 92 16t86 48.5 66.5 91.5 25.5 136q0 81-27.5 158.5t-85.5 128.5q-78 69-184 69-49 0-95-17.5t-84.5-51-61.5-91-23-130.5z" />
<glyph unicode="&#x50;" glyph-name="P" data-tags="P" horiz-adv-x="585" d="M487 715q0 66-61.5 110t-166.5 44q-40 0-51-3t-11-13v-292q0-8 5.5-10t31.5-2q113 0 183 46t70 120zM71 904q51 0 130 5.5t113 5.5q131 0 200-62 59-54 59-133v-1q-1-55-30-97.5t-74-66.5q-74-42-230-42h-31q-13 0-13-16v-208q0-18 6.5-26.5t25.5-9.5q91-4 97-6 14-4 14-23v-1q0-24-20-24l-20 2q-20 1-54 2.5t-67 1.5q-34 0-68-1.5t-54-2.5l-20-2q-21 0-21 24 0 4 0.5 7.5t1 6 2.5 4.5l3.5 3.5t5 2.5 6 1.5 8 1 10 1 12.5 1 15 1.5q17 2 22.5 8.5t5.5 19.5v548q0 8-0.5 12.5t-6 9-15.5 4.5h-37q-7 0-11 1t-8.5 7.5-4.5 18.5q0 22 22 22h26z" />
<glyph unicode="&#x51;" glyph-name="Q" data-tags="Q" horiz-adv-x="770" d="M417 238q107 0 180.5 83.5t73.5 220.5q0 82-27.5 161.5t-87.5 131.5q-72 61-171 61-106 0-185.5-77.5t-79.5-212.5q0-91 35.5-174t105-138.5 156.5-55.5zM467 194l-23-3q-24-2-46-2-77 0-147.5 30t-121.5 82q-109 111-109 266 0 75 30.5 147.5t84.5 125.5q108 106 262 106 149 0 252-102 54-54 83.5-126t29.5-148q0-104-52-198.5t-135-151.5q-3-3-3-5t3-4q40-28 85-74.5t68-61.5q43-28 87-28 8 0 14.5 0.5t7.5 0.5q12 0 12-10 0-13-30-27t-61-14q-17 0-32.5 3t-31.5 11-26 13.5-26 19.5-21.5 19-22 22-19.5 20q-89 89-112 89z" />
<glyph unicode="&#x52;" glyph-name="R" data-tags="R" horiz-adv-x="712" d="M449 713q0 63-52 109.5t-128 46.5q-47 0-61-11-6-4-6-16v-1l1-2v-241q0-13 10-15.5t57-2.5q58 0 95 14 35 14 59.5 45t24.5 74zM290 908q65 0 114-17.5t74.5-45 37.5-56.5 12-59q0-66-41-112t-75-58q-5-3-5-5t2-4q55-64 93.5-119.5t60-91.5 35.5-52q29-33 55-33 15 0 27 11.5t17 11.5q11 0 11-12 0-17-25.5-45.5t-64.5-28.5q-52 0-108 74l-102 146q-87 122-95 127-5 4-17 4h-75q-14 0-14-15v-240q0-30 26-33 9-1 21-2t18.5-1.5 15-1 13-1.5 10-2.5 8-3.5 4.5-5.5 3-7.5 1-9q0-22-21-22-1 0-8.5 0.5t-19.5 1.5-27.5 2-36 1.5-40.5 0.5-40.5-0.5-35.5-1.5-27.5-2-19.5-1.5-8-0.5q-18 0-18 28 0 4 0.5 7t2 5 3 3.5 5 2.5 6.5 2 9 1.5 10 0.5 12.5 0.5 14.5 1.5q17 2 22.5 10.5t5.5 25.5v529q0 23-13 28.5t-73 15.5q-16 3-16 17 0 19 14 19h35q48 0 122 6t105 6z" />
<glyph unicode="&#x53;" glyph-name="S" data-tags="S" horiz-adv-x="503" d="M33 733q0 70 52 121.5t131 51.5q37 0 66.5-10.5t46-20.5 19.5-10q6 0 17.5 20.5t25.5 20.5q7 0 12-5.5t5-13.5q0-2-1-13t-2.5-30.5-1.5-41.5 1.5-41 2.5-29.5 1-12.5q0-15-18-15h-1q-14 0-21 10.5t-18.5 35.5-31.5 48q-51 57-112 57-42 0-71-28t-29-68q0-55 53-93 31-23 101-40t93-27q58-25 93.5-74.5t35.5-116.5q0-92-65-156t-159-64q-92 0-156 56-16 14-31 14-5 0-14-1.5t-13-1.5q-18 0-18 16 0 3 3.5 20t9.5 56 10 90q2 22 23 22 16 0 19.5-9t8.5-50q1-13 2-25t1.5-17 0.5-9 2-7.5 3-5.5 7-9.5 11-13.5q51-68 132-68 61 0 105 41t44 101q0 69-60 113-34 25-103 41.5t-90 25.5q-60 24-91 68.5t-31 97.5z" />
<glyph unicode="&#x54;" glyph-name="T" data-tags="T" horiz-adv-x="708" d="M506 199l-20 2q-19 1-52.5 2.5t-66.5 1.5q-21 0-42.5-0.5t-38-1.5-29.5-2-21-1.5-9-0.5q-20 0-20 26 0 16 8.5 20t39.5 6q17 1 27 2 21 2 27.5 11t6.5 27v519q0 10-1 15t-7.5 11-18.5 6h-153q-19 0-26-4.5t-13-16.5q-42-83-45-87-7-8-17-8t-16.5 7.5-6.5 18.5v1q0 4 30 141 3 16 21 16h597q17 0 21-24 25-130 25-131 0-9-6-16t-14-7q-12 0-23 20-6 10-13 22.5t-10.5 19-8 15-7.5 12-6 8-5.5 6-5.5 3.5-6.5 2.5l-7 1t-8.5 0.5h-151q-10 0-15.5-5t-6-9.5-0.5-13.5v-536q0-16 9.5-20t50.5-7q21-2 33-3 11-1 14.5-7t3.5-22q0-20-17-20z" />
<glyph unicode="&#x55;" glyph-name="U" data-tags="U" horiz-adv-x="774" d="M760 884q0-14-11-18.5t-23.5-4.5-23.5-16.5-11-53.5q0-2-0.5-6t-0.5-5v-232q0-8 0.5-24t0.5-24v-33q0-33-2.5-58.5t-11-58.5-28-61-49.5-49q-71-50-193-50-69 0-124.5 15t-86 34.5-53.5 47-30.5 44-12.5 34.5q-13 47-13 131 0 13 0.5 39t0.5 39v258q0 6-0.5 10.5t-3.5 7-4 4.5-7 3-7.5 1.5-10 1.5-10.5 1q-28 4-28 25 0 25 21 25 3 0 16-1t36.5-2 50.5-1h6q29 0 54 1t39 2 17 1q19 0 19-27 0-8-2-13t-8.5-7-12-3-18.5-2-22-2q-33-4-33-36v-320q0-68 12-115t51-82q61-56 184-56 143 0 187 93 20 42 20 114v14q0 11-0.5 32t-0.5 32v278q0 18-3 28.5t-15.5 15.5-18.5 6-32 4q-22 2-22 23 0 23 19 23 2 0 14-1t32-2 44-1 44 1 32 2 14 1q19 0 19-27z" />
<glyph unicode="&#x56;" glyph-name="V" data-tags="V" horiz-adv-x="849" d="M46 911q3 0 18-1t41-2 56-1q29 0 53.5 1t38 2 16.5 1q19 0 19-20 0-17-8-21.5t-38-8.5q-8-1-12-2-27-3-27-26 0-9 6-21 48-107 105.5-219.5t92-173 39.5-66.5q4-4 10-4t11 9q121 219 205 446 6 18 6 23 0 22-23 30-9 3-27.5 3t-28.5 4.5-10 20.5q0 26 22 26 3 0 16.5-1t37.5-2 51-1q28 0 51.5 1t36.5 2 16 1q23 0 23-28 0-15-12-19t-32.5-8.5-33.5-18.5q-11-12-39.5-81.5t-98.5-223-165-327.5q-12-20-26-20t-26 20q-90 158-158.5 284t-98 187-49 102.5-26 54.5-15.5 19q-3 2-16.5 8t-22 13-8.5 17q0 21 30 21z" />
<glyph unicode="&#x57;" glyph-name="W" data-tags="W" horiz-adv-x="1026" d="M39 911q2 0 14.5-1t35-2 48.5-1q25 0 47 1t34.5 2 14.5 1q19 0 19-26 0-13-8.5-18t-20-4-24-1-18.5-9q-5-6-5-13t3-13q53-168 160-454 7-18 15-18 7 0 15 17.5t55 137.5q24 62 40 101 2 8 2 12v1q0 6-68 202-9 28-16.5 32t-54.5 6q-18 0-18 23 0 24 24 24 3 0 16.5-1t37-2 51.5-1h1q27 0 51 1t37.5 2 16.5 1q17 0 17-23 0-14-7.5-17.5t-36.5-6.5q-32-4-32-25 0-3 2-13 33-100 76-212t72.5-182.5 36.5-80.5q7-9 12-9h1q10 0 16 19 46 97 87.5 210t61.5 182 20 83q0 6-1 9.5t-4.5 6.5-6.5 4.5-10 2.5-12 1.5-15.5 1.5-17.5 2q-21 2-21 24 0 23 19 23 3 0 16-1t36.5-2 50.5-1h1q26 0 49.5 1t36.5 2 16 1q17 0 17-24 0-13-9-18.5t-20.5-5.5-25-5-20.5-18q-1-2-11.5-32.5t-30.5-85.5-47-124.5-68.5-167.5-88.5-198q-22-50-41-50-25 0-44 55-44 110-89 227-33 83-36 83t-5-4q-35-91-80-209-41-107-49.5-126t-15.5-22h-1q-6-4-9-4-7 0-12 3.5t-9 10.5-7 13-6.5 16-5.5 15q-39 96-74.5 190t-59.5 163.5-41.5 123-28 87.5-11.5 37q-7 18-31 19t-29 8q-5 5-5 14 0 11 6.5 20t19.5 9z" />
<glyph unicode="&#x58;" glyph-name="X" data-tags="X" horiz-adv-x="680" d="M160 907q31 0 56.5 1t40 2 17.5 1q10 0 15-6t5-24q0-11-11-15t-25-3.5-25-5.5-11-20q0-7 12-31 112-182 115-183 2 0 4 2 15 21 31.5 44t26.5 37 21 29 17 24 12.5 18.5 9.5 15 6 11.5 4.5 10 2 8 0.5 9q0 7-1 12t-5 8.5-6 5.5-9 3-10 1.5-12.5 1-12.5 0.5q-27 2-27 30 0 18 17 18 3 0 18-1t42-2 58-1q32 0 58.5 1t42 2 18.5 1q19 0 19-19 0-18-9-25t-21-6-31-2-33-14q-12-9-34-36.5t-30-39.5q-133-188-133-192 0-5 176-283 19-30 30-35t58-10q27-4 27-29 0-21-18-21-1 0-8 0.5t-19.5 1.5-28 2-36 1.5-40.5 0.5-40-0.5-35.5-1.5-27.5-2-19.5-1.5-8.5-0.5q-19 0-19 21t19 26q6 1 42 6 23 4 23 23v2q0 10-72 124-36 57-60 96 0 3-3 3-4 0-141-198-11-15-11-26 0-15 10.5-19.5t42.5-7.5q6-1 10-1 28-5 28-27t-18-22q-1 0-7 0.5t-17 1.5-24 2-30 1.5-34 0.5q-27 0-53.5-1.5t-42.5-2.5l-16-2q-15 0-15 19 0 5 0.5 8.5t0.5 6 2 5 2.5 4 4 2.5 5 2 6.5 2l7.5 1.5t10 1.5 11.5 2q7 1 13 3t10.5 4 10 6.5 8.5 7 9.5 10.5 9.5 12 11.5 16.5 13.5 19.5q151 211 151 214 0 4-163 264-22 35-35 41.5t-50 9.5q-26 2-26 27 0 23 21 23 3 0 18-1t42-2 58-1h3z" />
<glyph unicode="&#x59;" glyph-name="Y" data-tags="Y" horiz-adv-x="683" d="M485 862q-16 1-24 2t-15 7.5-7 18.5q0 7 5.5 14t16.5 7q2 0 14-1t32.5-2 44.5-1h3q24 0 45 1t32 2 14 1q15 0 22-6.5t7-14.5q0-10-7.5-16.5t-21.5-16.5-24-23l-149-192q-17-23-34.5-46.5t-26.5-36-18.5-24.5-13-18-7.5-11.5-4.5-10.5-1-8.5-0.5-10.5v-199q0-15 11-18.5t61-5.5q25-1 40-2 23-1 23-24v-9q0-19-17-19l-21 2q-20 1-54.5 2.5t-68.5 1.5q-22 0-44.5-0.5t-39.5-1.5-30.5-2-21.5-1.5-9-0.5q-26 0-26 29 0 4 0.5 7.5t1 6 3 4 4 2.5 6 2 8 1.5 10 0.5 13 0.5 16 0.5 18.5 1l4 1h5.5t4 0.5 4.5 1 4 1.5 3.5 3 2 4 2 5 0.5 7v212q0 9-2 16.5t-3 10.5-7.5 14-9.5 15q-94 151-163 262-23 36-25 40-10 13-30 14.5t-25 12.5q-4 6-4 14 0 9 6.5 16t19.5 7q3 0 17.5-1t40-2 55.5-1 55 1 39 2 17 1q19 0 19-21 0-5-0.5-9t-2-7-3-5-5.5-3.5-6.5-2-9-1.5-11-1-13.5-0.5-16-1.5q-27-3-27-23v-2q0-7 49-91 52-91 97-168 9-15 14-15 2 0 8 6 148 204 162 227 18 32 18 43 0 16-9 20.5t-33 5.5h-7z" />
<glyph unicode="&#x5a;" glyph-name="Z" data-tags="Z" horiz-adv-x="644" d="M16 728q0 4 2 24t4.5 55 2.5 75v38q0 28 21 28 16 0 27-24 9-28 56-28h446q25 0 25-18 0-8-53-78-24-31-39-51l-149-187q-113-138-163-227-6-9-6-15 0-16 18.5-20.5t84.5-8.5q49-3 100-3h22q67 0 100 10.5t51 51.5q6 16 14 58.5t11 48.5q7 10 19 10 8 0 16.5-7.5t8.5-21.5v-1q0-19-2-35t-5-36-5-35q-1-15-2.5-40t-3-35.5-5-24-10.5-19.5-19-7h-538q-29 0-29 22 0 8 9 19 204 288 432 540 14 16 14 22 0 11-14 11h-331q-9 0-15-0.5t-11.5-2.5-9-3-7-7-5.5-8.5-5-12.5-4-15.5-5-20.5-6-24q-6-22-21-22-8 0-14.5 6t-6.5 19z" />
<glyph unicode="&#x5b;" glyph-name="bracketleft" data-tags="bracketleft" horiz-adv-x="387" d="M128 46q0-5 4-5 1 0 8 4.5t21 10.5 32 9q4 1 4 6v799q0 5-6.5 7t-23 6.5-32.5 14.5q-2 2-4 2-3 0-3-5v-849zM106 967q8 0 22.5-9t39.5-18.5 59-9.5q30 0 59.5 7.5t47.5 15.5l17 7q5 0 9-6.5t4-10.5q0-7-14-22.5t-43-31-62-15.5q-6 0-6-7l1-792q0-7 4-9t11.5-2.5 24-5.5 34.5-16q19-12 33.5-26.5t14.5-22.5q0-13-12-13-2 0-19.5 9t-49 18-65.5 9q-31 0-58-6.5t-42-13-18-6.5q-16 0-16 22v424q0 8-4 8-1 0-9-5.5t-16-5.5q-29 0-29 42 0 37 29 37 8 0 15.5-3.5t8.5-3.5q4 0 4 7v420q0 35 25 35z" />
<glyph unicode="&#x5c;" glyph-name="backslash" data-tags="backslash" horiz-adv-x="240" d="M238 0q0-9-13-17.5t-19-8.5q-11 0-11 11-192 829-192 830 0 8 12.5 15.5t19.5 7.5q10 0 15-16 41-205 88.5-408.5t73.5-305.5 26-108z" />
<glyph unicode="&#x5d;" glyph-name="bracketright" data-tags="bracketright" horiz-adv-x="387" d="M259 46v849q0 5-3 5-2 0-4-2-11-7-21.5-11.5t-17.5-5.5-12.5-2.5-8-3-2.5-5.5v-799q0-5 5-6 18-3 32-9t20.5-10.5 7.5-4.5q4 0 4 5zM281 967q25 0 25-35v-420q0-7 4-7 1 0 8.5 3.5t15.5 3.5q30 0 30-37 0-42-30-42-8 0-16 5.5t-9 5.5q-4 0-4-8v-424q0-22-16-22-3 0-18 6.5t-42 13-58 6.5q-34 0-65.5-9t-49-18-19.5-9q-12 0-12 13 0 8 14.5 22.5t33.5 26.5q18 11 34.5 16t24 5.5 11.5 2.5 4 9l1 792q0 7-6 7-33 0-62 15.5t-42.5 31-13.5 22.5q0 5 3.5 11t8.5 6l18-7q17-8 46.5-15.5t59.5-7.5q34 0 59 9.5t39.5 18.5 22.5 9z" />
<glyph unicode="&#x5e;" glyph-name="asciicircum" data-tags="asciicircum" horiz-adv-x="433" d="M75 678q-10 0-16.5 7t-6.5 16q0 8 7 20 110 186 119 198 9 11 21 16 7 3 15 3 5 0 9-1.5t7.5-3 7.5-5 6.5-5.5 6.5-7 5-6.5 4.5-7 4.5-6.5q32-50 71-113 46-72 46-83 0-10-7.5-17t-17.5-7q-5 0-10.5 2.5t-9.5 5-9 8-7.5 8.5-8 10-6.5 9q-81 103-82 105-3 2-7 2h-1q-5-1-27-27-6-8-26-32l-40-50q-3-3-8-9.5t-8-9.5l-7.5-7.5t-7.5-7-7.5-4-9.5-1.5z" />
<glyph unicode="&#x5f;" glyph-name="underscore" data-tags="underscore" horiz-adv-x="539" d="M28 154v4q0 25 14 25h457q14 0 14-25v-2q0-29-14-29h-457q-14 0-14 27z" />
<glyph unicode="&#x60;" glyph-name="grave" data-tags="grave" d="M8 885q0 17 11.5 27.5t26.5 10.5h1q28 0 56-43 32-47 70-104 38-56 38-65 0-8-6-14.5t-14-6.5h-2q-7 0-14.5 6.5t-58.5 59.5q-47 47-82 83-26 26-26 46z" />
<glyph unicode="&#x61;" glyph-name="a" data-tags="a" horiz-adv-x="433" d="M30 558q0 30 48.5 60.5t108.5 30.5q19 0 39-4t45.5-14 43-34.5 21.5-59.5q2-24 2-37v-202q0-18 7-29t14-13.5 14-2.5q14 0 22 8.5t12.5 17 10.5 8.5q9 0 9-13 0-24-22-52.5t-57-28.5q-13 0-25 4t-20 10.5-14.5 12.5-10.5 11l-3 4q-1 0-1 0.5t-1 0.5q-2 0-3-2t-7-8-17-13q-45-28-95-28-52 0-84.5 33t-32.5 81v1q0 58 43 91 15 12 39 21.5t47.5 14.5 44.5 8.5 35 4.5l14 1q8 2 8 14v37q0 53-24 82-25 27-60 27-54 0-88-68-9-12-22-12-16 0-28.5 10t-12.5 27zM175 241q23 0 43.5 10t28.5 18 13 14q6 8 6 23v67q0 19-1.5 24.5t-8.5 5.5q-25 0-62.5-8t-59.5-29q-24-20-24-56 0-38 21-56 14-13 44-13z" />
<glyph unicode="&#x62;" glyph-name="b" data-tags="b" horiz-adv-x="497" d="M145 609q0-6 5-6 2 0 19 10.5t49.5 21 70.5 10.5q90 0 144.5-62.5t54.5-163.5q0-39-9-75.5t-41.5-77-85.5-60.5q-54-20-114-20-27 0-57 9.5t-43 9.5q-18 0-32-11t-19-11q-16 0-16 31 0 60 1.5 299.5t1.5 299.5q0 14-13 23-7 4-14 8.5t-11.5 7-9.5 5.5-7.5 5-5.5 4l-4.5 3t-2.5 2.5-1.5 3-0.5 2.5q0 8 13 13 113 45 117 45 14-2 14-20 0-34-1.5-164t-1.5-142zM424 402q0 83-51 136t-120 53q-36 0-73.5-17t-37.5-33v-262q0-1-0.5-3.5t-0.5-3.5q0-19 15-25 48-19 94-19 78 0 126 48.5t48 125.5z" />
<glyph unicode="&#x63;" glyph-name="c" data-tags="c" horiz-adv-x="390" d="M214 187q-88 0-142.5 62t-54.5 158q0 105 61 170.5t159 65.5q54 0 92-23t38-53q0-17-12-27.5t-29-10.5q-22 0-57.5 30.5t-66.5 30.5q-47 0-82-47t-35-111q0-73 46.5-126.5t115.5-53.5q27 0 49.5 8.5t34 19 23 19 18.5 8.5 12-5 5-12q0-8-6-16-27-37-71-62t-98-25z" />
<glyph unicode="&#x64;" glyph-name="d" data-tags="d" horiz-adv-x="505" d="M244 597q-76 0-117-46t-41-125q0-87 58-138t120-51q31 0 60.5 12.5t35.5 31.5q4 16 4 23v230q0 13-11 24-42 39-109 39zM246 638q30 0 56-3.5t40-7.5l14-4q8 0 8 9v172q0 3-0.5 5.5t-1 4.5-2 4-2.5 3-4.5 3-6 3.5-8 3.5-10 4-12.5 5-15 6q-19 5-19 16 0 6 9 12 128 62 132 62 12 0 12-14 0-10-1-52.5t-1.5-117-0.5-162.5q0-274 3-301 0-3 0.5-4.5t1.5-3 2.5-2.5 4-1.5 4.5-1 6.5-0.5h8t9.5-0.5 11-0.5q20 0 20-15 0-7-5.5-11t-23-11.5-32.5-16.5q-20-11-36-22.5t-23-17-11-5.5q-8 0-8 11v33q0 3-3 3l-6-4q-5-4-15-10t-23.5-12-34-10-42.5-4q-99 0-161.5 67.5t-62.5 166.5q0 89 57.5 155t170.5 66h1z" />
<glyph unicode="&#x65;" glyph-name="e" data-tags="e" horiz-adv-x="418" d="M23 416q0 104 55 167t134 63q51 0 98-28t78-70q8-10 8-22v-2q0-9-5-16t-16-12.5-19-8.5-23.5-8-19.5-6q-209-72-214-75-4-2-4-6 0-6 3-20t13.5-37 26-42.5 44.5-34 65-14.5q70 0 122 50 14 14 23 14 17 0 17-15 0-6-8-16-32-42-80-66.5t-101-24.5q-34 0-66.5 12t-63 37-49 72-18.5 109zM297 522q0 13-35 40.5t-73 27.5q-45 0-71.5-39t-26.5-107q0-8 5-8 2 0 95.5 36.5t96.5 37.5q9 5 9 12z" />
<glyph unicode="&#x66;" glyph-name="f" data-tags="f" horiz-adv-x="299" d="M34 199q-16 0-16 25 0 10 6.5 13t28.5 6q9 1 14 2 3 0 5.5 1t4 3 2.5 3 1.5 4 0.5 4 0.5 5 0.5 5q4 52 4 293 0 7-6 9t-29 2h-19q-22 0-22 18 0 31 22 31 13 1 30 1 16 0 19 1t3 8v1q3 125 44 197 29 50 83.5 80.5t103.5 30.5q37 0 55.5-16.5t18.5-36.5q0-16-11.5-28t-31.5-12q-14 0-41.5 12.5t-43.5 12.5q-52 0-78.5-63t-26.5-160v-9q0-10 1.5-13t8.5-3h100q23 0 23-21v-1q0-31-27-31h-96q-9 0-9-9v-297q0-23 20-24 8-1 18-1.5t14.5-0.5 10-0.5 8-2 5-3.5 3-5.5 0.5-8.5q0-22-17-22-1 0-6 0.5t-13.5 1.5-19.5 2-25 1.5-28 0.5-28.5-0.5-25-1.5-19.5-2-14-1.5-6-0.5z" />
<glyph unicode="&#x67;" glyph-name="g" data-tags="g" horiz-adv-x="450" d="M191 614q-39 0-64-31.5t-25-81.5q0-59 30-102t76-43q41 0 66 32.5t25 80.5q0 57-30.5 101t-77.5 44zM85 115q0-45 47.5-73t119.5-28q71 0 100.5 22.5t29.5 51.5q0 42-41 61-21 11-49 14.5t-78.5 5-88.5 5.5h-3q-7 0-18-11-19-19-19-48zM23 489q0 65 47.5 112t117.5 47q43 0 83.5-18t45.5-18q32 0 54 32 15 24 29 24t26.5-13.5 12.5-28.5q0-18-15.5-31t-36-21.5-21.5-9.5q-5-5-5-8 0-2 3-10t6-22.5 3-31.5q0-71-49.5-121.5t-120.5-50.5q-20 0-38 4.5t-22 4.5q-14 0-30-17.5t-16-34.5q0-27 43.5-36t111-11 96.5-11q46-13 69.5-44.5t23.5-68.5q0-23-10-46t-32.5-45-66.5-36-104-14q-111 0-155.5 40.5t-44.5 88.5q0 10 2 19.5t5 17 6.5 14 8 12 9 9.5 8.5 7 7 5.5 5 3.5l2 1q2 2 2 5 0 1-9.5 7t-19 20-9.5 34q0 49 57 95l1 1q1 1 1 3 0 4-9 9t-24.5 19.5-28.5 37.5q-19 34-19 75z" />
<glyph unicode="&#x68;" glyph-name="h" data-tags="h" horiz-adv-x="526" d="M300 213v7q0 5 0.5 8t3 5.5 5 3.5 8 2 10 1.5 14 1.5 17.5 2q15 2 18 16t3 73q0 100-12.5 144.5t-36.5 70.5q-37 37-83 37-31 0-58-16.5t-31-33.5q-1-4-1-14 0-246 2-253 3-15 15.5-21t26-5.5 24.5-4.5 11-17q0-21-12-21-1 0-6 0.5t-14 1.5-20 2-25.5 1.5-28.5 0.5q-15 0-29.5-0.5t-26-1.5-20.5-2-14-1.5-6-0.5q-12 0-12 20 0 12 6 15t31 8q11 2 17 8.5t6.5 11 1.5 15.5q5 155 5 281v4q0 227-4 251-2 13-37.5 21t-35.5 22q0 11 17 20 113 65 117 65h1q16 0 16-19l-1-316q0-7 5-7 1 0 17 9.5t44.5 19 59.5 9.5q96 0 137-93 16-38 21.5-85.5t8.5-185.5q0-14 5-21t11-8.5 22-3.5q17-2 17-19 0-22-13-22-1 0-6 0.5t-14 1.5-19.5 2-25.5 1.5-29 0.5-28-0.5-25-1.5-19.5-2-13.5-1.5-6-0.5q-11 0-11 14z" />
<glyph unicode="&#x69;" glyph-name="i" data-tags="i" horiz-adv-x="248" d="M96 329v97t0.5 70.5 0.5 30.5q0 11-7.5 15.5t-61.5 26.5q-13 5-13 13 0 3 1.5 6t5 5 6.5 3.5 8 3.5 7 3q112 54 113 54h1q14 0 14-17l-1-33q-2-33-3.5-88.5t-1.5-110.5v-34q0-95 3-112t20-19q30-4 38-7t8-15q0-22-12-22-1 0-6 0.5t-14 1.5-20 2-25.5 1.5-28.5 0.5-29-0.5-25.5-1.5-19.5-2-14-1.5-6-0.5q-16 0-16 17t6.5 20 44.5 8q18 3 22.5 11.5t4.5 25.5v48zM106 838q0 20 15 34t35 14 34.5-14 14.5-33q0-21-14.5-35t-35.5-14-35 13.5-14 34.5z" />
<glyph unicode="&#x6a;" glyph-name="j" data-tags="j" horiz-adv-x="237" d="M96 309q0 57 0.5 106t1 77.5 0.5 34.5q0 5-0.5 8t-1 5.5-3.5 5.5l-5 5t-8 5.5-10.5 6.5-14.5 9-18 11q-9 4-9 12 0 7 12.5 13t110.5 48q4 2 7 2 10 0 10-17 0-5-0.5-30t-1-69-0.5-96q0-81 1-150.5t2-109 1-48.5q0-23-15-45-14-20-33-42.5t-56-52.5-64-30q-17 0-28 10t-11 25q0 16 12 30t33 14q6 0 16-1.5t15-1.5q8 0 16.5 3t18.5 10.5 16.5 25 6.5 42.5q0 5-0.5 28.5t-0.5 65v90.5zM106 823q0 21 14.5 35t35.5 14q20 0 34.5-13.5t14.5-33.5-15-34.5-35-14.5-34.5 13.5-14.5 33.5z" />
<glyph unicode="&#x6b;" glyph-name="k" data-tags="k" horiz-adv-x="464" d="M229 217q0 13 7.5 18.5t17 5 17 3.5 7.5 14-27 48-51.5 69-27.5 34q0 2-4 2t-16-13-13-17q-1-3-1-11v-106q0-14 7-17t40-7q22-5 22-22t-14-17q-2 0-12 1t-28 2-39 1-39-1-28.5-2-12.5-1q-18 0-18 18 0 12 8 16.5t17.5 4.5 18 5 9.5 17v552q0 16-13 25-45 31-47 33l-4 8q0 10 21 17 97 43 101 43 11 0 11-17v-484q0-4 3-4 4 0 6 4l72 72t13.5 14 8.5 10 5 8.5 2 7.5 1 9q0 17-13.5 27.5t-13.5 15.5v11q0 13 22 13h59q30 0 55.5 1t40 1.5 17.5 0.5q15 0 15-19 0-12-5-16t-23.5-6-30.5-5q-22-6-47-24t-41-34-61-62q-7-7-7-9 0-4 119-146 18-21 29-32.5t31.5-23.5 43.5-15q17-2 17-18 0-21-17-21-1 0-6.5 0.5t-14.5 1.5-20.5 2-26.5 1.5-30 0.5-30-0.5-26.5-1.5-20.5-2-14.5-1.5-6.5-0.5q-14 0-14 17v1z" />
<glyph unicode="&#x6c;" glyph-name="l" data-tags="l" horiz-adv-x="244" d="M233 219q0-20-12-20-1 0-6.5 0.5t-14.5 1.5-20 2-26 1.5-29 0.5-28-0.5-25-1-19.5-1.5-13.5-1.5-6-0.5q-15 0-15 18v3q0 13 6.5 16.5t35.5 6.5q18 2 23.5 11.5t5.5 27.5v521q0 3-0.5 5.5t-1.5 4.5-1.5 3.5-3 3-4 2.5-6 3.5-6.5 3.5q-10 6-21.5 12.5t-16 9.5-9.5 6.5-6.5 6-1.5 5.5v1q0 5 38 25 47 23 88 45 6 4 13 4 14 0 14-19v-648q0-6 0.5-10t1.5-7.5 2-5.5 4.5-4 5-3 7-2.5 8-2 11-1.5 12.5-2q17-3 17-21z" />
<glyph unicode="&#x6d;" glyph-name="m" data-tags="m" horiz-adv-x="740" d="M145 592q1 0 16 11.5t41.5 22.5 53.5 11q14 0 27-3t24-8 20.5-11 16.5-12 12-10.5 8-7.5l3-4q1-1 4-1t5 1 4.5 3.5 11.5 8.5 22 14q51 30 99 30 45 0 83-26.5t55-84.5q12-43 12-120v-130q0-7 0.5-12t3-8.5 3.5-5.5 6.5-4 8-2.5l27.5-5.5q14-2 14-19 0-20-15-20-2 0-13 1.5t-31 3-42 1.5q-23 0-42.5-1.5t-31-3-13.5-1.5q-6 0-11.5 4t-5.5 13q0 14 6.5 17t41.5 10q21 3 21 28v142q0 112-42 149-29 23-64 23-31 0-62-17t-31-30l1-3q0-3 1-9t2-14 1.5-19.5 0.5-23.5v-197q0-1-0.5-4t-0.5-5v-1q0-17 35-20 9-1 15-2 20-3 20-20 0-21-13-21-1 0-6.5 0.5t-14.5 1.5-20 2-26 1.5-29 0.5-29-0.5-26-1.5-20-2-14-2h-6q-14 0-14 22 0 14 38 19 11 2 17 3 17 3 22 11t5 28v189q0 64-33 89t-72 25q-29 0-50-13.5t-28-26.5q-4-10-4-27v-246q0-5 0.5-8.5t1-6 2-5 2.5-4 4.5-2.5 5.5-2 7.5-2 8.5-1.5 10.5-1.5 12.5-2q14-2 14-22 0-16-13-16l-13 2q-12 1-32.5 2.5t-41.5 1.5q-20 0-37-1t-26.5-2-11.5-1q-14 0-14 20 0 11 8.5 15t18.5 4 19.5 6 10.5 20v254q0 13-4.5 19t-25.5 22q-7 5-11 8-9 6-9 12 0 5 5 9.5t30 19.5q27 17 48 30 17 9 19 9 9 0 9-12v-39q0-6 4-6z" />
<glyph unicode="&#x6e;" glyph-name="n" data-tags="n" horiz-adv-x="510" d="M144 591q0-4 3-4h1q1 0 7.5 6t18.5 15 28 18 39 15.5 48 6.5h2q21 0 41.5-5.5t44-20 39.5-45.5 20-76q2-17 2-52v-19.5t-0.5-55.5-0.5-102v-2q0-5 1-9.5t1.5-7 3.5-5 4.5-3.5 7-2.5 8-1.5 11-1 12.5-2q15-2 15-19 0-20-16-20-3 0-14 1.5t-30.5 3-41.5 1.5q-13 0-26-0.5t-22.5-1.5-17.5-2-13-2h-5q-14 0-14 20 0 11 6 14t32 7q9 2 15 3 10 2 13.5 6.5t3.5 17.5v159q0 75-14 111-15 34-45 47.5t-57 13.5q-39 0-70-24t-35-42q-2-8-2-14v-245q0-26 23-29 45-7 49-11 6-5 6-17 0-18-13-18-1 0-6.5 0.5t-14.5 1.5-20 2.5-25.5 2-28.5 0.5-28-0.5-24.5-1.5-18.5-2-13-1.5-6-0.5q-17 0-17 18 0 14 6.5 17.5t33.5 7.5q18 3 22.5 11t4.5 24v244q0 18-5 24.5t-41 33.5q-6 6-6 10v1q0 5 7 9.5t43 23.5q28 15 47 25 6 4 10 4 12 0 12-15v-40q0-1-1-4v-2z" />
<glyph unicode="&#x6f;" glyph-name="o" data-tags="o" horiz-adv-x="478" d="M22 414q0 103 65.5 168t155.5 65q92 0 153-65.5t61-167.5q0-105-63.5-166.5t-154.5-61.5q-96 0-156.5 66t-60.5 162zM242 236q63 0 104 51.5t41 122.5q0 80-45.5 134.5t-105.5 54.5q-50 0-92.5-44t-42.5-136q0-80 39-131.5t102-51.5z" />
<glyph unicode="&#x70;" glyph-name="p" data-tags="p" horiz-adv-x="505" d="M256 233q65 0 113.5 49t48.5 123q0 73-48.5 127t-110.5 54q-38 0-68-22-29-20-29-63v-220q0-20 26-32 32-16 68-16zM293 646q84 0 138.5-65t54.5-156q0-101-68-164t-175-63q-10 0-20 0.5t-18 1.5-14 2-10 1l-4 1q-7 0-7-11v-144q0-24 23-26 10-1 23.5-2t19.5-1.5 14-1.5 11.5-3 7-5 4.5-7.5 1-11.5q0-15-12-15-2 0-14.5 1t-34.5 2-47 1q-33 0-65.5-2t-51.5-4l-19-2q-17 0-17 20 0 3 0.5 5.5t2 4 2.5 3 4.5 3 6 2 8 2 10 2 12.5 2.5 14 3q22 4 22 28v475q0 16-13 21-14 6-34 15-26 11-30.5 14t-4.5 7v1q0 4 45 30 36 21 65 38 3 2 6 3.5t4.5 3 3 2 3.5 0.5q8 0 8-12v-60q0-6 4-6l13 14q13 14 41 30.5t63 21.5q8 1 24 1z" />
<glyph unicode="&#x71;" glyph-name="q" data-tags="q" horiz-adv-x="537" d="M265 616q-72 0-123.5-50t-51.5-122q0-77 56.5-131.5t133.5-54.5q27 0 56 8.5t39 18.5q9 9 9 31 0 47-3 240 0 20-14 30-47 30-102 30zM16 423q0 39 15 76.5t45.5 72 86 56 127.5 21.5q38 0 77-6.5t40-6.5q17 0 26 13t12 13q12 0 12-57 0-4 0.5-13t0.5-14v-515q0-22 6.5-32.5t16-13.5 33.5-6q14-3 14-14 0-22-18-22-2 0-9 0.5t-19.5 1-27.5 0.5q-22 0-44-1.5t-38-3-28.5-3.5-20-3.5-8.5-1.5q-18 0-18 19 0 3 0.5 6t2 5 3.5 3.5 5 3 6 2 8 1.5 8.5 2 10.5 2 12 2q30 6 30 41v177q0 7-6 7-2 0-18.5-10t-47-19.5-66.5-9.5q-94 0-161.5 66.5t-67.5 160.5z" />
<glyph unicode="&#x72;" glyph-name="r" data-tags="r" horiz-adv-x="366" d="M148 591q1 0 22 14.5t47 31.5 38 21 30 4q28 0 54-12.5t26-32.5v-1q0-6-4-12t-7-9-10-9l-7-6q-1 0-10.5-7.5t-16.5-10.5-15-3q-12 0-27.5 13t-33.5 13q-22 0-47-16t-32-26q-4-6-4-19v-249q0-29 25-31 10-1 27-2 31-2 39.5-5.5t8.5-17.5q0-20-14-20-1 0-6.5 0.5t-15.5 1.5-22 2-28.5 1.5-31.5 0.5q-16 0-32-0.5t-28.5-1.5-22-2-15-1.5-6.5-0.5q-17 0-17 17 0 9 4 13.5t8 6 15.5 3 18.5 3.5q19 4 19 24v272q0 6-1 9.5t-5.5 8-9 7.5-17.5 12-24 17q-3 3-4 7 0 4 41 23 37 18 67 33 1 0 3 1 4 2 6 2 12 0 12-21v-41q0-5 3-5z" />
<glyph unicode="&#x73;" glyph-name="s" data-tags="s" horiz-adv-x="346" d="M32 521q0 48 40.5 84.5t106.5 36.5q14 0 25.5-1.5t18-2.5 7.5-1q4 0 12 5t14 5q12 0 16-19 3-15 8-42t8.5-45.5 3.5-20.5q0-16-24-16-10 0-14.5 7.5t-8.5 21.5-9 21q-11 15-35.5 27.5t-48.5 12.5q-27 0-46-15t-19-39q0-51 81-74 10-3 30-7.5t31-7.5 26.5-9 27.5-15 23-22q31-36 31-81 0-54-42.5-96t-113.5-42q-39 0-79.5 13t-61.5 38q-12 13-12 35 0 16-0.5 36t-0.5 25q0 20 3.5 26t14.5 6 14-9 4-26.5 6-28.5q9-20 42.5-40t73.5-20q35 0 59 19t24 49q0 19-8.5 33.5t-26.5 24-29 14-35 10.5l-24 5q-113 33-113 125z" />
<glyph unicode="&#x74;" glyph-name="t" data-tags="t" horiz-adv-x="340" d="M41 579q-21 0-21 13 0 6 14.5 18.5t41.5 42 51 69.5q11 19 20 19 14 0 14-17 0-7-0.5-36t-0.5-36q0-20 20-20h92q2 0 5-0.5t4-0.5q26 0 26-19t-9-30q-5-5-18-5h-120q-10 0-10-10 0-83-0.5-138t-1-74-0.5-27q0-76 53-76 21 0 44 15.5t40.5 31 26.5 15.5q8 0 13.5-6t5.5-13q0-6-7-17-81-92-143-92-37 0-67.5 29.5t-35.5 94.5q-1 11-1 33 0 25 2 121.5t2 105.5-7 9h-33z" />
<glyph unicode="&#x75;" glyph-name="u" data-tags="u" horiz-adv-x="517" d="M368 239q-1 0-8.5-5.5t-20-13-28.5-15-39-13-47-5.5q-63 0-105 39t-51 109q-3 30-3 63 0 19 0.5 88.5t0.5 75.5q0 19-28 29-5 2-15.5 5t-13.5 6-3 11v3q0 13 11 14 102 6 107 6 10 0 10-12v-210q0-67 19-106 14-27 42.5-47.5t65.5-20.5q50 0 87 37 2 3 5.5 6.5t4.5 5 3 3.5 2.5 3.5 1.5 3.5 1 3.5v256.5q0 22-20 28-5 2-48 9-15 3-15 17 0 15 14 17 33 1 59.5 2t37 1.5 18 0.5h11.5q15 0 15-20v-321q0-3 0.5-4.5t2-3 3.5-2.5l6-3t9-4 13-6 17-8 9-12q0-11-4.5-15t-13.5-5.5-33-10-52-24.5q-6-4-11-4-14 0-14 20v24q0 4-3 4z" />
<glyph unicode="&#x76;" glyph-name="v" data-tags="v" horiz-adv-x="501" d="M305 611v5q0 14 12 14 2 0 12.5-0.5t29-1.5 40.5-1 40.5 1 29 1.5 12.5 0.5q16 0 16-19 0-12-7-16t-16.5-3.5-19.5-1.5-14-10q-2-3-6-21-24-88-58.5-177t-58-137-31.5-56q-8-10-20-10-17 0-34 32-57 101-100 189.5t-60.5 129.5-21.5 47q-6 8-15.5 11.5t-16 3.5-11.5 5.5-5 19.5q0 13 12 13 3 0 15.5-0.5t34.5-1.5 48-1 48 1 34.5 1.5 15.5 0.5q14 0 14-21 0-9-4.5-13.5t-10.5-4.5-19-0.5-23-2.5q-21-2-21-18 0-8 14.5-48t44.5-105.5 63-122.5q8-8 10-8 5 0 5 5 35 61 59 129t31.5 104 7.5 49q0 3-0.5 5.5t-2.5 4.5-4 3-5.5 2-6.5 1.5-8.5 1-9.5 1-11 1-12 0.5q-16 3-16 18z" />
<glyph unicode="&#x77;" glyph-name="w" data-tags="w" horiz-adv-x="770" d="M753 630q15 0 15-17 0-8-2.5-13t-6.5-6.5-7.5-2.5-9-1h-6.5q-18-4-25.5-30.5t-43.5-126-106-228.5q-14-26-29-26-12 0-22.5 16t-38.5 67q-11 20-17 32-66 125-68 126-3 0-41-81-72-145-77-150-8-10-18-10-16 0-30 27-49 92-89 181t-59.5 138.5-20.5 50.5q-5 10-13.5 13.5t-15 3-11.5 4-5 16.5q0 17 19 17 2 0 11.5-0.5t26.5-1.5 37-1h3q19 0 36 1t26.5 1.5 11.5 0.5q12 0 12-17 0-20-31.5-21t-31.5-16q0-8 6-20 49-128 115-257 4-8 10-8 3 0 5.5 2t3.5 3.5 1 2.5q29 44 60.5 105.5t32.5 73.5v1q0 5-17 42.5t-21 43.5q-9 13-23 18.5t-25.5 5-20 3-8.5 14.5q0 24 16 24 3 0 16.5-0.5t37.5-1.5 52-1 51.5 1 37 1.5 16.5 0.5q14 0 14-15v-7q0-10-4.5-12t-30.5-4q-15-1-24-2-24-2-24-21 0-17 41-104t87-159q8-14 17-14t12 9q33 58 57.5 123t33 99.5 8.5 43.5q0 4-0.5 7.5t-2.5 5.5-3.5 4-5 3-6.5 1.5-8.5 1-9.5 1-12 1-14 0.5q-18 2-18 21 0 17 12 17 2 0 12-1t28.5-2 39.5-1q22 0 40.5 1t29 2 12.5 1z" />
<glyph unicode="&#x78;" glyph-name="x" data-tags="x" horiz-adv-x="453" d="M25 630q2 0 13-0.5t30-1.5 41-1 41.5 1 30.5 1.5 13 0.5q12 0 12-14v-2q0-2 0.5-5.5t0.5-4.5q0-7-4.5-9t-22.5-4q-6-1-10-1-16-2-16-14 0-5 14-25 24-31 46-61 13-16 15-16t5 3q72 96 72 101 0 11-25 12t-25 14q0 26 13 26 2 0 11.5-0.5t26-1.5 35.5-1h3q20 0 37 1t26.5 1.5 11.5 0.5q13 0 13-15 0-10-3-14.5t-8-6-20-3.5q-5-1-7-1-21-3-30-9t-23-23q-87-115-87-116 0-3 141-182 3-4 5.5-7t5-5.5 4-3.5 5-2 5-1.5 6.5-1.5 7-1q10-2 10-13 0-24-15-24-2 0-12.5 1t-29.5 2-41 1-41-1-29.5-2-12.5-1q-12 0-12 17 0 11 4.5 15.5t21.5 6.5 25 4q12 4 12 13 0 2-4 10-94 117-95 118h-1l-2 1q-4 0-35-42-25-35-45-61-14-18-14-26 0-15 28-17.5t32-7.5q2-3 2-11 0-20-13-20-2 0-11.5 1t-26 2-36.5 1q-19 0-36-1t-26.5-2.5-11.5-1.5q-10 0-10 21 0 16 21.5 20t25.5 7 10 11q118 156 119 160 0 3-4 7-118 147-124 153-10 9-27 11-19 2-19 23 0 17 14 17z" />
<glyph unicode="&#x79;" glyph-name="y" data-tags="y" horiz-adv-x="479" d="M94-23q-17 0-28.5 11t-11.5 26q0 18 13 31.5t38.5 29.5 38.5 28q22 20 45.5 58.5t23.5 58.5q0 26-114 254-47 92-56 105-6 9-16.5 10.5t-16.5 5-6 18.5q0 17 14 17 2 0 12-0.5t28.5-1.5 39.5-1 39.5 1 29 1.5 12.5 0.5q14 0 14-16 0-4-0.5-6.5t-0.5-4.5-1.5-3.5-2-3-3-2-3.5-1-5-1-6-1-7.5-1-8.5-0.5q-16-2-16-14 0-5 12.5-38.5t40-93.5 59.5-120q0-6 7-6 3 0 5 2t3 4.5 2 3.5q84 201 84 241 0 6-1.5 10t-3.5 6.5-7 3.5-9 1.5-13 0.5-15 1q-19 2-19 20t19 18q2 0 12-0.5t28.5-1.5 39.5-1h1q21 0 38.5 1t27.5 1.5 12 0.5q12 0 12-21 0-11-6-13.5t-34-5.5q-10-1-13.5-7t-15.5-38q-24-68-52-136-99-242-183-369-41-63-76-63z" />
<glyph unicode="&#x7a;" glyph-name="z" data-tags="z" horiz-adv-x="369" d="M67 670h6q12 0 13.5-19t14.5-19h224q22 0 22-15 0-3-6-15-75-102-160-217-72-97-72-102 0-11 16-11h148q3 0 9-0.5t7-0.5q11 0 15 7t8 32q2 14 4 23 5 16 18 16 24 0 24-17 0-1-1.5-8.5t-3-21-3.5-30.5-3.5-40-1.5-46q0-15 0.5-27.5t0.5-19.5v-9q0-20-31-20-17 0-17 18v62q0 15-17 15h-238q-31 0-31 24 0 8 14 30l208 282q7 7 7 13 0 15-21 15h-122q-8 0-11.5-6t-7.5-25q-2-10-3-16-5-16-18-16-18 0-18 13 0 1 1 6.5t2.5 15 3 21.5 2.5 28.5 1 33.5v31q0 15 17 15z" />
<glyph unicode="&#x7b;" glyph-name="braceleft" data-tags="braceleft" horiz-adv-x="257" d="M46 467q0 2 6 5t15 9.5 18 17 15 30 6 44.5q0 39-13.5 114.5t-13.5 117.5q0 73 33.5 105t75.5 32q25 0 25-5 0-1-11-6.5t-26.5-21-23.5-38.5q-8-24-8-48 0-27 14-91t14-106q0-43-12-81t-23.5-58.5-11.5-21.5q0-2 11-18.5t22-48 11-70.5q0-34-14.5-98.5t-14.5-96.5q0-26 7-48.5t16.5-36.5 19-23.5 16.5-14.5l7-5q0-3-17-3-43 0-78.5 34.5t-35.5 110.5q0 41 16.5 110t16.5 100q0 20-4.5 36.5t-10.5 27.5-14 20-14.5 13-12.5 7l-5 4q-1 1-1 2z" />
<glyph unicode="&#x7c;" glyph-name="bar" data-tags="bar" horiz-adv-x="156" d="M79 2h-4q-24 0-24 14v911q0 13 25 13h2q16 0 21.5-2.5t5.5-10.5v-911q0-14-26-14z" />
<glyph unicode="&#x7d;" glyph-name="braceright" data-tags="braceright" horiz-adv-x="257" d="M181 805q0-42-13.5-117.5t-13.5-114.5q0-21 4-38t10-27 14-18 14-11.5 12-5.5l5-3q1-1 1-2 0-4-4-5-57-30-57-106 0-31 16-100t16-110q0-76-35.5-110.5t-78.5-34.5q-17 0-17 3l7 5q7 5 16.5 14.5t19 23.5 16.5 36.5 7 48.5q0 32-14.5 96.5t-14.5 98.5q0 39 11 71t22 48 11 18-4 10q-43 66-43 151 0 42 14 106t14 91q0 25-7 46t-17 32.5-20.5 19-17.5 11.5-7 5q0 5 25 5 42 0 75.5-32t33.5-105z" />
<glyph unicode="&#x7e;" glyph-name="asciitilde" data-tags="asciitilde" horiz-adv-x="461" d="M41 382q-4 0-10 8t-6 13q0 2 10 19t25 39 25 32q29 31 68 31 30 0 76.5-29.5t76.5-29.5q25 0 47.5 14t37.5 31 16 17q4 2 6 2 5 0 14.5-6t9.5-13q0-3-7.5-15t-22-29.5-32.5-34-42.5-28-48.5-11.5q-37 0-79.5 30.5t-68.5 30.5q-45 0-88-66-2-5-7-5z" />
<glyph unicode="&#xa1;" glyph-name="exclamdown" data-tags="exclamdown" horiz-adv-x="332" d="M135 189q-10 0-10 25v24q0 98 10.5 201t19.5 153 15 70q5 16 17 16 17 0 17-34v-13q1-37 2-73t2.5-66.5 2.5-59.5 2.5-52.5 2.5-44 2.5-35.5 2-26 1.5-17v-5q0-15-13-22-70-41-74-41zM164 791q-22 0-37.5 15t-15.5 37q0 21 15 36.5t37 15.5 37.5-14.5 15.5-37.5-15-37.5-37-14.5z" />
<glyph unicode="&#xa8;" glyph-name="dieresis" data-tags="dieresis" horiz-adv-x="261" d="M151 838q0 20 14.5 34t34.5 14q21 0 35-13.5t14-33.5q0-21-14.5-35t-34.5-14q-21 0-35 13.5t-14 34.5zM12 838q0 20 14.5 34t34.5 14q21 0 35.5-13.5t14.5-33.5q0-21-14.5-35t-35.5-14-35 13.5-14 34.5z" />
<glyph unicode="&#xa9;" glyph-name="copyright" data-tags="copyright" horiz-adv-x="790" d="M395 233q127 0 220 90t93 223q0 126-91 218.5t-223 92.5q-130 0-220.5-92t-90.5-220q0-131 92.5-221.5t219.5-90.5zM31 545q0 150 105.5 258t258.5 108q152 0 258.5-108t106.5-258q0-149-105.5-257t-260.5-108q-149 0-256 106t-107 259zM563 598q-11 0-15 7t-4 17-4 25-13 27q-52 63-132 63-69 0-121-52.5t-52-139.5q0-89 53.5-150t128.5-61q55 0 102.5 34.5t65.5 92.5q4 10 15 10t11-10q-14-85-15-100-2-19-19-19h-18q-7 0-9.5-0.5t-8.5-5-12-7.5q-57-34-122-34-100 0-169.5 70t-69.5 168 70.5 168.5 171.5 70.5q38 0 67-8.5t44-16.5 18-8q2 0 8 11.5t17 11.5q10 0 12-10 18-126 18-136 0-18-18-18z" />
<glyph unicode="&#xab;" glyph-name="guillemotleft" data-tags="guillemotleft" horiz-adv-x="373" d="M189 547q6 0 12-7t6-12q0-4-9.5-15t-89.5-102l-2-2q-2-3-2-5 0-4 35-44 34-40 63-74 4-4 4-8 0-6-6-13t-12-7q-4 0-60 49-54 47-99 86-6 4-6 10 0 4 7 11 157 132 159 133zM334 547q6 0 11.5-6.5t5.5-12.5q0-4-9.5-15t-89.5-102q-4-4-4-7 0-4 34-44t63-74q4-3 4-8 0-6-5-13t-11-7q-5 0-70 57-51 44-90 78-6 4-6 10t7 11q39 33 90 77 66 56 70 56z" />
<glyph unicode="&#xae;" glyph-name="registered" data-tags="registered" horiz-adv-x="531" d="M248 897q46 0 67-20.5t21-46.5q0-25-15-42t-28-22q31-35 59-82 12-22 27-22 4 0 8 4t8 4q6 0 6-7t-9.5-18-24.5-11q-22 0-41 28l-68 93q-2 5-8 5h-27q-2 0-2-3v-85l-1-2q0-8 22-9.5t22-13.5q0-11-10-11l-15 1q-15 1-32 1-13 0-23.5-0.5t-16.5-1-7-0.5q-10 0-10 12 0 6 3 8t17 4q2 1 4 1 8 0 8 10v190q0 9-20 12-5 1-8 2-9 0-9 8 0 9 9 9h12q18 0 44 2.5t38 2.5zM298 823q0 23-15.5 39t-42.5 16q-22 0-22-6l1-1v-88q0-5 21-5 58 0 58 45zM264 586q73 0 126 52.5t53 123.5q0 73-52.5 126t-126.5 53q-72 0-124.5-53t-52.5-126q0-71 53-123.5t124-52.5zM264 548q-88 0-150.5 63t-62.5 151q0 90 62 153t151 63q90 0 153-63t63-153q0-88-63-151t-153-63z" />
<glyph unicode="&#xb0;" glyph-name="degree" data-tags="degree" horiz-adv-x="217" d="M109 912q40 0 68-30t28-70q0-41-28-70t-68-29q-39 0-68 29t-29 70 29 70.5 68 29.5zM109 874q-24 0-40-18t-16-43q0-26 16.5-43.5t40.5-17.5q25 0 40.5 18t15.5 42q0 25-16.5 43.5t-40.5 18.5z" />
<glyph unicode="&#xb1;" glyph-name="plusminus" data-tags="plusminus" horiz-adv-x="717" d="M78 492q-24 0-24 22v15q0 22 25 22h251v198q0 16 20 16h15q14 0 18.5-5t4.5-16v-193h256q21 0 21-20v-15q0-16-7.5-20t-20.5-4h-249v-196q0-18-21-18h-15q-13 0-17.5 4.5t-4.5 14.5v195h-252zM78 193q-24 0-24 22v14q0 22 25 22h565q21 0 21-19v-15q0-16-7.5-20t-20.5-4h-559z" />
<glyph unicode="&#xbb;" glyph-name="guillemotright" data-tags="guillemotright" horiz-adv-x="373" d="M184 547q4 0 50-39 58-50 110-94 6-5 6-11 0-7-6-10-155-134-160-135-5 0-10.5 6.5t-5.5 12.5q0 4 28 36 37 42 70 81 3 5 3 9t-3 8q-99 114-100 117 0 7 6 13t12 6zM41 547q4 0 158-133 8-5 8-11t-6-10q-155-134-160-135-6 0-11 6t-5 13q0 5 53 67 26 30 43 50 5 5 5 10 0 3-3 7l-96 106q-4 6-4 11 0 7 6 13t12 6z" />
<glyph unicode="&#xbf;" glyph-name="questiondown" data-tags="questiondown" horiz-adv-x="389" d="M198 791q-25 0-43.5 17.5t-18.5 42.5q0 24 18 42.5t44 18.5q25 0 43-18t18-44-18-42.5-43-16.5zM197 189q-89 0-135.5 48t-46.5 102q0 35 17.5 65.5t42.5 54.5l50 48t42.5 58 17.5 73q0 5-0.5 12.5t-0.5 10.5q0 19 8.5 28t18.5 9q28 0 28-57 0-45-21.5-88t-47-71.5-47-68.5-21.5-79q0-44 26-75t63-31q22 0 38 11.5t23.5 26 20 26 29.5 11.5q19 0 31-13t12-32q0-46-65-60-40-9-83-9z" />
<glyph unicode="&#xc6;" glyph-name="AE" data-tags="AE" horiz-adv-x="1034" d="M529 565v286q-16 0-21-5-30-31-104.5-151t-74.5-130h200zM315 896q0 7 4 17t11 10q3 0 16-1t46-3 78-4q26-1 248-1 211 0 216-1 10-3 12-17 3-20 10.5-52.5t13.5-56.5 6-25q0-8-8-13.5t-18-5.5q-13 0-19 10-3 6-23.5 52.5t-24.5 52.5h-229q-15 0-22-7t-8-13.5-1-22.5v-150q0-23 20-23h157q26 0 32.5 9.5t6.5 37.5v19q0 22 27 22 28 0 28-29v-189q0-29-28-29-12 0-18.5 4t-7.5 8-1 10v40q0 24-4.5 31t-22.5 7h-141q-16 0-25-2t-17-11.5-8-27.5v-226q0-19 1-26.5t8-13.5 23-8q45-7 97-7 51 0 93 7t53 15q9 7 36 55.5t35 53.5q5 3 10 3 18 0 18-23 0-12-31-147-3-14-10.5-17t-25.5-3h-484q-17 0-17 15t13.5 21.5 30.5 6.5 34.5 5 23.5 19v240h-181q-39 0-46-1.5t-12-9.5q-40-63-73-134.5t-33-87.5q0-6 1.5-10.5t5.5-7.5 7.5-5 11-3.5 13-2.5 17-2.5 18.5-2.5q18-2 18-24t-17-22q-1 0-8 0.5t-18.5 1.5-26 2-34 1.5-37.5 0.5q-19 0-38-0.5t-33.5-1.5-25.5-2-18-1.5-8-0.5q-16 0-16 21 0 18 11 22 4 1 19 3.5t29 7 24 12.5 24 34.5 56 103 100 171.5q38 62 71 112.5t51 76 31.5 44 18 26 4.5 12.5q0 15-66 24-21 3-33 5-21 3-21 22z" />
<glyph unicode="&#xd7;" glyph-name="multiply" data-tags="multiply" horiz-adv-x="565" d="M55 276q0 7 10 17l178 177q-54 55-121 121-48 47-58 58t-10 17q0 7 12.5 20t22.5 13h1q9 0 101-94l93-93q68 68 138 139 37 37 44 43.5t12 6.5h1q7 0 20-13t13-22v-1q0-7-14.5-22.5t-99.5-100.5l-72-72q179-179 182-183 5-6 5-11 0-8-12.5-21t-21.5-13q-8 0-17 9l-178 178q-178-178-185-183-5-4-10-4-8 0-21 12.5t-13 21.5z" />
<glyph unicode="&#xd8;" glyph-name="Oslash" data-tags="Oslash" horiz-adv-x="796" d="M778 550q0-159-107.5-264.5t-259.5-105.5q-94 0-178 43-16-29-27-50-4-6-5-8-7-5-20-5-35 0-35 13v1l41 76q-78 54-123 138t-46 178q0 155 111.5 265.5t266.5 110.5q79 0 153-31 28 51 32 55 4 2 14 2 37 0 37-17 0-3-35-66 84-53 132.5-143t48.5-192zM116 598q0-78 25.5-154.5t80.5-129.5l295 539q-64 35-137 35-49 0-95-17.5t-84.5-51-61.5-91-23-130.5zM407 240q47 0 92 16t86 48.5 66.5 91.5 25.5 136q0 83-28 160t-87 129l-298-541q65-40 143-40z" />
<glyph unicode="&#xdf;" glyph-name="germandbls" data-tags="germandbls" horiz-adv-x="541" d="M31 199q-13 0-13 19 0 4 0.5 7t1.5 5.5 2 4 4 3 4.5 2 6.5 1.5 8 1.5 10 1 12 1.5q4 0 7 1.5t4.5 4.5 2.5 6.5 1.5 9.5 0.5 11 0.5 14 0.5 16q2 52 2 256 0 7-6 8.5t-28 1.5h-21q-22 0-22 19 0 24 15 29 5 2 30 2t27 1q3 1 3 7v2q2 182 90 257 60 50 137 50 53 0 86.5-31t33.5-83q0-36-18-68t-39.5-50.5-39.5-44-18-50.5q0-28 17.5-50t62-59.5 74.5-69.5q64-69 64-131 0-52-36.5-85t-90.5-33q-51 0-88 19t-49 39q-6 11-6 28v67q0 16 2 19 7 7 16 7t12-6 2.5-14 1.5-22 8-25q10-16 36.5-35.5t56.5-19.5 51 18 21 46q0 27-18 49.5t-68.5 65-85.5 78.5q-41 41-41 82 0 31 22.5 66t45 72 22.5 74q0 36-21.5 61t-55.5 25q-12 0-24.5-4.5t-31-18.5-33-48-20.5-84q-5-40-5-121v-10q0-112-0.5-184t-0.5-100v-35q0-10 1-15.5t8.5-11.5 22.5-7q17-1 22.5-2t9-4.5 3.5-12.5q0-23-11-23h-5q-5 1-13.5 2t-19.5 2-25 1.5-27 0.5q-14 0-28-0.5t-24.5-1.5-19-2-13.5-1.5-6-0.5z" />
<glyph unicode="&#xe6;" glyph-name="ae" data-tags="ae" horiz-adv-x="660" d="M434 590q-44 0-71-39.5t-27-106.5q0-8 5-8 2 0 95.5 36t97.5 38q8 4 8 12 0 14-35.5 41t-72.5 27zM109 308q0-28 14.5-49t49.5-21q39 0 68 24 17 13 20.5 22t3.5 39v29q0 35-1.5 42t-8.5 7h-2q-144-10-144-93zM458 647q65 0 124.5-46t59.5-75v-2q0-9-5.5-16t-16.5-12.5-19-8.5-23.5-8-19.5-6q-208-72-213-75-4-2-4-6 0-6 3-20t13.5-37 26-42.5 44.5-34 65-14.5q69 0 121 50 11 14 24 14 15 0 15-14 0-8-6-17-34-44-82.5-67.5t-99.5-23.5q-30 0-56.5 7.5t-43.5 18.5-29 22-18.5 18.5-7.5 7.5-10-8-23.5-19.5-33-23-43.5-19.5-50-8q-51 0-84 33.5t-33 81.5v1q0 58 43 91 24 19 69 31.5t78 14.5l33 3q8 2 8 23v29q0 53-24 82-24 27-60 27-14 0-26.5-5t-21-11.5-16.5-15.5-12-15.5-8-13.5l-4-7q-10-12-23-12-15 0-27.5 10.5t-12.5 26.5q0 30 47.5 60.5t110.5 30.5q36 0 63-9t39-20 21-20 13-9 9 5q57 53 126 53z" />
<glyph unicode="&#xf7;" glyph-name="divide" data-tags="divide" horiz-adv-x="717" d="M78 442q-24 0-24 22v13q0 23 24 23h565q21 0 21-20v-14q0-16-7-20t-20-4h-559zM292 615q0 22 16 37.5t39 15.5q22 0 37.5-15t15.5-37q0-23-16-38.5t-38-15.5q-23 0-38.5 15.5t-15.5 37.5zM353 274q-22 0-38 15t-16 38q0 22 15 37t38 15 39-15.5 16-37.5-15.5-37-38.5-15z" />
<glyph unicode="&#xf8;" glyph-name="oslash" data-tags="oslash" horiz-adv-x="478" d="M457 414q0-105-63.5-166.5t-154.5-61.5q-45 0-89 18l-3.5-7t-4-7-3.5-6-3.5-5.5-4-3.5-5-3-5.5-1q-36 0-36 14 0 1 23 44-39 30-62.5 78t-23.5 107q0 103 65.5 168t155.5 65q41 0 87-18 21 40 27 44 3 2 8 2 36 0 36-17 0-8-28-56 41-32 62.5-82t21.5-106zM242 236q63 0 104 51.5t41 122.5q0 80-46 135l-164-292q30-17 65-17zM236 599q-50 0-92.5-44t-42.5-136q0-81 39-131l162 291q-31 20-66 20z" />
<glyph unicode="&#x2da;" glyph-name="ring" data-tags="ring" horiz-adv-x="200" d="M100 871q36 0 61.5-27t25.5-64-25.5-63.5-61.5-26.5q-35 0-61 26.5t-26 63.5 26 64 61 27zM100 832q-19 0-32.5-15t-13.5-35q0-21 13.5-36.5t33.5-15.5 33 15 13 35-13.5 36-33.5 16z" />
<glyph unicode="&#x2dc;" glyph-name="tilde" data-tags="tilde" horiz-adv-x="344" d="M228 842q21 0 38 11.5t27.5 23.5 14.5 12 12-4 8-9q0-6-20-30t-38-37q-28-22-59-22-27 0-59 23t-51 23q-20 0-35.5-13.5t-24.5-27-11-13.5q-3 0-8.5 6t-5.5 10q0 3 18 30t28 37q24 24 52 24 23 0 57-22t57-22z" />
<glyph unicode="&#x2013;" glyph-name="endash" data-tags="endash" horiz-adv-x="539" d="M28 461v4q0 25 14 25h457q14 0 14-25v-2q0-29-14-29h-457q-14 0-14 27z" />
<glyph unicode="&#x2014;" glyph-name="emdash" data-tags="emdash" horiz-adv-x="1093" d="M28 461v4q0 26 14 26h1011q14 0 14-26v-2q0-17-3-23t-11-6h-1011q-14 0-14 27z" />
<glyph unicode="&#x2018;" glyph-name="quoteleft" data-tags="quoteleft" d="M128 680q-33 0-60.5 28.5t-27.5 86.5q0 37 12 64.5t24 38 21 10.5q8-1 14-7t6-13q0-5-18.5-26t-18.5-43q0-15 10-27t34-12q3 0 9 1t9 1q27 0 39.5-14.5t12.5-30.5q0-21-18-39t-48-18z" />
<glyph unicode="&#x2019;" glyph-name="quoteright" data-tags="quoteright" d="M104 905q33 0 61.5-28t28.5-86q0-37-12-64.5t-25-38-22-10.5q-8 0-13.5 6t-5.5 14q0 5 18.5 26t18.5 43q0 14-10 26t-34 12q-3 0-9.5-0.5t-9.5-0.5q-27 0-38.5 14t-11.5 30q0 22 17.5 39.5t46.5 17.5z" />
<glyph unicode="&#x201c;" glyph-name="quotedblleft" data-tags="quotedblleft" horiz-adv-x="425" d="M323 680q-33 0-61.5 28.5t-28.5 86.5q0 37 12 64.5t25 38 22 10.5q19-2 19-20 0-5-18.5-26t-18.5-43q0-39 44-39 3 0 9.5 1t9.5 1q27 0 38.5-14.5t11.5-30.5q0-22-17.5-39.5t-46.5-17.5zM128 680q-33 0-61 28.5t-28 86.5q0 37 12 64.5t24.5 38 21.5 10.5q8-1 14-7t6-13q0-5-18.5-26t-18.5-43q0-39 44-39 3 0 9 1t9 1q27 0 39-14.5t12-30.5q0-22-17.5-39.5t-47.5-17.5z" />
<glyph unicode="&#x201d;" glyph-name="quotedblright" data-tags="quotedblright" horiz-adv-x="425" d="M104 905q33 0 61-28t28-86q0-37-12-64.5t-24.5-38-21.5-10.5h-1q-7 0-12.5 6.5t-5.5 13.5q0 5 18 26t18 43q0 14-9.5 26t-34.5 12q-3 0-9-0.5t-9-0.5q-27 0-39 14t-12 30q0 21 17.5 39t47.5 18zM299 905q33 0 60.5-28t27.5-86q0-37-12-64.5t-24-38-21-10.5h-1q-7 0-13 6.5t-6 13.5q0 5 18 26t18 43q0 14-9.5 26t-34.5 12q-3 0-8.5-0.5t-8.5-0.5q-27 0-39.5 14t-12.5 30q0 21 18 39t48 18z" />
<glyph unicode="&#x2022;" glyph-name="bullet" data-tags="bullet" horiz-adv-x="292" d="M146 398q-34 0-57.5 24.5t-23.5 56.5q0 34 24.5 58t56.5 24q34 0 58-25t24-57q0-34-25-57.5t-57-23.5z" />
<glyph unicode="&#x2026;" glyph-name="ellipsis" data-tags="ellipsis" horiz-adv-x="676" d="M116 308q25 0 43-17.5t18-42.5-17-42.5-43-17.5q-25 0-43.5 17.5t-18.5 43.5 18 42.5 43 16.5zM338 308q25 0 43-17.5t18-42.5-17-42.5-43-17.5q-25 0-43.5 17.5t-18.5 43.5 18 42.5 43 16.5zM560 308q25 0 43-17.5t18-42.5-17-42.5-43-17.5q-25 0-43.5 17.5t-18.5 43.5 18 42.5 43 16.5z" />
<glyph unicode="&#x2039;" glyph-name="guilsinglleft" data-tags="guilsinglleft" horiz-adv-x="228" d="M189 547q6 0 11.5-6.5t5.5-12.5q0-4-9-15t-89-102q-5-5-5-7 0-4 35-44 34-40 63-74 4-4 4-8 0-6-5.5-13t-11.5-7q-4 0-70 57-51 44-90 78-5 5-5 10 0 6 7 11 156 132 159 133z" />
<glyph unicode="&#x203a;" glyph-name="guilsinglright" data-tags="guilsinglright" horiz-adv-x="228" d="M39 547q5 0 70-56 51-44 90-77 7-5 7-11v-1q0-5-79-72-45-39-77-67-5-5-10-5t-10.5 6-5.5 13q0 5 4 9 97 114 97 117 0 4-4 8l-94 106q-4 4-4 11 0 6 5.5 12.5t10.5 6.5z" />
<glyph unicode="&#x2044;" glyph-name="fraction" data-tags="fraction" horiz-adv-x="445" d="M36 14q-30 0-30 14 0 4 386 762 5 9 16 9 9 0 20-4.5t11-14.5q0-1-3-10-382-747-387-752-4-4-13-4z" />
<glyph unicode="&#x20ac;" glyph-name="Euro" data-tags="Euro" horiz-adv-x="730" d="M462 813q-49 0-96-16.5t-95-61.5-73-114h447l-25-63h-436q0-2-0.5-10t-0.5-14q0-7 0.5-15.5t0.5-10.5h414l-27-63h-373q22-65 68.5-110.5t96-64 97.5-18.5q47 0 88.5 12.5t70 33 39.5 31 21 21.5l1 1 4-1v-79q-100-80-220-80-36 0-72.5 7.5t-76 26-73.5 46.5-63.5 72.5-46.5 101.5h-107l25 63h72v50h-102l26 63h86q20 70 60.5 122t88.5 79.5 92 40 83 12.5q76 0 136-24t118-79l-29-64q-18 31-76 68t-143 37z" />
<glyph unicode="&#x2122;" glyph-name="trademark" data-tags="trademark" horiz-adv-x="941" d="M850 636q0-16 5.5-19.5t23.5-4.5h8q12 0 12-15 0-13-12-13-2 0-10 0.5t-22 1.5-30 1h-2q-17 0-31.5-1t-22-1.5-9.5-0.5q-12 0-12 14 0 5 2 8t8.5 4.5 10 2 13.5 1.5q12 1 15.5 6.5t3.5 17.5v106q0 81-2 81-8-5-51-86-82-151-90-158-2-2-7-2h-2q-8 0-17.5 19t-43 83.5-84.5 141.5q0 2-2 2 0-1-1-40.5t-1-63.5q0-77 1.5-91t8.5-14q2 0 7.5-0.5t8-1 7-1 7-2 5-3.5 3.5-4.5 1-6.5q0-13-10-13-2 0-10 0.5t-21.5 1.5-28.5 1q-16 0-30-1t-21.5-1.5-9.5-0.5q-10 0-10 13 0 10 8.5 14t24.5 5h5q8 1 11 10 4 14 10 114 6 73 6 122 0 3-5.5 12t-18 19-27.5 10q-12 0-12 11 0 13 10 13h72q10 0 14-7l94-157q61-98 66-98 4 0 4 5l131 243q1 2 2 4.5t2 4l2 3t3 2 5 0.5h74q10 0 10-13 0-12-25.5-15.5t-25.5-16.5q0-49 2-240v-6zM285 584q-2 0-10.5 0.5t-23.5 1.5-32 1h-2q-18 0-33.5-1t-23.5-1.5-10-0.5q-13 0-13 15 0 14 31 15 5 1 8 1 14 2 14 16v252q0 13-10 13h-76q-9 0-12-3t-12-22l-10-20q0-3-4-7t-11-4q-12 0-12 15l14 70q3 8 13 8h290q8 0 11-7.5t9-44.5q2-12 3-20l1-2q1-2 1-3 0-6-4-9.5t-8-3.5q-5 0-15 10-4 7-7.5 13.5t-5.5 10.5-4 7.5-3.5 5.5-2.5 3.5-3 2-3.5 0.5h-78.5q-8 0-8-11v-260q0-7 6-8.5t37-3.5q10-1 10-17 0-12-10-12z" />
<glyph unicode="&#x2212;" glyph-name="minus" data-tags="minus" horiz-adv-x="717" d="M78 442q-24 0-24 22v13q0 23 25 23h565q21 0 21-20v-14q0-16-7.5-20t-20.5-4h-559z" />
<glyph unicode="&#xe000;" glyph-name="lea" data-tags="alpha" d="M253.44 766.507c3.149 32.631 30.393 57.948 63.565 58.027h390.195c33.158-0.203 60.322-25.59 63.341-57.986l0.019-0.254 169.387-45.44c27.485-7.591 47.334-32.374 47.334-61.792 0-5.79-0.769-11.401-2.21-16.736l0.103 0.448-151.893-566.613c-7.591-27.485-32.374-47.334-61.792-47.334-5.79 0-11.401 0.769-16.736 2.21l0.448-0.103-243.2 65.28-243.2-65.28c-4.887-1.338-10.498-2.107-16.288-2.107-29.418 0-54.201 19.849-61.686 46.884l-0.106 0.45-151.893 566.613c-1.338 4.887-2.107 10.498-2.107 16.288 0 29.418 19.849 54.201 46.884 61.686l0.45 0.106 169.6 45.653zM743.893 745.6v14.933c0 20.48-16.427 36.907-36.693 36.907h-390.187c-20.267 0-36.693-16.427-36.693-36.693v-15.147l-189.44-50.773c-15.823-4.396-27.242-18.674-27.242-35.619 0-3.34 0.444-6.576 1.275-9.653l-0.059 0.258 151.893-566.613c5.333-19.627 25.6-31.36 45.013-26.027l250.24 66.987 250.24-66.987c2.893-0.83 6.216-1.308 9.651-1.308 16.856 0 31.027 11.5 35.094 27.082l0.056 0.252 152.107 566.613c5.12 19.627-6.4 39.893-26.027 45.013l-189.227 50.773zM717.867 173.867c0-5.891-4.776-10.667-10.667-10.667v0h-390.187c-5.891 0-10.667 4.776-10.667 10.667v0 586.88c-0.001 0.063-0.002 0.138-0.002 0.213 0 5.891 4.776 10.667 10.667 10.667 0.001 0 0.002 0 0.002 0h390.187c5.76 0 10.667-4.693 10.667-10.667v-586.667zM557.013 300.374l3.627 0.427 14.72 1.493c12.090 1.044 26.16 1.639 40.37 1.639 21.564 0 42.807-1.371 63.648-4.030l-2.471 0.257h1.067c0.64 0 1.493 0 2.347 0.427l10.24 1.707c0 7.68-2.133 13.44-6.827 17.067-2.56 1.28-7.467 2.133-14.72 2.987-7.467 0.64-11.733 1.493-12.8 2.56-6.4 4.693-13.44 25.6-21.12 61.867-2.826 11.5-7.593 37.105-11.904 62.865l-1.75 12.655-0.427 2.347c-2.773 5.547-7.68 27.093-14.933 64.427-7.68 40.533-11.733 68.693-11.733 84.48 0 5.547 1.28 8.96 3.627 10.24 0.213 0.427 3.84 1.067 10.667 2.133 11.733 1.067 20.693 4.267 26.453 8.533-3.2 8.32-10.667 12.373-22.4 12.373-4.693 0-19.627-1.493-45.227-4.267-20.436-2.777-44.123-4.403-68.174-4.48h-0.092c-58.211 1.818-108.895 4.271-159.359 7.533l13.652-0.706c0-12.8 11.093-20.267 33.707-22.613 21-1.038 38.51-2.259 55.929-3.795l-5.369 0.382c8.533-1.067 13.013-3.2 13.44-6.4-2.878-2.556-17.781-58.315-32.055-114.326l-11.251-52.074c-1.28 0-2.56-1.92-3.413-5.333-20.693-80.64-32.427-121.813-35.413-123.733-3.627-2.773-6.4-4.053-8.747-4.053-1.707 0-2.773 0.213-3.413 0.64 0 0.213-0.213 0.427-0.64 0.427l-1.28 1.067c-0.734 0.194-1.607 0.345-2.5 0.422l-0.060 0.004c-2.133 0-3.413-2.56-3.413-7.467v-6.4c0-2.56 0-5.12 0.427-7.893 70.37 4.396 104.319 6.909 138.227 9.567l-40.094-2.527c0 10.453-2.133 16.427-6.827 18.133-2.56 0-6.4-0.427-11.733-1.067-3.464-0.48-7.528-0.788-11.651-0.852l-0.082-0.001c-4.907 0-7.68 3.2-8.533 9.813 0 19.2 3.2 42.88 9.387 71.040l5.973 24.96c1.707 7.040 3.2 12.8 4.907 17.28 3.84 4.267 26.24 9.173 67.2 14.933 20.1 3.176 45.413 5.91 71.025 7.548l2.575 0.132c4.267-4.267 11.947-48 22.613-131.627-2.133-2.773-10.027-6.187-23.467-9.813-11.733-2.56-17.707-6.187-17.707-10.667 0-3.627 2.133-7.040 5.76-10.24zM677.973 300.16l-4.907-0.427c4.693 0 6.4 0 4.907 0.427zM535.68 617.387h-21.333l-14.507-0.427-14.933-0.64h-9.813l-33.28-127.573-0.775 0.011c5.164-0.096 10.34-0.144 15.526-0.144 16.95 0 33.78 0.513 48.182 1.412 18.56 1.067 38.827 2.987 60.8 5.12-0.64 17.707-5.333 42.453-13.867 74.027-8.533 30.293-13.867 46.080-16.213 48.213zM460.587 137.174h-143.573c-20.267 0-36.693 16.64-36.693 36.907v544.64l-182.687-48.869c-4.602-1.183-8.002-5.36-8.002-10.331 0-1.025 0.145-2.016 0.396-2.879l151.909-566.901c1.183-4.602 5.36-8.002 10.331-8.002 1.025 0 2.016 0.145 2.879 0.396l205.44 55.253zM743.893 718.72v-544.853c0-20.267-16.427-36.907-36.693-36.907h-143.787l205.365-55.021c0.938-0.27 1.93-0.415 2.955-0.415 4.971 0 9.148 3.4 10.347 8.076l151.876 566.966c0.234 0.879 0.359 1.802 0.359 2.754 0 4.951-3.374 9.115-8.022 10.334l-182.4 49.067z" />
<glyph unicode="&#xe001;" glyph-name="lea-border" data-tags="alpha" d="M231.253 787.2c11.656 36.977 45.626 63.328 85.756 63.36h390.191c40.082-0.001 74.030-26.259 85.585-62.511l0.175-0.636 153.813-41.387c38.658-10.594 66.596-45.415 66.596-86.761 0-8.216-1.103-16.175-3.17-23.736l0.147 0.63-151.893-566.827c-10.645-38.584-45.429-66.451-86.722-66.451-8.308 0-16.353 1.128-23.989 3.24l0.631-0.149-236.373 63.36-236.373-63.36c-7.005-1.963-15.050-3.091-23.358-3.091-41.293 0-76.077 27.867-86.573 65.82l-0.149 0.631-151.893 566.827c-1.92 6.931-3.023 14.89-3.023 23.106 0 41.346 27.938 76.166 65.966 86.613l0.63 0.148 154.027 41.387zM253.44 766.507l-169.387-45.44c-27.512-7.573-47.387-32.369-47.387-61.806 0-5.863 0.788-11.542 2.265-16.936l-0.105 0.449 151.893-566.613c7.591-27.485 32.374-47.334 61.792-47.334 5.79 0 11.401 0.769 16.736 2.21l-0.448-0.103 243.2 65.28 243.2-65.28c4.887-1.338 10.498-2.107 16.288-2.107 29.418 0 54.201 19.849 61.686 46.884l0.106 0.45 151.893 566.613c1.338 4.887 2.107 10.498 2.107 16.288 0 29.418-19.849 54.201-46.884 61.686l-0.45 0.106-169.387 45.44c-3.038 32.65-30.202 58.037-63.339 58.24h-390.208c-33.091-0.192-60.218-25.468-63.34-57.766l-0.020-0.261z" />
<glyph unicode="&#xe002;" glyph-name="lea-inner" data-tags="alpha" d="M743.893 745.6l189.227-50.773c19.627-5.12 31.147-25.6 26.027-45.013l-151.893-566.613c-4.396-15.823-18.674-27.242-35.619-27.242-3.34 0-6.576 0.444-9.653 1.275l0.258-0.059-250.24 66.987-250.24-66.987c-19.413-5.333-39.68 6.4-44.8 26.027l-152.32 566.613c-5.12 19.627 6.4 39.893 26.027 45.013l189.44 50.773v14.933c0 20.48 16.427 36.907 36.693 36.907h390.187c20.267 0 36.693-16.427 36.693-36.693v-15.147zM280.32 718.72l-182.613-49.067c-4.648-1.219-8.022-5.382-8.022-10.334 0-0.952 0.125-1.876 0.359-2.754l-0.017 0.074 151.893-566.827c1.2-4.676 5.376-8.076 10.347-8.076 1.025 0 2.016 0.145 2.955 0.415l-0.075-0.019 205.44 55.040h-143.573c-20.267 0-36.693 16.64-36.693 36.907v544.64zM563.413 137.174l205.44-55.040c0.863-0.251 1.854-0.396 2.879-0.396 4.971 0 9.148 3.4 10.331 8.002l0.016 0.074 151.893 566.827c0.251 0.863 0.396 1.854 0.396 2.879 0 4.971-3.4 9.148-8.002 10.331l-0.074 0.016-182.4 48.853v-544.64c0-20.267-16.427-36.907-36.693-36.907h-144zM717.867 760.747c0 5.891-4.776 10.667-10.667 10.667v0h-390.187c-5.891 0-10.667-4.776-10.667-10.667v0-586.667c0-5.973 4.907-10.667 10.667-10.667h390.187c5.891 0 10.667 4.776 10.667 10.667v0 586.667zM677.973 299.947v0zM557.013 300.374c-3.84 3.2-5.76 6.613-5.76 10.24 0 4.48 5.973 8.107 17.707 10.667 13.44 3.627 21.333 7.040 23.467 9.813-10.667 83.627-18.347 127.36-22.613 131.627-27.091-1.258-52.412-4.080-77.213-8.416l3.613 0.523c-40.96-5.547-63.36-10.453-67.2-14.72-1.707-4.48-3.2-10.24-4.907-17.28l-5.973-24.96c-5.261-21.13-8.571-45.546-9.166-70.635l-0.008-0.405c0.64-6.613 3.413-9.813 8.32-9.813 2.56 0 6.4 0.213 11.733 0.853s9.173 1.067 11.733 1.067c4.693-1.707 6.827-7.68 6.827-18.133 5.237-0.187-28.726-2.625-62.73-4.916l-35.404-1.911c-0.273 2.163-0.429 4.666-0.429 7.206 0 0.167 0.001 0.333 0.002 0.5v-0.026 6.4c0 4.907 1.067 7.467 3.413 7.467l2.56-0.427 1.28-1.067c0.427 0 0.64 0 0.64-0.427 0.64-0.427 1.707-0.64 3.413-0.64 2.133 0 5.12 1.28 8.747 4.053 2.987 1.92 14.933 43.093 35.413 123.733 0.853 3.413 2.133 5.333 3.413 5.333 20.13 86.854 34.966 142.629 50.842 197.964l-7.748-31.564c-0.213 3.2-4.693 5.333-13.227 6.4l-50.56 3.627c-22.4 2.133-33.707 9.6-33.707 22.4 29.728-1.97 80.411-4.422 131.219-6.383l14.487-0.444c16.64-0.427 39.467 1.067 68.267 4.267 25.6 2.987 40.533 4.48 45.227 4.48 11.733 0 19.2-4.267 22.4-12.16-5.76-4.693-14.507-7.68-26.453-8.96-6.827-0.853-10.453-1.493-10.667-1.92-2.347-1.28-3.627-4.693-3.627-10.24 0-15.787 4.053-43.947 11.947-84.48 7.040-37.333 11.947-58.88 14.72-64.427l0.427-2.347 5.76-31.36c2.133-12.587 4.693-27.307 8.107-44.16 7.467-36.267 14.507-57.173 20.907-61.867 1.067-1.067 5.333-1.92 12.8-2.56 7.253-0.64 12.16-1.707 14.933-2.987 4.267-3.627 6.613-9.173 6.613-17.067l-10.24-1.707-2.347-0.427h-1.067c-19.456 1.533-43.939 2.761-68.575 3.377l-1.825 0.036c-17.771-0.269-34.937-1.424-51.844-3.427l2.351 0.227zM535.68 617.387h-21.333c-4.267 0-9.173 0-14.72-0.427l-14.72-0.64h-9.813l-33.28-127.573c4.437-0.086 9.67-0.135 14.914-0.135 16.968 0 33.815 0.514 50.529 1.526l-2.296-0.111c18.347 1.067 38.4 2.773 60.587 5.12-0.64 17.707-5.333 42.453-13.867 74.027-8.533 30.293-13.867 46.293-16.213 48.213z" />
<glyph unicode="&#xe003;" glyph-name="leb" data-tags="beta" d="M253.44 766.507c3.149 32.631 30.393 57.948 63.565 58.027h390.195c33.158-0.203 60.322-25.59 63.341-57.986l0.019-0.254 169.387-45.44c27.485-7.591 47.334-32.374 47.334-61.792 0-5.79-0.769-11.401-2.21-16.736l0.103 0.448-151.893-566.613c-7.591-27.485-32.374-47.334-61.792-47.334-5.79 0-11.401 0.769-16.736 2.21l0.448-0.103-243.2 65.28-243.2-65.28c-4.887-1.338-10.498-2.107-16.288-2.107-29.418 0-54.201 19.849-61.686 46.884l-0.106 0.45-151.893 566.613c-1.338 4.887-2.107 10.498-2.107 16.288 0 29.418 19.849 54.201 46.884 61.686l0.45 0.106 169.6 45.653zM743.893 745.6v14.933c0 20.48-16.427 36.907-36.693 36.907h-390.187c-20.267 0-36.693-16.427-36.693-36.693v-15.147l-189.44-50.773c-15.823-4.396-27.242-18.674-27.242-35.619 0-3.34 0.444-6.576 1.275-9.653l-0.059 0.258 151.893-566.613c5.333-19.627 25.6-31.36 45.013-26.027l250.24 66.987 250.24-66.987c2.893-0.83 6.216-1.308 9.651-1.308 16.856 0 31.027 11.5 35.094 27.082l0.056 0.252 152.107 566.613c5.12 19.627-6.4 39.893-26.027 45.013l-189.227 50.773zM743.893 718.72l182.4-49.067c4.648-1.219 8.022-5.382 8.022-10.334 0-0.952-0.125-1.876-0.359-2.754l0.017 0.074-151.893-567.040c-1.2-4.676-5.376-8.076-10.347-8.076-1.025 0-2.016 0.145-2.955 0.415l0.075-0.019-205.44 55.040h143.787c20.267 0 36.693 16.64 36.693 36.907v544.853zM460.587 137.174l-205.44-55.040c-0.863-0.251-1.854-0.396-2.879-0.396-4.971 0-9.148 3.4-10.331 8.002l-0.016 0.074-151.893 566.827c-0.251 0.863-0.396 1.854-0.396 2.879 0 4.971 3.4 9.148 8.002 10.331l0.074 0.016 182.613 48.853v-544.64c0-20.267 16.427-36.907 36.693-36.907h143.573zM717.867 174.080c0-5.891-4.776-10.667-10.667-10.667v0h-390.187c-5.891 0-10.667 4.776-10.667 10.667v0 586.667c0 5.973 4.907 10.667 10.667 10.667h390.187c5.76 0 10.667-4.693 10.667-10.667v-586.667zM629.12 304.214c32.213 12.16 48.64 40.96 49.493 86.187-0.427 21.756-8.507 41.546-21.648 56.868l0.101-0.121c-14.199 19.321-34.57 33.379-58.168 39.315l-0.712 0.152 6.4 4.053 4.267 2.347c30.080 19.2 45.227 43.52 45.227 72.533-0.097 5.525-0.481 10.848-1.141 16.085l0.075-0.725c-3.318 22.855-15.86 42.267-33.657 54.654l-0.263 0.173c-15.388 10.296-34.318 16.432-54.681 16.432-0.351 0-0.702-0.002-1.052-0.005h0.053c-25.013-1.094-48.333-7.273-69.301-17.523l1.034 0.456c-9.499-4.12-17.414-8.258-25.001-12.88l0.895 0.506c-12.16-7.253-29.227-10.88-50.773-10.88-0.018 0-0.039 0-0.060 0-13.108 0-25.797 1.791-37.836 5.142l0.99-0.235c-6.455 2.041-14.506 3.968-22.732 5.382l-1.161 0.165c-4.267 0-7.68-1.493-10.027-4.48-2.291-2.714-3.776-6.174-4.050-9.97l-0.003-0.057c0-5.76 5.547-9.173 16.427-10.667 7.367-1.501 18.27-3.225 29.275-4.624l2.725-0.283c11.947-3.627 18.987-10.667 20.907-20.907 3.627-18.987 6.4-43.947 8.32-75.307 1.707-31.147 2.773-68.693 2.773-112.64 0-26.88-0.853-42.24-2.56-46.293l-58.24-16.427c-2.773-2.773-4.267-5.333-4.267-7.467 0-1.707 0.853-4.053 2.347-6.827s3.2-4.267 4.907-4.267l45.227 8.107c4.98 0.389 11.214 0.697 17.486 0.845l0.434 0.008c14.72 0 27.52-1.493 38.4-4.267 39.253-10.027 69.76-14.933 91.307-14.933 23.893 0 46.72 4.053 68.267 12.373zM576 461.654c30.293-13.227 46.080-32 47.36-56.32v-7.467c0-39.467-10.667-64.64-32.427-75.307-12.587-6.4-29.653-9.387-50.773-9.387-26.88 0-44.587 5.333-52.907 16.427-7.040 8.32-10.453 24.747-10.453 49.28l1.067 43.52 0.427 32.853v30.293c0.004 0.611 0.007 1.334 0.007 2.057 0 9.113-0.39 18.135-1.154 27.050l0.080-1.16-0.427 16.427v11.947c0 22.4 2.56 39.040 7.467 49.92 6.4 14.293 17.493 22.4 33.493 24.533 2.644 0.294 6.404 0.598 10.186 0.821l0.694 0.033c18.347 0 32.853-5.76 43.947-17.28 12.16-13.013 17.92-28.8 17.067-47.36-1.067-23.040-12.8-39.893-35.627-50.56-6.116-2.879-13.419-5.572-20.974-7.658l-0.999-0.235c-7.893-2.56-11.947-5.12-11.947-7.467 2.347-4.267 9.6-8.533 21.973-12.373 14.933-5.12 26.24-9.173 34.133-12.587z" />
<glyph unicode="&#xe004;" glyph-name="leb-border" data-tags="beta" d="M231.253 787.2c11.656 36.977 45.626 63.328 85.756 63.36h390.191c40.082-0.001 74.030-26.259 85.585-62.511l0.175-0.636 153.813-41.387c38.658-10.594 66.596-45.415 66.596-86.761 0-8.216-1.103-16.175-3.17-23.736l0.147 0.63-151.893-566.827c-10.645-38.584-45.429-66.451-86.722-66.451-8.308 0-16.353 1.128-23.989 3.24l0.631-0.149-236.373 63.36-236.373-63.36c-7.005-1.963-15.050-3.091-23.358-3.091-41.293 0-76.077 27.867-86.573 65.82l-0.149 0.631-151.893 566.827c-1.92 6.931-3.023 14.89-3.023 23.106 0 41.346 27.938 76.166 65.966 86.613l0.63 0.148 154.027 41.387zM253.44 766.507l-169.387-45.44c-27.512-7.573-47.387-32.369-47.387-61.806 0-5.863 0.788-11.542 2.265-16.936l-0.105 0.449 151.893-566.613c7.591-27.485 32.374-47.334 61.792-47.334 5.79 0 11.401 0.769 16.736 2.21l-0.448-0.103 243.2 65.28 243.2-65.28c4.887-1.338 10.498-2.107 16.288-2.107 29.418 0 54.201 19.849 61.686 46.884l0.106 0.45 151.893 566.613c1.338 4.887 2.107 10.498 2.107 16.288 0 29.418-19.849 54.201-46.884 61.686l-0.45 0.106-169.387 45.44c-3.038 32.65-30.202 58.037-63.339 58.24h-390.208c-33.091-0.192-60.218-25.468-63.34-57.766l-0.020-0.261z" />
<glyph unicode="&#xe005;" glyph-name="leb-inner" data-tags="beta" d="M743.893 745.6l189.227-50.773c19.627-5.12 31.147-25.6 26.027-45.013l-151.893-566.613c-4.396-15.823-18.674-27.242-35.619-27.242-3.34 0-6.576 0.444-9.653 1.275l0.258-0.059-250.24 66.987-250.24-66.987c-19.413-5.333-39.68 6.4-44.8 26.027l-152.32 566.613c-5.12 19.627 6.4 39.893 26.027 45.013l189.44 50.773v14.933c0 20.48 16.427 36.907 36.693 36.907h390.187c20.267 0 36.693-16.427 36.693-36.693v-15.147zM717.867 760.534c0.001 0.063 0.002 0.138 0.002 0.213 0 5.891-4.776 10.667-10.667 10.667-0.001 0-0.002 0-0.002 0h-390.187c-5.891 0-10.667-4.776-10.667-10.667v0-586.667c0-5.973 4.907-10.667 10.667-10.667h390.187c5.891 0 10.667 4.776 10.667 10.667v0 586.667zM629.12 304c-19.93-7.835-43.012-12.377-67.154-12.377-0.391 0-0.782 0.001-1.173 0.004h0.060c-33.124 1.561-64.348 6.912-94.127 15.642l2.82-0.709c-11.229 3.077-24.123 4.846-37.43 4.846-6.66 0-13.217-0.443-19.642-1.301l0.752 0.082-45.44-8.107c-1.493 0-3.2 1.493-4.693 4.267-1.171 1.959-1.939 4.285-2.13 6.773l-0.003 0.054c0 2.133 1.28 4.693 3.84 7.467l58.453 16.427c1.707 3.84 2.56 19.413 2.56 46.293 0 43.947-1.067 81.493-2.773 112.64-1.331 27.723-4.304 53.618-8.865 78.96l0.545-3.654c-2.133 10.453-8.96 17.28-20.907 20.907-13.731 1.682-24.634 3.406-35.425 5.445l3.425-0.538c-10.88 1.493-16.427 4.907-16.427 10.667 0 2.987 1.493 6.4 4.053 10.027 2.133 2.987 5.76 4.267 10.027 4.267 2.133 0 9.813-1.707 23.893-5.333 11.049-3.116 23.739-4.907 36.846-4.907 0.021 0 0.043 0 0.064 0h-0.003c1.511-0.082 3.28-0.129 5.060-0.129 20.348 0 39.271 6.1 55.041 16.572l-0.368-0.23c4.267 2.133 8.96 4.48 14.933 7.040 19.934 9.793 43.254 15.973 67.899 17.054l0.368 0.013c20.693 0 39.467-5.547 55.893-16.427 21.301-14.637 35.091-38.867 35.091-66.318 0-1.436-0.038-2.863-0.112-4.28l0.008 0.198c0-28.8-14.933-52.907-45.44-72.32l-3.84-2.347-6.4-4.053c23.68-5.973 43.307-19.2 58.667-39.467 12.964-15.223 20.971-35.016 21.332-56.67l0.001-0.077c-0.64-45.227-17.067-74.027-49.067-86.187zM575.787 461.867c-7.68 3.2-18.987 7.253-33.92 12.373-12.16 3.84-19.627 8.107-21.973 12.373 0 2.133 4.053 4.907 11.947 7.467l8.533 2.773c3.627 1.067 8.107 2.987 13.44 5.12 22.613 10.667 34.347 27.52 35.413 50.347 0.118 1.425 0.185 3.084 0.185 4.758 0 16.566-6.579 31.595-17.267 42.618l0.015-0.016c-10.496 10.9-25.214 17.671-41.514 17.671-2.361 0-4.688-0.142-6.975-0.418l0.275 0.027-6.4-0.64c-16-2.133-27.093-10.24-33.493-24.533-4.907-10.88-7.467-27.733-7.467-49.92v-11.947c0-4.48 0-10.027 0.427-16.427 0.453-7.459 0.837-17.124 1.051-26.831l0.016-0.902v-30.507c0-10.453 0-21.333-0.427-32.853l-1.067-43.52c0-24.533 3.413-40.96 10.667-49.28 8.107-11.093 25.6-16.427 52.693-16.427 21.333 0 38.187 2.987 50.773 9.387 21.547 10.667 32.427 35.84 32.427 75.307v7.467c-1.28 24.32-17.067 43.093-47.36 56.32zM280.32 718.507l-182.613-49.067c-4.648-1.219-8.022-5.382-8.022-10.334 0-0.952 0.125-1.876 0.359-2.754l-0.017 0.074 151.893-566.827c1.2-4.676 5.376-8.076 10.347-8.076 1.025 0 2.016 0.145 2.955 0.415l-0.075-0.019 205.44 55.040h-143.573c-20.267 0-36.693 16.64-36.693 36.907v544.853zM563.413 136.96l205.44-55.040c0.863-0.251 1.854-0.396 2.879-0.396 4.971 0 9.148 3.4 10.331 8.002l0.016 0.074 151.893 566.827c0.251 0.863 0.396 1.854 0.396 2.879 0 4.971-3.4 9.148-8.002 10.331l-0.074 0.016-182.4 48.853v-544.64c0-20.267-16.427-36.907-36.693-36.907h-144z" />
<glyph unicode="&#xe006;" glyph-name="2ed" data-tags="unlimited" d="M253.44 766.507c3.149 32.631 30.393 57.948 63.565 58.027h390.195c33.158-0.203 60.322-25.59 63.341-57.986l0.019-0.254 169.387-45.44c27.485-7.591 47.334-32.374 47.334-61.792 0-5.79-0.769-11.401-2.21-16.736l0.103 0.448-151.893-566.613c-7.591-27.485-32.374-47.334-61.792-47.334-5.79 0-11.401 0.769-16.736 2.21l0.448-0.103-243.2 65.28-243.2-65.28c-4.887-1.338-10.498-2.107-16.288-2.107-29.418 0-54.201 19.849-61.686 46.884l-0.106 0.45-151.893 566.613c-1.338 4.887-2.107 10.498-2.107 16.288 0 29.418 19.849 54.201 46.884 61.686l0.45 0.106 169.6 45.653zM743.893 745.6v14.933c0 20.48-16.427 36.907-36.693 36.907h-390.187c-20.267 0-36.693-16.427-36.693-36.693v-15.147l-189.44-50.773c-15.823-4.396-27.242-18.674-27.242-35.619 0-3.34 0.444-6.576 1.275-9.653l-0.059 0.258 151.893-566.613c5.333-19.627 25.6-31.36 45.013-26.027l250.24 66.987 250.24-66.987c2.893-0.83 6.216-1.308 9.651-1.308 16.856 0 31.027 11.5 35.094 27.082l0.056 0.252 152.107 566.613c5.12 19.627-6.4 39.893-26.027 45.013l-189.227 50.773zM460.587 137.174l-205.44-55.040c-0.863-0.251-1.854-0.396-2.879-0.396-4.971 0-9.148 3.4-10.331 8.002l-0.016 0.074-151.893 566.827c-0.251 0.863-0.396 1.854-0.396 2.879 0 4.971 3.4 9.148 8.002 10.331l0.074 0.016 182.613 48.853v-544.64c0-20.267 16.427-36.907 36.693-36.907h143.573zM743.893 718.934l182.4-49.067c4.648-1.219 8.022-5.382 8.022-10.334 0-0.952-0.125-1.876-0.359-2.754l0.017 0.074-151.893-567.253c-1.2-4.676-5.376-8.076-10.347-8.076-1.025 0-2.016 0.145-2.955 0.415l0.075-0.019-205.44 55.040h143.787c20.267 0 36.693 16.64 36.693 36.907v544.853zM717.867 174.294c0-5.891-4.776-10.667-10.667-10.667v0h-390.187c-5.891 0-10.667 4.776-10.667 10.667v0 586.453c0 5.973 4.907 10.667 10.667 10.667h390.187c5.76 0 10.667-4.693 10.667-10.667v-586.667zM657.067 302.294c6.827 0 13.44 1.707 20.053 5.333 7.467 4.48 12.16 10.027 13.653 16.427-18.71 5.037-33.525 18.448-40.393 35.862l-0.141 0.405c-4.907 13.013-7.253 35.84-7.253 68.267v148.267c0 38.4-1.92 59.307-5.333 62.933-2.186 0.965-4.735 1.527-7.416 1.527-0.393 0-0.784-0.012-1.171-0.036l0.053 0.003c-19.2 0-38.4-2.56-58.027-7.467-3.627-1.92-5.333-4.267-5.333-6.827 0-2.773 2.347-6.4 7.253-10.667l3.413-3.413c7.467-7.467 11.52-12.587 11.733-15.147 2.649-14.069 4.414-30.537 4.896-47.325l0.010-0.461c0.718-21.189 1.484-38.044 2.418-54.853l-0.285 6.427c1.92-19.2 2.773-36.907 2.773-52.907 0.151-2.844 0.236-6.174 0.236-9.524 0-23.527-4.232-46.066-11.975-66.897l0.432 1.328c-7.040-13.013-19.2-23.040-36.267-29.867-12.174-4.998-26.304-7.899-41.111-7.899-0.397 0-0.793 0.002-1.189 0.006l0.061-0.001c-39.467 0-65.28 18.987-77.653 56.747-6.613 20.48-9.813 53.76-9.813 99.627l0.427 32.853v45.867c0 4.907 0 10.667 0.427 17.067 0.452 8.018 0.837 18.433 1.051 28.89l0.016 0.977c0 13.227-4.907 20.053-14.72 20.053l-21.973-4.267c-14.293-3.2-32-4.48-52.693-4.48 0-6.4 1.28-11.093 3.84-14.933 1.28-1.493 5.333-4.267 11.733-7.68 10.027-5.12 16.427-13.227 19.2-23.893 1.497-32.047 2.35-69.617 2.35-107.385 0-1.396-0.001-2.793-0.003-4.188v0.214c0-45.227 2.773-80 8.32-104.107 3.101-16.374 10.497-30.662 20.965-42.091l-0.058 0.064c18.084-19.388 43.779-31.474 72.298-31.474 8.725 0 17.186 1.131 25.244 3.255l-0.688-0.154c13.653 2.347 22.827 3.84 27.307 4.267 17.291 4.246 32.348 12.096 44.963 22.747l-0.163-0.134c5.12 3.627 9.813 7.467 14.933 11.733l14.933 13.227c2.347-0.213 4.267-1.707 6.4-4.267l1.493-2.56 2.133-3.84c5.76-11.52 13.44-20.48 23.467-27.52 8.32-5.333 16.64-8.107 25.173-8.107z" />
<glyph unicode="&#xe007;" glyph-name="2ed-border" data-tags="unlimited" d="M231.253 787.2c11.656 36.977 45.626 63.328 85.756 63.36h390.191c40.082-0.001 74.030-26.259 85.585-62.511l0.175-0.636 153.813-41.387c38.658-10.594 66.596-45.415 66.596-86.761 0-8.216-1.103-16.175-3.17-23.736l0.147 0.63-151.893-566.827c-10.645-38.584-45.429-66.451-86.722-66.451-8.308 0-16.353 1.128-23.989 3.24l0.631-0.149-236.373 63.36-236.373-63.36c-7.005-1.963-15.050-3.091-23.358-3.091-41.293 0-76.077 27.867-86.573 65.82l-0.149 0.631-151.893 566.827c-1.92 6.931-3.023 14.89-3.023 23.106 0 41.346 27.938 76.166 65.966 86.613l0.63 0.148 154.027 41.387zM253.44 766.507l-169.387-45.44c-27.512-7.573-47.387-32.369-47.387-61.806 0-5.863 0.788-11.542 2.265-16.936l-0.105 0.449 151.893-566.613c7.591-27.485 32.374-47.334 61.792-47.334 5.79 0 11.401 0.769 16.736 2.21l-0.448-0.103 243.2 65.28 243.2-65.28c4.887-1.338 10.498-2.107 16.288-2.107 29.418 0 54.201 19.849 61.686 46.884l0.106 0.45 151.893 566.613c1.338 4.887 2.107 10.498 2.107 16.288 0 29.418-19.849 54.201-46.884 61.686l-0.45 0.106-169.387 45.44c-3.038 32.65-30.202 58.037-63.339 58.24h-390.208c-33.091-0.192-60.218-25.468-63.34-57.766l-0.020-0.261z" />
<glyph unicode="&#xe008;" glyph-name="2ed-inner" data-tags="unlimited" d="M743.893 745.6l189.227-50.773c19.627-5.12 31.147-25.6 26.027-45.013l-151.893-566.613c-4.396-15.823-18.674-27.242-35.619-27.242-3.34 0-6.576 0.444-9.653 1.275l0.258-0.059-250.24 66.987-250.24-66.987c-19.413-5.333-39.68 6.4-44.8 26.027l-152.32 566.613c-5.12 19.627 6.4 39.893 26.027 45.013l189.44 50.773v14.933c0 20.48 16.427 36.907 36.693 36.907h390.187c20.267 0 36.693-16.427 36.693-36.693v-15.147zM717.867 760.534c0.001 0.063 0.002 0.138 0.002 0.213 0 5.891-4.776 10.667-10.667 10.667-0.001 0-0.002 0-0.002 0h-390.187c-5.891 0-10.667-4.776-10.667-10.667v0-586.667c0-5.973 4.907-10.667 10.667-10.667h390.187c5.891 0 10.667 4.776 10.667 10.667v0 586.667zM657.067 301.867c-8.533 0-17.067 2.987-25.387 8.533-11.044 7.798-19.722 18.256-25.198 30.463l-0.188 0.47c-0.5 0.673-0.994 1.44-1.438 2.239l-0.055 0.108c-2.133 2.773-4.053 4.267-6.4 4.48l-14.933-13.227c-5.12-4.267-9.813-8.107-14.933-11.733-18.133-13.227-33.067-20.907-44.8-22.4l-27.307-4.267c-7.318-1.942-15.72-3.057-24.383-3.057-28.497 0-54.176 12.068-72.204 31.373l-0.053 0.057c-10.534 11.275-18.066 25.483-21.242 41.267l-0.092 0.546c-5.279 27.154-8.299 58.38-8.299 90.312 0 4.851 0.070 9.685 0.208 14.502l-0.016-0.708c0 33.493-0.213 59.52-0.853 77.867-0.427 18.347-1.067 29.653-1.707 33.493-2.56 10.667-8.747 18.773-18.987 23.893-6.4 3.627-10.453 6.4-11.733 7.893-2.56 3.627-3.84 8.533-3.84 14.72 20.907 0 38.4 1.28 52.693 4.267l21.973 4.267c9.813 0 14.72-6.4 14.72-19.84-0.022-10.554-0.409-20.972-1.149-31.294l0.082 1.427-0.427-17.067v-45.867l-0.427-32.853c0-45.867 3.2-78.933 9.813-99.627 12.373-37.76 38.187-56.747 77.653-56.747 15.573 0 29.867 2.773 42.453 7.893 17.067 6.827 29.013 16.853 36.267 29.867 7.194 19.356 11.356 41.718 11.356 65.052 0 3.532-0.095 7.042-0.284 10.527l0.021-0.486c0 16-1.067 33.707-2.987 52.907l-0.853 17.28-1.067 31.147c-0.468 17.227-2.234 33.696-5.208 49.741l0.301-1.954c-0.213 2.56-4.267 7.68-11.733 14.933l-3.413 3.627c-4.907 4.267-7.253 7.893-7.253 10.667s1.707 4.907 5.333 6.827c17.454 4.656 37.509 7.374 58.184 7.466h0.056c0.139 0.003 0.302 0.005 0.466 0.005 2.828 0 5.527-0.55 7.997-1.55l-0.143 0.051c3.413-3.627 5.333-24.533 5.333-63.147v-147.84c0-32.64 2.347-55.467 7.253-68.48 6.4-17.493 20.053-29.653 40.533-36.267-1.707-6.4-6.187-11.947-13.653-16.427-6.4-3.627-13.227-5.333-20.053-5.333zM563.413 137.174l205.44-55.040c0.863-0.251 1.854-0.396 2.879-0.396 4.971 0 9.148 3.4 10.331 8.002l0.016 0.074 151.893 566.827c0.251 0.863 0.396 1.854 0.396 2.879 0 4.971-3.4 9.148-8.002 10.331l-0.074 0.016-182.4 48.853v-544.64c0-20.267-16.427-36.907-36.693-36.907h-144zM280.32 718.934l-182.613-49.067c-4.648-1.219-8.022-5.382-8.022-10.334 0-0.952 0.125-1.876 0.359-2.754l-0.017 0.074 151.893-566.827c1.2-4.676 5.376-8.076 10.347-8.076 1.025 0 2.016 0.145 2.955 0.415l-0.075-0.019 205.44 55.040h-143.573c-20.267 0-36.693 16.64-36.693 36.907v544.427z" />
<glyph unicode="&#xe009;" glyph-name="ced" data-tags="ced, collectors, edition" horiz-adv-x="1020" d="M715.074 828.043v0c0.002-0.002 50.569-5.487 50.569-57.764l187.654-52.275c0-0.002 46.91-17.741 32.431-79.1l-150.197-560.139c-18.217-60.335-68.077-53.154-68.079-53.154l-257.423 70.598-257.865-70.948c0-0.002-49.638-7.787-67.857 52.548l-150.129 561.094c-14.389 61.359 32.463 79.098 32.463 79.098l187.654 52.279c0 52.275 50.479 57.76 50.479 57.76l410.3 0.002zM713.165 806.338h-406.686c-2.3-0.418-9.577-2.039-16.35-6.598-9.666-6.4-14.114-15.738-14.114-29.436v-16.437c0-0.002-198.903-55.497-201.798-56.265-5.237-2.389-20.821-11.814-20.821-36.713 0-5.062 0.702-10.718 2.148-17.139 48.324-180.789 95.191-361.965 144.9-542.381 2.039-7.366 0.497-1.792 4.629-16.723 1.958-6.285 4.235-12.156 6.767-16.542 12.45-21.562 30.861-21.602 36.591-21.052l5.489 1.412 255.979 70.466 244.164-67.232c10.626-2.686 4.996-1.261 16.89-4.279 5.73-0.55 24.143-0.51 36.591 21.052 2.532 4.384 4.809 10.257 6.767 16.542 3.942 14.249 2.59 9.357 4.062 14.673 95.962 358.037 47.356 176.681 145.818 544.064 1.446 6.421 2.148 12.077 2.148 17.139 0 24.898-15.671 34.323-20.821 36.713-2.895 0.768-201.886 56.262-201.886 56.265v16.437c0 13.698-4.45 23.036-14.027 29.436-6.773 4.559-14.050 6.18-16.439 6.598v0zM271.718 724.058v-556.318c0 0 4.713-36.143 33.643-36.143l156.164 0.002-209.073-57.623c0 0-11.989-5.984-18.061 7.189l-153.775 570.805c0 0-6.069 17.995 8.395 22.773l182.707 49.314zM748.102 725.263l182.53-49.314c14.468-4.802 8.461-22.773 8.461-22.773l-153.841-570.805c-5.918-13.195-17.971-7.189-17.971-7.189l-209.075 57.711 156.23-0.002c28.779 0 33.666 36.032 33.666 36.034v556.339zM711.454 779.292l0.002-0.002c8.395 0 9.579-10.784 9.577-10.782v-598.379c0.002-9.6-9.577-11.989-9.577-11.989h-402.5c-8.459 0-8.459 11.989-8.459 11.989l-0.002 598.379c0.002 7.187 8.463 10.782 8.461 10.784h402.498zM564.011 708.7c-0.994-0.145-2.029 0.049-3.017-0.147-0.205-0.041-1.344-0.378-1.566-0.444q-9.781-4.911-15.371-14.383-5.589-9.47-10.131-21.747-2.095 1.052-9.606 2.281-7.509 1.227-17.116 2.278t-19.213 1.754-15.196 0.702q-25.15 0-49.252-8.418t-43.315-24.555-30.916-39.989q-11.701-23.853-11.701-54.722 0-33.675 10.654-57.702t27.945-39.287q17.293-15.26 39.648-22.449 22.357-7.191 45.762-7.191 5.937 0 13.099 0.35l3.686 0.162-1.359-2.886q-11.153-25.289-11.153-60.25 0-25.118 8.111-45.993 8.113-20.877 23.663-35.812t38.195-23.42q22.65-8.486 52.055-8.486 7.437 0 17.239 0.51 9.803 0.508 19.605 1.357t18.423 1.359q8.619 0.508 13.69 0.508 6.084 0 7.942-5.261 1.86-5.261 2.537-10.014 0.676-3.055 3.211-3.223 2.534-0.171 5.916 1.188-1.69 5.769-2.366 14.255t-0.676 17.312q0 10.861 1.69 19.347 1.013 4.414 2.029 8.147 0 1.696-1.86 2.716-1.858 1.018-3.211 1.018-0.337 0-1.353-1.018-2.027-4.753-7.266-10.863t-13.692-11.71q-8.45-5.602-20.619-9.504-12.169-3.904-28.055-3.904-16.563 0-29.239 5.092-12.676 5.090-21.803 13.747-9.126 8.655-15.211 19.686t-9.803 22.912-5.239 23.761-1.521 22.063q5.747 0.339 19.774 0.678 14.029 0.339 37.013 0.339 12.171 0 22.647-0.339 10.479-0.339 18.761-1.867t13.521-4.582 6.592-8.486q0.676-2.377 3.887-3.733t3.887 2.037q0 8.484 1.353 16.292t3.379 14.257q2.029 6.449 3.718 11.371 1.692 4.922 2.366 7.977-1.013 1.357-3.548 1.698-2.534 0.339-3.887-1.698-2.705-2.716-9.129-5.090-6.421-2.377-15.211-4.243-8.787-1.869-19.266-2.886t-21.295-1.018q-4.734-0.339-14.197-0.171-9.466 0.171-19.605 0.51t-18.761 1.018q-8.619 0.678-11.324 1.359 1.013 17.988 6.421 34.793 5.41 16.8 14.537 29.869t21.634 21.045 27.716 7.977q13.521 0 24.337-3.563 10.818-3.565 18.592-8.996t12.508-11.371q4.732-5.941 6.421-10.692 1.353-4.753 4.902-4.922 3.548-0.171 4.224 2.545 1.353 10.182 3.213 18.33 1.858 8.147 3.548 12.559 4.058 14.596 9.297 24.949t13.013 16.463q4.732 3.394 2.366 5.431-2.366 2.035-8.113 3.733-4.732 0-8.113-6.281-3.379-6.278-5.914-13.577-2.537-7.298-4.226-13.408t-3.381-5.771q-2.703 0.678-9.126 1.527-6.421 0.849-14.871 1.698-8.45 0.847-17.916 1.357t-17.577 0.51q-27.042 0-51.718-7.637-24.674-7.637-43.605-23.932c-8.917-8.149-17.246-17.156-22.935-27.945-11.279-1.873-6.182-1.421-15.241-1.792q-17.815 0-32.836 8.595-15.019 8.593-25.85 25.079-10.827 16.489-16.941 40.166-6.112 23.676-6.114 54.195 0.002 22.099 4.892 41.391 4.89 19.294 14.146 33.325 9.259 14.031 22.707 22.099t30.564 8.068q16.068 0 27.772-4.209 11.701-4.211 19.561-11.226 7.861-7.017 12.226-15.785 4.367-8.77 5.764-17.54 2.795-2.103 4.89-2.103 1.399 0 2.795 1.227 1.397 1.229 1.397 2.982 0 3.157 0.35 7.716 0.35 4.561 1.047 9.472 0.7 4.911 1.572 9.997 0.875 5.086 1.572 8.945 1.397 8.068 4.017 15.959 2.62 7.893 6.114 14.031 3.492 6.14 7.509 9.999 4.017 3.857 8.209 3.857 1.397 0 2.27 0.702 0.875 0.702 2.62 3.859 0 2.805-3.492 3.507l-1.705 0.241z" />
<glyph unicode="&#xe00a;" glyph-name="ced-border" data-tags="ced, collectors, edition" horiz-adv-x="1020" d="M716.732 860.141c47.77-3.415 72.188-43.567 77.425-64.516 149.073-41.828 162.377-44.13 174.289-49.248 47.748-20.516 57.35-75.994 48.154-114.957l-150.658-561.835c-8.922-29.551-23.095-50.492-42.831-62.786-11.262-7.021-18.453-10.067-30.114-12.7-7.985-1.805-17.534-2.231-25.779-0.894l-257.171 70.063-250.761-68.629c-59.2-6.347-91.287 30.575-100.218 56.681l-155.817 580.331c0 0-23.234 87.375 54.526 117.178 12.561 4.813 167.923 46.795 167.923 46.795 14.793 54.707 68.459 64.179 76.693 63.957zM715.076 828.043l-410.302-0.002c0 0-50.479-5.485-50.479-57.76l-187.654-52.279c0 0-46.852-17.739-32.461-79.098l150.129-561.094c18.217-60.335 67.855-52.55 67.855-52.55l257.865 70.95 257.425-70.598c0 0 49.86-7.181 68.077 53.154l150.197 560.139c14.479 61.359-32.431 79.098-32.431 79.1l-187.654 52.275c0 52.277-50.566 57.762-50.566 57.764z" />
<glyph unicode="&#xe00b;" glyph-name="ced-inner" data-tags="ced, collectors, edition" horiz-adv-x="1020" d="M713.165 806.338v0c2.389-0.418 9.666-2.039 16.439-6.598 9.577-6.4 14.027-15.738 14.027-29.436v-16.437c0-0.002 198.991-55.497 201.886-56.265 5.15-2.389 20.821-11.814 20.821-36.713 0-5.062-0.702-10.718-2.148-17.139-98.462-367.383-49.856-186.027-145.818-544.064-1.472-5.316-0.119-0.425-4.062-14.673-1.958-6.285-4.235-12.158-6.767-16.542-12.448-21.562-30.861-21.602-36.591-21.052-11.893 3.019-6.263 1.594-16.887 4.279l-244.166 67.23-261.468-71.876c-5.73-0.55-24.141-0.51-36.591 21.052-2.532 4.386-4.809 10.257-6.767 16.542-4.132 14.931-2.59 9.357-4.629 16.723-49.709 180.416-96.576 361.591-144.9 542.381-1.446 6.421-2.148 12.077-2.148 17.139 0 24.898 15.584 34.323 20.821 36.713 2.895 0.768 201.798 56.262 201.798 56.265v16.437c0 13.698 4.448 23.036 14.114 29.436 6.773 4.559 14.050 6.18 16.352 6.598h406.684zM271.718 724.058l-182.707-49.314c-14.464-4.779-8.395-22.773-8.395-22.773l153.775-570.805c6.071-13.173 18.061-7.189 18.061-7.189l209.073 57.621h-156.164c-28.93 0-33.643 36.143-33.643 36.143v556.318zM748.102 725.263v-556.339c0-0.002-4.887-36.034-33.666-36.034h-156.23l209.075-57.709c0 0 12.053-6.005 17.971 7.189l153.841 570.805c0 0 6.007 17.971-8.461 22.773l-182.53 49.314zM711.456 779.292l-402.5-0.002c0.002 0-8.459-3.595-8.459-10.782v-598.379c0 0 0-11.989 8.461-11.989h402.498c0 0 9.579 2.389 9.577 11.989l0.002 598.379c0-0.002-1.184 10.782-9.579 10.782v0.002zM564.013 708.7l1.702-0.241q3.492-0.702 3.492-3.507-1.745-3.157-2.62-3.859-0.873-0.702-2.27-0.702-4.192 0-8.209-3.857-4.017-3.859-7.509-9.999-3.494-6.138-6.114-14.031-2.62-7.891-4.017-15.959-0.698-3.859-1.572-8.945t-1.572-9.997-1.047-9.472q-0.35-4.559-0.35-7.716 0-1.754-1.397-2.982-1.395-1.227-2.793-1.227-2.097 0-4.892 2.103-1.397 8.77-5.764 17.54-4.365 8.768-12.226 15.785-7.859 7.014-19.561 11.226-11.703 4.209-27.772 4.209-17.116 0-30.564-8.068t-22.707-22.099q-9.257-14.031-14.146-33.325-4.89-19.292-4.892-41.391 0.002-30.519 6.114-54.197 6.114-23.676 16.943-40.164 10.829-16.486 25.847-25.079 15.021-8.595 32.836-8.595c9.058 0.371 3.962-0.081 15.241 1.792 5.69 10.788 14.018 19.795 22.935 27.945q18.931 16.294 43.605 23.932 24.676 7.637 51.718 7.637 8.111 0 17.577-0.51t17.916-1.357q8.45-0.849 14.871-1.698 6.423-0.849 9.126-1.527 1.692-0.339 3.381 5.771t4.226 13.408q2.534 7.298 5.914 13.577 3.381 6.281 8.113 6.281 5.747-1.698 8.113-3.733 2.366-2.037-2.366-5.431-7.774-6.11-13.013-16.463t-9.297-24.949q-1.69-4.412-3.548-12.559-1.86-8.147-3.213-18.33-0.676-2.716-4.224-2.545-3.55 0.169-4.902 4.922-1.69 4.751-6.421 10.692-4.734 5.939-12.508 11.371t-18.592 8.996q-10.816 3.563-24.337 3.563-15.211 0-27.716-7.977-12.508-7.977-21.634-21.045t-14.534-29.871q-5.41-16.802-6.423-34.79 2.705-0.681 11.324-1.359 8.621-0.678 18.761-1.018t19.605-0.51q9.463-0.169 14.197 0.171 10.816 0 21.295 1.018t19.266 2.886q8.789 1.867 15.213 4.241 6.421 2.377 9.126 5.092 1.353 2.037 3.887 1.698 2.534-0.341 3.55-1.698-0.676-3.055-2.368-7.977-1.69-4.922-3.718-11.371t-3.379-14.257-1.353-16.292q-0.676-3.394-3.887-2.037t-3.887 3.733q-1.353 5.431-6.592 8.486t-13.521 4.582-18.761 1.867q-10.477 0.339-22.647 0.339-22.985 0-37.013-0.339t-19.774-0.678q0-10.182 1.521-22.063t5.239-23.761 9.803-22.912 15.211-19.686q9.126-8.657 21.803-13.747 12.676-5.092 29.239-5.092 15.887 0 28.055 3.904 12.169 3.902 20.619 9.504 8.452 5.6 13.692 11.71t7.266 10.863q1.015 1.018 1.353 1.018 1.353 0 3.211-1.018 1.86-1.020 1.86-2.716-1.015-3.733-2.029-8.147-1.69-8.486-1.69-19.347 0-8.826 0.676-17.312t2.366-14.257q-3.381-1.357-5.916-1.186-2.534 0.169-3.211 3.223-0.676 4.753-2.537 10.014-1.858 5.261-7.942 5.261-5.071 0-13.69-0.51-8.621-0.508-18.423-1.357t-19.605-1.357q-9.803-0.51-17.239-0.51-29.406 0-52.055 8.486-22.645 8.484-38.195 23.42t-23.661 35.812q-8.113 20.875-8.113 45.993 0 34.961 11.155 60.25l1.357 2.884-3.686-0.16q-7.162-0.35-13.099-0.35-23.405 0-45.762 7.191-22.355 7.189-39.646 22.449-17.293 15.26-27.947 39.287t-10.654 57.702q0 30.869 11.701 54.722 11.703 23.853 30.916 39.989t43.315 24.555 49.252 8.418q5.589 0 15.196-0.702t19.213-1.754 17.118-2.281q7.509-1.227 9.604-2.278 4.542 12.277 10.131 21.747 5.589 9.472 15.371 14.383c2.449 0.708 0.941 0.388 4.585 0.591z" />
</font>
</defs>
</svg>
