<?xml version="1.0" standalone="no"?>
<!DOCTYPE svg PUBLIC "-//W3C//DTD SVG 1.1//EN" "http://www.w3.org/Graphics/SVG/1.1/DTD/svg11.dtd" >
<svg xmlns="http://www.w3.org/2000/svg">
<metadata>Generated by IcoMoon</metadata>
<defs>
<font id="setsymbols" horiz-adv-x="1024">
<font-face units-per-em="1024" ascent="960" descent="-64" />
<missing-glyph horiz-adv-x="1024" />
<glyph unicode="&#x20;" d="" horiz-adv-x="512" />
<glyph unicode="&#xe600;" d="M722.589 860.042c0 0 51.91-5.63 51.91-59.298l192.645-53.668c0 0 48.126-18.557 33.263-81.548l-159.223-594.441c0 0-33.353-44.501-72.224-33.331l-256.896 70.649-256.964-70.649c-38.871-11.17-72.224 33.331-72.224 33.331l-159.314 594.441c-14.773 62.991 33.353 81.548 33.353 81.548l192.645 53.668c0 53.668 51.82 59.298 51.82 59.298h421.21zM720.922 837.769h-417.876c-2.365-0.428-9.842-2.094-16.8-6.779-9.933-6.576-14.503-16.169-14.503-30.246v-16.891c0 0-204.378-57.023-207.351-57.812-5.383-2.454-21.395-12.138-21.395-37.722 0-5.202 0.72-11.011 2.207-17.611 0.271-0.969 155.349-579.825 157.918-589.148 6.757-7.747 26.912-27.88 45.92-22.521l263.023 72.405 262.955-72.405c19.007-5.359 39.074 14.775 45.92 22.521 2.569 9.324 157.647 588.18 157.918 589.148 1.487 6.6 2.207 12.409 2.207 17.611 0 25.585-16.102 35.268-21.395 37.722-2.973 0.79-207.44 57.812-207.44 57.812v16.891c0 14.077-4.572 23.67-14.415 30.246-6.958 4.685-14.435 6.351-16.891 6.779zM267.327 753.225v-571.628c0 0 4.842-37.137 34.57-37.137h160.463l-214.828-59.208c0 0-12.319-6.147-18.557 7.386l-158.008 586.515c0 0-6.238 18.488 8.625 23.398l187.735 50.673zM756.821 754.464l187.554-50.673c14.863-4.932 8.694-23.4 8.692-23.4l-158.073-586.513c-6.081-13.558-18.468-7.386-18.468-7.386l-214.828 59.298h160.531c29.57 0 34.592 37.024 34.592 37.024v571.65zM719.165 809.979c8.625-0.002 9.842-11.081 9.842-11.081v-614.844c0-9.865-9.842-12.32-9.842-12.32h-413.575c-8.694 0-8.694 12.32-8.694 12.32v614.844c0 7.386 8.694 11.080 8.694 11.080l413.575 0.002zM615.327 680.818c-5.547-0.002-22.579-1.667-51.092-5.001-28.515-3.333-53.693-5.001-75.535-5.001-14.44 0-37.769 0.833-69.984 2.5s-63.13 3.42-92.745 5.263c0-12.588 26.288-20.176 78.865-22.764 10.733-4.069 21.473-7.955 32.22-11.662l-54.441-202.713c0 0.362 0.28 2.026 0.838 4.992l0.174 0.901 0.666 2.429c-0.005 0.065 0.044 0.166-0.014 0.193-0.089 0.043-0.188-0.396-0.314-0.969-0.162-0.727-0.23-1.085-0.338-1.652-7.39-27.022-14.621-54.088-21.835-81.157-9.813-36.842-16.478-56.559-19.992-59.153-3.514-2.592-7.124-3.889-10.831-3.889-3.333 0.746-6.016 1.302-8.050 1.669s-3.052-0.37-3.052-2.212c0-2.225 0.555-7.598 1.662-16.118l106.085 7.219c0 2.227 0 5.19 0 8.89 0 3.702-1.853 6.11-5.559 7.229-8.52-0.746-17.034-1.492-25.544-2.237-7.412 0-11.488 2.871-12.228 8.61s-1.111 11.204-1.111 16.391c0 17.773 2.594 37.398 7.781 58.873 5.187 21.473 10.366 41.284 15.543 59.433 4.079 5.175 31.479 11.372 82.203 18.592s77.752 10.090 81.085 8.61c3.333-1.48 7.501-18.975 12.501-52.483 4.999-33.509 9.905-66.737 14.72-99.686-2.961-5.187-11.568-9.354-25.822-12.501-14.256-3.147-21.383-6.572-21.383-10.279 0-2.587 1.848-5.734 5.543-9.441 0.746-0.734 4.541-0.177 11.39 1.671 6.847 1.847 21.378 2.77 43.593 2.77 24.067 0 41.655-0.833 52.763-2.499 11.107-1.667 18.514-2.5 22.221-2.5 4.067 0 9.807 0.746 17.22 2.237 1.48 12.948-3.891 19.424-16.111 19.424s-21.2 1.946-26.941 5.839c-5.74 3.893-12.31 24.721-19.712 62.484-7.4 37.762-12.768 68.864-16.101 93.305-2.599 5.92-8.156 31.375-16.671 76.365s-12.771 75.812-12.771 92.467c0 5.187 0.276 8.982 0.831 11.39 0.553 2.406 6.753 4.442 18.601 6.11 11.848 1.666 20.364 4.352 25.552 8.059-2.215 6.666-10.177 9.999-23.883 10.001zM525.353 653.037c3.7 0 6.477-0.833 8.33-2.499 1.852-1.667 7.779-20.922 17.78-57.764 9.999-36.842 15-64.519 15-83.026-19.628-2.227-41.382-4.173-65.263-5.84-23.883-1.666-44.897-2.5-63.044-2.499-10.733-0.002-16.655 0.558-17.763 1.678-0.372 0.372 3.792 17.033 12.493 49.983s17.492 65.905 26.373 98.865c8.892 0.36 18.336 0.635 28.331 0.823 9.994 0.184 19.251 0.278 27.771 0.278 2.961 0 6.291 0 9.993 0z" />
<glyph unicode="&#xe601;" d="M722.152 859.102c0 0 51.799-5.528 51.799-59.081l192.162-53.641c0 0 48.002-18.429 33.26-81.283l-158.88-593.254c0 0-33.282-44.227-72.069-33.169l-256.323 70.496-256.435-70.496c-38.787-11.057-72.069 33.169-72.069 33.169l-158.971 593.254c-14.742 62.855 33.282 81.283 33.282 81.283l192.23 53.641c0 53.553 51.71 59.081 51.71 59.081h420.304zM720.488 836.966h-416.978c-2.36-0.427-9.82-2.091-16.765-6.765-9.911-6.56-14.473-16.135-14.473-30.181v-16.853c0 0-203.938-56.9-206.904-57.687-5.371-2.54-21.349-12.114-21.349-37.642 0-5.192 0.719-10.989 2.202-17.574 0.27-1.056 155.039-578.579 157.488-587.882 6.854-7.731 26.945-27.822 45.911-22.473l262.39 72.25 262.547-72.25c18.877-5.349 38.9 14.742 45.732 22.473 2.562 9.303 157.242 586.825 157.578 587.882 1.507 6.584 2.203 12.382 2.203 17.574 0 25.528-16.068 35.103-21.328 37.642-2.988 0.787-206.995 57.687-206.995 57.687v16.855c0 14.044-4.562 23.619-14.404 30.179-7.011 4.675-14.404 6.339-16.855 6.765zM267.868 752.514v-570.308c0 0 4.832-37.057 34.429-37.057h160.207l-214.388-59.081c0 0-12.36-6.135-18.517 7.462l-157.645 585.073c0 0-6.158 18.541 8.585 23.439l187.331 50.473zM756.221 753.84l187.242-50.563c14.831-4.92 8.695-23.349 8.695-23.349l-157.757-585.254c-6.134-13.527-18.427-7.371-18.427-7.371l-214.366 59.081h160.118c29.573 0 34.495 37.035 34.495 37.035v570.421zM718.735 809.235c8.608 0 9.822-11.056 9.822-11.056l-0.002-613.615c0.002-9.752-9.82-12.203-9.82-12.203l-412.663 0.002c-8.697-0.002-8.697 12.201-8.697 12.201v613.615c0 7.371 8.697 11.056 8.697 11.056h412.663zM565.071 681.37c-8.598-0.002-15.94-0.717-22.026-2.147v0c-29.706-6.808-53.422-15.312-71.149-25.516-17.727-10.206-38.221-15.309-61.481-15.307-10.030-0.002-20.772 1.253-32.229 3.761-11.455 2.505-22.733 5.011-33.833 7.513-3.584 0-6.54-1.521-8.866-4.564-2.328-3.043-3.492-5.816-3.492-8.317 0-3.946 11.727-7.526 35.178-10.743 23.453-3.217 36.7-12.436 39.743-27.655s5.818-44.31 8.325-87.269c2.507-42.96 3.761-81.265 3.761-114.915-0.002-15.756-0.358-28.377-1.073-37.866-0.717-9.489-1.79-14.769-3.22-15.84l-62.834-17.715c-2.152-1.792-3.227-3.405-3.227-4.835 0-2.152 0.538-4.035 1.613-5.646 1.077-1.613 2.331-2.953 3.761-4.024l48.87 8.588 18.797 1.082c15.394 0 32.311-2.418 50.748-7.252 18.437-4.835 33.92-8.416 46.452-10.743s26.494-3.49 41.888-3.49c12.172 0 24.342 1.073 36.514 3.22 12.17 2.147 26.493 6.443 42.962 12.889 16.471 6.446 28.196 17.814 35.178 34.104s10.472 34.278 10.472 53.967c0 21.12-8.503 42.242-25.508 63.367-17.007 21.123-38.757 34.195-65.251 39.209 5.004 3.572 17.891 12.52 38.661 26.844 17.546 16.114 26.319 35.628 26.319 58.54 0 5.014-1.253 15.305-3.76 30.875-2.509 15.568-12.803 29.442-30.886 41.619-18.080 12.175-38.217 18.263-60.407 18.265zM526.935 649.673c20.048 0 36.429-6.354 49.142-19.060 12.711-12.706 19.067-28.368 19.067-46.985v-9.129c0-20.77-7.878-36.434-23.632-46.993-15.754-10.561-32.759-17.452-51.017-20.675 26.134-11.46 52.449-22.917 78.944-34.365 21.48-13.244 32.22-31.145 32.22-53.705 0-25.064-2.953-45.022-8.859-59.875-5.905-14.853-15.391-25.504-28.457-31.949-13.068-6.448-31.237-9.67-54.509-9.67-13.252 0-25.248 1.432-35.988 4.294s-18.615 7.426-23.624 13.693c-5.009 6.265-8.233 13.338-9.668 21.214-1.437 7.878-2.156 19.693-2.156 35.449 0.36 15.394 0.72 31.594 1.082 48.599 0.36 17.005 0.539 38.576 0.539 64.71 0 6.086-0.179 15.572-0.539 28.459-0.362 12.887-0.541 22.554-0.541 29 0 25.772 2.954 45.909 8.866 60.407 5.91 14.498 18.174 23.004 36.791 25.516l12.341 1.065z" />
<glyph unicode="&#xe602;" d="M722.123 859.146c0-0.002 51.802-5.53 51.802-59.087l192.27-53.646c0 0 48.005-18.429 33.171-81.29l-158.894-593.212c0 0-33.283-44.409-72.074-33.263l-256.343 70.502-256.456-70.502c-38.791-11.146-72.076 33.263-72.076 33.263l-158.894 593.212c-14.833 62.862 33.263 81.29 33.261 81.29l192.179 53.646c0 53.557 51.714 59.085 51.714 59.087h420.34zM720.459 837.007h-416.923c-2.449-0.425-9.82-2.089-16.855-6.764-9.822-6.564-14.474-16.137-14.474-30.184v-16.855c0 0-203.955-56.905-206.921-57.692-5.282-2.54-21.35-12.114-21.35-37.644 0-5.192 0.719-10.991 2.202-17.575 0.36-1.058 155.052-578.627 157.592-587.931 6.764-7.731 26.856-27.824 45.824-22.385l262.502 72.166 262.388-72.166c18.968-5.439 38.994 14.653 45.826 22.385 2.562 9.305 157.321 586.875 157.59 587.931 1.483 6.584 2.203 12.384 2.203 17.575 0 25.53-16.070 35.104-21.328 37.644-2.99 0.785-207.012 57.692-207.012 57.692v16.855c0 14.048-4.586 23.62-14.406 30.184-6.946 4.675-14.408 6.337-16.857 6.764zM267.802 752.64v-570.447c0 0 4.833-37.060 34.521-37.060h160.108l-214.383-59.085c0 0-12.271-6.135-18.519 7.371l-157.658 585.211c0 0-6.158 18.541 8.586 23.441l187.346 50.569zM756.284 753.876l187.257-50.569c14.742-4.92 8.607-23.351 8.607-23.351l-157.769-585.3c-6.135-13.53-18.43-7.373-18.43-7.373l-214.383 59.175h160.22c29.486 0 34.499 36.948 34.499 36.948v570.469zM718.706 809.274c8.697 0 9.822-11.057 9.822-11.057v-613.572c0-9.935-9.822-12.384-9.822-12.384h-412.698c-8.697 0-8.697 12.382-8.697 12.382v613.574c0 7.373 8.697 11.057 8.697 11.057h412.698zM638.964 667.187c-8.081-0.002-19.936-1.142-35.562-3.425-15.628-2.284-24.583-3.949-26.865-4.999-2.284-1.051-3.425-2.456-3.425-4.212 0-2.113 3.775-6.767 11.327-13.964 7.55-7.197 12.116-13.693 13.698-19.485 1.58-5.794 2.548-10.448 2.901-13.962 0.355-3.516 0.531-8.436 0.531-14.759v-11.061c0-8.071 0.263-17.64 0.787-28.706 0.526-11.066 1.579-24.852 3.159-41.358 1.582-16.505 2.372-32.835 2.372-48.986 0-19.325-1.053-35.308-3.159-47.949-2.106-12.643-5.27-24.054-9.494-34.236-8.424-15.102-20.716-25.904-36.873-32.403-16.157-6.501-32.836-9.752-50.039-9.752-4.919 0-17.125 1.142-36.615 3.425s-34.418 17.649-44.783 46.1c-10.363 28.45-15.546 71.653-15.546 129.604 0 10.535 0.089 21.071 0.266 31.607 0.176 10.535 0.265 21.248 0.265 32.138 0.353 9.827 0.705 20.186 1.053 31.077 0.348 10.889 0.522 21.601 0.522 32.137s-1.492 16.505-4.477 17.91c-2.985 1.405-5.883 2.106-8.69 2.106-11.232-2.464-22.822-4.751-34.767-6.856-11.945-2.108-26.518-3.161-43.721-3.159 0-7.375 5.531-14.048 16.592-20.016 11.061-5.972 17.644-13.611 19.75-22.919s3.337-16.509 3.69-21.6c0.355-5.091 0.531-19.93 0.531-44.517v-58.472c0-49.162 2.633-84.985 7.902-107.465 5.268-22.482 13.698-39.34 25.289-50.579s22.917-19.227 33.978-23.97c11.061-4.743 22.915-7.115 35.562-7.115 19.668 2.809 37.755 5.268 54.26 7.38s31.87 8.61 46.094 19.494c14.222 10.883 27.303 21.77 39.243 32.66 5.274 1.050 10.279-3.779 15.015-14.484 4.738-10.708 10.97-18.697 18.698-23.963 7.728-5.268 13.612-8.518 17.652-9.75 4.041-1.234 8.521-1.85 13.442-1.85 8.422 0 15.708 2.109 21.856 6.327s9.745 8.608 10.796 13.175c-22.124 7.020-36.169 18.871-42.138 35.553-5.972 16.683-8.957 42.935-8.955 78.754v187.552c-0.002 22.83-1.142 35.033-3.425 36.608s-5.181 2.362-8.697 2.364z" />
<glyph unicode="&#xe603;" d="M722.154 859.189c0 0 51.802-5.618 51.802-59.175l192.246-53.555c0 0 48.027-18.519 33.195-81.381l-158.894-593.21c0 0-33.283-44.409-72.074-33.261l-256.365 70.502-256.432-70.502c-38.791-11.148-72.076 33.261-72.076 33.261l-158.983 593.21c-14.744 62.862 33.283 81.381 33.283 81.381l192.246 53.555c0 53.557 51.714 59.175 51.714 59.175h420.338zM720.49 836.961h-416.922c-2.449-0.427-9.82-2.089-16.855-6.741-9.822-6.586-14.474-16.159-14.474-30.206v-16.855c0 0-203.953-56.883-206.921-57.692-5.28-2.449-21.35-12.114-21.35-37.644 0-5.192 0.72-10.991 2.203-17.485 0.36-1.056 155.028-578.715 157.59-588.018 6.741-7.642 26.856-27.824 45.735-22.385l262.567 72.255 262.41-72.255c18.968-5.439 38.992 14.742 45.826 22.385 2.562 9.303 157.321 586.962 157.59 588.018 1.483 6.494 2.202 12.293 2.202 17.485 0 25.53-16.068 35.195-21.35 37.644-2.966 0.809-206.921 57.692-206.921 57.692v16.855c0 14.048-4.652 23.62-14.474 30.206-6.944 4.652-14.404 6.315-16.855 6.741zM267.815 753.635v-570.443c0 0 4.833-36.972 34.499-36.972h160.13l-214.383-59.175c0 0-12.293-6.135-18.519 7.373l-157.679 585.298c0 0-6.135 18.452 8.607 23.352l187.346 50.567zM756.205 754.871l187.257-50.567c14.833-4.922 8.675-23.351 8.675-23.351l-157.747-585.209c-6.135-13.597-18.43-7.462-18.43-7.462l-214.383 59.175h160.13c29.577 0 34.499 36.948 34.499 36.948v570.465zM718.718 810.271c8.608 0 9.822-11.057 9.822-11.057v-613.572c0-9.822-9.822-12.293-9.822-12.293h-412.718c-8.675 0-8.675 12.293-8.675 12.293v613.572c0 7.371 8.675 11.057 8.675 11.057h412.718zM537.163 656.271v0c-19.654-0.002-36.372-3.408-50.156-10.221-13.783-6.815-25.907-14.662-36.374-23.54h-27.566c-12.042-0.002-26.621 1.425-43.735 4.279-17.116 2.854-30.587 5.228-40.414 7.124-4.76 0-7.139-2.848-7.139-8.545 0-4.758 10.46-8.088 31.382-9.989s32.966-4.514 36.134-7.842c3.168-3.326 6.098-14.182 8.793-32.563 2.693-18.384 4.040-35.181 4.040-50.396v-125.036c0-38.67-2.060-58.798-6.18-60.385-4.12-1.585-14.5-2.773-31.136-3.562-16.635-0.788-24.953-3.562-24.955-8.32 0.002-6.026 2.85-9.039 8.547-9.039l56.105 5.238h71.31l41.363-3.802h4.76c5.697 0 8.545 3.328 8.545 9.982 0 4.12-2.374 6.18-7.124 6.18h-36.605c-13.31 0-22.501 1.664-27.575 4.992-5.072 3.326-7.61 10.853-7.61 22.576v17.12c0 7.612 0.16 24.967 0.48 52.064 0.319 27.098 1.427 40.646 3.323 40.646 26.308 0 47.070-9.508 62.285-28.524s31.457-41.996 48.727-68.937c17.27-26.943 28.599-42.078 33.987-45.404 5.388-3.328 9.033-5.151 10.94-5.47h70.83c0.319 0.638 0.956 1.671 1.908 3.098 0.954 1.427 1.43 2.773 1.43 4.040 0 4.439-5.627 7.054-16.881 7.842s-20.369 6.571-27.343 17.345c-15.205 20.603-29.862 40.808-43.967 60.617-14.107 19.809-25.916 38.274-35.424 55.393 28.524 19.335 46.749 33.123 54.676 41.364s11.889 24.723 11.889 49.446c0 27.257-9.667 49.442-29.003 66.558-19.335 17.114-43.423 25.672-72.267 25.673zM509.597 626.789c24.084 0 42.307-7.369 54.668-22.11 12.361-14.742 18.543-33.36 18.543-55.859 0-19.016-6.025-34.070-18.070-45.165-12.047-11.095-26.945-16.642-44.694-16.642-21.55 0-36.92 4.835-46.109 14.502s-13.783 22.743-13.783 39.224v37.084c0 18.377 4.437 31.133 13.312 38.267 8.875 7.132 20.919 10.699 36.134 10.699z" />
<glyph unicode="&#xe604;" d="M594.441 390.403l115.635 256.659h-236.885l121.25-256.659zM311.752 646.914h-13.809v-397.901h194.891l-181.082 397.901zM703.688 250.964h237.677v-124.711h-894.906v122.761l89.952 0.294v397.607h-89.952v122.834h931.082v-122.834h-89.032l-184.822-395.95z" />
<glyph unicode="&#xe605;" d="M758.876 294.117c0-146.606-162.478-224.401-288.579-237.38-43.8-4.506-99.99-9.318-143.099 0.386-14.387 3.198-27.494 7.192-39.397 11.8-3.61 1.512-5.299 3.302-5.299 5.402l-17.408 157.204c0 3.482 1.818 5.299 5.402 5.299l25.907-13.901c3.608-1.103 19.889-95.613 97.198-113.993 50.097-12.005 106.185 0 153.288 16.486 56.293 19.917 112.893 60.798 112.893 126.689 0 60.414-40.19 109.411-120.701 147.118-100.68 46.897-242.371 96.995-242.371 230.47 0 143.995 142.28 208.811 266.767 213.495 45.105 1.615 97.405 3.405 141.716-5.606 3.584-0.689 5.402-2.483 5.402-5.376l11.878-167.212c0-3.584-1.69-5.402-5.299-5.402l-30.49 19.302c-3.61 0-25.496 62.691-35.096 80.406-41.701 76.694-159.79 45.003-215.902 2.509-51.685-39.217-53.4-118.704-16.691-166.113 78.998-102.089 237.201-92.285 311.079-203.18 18.406-27.595 28.8-65.097 28.8-98.401zM847.986 112.031l-69.016 94.281c-4.785-10.878-10.494-21.4-16.792-31.384l85.808-62.897zM437.685-21.366l12.005 37.502c-3.891-0.307-7.885-0.717-11.902-0.894l-0.102-36.606zM727.772 24.636l-27.083 82.301c-6.81-5.4-13.798-10.622-20.992-15.614l48.075-66.686zM586.388-21.366l-0.307 65.381c-6.193-2.176-12.389-4.275-18.686-6.298l18.993-59.083zM176.010 784.007l85.501-116.808c2.483 16.101 6.4 31.307 11.878 45.515l-97.379 71.293zM705.886 621.198l-34.097 21.707c-3.405 1.306-6.298 3.098-9.011 5.504l-11.085-8.192 4.787 14.797c-7.501 9.882-13.696 25.496-22.502 47.589-3.098 7.808-6.782 16.998-9.982 24.805l-38.605-53.398 0.41 90.8c-6.219 1.587-13.413 2.688-22.219 2.688-8.602 0-17.382-1.103-26.189-2.688l-25.393-79.205-20.71 64.51c-12.696-5.811-23.883-12.518-32.485-18.918-10.317-7.781-16.41-17.585-20.299-27.083l0.102-30.104-5.709 7.806c-2.406-22.321 3.686-46.104 16.408-62.614 31.795-41.086 82.097-61.797 135.291-83.581 62.181-25.6 132.681-54.501 177.48-121.801 7.808-11.802 14.104-25.291 19.505-39.397l199.801-0.794-231.799 74.392 231.799 74.288-243.396-0.894 197.497 142.305-231.211-76.105 26.008 35.685c-4.094-1.28-8.497-2.099-13.208-2.099h-11.187zM760.873 666.303v-1.306l87.113 119.011-90.8-66.507 3.61-49.79 0.082-1.408zM796.276 278.016l139.208-45.797-142.612 102.806c2.611-13.619 4.403-27.418 4.403-40.907 0-5.504-0.689-10.701-0.997-16.102zM335.391 228.712l37.018 27.109-21.299-64.79c8.678-16.41 20.378-30.899 36.785-39.294l50.712 70.294-0.307-79.51c16.486 0.102 34.789 2.611 54.193 7.117l19.507 60.771 16.28-50.584c2.022 0.591 3.917 1.101 5.914 1.792 12.595 4.506 33.304 13.414 51.403 27.213l-0.205 33.201 14.694-20.301c12.414 13.286 21.297 29.901 21.297 50.379 0 16.307 0 66.097-98.582 112.304-9.317 4.403-19.096 8.806-29.105 13.312-94.102 42.494-220.894 99.99-234.103 229.675l-170.977 56.318 197.497-142.305-243.396 0.894 231.699-74.288-231.699-74.392 243.396 0.998-197.497-142.408 231.187 76.105-28.493-39.013 21.99-11.904c14.001-6.682 18.993-19.582 22.091-28.696zM727.774 871.4l-0.997-1.406c0.102-0.102 0.307-0.102 0.41-0.205l0.587 1.611zM586.39 917.299l-11.392-35.301c3.789 0.102 7.398 0.205 11.187 0.382l0.205 34.918zM176.012 112.029l58.902 43.083-3.507 32.512-55.395-75.595zM437.685 917.299l0.205-59.414c5.606 2.021 11.315 4.017 16.998 5.707l-17.203 53.707zM296.301 24.634l0.591 0.792h-0.282l-0.307-0.792zM343.404 805.996c-6.912-5.606-13.517-11.494-19.71-17.792l-27.392 83.197 47.102-65.405z" />
<glyph unicode="&#xe606;" d="M517.25 354.49l148.849 360.706h-290.801l141.952-360.706zM90.542 183.204h292.591l-226.854 531.818h-109.387v128.049h930.215v-128.049h-112.705l-222.334-534.13h291.389v-127.962h-842.916v130.275z" />
<glyph unicode="&#xe607;" d="M550.717 646.987h-236.812l115.562-256.657 121.25 256.657zM531.166 249.013h194.891v397.901h-13.809l-181.082-397.901zM135.491 646.914h-89.032v122.834h931.082v-122.834h-90.044v-397.607l90.044-0.294v-122.761h-894.925v124.638h237.696l-184.822 396.023z" />
<glyph unicode="&#xe608;" d="M817.722 864.172c-1.526 8.327-13.143 9.173-18.831 9.271h-26.844c-91.909 0.193-286.109 0.942-326.217 3.026-52.937 2.639-100.502 11.448-100.502 11.448s0.847-22.050-13.046-46.063c-31.783-54.269-69.229-93.99-103.818-146.371-10.795-16.338-32.145-36.574-17.597-58.045 15.322-22.414 40.375-1.621 50.881 13.604 3.678 5.205 6.994 10.989 9.632 17.21 0 0 238.182 82.372 321.475 75.933 0 0 4.26-12.394-7.649-57.1-10.675-40.375-22.682-79.056-35.558-116.961-25.342-3.606-48.507-5.011-74.697 0.847-6.513 1.5-10.675 13.046-24.472 13.046-8.521 0-15.322-19.775-16.944-26.868-2.639-12.102-3.68-27.037-6.318-39.043-2.831-12.853-6.729-29.578 4.816-36.115 10.772-6.245 35.171 11.45 38.39 12.95 16.824 8.52 40.472 13.894 57.489 14.669h0.29c-39.334-106.481-84.55-207.563-127.176-315.713-26.578-67.509-43.981-124.901-43.981-124.901l-13.798-9.754c-11.812-8.593-20.888-14.742-32.725-23.456-6.414-4.719-10.868-20.5-3.582-25.416 10.022-6.898 26.941 3.389 40.762 9.924 13.701 6.513 205.263 96.823 205.263 96.823s-7.091 137.463 13.991 215.671c16.459 61.167 30.45 118.752 48.992 170.092 3.195 8.907 6.705 17.5 10.191 26.022 16.556 3.775 33.283 7.939 51.437 13.699 10.214 3.22 48.241 16.169 45.216 35.825-2.93 18.639-50.227 9.755-64.314 8.327-2.446-0.195-4.818-0.652-7.166-1.137 10.191 21.76 21.253 44.15 33.452 69.494 19.872 41.318 36.043 84.913 61.846 122.94 11.909 17.476 25.803 32.896 41.801 46.498 11.426 9.853 32.509 21.955 29.314 39.625z" />
<glyph unicode="&#xe609;" d="M722.41 859.476c0 0 51.845-5.466 51.845-59.133l192.331-53.69c0 0 48.044-18.444 33.2-81.355l-159.022-593.688c0 0-33.311-44.445-72.132-33.289l-256.55 70.559-256.66-70.559c-38.822-11.156-72.132 33.289-72.132 33.289l-159.113 593.688c-14.754 62.911 33.401 81.355 33.401 81.355l192.311 53.69c0 53.666 51.755 59.133 51.755 59.133h420.767zM720.744 837.32h-417.435c-2.362-0.427-9.74-2.092-16.78-6.748-9.829-6.589-14.484-16.171-14.484-30.228v-16.87c0 0-204.119-56.928-207.089-57.738-5.286-2.451-21.367-12.122-21.367-37.675 0-5.195 0.72-10.998 2.294-17.498 0.27-1.147 155.063-579.18 157.628-588.491 6.77-7.738 26.969-27.756 45.862-22.403l262.711 72.313 262.69-72.313c18.893-5.352 39.025 14.665 45.771 22.403 2.565 9.312 157.447 587.344 157.716 588.491 1.509 6.501 2.205 12.303 2.205 17.498 0 25.552-15.991 35.224-21.345 37.675-2.992 0.811-207.111 57.738-207.111 57.738v16.87c0 14.058-4.656 23.639-14.394 30.228-7.040 4.656-14.508 6.321-16.87 6.748zM267.636 752.884v-570.902c0-0.002 4.835-37.091 34.526-37.091h160.28l-214.577-59.133c0 0-12.281-6.141-18.534 7.378l-157.716 585.769c0 0-6.229 18.466 8.525 23.371l187.498 50.608zM756.507 754.12l187.407-50.608c14.754-4.925 8.615-23.369 8.614-23.369l-157.896-585.769c-6.050-13.519-18.444-7.378-18.444-7.378l-214.555 59.223h160.348c29.6 0 34.526 36.977 34.526 36.977v570.924zM718.901 809.564c8.614 0 9.919-11.066 9.919-11.066v-614.065c0-9.853-9.919-12.394-9.919-12.394h-413.029c-8.704 0-8.704 12.394-8.704 12.394v614.065c0 7.378 8.704 11.066 8.704 11.066h413.029zM557.495 723.98c-34.796 0-64.935-10.368-90.576-31.106-25.574-20.649-38.395-45.773-38.395-75.192 0-31.198 20.017-66.42 60.010-105.626-42.96-14.754-76.699-33.558-101.059-56.32-24.337-22.83-36.55-47.346-36.55-73.619 0-26.878 12.303-52.091 36.82-75.641 24.518-23.55 58.772-35.335 102.634-35.335 44.715 0 80.027 12.573 105.69 37.606 25.731 25.146 38.576 53.779 38.576 85.944 0 32.591-23.55 72.74-70.649 120.625 41.747 18.985 70.289 36.91 85.763 53.69 15.452 16.78 23.19 36.28 23.19 58.593 0 27.935-10.819 50.877-32.254 69.14-21.526 18.108-49.282 27.238-83.2 27.238zM509.001 489.745c48.314-47.618 72.47-86.709 72.47-117.118 0-20.828-8.434-38.912-25.214-54.207-16.778-15.295-37.854-22.943-63.159-22.941-25.754-0.002-47.795 7.736-66.082 23.122-18.263 15.541-27.395 34.953-27.395 58.503 0 21.975 9.132 42.262 27.395 60.885 18.196 18.557 45.525 35.854 81.985 51.756zM552.929 699.643c20.198 0 37.337-6.32 51.395-19.050 14.058-12.663 21.098-28.926 21.098-48.674 0-35.335-27.238-66.959-81.625-94.715l-7.13 7.805c-24.854 26.969-40.576 45.862-47.256 56.41-6.591 10.639-9.851 21.705-9.853 33.222 0.002 16.599 6.861 31.625 20.919 44.984 13.879 13.338 31.445 20.017 52.453 20.017z" />
<glyph unicode="&#xe60a;" d="M722.343 859.52c0 0 51.847-5.533 51.847-59.134l192.34-53.692c0 0 48.044-18.444 33.29-81.357l-159.027-593.707c0 0-33.312-44.447-72.136-33.381l-256.556 70.651-256.669-70.651c-38.823-11.066-72.136 33.381-72.136 33.381l-159.116 593.707c-14.756 62.913 33.312 81.357 33.312 81.357l192.406 53.692c0 53.601 51.756 59.134 51.756 59.134h420.688zM720.679 837.364h-417.36c-2.362-0.428-9.829-2.092-16.78-6.748-9.919-6.591-14.484-16.172-14.484-30.23v-16.87c0 0-204.104-56.929-207.095-57.74-5.376-2.452-21.345-12.213-21.345-37.676 0-5.195 0.696-10.999 2.181-17.498 0.27-1.149 155.18-579.198 157.633-588.512 6.861-7.738 26.969-27.756 45.863-22.403l262.719 72.317 262.787-72.317c18.895-5.352 38.936 14.665 45.797 22.403 2.541 9.313 157.361 587.363 157.699 588.512 1.507 6.499 2.203 12.303 2.203 17.498 0 25.463-16.082 35.224-21.345 37.676-2.992 0.811-207.184 57.74-207.184 57.74v16.87c0 14.058-4.567 23.639-14.418 30.23-7.018 4.656-14.418 6.32-16.87 6.748zM267.578 752.835v-570.831c0 0 4.903-37.091 34.526-37.091h160.265l-214.472-59.134c0 0-12.394-6.141-18.558 7.378l-157.788 585.699c0-0.002-6.163 18.557 8.615 23.46l187.412 50.519zM756.444 754.072l187.412-50.519c14.845-4.927 8.704-23.371 8.704-23.371l-157.901-585.788c-6.141-13.519-18.446-7.378-18.446-7.378l-214.562 59.225h160.265c29.6-0.002 34.528 36.978 34.528 36.978v570.853zM718.925 809.607c8.615 0 9.83-11.066 9.83-11.066l-0.002-614.084c0.002-9.921-9.829-12.394-9.829-12.394h-413.131c-8.615 0-8.615 12.394-8.615 12.394v614.084c0 7.378 8.615 11.066 8.615 11.066h413.131zM538.462 725.258c-43.861 0-80.502-18.017-110.104-54.028-29.6-35.944-44.378-74.948-44.378-116.965 0-29.872 8.975-55.424 27.059-77.039 18.017-21.526 43.143-32.256 75.576-32.256 15.206 0 30.479 2.901 45.775 8.706 15.386 5.871 30.747 14.484 46.223 26.001-44.199-96.382-117.999-159.116-221.242-188.378l17.836-18.806c76.343 8.166 144.002 44.111 202.955 107.81 58.955 63.611 88.399 128.886 88.399 196.118 0 42.264-11.607 77.759-34.616 106.144-23.124 28.454-54.299 42.692-93.483 42.692zM538.013 700.921c20.468 0 37.338-9.223 50.698-27.689 13.273-18.355 19.953-41.815 19.953-70.449 0-24.18-5.286-51.847-15.746-82.954-12.641-12.215-25.731-21.345-39.363-27.51-13.609-6.050-27.757-9.132-42.332-9.132-18.108 0-33.403 6.321-45.954 18.985-12.484 12.573-18.804 31.715-18.804 57.201 0 36.978 8.682 69.84 26.182 98.587 17.388 28.633 39.183 42.962 65.365 42.962z" />
<glyph unicode="&#xe60b;" d="M991.153 79.427c-12.303 24.588-49.174 24.588-73.68 30.739-24.586 6.132-36.869 18.435-282.619 337.845 245.75 319.409 258.033 331.692 282.619 337.845 24.506 6.13 61.377 6.13 73.68 30.718h-307.125c0-12.285 0-24.588-9.298-46.008-9.137-21.501-27.573-52.239-162.772-224.227-135.057 171.988-153.492 202.726-162.708 224.227-9.218 21.42-9.218 33.724-9.218 46.008h-307.186c12.283-24.588 49.154-24.588 73.74-30.718 24.506-6.153 36.871-18.435 282.539-337.845-245.668-319.409-258.033-331.713-282.539-337.845-24.586-6.151-61.457-6.151-73.74-30.739h307.186c0 12.303 0 24.588 9.218 46.089 9.216 21.521 27.651 52.159 162.708 224.247 135.199-172.088 153.634-202.726 162.772-224.247 9.298-21.501 9.298-33.785 9.298-46.089h307.125z" />
<glyph unicode="&#xe60c;" d="M951.199 717.295c20.321-50.644 43.628-100.803 53.002-154.974 5.2-20.726 7.156-41.975 11.814-62.78v-91.812c-4.173-25.281-5.987-50.966-12.056-75.844-3.69-23.386-12.44-45.442-18.891-68.041-10.242-28.991-21.813-57.559-35.523-85.139h-874.929c-18.285 35.060-31.51 72.457-43.788 109.875-5.443 22.197-12.843 43.849-15.826 66.529-1.814 13.165-3.871 26.31-7.016 39.153v95.985c2.439 15.362 4.637 30.725 6.371 46.167 2.519 24.556 10.402 48.104 16.935 71.813 10.624 37.559 26.772 73.161 41.731 109.068h878.176zM920.636 685.563c-264.991-0.082-529.84 0-794.75-0.082-10.807-0.080-21.593 0.544-32.377-0.384-5.202-19.374-15.585-36.712-21.412-55.844-8.508-27.257-18.205-54.414-23.325-82.618-5.827-27.399-7.238-55.523-7.561-83.384-0.16-28.285-0.16-56.631 2.761-84.734 2.441-19.072 7.158-37.661 11.351-56.31 4.879-25.926 15.906-49.937 24.091-74.735 5.344-12.216 10.242-24.576 15.121-36.874 278.316-0.145 556.614-0.145 834.85 0 20.483 50.321 40.402 101.589 48.123 155.701 5.907 27.882 4.557 56.47 6.129 84.734-1.411 21.895-0.865 44.032-3.85 65.845-3.388 17.802-5.584 35.826-10.544 53.304-3.308 20.948-11.976 40.482-17.882 60.725-6.533 18.425-14.879 36.147-22.38 54.19-2.821 0.145-5.584 0.384-8.346 0.466zM123.667 653.587c261.303-0.242 522.684 0.16 784.067-0.242 5.040-7.7 7.801-16.613 10.866-25.281 6.694-20.241 14.092-40.241 19.838-60.865 3.548-19.697 8.426-39.212 10.242-59.232 4.878-27.559 3.386-55.583 3.466-83.384v0c0.162-11.651-1.652-23.165-3.226-34.656-1.734-11.411-2.137-23.165-4.576-34.495-2.601-12.136-6.149-24.011-9.295-36.067-5.664-25.281-15.746-49.292-25.201-73.404-0.625-3.61-4.717-3.308-7.561-3.529-254.042 0.065-508.107 0-762.231 0-8.204 0.304-16.693-1.188-24.656 1.089-6.229 13.952-11.976 28.346-16.37 43.083 12.984 7.945 28.346 10.626 43.145 12.682 17.258 1.329 34.656 1.249 51.751-1.734 0.464 8.103 0.544 16.288-0.16 24.414-7.883 5.342-19.133 8.89-21.188 19.374-3.227 15.503 2.842 30.624 6.774 45.281 3.466 14.636 11.249 27.559 16.611 41.491 3.791 10.16 12.278 19.374 10.404 30.805-0.403 5.664-6.069 8.588-10.484 10.947-8.023 3.85-16.37 7.782-25.361 8.81-5.827 0.705-10.383-4.012-12.682-8.81-15.119-31.672-23.467-66.005-37.396-98.202-7.32-18.992-16.311-38.205-31.27-52.54-5.040 10.948-5.989 23.165-8.972 34.657-3.628 18.104-5.827 36.47-7.801 54.654-1.029 25.040-0.869 50.079-0.162 75.199 2.057 28.749 8.206 57.015 13.628 85.219 8.428 28.426 18.125 56.55 29.295 84.029 2.842 0.242 5.685 0.625 8.508 0.705zM178.050 616.614l-5.311-0.505c-6.694-4.898-11.511-12.056-16.148-18.83-2.521-3.226-2.116-8.185 1.734-10.16 9.295-4.497 20.079-4.637 29.454-9.295 6.856-2.441 4.335-11.25 3.932-16.773-4.415-17.642-13.851-33.548-18.266-51.108-1.975-8.75 7.238-13.145 13.549-16.532 9.132-4.333 18.587-11.511 29.211-8.508 8.347 6.613 8.509 19.214 16.23 26.31 6.129 4.799 11.331-3.548 15.503-7.177 20.785-24.656 34.333-54.333 46.853-83.707 9.777-21.27 15.988-43.87 23.002-66.087 7.098-23.062 12.138-47.316 9.919-71.569 0-3.71-1.089-7.803 0.485-11.269 8.105-6.533 17.64-10.948 27.156-15.121 10.564 19.052 24.899 36.147 43.244 48.043 8.105 5.282 17.399 8.023 25.825 12.6-3.85 27.397-14.172 53.304-24.091 78.908v0c-5.907 14.797-7.096 31.027-5.202 46.691 1.271 9.779 10.001 15.988 13.145 24.98 2.601 8.97-5.18 15.744-10.301 22.035-5.12 5.202-9.999 12.52-18.045 13.085-6.774-1.109-12.056-5.908-18.425-8.125-3.932 0.242-6.774 3.468-9.537 5.907-19.838 21.188-31.169 48.365-48.345 71.509-9.617 12.136-17.882 25.907-19.779 41.511-22.822 1.572-45.744 0.867-68.666 1.492-8.871-0.179-17.674 1.266-26.52 1.63-3.533 0.147-7.071 0.043-10.607 0.065zM403.719 625c-5.202-8.588-10.786-16.935-15.826-25.665 12.681-8.668 27.72-13.628 39.675-23.407 3.005-2.519 5.524-6.692 3.63-10.704-3.63-8.972-8.892-17.077-14.334-25.040-4.255-6.371-10.626-11.109-14.799-17.48-3.004-6.39-0.787-14.010 3.69-19.132 5.443-6.632 10.866-13.71 18.205-18.427 7.076-2.924 13.607 3.308 20.463 4.255 5.040-2.379 7.016-8.125 9.535-12.682 12.843-29.152 29.536-56.55 40.402-86.629 5.584-14.496 14.496-30.322 8.81-46.228-7.641-18.589-26.53-28.204-40.24-41.672 5.987-8.508 13.467-15.988 20.806-23.386 8.81 5.12 17.157 11.349 27.075 14.415 27.257 8.346 56.31 8.105 84.352 4.335 18.104-1.109 35.12-8.267 53.084-10.242 3.608 6.694 7.7 13.548 8.426 21.35-2.599 5.502-7.721 9.052-12.459 12.358-11.411 7.561-23.144 14.636-33.466 23.627-11.088 10.545-11.895 26.774-16.29 40.624-9.073 29.375-22.922 57.035-34.656 85.461-8.892 22.277-21.815 42.761-32.519 64.171-6.936 14.415-10.324 30.242-12.138 46.068-1.411 10.644 3.063 20.564 3.932 31.046-6.613 4.012-12.822 8.892-19.919 12.198-7.945-1.19-15.503-4.879-23.709-5.282-14.174-0.787-28.426-0.787-42.6 0.565-9.919 0.867-19.212 4.799-29.131 5.504zM683.829 621.773c-19.516-6.531-37.801-16.229-56.852-24.091v0.002c-11.571-5.364-24.091-8.912-34.495-16.473-0.323-5.664-0.323-11.329 0.162-17.015 12.278-1.171 24.576 0.563 36.772-0.464 3.065 0.162 4.96-2.761 5.041-5.504 3.063-51.348 2.924-102.779 0.403-154.127 3.386 1.572 6.451 3.71 8.73 6.694 9.535 11.411 20.401 21.652 31.672 31.43 3.063 2.903 7.238 5.989 6.753 10.866 0.403 27.802-0.061 55.603 0.162 83.325 1.894 28.426 0.707 56.933 1.652 85.359zM818.889 619.349c-3.881-0.625-2.249-0.157-4.965-1.123-8.972-3.932-16.693-9.999-24.878-15.201-19.616-12.278-38.345-25.745-58.042-37.881-4.96-3.529-11.25-7.561-11.411-14.334-1.432-11.955-0.949-24.093-1.976-36.069-1.029-11.088-1.976-22.197-1.249-33.386 0.145-5.987 4.093-10.866 7.863-15.201 15.604-16.934 32.922-32.922 53.627-43.465 11.592-5.202 22.762-11.351 34.978-14.737 7.398 0.725 13.932 4.818 20.161 8.508 9.132 5.907 18.507 11.592 27.721 17.498 13.689 8.812 24.636 21.169 37.236 31.491 6.552 6.069 15.121 12.278 14.899 22.217 0.947 21.41 4.011 43.385-0.947 64.493-19.454 25.040-47.256 41.571-73.243 58.989l-0.002 0.002c-4.806 2.871-9.443 6.124-14.923 7.639-1.568 0.435-3.232 0.374-4.849 0.56zM785.797 574.263c5.193-0.367 2.982-0.224 6.636-0.451 25.665-4.012 50.403-17.318 66.471-38.043 17.096-21.33 15.906-53.224 2.196-75.984-3.306-6.472-11.411-7.258-17.802-7.48-19.596 0.544-38.023 9.132-53.929 20.161-13.548 9.132-24.032 22.822-28.669 38.506-5.443 21.028-0.565 45.201 14.496 61.107 3.19 2.207 6.909 2.116 10.6 2.185z" />
<glyph unicode="&#xe60d;" d="M951.199 717.295c20.321-50.644 43.628-100.803 53.002-154.974 5.181-20.726 7.156-41.975 11.814-62.78v-91.812c-4.173-25.281-5.987-50.966-12.056-75.844-3.71-23.386-12.44-45.442-18.912-68.041-10.221-28.991-21.813-57.559-35.422-85.139h-875.028c-18.266 35.060-31.491 72.457-43.79 109.875-5.422 22.197-12.822 43.849-15.826 66.529-1.814 13.165-3.85 26.31-6.996 39.153v95.985c2.439 15.362 4.637 30.725 6.371 46.167 2.601 24.556 10.402 48.104 17.015 71.813 10.544 37.559 26.692 73.161 41.651 109.068h878.176zM920.637 685.565c-264.911-0.080-529.84 0-794.771-0.080-10.786-0.080-21.572 0.543-32.276-0.384-5.202-19.374-15.686-36.712-21.513-55.846-8.508-27.257-18.185-54.414-23.224-82.618-5.907-27.397-7.318-55.521-7.561-83.384-0.242-28.285-0.242-56.631 2.681-84.734 2.441-19.072 7.158-37.659 11.331-56.308 4.879-25.928 15.906-49.939 24.112-74.735 5.344-12.218 10.221-24.496 15.121-36.874 278.296-0.145 556.614-0.145 834.93 0 20.383 50.321 40.322 101.589 48.022 155.699 5.907 27.884 4.577 56.47 6.149 84.736-1.411 21.895-0.865 44.030-3.85 65.845-3.388 17.801-5.605 35.825-10.564 53.304-3.308 20.946-11.955 40.482-17.862 60.723-6.554 18.427-14.899 36.147-22.38 54.192-2.821 0.145-5.584 0.384-8.346 0.464zM123.668 653.588c261.383-0.241 522.684 0.162 784.067-0.241 5.040-7.702 7.781-16.613 10.866-25.283 6.774-20.241 14.172-40.24 19.919-60.865 3.548-19.697 8.346-39.212 10.242-59.232 4.878-27.559 3.306-55.583 3.386-83.384v0c0.145-11.653-1.652-23.165-3.246-34.656-1.713-11.411-2.116-23.165-4.555-34.495-2.601-12.138-6.149-24.011-9.295-36.067-5.584-25.283-15.746-49.294-25.201-73.405-0.626-3.608-4.717-3.306-7.561-3.528-254.063 0.065-508.107 0-762.25 0-8.185 0.304-16.695-1.19-24.637 1.009-6.229 14.031-11.894 28.426-16.391 43.163 13.005 7.943 28.346 10.624 43.245 12.761 17.157 1.251 34.656 1.169 51.651-1.814 0.565 8.105 0.565 16.29-0.16 24.416-7.782 5.342-19.132 8.89-21.169 19.454-3.226 15.341 2.823 30.543 6.775 45.199 3.447 14.636 11.249 27.559 16.611 41.491 3.77 10.161 12.278 19.374 10.383 30.886-0.304 5.586-6.048 8.508-10.464 10.866-8.044 3.772-16.391 7.782-25.361 8.73-5.827 0.788-10.383-3.93-12.682-8.648-15.119-31.753-23.467-66.087-37.398-98.284-7.337-19.072-16.309-38.204-31.188-52.538-5.12 10.947-5.987 23.165-9.052 34.656-3.628 18.104-5.827 36.471-7.803 54.656-1.027 25.039-0.865 50.079-0.16 75.199 2.057 28.749 8.185 57.013 13.628 85.219 8.428 28.426 18.104 56.55 29.293 84.028 2.843 0.242 5.666 0.626 8.509 0.707zM178.039 616.614l-5.321-0.505c-6.694-4.898-11.491-12.056-16.128-18.83-2.521-3.226-2.137-8.185 1.734-10.16 9.295-4.497 20.161-4.637 29.454-9.295 6.835-2.441 4.314-11.25 4.012-16.855-4.495-17.56-13.95-33.466-18.347-51.026-1.894-8.75 7.238-13.145 13.549-16.531 9.132-4.335 18.567-11.513 29.293-8.508 8.265 6.612 8.426 19.212 16.128 26.308 6.229 4.799 11.351-3.548 15.524-7.177 20.785-24.656 34.413-54.253 46.853-83.707 9.777-21.27 15.988-43.87 23.002-66.087 7.078-23.062 12.117-47.316 9.919-71.569 0.082-3.71-1.109-7.803 0.463-11.269 8.125-6.533 17.642-10.948 27.177-15.121 10.564 19.052 24.878 36.147 43.325 48.043 8.025 5.282 17.318 8.023 25.745 12.6-3.871 27.317-14.172 53.304-24.091 78.908v0c-5.907 14.797-7.016 31.027-5.202 46.691 1.251 9.779 10.001 15.988 13.145 24.98 2.601 8.97-5.2 15.744-10.322 22.035-5.12 5.202-9.999 12.52-17.942 13.165-6.774-1.19-12.138-5.989-18.507-8.206-3.953 0.242-6.775 3.468-9.537 5.907-19.838 21.108-31.188 48.445-48.345 71.509-9.617 12.136-17.882 25.907-19.779 41.591-22.84 1.492-45.744 0.787-68.666 1.411-8.866-0.176-17.664 1.268-26.503 1.63-3.541 0.147-7.089 0.043-10.634 0.065zM403.721 625c-5.202-8.588-10.807-17.015-15.846-25.663 12.681-8.67 27.72-13.629 39.695-23.407 3.004-2.521 5.524-6.694 3.63-10.706-3.55-8.97-8.912-17.075-14.334-25.039-4.255-6.371-10.626-11.109-14.799-17.48-3.004-6.391-0.807-14.012 3.69-19.132 5.523-6.634 10.866-13.71 18.185-18.427 7.096-2.924 13.628 3.306 20.564 4.253 4.96-2.379 6.936-8.124 9.455-12.681 12.822-29.153 29.536-56.55 40.402-86.63 5.584-14.495 14.476-30.321 8.81-46.228-7.641-18.587-26.53-28.204-40.24-41.672 6.069-8.508 13.467-15.986 20.785-23.386 8.911 5.122 17.178 11.351 27.095 14.415 27.257 8.347 56.31 8.105 84.352 4.335 18.104-1.109 35.12-8.265 53.064-10.242 3.709 6.694 7.721 13.548 8.426 21.35-2.58 5.504-7.7 9.052-12.438 12.358-11.331 7.561-23.144 14.636-33.386 23.629-11.189 10.464-11.976 26.772-16.391 40.624-9.052 29.373-22.902 57.033-34.635 85.46-8.912 22.279-21.734 42.761-32.539 64.172-6.915 14.415-10.221 30.24-12.117 46.066-1.411 10.644 3.063 20.564 3.932 31.048-6.613 4.012-12.843 8.89-19.919 12.198-7.963-1.19-15.524-4.799-23.709-5.282-14.174-0.787-28.426-0.787-42.6 0.563-9.837 0.867-19.212 4.799-29.131 5.504zM861.887 621.773c-19.535-6.531-37.801-16.229-56.772-24.091l0.002 0.002c-11.593-5.364-24.112-8.912-34.495-16.473-0.323-5.664-0.403-11.329 0.080-17.015 12.278-1.169 24.556 0.565 36.854-0.464 3.065 0.242 4.879-2.761 4.96-5.504 3.144-51.348 2.903-102.779 0.382-154.127 3.388 1.572 6.552 3.71 8.83 6.694 9.455 11.411 20.321 21.652 31.572 31.43 3.166 2.903 7.339 5.989 6.854 10.866 0.404 27.802-0.16 55.603 0.162 83.325 1.894 28.426 0.705 56.933 1.572 85.359zM715.725 621.775c-19.536-6.533-37.801-16.23-56.772-24.091v0c-11.592-5.362-24.112-8.911-34.495-16.471-0.323-5.666-0.403-11.331 0.082-17.015 12.278-1.169 24.556 0.565 36.854-0.464 3.063 0.241 4.878-2.763 4.958-5.504 3.145-51.35 2.903-102.779 0.382-154.127 3.388 1.572 6.554 3.709 8.83 6.692 9.457 11.411 20.323 21.652 31.572 31.432 3.166 2.903 7.339 5.987 6.856 10.866 0.403 27.802-0.162 55.603 0.16 83.323 1.896 28.426 0.705 56.934 1.574 85.361z" />
<glyph unicode="&#xe60e;" d="M951.199 717.295c20.321-50.644 43.628-100.803 53.002-154.974 5.2-20.726 7.177-41.975 11.814-62.78v-91.812c-4.173-25.201-5.987-50.966-12.056-75.844-3.69-23.386-12.44-45.442-18.891-68.041-10.242-28.991-21.813-57.58-35.442-85.139h-875.010c-18.205 35.040-31.43 72.457-43.788 109.855-5.443 22.217-12.843 43.87-15.906 66.55-1.734 13.165-3.71 26.31-6.936 39.233v95.904c2.439 15.362 4.657 30.725 6.391 46.147 2.58 24.576 10.382 48.205 16.995 71.834 10.564 37.559 26.713 73.161 41.672 109.068h878.155zM920.648 685.561c-264.931-0.080-529.86 0-794.851-0.080-10.706-0.080-21.511 0.544-32.217-0.403-5.202-19.294-15.746-36.693-21.49-55.825-8.508-27.257-18.205-54.414-23.247-82.618-5.886-27.399-7.318-55.441-7.559-83.384-0.224-28.285-0.224-56.631 2.681-84.675 2.439-19.132 7.177-37.721 11.349-56.39 4.879-25.825 15.908-49.917 24.093-74.735 5.362-12.196 10.242-24.474 15.119-36.854 278.236-0.16 556.614-0.16 834.85 0 20.403 50.321 40.402 101.589 48.123 155.701 5.907 27.882 4.577 56.47 6.229 84.734-1.51 21.975-0.945 44.032-3.951 65.845-3.388 17.782-5.664 35.826-10.544 53.304-3.306 20.948-11.976 40.482-17.882 60.725-6.531 18.425-14.879 36.147-22.277 54.252-2.924 0.16-5.685 0.323-8.428 0.403zM123.66 653.587c261.381-0.242 522.684 0.16 783.985-0.162 5.12-7.721 7.883-16.693 10.947-25.361 6.694-20.241 14.092-40.241 19.838-60.865 3.628-19.697 8.428-39.233 10.242-59.232 4.879-27.559 3.386-55.603 3.468-83.325h0.003c0.162-11.733-1.654-23.224-3.226-34.715-1.734-11.431-2.116-23.084-4.577-34.495-2.58-12.136-6.129-23.951-9.272-36.067-5.687-25.283-15.766-49.314-25.201-73.405-0.647-3.628-4.739-3.306-7.581-3.548-254.044 0.080-508.107 0.080-762.231 0-8.105 0.323-16.693-1.169-24.656 1.108-6.209 14.012-11.895 28.346-16.37 43.083 13.065 7.945 28.346 10.626 43.225 12.682 17.176 1.329 34.575 1.329 51.671-1.734 0.543 8.105 0.543 16.29-0.162 24.414-7.801 5.342-19.132 8.892-21.188 19.454-3.226 15.423 2.843 30.544 6.774 45.201 3.468 14.636 11.271 27.559 16.613 41.571 3.791 10.080 12.298 19.294 10.402 30.805-0.323 5.584-6.067 8.487-10.482 10.866-8.025 3.85-16.37 7.863-25.342 8.81-5.827 0.787-10.402-4.011-12.761-8.73-15.121-31.753-23.386-66.086-37.338-98.282-7.398-18.992-16.208-38.205-31.188-52.54-5.041 10.948-5.968 23.165-9.052 34.657-3.63 18.104-5.827 36.449-7.803 54.654-1.007 25.040-0.785 50.161-0.145 75.199 2.036 28.749 8.105 57.015 13.689 85.219 8.347 28.426 18.045 56.612 29.293 84.029 2.761 0.304 5.605 0.626 8.428 0.707zM178.051 616.655l-5.315-0.486c-6.694-4.96-11.493-12.117-16.15-18.891-2.439-3.226-2.116-8.185 1.734-10.16 9.295-4.415 20.161-4.637 29.455-9.295 6.854-2.441 4.335-11.271 4.012-16.773-4.477-17.642-14.012-33.548-18.347-51.108-1.894-8.75 7.258-13.145 13.548-16.451 9.132-4.415 18.589-11.593 29.293-8.588 8.347 6.612 8.428 19.212 16.148 26.288 6.231 4.82 11.331-3.447 15.585-7.156 20.724-24.656 34.333-54.253 46.792-83.707 9.759-21.27 15.988-43.87 22.984-66.086 7.096-23.064 12.056-47.317 9.919-71.591 0.080-3.69-1.089-7.782 0.483-11.249 8.105-6.533 17.642-10.948 27.177-15.121 10.544 19.052 24.878 36.147 43.225 48.043 8.105 5.262 17.48 8.023 25.825 12.6-3.85 27.399-14.172 53.304-24.091 78.908-5.907 14.799-7.016 31.027-5.202 46.693 1.27 9.777 9.999 15.986 13.165 24.958 2.661 8.992-5.202 15.766-10.322 22.055-5.122 5.202-10.081 12.52-17.964 13.165-6.774-1.19-12.116-5.987-18.507-8.124-3.93 0.16-6.774 3.386-9.515 5.827-19.859 21.188-31.189 48.365-48.365 71.509-9.597 12.136-17.882 25.905-19.758 41.51-22.842 1.574-45.764 0.869-68.687 1.493-8.864-0.125-17.659 1.3-26.498 1.666-3.54 0.145-7.084 0.046-10.626 0.070zM403.714 624.998c-5.2-8.508-10.786-16.934-15.906-25.663 12.762-8.67 27.721-13.629 39.777-23.407 2.983-2.521 5.504-6.694 3.688-10.706-3.608-8.97-8.97-17.096-14.415-25.039-4.253-6.371-10.624-11.028-14.797-17.48-2.985-6.391-0.787-13.95 3.709-19.132 5.424-6.634 10.866-13.71 18.185-18.447 7.098-2.903 13.629 3.326 20.545 4.253 5.040-2.359 6.934-8.103 9.535-12.681 12.762-29.131 29.455-56.53 40.322-86.548 5.584-14.556 14.495-30.382 8.83-46.208-7.721-18.669-26.552-28.206-40.241-41.754 6.048-8.508 13.467-15.906 20.785-23.386 8.892 5.122 17.237 11.411 27.097 14.416 27.237 8.346 56.308 8.103 84.332 4.333 18.185-1.108 35.12-8.265 53.082-10.242 3.71 6.694 7.723 13.549 8.428 21.35-2.601 5.504-7.721 9.052-12.44 12.358-11.349 7.561-23.163 14.636-33.405 23.629-11.17 10.544-11.875 26.772-16.37 40.624-9.134 29.454-22.842 57.095-34.657 85.461-8.89 22.357-21.813 42.761-32.519 64.171-6.934 14.415-10.242 30.321-12.136 46.147-1.411 10.564 3.084 20.483 3.951 30.947-6.612 4.113-12.843 8.911-19.857 12.218-8.105-1.19-15.585-4.879-23.77-5.202-14.172-0.867-28.447-0.867-42.619 0.485-9.919 0.847-19.132 4.797-29.133 5.502zM821.181 626.331c-24.172-10.706-33.951-20.787-38.668-22.823-4.637-2.057-14.415-7.419-25.825-16.148-11.431-8.75-17.48-18.123-17.48-18.123s2.038-6.775-0.705-22.197c-2.679-15.444-4.031-36.309-4.031-36.309 13.425 10.276 27.211 20.132 41.67 28.909-5.881 9.649-4.799 23.038-2.057 33.626 10.786 5.344 33.004 5.344 49.777-7.419 16.773-12.742 27.559-19.454 31.572-33.628 4.033-14.092 1.352-28.184 1.352-28.184-16.775-12.762-36.934-37.016-43.628-42.378-6.774-5.342-12.138-10.080-21.513-16.773-9.455-6.694-19.535-17.48-30.24-26.854-10.786-9.434-28.264-25.583-28.264-25.583 26.853 2.036 56.468 2.741 82.678 4.717 26.23 1.976 57.82-0.705 57.82-0.705 1.251-7.398 0.626-18.749 0.626-18.749 3.386 4.033 24.173 1.976 24.173 1.976 2.055 27.559 28.264 73.243 28.264 73.243l-13.467 15.503c-7.398-8.81-16.128-22.197-16.128-22.197-13.387 0.625-25.523-2.681-32.923-4.012-7.398-1.35-24.878 0.626-24.878 0.626 12.822 19.535 60.483 66.55 60.483 66.55 2.741 31.572 0.705 48.345 0.705 48.345-9.073 10.786-22.217 27.641-26.854 32.297-4.738 4.719-20.161 13.065-26.935 20.161-8.588 8.972-25.523 16.128-25.523 16.13zM708.321 622.478c-19.514-6.531-37.801-16.229-56.772-24.091v0c-11.573-5.362-30.322-10.866-40.724-18.425-0.302-5.687 0.241-13.872 0.725-19.536 12.198-1.109 31.329 1.734 43.628 0.705 3.063 0.16 1.249-5.282 1.329-8.025 3.067-51.348 1.896-112.696-0.623-164.047 3.386 1.574 13.145 9.839 15.423 12.843 9.535 11.411 18.99 19.132 30.24 28.89 3.166 2.924 6.472 9.213 6.067 14.092 0.406 27.802-1.169 64.433-0.865 92.235 1.894 28.426 0.707 56.933 1.572 85.359zM776.144 539.639v0z" />
<glyph unicode="&#xe60f;" d="M949.036 716.81c42.604-79.135 66.982-170.926 66.982-268.81s-24.378-189.676-66.98-268.81h-874.076c-42.605 79.135-66.98 170.926-66.98 268.81s24.375 189.676 66.98 268.81h874.074zM929.002 684.889h-834.009l-8.487-18.763c-30.923-68.349-46.604-141.737-46.606-218.126 0.002-77.751 16.241-152.34 48.27-221.708l8.561-18.541h830.534l8.562 18.541c32.029 69.364 48.268 143.957 48.268 221.708 0 76.392-15.681 149.78-46.606 218.129l-8.487 18.76zM908.407 652.967c28.041-61.967 43.766-131.502 43.766-204.967 0-74.803-16.323-145.514-45.327-208.328h-789.695c-6.704 15.048-13.353 30.174-18.253 45.926 27.843 17.667 63.003 15.695 94.452 12.317v21.84c-27.721 7.277-26.602 34.72-18.76 58.242 7.887 23.661 20.113 45.657 29.959 68.659 3.413 7.98 1.867 14.438-5.598 17.864-7.096 3.253-13.546 6.82-20.024 9.938-9.189 4.425-17.671-1.152-21.168-8.231-13.831-28-21.284-57.347-32.258-87.784-8.334-22.376-18.72-44.998-36.105-61.911-12.192 42.163-16.278 86.857-17.575 131.468 0 73.465 15.729 143 43.766 204.967h792.82zM170.947 615.165c-7.559-7.98-13.44-17.64-15.677-28.279 27.018-3.36 46.901-6.583 37.239-31.642-5.262-13.652-10.94-26.441-16.8-38.921-3.34-7.107-2.594-14.979 5.601-20.442 5.497-3.663 17.362-9.644 23.521-12.041 8.259-3.219 13.356 0.131 15.961 6.159 1.908 4.429 6.233 13.054 8.4 17.362 4.065 8.088 11.189 6.351 16.239-0.84 32.119-45.742 62.49-109.614 81.483-185.926 5.258-21.132 5.041-38.369-1.401-49.004 9.274-6.885 19.657-11.699 31.082-14.56 13.474 25.325 36.867 45.292 68.603 60.761-6.514 25.998-14.868 51.618-25.762 76.725-10.981 35.338-4.337 53.779 6.721 67.76 3.021 3.825 3.091 8.878 0 13.757-5.914 9.33-12.375 16.73-19.038 22.364-4.692 3.968-10.854 4.799-15.961-0.278-3.011-2.99-5.642-6.371-9.242-8.962-36.403 43.124-67.483 89.325-78.962 121.805l-112.007 4.2zM497.161 625.456c-12.882-12.812-64.123-13.090-90.793 0-6.197-10.627-12.44-18.867-18.693-26.46 16.681-7.057 30.027-15.249 39.892-23.777 6.593-5.695 6.731-11.855 2.41-18.722-8.421-13.384-16.539-24.074-25.779-32.055-4.825-4.164-4.079-11.199-1.12-16.8 6.479-12.262 16.498-19.997 26.6-25.202 8.359 8.368 16.72 11.22 21.562 1.963 17.831-34.091 31.177-68.651 47.319-100.524 14.111-27.858 10.464-47.058-5.318-59.921-11.028-8.989-21.652-16.437-30.242-25.201 7.216-7.516 14.86-14.711 22.96-21.562 37.057 30.227 93.237 28.602 161.568 6.721 2.649 8.12 6.204 15.961 10.638 23.52-23.939 21.492-48.927 26.694-57.679 47.604-4.627 11.051-6.932 33.413-12.575 47.652-18.511 46.71-35.869 81.712-64.708 141.071-12.94 26.633-10.013 52.519-3.36 66.924-9.663 4.127-17.143 9.083-22.682 14.771zM901.497 622.445l-150.647-4.478c-1-16.452-7.139-29.923-15.677-42.001 32.717 4.357 67.243 5.623 104.16 2.799l-85.683-73.644 10.363-18.76c45.937-4.163 91.61-8.595 106.684-44.242 1.328-10.453 1.338-20.907-0.278-31.36-6.368-10.202-17.493-18.971-33.044-27.16-19.517-10.283-46.708 1.975-65.78 22.257-9.042 3.465-18.313 5.49-25.783 7.984l-8.4-18.202 87.084-55.163c23.525 21.695 49.055 40.388 78.123 53.762 3.535 19.529 5.538 39.549 5.601 60.203-14.283 35.282-45.083 51.804-84.564 60.761l77.843 107.245zM705.626 622.445c-26.286-17.022-58.083-31.242-92.824-43.96v-19.321h46.763v-166.886l46.061 46.061v184.107zM98.746 286.056l0.152-0.457-0.154 0.456 0.002 0.002z" />
<glyph unicode="&#xe610;" d="M949.040 716.812c42.592-79.128 66.978-170.921 66.978-268.812s-24.376-189.684-66.978-268.812h-874.081c-42.6 79.128-66.976 170.921-66.976 268.812s24.376 189.684 66.976 268.812h874.081zM929.009 684.889h-834.007l-8.494-18.763c-30.925-68.343-46.601-141.74-46.601-218.126 0-77.74 16.246-152.342 48.268-221.706l8.557-18.548h830.534l8.559 18.548c32.032 69.364 48.268 143.966 48.268 221.706 0 76.385-15.676 149.782-46.601 218.136l-8.484 18.753zM908.418 652.976c28.032-61.978 43.762-131.504 43.762-204.976 0-74.805-16.333-145.514-45.332-208.329h-789.697c-7.095 14.88-12.791 30.362-18.241 45.903l0.015 0.036c28.53 17.476 62.484 15.558 94.43 12.297v21.839c-27.72 7.291-26.592 34.731-18.753 58.257 7.881 23.644 20.108 45.655 29.957 68.654 3.408 7.979 1.86 14.452-5.603 17.872-7.096 3.246-13.537 6.816-20.021 9.935-9.192 4.419-17.676-1.161-21.171-8.236-13.827-28-21.279-57.354-32.258-87.784-8.496-22.060-18.394-45.452-36.105-61.913v0c-12.363 42.709-16.968 87.151-17.572 131.471 0 73.462 15.73 142.998 43.762 204.974l792.825 0.002zM170.947 615.17c-7.559-7.979-13.44-17.645-15.677-28.29 27.022-3.366 46.892-6.571 37.236-31.625-5.258-13.665-10.945-26.45-16.806-38.934-3.333-7.096-2.591-14.978 5.601-20.431 5.495-3.666 17.365-9.634 23.526-12.032 8.259-3.226 13.355 0.13 15.957 6.151 1.913 4.431 6.236 13.054 8.399 17.365 4.064 8.086 11.182 6.344 16.236-0.838 32.118-45.752 62.493-109.623 81.483-185.943 5.257-21.129 5.041-38.366-1.398-49 9.267-6.892 19.656-11.697 31.085-14.558 13.472 25.312 36.869 45.278 68.601 60.751-6.506 26.001-14.86 51.623-25.764 76.72-10.979 35.343-4.333 53.784 6.721 67.773 3.021 3.816 3.086 8.881 0 13.752-5.914 9.322-12.367 16.741-19.043 22.364-4.698 3.968-10.86 4.796-15.957-0.268-3.011-3-5.634-6.386-9.236-8.969-36.407 43.119-67.482 89.322-78.966 121.805l-111.998 4.205zM497.155 625.469c-12.88-12.805-64.126-13.085-90.793 0-6.193-10.622-12.43-18.871-18.688-26.462 16.688-7.064 30.020-15.258 39.892-23.784 6.591-5.688 6.731-11.87 2.408-18.731-8.409-13.377-16.538-24.064-25.774-32.043-4.816-4.161-4.074-11.194-1.118-16.806 6.484-12.269 16.495-19.99 26.602-25.204 8.354 8.354 16.72 11.215 21.559 1.956 17.838-34.084 31.172-68.644 47.322-100.514 14.118-27.87 10.462-47.063-5.323-59.933-11.022-8.991-21.656-16.43-30.247-25.204 7.226-7.506 14.86-14.7 22.968-21.548 37.053 30.225 93.235 28.59 161.567 6.721 2.645 8.107 6.204 15.945 10.634 23.526-23.946 21.484-48.923 26.687-57.677 47.59-4.634 11.052-6.934 33.418-12.58 47.665-18.505 46.72-35.871 81.708-64.708 141.073-12.935 26.634-10.022 52.526-3.366 66.934-9.656 4.118-17.15 9.074-22.678 14.763v0zM847.225 634.858c-6.139-83.118-120.3-188.986-121.438-187.546l20.246-14.624c38.441 5.001 79.138 7.398 95.956 8.183 2.473-20.463-1.13-69.806-3.366-89.020 29.752 16.258 53.859 13.537 53.859 13.537s-5.678 55.934-3.408 74.805c9.946 0.85 11.849 1.591 26.3-2.173 7.323 11.419 18.495 33.795 18.495 33.795l-9.324 12.044-8.859-7.839-25.699-0.012c0.905 62.257-6.257 100.451 4.313 132.859l-47.075 25.989zM843.139 542.193v-0.002c0.829-23.48 0.916-20.202 0.561-50.398-0.067-5.601-0.374-11.196-0.561-16.794 0 0-44.010-2.731-50.828-0.345 19.523 20.46 35.523 43.86 50.828 67.536v0 0 0.002zM705.637 622.459c-26.279-17.031-58.085-31.246-92.827-43.977v-19.323h46.763v-166.878l46.065 46.053v184.125z" />
<glyph unicode="&#xe611;" d="M948.975 716.8c0 0 67.055-133.581 67.026-268.797-0.027-135.223-67.043-268.803-67.043-268.803h-875.979c0 0-65.070 133.117-64.978 268.749-0.065 135.745 64.995 268.851 64.995 268.851h875.979zM95.089 684.436c-35.734-82.236-54.405-145.737-54.436-236.336-0.007-90.733 18.775-154.013 54.385-236.443l834.15-0.039c35.71 82.365 54.54 145.763 54.543 236.493 0.032 90.598-18.777 154.013-54.494 236.288l-834.149 0.038zM115.5 653.447l793.272-0.049c29.242-69.444 43.82-128.174 43.861-205.338-0.087-77.179-14.609-135.747-43.885-205.319l-793.134 0.070c-6.496 15.268-12.221 29.991-17.244 44.568 28.735 14.959 64.113 16.167 95.672 11.279l0.041 23.607-7.305 2.917c-1.966 1.147-5.024 3.052-8.595 6.354-21.649 19.516 16.288 92.377 26.305 114.886 4.915 12.942-0.225 18.949-8.463 22.518l-16.672 7.509c-7.409 4.255-16.911 4.207-20.809-6.784-12.983-24.934-20.398-52.144-30.005-78.515-10.708-28.6-19.413-52.376-39.919-72.395-11.247 40.605-16.821 81.396-16.741 129.417-0.015 77.032 14.341 135.7 43.621 205.276zM172.018 616.477l-9.192-11.79-6.26-8.424c-2.736-3.739 0.961-10.815 7.835-12.046l8.876-1.828c7.228-1.71 14.244-3.729 17.63-5.98 7.81-5.001-10.822-49.51-13.889-57.51-7.439-13.242-2.437-19.284 7.398-24.192l17.027-7.987c10.755-4.755 18.225-1.678 22.11 8.641l3.787 8.528c1.756 3.159 3.205 5.719 4.552 7.311l5.396 1.765c37.695-21.168 98.963-178.147 90.885-231.646l-2.268-8.675 29.689-16.606c11.686 25.385 41.955 54.717 69.992 59.785-3.63 18.215-8.532 35.253-14.831 52.449-9.769 26.894-27.74 64.823-7.491 90.906 5.48 6.656 8.719 15.227 0.444 23.671l-13.204 14.768c-6.815 6.258-15.712 5.91-22.825-0.763l-5.83-4.688c-22.581 16.367-33.894 42.72-48.867 65.988-11.31 17.132-27.459 33.952-28.358 55.221l-112.608 3.101zM404.854 625.589l-17.604-27.235c8.948-4.529 51.14-21.924 45.397-33.237-13.285-25.53-22.438-34.468-26.319-37.861-7.023-6.391-7.516-15.157-0.266-23.916l11.824-13.112c7.748-7.724 14.203-6.588 21.85-1.44 3 1.475 7.030 3.268 11.245-5.209 17.428-36.395 43.628-84 53.751-122.088 6.77-25.257-26.955-45.841-42.289-58.982l21.685-23.576c42.982 34.282 118.881 22.144 163.992 7.438l9.19 21.823c-4.029 5.125-8.028 9.305-13.339 13.249l-12.665 8.622c-8.762 5.782-16.753 11.020-22.101 16.722-9.091 9.926-10.037 19.12-12.969 31.891-7.127 30.348-46.816 116.669-60.679 140.539-17.099 29.943-25.634 65.193-16.975 86.929l1.068 5.477-20.873 12.059c-22.694-9.962-70.349-7.776-93.925 1.908zM892.469 635.546l-1.118-1.62-10.998-15.978-104.194-0.060-0.367-3.33-14.104-128.341 4.173 0.003c71.649-0.114 97.923-28.776 102.057-52.151l0.608-6.738c-0.285-21.023-10.554-33.918-29.672-37.49-2.966-0.521-6.156-0.794-9.545-0.794-21.115 0.179-35.797 12.527-39.332 31.836-0.478 2.698-0.717 5.548-0.717 8.521l0.003 2.792-6.477 1.929-1.533-2.295-28.131-42.033 2.135-2.171c16.645-16.954 40.965-27.175 67.961-27.054 7.699-0.020 14.923 0.608 21.659 1.794 45.269 7.817 68.175 41.859 68.002 80.002 0.002 5.135-0.432 10.293-1.333 15.392-6.996 40.344-43.324 75.892-114.227 77.885l3.791 37.827 98.551 0.061 0.003 3.739 0.010 58.252-7.207 0.020zM703.587 621.507l-1.096-0.997c-21.425-19.633-59.179-39.67-81.15-44.894l-2.826-0.684-0.036-2.895-0.111-7.334 37.060 0.017 0.055-177.403-36.983-13.437-0.031-2.57-0.055-3.524-0.046-3.791 130.77 0.003 0.096 3.652 0.16 6.485-3.017 0.666c-18.886 4.381-29.041 13.302-32.794 33.253-0.795 4.514-1.203 9.6-1.196 15.309l-0.087 198.019-3.683 0.056-5.030 0.067z" />
<glyph unicode="&#xe612;" d="M722.154 859.189c0 0 51.802-5.618 51.802-59.175l192.246-53.555c0 0 48.027-18.519 33.195-81.381l-158.894-593.21c0 0-33.283-44.409-72.074-33.261l-256.365 70.502-256.432-70.502c-38.791-11.148-72.076 33.261-72.076 33.261l-158.983 593.21c-14.744 62.862 33.283 81.381 33.283 81.381l192.246 53.555c0 53.557 51.714 59.175 51.714 59.175h420.338zM720.49 836.961h-417.010c-2.36-0.427-9.822-2.089-16.766-6.764-9.911-6.564-14.474-16.137-14.474-30.184v-16.855c0 0-203.953-56.905-206.921-57.692-5.371-2.449-21.35-12.114-21.35-37.644 0-5.192 0.72-10.991 2.203-17.575 0.27-0.968 155.027-578.625 157.59-587.928 6.741-7.731 26.856-27.824 45.824-22.475l262.479 72.255 262.41-72.255c18.968-5.349 38.992 14.744 45.826 22.475 2.562 9.303 157.321 586.962 157.59 587.928 1.483 6.584 2.202 12.384 2.202 17.575 0 25.53-16.068 35.195-21.35 37.644-2.966 0.788-207.012 57.692-207.012 57.692v16.855c0 14.048-4.562 23.62-14.382 30.184-6.946 4.675-14.408 6.337-16.857 6.764zM756.314 753.83v-570.467c0 0-5.012-36.948-34.521-36.948h-160.198l214.383-59.174c0 0 12.361-6.159 18.429 7.371l157.749 585.298c0 0 6.158 18.43-8.677 23.352l-187.165 50.567zM80.488 702.025c-14.833-4.898-8.607-23.351-8.607-23.351l157.679-585.298c6.226-13.508 18.519-7.373 18.519-7.373l214.383 59.085h-160.13c-29.667 0-34.499 37.060-34.499 37.060v570.445l-187.346-50.569zM306.019 809.228h412.718c8.607 0 9.822-11.057 9.822-11.057v-613.571c0-9.844-9.822-12.293-9.822-12.293h-412.718c-8.675 0-8.675 12.293-8.675 12.293v613.571c0 7.373 8.675 11.057 8.675 11.057z" />
<glyph unicode="&#xe613;" d="M992.761 658.865c0 0-11.201-72.924-63.142-120.124l20.685 0.616c-48.444-52.871-80.312-42.836-80.312-42.836 10.65-10.586 25.962-8.24 25.962-8.24-36.55-31.334-90.883-30.72-90.883-30.72 9.421-5.907 25.962-9.404 25.962-9.404-40.851-18.338-68.608-22.528-86.142-21.977-52.256 1.606-76.737 23.142-76.737 23.142 7.072-16.558 20.055-27.759 20.055-27.759-212.489 21.299-305.483 92.554-305.483 92.554h-83.622l-4.869-4.852v-42.709c0 0-0.488-3.386 3.072-3.386h47.703c0 0 8.556-0.253 8.556-9.107l-0.002-38.644c0.002 0 15.014-40.74-8.868-40.74-23.931 0-8.854 42.457-8.854 42.457v24.986c0 3.813-3.261 3.325-3.261 3.325h-51.326c-9.909 0-9.168 9.656-9.168 9.656v51.453l-5.294 6.207h-131.072v-26.576h-13.295c-20.371 0-23.883 27.443-23.883 27.443h-8.854c0.551 0-0.678-13.722-0.741-14.715-0.741-7.987-0.804-16.053-3.198-23.805-2.285-7.578-7.451-13.846-10.225-21.236-1.654-4.364 0.741-6.033 4.065-8.238 2.347-1.608 4.427-3.939 6.286-6.035 6.144-7.072 10.397-15.691 13.044-24.622 2.946-9.911 4.048-20.308 4.048-30.578 0-7.264-0.3-14.715-1.229-21.977-1.039-7.878-2.584-16.116-6.333-23.19-3.449-6.523-8.806-11.327-14.273-16.131-5.545-4.852-10.397-10.586-15.454-15.928-30.831-32.688-10.824-70.042-10.824-70.042h0.002c0 0-24.859 7.578-23.567 39.936 1.29 32.075 26.513 49.799 26.513 49.799s-22.151 19.439-22.151 61.959c0 13.423 1.906 27.081 7.137 39.511 1.906 4.617 4.253 8.854 7.325 12.855 1.418 1.906 2.9 4.192 2.521 6.649-0.425 2.645-3.009 4.316-4.615 6.286-2.394 2.946-4.065 6.395-5.593 9.957-4.553 11.027-5.734 23.016-5.547 34.831 0.189 11.201 0.804 22.781 3.75 33.603 1.608 6.096 4.192 12.194 7.578 17.597 8.556 13.611 22.591 22.465 38.030 26.103 0.425 0.063 9.658 1.717 9.658 1.166v18.591c15.942 12.43 30.090 0 30.090 0v-23.018l4.442-5.292h136.364l6.161 7.939v32.8c0 4-3.388 4.427-3.388 4.427h-18.715c0 0-1.78-30.090-23.931-30.090-22.164 0-27.443 25.663-27.443 37.163 0 11.517 7.074 33.666 26.578 33.666 19.439 0 23.315-21.299 23.315-21.299h36.565c0 0 9.168 0.93 9.168-10.885v-52.808h138.146c0 0 92.064-60.242 263.813-60.242 171.764 0 295.7 150.528 295.7 150.528zM67.584 432.215c0 0-15.99-4.427-15.99-35.447 0-30.956 8.854-57.532 18.637-57.532 9.737 0 17.661 18.574 17.661 36.296 0 17.724-4.427 56.684-20.308 56.684zM961.616 607.602c-30.768-27.633-77.099-62.464-134.758-86.221l-0.993-0.427c-38.455-15.691-81.715-26.53-128.804-26.53-22.89 0-44.174 1.12-64.244 2.963l-1.464 0.126c-118.958 11.011-187.329 48.3-201.981 57.107h-77.839v-13.36h18.273c0 0 10.887-9.783 22.403-16.857v0.002c10.334-6.349 94.097-61.976 265.358-84.613 0 0-7.388 11.247-3.577 30.326 0 0 19.331-11.438 35.698-17.724 11.438-4.364 29.476-11.5 55.627-12.367 10.035-0.299 25.964 1.545 47.939 8.554-7.199 4.427-21.661 21.536-21.661 21.536s33.603 1.355 33.666 1.355c1.229 0 30.264 0.314 58.022 12.807l-0.425 0.915c-9.846 6.963-7.514 23.456-7.514 23.456 12.998-0.867 27.822 2.080 27.822 2.080 6.711 1.355 16.683 4.931 29.175 13.611-9.909-0.314-19.881-0.614-19.881-0.614l27.805 25.284c19.268 17.534 32.312 39.023 41.354 58.59zM64.891 539.356c0 0-14.164-8.003-14.164-33.666s5.294-43.385 13.297-43.385c7.939 0 11.501 30.956 11.501 45.165 0 14.164-1.782 31.886-10.634 31.886zM287.162 562.372l-13.297-8.003v-30.090l13.297-8.003v46.095zM226.053 642.057c0 0-14.148-1.78-14.148-23.018 0-21.282 14.148-23.929 14.148-23.929s13.295 3.56 13.295 23.929c0 20.371-13.295 23.018-13.295 23.018z" />
<glyph unicode="&#xe614;" d="M758.69 335.314c0 17.594-14.336 31.93-31.93 31.93s-31.855-14.336-31.855-31.93c0-17.594 14.261-31.857 31.855-31.857s31.93 14.263 31.93 31.857zM608.070 335.314c0 17.594-14.261 31.93-31.857 31.93-17.594 0-31.855-14.336-31.855-31.93s14.261-31.857 31.855-31.857c17.596 0 31.857 14.263 31.857 31.857zM987.993 446.073h-140.512c-35.84 0-64.865-29.007-64.865-64.865s29.025-64.884 64.865-64.884l22.919-0.207c0 0 29.305-9.16 29.305-57.306 0-48.072-29.025-58.051-29.025-58.051h-463.184c0 0-29.025 9.979-29.025 58.051 0 48.147 29.23 57.306 29.23 57.306s45.821 0.207 45.894 0.207c37.163 0 67.268 30.198 67.268 67.285 0 37.163-30.106 67.268-67.268 67.268-176.425 0-179.852 52.149-179.852 52.149s-203.701 11.339-237.884 162.983h300.293l22.973 29.23h629.016l-0.148-249.167z" />
<glyph unicode="&#xe615;" d="M831.061 673.741h-110.568c-3.91 8.494-6.712 14.684-6.712 14.684h-403.562c0 0-2.976-6.451-6.712-14.684h-110.481l-19.68 24.699 38.948 39.881h599.412l38.948-39.881-19.593-24.699zM739.413 596.279l32.758-34.54h-520.342l32.671 34.54h454.914zM658.452 281.562v144.585l16.379 21.895h49.637l16.379-21.895 0.087-92.148-82.481-52.437zM470.683 183.876v242.272l16.379 21.895h49.637l16.379-21.895 0.087-180.32-82.481-61.952zM282.979 86.211v339.937l16.379 21.895h49.55l16.466-21.895 0.087-277.897-82.481-62.041zM53.786 847.107l51.178-118.301 53.699-38.014 24.351-31.715h113.804l-24.699-54.48-32.148-34.038-33.778-88.998v-432.669h36.992l47.596 24.764 79.59 59.824h35.56l72.641 37.84 79.503 59.737h35.212l73.054 38.101 78.831 50.157h17.748l54.892 28.587v133.572l-33.691 88.998-32.236 34.039-24.699 54.566h113.022l25.132 31.715 53.699 37.862 51.178 118.453h-916.429z" />
<glyph unicode="&#xe616;" d="M781.73 184.871c-210.671-91.039-456.974 2.084-552.487 211.663-59.878 131.248-43.892 275.99 22.723 392.75 29.303 51.238 77.239 100.671 77.239 100.671-231.716-106.238-334.167-380.931-228.437-612.951 105.83-232.325 381.032-335.183 613.357-229.25 125.58 57.185 213.366 164.007 250.778 286.638 0 0-67.098-99.401-183.171-149.521z" />
<glyph unicode="&#xe617;" d="M568.588 416.691c0-60.93-25.339-110.384-56.588-110.384s-56.508 49.454-56.508 110.384c0 60.909 25.259 110.283 56.508 110.283s56.588-49.374 56.588-110.283zM260.185 218.631h503.631l-35.628-124.029h-432.374l-35.628 124.029zM342.214 549.583l-277.175 87.757 178.185-381.894h537.552l178.185 381.894-277.175-87.757-169.706 251.815-169.866-251.815z" />
<glyph unicode="&#xe618;" d="M156.595 411.29c0.894-4.096 0.205-7.808 0.102-12.493-0.205-11.008 1.201-22.298 2.995-33.203 7.014-45.312 28.211-82.79 60.518-115.098 16.282-16.205 34.099-31.002 52.198-45.107 9.088-6.989 18.278-13.901 27.597-20.787 4.685-3.405 12.006-13.901 14.182-2.714 2.099 10.496 1.819 17.715 7.706 27.315 12.698 20.582 50.714 0 52.301-19.021 1.615-18.995 7.91-72.883 52.301-77.696 44.314-4.685 61.798-11.085 77.594-17.382 11.699-4.71 29.107-1 41.216 0.28 16.896 1.819 33.69 4.301 50.483 7.219 5.299 0.896 11.52 0.794 13.901 6.579 2.406 5.811-1.792 12.314-5.683 16.205-9.498 9.395-24.294 13.517-36.198 18.406-10.112 4.096-20.198 8.192-30.515 11.597-12.288 4.096-24.883 5.99-34.099 16.205-13.491 14.899-15.283 36.506-14.592 55.808 0.792 20.89 3.302 42.496 13.901 60.979 7.296 12.698 13.005 26.317 18.995 39.706 3.507 7.706 16.512 36.403 7.91 43.392-8.115 6.81-26.317-4.89-28.518-13.389-4.685-18.995-39.501-18.995-39.501-18.995s-58.701 1.587-83.994-9.498c-25.395-11.11-95.104 3.098-118.784 36.403-1.615 2.278-10.598 1.382-13.312 2.995-9.293 5.606-10.394 32.307-1 38.195 12.698 7.91 0 58.598-45.901 58.598-15.002 0-32.102-2.304-43.802-12.698-8.294-7.296-9.088-16-5.094-25.805 1.792-4.506 4.506-8.499 6.298-13.107 0.307-0.998 0.591-1.894 0.794-2.893zM329.905 738.302c0 0-95.718-23.398-87.808-94.618 0 0-50.099-16.282-64.307-62.182-14.285-46.003 3.098-58.701 22.118-58.701 19.098 0 34.893 7.885 34.893 7.885s28.493 6.298 44.39-4.685c15.795-11.11 83.917-9.498 99.814 12.698 15.795 22.195 52.198 0 68.096-38.118 15.795-37.99 64.896-50.688 80.794-4.685 0 0 14.208 60.186 0 141.005 0 0-49.101 44.39-114.099 55.398-64.998 11.085-74.394 15.898-83.891 46.003zM716.286 533.886c0 99.814-104.499 133.094-104.499 133.094s-23.68 4.71-23.68 23.808c0 0-40.602-0.589-64.41 12.109 0 0-21.197 5.299-21.197 19.482 0 14.31-106.112 42.419-68.89 73.318 0 0 275.686 64 418.099-218.214 0 0-59.315 30.899-59.315-52.301 0-57.498 38.502-75.085 70.502-71.885 0 0 57.6-200.013-222.592-305.894 0 0-20.198 5.888-11.802 24.986 8.294 18.893-11.904 18.893-11.904 18.893s-28.493-2.278-28.493 38.118c0 40.397 10.701 43.904 10.701 43.904l42.701 33.28c0 0 9.498 8.32 1.178 18.995-8.397 10.701-29.696 35.712-29.696 48.717 0 9.498 5.709 17.101 12.006 20.608 0 0 91.29-14.003 91.29 138.982zM512 42.086c-223.795 0-405.888 182.118-405.888 405.914s182.093 405.888 405.888 405.888c223.795 0 405.888-182.093 405.888-405.888s-182.093-405.914-405.888-405.914zM512 920.781c-261.094 0-472.909-211.686-472.909-472.781 0-261.197 211.814-472.909 472.909-472.909 261.197 0 472.909 211.712 472.909 472.909 0 261.094-211.712 472.781-472.909 472.781z" />
<glyph unicode="&#xe619;" d="M534.401 244.096l-33.409 157.106h-16.792l-27.214-161.203c10.523-96.306 27.214-125.696 27.214-125.696h16.792c20.916 56.576 33.409 129.793 33.409 129.793zM701.696 377.881l-152.805 49.408-8.295-14.49 126.003-104.115c88.703-39.091 122.393-39.194 122.393-39.194l8.398 14.593c-38.503 46.31-95.693 93.798-95.693 93.798zM197.197 284.083l8.295-14.593c0 0 33.817 0.206 122.496 39.194l126.003 104.115-8.295 14.49-152.805-49.408c0 0-57.192-47.487-95.693-93.798zM797.39 611.686l-8.398 14.515c0 0-33.69-0.101-122.393-39.116l-126.003-104.090 8.295-14.593 152.805 49.486c0 0 57.19 47.514 95.693 93.798zM292.89 517.888l152.805-49.486 8.295 14.593-126.003 104.090c-88.678 39.015-122.496 39.116-122.496 39.116l-8.295-14.515c38.502-46.284 95.693-93.798 95.693-93.798zM490.496 784.385h16.691c0 0 16.821-29.287 27.214-125.696l-27.214-161.203h-16.691l-33.51 157.004c0 0 12.621 73.294 33.51 129.896zM423.502 316.39v-73.294l-48.206-112 25.19-37.708 37.607 77.49c0 0 12.596-90.086 39.911-123.596h37.605c0 0 35.584 62.899 41.882 125.696l37.71-77.492 22.988 39.808-41.882 106.804v71.194l62.9-39.808 72.781-88.602 45.9 0.717-49.204 70.682c57.907-25.192 130.1-24.782 130.1-24.782l18.406 32.896c-16.001 40.090-88.396 95.001-88.396 95.001l86.016-5.016-20.609 40.422-118.605 11.084-58.701 45.492 58.701 39.219 118.605 11.085 20.609 40.32-86.016-4.915c0 0 72.396 54.912 88.396 95.001l-18.406 32.896c0 0-72.193 0.41-130.1-24.805l49.204 70.707-45.9 0.715-72.781-88.703-68.123-43.699-0.998 77.389 48.103 108.902-25.087 37.71-37.71-77.415c0 0-12.594 90.010-39.782 123.495h-37.607c0 0-35.711-62.797-42.009-125.696l-37.607 77.517-23.090-39.808 41.906-106.804 7.297-79.487-67.713 47.897-72.678 88.703-46.003-0.715 49.202-70.707c-57.907 25.215-130.098 24.805-130.098 24.805l-18.406-32.896c15.999-40.089 88.293-95.001 88.293-95.001l-85.913 4.915 20.607-40.32 118.503-11.085 54.195-41.319-54.195-43.392-118.503-11.084-20.607-40.422 85.913 5.016c0 0-72.294-54.911-88.293-95.001l18.406-32.896c0 0 72.191-0.41 130.098 24.782l-49.202-70.682 46.003-0.717 72.678 88.602 66.713 42.906zM575.104 922.292h6.784c0 0 95.411-143.488 102.221-153.704 12.289-0.204 188.98-2.892 188.98-2.892l80.513-154.701c0 0-77.698-152.115-83.2-162.714 5.503-10.7 83.2-162.79 83.2-162.79l-80.513-154.804c0 0-180.582-2.688-193.895-2.892-0.692-1.305-1.688-2.996-1.688-2.996-3.098-5.402-78.619-130.713-87.219-144.896l-3.687-6.119-174.311-0.103c0 0-96.001 144.001-102.785 154.318-12.312 0.103-186.598 2.688-186.598 2.688l-80.513 154.804c0 0 77.698 152.090 83.2 162.79-5.503 10.599-83.2 162.714-83.2 162.714l80.513 154.802c0 0 178.202 2.586 191.284 2.79 6.603 11.213 90.904 153.704 90.904 153.704h170.010z" horiz-adv-x="996" />
<glyph unicode="&#xe61a;" d="M793.137 493.5l-21.425 1.833 25.025-58.996c-107.196 67.925-209.024 32.189-209.024 32.189-10.713 42.9 1.833 101.83 1.833 101.83 108.926 51.763 275.065-12.546 275.065-12.546-53.613-35.671-71.473-64.311-71.473-64.311zM654.915 423.001l-26.083 13.336c12.477 10.713 26.807 8.931 26.807 8.931l-0.722-22.267zM568.069 409.597c-39.286 23.192-228.683 121.474-419.78 105.378 0 0 76.788 26.808 141.116 37.504 0 0-14.261 23.19-92.901 60.711 0 0 175.070-1.783 357.304-112.543 0 0 0-30.339 10.713-55.38 10.713-24.958 26.807-17.794 26.807-17.794s24.958-19.71 46.433-26.807c0 0-30.406-14.312-69.692 8.929zM828.875 427.474c0 0-6.055 18.92-18.533 45.727 0 0 34.627 38.226 82.842 63.184l-64.309-108.911zM965.449 657.469c-23.916 0-43.356-19.389-43.356-43.372 0-11.94 4.861-22.721 12.681-30.607l-8.544-14.513-26.353 1.043c-12.276 4.741-26.537 10.325-26.537 10.325-7.216 2.758-177.172 67.388-294.171 11.756l-10.781-5.13-2.488-11.621c-0.336-1.514-4.726-23.124-6.171-50.318-139.602 83.096-277.101 104.639-334.718 110.356-61.737 6.105-123.172 0.135-123.172 0.135 82.188-38.429 132.572-70.028 132.572-70.028s-75.409-10.31-219.215-80.876l135.127 6.306c201.356 16.952 397.245-97.222 405.519-102.081 33.382-19.779 66.615-20.367 85.601-12.479 46.181 18.987 37.772 76.268 37.772 76.268 30.742-3.162 67.135-12.95 104.588-36.663l26.336-17.137-80.404-138.878 30.356-21.425 187.547 305.488-3.548 14.246 8.612 14.647c4.002-1.244 8.274-2.169 12.747-2.169 23.982 0 43.354 19.458 43.354 43.356 0 23.982-19.372 43.372-43.354 43.372z" />
<glyph unicode="&#xe61b;" d="M401.044 939.172v-0.002h380.191l-43.076-464.696-99.584 244.529-132.371-762.175-86.912 791.055-80.503-405.903-96.024 532.724 164.248 0.271-5.968 64.196zM747.935 907.122l-231.465-1.719-3.168-746.556 110.022 655.787 93.15-219.382 31.461 311.869zM413.716 843.517l-87.306-0.468 15.251-352.66c0 0 7.982 30.133 10.757 45.384v0.002c19.843 102.728 61.298 307.743 61.298 307.743z" />
<glyph unicode="&#xe61c;" d="M484.606 523.112c15.676-22.936 24.482-116.311 24.482-116.311 39.82-17.432 116.941-1.335 116.941-1.335 1.521 65.823-28.993 130.15-28.993 130.15-49.649-9.829-112.43-12.503-112.43-12.503zM484.186 381.507c13.421-36.359-1.126-131.908-1.126-131.908 52.951-41.759 120.426-46.582 120.426-46.582 36.961 73.923 32.166 176.734 32.166 176.734-65.85-20.893-151.465 1.758-151.465 1.758zM470.163 724.83c0 0 60.843 34 64.408 66.268 3.591 32.244-8.914 34.079-17.905 68.077-8.912 34.104 10.747 50.174 10.747 50.174s-50.173-26.817-59.085-57.33c-9.018-30.408-1.835-48.338 5.321-64.512 7.156-16.068 7.156-41.156-3.487-62.677zM491.868 713.061c-13.5-0.5-25.271-1.13-26.503-4.797-1.232-3.593 2.543-18.56 6.449-32.060 3.773-13.737 8.808-26.921 12.293-29.071 3.173-1.964 13.186 0.814 26.214 2.543 15.046 1.94 28.757 1.758 30.513 4.823 1.835 3.067-2.36 16.986-7.183 31.326-4.193 11.979-8.492 24.588-12.897 26.528-4.613 1.939-16.068 1.232-28.887 0.708zM439.545 624.171c0 0-202.319-138.436-158.594-330.74 0 0 125.223 69.833 178.988 309.769 0 0 0.811 17.51-20.395 20.972zM434.854 649.571c0 0 2.961 15.676 4.902 34.917 0 0-174.585 24.694-265.31-16.068 0 0-95.131-129.628-81.212-224.365 0 0 26.032 0 36.569 8.704 0 0 65.22 78.143 110.491 115.314 0 0 114.896 73.609 187.691 79.558l6.869 1.94zM50.847 753.823c0 0 218.308 43.621 356.456-36.043 0 0 16.592-12.505 40.238 9.097 0 0-108.735 120.216-189.133 121.448 0 0-115.603-25.375-212.175-84.671l4.613-9.83zM594.888 641.287c96.678-225.596 247.091-227.85 247.091-227.85-10.747 196.919-227.326 256.529-227.326 256.529-19.555-9.228-19.765-28.679-19.765-28.679zM599.999 691.461c71.591 14.234 202.24-25.086 202.24-25.086 53.765-23.357 137.832-80.582 137.832-80.582 12.583-5.321 37.695 1.835 37.695 1.835-12.609 94.816-139.692 193.328-139.692 193.328-98.485 14.234-259.57-57.356-259.57-57.356 7.158-17.905 14.339-32.138 14.339-32.138h7.156zM927.28 901.984c-109.155 30.408-227.326 23.357-227.326 23.357-77.017-23.357-148.581-168.765-148.581-168.765 28.679-14.339 41.156 2.255 41.156 2.255 111.015 114.58 332.995 132.511 332.995 132.511l1.754 10.643zM455.719 228.734c0-52.951-61.025-181.451-61.025-181.451 29.385-50.068 110.491-77.332 110.491-77.332 75.783 78.851 101.367 201.952 101.367 201.952-65.717 0.604-150.833 56.832-150.833 56.832zM585.871 556.486c-14.524 61.053-38.588 81.918-38.588 81.918-41.784-4.797-64.224-12.059-64.224-12.059 15.99-4.011 17.616-79.585 17.616-79.585 44.143 0.42 85.195 9.726 85.195 9.726z" />
<glyph unicode="&#xe61d;" d="M917.883 931.203l-367.278-800.947h-17.048v-52.726c21.412-8.646 36.552-29.732 36.55-54.253 0.002-32.268-26.103-58.481-58.399-58.481-32.377 0-58.481 26.213-58.481 58.481 0 24.631 15.111 45.607 36.632 54.253v52.726h-21.82l-362.479 800.947h812.322zM387.309 820.321h-170.462l278.359-610.014h33.282l278.11 610.014h-170.242v-13.546c16.377-0.527 36.113-5.081 38.168-24.289 2.193-19.958-11.796-39.139-18.959-56.709-0.111-0.224-143.565-324.634-143.565-324.632 0-0.002-145.176 324.519-145.176 324.632-6.634 16.155-23.427 50.214-15.517 66.896 5.635 12.158 24.289 13.768 36.002 14.102v13.546z" />
<glyph unicode="&#xe61e;" d="M575.715 224.681c0 0 11.662-42.537-71.415-42.537-83.152 0-69.62 46.406-69.62 46.406h-349.805l102.642 398.723 9.663 3.447-100.992-395.368c0 0 80.218 17.051 120.115 22.919 39.972 5.941 220.32 34.031 297.677-35.516 0 0 52.128 26.991 162.289 26.991 110.159 0 195.255-19.272 247.455-13.459l-95.968 366.563 13.532-5.794 95.985-372.376h-361.557zM205.633 639.375l10.743 3.869-89.679-379.6c0 0 111.462 24.991 202.424 23.854 90.943-1.082 139.808-27.723 139.808-27.723s-75.433 22.205-152.003 18.831c-76.549-3.282-155.704-18.464-207.831-30.638l96.536 391.407zM224.463 650.981l11.827 4.291-84.656-365.554c0 0 65.457 7.371 89.882 11.093 25.431 3.869 140.815 27.723 244.026-36.598 0 0-98.773 39.972-190.799 31.097-92.117-8.892-129.797-16.703-157.575-22.204l87.294 377.875zM253.909 680.851l19.84-16.466-71.27-339.427c0 0 39.477-1.724 93.474 9.388 52.934 10.873 142.1-12.322 202.259-68.832 0 0-91.457 68.611-220.099 49.707-49.836-7.241-112.085-13.256-112.085-13.256 0.073 0.147 87.881 378.885 87.881 378.885zM301.326 737.855c0 0 14.466-57.004 71.985-60.378 57.499-3.429 122.26 43.913 136.8-54.641 0 0-3.941-347.805-3.941-347.878 0 2.219-10.397 8.965-11.827 10.175-10.819 8.453-22.405 16.118-34.306 23.067-35.314 20.828-74.993 39.165-116.393 42.115-24.131 1.707-47.985-2.016-71.545-6.673-34.086-6.583-55.869-4.932-55.869-4.932l85.096 399.145zM523.643 628.777c0.568 0.147 0.862 0.22 0.862 0.22 0.642 0.147 59.223 15.109 109.223 15.109 24.277 0 45.124-5.373 63.459-10.030 20.482-5.299 38.175-9.81 53.999-4.932 11.167 3.429 22.497 7.866 31.94 11.882l103.852-371.936c0 0-270.577 46.408-363.409-23.139l0.073 382.826zM815.727 612.661l96.389-369.644c0 0-44.462 0-147.893 12.614-103.431 12.524-217.441-7.81-217.441-7.81s101.487 49.34 352.739 10.67l-100.277 361.905 16.483-7.736zM878.672 605.51l-34.451 0.2-19.198 8.527-1.852 6.455-24.936 11.735-7.939 25.211c0 0-17.328-9.663-42.484-17.401-25.137-7.736-61.882 15.476-114.082 15.476-52.147 0-112.085-15.476-112.085-15.476-25.083 69.62-54.089 65.751-127.578 50.277-73.397-15.457-94.684 86.965-94.684 86.965l-23.194-100.497-28.017 24.131-8.508-36.084-19.492-6.803-1.797-5.74-17.546-6.308-1.357-4.785-19.326-7.738-5.316-22.424h-32.014l-108.29-415.555h390.49c0 0-2.934-39.605 76.844-39.605 79.722 0 83.591 35.736 83.591 35.736h404.023l-110.802 413.703z" />
<glyph unicode="&#xe61f;" d="M605.713 848.567c110.563 0 157.257-115.205 157.257-157.331 0-44.24-27.040-85.978-27.040-85.978 63.968 34.449 110.662-29.42 110.662-29.42 36.806 19.533 113.017 0 113.017-78.691 0-78.665-68.801-90.909-68.803-90.909h-267.918l199.117-186.752-120.428 17.080 179.366-189.133-538.194 312.013 162.19-19.628-88.457 66.42h-270.372c-130.193 68.803-78.568 181.844-24.562 213.717 54.079 31.997 122.882-9.766 122.882-9.766-39.284 83.5 39.308 167.12 108.111 167.122 68.801-0.002 103.252-51.627 103.25-51.627 0.002 0 39.286 122.882 149.922 122.882zM464.416 406.53l112.459-96.788-113.406 10.057 281.086-164.936-111.512 115.205 113.309-15.671-162.748 151.84-119.188 0.292z" />
<glyph unicode="&#xe620;" d="M622.331 224.683h-95.568v205.899h95.568v-205.899zM496.242 224.683h-95.57v205.899h95.57v-205.899zM526.763 629.816h-30.725l0.205-176.58h-95.57v176.273h-30.544v-176.273h-80.705v-22.654h80.705v-205.899h-80.705v-21.658h80.705v-226.459h30.544v226.459h95.57v-226.459h30.52v226.459h95.568v-226.459h27.634v226.459h86.705v21.658h-86.705v205.899h86.705v22.654h-86.705v176.273h-27.634v-176.273h-95.568v176.58zM773.371-23.537h202.325v403.831h-202.325v-403.831zM48.304-23.434h202.325v403.729h-202.325v-403.729zM773.473 443.965h202.223c0 299.578-223.268 425.667-223.268 425.667l-70.922-189.247c0 0 91.967-70.822 91.967-236.419zM342.596 680.385l-70.924 189.247c0 0-223.266-126.089-223.266-425.667h202.223c0 165.598 91.967 236.419 91.967 236.419zM318.947 919.537h386.183l-84.076-239.152h-215.4l-86.707 239.152z" />
<glyph unicode="&#xe621;" d="M789.755 416.343h-16.62c0 0-7.876 15.264-31.508 33.666l0.063 84.362c21.299-11.39 37.478-22.214 48.128-29.838l-0.063-88.19zM671.539 487.108c-18.464 7.137-38.030 13.549-62.764 18.212v76.989c22.639-4.68 43.622-10.65 62.764-17.297v-77.904zM544.154 513.024c-10.272 0.551-20.985 0.85-32.186 0.85-10.822 0-22.086-0.299-32.121-0.787l0.063 77.966c10.144 0.741 20.668 1.103 31.317 1.166h1.12c10.824-0.063 21.473-0.425 31.807-1.166v-78.029zM350.302 486.306l0.063 78.044c18.905 6.632 39.637 12.604 62.102 17.345l0.172-77.099c-23.677-4.806-44.677-11.139-62.338-18.29zM281.994 446.133c-20.48-17.55-27.68-31.507-27.68-31.507h-20.070v89.907c10.523 7.624 26.656 18.336 47.751 29.648v-88.049zM932.156 415.241c-9.295 22.023-7.514 90.522-7.514 90.522h-32.485c0 0 15.077 6.946 15.077 29.034 0 0 1.717 34.784-38.345 34.784s-36.548-45.244-36.548-45.244c0 0-120.991 108.875-319.882 109.662h-1.403c-198.593-0.976-319.394-109.662-319.394-109.662s3.514 45.244-36.485 45.244c-40.062 0-38.345-34.784-38.345-34.784 0-22.088 15.077-29.034 15.077-29.034h-32.485c0 0 1.717-68.499-7.578-90.522h-67.316v-72.011c0 0 58.022 8.129 58.022-81.227h184.557c0 0-4.617 197.301 243.758 197.349h2.27c248.438 0 243.758-197.349 243.758-197.349h184.62c0 89.356 57.958 81.227 57.958 81.227v72.011h-67.316z" />
<glyph unicode="&#xe622;" d="M715.351 411.175c0-19.014 15.454-34.47 34.47-34.47 19.014 0 34.452 15.456 34.452 34.47 0 19.016-15.439 34.454-34.452 34.454-19.016 0-34.47-15.439-34.47-34.454zM749.821 504.091c51.2 0 92.916-41.653 92.916-92.916 0-51.2-41.716-92.931-92.916-92.931-51.263 0-92.933 41.731-92.933 92.931 0 51.263 41.67 92.916 92.933 92.916zM749.821 534.434c-68.12 0-123.322-55.202-123.322-123.259 0-68.072 55.202-123.274 123.322-123.274 68.057 0 123.32 55.202 123.32 123.274 0 68.057-55.264 123.259-123.32 123.259zM987.042 479.531l5.844-94.633-60.242-17.975c-2.331-9.532-5.357-18.826-9.105-27.759l41.289-51.263-58.399-64.307-56.73 29.051c-8.743-5.357-32.186-23.38-27.569-14.037 2.205 4.506-2.222-68.734-2.222-68.734l-95.814-1.166-20.118 62.213c-9.484 2.458-18.652 5.717-27.506 9.609l-45.858-46.159-71.255 66.639 33.539 52.383c-6.033 9.719-11.201 20.053-15.329 30.892l-70.828 5.53v85.292l62.039 12.87c2.458 12.179 6.081 23.931 10.759 35.132l-41.291 54.886 59.629 66.591 49.357-38.895c9.595 6.458 19.881 12.129 30.641 16.746l6.475 71.255h86.519l10.697-58.527c16.258-2.584 31.886-7.325 46.411-13.909l46.882 47.891 68.987-57.296-37.84-56.305c7.813-11.517 14.336-23.946 19.439-37.053l61.599 1.039zM239.727 484.825c0-19.016 15.439-34.517 34.452-34.517 19.016 0 34.47 15.502 34.47 34.517s-15.454 34.47-34.47 34.47c-19.014 0-34.452-15.456-34.452-34.47zM274.179 577.693c51.2 0 92.933-41.668 92.933-92.868 0-51.263-41.733-92.916-92.933-92.916-51.263 0-92.916 41.653-92.916 92.916 0 51.2 41.653 92.868 92.916 92.868zM274.179 608.099c-68.12 0-123.32-55.202-123.32-123.274 0-68.12 55.2-123.322 123.32-123.322 68.072 0 123.274 55.202 123.274 123.322 0 68.072-55.202 123.274-123.274 123.274zM511.416 553.197l5.845-94.698-60.242-17.911c-2.348-9.61-5.357-18.842-9.107-27.822l41.291-51.263-58.399-64.244-56.747 29.051c-8.728-5.42-32.121-23.395-27.569-14.1 2.222 4.506-2.205-68.734-2.205-68.734l-95.814-1.166-20.134 62.213c-9.469 2.521-18.7 5.78-27.506 9.656l-45.844-46.143-71.318 66.575 33.541 52.367c-5.972 9.735-11.138 20.070-15.329 30.892l-70.765 5.608v85.292l62.022 12.855c2.458 12.131 6.096 23.883 10.776 35.084l-41.291 54.886 59.629 66.591 49.357-38.895c9.593 6.521 19.802 12.129 30.578 16.794l6.521 71.207h86.521l10.711-58.464c16.242-2.645 31.824-7.388 46.396-13.972l46.899 47.875 68.924-57.281-37.794-56.257c7.83-11.564 14.351-23.931 19.456-37.101l61.597 1.104z" />
<glyph unicode="&#xe623;" d="M966.642 325.99l-683.327 173.293c-47.561 45.418 1.12 199.806 1.12 199.806l-68.499 15.203-82.835-83.26-20.857-88.301-25.474 6.46c-17.661 4.427-35.637-6.286-40.125-23.946l-13.17-52.004c-4.49-17.597 6.223-35.62 23.883-40.062l27.38-6.948-37.478-158.641 163.999-41.607 47.072 156.186 678.963-172.128c17.661-4.49 35.574 6.159 40.062 23.82l13.17 52.004c4.49 17.722-6.223 35.698-23.883 40.125z" />
<glyph unicode="&#xe624;" d="M345.446 84.489c-39.412 3.007-86.105 24.849-86.105 24.849l144.326 266.363-58.221-291.212zM628.582 554.095v272.079c31.259 8.076 47.959 20.004 47.959 34.466 0 26.788-38.045 51.637-159.981 51.637-121.912 0-166.939-24.849-166.939-51.637 0-14.462 18.538-26.489 52.011-34.541v-272.003l-284.503-484.168c0 0 102.902-86.204 405.569-86.204 288.951 0 384.174 80.189 384.174 80.189l-278.289 490.182z" />
<glyph unicode="&#xe625;" d="M789.117 289.83c68.98 0 97.183 26.54 98.050 56.677 1.365 40.306-45.937 85.847-109.285 85.847-100.084 0-172.959-118.315-172.959-118.315 38.571-14.708 113.254-24.209 134.586-24.209h49.608zM284.407 289.83c21.431 0 96.114 9.501 134.586 24.209 0 0-72.875 118.315-172.957 118.315-63.251 0-110.551-45.541-109.286-85.847 0.966-30.136 29.070-56.677 98.050-56.677h49.608zM504.443 896.831c-326.89 0-446.744-181.664-446.744-181.664s36.314-83.514 170.701-90.781c0 0 109.013 109.012 279.738 109.012h3.871c170.725 0 279.712-109.012 279.712-109.012 134.289 7.267 170.626 90.781 170.626 90.781s-119.852 181.664-446.742 181.664h-11.162zM515.878 511.8c385.055 0 457.706 90.783 457.706 90.783s43.506-519.419-192.503-599.363c0 0-76.271-25.373-119.852 50.874-43.605 76.247-101.745 181.663-148.922 181.663h-0.596c-47.177 0-105.317-105.416-148.922-181.663-43.581-76.247-119.852-50.874-119.852-50.874-236.109 79.944-192.503 599.363-192.503 599.363s72.651-90.783 457.706-90.783h7.74z" />
<glyph unicode="&#xe626;" d="M732.436 467.567l3.258 0.065c44.343 2.072 48.534 45.771 48.597 46.222 0.128 1.812-1.060 3.436-2.809 4.012-0.386 0.116-0.754 0.116-1.14 0.116-1.446 0-2.761-0.691-3.5-1.942-0.128-0.176-13.935-23.006-42.656-25.399-1.686-0.065-3.26-0.128-4.833-0.128-26.088 0-43.010 17.884-43.138 18.062-0.817 0.817-1.879 1.266-3.017 1.266-0.628 0-1.318-0.128-1.944-0.449-1.556-0.867-2.376-2.697-1.877-4.448 0.128-0.384 11.735-37.374 53.059-37.374zM601.045 439.347l-74.813-9.602-3.002 19.009-487.284-66.031-6.325 44.15 486.449 66.592-3.26 20.695 52.739 8.653c0 0 9.6-23.006 42.206-23.006 31.179 0 66.674 39.318 66.674 39.318l-22.525 63.334 46.222-53.173c4.077 1.428 8.46 2.698 13.228 3.756l8.655 77.254 20.26-74.749c4.207-0.193 8.59-0.561 13.117-1.253l30.904 59.643-5.763-65.968c2.632-0.949 5.33-2.007 8.091-3.147 14.802-6.197 29.476-18.816 46.413-17.498 15.476 1.203 23.327 8.282 29.909 21.385 1.558 3.145 2.874 16.311 2.874 16.311 42.095-48.099 128.563 55.629 128.563 55.629-52.61-216.479-170.385-354.947-321.393-354.947-115.768 0-141.553 98.959-141.553 98.959s41.837-5.908 69.612 13.293c27.855 19.185 10.549 48.918 0 61.392z" />
<glyph unicode="&#xe627;" d="M786.372 251.046l22.607-25.846 90.382 109.725-1.62 48.362-111.369-132.241zM202.201 530.174l-61.365 11.291 154.918-296.921c0 0 54.863-32.256 48.452 32.278l-142.005 253.351zM679.817 651.192l-48.36 48.452-29.017-458.363c0 0 6.34-61.273 54.77-48.43l22.607 458.341zM221.546 170.245l-177.524 329.201 48.454 129.162 138.742-29.017 138.836-245.321 12.843 348.546 164.681 158.179 190.365-177.524-19.437-374.391 116.321 129.070 112.896 9.766 9.764-119.491-87.235-116.135 32.28-6.434c0 0 77.447-48.452 77.447-90.382 0-42.020-45.099-45.283-45.099-45.283s-122.73-19.251-180.855-3.169c-58.033 16.104-138.742 9.672-232.387-19.345-93.551-29.109-151.584-3.239-219.452 29.017-67.797 32.28-235.556 12.935-235.556 12.935s-25.847 58.033 148.413 58.033c0 0 9.672 19.413 6.502 22.584z" />
<glyph unicode="&#xe628;" d="M511.875 697.494v0c-0.485 0-0.819 0-1.304 0-0.364 0-0.816 0-1.3 0v0c-20.118 1.304-34.084 17.753-34.084 50.534 0 34.174 35.386 81.043 35.386 81.043s35.507-46.868 35.507-81.043c0-32.782-14.087-49.232-34.205-50.534zM619.824 754.422c-2.606 25.296-3.787 50.625-15.27 86.011-11.361 35.509-47.355 77.288-92.679 77.288-45.565 0-81.073-41.779-92.435-77.288-11.361-35.386-12.663-60.715-15.148-86.011-2.604-25.329-17.632-138.003 107.706-138.003 125.336 0 110.309 112.674 107.825 138.003zM650.575 838.192c7.574-28.177 9.938-50.9 11.846-71.016l0.94-10.271c2.364-22.388 9.484-90.435-34.084-138.819-21.663-24.026-51.594-38.113-88.648-42.962v-75.863c271.246 0 339.202-118.127 339.202-118.127 63.896 115.038-3.212 287.698-76.711 361.199-73.591 73.499-152.544 95.858-152.544 95.858zM798.758 387.528c-137.518-35.144-258.007-409.248-258.007-409.248v477.901c189.233 0 258.007-68.652 258.007-68.652zM220.998 742.333c-73.62-73.501-140.728-246.161-76.832-361.199 0 0 67.956 118.127 339.325 118.127v75.863c-37.053 4.849-67.108 18.935-88.771 42.962-43.566 48.384-36.325 116.431-34.084 138.819l1.060 10.271c1.789 20.116 4.272 42.839 11.846 71.016 0 0-79.075-22.359-152.544-95.858zM483.246 456.18v-477.901c0 0-120.491 374.105-257.886 409.248 0 0 68.774 68.652 257.886 68.652z" />
<glyph unicode="&#xe629;" d="M939.686 344.986c0 0-168.55-47.875-316.305-47.875-147.804 0-399.628 74.94-399.628 191.44 0 116.61 235.204 104.117 235.204 104.117s127.070-3.623 145.534-62.275c20.685-65.725-45.655-87.561-45.655-87.561s166.518-2.096 166.518 85.292c0 87.433-203.996 112.418-274.763 112.418-70.781 0-409.977-8.364-409.977-199.806 0-188.558 328.861-253.904 476.066-253.904 271.565 0 423.006 158.153 423.006 158.153zM504.124 672.003c-4.617 0.174-9.296 0.237-13.974 0.237-176.916 0-249.777-19.203-249.777-19.203s62.464 56.131 266.46 56.131c203.935 0 476.554-81.116 476.554-237.237s-362.15-145.661-362.15-145.661c0 0-186.588 10.965-278.402 66.592-144.131 87.496 4.427 154.513 4.427 154.513 49.483 23.079 115.821 14.036 115.821 14.036s-72.861-33.287-72.861-76.988c0-43.686 139.501-66.639 222.759-66.639 81.905 0 191.567 26.766 199.695 76.674 24.371 150.023-308.553 177.546-308.553 177.546z" />
<glyph unicode="&#xe62a;" d="M504.648 265.701h-110.314c-33.684-69.786-24.753-182.364-24.753-182.364s-78.792 105.837-78.792 229.659c0 123.822 87.847 247.646 87.847 247.646 20.277 8.955 87.748 11.245 87.748 11.245s-51.773 110.312-146.289 80.98c-94.616-29.208-123.822-135.043-123.822-135.043 40.554 24.755 128.3 29.309 128.3 29.309s-81.106-94.616-81.106-229.658c0-135.069 153.156-330.941 153.156-330.941s-247.671 49.483-247.671 450.285c0 397.24 309.671 471.453 361.165 472.75h2.468c47.321 0 362.462-72.049 362.462-472.851 0-400.701-247.671-450.285-247.671-450.285s153.156 195.872 153.156 331.042c0 135.042-81.106 229.658-81.106 229.658s87.747-4.553 128.3-29.309c0 0-29.206 105.836-123.822 135.043-94.515 29.332-146.289-80.98-146.289-80.98s67.471-2.29 87.748-11.245c0 0 87.847-123.924 87.847-247.748 0-123.822-78.792-229.557-78.792-229.557s8.931 112.579-24.753 182.364h-125.018z" />
<glyph unicode="&#xe62b;" d="M311.064 423.499c-13.235-29.184 23.421-25.851 41.595-36.371 11.916-6.851 22.827-15.148 29.495-26.755 7.757-13.624 20.087-38.777 21.792-51.599 0 0 41.905 13.624 61.215 63.619 0 0 66.929-4.861 91.977 1.603 24.946 6.463 40.199 16.985 40.199 16.985-29.807-1.628-61.189 4.031-61.189 4.031s18.56 45.136 51.185 74.011c50.591 44.645 170.15 35.442 189.539-35.441 5.763-21.301-2.922-57.544-16.649-74.709-12.745-15.872-31.020-27.377-47.773-38.595-36.243-24.12-74.941-37.251-116.845-47.85-50.591-12.926-116.717-9.696-116.717-9.696s-67.755-32.21-129.874-52.813c-37.458-12.331-65.533-41.8-78.251-80.396 2.326 0 80.681 70.391 198.922 61.706 27.479-2.017 56.148-6.774 83.318-0.802 66.152 14.346 72.899 54.726 98.466 67.548 35.441 17.681 76.931 35.441 116.82 21.12 58.861-21.12 63.722-85.644 33.425-129.073-6.955-9.979-18.070-24.325-32.625-27.558 0 0 13.133-22.205 13.935-36.243 1.731-33.244-31.59-76.855-68.040-64.032-21.224 7.574-29.807 35.855-24.844 55.941 2.922 11.711 9.281 18.794 20.992 21.818 27.273 6.876 41.904-12.925 41.904-12.925-3.231 22.516 3.748 45.652-43.223 56.252-43.919 9.9-69.253-9.591-97.121-9.487-41.929 0.082-67.678 0-112.71 5.531-47.254 5.972-116.224-7.161-140.447-16.855-15.665-6.255-45.239-18.975-50.901-38.88-12.537-43.919 82.388-5.763 94.512-3.024 52.709 11.607 102.291 12.409 156.32 12.926 28.486 0.207 64.522-1.63 88.564-5.146 3.335-59.482 22.723-73.933 68.659-89.185-2.326-4.523-4.548-9.177-6.876-13.727-9.279-18.586-55.217 0.415-67.755 4.239-28.771 8.789-59.069 14.942-89.056 16.674-46.041 2.715-90.479-1.913-136.622-0.8 0 0-31.305 0.905-136.026-4.756-34.227-1.913-51.393 7.368-58.967 20.707-22.127 38.982 9.178 71.375 9.178 71.375-3.62 1.526-42.214 20.007-19.389 61.317 33.323 60.18 87.144 81.483 135.020 126.307 0 0 5.248 22.62-4.239 47.669-8.583 22.516-27.377 29.6-46.764 39.682-12.305 6.566-27.453 14.838-33.632 28.075-17.347 37.767 42.033 80.292 63.541 103.402 0 0-47.281 69.876-47.281 156.916 0 144.92 117.441 262.359 262.257 262.359 144.998 0 262.335-117.439 262.335-262.359 0-80.579-71.996-135.613-71.996-135.613-60.076 18.483-106.945 7.47-144.505-15.15-68.246-41.076-84.92-108.65-84.92-108.65-52.917 7.987-111.261 36.862-145.695 71.296 0 0-41.414-38.362-44.232-44.619z" />
<glyph unicode="&#xe62c;" d="M543.056 675.231c11.327 22.678 28.148 38.074 29.756 73.506 0 0-125.24-5.159-119.071-112.384 0 0 62.775-14.179 89.315 38.878zM639.734 13.29c0 0-4.949-7.18-9.201-10.109-7.31-4.768-15.189-4.458-15.189-4.458h-42.842c0 0-16.589-26.23-61.739-26.23-45.177 0-64.201 28.563-64.201 28.563s-49.92-4.77-71.381 9.511c-7.178 4.743-13.554 18.533-13.554 18.533s2.825 9.201 3.42 10.626c2.333 6.065 2.644 12.157 3.862 18.637 0.802 4.043 0.597 7.982 2.333 11.74 1.504 3.241 5.676 7.491 8.709 10.004 2.72 2.127 6.972 5.78 10.004 7.803 6.895 4.458 13.892 6.997 20.268 12.155 6.661 5.366 19.335 17.729 19.335 17.729l-3.965 5.262c0 0-9.798-6.584-11.223-7.595-6.584-5.079-12.363-9.926-19.958-13.478-7.491-3.552-23.482-12.544-23.482-12.544s-3.137 3.55-5.055 6.479c-3.343 4.951-7.491 8.813-10.341 14.179-1.504 3.031-9.719 12.129-9.719 12.129l-3.137-3.939c0 0 8.709-18.326 9.228-21.98 0.597-3.732 4.743-11.844 4.043-15.37-2.826-14.073-5.47-22.886-6.895-37.168-0.597-6.479-2.41-11.74-2.41-11.74s-85.559 2.333-114.121 23.69c-28.433 21.46-35.639 57.098-35.639 57.098s7.206 16.614-16.587 16.614c-23.794 0-42.844 16.587-42.844 16.587-97.481 118.968-95.070 252.114-95.070 252.114l35.639 35.637c0 0 14.281 23.794 4.768 35.639-9.513 11.948-9.513 16.614-9.513 40.409 0 23.793 14.256 42.817 14.256 42.817 95.070 135.451 194.91 149.733 194.91 149.733s-92.634-83.121-92.634-270.928c0-187.808 137.888-294.827 297.16-294.827 159.246 0 225.857 87.89 225.857 87.89s109.351 152.17 45.177 211.601c-64.201 59.433-59.433 133.146-59.433 133.146-9.537 0-33.306-14.281-33.306-14.281-16.613 9.615-33.331 33.306-33.331 33.306-26.1-35.639-56.996-45.15-56.996-45.15l-19.024 14.254c-19.050-40.381-49.92-76.020-49.92-76.020-16.717-7.178-38.074 4.666-38.074 4.666-14.281-45.177 19.050-104.608 19.050-104.608-19.050-9.409-45.175-2.41-66.637 19.050-21.357 21.461-37.972 33.306-54.663 16.589-16.614-16.589-7.101-42.714-7.101-42.714-14.256 2.333-35.613 14.177-35.613 14.177-9.539-18.946-9.539-54.663-9.539-54.663-135.555 68.944-40.484 147.504-40.484 147.504 2.435 59.433 7.178 92.634 47.585 114.096 40.383 21.357 54.663 37.97 47.587 56.996-7.204 19.050-15.913 46.394 1.608 64.899 27.837 29.575 107.718 27.863 131.512 111.089 23.793 83.2 87.994 95.070 87.994 95.070-11.948-38.074 23.69-109.351 66.509-78.481 42.842 30.973 118.863 30.973 118.863 30.973-33.201-57.1-21.357-97.481-21.357-97.481 56.996 35.639 147.427-28.563 154.503-40.407 7.18-11.948 11.948-42.819 19.024-50.024 7.101-7.076 19.050-33.201 4.768-35.637-14.281-2.412-21.357-19.026 0-33.203 21.461-14.358 14.281-52.33 21.461-68.944 7.101-16.691 30.896-38.074 28.459-71.38-2.333-33.306-26.126-45.152-23.793-66.611 2.435-21.357-2.333-128.377-2.333-128.377-16.719 35.639-71.381 64.28-71.381 64.28s61.868-57.1 61.868-111.763c0-54.793-109.351-102.275-109.351-102.275-26.23-47.587-68.944-76.124-68.944-76.124s-49.92 2.437-71.38-7.101c-19.024-8.501-32.502-30.169-35.147-34.809 0 0-12.648 20.347-5.364 62.466 0 0-26.929-30.974-15.889-65.316z" />
<glyph unicode="&#xe62d;" d="M833.205 476.699l-100.241-202.96h198.204l-97.963 202.96zM190.884 666.52l-100.219-202.96h198.115l-97.896 202.96zM689.944 282.122l100.308 190.949c-85.975 16.744-126.585 54.943-162.35 83.63-35.855 28.6-74.119 16.678-74.119 16.678l19.176-238.725h88.385l-33.442-81.219h-64.543v-109.819h88.387l35.787-85.975h-379.643l40.588 85.975h81.22v109.819h-57.354l-35.787 85.975h90.73l14.333 274.579c0 0-47.776 14.244-88.385 11.921-40.521-2.343-102.63 7.166-102.63 7.166l88.296-167.105c0 0 5.354-9.578 5.354-28.687 0 0-45.962-97.874-153.37-97.874-107.385 0-152.839 90.708-152.839 105.062 0 7.764 7.188 21.499 7.188 21.499l109.884 210.127c0 0-16.765 13.669-16.765 34.57 0 0.177-2.323 53.748 52.531 53.748 54.876 0 52.531-52.531 52.531-52.531s50.12-21.521 93.141-9.511c42.953 11.923 116.985 26.167 116.985 26.167v45.365l45.365 64.454 47.775-66.777v-59.697c31.032 0 107.407-45.365 150.429-97.896 42.953-52.531 93.141-71.642 93.141-71.642s19.087 31.032 47.775 31.032c28.6 0 50.033-23.844 50.033-50.208 0-26.167-19.087-40.521-19.087-40.521l112.229-212.536c0 0 4.755-8.294 4.755-21.434 0 0-40.52-100.308-150.339-100.308s-155.184 88.387-155.184 105.064c0 11.324 9.511 28.687 9.511 28.687z" />
<glyph unicode="&#xe62e;" d="M516.398 324.529c49.981 0 79.358 23.528 79.358 23.528l67.663-255.669h132.198l-85.185 64.626-32.346 296.922 49.959 73.423 105.767-432.002h146.934l-91.035 55.808-70.542 611.28-161.666-155.75-55.808 196.915-67.596-202.742h-44.111l-67.594 202.742-55.81-196.915-161.666 155.75-70.542-611.28-91.124-55.808h146.934l105.767 432.002 50.048-73.423-32.346-296.922-85.274-64.626h132.287l67.574 255.669c0 0 29.377-23.528 79.358-23.528h8.796z" />
<glyph unicode="&#xe62f;" d="M511.891 241.191c-70.523 38.753-131.362 96.821-131.362 96.821l-145.26-48.365-17.944 51.137 139.696 52.577c-1.423 17.946-2.772 55.277-2.772 55.277l-118.98 45.665c-24.856-38.68-74.735-2.772-74.735-2.772l-136.905 103.788c0 0 139.696-4.195 182.571-8.335 42.894-4.122 40.122-41.452 40.122-41.452l107.928-40.103-1.44 149.379c0 0 47.089-73.368 81.647-73.368 34.56 0 77.435 73.368 77.435 73.368h0.147c0 0 42.875-73.368 77.507-73.368 34.541 0 81.63 73.368 81.63 73.368l-1.423-149.379 107.855 40.103c0 0-2.698 37.33 40.195 41.452 42.875 4.14 182.571 8.335 182.571 8.335l-136.924-103.788c0 0-49.86-35.908-74.716 2.772l-118.98-45.665c0 0-1.348-37.332-2.772-55.277l139.696-52.577-17.944-51.137-145.26 48.365c0 0-60.839-58.068-131.434-96.821h-0.147z" />
<glyph unicode="&#xe630;" d="M413.601 342.395c-49.715 0-68.896 51.452-68.896 51.452l119.383 93.23c27.558-66.636-0.743-144.682-50.487-144.682zM955.206 200.085l-181.307 215.727 43.598 82.674-29.819 50.487 59.664 64.267-27.476 57.485 130.82 213.468-174.528-112.493 41.338 135.422-332.741-316.811 20.559 185.908-73.305-160.611-23.039 100.973-45.857-179.018-36.709 71.155-16.039-117.123-98.715-156.090-162.98-181.279 43.597-96.454 16.040 57.377 48.226-13.78v25.299l34.448-9.15 9.149 36.709 38.969-20.67 11.52 52.747 62.006-45.857-45.968-2.369v-32.079l-50.487 4.63 16.039-32.188-48.118 20.668-4.63-41.336-57.377 6.888-16.039-45.856 13.78-29.929 197.428 32.188 146.831 110.234v-75.786l34.338-34.448 25.408 27.558 22.818 11.52-6.888 50.487 82.674 20.67-32.188 45.857 96.454 98.713 268.501-75.784z" horiz-adv-x="1004" />
<glyph unicode="&#xe631;" d="M743.344 516.948l-73.393-207.831c0 0 13.858-13.86 37.371-15.21l18.046 51.232c0 0 174.508-15.21 206.413-40.141 0 0-22.182-45.764-51.301 9.672 0 0-45.694-63.741 1.418-101.113 47.114-37.441 109.418-19.395 120.509 4.118 0 0-45.764 2.768-56.837 26.368-11.022 23.513 1.418 33.237 11.073 36.023 9.742 2.768 42.996 8.236 42.996 36.023 0 27.631-59.624 74.745-235.481 141.254l16.628 44.327c0 0-13.928 15.278-37.443 15.278zM506.464 492.88c0 0 90.022-12.908 133.001-23.98l-56.769 54.932c0 0-33.72-17.976-76.232-30.952zM478.746 489.23c-171.808 13.858-270.135 112.203-270.135 112.203 90.022-191.135 270.135-112.203 270.135-112.203zM21.593 703.964c0 0 65.091-47.114 221.621-51.301l-23.53-26.3c0 0 157.949-132.999 365.711-60.954l121.926-91.441-38.791-108.017c0 0-157.88-8.373-333.875 76.18-175.927 84.487-268.716 175.927-313.062 261.832z" />
<glyph unicode="&#xe632;" d="M867.024 593.678c-23.806 122.080-76.339 208.358-76.339 208.358l-161.289-459.177c0 0 11.786-3.461 27.735-11.189l209.893 262.007zM875.74 409.518c1.638 22.064 2.55 45.428 2.55 70.043 0 24.794-1.717 48.966-4.579 72.149l-189.338-236.901c14.024-10.173 31.925-24.899 42.593-41.265l148.774 135.974zM510.283 150.060c-59.558 0-78.056-53.885-78.056-53.885-84.067 45.636-153.276 124.005-153.276 124.005 0.701 10.252 2.836 19.722 5.803 28.361l-131.316 110.058c13.815-106.911 41.37-169.928 41.37-169.928s115.652-84.144 234.87-108.653c0 0-7.129-98.169 77.041-98.169h10.564c84.065 0 77.041 98.065 77.041 98.065 119.217 24.614 234.87 108.653 234.87 108.653s27.554 63.017 41.37 170.032l-131.316-110.058c2.966-8.743 5.1-18.214 5.803-28.361 0 0-69.209-78.473-153.38-124.005 0 0-18.394 53.885-77.952 53.885h-3.434zM366.868 331.67c15.949 7.832 27.735 11.189 27.735 11.189l-161.289 459.177c0 0-52.533-86.279-76.339-208.358l209.893-262.007zM297.033 273.545c10.668 16.444 28.57 31.092 42.593 41.265l-189.233 236.901c-2.966-23.183-4.683-47.355-4.683-72.149 0-24.615 0.911-47.98 2.55-70.043l148.774-135.974zM243.878 914.15h536.245l-199.823-602.8h-136.598l-199.823 602.8z" />
<glyph unicode="&#xe633;" d="M557.242 743.136c0 0 98.932-10.344 184.438-42.74 0 0 12.145 8.951 17.277 24.18 0 0-8.735-51.362-4.913-100.625 4.477-57.776 30.486-129.527 109.715-133.158 98.060-4.584 103.627 117.164 103.627 117.164s18.121-38.263 15.775-78.901c-1.282-23.661-14.52-47.215-26.993-66.729-26.308-41.264-64.381-68.966-79.529-117.49-15.447-49.673-25.136-101.062-30.375-152.644-3.412-32.532-5.321-65.364-5.212-98.087 0.196-32.096 2.456-62.799 6.932-90.090l-175.706-36.026c0 0-2.347 76.527-69.922 81.111 0 0 0 159.932 40.61 286.157 0 0 110.45 29.31 112.689 155.535 0 0-130.811-29.31-214.187-45.085l-29.64-108.213-29.203 108.213c-83.485 15.775-214.187 45.085-214.187 45.085 2.237-126.225 112.688-155.535 112.688-155.535 40.612-126.225 40.612-286.157 40.612-286.157-67.575-4.584-69.813-81.111-69.813-81.111l-175.816 36.026c4.477 27.291 6.632 57.994 6.823 90.090 0.109 32.724-1.691 65.555-4.994 98.087-5.432 51.582-15.039 102.972-30.486 152.644-15.147 48.524-53.219 76.227-79.636 117.49-12.472 19.514-25.6 43.068-26.993 66.729-2.237 40.637 15.775 78.901 15.775 78.901s5.676-121.748 103.627-117.164c79.229 3.63 105.347 75.382 109.824 133.158 3.738 49.263-4.913 100.625-4.913 100.625 5.023-15.229 17.277-24.18 17.277-24.18 85.506 32.396 184.438 42.74 184.438 42.74 13.537 119.402 44.977 184.875 44.977 184.875s32.532-65.582 45.414-184.875z" />
<glyph unicode="&#xe634;" d="M710.683 695.76h-128.749l4.221-54.647h128.727l-4.198 54.647zM309.055 641.113h128.727l4.221 54.647h-128.749l-4.198-54.647zM434.997 531.987l1.393 46.251h-128.749l-39.224-454.885 14.010-7.006-8.313-30.826h-96.614c0 0-7.004 23.822 11.225 39.224l41.946 454.799h-135.753v60.239h141.367l5.591 54.564h-135.733c0 0-21.016 5.613-21.016 25.235v25.131h-25.235c0 0-19.538 4.198-19.538 21.014v44.752c0 0 97.922-48.951 440.789-48.951h61.568c342.951 0 440.938 48.951 440.938 48.951v-44.752c0-16.816-19.601-21.014-19.601-21.014h-25.235v-25.131c0-19.622-21.016-25.235-21.016-25.235h-135.733l5.591-54.564h141.367v-60.239h-135.753l41.946-454.799c18.229-15.403 11.225-39.224 11.225-39.224h-96.616l-8.313 30.826 13.926 7.006-39.139 454.885h-128.749l1.393-46.251h-153.943z" />
<glyph unicode="&#xe635;" d="M836.315 340.634c78.412-94.574 186.263-130.61 186.263-130.61-168.188-106.422-324.925-5.795-324.925-5.795 85.122 25.213 65.704 156.709-71.586 156.709-137.32 0-104.539-141.203-104.539-141.203-133.409-79.297-220.5-245.744-220.5-245.744-106.424 195.429 0 334.749 0 334.749 25.213-69.703 145.115-104.51 145.115 48.285 0 152.826-147.029 110.336-147.029 110.336-67.703 147-251.511 214.705-251.511 214.705 176.125 104.51 332.72-1.885 332.72-1.885-50.313-15.505-63.79-131.638 71.617-131.638s108.308 135.435 108.308 135.435c0 0 112.193 21.302 218.617 238.033 0 0 118.016-172.242 3.912-332.75 0 0-21.302 58.023-73.5 58.023-52.227 0-79.325-67.732-79.325-96.714 0-29.013 27.099-131.638 102.511-131.638 0 0 26.985-3.771 42.604 23.214 0 0 16.078-47.086 61.25-101.512z" horiz-adv-x="1070" />
<glyph unicode="&#xe636;" d="M528.142 131.932h156.349v182.7h-156.349v-182.7zM528.142 343.241h156.349v182.595h-156.349v-182.595zM495.858 314.633h-156.454v-182.7h156.454v182.7zM495.858 525.836h-156.454v-182.595h156.454v182.595zM544.125 869.4c18.268-11.812 37.035-16.116 51.47-38.557 14.986-23.385 11.6-49.841 11.6-49.841h77.926c0 0 51.364-64.276 95.85-113.987 72.781-81.311 186.795-57.638 186.795-57.638l-23.385-62.334h-183.199v-424.847h54.54c0 0 13.648-25.643 13.648-45.616 0-20.106-14.068-45.853-14.068-45.853h-20.499l-32.913-54.75h-499.912l-32.887 54.75h-20.524c0 0-14.041 25.747-14.041 45.853 0 19.973 13.752 45.616 13.752 45.616h54.436v424.847h-183.12l-23.359 62.334c0 0 113.882-23.673 186.689 57.638 44.592 49.71 95.852 113.987 95.852 113.987h77.925c0 0-3.386 26.457 11.575 49.841 14.462 22.441 33.227 26.745 51.47 38.557 27.269 17.611 32.099 64.276 32.099 64.276s5.012-46.665 32.282-64.276z" />
<glyph unicode="&#xe637;" d="M501.828 532.419c-40.375 0-73.105-32.756-73.105-73.107 0-40.475 32.73-73.207 73.105-73.207 40.451 0 73.184 32.732 73.184 73.207 0 40.351-32.732 73.107-73.184 73.107zM499.925 914l88.596-342.501h64.956v-106.346h57.032v57.134h81.36v-540.288h-559.739v536.327h74.885v-110.206h66.859v163.379h41.366l84.685 342.501z" />
</font>
</defs>
</svg>
