<?xml version="1.0" encoding="UTF-8" standalone="no"?><!DOCTYPE svg PUBLIC "-//W3C//DTD SVG 1.1//EN" "http://www.w3.org/Graphics/SVG/1.1/DTD/svg11.dtd"><svg width="100%" height="100%" viewBox="0 0 300 300" version="1.1" xmlns="http://www.w3.org/2000/svg" xmlns:xlink="http://www.w3.org/1999/xlink" xml:space="preserve" style="fill-rule:evenodd;clip-rule:evenodd;stroke-linejoin:round;stroke-miterlimit:1.41421;"><path id="path4289" d="M148.297,183.556c2.126,9.257 3.119,18.611 2.962,27.926c-0.113,6.628 -0.793,12.496 -1.682,17.44c11.486,-18.717 22.221,-36.402 26.871,-44.555l1.116,-1.958l2.047,0.942c9.805,4.506 26.646,9.351 44.493,9.42c11.475,0.04 22.002,-1.851 31.295,-5.633c10.898,-4.434 20.073,-11.486 27.272,-20.959c6.498,-8.548 9.884,-18.355 10.068,-29.153c0.145,-8.744 -1.782,-18.18 -5.741,-28.041c-5.546,-13.821 -13.582,-24.655 -16.442,-28.283l-111.738,40.597l-0.341,0.123l-4.336,1.577l4.336,-1.577l-33.637,12.221c9.6,13.133 16.683,26.933 21.069,41.059c0.418,1.347 0.807,2.691 1.174,4.04c0.437,1.604 0.845,3.207 1.214,4.814" style="fill:#1abc9c;fill-rule:nonzero;"/><path id="path4291" d="M113.039,131.968l-2.044,-2.682l40.724,-14.796c-2.126,-9.252 -3.126,-18.612 -2.962,-27.923c0.112,-6.625 0.793,-12.495 1.679,-17.439c-11.482,18.717 -22.221,36.402 -26.87,44.552l-1.119,1.959l-2.042,-0.94c-9.808,-4.509 -26.647,-9.353 -44.496,-9.422c-11.476,-0.042 -22.002,1.856 -31.294,5.638c-10.894,4.434 -20.07,11.482 -27.274,20.953c-6.496,8.548 -9.883,18.356 -10.064,29.155c-0.148,8.744 1.781,18.177 5.741,28.04c5.541,13.821 13.579,24.654 16.443,28.287l107.096,-38.916c-0.386,-1.419 -0.794,-2.838 -1.233,-4.249c-4.514,-14.539 -12.015,-28.744 -22.285,-42.217" style="fill:#2980b9;fill-rule:nonzero;"/><path id="path4293" d="M11.494,124.96c18.024,-23.711 43.934,-28.6 62.496,-28.531c17.447,0.067 34.001,4.518 44.475,8.962c6.612,-11.4 21.4,-35.58 35.178,-57.949c0.008,-0.011 0.017,-0.026 0.023,-0.04c11.76,-19.078 22.759,-36.804 27.336,-44.178c-4.692,-0.985 -9.469,-1.743 -14.316,-2.279c-4.036,-0.366 -8.617,-0.681 -13.608,-0.868c-1.027,-0.02 -2.046,-0.077 -3.079,-0.077c-82.436,0 -149.319,66.48 -149.999,148.738c0.192,1.403 0.398,2.801 0.631,4.192c0.901,-10.266 4.545,-19.659 10.863,-27.97" style="fill:#3498db;fill-rule:nonzero;"/><path id="path4295" d="M300,151.259c-0.193,-1.4 -0.398,-2.799 -0.633,-4.191c-0.902,10.264 -4.545,19.657 -10.862,27.968c-18.026,23.71 -43.934,28.603 -62.496,28.533c-17.446,-0.066 -33.999,-4.518 -44.471,-8.966c-6.605,11.386 -21.36,35.513 -35.124,57.852c-0.015,0.029 -0.032,0.057 -0.049,0.081c-11.77,19.106 -22.788,36.861 -27.372,44.239c4.676,0.982 9.436,1.735 14.261,2.271c4.082,0.373 8.726,0.692 13.787,0.878c0.988,0.018 1.966,0.076 2.958,0.076c82.441,0 149.323,-66.482 150.001,-148.741" style="fill:#17a085;fill-rule:nonzero;"/></svg>