<?xml version="1.0" encoding="utf-8"?>
<!-- Generator: Adobe Illustrator 25.2.1, SVG Export Plug-In . SVG Version: 6.00 Build 0)  -->
<svg version="1.1" id="Layer_1" xmlns="http://www.w3.org/2000/svg" xmlns:xlink="http://www.w3.org/1999/xlink" x="0px" y="0px"
	 viewBox="0 0 432.19 119.34" style="enable-background:new 0 0 432.19 119.34;" xml:space="preserve">
<style type="text/css">
	.Arched_x0020_Green{fill:url(#SVGID_1_);stroke:#FFFFFF;stroke-width:0.25;stroke-miterlimit:1;}
	.st0{fill:#6F757F;}
	.st1{fill:#36363F;}
	.st2{fill:#414042;}
	.st3{fill:url(#SVGID_2_);}
	.st4{fill:url(#SVGID_3_);}
	.st5{fill:url(#SVGID_4_);}
	.st6{fill:#FFF1C2;}
	.st7{fill:#698F3D;}
	.st8{fill:#25262D;}
	.st9{fill:#9E2827;}
	.st10{fill:#261617;}
	.st11{fill:#287CA8;}
	.st12{fill:#00A651;}
	.st13{fill:#BE1E2D;}
	.st14{fill:#58595B;}
	.st15{fill:#44C8F5;}
	.st16{fill:#FFF685;}
	.st17{fill:#FEE499;}
	.st18{fill:#FFFFFF;}
	.st19{fill:#FFF9AE;}
	.st20{fill:#1C75BC;}
	.st21{fill:#006838;}
	.st22{fill:#C85248;}
	.st23{fill:#4C525F;}
	.st24{fill:url(#SVGID_5_);}
	.st25{filter:url(#Adobe_OpacityMaskFilter);}
	.st26{opacity:0.75;mask:url(#SVGID_6_);}
	.st27{fill:url(#SVGID_7_);}
	.st28{filter:url(#Adobe_OpacityMaskFilter_1_);}
	.st29{opacity:0.75;mask:url(#SVGID_8_);}
	.st30{fill:url(#SVGID_9_);}
	.st31{filter:url(#Adobe_OpacityMaskFilter_2_);}
	.st32{opacity:0.75;mask:url(#SVGID_10_);}
	.st33{fill:url(#SVGID_11_);}
	.st34{fill:url(#SVGID_12_);}
	.st35{filter:url(#Adobe_OpacityMaskFilter_3_);}
	.st36{opacity:0.75;mask:url(#SVGID_13_);}
	.st37{fill:url(#SVGID_14_);}
	.st38{fill:url(#SVGID_15_);}
	.st39{filter:url(#Adobe_OpacityMaskFilter_4_);}
	.st40{opacity:0.75;mask:url(#SVGID_16_);}
	.st41{fill:url(#SVGID_17_);}
	.st42{fill:url(#SVGID_18_);}
	.st43{filter:url(#Adobe_OpacityMaskFilter_5_);}
	.st44{opacity:0.75;mask:url(#SVGID_19_);}
	.st45{fill:url(#SVGID_20_);}
	.st46{fill:url(#SVGID_21_);}
	.st47{filter:url(#Adobe_OpacityMaskFilter_6_);}
	.st48{opacity:0.75;mask:url(#SVGID_22_);}
	.st49{fill:url(#SVGID_23_);}
	.st50{filter:url(#Adobe_OpacityMaskFilter_7_);}
	.st51{opacity:0.75;mask:url(#SVGID_24_);}
	.st52{fill:url(#SVGID_25_);}
	.st53{filter:url(#Adobe_OpacityMaskFilter_8_);}
	.st54{opacity:0.75;mask:url(#SVGID_26_);}
	.st55{fill:url(#SVGID_27_);}
	.st56{filter:url(#Adobe_OpacityMaskFilter_9_);}
	.st57{opacity:0.75;mask:url(#SVGID_28_);}
	.st58{fill:url(#SVGID_29_);}
	.st59{filter:url(#Adobe_OpacityMaskFilter_10_);}
	.st60{opacity:0.75;mask:url(#SVGID_30_);}
	.st61{fill:url(#SVGID_31_);}
	.st62{filter:url(#Adobe_OpacityMaskFilter_11_);}
	.st63{opacity:0.75;mask:url(#SVGID_32_);}
	.st64{fill:url(#SVGID_33_);}
	.st65{fill:url(#SVGID_34_);}
	.st66{filter:url(#Adobe_OpacityMaskFilter_12_);}
	.st67{opacity:0.75;mask:url(#SVGID_35_);}
	.st68{fill:url(#SVGID_36_);}
	.st69{fill:url(#SVGID_37_);}
	.st70{filter:url(#Adobe_OpacityMaskFilter_13_);}
	.st71{opacity:0.75;mask:url(#SVGID_38_);}
	.st72{stroke:#FFFFFF;stroke-width:0.75;stroke-miterlimit:10;}
	.st73{fill:#6F7375;}
	.st74{fill:#6D6E71;}
	.st75{fill:none;stroke:#414042;stroke-width:3;stroke-linecap:round;stroke-linejoin:round;}
	.st76{fill:#2E2E3A;}
	.st77{fill:#1169B4;}
	.st78{fill:#73BF44;}
	.st79{fill:#D72252;}
	.st80{fill:#A9489B;}
	.st81{fill:#0C8BCC;}
	.st82{fill:#EBE728;}
</style>
<linearGradient id="SVGID_1_" gradientUnits="userSpaceOnUse" x1="-489.8315" y1="2225.9177" x2="-489.1244" y2="2225.2107">
	<stop  offset="0" style="stop-color:#20AC4B"/>
	<stop  offset="0.9831" style="stop-color:#19361A"/>
</linearGradient>
<g>
	<g>
		<path class="st18" d="M17.88,56.46c-0.24,1.78-0.48,3.45-0.48,4.99c0,12.36,8.68,20.68,18.06,20.68c5.94,0,10.58-2.38,15.09-7.73
			l1.31,1.43c-4.99,6.3-12.48,12.24-21.15,12.24c-11.65,0-20.68-10.58-20.68-24.36c0-12.6,8.44-25.43,22.94-25.43
			c16.04,0,15.69,11.53,19.61,15.45v2.73H17.88z M42.6,53.37c-1.31-7.72-6.06-12.83-11.77-12.83c-3.92,0-9.86,1.78-12.6,12.83H42.6z
			"/>
		<path class="st18" d="M105.24,75.72c-4.99,7.96-11.53,12.36-21.04,12.36c-14.26,0-19.97-13.55-19.97-22.94
			c0-14.86,12.24-26.86,27.33-26.86c7.49,0,13.31,2.97,13.31,6.77c0,2.02-1.55,3.56-3.45,3.56c-5.82,0-7.25-7.25-13.91-7.25
			c-8.2,0-15.33,9.75-15.33,21.15c0,11.88,7.13,20.68,16.76,20.68c5.7,0,10.22-2.61,14.5-8.56L105.24,75.72z"/>
		<path class="st18" d="M128.54,77.26c0,5.59,1.55,7.13,7.72,7.13v2.26h-23.77v-2.26c6.54-0.36,8.08-2.61,8.08-9.15V18.32
			c0-2.62-0.48-3.57-2.97-3.92l-5.11-0.71v-2.02l14.14-4.87h1.9v38.98c7.84-4.63,13.55-7.49,19.61-7.49
			c9.15,0,13.19,5.7,13.19,17.71c0,10.81-0.24,17.47-0.59,23.89c0.24,3.21,2.02,4.52,9.03,4.52v2.26h-25.67v-2.26
			c3.09,0,5.35-0.59,6.66-1.9c2.14-2.14,2.61-7.25,2.61-24.96c0-12.72-6.89-14.38-10.82-14.38c-3.92,0-8.2,1.9-14.02,5.59V77.26z"/>
		<path class="st18" d="M251.68,77.03c0,6.18,1.66,7.37,8.32,7.37v2.26h-24.72v-2.26c6.89,0,8.44-3.09,8.44-9.15V51.95
			c0-4.64-0.71-5.7-3.45-6.06l-4.64-0.59v-2.02l14.26-4.99h1.78v9.51c8.56-6.06,16.4-9.51,21.16-9.51c5.82,0,10.1,3.68,11.29,9.51
			c7.96-4.99,15.21-9.51,21.04-9.51c8.56,0,11.88,6.54,11.88,17.95c0,7.61,0,15.57-0.36,22.82c0,2.5,1.43,5.35,6.3,5.35h3.8v2.26
			h-26.74v-2.26h1.07c3.45,0,4.99-0.59,6.06-1.66c1.78-1.78,1.9-8.68,1.9-16.88v-9.27c0-9.15-3.09-13.55-8.91-13.55
			c-3.68,0-8.44,1.78-15.81,6.66v27.34c0,5.94,1.43,7.37,7.37,7.37v2.26h-24.36v-2.26c6.66,0,9.03-2.38,9.03-9.15V53.26
			c0-7.49-4.63-10.22-8.79-10.22c-3.33,0-7.84,1.55-15.93,6.89V77.03z"/>
		<path class="st18" d="M360.79,39.59l-1.9,5.23h-15.09v27.69c0,7.49,5.35,9.98,7.84,9.98c2.61,0,4.99-2.02,7.25-5.94l1.9,1.78
			c-2.85,6.18-7.49,9.75-12.95,9.75c-7.01,0-12-5.82-12-13.79V44.82h-5.47v-1.9c4.64-2.26,8.68-7.73,11.41-15.09h2.02v11.77H360.79z
			"/>
		<path class="st18" d="M422.47,49.33c-1.78-0.12-7.37-0.59-11.88-1.43c0.71,1.31,2.02,3.8,2.02,7.61c0,8.79-7.61,17.23-20.8,17.23
			c-2.26,0-3.33-0.24-5.47-0.95c-1.9,2.02-7.25,3.33-7.25,6.06c0,2.97,5.11,4.16,17,4.28c13.43,0.12,18.06,0.71,21.63,4.28
			c2.85,2.85,3.57,5.82,3.57,8.32c0,7.73-10.46,19.61-32.45,19.61c-12.36,0-18.3-5.47-18.3-11.29c0-6.89,7.25-7.96,12.72-14.62
			c-6.42-0.59-11.29-4.64-11.29-8.44c0-5.47,7.96-5.7,12.12-8.79c-7.25-2.85-11.41-7.96-11.41-14.74c0-10.22,9.15-18.18,20.92-18.18
			c5.47,0,10.1,1.66,13.31,4.75c5.35,0,10.34-0.59,15.57-1.19V49.33z M395.5,111.02c10.1,0,19.61-6.66,19.61-14.14
			c0-4.4-3.68-6.66-7.96-7.01c-3.09-0.36-18.06-0.47-21.51-0.95c-3.33,3.92-7.72,5.58-7.72,10.22
			C377.91,104.72,385.75,111.02,395.5,111.02z M392.17,40.54c-4.52,0-11.53,2.49-11.53,13.55c0,7.01,3.57,16.4,12.6,16.4
			c6.89,0,11.41-5.7,11.41-13.9C404.65,46.36,399.42,40.54,392.17,40.54z"/>
	</g>
	<g>
		<path class="st12" d="M214.09,44.71c11.56,1.34,22.03,18.79,16.75,30.96c0.62-7.28-1.26-14.16-6.99-19.48
			c-2.36-2.19-7.57-4.14-10.38-7.6C212.39,47.26,212.12,44.74,214.09,44.71z"/>
	</g>
	<g>
		<path class="st13" d="M189.09,44.75c5.68-10.16,25.8-13.13,35.02-3.58c-6.48-3.37-13.56-4.27-20.67-1.02
			c-2.93,1.34-6.73,5.4-11,6.67C190.8,47.3,188.36,46.58,189.09,44.75z"/>
	</g>
	<g>
		<path class="st73" d="M179.62,69.79c-8.03-8.43-4.9-28.53,6.95-34.51c-5.13,5.19-8.1,11.69-7.1,19.45
			c0.41,3.2,3.17,8.02,3.11,12.48C182.57,68.91,181.16,71.03,179.62,69.79z"/>
	</g>
	<g>
		<path class="st15" d="M203.8,86.06c-10.04,5.9-28.9-1.71-32.03-14.61c3.89,6.18,9.54,10.54,17.32,11.33
			c3.21,0.33,8.53-1.26,12.86-0.19C203.61,82.99,205.36,84.85,203.8,86.06z"/>
	</g>
	<g>
		<path class="st17" d="M224.04,67.98c2.89,11.28-9.64,27.29-22.9,26.73c7.02-2.03,12.77-6.25,15.68-13.51
			c1.2-2.99,1.15-8.55,3.37-12.41C221.05,67.31,223.31,66.15,224.04,67.98z"/>
	</g>
</g>
</svg>
