<?xml version="1.0" encoding="UTF-8"?>
<!DOCTYPE svg PUBLIC "-//W3C//DTD SVG 1.1//EN" "http://www.w3.org/Graphics/SVG/1.1/DTD/svg11.dtd">
<svg version="1.1" xmlns="http://www.w3.org/2000/svg" xmlns:xlink="http://www.w3.org/1999/xlink" x="0" y="0" width="200" height="70" viewBox="0, 0, 200, 70">
  <g id="Background">
    <rect x="0" y="0" width="200" height="70" fill="#000000" fill-opacity="0"/>
  </g>
  <g id="Layer_1">
    <path d="M12.845,44.843 L13.182,45.146 z M13.651,45.558 L13.273,45.226 z" fill="#626161"/>
    <path d="M12.896,68.994 L12.93,69.034 L12.93,69.034 z" fill="#626161"/>
    <g>
      <path d="M49.199,31.01 L43.317,29.375 L43.317,29.015 C43.314,28.345 42.77,27.803 42.1,27.803 L30.41,27.803 C29.741,27.803 29.198,28.346 29.198,29.015 L29.198,29.381 L23.317,31.01 C23.006,31.096 22.743,31.301 22.584,31.581 C22.426,31.861 22.385,32.192 22.471,32.502 L27.204,49.582 C27.348,50.097 27.812,50.459 28.347,50.474 C28.457,50.472 28.566,50.457 28.673,50.428 L36.281,48.307 L43.843,50.399 C43.949,50.429 44.059,50.444 44.169,50.445 C44.37,50.443 44.568,50.388 44.741,50.285 C45.021,50.127 45.227,49.864 45.312,49.553 L50.045,32.473 C50.209,31.837 49.833,31.186 49.199,31.01 z M30.079,28.987 C30.079,28.803 30.227,28.655 30.41,28.655 L42.1,28.655 C42.284,28.655 42.434,28.803 42.437,28.987 L42.437,46.707 C42.434,46.891 42.284,47.038 42.1,47.038 L30.41,47.038 C30.227,47.038 30.079,46.89 30.079,46.707 L30.079,28.987 z M28.467,49.565 C28.38,49.588 28.287,49.576 28.21,49.53 C28.133,49.488 28.077,49.415 28.055,49.33 L23.322,32.239 C23.298,32.154 23.308,32.063 23.351,31.986 C23.394,31.908 23.466,31.851 23.551,31.828 L29.198,30.267 L29.198,46.712 C29.198,47.382 29.741,47.924 30.41,47.924 L34.332,47.924 z M49.199,32.239 L44.466,49.302 C44.444,49.388 44.386,49.461 44.306,49.502 C44.231,49.548 44.14,49.56 44.055,49.536 L38.19,47.907 L42.1,47.907 C42.77,47.907 43.314,47.365 43.317,46.695 L43.317,30.261 L48.965,31.828 C49.14,31.88 49.244,32.061 49.199,32.239 z" fill="#FFFFFF"/>
      <path d="M49.199,31.01 L43.317,29.375 L43.317,29.015 C43.314,28.345 42.77,27.803 42.1,27.803 L30.41,27.803 C29.741,27.803 29.198,28.346 29.198,29.015 L29.198,29.381 L23.317,31.01 C23.006,31.096 22.743,31.301 22.584,31.581 C22.426,31.861 22.385,32.192 22.471,32.502 L27.204,49.582 C27.348,50.097 27.812,50.459 28.347,50.474 C28.457,50.472 28.566,50.457 28.673,50.428 L36.281,48.307 L43.843,50.399 C43.949,50.429 44.059,50.444 44.169,50.445 C44.37,50.443 44.568,50.388 44.741,50.285 C45.021,50.127 45.227,49.864 45.312,49.553 L50.045,32.473 C50.209,31.837 49.833,31.186 49.199,31.01 z M30.079,28.987 C30.079,28.803 30.227,28.655 30.41,28.655 L42.1,28.655 C42.284,28.655 42.434,28.803 42.437,28.987 L42.437,46.707 C42.434,46.891 42.284,47.038 42.1,47.038 L30.41,47.038 C30.227,47.038 30.079,46.89 30.079,46.707 L30.079,28.987 z M28.467,49.565 C28.38,49.588 28.287,49.576 28.21,49.53 C28.133,49.488 28.077,49.415 28.055,49.33 L23.322,32.239 C23.298,32.154 23.308,32.063 23.351,31.986 C23.394,31.908 23.466,31.851 23.551,31.828 L29.198,30.267 L29.198,46.712 C29.198,47.382 29.741,47.924 30.41,47.924 L34.332,47.924 z M49.199,32.239 L44.466,49.302 C44.444,49.388 44.386,49.461 44.306,49.502 C44.231,49.548 44.14,49.56 44.055,49.536 L38.19,47.907 L42.1,47.907 C42.77,47.907 43.314,47.365 43.317,46.695 L43.317,30.261 L48.965,31.828 C49.14,31.88 49.244,32.061 49.199,32.239 z" fill-opacity="0" stroke="#C2BDBD" stroke-width="0.04" stroke-miterlimit="10"/>
    </g>
    <path d="M22.876,69.457 L56.413,69.457 L56.619,69.457 C57.058,69.427 57.487,69.312 57.882,69.12 L57.882,69.12 C58.231,68.948 58.548,68.718 58.82,68.44 C60.689,65.993 60.437,57.722 58.197,47.135 C55.138,49.771 51.817,52.389 48.319,54.932 C44.392,57.79 40.448,60.391 36.601,62.678 C32.238,65.343 27.645,67.612 22.876,69.457 z" fill="#EE7A11"/>
    <path d="M51.492,20.018 C53.052,23.756 54.521,27.74 55.859,31.879 C57.345,36.452 58.591,41.025 59.563,45.369 C60.743,50.349 61.475,55.424 61.752,60.534 L61.752,60.586 L72.161,28.724 L72.161,28.689 C72.179,28.639 72.194,28.587 72.207,28.535 L72.207,28.501 C72.31,28.045 72.328,27.574 72.258,27.112 C72.196,26.738 72.073,26.376 71.892,26.043 C71.793,25.896 71.68,25.758 71.555,25.631 C70.995,25.084 70.353,24.626 69.652,24.276 L69.326,24.111 C69.109,24.002 68.874,23.894 68.634,23.785 L68.32,23.648 L67.72,23.379 C66.411,22.88 65.075,22.454 63.718,22.104 L63.05,21.939 L62.404,21.779 L61.38,21.55 C60.997,21.464 60.603,21.384 60.203,21.304 L59.483,21.167 L58.339,20.961 L57.076,20.721 C56.202,20.584 55.293,20.452 54.367,20.332 L53.669,20.241 L52.235,20.075 z" fill="#EF8616"/>
    <path d="M14.451,69.103 C15.28,69.411 17.383,69.64 22.259,67.874 C26.503,66.244 30.601,64.257 34.509,61.935 C31.079,59.837 27.546,57.493 24.048,54.949 C20.133,52.091 16.446,49.165 13.09,46.221 L13.045,46.181 L12.553,45.741 L12.399,45.609 L12.016,45.266 L11.884,45.146 L11.387,44.695 L11.307,44.62 L10.895,44.243 L10.752,44.112 L10.375,43.763 L10.261,43.66 L9.798,43.22 L9.689,43.117 L9.323,42.768 L9.186,42.637 L8.809,42.271 L8.729,42.197 L8.272,41.762 L8.152,41.648 L7.843,41.299 L7.7,41.191 L7.288,40.779 L7.288,40.779 L6.877,40.356 L6.751,40.23 L6.448,39.916 L6.334,39.796 L6.059,39.504 L5.888,39.321 L5.556,38.967 L5.414,38.818 L5.122,38.504 L5.031,38.401 L4.67,38.001 L4.585,37.904 L4.31,37.589 L4.196,37.469 C4.105,37.355 4.007,37.252 3.916,37.144 L3.847,37.064 L3.516,36.675 L3.43,36.572 L3.184,36.275 L3.127,36.155 L2.841,35.806 L2.841,35.772 L2.538,35.394 L2.453,35.286 L2.355,35.154 L12.799,67.165 C13.085,68.019 13.703,68.722 14.514,69.114 z" fill="#E75412"/>
    <path d="M36.184,17.554 C39.893,17.554 43.552,17.68 47.044,17.926 C47.827,17.977 48.622,18.04 49.388,18.109 L50.211,18.183 L50.914,18.252 C51.411,18.297 51.914,18.355 52.406,18.406 L53.858,18.577 L54.573,18.669 C55.51,18.795 56.436,18.926 57.328,19.069 L58.642,19.286 L59.786,19.498 L60.523,19.641 L61.729,19.886 L62.775,20.127 L63.444,20.287 L64.136,20.464 C64.501,20.555 64.862,20.658 65.21,20.755 L38.241,1.109 L38.127,1.029 L38.127,1.029 L38.059,0.983 C37.92,0.895 37.777,0.815 37.63,0.743 L37.63,0.743 L37.55,0.709 L37.487,0.709 L37.304,0.64 L37.253,0.64 L37.03,0.577 L36.972,0.577 L36.91,0.577 L36.732,0.543 L36.504,0.543 L35.932,0.543 L35.732,0.543 L35.652,0.543 L35.652,0.543 L35.509,0.589 L35.463,0.589 L35.343,0.634 L35.303,0.634 L35.138,0.709 L35.138,0.709 L34.989,0.783 L34.932,0.812 L34.795,0.892 L34.749,0.892 L34.566,1.006 L34.52,1.006 L34.366,1.115 L34.309,1.155 L34.137,1.28 L34.103,1.309 L33.897,1.475 L33.846,1.52 L33.68,1.658 L33.623,1.715 C33.548,1.772 33.48,1.841 33.411,1.903 L33.411,1.903 L33.194,2.109 L33.131,2.172 L32.96,2.349 L32.851,2.429 C32.777,2.504 32.697,2.584 32.622,2.669 L32.588,2.704 L32.388,2.927 L32.279,3.001 C32.217,3.07 32.154,3.138 32.097,3.212 L32.039,3.275 L31.799,3.561 L31.742,3.63 L31.554,3.864 L31.479,3.956 L31.279,4.213 L31.233,4.276 L30.988,4.596 L30.919,4.687 L30.73,4.944 L30.53,5.225 L30.422,5.379 L30.422,5.379 L30.164,5.745 L30.084,5.859 L29.896,6.139 L29.822,6.248 C29.736,6.379 29.65,6.505 29.57,6.636 L29.524,6.699 L29.307,7.042 L29.227,7.168 L29.027,7.482 L28.958,7.591 L28.701,8.014 L28.638,8.117 L28.433,8.454 L28.347,8.597 C28.278,8.717 28.21,8.837 28.135,8.957 L28.084,9.054 C28.032,9.134 27.987,9.22 27.935,9.306 L27.678,9.752 C27.638,9.832 27.592,9.912 27.546,9.992 L27.461,10.14 L27.221,10.575 L27.221,10.626 C27.135,10.786 27.043,10.946 26.958,11.112 L26.872,11.266 C26.809,11.392 26.746,11.512 26.678,11.632 L26.598,11.792 C26.506,11.958 26.42,12.124 26.335,12.295 L26.289,12.387 C26.209,12.53 26.135,12.678 26.06,12.821 L25.975,12.998 L25.774,13.393 L25.694,13.542 C25.609,13.719 25.523,13.896 25.432,14.073 L25.363,14.216 C25.294,14.353 25.231,14.496 25.163,14.633 L25.071,14.822 L24.866,15.256 L24.797,15.394 C24.711,15.576 24.62,15.765 24.534,15.965 L24.454,16.137 L24.26,16.554 L24.168,16.754 C24.094,16.92 24.02,17.086 23.94,17.251 L23.9,17.343 L23.637,17.914 L23.591,18.023 L26.449,17.817 L29.141,17.674 L32.788,17.554 L32.8,18.435 L32.8,17.583 L33.514,17.583 L36.201,17.583 z" fill="#F3981E"/>
    <path d="M0.086,27.066 C0.086,27.1 0.086,27.14 0.086,27.18 L0.086,27.226 C0.089,27.268 0.089,27.31 0.086,27.352 L0.086,27.398 C0.086,27.455 0.086,27.512 0.086,27.575 L0.086,27.575 C0.086,27.626 0.086,27.683 0.086,27.735 L0.086,27.798 L0.12,27.952 L0.12,28.003 L0.172,28.221 L0.172,28.272 L0.223,28.449 L0.223,28.518 L0.292,28.712 L0.292,28.758 C0.326,28.838 0.355,28.924 0.389,29.004 L0.389,29.072 L0.475,29.267 L0.509,29.347 C0.543,29.427 0.578,29.507 0.618,29.587 L0.618,29.587 L0.755,29.867 L0.795,29.947 L0.903,30.158 L0.949,30.244 C1.001,30.341 1.052,30.439 1.109,30.536 L1.109,30.57 L1.264,30.833 L1.315,30.93 L1.458,31.164 L1.504,31.244 L1.704,31.553 L1.744,31.627 L1.915,31.885 L1.978,31.982 C2.035,32.073 2.098,32.159 2.155,32.245 L2.207,32.319 L2.435,32.651 L2.498,32.742 L2.687,32.999 L2.761,33.108 L2.99,33.411 L3.024,33.457 L3.287,33.811 L3.367,33.914 C3.441,34 3.51,34.091 3.579,34.183 L3.664,34.291 Q3.802,34.474 3.956,34.651 L3.956,34.686 L4.236,35.029 L4.327,35.143 L4.568,35.423 L4.842,35.583 L5.162,35.966 L5.231,36.04 L5.499,36.355 L5.608,36.475 L5.877,36.783 L5.957,36.875 L6.311,37.264 L6.402,37.366 L6.688,37.675 L6.803,37.795 C6.905,37.915 7.014,38.03 7.123,38.144 L7.3,38.327 C7.386,38.424 7.477,38.515 7.569,38.613 L7.677,38.727 L7.974,39.036 L8.094,39.161 L8.5,39.573 L8.5,39.573 L8.9,39.973 L9.026,40.099 L9.346,40.419 L9.466,40.539 L9.901,40.962 L9.975,41.031 L10.347,41.396 L10.484,41.522 L10.838,41.865 L10.947,41.968 L11.41,42.397 L11.518,42.5 L11.89,42.843 L12.033,42.98 L12.433,43.351 L12.519,43.426 L13.005,43.866 L13.102,43.952 L13.136,43.803 L13.216,43.477 C13.256,43.323 13.29,43.168 13.33,43.014 L13.422,42.62 L13.525,42.22 L13.61,41.871 C13.651,41.722 13.685,41.568 13.725,41.414 L13.816,41.065 L13.936,40.608 L14.028,40.247 L14.148,39.796 L14.245,39.424 C14.285,39.276 14.331,39.127 14.371,38.973 L14.474,38.601 C14.514,38.447 14.554,38.298 14.599,38.15 L14.702,37.772 L14.834,37.315 L14.937,36.943 L15.074,36.475 L15.182,36.103 L15.32,35.646 L15.434,35.263 C15.474,35.114 15.52,34.971 15.565,34.823 L15.703,34.44 C15.748,34.297 15.794,34.154 15.834,34.017 L15.966,33.594 C16.023,33.405 16.086,33.217 16.143,33.022 L16.234,32.736 L16.509,31.879 L16.989,30.439 L17.332,29.427 C17.555,28.764 17.8,28.066 18.052,27.357 L18.624,25.786 C18.698,25.574 18.778,25.363 18.858,25.145 L19.487,23.499 L19.692,22.962 L20.081,21.979 C20.138,21.83 20.201,21.681 20.264,21.527 L20.373,21.253 L20.55,20.818 L20.704,20.447 L20.847,20.092 L21.419,18.698 L21.682,18.097 L21.767,17.892 C21.836,17.749 21.899,17.6 21.962,17.457 L22.053,17.257 C22.139,17.057 22.23,16.857 22.316,16.685 L22.316,16.685 L22.351,16.611 C22.431,16.44 22.505,16.268 22.585,16.102 L22.676,15.902 L22.871,15.474 L22.956,15.296 C23.042,15.108 23.134,14.919 23.219,14.725 L23.288,14.582 C23.357,14.433 23.431,14.29 23.499,14.142 L23.591,13.947 L23.797,13.53 L23.871,13.381 C23.957,13.199 24.048,13.021 24.134,12.844 L24.214,12.684 C24.283,12.553 24.351,12.415 24.414,12.284 L24.505,12.107 C24.586,11.958 24.66,11.81 24.734,11.661 L24.786,11.569 C24.871,11.398 24.963,11.226 25.054,11.055 L25.14,10.895 L25.334,10.523 L25.42,10.363 C25.512,10.198 25.603,10.032 25.689,9.866 L25.723,9.809 L25.963,9.369 L26.055,9.214 C26.123,9.094 26.186,8.974 26.255,8.86 L26.335,8.723 C26.42,8.563 26.512,8.408 26.598,8.254 L26.678,8.145 C26.746,8.02 26.821,7.9 26.889,7.78 L26.981,7.631 L27.186,7.282 L27.249,7.179 L27.518,6.745 L27.592,6.631 C27.661,6.522 27.729,6.413 27.792,6.305 L27.878,6.168 C27.958,6.053 28.032,5.933 28.107,5.819 L28.152,5.75 C28.238,5.619 28.324,5.482 28.415,5.35 L28.49,5.236 L28.49,5.202 L20.007,11.364 L1.412,24.9 L1.275,25.002 L1.224,25.048 C1.194,25.07 1.167,25.095 1.144,25.122 L1.081,25.174 L1.001,25.248 L0.961,25.294 L0.961,25.294 L0.892,25.368 L0.841,25.425 C0.821,25.453 0.8,25.48 0.778,25.505 L0.732,25.563 L0.669,25.643 L0.629,25.706 L0.572,25.791 L0.532,25.854 L0.48,25.934 L0.423,26.043 L0.372,26.14 L0.372,26.191 C0.372,26.191 0.372,26.254 0.326,26.283 L0.326,26.334 C0.304,26.367 0.285,26.401 0.269,26.437 L0.269,26.494 C0.269,26.494 0.269,26.552 0.269,26.586 L0.269,26.643 C0.267,26.673 0.267,26.704 0.269,26.734 L0.269,26.786 C0.269,26.832 0.269,26.866 0.269,26.894 L0.269,26.952 C0.202,26.979 0.14,27.017 0.086,27.066 z" fill="#F7A808"/>
    <path d="M87.574,47.181 L83.464,47.181 L83.464,45.906 L93.073,45.906 L93.073,47.181 L88.969,47.181 L88.969,58.139 L87.574,58.139 z" fill="#ED7A05"/>
    <path d="M100.904,45.906 L106.163,45.906 C107.438,45.84 108.687,46.279 109.639,47.13 C110.253,47.78 110.584,48.648 110.559,49.542 L110.559,49.576 C110.559,51.605 109.158,52.794 107.238,53.143 L110.993,58.139 L109.278,58.139 L105.729,53.383 L102.236,53.383 L102.236,58.139 L100.859,58.139 z M106.049,52.143 C107.884,52.143 109.193,51.2 109.193,49.628 L109.193,49.593 C109.193,48.09 108.049,47.181 106.066,47.181 L102.293,47.181 L102.293,52.16 z" fill="#ED7A05"/>
    <path d="M123.3,45.821 L124.592,45.821 L130.165,58.139 L128.679,58.139 L127.25,54.904 L120.591,54.904 L119.133,58.139 L117.716,58.139 z M126.73,53.646 L123.952,47.427 L121.134,53.646 z" fill="#ED7A05"/>
    <path d="M137.819,45.906 L142.066,45.906 C145.908,45.906 148.566,48.547 148.566,51.988 L148.566,52.023 C148.566,55.452 145.908,58.139 142.066,58.139 L137.819,58.139 z M139.197,47.181 L139.197,56.864 L142.055,56.864 C145.147,56.864 147.119,54.766 147.119,52.057 L147.119,52.023 C147.119,49.313 145.147,47.181 142.055,47.181 z" fill="#ED7A05"/>
    <path d="M156.723,45.906 L165.566,45.906 L165.566,47.164 L158.1,47.164 L158.1,51.343 L164.777,51.343 L164.777,52.6 L158.1,52.6 L158.1,56.881 L165.651,56.881 L165.651,58.139 L156.723,58.139 z" fill="#ED7A05"/>
    <path d="M173.671,45.906 L178.93,45.906 C180.205,45.838 181.454,46.278 182.405,47.13 C183.028,47.777 183.367,48.644 183.349,49.542 L183.349,49.576 C183.349,51.605 181.954,52.794 180.027,53.143 L183.783,58.139 L182.068,58.139 L178.524,53.383 L175.026,53.383 L175.026,58.139 L173.648,58.139 z M178.816,52.143 C180.65,52.143 181.965,51.2 181.965,49.628 L181.965,49.593 C181.965,48.09 180.822,47.181 178.833,47.181 L175.06,47.181 L175.06,52.16 z" fill="#ED7A05"/>
    <path d="M190.739,56.356 L191.597,55.344 C192.706,56.456 194.216,57.074 195.787,57.059 C197.433,57.059 198.513,56.19 198.513,54.984 L198.513,54.949 C198.513,53.806 197.902,53.166 195.335,52.623 C192.523,52.011 191.225,51.102 191.225,49.096 L191.225,49.056 C191.225,47.135 192.94,45.724 195.227,45.724 C196.796,45.677 198.327,46.212 199.525,47.227 L198.725,48.29 C197.746,47.436 196.491,46.965 195.192,46.964 C193.603,46.964 192.592,47.838 192.592,48.936 L192.592,48.97 C192.592,50.114 193.22,50.771 195.913,51.348 C198.605,51.926 199.914,52.937 199.914,54.806 L199.914,54.841 C199.914,56.939 198.165,58.299 195.735,58.299 C193.881,58.322 192.09,57.626 190.739,56.356 z" fill="#ED7A05"/>
    <path d="M83.464,17.966 L91.541,17.966 L96.503,26.106 L101.47,17.966 L109.541,17.966 L109.541,41.133 L101.83,41.133 L101.83,29.65 L96.503,37.87 L96.371,37.87 L91.044,29.633 L91.044,41.133 L83.464,41.133 z" fill="#B3B3B3"/>
    <path d="M123.575,17.8 L131.251,17.8 L141.015,41.133 L132.606,41.133 L131.383,38.018 L123.277,38.018 L122.083,41.133 L113.811,41.133 z M129.462,32.525 L127.347,26.9 L125.227,32.525 z" fill="#B3B3B3"/>
    <path d="M145.279,17.966 L152.527,17.966 L160.77,28.192 L160.77,17.966 L168.446,17.966 L168.446,41.133 L161.587,41.133 L152.961,30.439 L152.961,41.128 L145.279,41.128 z" fill="#B3B3B3"/>
    <path d="M182.48,17.8 L190.156,17.8 L199.914,41.133 L191.511,41.133 L190.288,38.018 L182.177,38.018 L180.988,41.133 L172.716,41.133 z M188.367,32.525 L186.252,26.9 L184.132,32.525 z" fill="#B3B3B3"/>
  </g>
</svg>
