<svg xmlns="http://www.w3.org/2000/svg" version="1.0" width="80" viewBox="0 0 5000 3500" fill="#97d1fb"><g><path d="M1950 3374c-177-47-300-179-361-384-20-69-22-105-29-465-9-431-13-464-73-532-40-45-94-70-174-79l-63-7v-424l64-5c83-7 150-39 182-88 52-78 56-107 64-530 8-435 10-450 76-588 23-47 55-93 92-130C1828 41 1936 0 2097 0h93v377l-51 6c-87 11-147 66-181 169-6 19-14 183-18 393-9 385-16 445-64 552-14 30-39 72-56 93-34 43-110 95-155 106l-29 7 37 13c84 29 164 109 206 206 47 109 54 176 61 548 4 197 11 369 17 386 32 95 73 131 168 147l65 11v376l-92-1c-51 0-118-7-148-15zM105 3168.756zM2720 3202v-188l65-11c95-16 136-52 168-147 6-17 13-189 17-386 7-372 14-439 61-548 42-97 122-177 206-206l37-13-29-7c-45-11-121-63-155-106-17-21-42-63-56-93-48-107-55-167-64-552-4-210-12-374-18-393-34-103-94-158-181-169l-51-6V0h93c161 0 269 41 369 142 37 37 69 83 92 130 66 138 68 153 76 588 8 423 12 452 64 530 32 49 99 81 182 88l64 5v424l-62 7c-81 9-135 34-175 79-60 68-64 101-73 532-7 360-9 396-29 465-34 115-85 202-156 269-100 93-203 131-357 131h-88v-188z"/><path d="M690 1690V350h570v330H980v2030h280v320H690V1690zM3650 2870v-160h280V680h-280V350h570v2680h-570v-160zM321 2496l-105-71-107-342L1 1741l108-395c59-218 110-398 112-400s49-33 104-70l100-66 3 440c1 242 1 637 0 879l-3 439-104-72zM4480 1689V808l29 19c187 120 181 115 196 168 8 28 57 207 109 398l95 348-108 342-107 342-107 73-107 73v-882z"/></g></svg>