<?xml version="1.0" encoding="UTF-8" standalone="no"?>
<!DOCTYPE svg PUBLIC "-//W3C//DTD SVG 1.1//EN" "http://www.w3.org/Graphics/SVG/1.1/DTD/svg11.dtd">
<svg x="0" y="0" width="550" height="550" viewBox="0 0 550 550" version="1.1" xmlns="http://www.w3.org/2000/svg" xmlns:xlink="http://www.w3.org/1999/xlink">

<defs>
<path id="questionmark" d="M431,-17c0,0,-45,0,-79,29c0,0,-34,29,-34,82c0,0,0,47,33,79c0,0,33,32,80,32c0,0,47,0,80,-32c0,0,32,-32,32,-79c0,0,0,-52,-34,-82c0,0,-34,-29,-78,-29Zm-8,290c0,0,-39,0,-65,26c0,0,-27,25,-27,75c0,0,0,63,20,109c0,0,19,46,51,80c0,0,32,35,87,83c0,0,47,42,69,63c0,0,21,21,36,48c0,0,14,26,14,56c0,0,0,60,-44,101c0,0,-45,41,-115,41c0,0,-82,0,-121,-41c0,0,-38,-42,-65,-123c0,0,-26,-84,-96,-84c0,0,-42,0,-71,30c0,0,-29,29,-29,64c0,0,0,71,46,143c0,0,45,73,133,121c0,0,87,48,203,48c0,0,108,0,191,-40c0,0,83,-40,128,-109c0,0,46,-69,46,-149c0,0,0,-64,-26,-112c0,0,-26,-47,-61,-82c0,0,-36,-35,-128,-117c0,0,-25,-23,-40,-41c0,0,-16,-17,-23,-32c0,0,-8,-14,-12,-29c0,0,-4,-14,-12,-51c0,0,-14,-78,-89,-78Z" transform="scale(0.001,-0.001)"/>
</defs>

<path d="M76.6,120.1l130.6,-35C223.3,80.8,231.5,78.6,241,79c10.5,.9,20,6.4,26,15c5.1,8,7.3,16.2,11.7,32.7l68.8,256.7c4.3,16.1,6.5,24.3,6.1,33.8c-.9,10.5,-6.4,20,-15,26c-8,5.1,-16.2,7.3,-32.6,11.7L175.7,489.8c-16.2,4.4,-24.4,6.6,-33.8,6.1c-10.5,-.9,-20,-6.4,-26.1,-15c-5.1,-8,-7.3,-16.2,-11.7,-32.6L35.3,191.6C31,175.4,28.8,167.2,29.2,157.8c1,-10.5,6.5,-20,15.1,-26.1c8,-5.1,16.2,-7.3,32.6,-11.7Z" fill="#D3D3D3"/>

<path d="M207.4,96.1H342.6c16.7,0,25.2,0,34.2,2.8c9.9,3.6,17.7,11.4,21.3,21.3c2.9,9,2.9,17.5,2.9,34.5V420.5c0,16.7,0,25.2,-2.9,34.3c-3.6,9.8,-11.4,17.6,-21.3,21.2c-9,2.9,-17.5,2.9,-34.5,2.9H207.4c-16.7,0,-25.2,0,-34.2,-2.9c-9.9,-3.6,-17.7,-11.4,-21.3,-21.2C149,445.7,149,437.2,149,420.2V154.5c0,-16.8,0,-25.3,2.9,-34.3c3.6,-9.9,11.4,-17.7,21.3,-21.3c9,-2.8,17.5,-2.8,34.5,-2.8Z" fill="#808080"/>

<path d="M341.5,85.1l130.6,35c16.1,4.3,24.3,6.5,32.3,11.6c8.6,6.1,14.1,15.6,15,26.1c.5,9.4,-1.7,17.6,-6.1,34L444.5,448.6c-4.3,16.1,-6.5,24.3,-11.6,32.3c-6.1,8.6,-15.6,14.1,-26.1,15c-9.4,.5,-17.7,-1.7,-34.1,-6.1L242.5,454.9c-16.2,-4.4,-24.4,-6.6,-32.4,-11.7c-8.6,-6,-14.1,-15.5,-15,-26c-.5,-9.5,1.7,-17.7,6.1,-34.1L270,126.4C274.4,110.2,276.6,102,281.7,94c6,-8.6,15.5,-14.1,26,-15c9.5,-.4,17.7,1.8,34.1,6.2Z" fill="#282828"/>

<use xlink:href="#questionmark" transform="matrix(227,60.8,-60.8,227,223.2,371.6)" fill="#FFFFFF"/>

</svg>