<svg width="238" height="38" viewBox="0 0 238 38" fill="none" xmlns="http://www.w3.org/2000/svg">
<path d="M12.0588 8.49174L20.5506 0L29.0423 8.49174H23.94V23.6106C23.94 26.2706 23.332 28.2086 22.116 29.4246C20.9253 30.6152 19 31.2106 16.34 31.2106H7.60001C4.94 31.2106 3.002 30.6152 1.786 29.4246C0.595337 28.2086 0 26.2706 0 23.6106V4.23058H6.84V23.6106C6.84 25.1306 7.60001 25.8906 9.12 25.8906H14.82C16.34 25.8906 17.1 25.1306 17.1 23.6106V8.49174H12.0588Z" fill="white"/>
<path d="M39.33 15.8206C37.9873 15.8206 36.4673 16.0739 34.77 16.5806V30.8306H28.12V10.6906H34.01L34.39 12.5906C35.5807 11.8052 36.7967 11.2352 38.038 10.8806C39.3047 10.5006 40.3687 10.3106 41.23 10.3106H42.94C44.6627 10.3106 46.0433 10.8299 47.082 11.8686C48.1207 12.9072 48.64 14.2879 48.64 16.0106V30.8306H41.99V17.1506C41.99 16.7706 41.8633 16.4539 41.61 16.2006C41.3567 15.9473 41.04 15.8206 40.66 15.8206H39.33Z" fill="white"/>
<path d="M58.8956 31.2106C61.2516 31.2106 63.6582 31.0839 66.1155 30.8306V25.8906H61.1756C60.7955 25.8906 60.4789 25.7639 60.2256 25.5106C59.9722 25.2572 59.8456 24.9406 59.8456 24.5606V15.8206H64.5956V10.6906H59.8456V6.13057H53.9556L53.1956 10.6906H50.9155V15.8206H53.1956V25.5106C53.1956 27.2332 53.7149 28.6139 54.7535 29.6526C55.7922 30.6912 57.1729 31.2106 58.8956 31.2106Z" fill="white"/>
<path fill-rule="evenodd" clip-rule="evenodd" d="M68.9997 11.0706C73.6357 10.5639 77.8157 10.3106 81.5397 10.3106C83.2624 10.3106 84.643 10.8299 85.6817 11.8686C86.7204 12.9072 87.2397 14.2879 87.2397 16.0106V30.8306H81.3497L80.9697 28.9306C79.779 29.7159 78.5504 30.2986 77.2837 30.6786C76.0424 31.0332 74.991 31.2106 74.1297 31.2106H72.7997C71.077 31.2106 69.6964 30.6912 68.6577 29.6526C67.619 28.6139 67.0997 27.2332 67.0997 25.5106V23.8006C67.0997 22.0779 67.619 20.6973 68.6577 19.6586C69.6964 18.6199 71.077 18.1006 72.7997 18.1006H80.5897V16.5806C80.5897 16.2006 80.463 15.8839 80.2097 15.6306C79.9564 15.3772 79.6397 15.2506 79.2597 15.2506C77.613 15.2506 75.789 15.3266 73.7877 15.4786C71.8117 15.6306 70.2157 15.7446 68.9997 15.8206V11.0706ZM76.0297 25.8906C77.3724 25.8906 78.8924 25.6372 80.5897 25.1306V22.8506H75.0797C74.6997 22.8506 74.383 22.9772 74.1297 23.2306C73.8764 23.4839 73.7497 23.8006 73.7497 24.1806V24.5606C73.7497 24.9406 73.8764 25.2572 74.1297 25.5106C74.383 25.7639 74.6997 25.8906 75.0797 25.8906H76.0297Z" fill="white"/>
<path fill-rule="evenodd" clip-rule="evenodd" d="M97.2993 37.2906V30.8306H105.089C106.989 30.8306 108.471 30.2986 109.535 29.2346C110.625 28.1452 111.169 26.6506 111.169 24.7506V16.0106C111.169 14.2879 110.65 12.9072 109.611 11.8686C108.573 10.8299 107.192 10.3106 105.469 10.3106H103.759C102.898 10.3106 101.834 10.5006 100.567 10.8806C99.326 11.2352 98.11 11.8052 96.9193 12.5906L96.5393 10.6906H90.6493V37.2906H97.2993ZM97.2993 16.5806C98.9966 16.0739 100.517 15.8206 101.859 15.8206H103.189C103.569 15.8206 103.886 15.9473 104.139 16.2006C104.393 16.4539 104.519 16.7706 104.519 17.1506V24.1806C104.519 25.1939 104.013 25.7006 102.999 25.7006H97.2993V16.5806Z" fill="white"/>
<path fill-rule="evenodd" clip-rule="evenodd" d="M121.235 30.8306V37.2906H114.585V10.6906H120.475L120.855 12.5906C122.046 11.8052 123.262 11.2352 124.503 10.8806C125.77 10.5006 126.833 10.3106 127.695 10.3106H129.405C131.128 10.3106 132.508 10.8299 133.547 11.8686C134.586 12.9072 135.105 14.2879 135.105 16.0106V24.7506C135.105 26.6506 134.56 28.1452 133.471 29.2346C132.407 30.2986 130.925 30.8306 129.025 30.8306H121.235ZM125.795 15.8206C124.452 15.8206 122.932 16.0739 121.235 16.5806V25.7006H126.935C127.948 25.7006 128.455 25.1939 128.455 24.1806V17.1506C128.455 16.7706 128.328 16.4539 128.075 16.2006C127.822 15.9473 127.505 15.8206 127.125 15.8206H125.795Z" fill="white"/>
<path fill-rule="evenodd" clip-rule="evenodd" d="M143.84 31.2106C147.818 31.2106 152.251 30.9572 157.14 30.4506V25.7006C152.302 26.0806 148.628 26.2706 146.12 26.2706C145.74 26.2706 145.424 26.1439 145.17 25.8906C144.917 25.6372 144.79 25.3206 144.79 24.9406V23.4206H157.9V16.3906C157.9 14.4906 157.356 13.0086 156.266 11.9446C155.202 10.8552 153.72 10.3106 151.82 10.3106H144.22C142.32 10.3106 140.826 10.8552 139.736 11.9446C138.672 13.0086 138.14 14.4906 138.14 16.3906V25.5106C138.14 27.2332 138.66 28.6139 139.698 29.6526C140.737 30.6912 142.118 31.2106 143.84 31.2106ZM144.79 16.5806C144.79 15.5672 145.297 15.0606 146.31 15.0606H149.73C150.744 15.0606 151.25 15.5672 151.25 16.5806V18.6706H144.79V16.5806Z" fill="white"/>
<path fill-rule="evenodd" clip-rule="evenodd" d="M175.556 30.8306L175.176 28.9306C173.985 29.7159 172.756 30.2986 171.49 30.6786C170.248 31.0332 169.197 31.2106 168.336 31.2106H166.626C164.903 31.2106 163.522 30.6912 162.484 29.6526C161.445 28.6139 160.926 27.2332 160.926 25.5106V16.7706C160.926 14.8706 161.458 13.3886 162.522 12.3246C163.611 11.2352 165.106 10.6906 167.006 10.6906H174.796V4.23058H181.446V30.8306H175.556ZM170.236 25.7006C171.578 25.7006 173.098 25.4473 174.796 24.9406V15.8206H169.096C168.082 15.8206 167.576 16.3272 167.576 17.3406V24.3706C167.576 24.7506 167.702 25.0672 167.956 25.3206C168.209 25.5739 168.526 25.7006 168.906 25.7006H170.236Z" fill="white"/>
<path d="M191.321 25.1306H184.481V30.8306H191.321V25.1306Z" fill="white"/>
<path fill-rule="evenodd" clip-rule="evenodd" d="M207.48 29.3106C205.023 29.8172 202.869 30.0706 201.02 30.0706H199.69C197.967 30.0706 196.587 29.5512 195.548 28.5126C194.509 27.4739 193.99 26.0932 193.99 24.3706V16.7706C193.99 14.8706 194.522 13.3886 195.586 12.3246C196.675 11.2352 198.17 10.6906 200.07 10.6906H214.13V31.9706C214.13 33.6932 213.611 35.0739 212.572 36.1126C211.533 37.1512 210.153 37.6706 208.43 37.6706C204.453 37.6706 200.019 37.4173 195.13 36.9106V31.9706C199.969 32.3506 203.642 32.5406 206.15 32.5406C206.53 32.5406 206.847 32.4139 207.1 32.1606C207.353 31.9072 207.48 31.5906 207.48 31.2106V29.3106ZM202.92 24.9406C204.516 24.9406 206.036 24.8139 207.48 24.5606V15.8206H202.16C201.147 15.8206 200.64 16.3272 200.64 17.3406V23.6106C200.64 23.9906 200.767 24.3073 201.02 24.5606C201.273 24.8139 201.59 24.9406 201.97 24.9406H202.92Z" fill="white"/>
<path fill-rule="evenodd" clip-rule="evenodd" d="M224.584 30.0706C226.434 30.0706 228.587 29.8172 231.044 29.3106V31.2106C231.044 31.5906 230.918 31.9072 230.664 32.1606C230.411 32.4139 230.094 32.5406 229.714 32.5406C227.206 32.5406 223.533 32.3506 218.694 31.9706V36.9106C223.584 37.4173 228.017 37.6706 231.994 37.6706C233.717 37.6706 235.098 37.1512 236.136 36.1126C237.175 35.0739 237.694 33.6932 237.694 31.9706V10.6906H223.634C221.734 10.6906 220.24 11.2352 219.15 12.3246C218.086 13.3886 217.554 14.8706 217.554 16.7706V24.3706C217.554 26.0932 218.074 27.4739 219.112 28.5126C220.151 29.5512 221.532 30.0706 223.254 30.0706H224.584ZM231.044 24.5606C229.6 24.8139 228.08 24.9406 226.484 24.9406H225.534C225.154 24.9406 224.838 24.8139 224.584 24.5606C224.331 24.3073 224.204 23.9906 224.204 23.6106V17.3406C224.204 16.3272 224.711 15.8206 225.724 15.8206H231.044V24.5606Z" fill="white"/>
</svg>