<?xml version="1.0" encoding="UTF-8"?>
<!DOCTYPE svg PUBLIC "-//W3C//DTD SVG 1.1//EN" "http://www.w3.org/Graphics/SVG/1.1/DTD/svg11.dtd">
<svg version="1.1" xmlns="http://www.w3.org/2000/svg" xmlns:xlink="http://www.w3.org/1999/xlink" x="0" y="0" width="150" height="50" viewBox="0, 0, 150, 50">
  <g id="Background">
    <rect x="0" y="0" width="150" height="50" fill="#000000" fill-opacity="0"/>
  </g>
  <g id="Layer_1">
    <path d="M13.641,0.023 C13.823,-0.014 14.01,0.005 14.193,0.003 C23.392,0.004 32.591,0.002 41.789,0.004 C42.229,-0.017 42.622,0.269 42.832,0.64 C44.631,3.756 46.432,6.872 48.241,9.983 C50.68,14.202 53.117,18.422 55.569,22.633 C55.76,22.945 55.795,23.36 55.623,23.688 C51.559,30.716 47.486,37.74 43.423,44.768 C43.21,45.134 43.001,45.501 42.781,45.862 C42.581,46.182 42.23,46.428 41.844,46.432 C32.718,46.43 23.591,46.43 14.465,46.432 C14.21,46.426 13.954,46.447 13.701,46.426 C13.484,46.379 13.278,46.272 13.122,46.114 C12.887,45.89 12.775,45.577 12.599,45.312 C8.478,38.183 4.347,31.061 0.226,23.933 C0.152,23.8 0.074,23.668 0.02,23.524 C-0.007,23.321 -0.006,23.113 0.019,22.91 C0.13,22.616 0.308,22.354 0.463,22.082 C2.39,18.748 4.329,15.422 6.25,12.085 C8.43,8.317 10.623,4.556 12.791,0.78 C12.96,0.428 13.25,0.115 13.641,0.023 M18.98,2.356 C19.157,2.472 19.349,2.564 19.54,2.657 C22.872,4.363 26.243,5.99 29.577,7.691 C31.648,8.726 33.721,9.755 35.792,10.789 C36.035,10.907 36.268,11.048 36.524,11.136 C36.57,11.052 36.614,10.968 36.65,10.879 C37.414,8.966 38.182,7.053 38.941,5.137 C39.301,4.206 39.713,3.293 40.04,2.349 C39.703,2.264 39.354,2.313 39.011,2.301 C38.503,2.312 37.992,2.27 37.488,2.334 C36.853,2.334 36.217,2.339 35.582,2.332 C35.204,2.275 34.82,2.309 34.439,2.301 C34.004,2.308 33.566,2.276 33.134,2.335 C32.372,2.323 31.607,2.368 30.848,2.3 C30.14,2.315 29.429,2.266 28.725,2.336 C28.108,2.332 27.491,2.34 26.874,2.332 C26.513,2.277 26.148,2.308 25.786,2.301 C25.332,2.309 24.876,2.275 24.425,2.335 C23.663,2.322 22.898,2.369 22.14,2.3 C21.54,2.304 20.942,2.294 20.343,2.304 C19.892,2.377 19.432,2.298 18.98,2.356 M14.869,3.688 C14.815,3.966 14.811,4.248 14.771,4.527 C14.78,4.81 14.696,5.082 14.704,5.364 C14.625,6.059 14.59,6.758 14.515,7.453 C14.414,8.62 14.284,9.785 14.202,10.954 C14.141,11.191 14.182,11.44 14.129,11.678 C14.079,12.424 13.977,13.165 13.925,13.91 C13.878,14.129 13.915,14.356 13.863,14.574 C13.633,17.345 13.341,20.109 13.12,22.881 C13.054,23.152 13.092,23.436 13.032,23.709 C13.034,24.001 12.945,24.283 12.966,24.576 C13.062,24.556 13.159,24.532 13.245,24.483 C13.611,24.29 13.968,24.077 14.334,23.882 C15.363,23.34 16.373,22.763 17.398,22.212 C19.338,21.156 21.278,20.101 23.218,19.044 C27.002,16.962 30.808,14.917 34.59,12.832 C34.543,12.759 34.468,12.716 34.393,12.681 C33.033,12.013 31.678,11.334 30.326,10.651 C26.017,8.504 21.715,6.344 17.407,4.196 C16.589,3.782 15.77,3.368 14.942,2.977 C14.879,3.21 14.875,3.449 14.869,3.688 M41.966,3.846 C41.578,4.751 41.23,5.672 40.865,6.586 C40.121,8.438 39.384,10.292 38.635,12.143 C38.582,12.226 38.615,12.319 38.707,12.354 C41.575,14.075 44.445,15.793 47.314,17.512 C48.392,18.155 49.458,18.817 50.542,19.449 C50.776,19.595 51.006,19.749 51.259,19.863 C51.183,19.694 51.098,19.531 50.999,19.376 C48.478,15.037 45.972,10.688 43.454,6.347 C42.989,5.552 42.523,4.757 42.073,3.953 C42.045,3.91 42.006,3.876 41.966,3.846 M11.877,7.001 C11.509,7.632 11.149,8.267 10.775,8.894 C8.19,13.381 5.585,17.855 2.995,22.339 C2.951,22.412 2.918,22.491 2.896,22.574 C3.68,22.833 4.465,23.091 5.247,23.359 C7.016,23.932 8.77,24.555 10.545,25.108 C10.677,24.62 10.627,24.107 10.717,23.613 C10.886,21.786 11.029,19.959 11.219,18.134 C11.215,17.811 11.303,17.497 11.292,17.173 C11.341,16.903 11.319,16.626 11.381,16.358 C11.408,15.611 11.537,14.875 11.565,14.128 C11.626,13.9 11.594,13.662 11.634,13.431 C11.841,11.397 11.991,9.359 12.2,7.324 C12.188,7.031 12.294,6.748 12.257,6.453 C12.072,6.589 11.99,6.81 11.877,7.001 M35.786,14.818 C35.312,15.096 34.819,15.343 34.339,15.611 C33.402,16.117 32.48,16.651 31.535,17.143 C30.563,17.681 29.591,18.218 28.609,18.738 C27.64,19.277 26.664,19.803 25.688,20.33 C24.718,20.866 23.746,21.398 22.77,21.924 C21.787,22.473 20.797,23.01 19.805,23.54 C18.962,24.024 18.097,24.468 17.246,24.936 C16.207,25.504 15.167,26.071 14.13,26.642 C14.18,26.717 14.245,26.782 14.329,26.82 C15.929,27.64 17.516,28.482 19.115,29.304 C23.045,31.369 26.988,33.41 30.923,35.465 C32.798,36.461 34.687,37.432 36.57,38.413 C36.716,38.492 36.86,38.585 37.027,38.614 C37.029,38.216 37.026,37.818 37.014,37.421 C36.923,36.834 37.026,36.234 36.923,35.649 C36.906,35.316 36.926,34.982 36.899,34.65 C36.818,34.182 36.912,33.7 36.818,33.233 C36.794,32.797 36.812,32.36 36.793,31.925 C36.727,31.51 36.771,31.089 36.741,30.673 C36.673,30.332 36.705,29.982 36.692,29.637 C36.697,29.455 36.645,29.278 36.649,29.097 C36.64,28.824 36.664,28.549 36.604,28.281 C36.581,27.776 36.603,27.269 36.571,26.764 C36.502,26.366 36.581,25.956 36.495,25.561 C36.458,25.071 36.512,24.576 36.439,24.089 C36.406,23.537 36.464,22.979 36.376,22.432 C36.356,22.092 36.392,21.748 36.333,21.412 C36.293,20.999 36.355,20.579 36.274,20.17 C36.251,19.761 36.267,19.351 36.252,18.943 C36.184,18.502 36.226,18.055 36.198,17.612 C36.117,17.217 36.175,16.812 36.136,16.414 C36.05,15.857 36.164,15.284 36.035,14.733 C35.947,14.746 35.861,14.77 35.786,14.818 M38.399,15.326 C38.482,15.83 38.39,16.347 38.484,16.85 C38.513,17.212 38.472,17.578 38.529,17.938 C38.576,18.504 38.509,19.078 38.599,19.64 C38.618,20.024 38.583,20.412 38.642,20.794 C38.675,21.165 38.623,21.542 38.701,21.909 C38.733,22.344 38.684,22.784 38.753,23.217 C38.774,23.689 38.755,24.163 38.78,24.636 C38.868,25.047 38.783,25.472 38.858,25.884 C38.901,26.36 38.837,26.843 38.924,27.315 C38.95,27.745 38.905,28.179 38.97,28.606 C38.993,28.969 38.972,29.333 38.997,29.696 C39.085,30.144 38.999,30.606 39.08,31.055 C39.098,31.42 39.086,31.786 39.099,32.151 C39.196,32.706 39.105,33.274 39.19,33.831 C39.207,34.23 39.193,34.63 39.217,35.029 C39.299,35.422 39.231,35.826 39.279,36.222 C39.358,36.708 39.247,37.214 39.36,37.693 C39.421,37.675 39.492,37.67 39.534,37.614 C39.862,37.289 40.146,36.924 40.48,36.606 C44.556,32.231 48.647,27.871 52.713,23.485 C52.299,23.18 51.834,22.95 51.4,22.673 C47.09,20.075 42.766,17.498 38.453,14.902 C38.366,15.027 38.389,15.183 38.399,15.326 M3.764,25.353 C3.793,25.518 3.901,25.652 3.983,25.795 C4.375,26.443 4.747,27.103 5.12,27.762 C5.758,28.832 6.371,29.917 6.993,30.996 C7.556,31.93 8.077,32.887 8.633,33.825 C9.695,35.665 10.769,37.497 11.827,39.339 C11.867,39.405 11.92,39.458 11.987,39.5 C12.002,38.916 11.863,38.344 11.819,37.764 C11.659,36.672 11.551,35.576 11.398,34.484 C11.129,32.295 10.856,30.107 10.577,27.92 C10.559,27.801 10.596,27.659 10.497,27.567 C10.374,27.505 10.241,27.466 10.111,27.424 C8.064,26.759 6.028,26.059 3.985,25.383 C3.93,25.375 3.819,25.36 3.764,25.353 M13.144,29.752 C13.289,30.802 13.421,31.852 13.536,32.905 C13.653,33.753 13.759,34.601 13.855,35.452 C14.157,37.667 14.398,39.889 14.701,42.105 C14.719,42.473 14.815,42.832 14.824,43.202 C14.87,43.427 14.867,43.66 14.93,43.882 C15.357,43.861 15.77,43.723 16.192,43.657 C18.932,43.133 21.674,42.623 24.412,42.09 C26.067,41.8 27.71,41.447 29.364,41.155 C30.592,40.901 31.829,40.694 33.059,40.451 C33.622,40.349 34.178,40.204 34.749,40.15 C34.65,39.996 34.469,39.942 34.316,39.861 C31.135,38.195 27.95,36.534 24.764,34.875 C20.874,32.834 16.966,30.827 13.081,28.777 C13.025,29.105 13.123,29.427 13.144,29.752 M47.315,32.664 C46.262,33.805 45.203,34.942 44.137,36.07 C43.838,36.437 43.478,36.746 43.178,37.11 C42.781,37.518 42.411,37.949 42.01,38.351 C41.659,38.779 41.239,39.143 40.885,39.568 C40.528,39.932 40.18,40.306 39.837,40.684 C39.876,40.857 40.015,40.978 40.116,41.116 C40.557,41.692 40.988,42.275 41.423,42.855 C41.505,42.948 41.557,43.095 41.694,43.119 C42.429,41.872 43.138,40.611 43.869,39.361 C45.087,37.258 46.309,35.157 47.526,33.053 C47.763,32.625 48.045,32.217 48.224,31.76 C47.9,32.039 47.619,32.364 47.315,32.664 M37.721,41.917 C36.846,42.099 35.967,42.26 35.089,42.42 C32.591,42.903 30.091,43.379 27.59,43.851 C27.185,43.911 26.792,44.04 26.382,44.065 C26.674,44.08 26.962,44.148 27.255,44.136 C31.313,44.127 35.372,44.144 39.43,44.127 C39.327,43.882 39.138,43.691 38.986,43.477 C38.644,43.007 38.291,42.544 37.945,42.077 C37.881,42.015 37.825,41.897 37.721,41.917 z" fill="#FFFFFF" id="Screen_Shot_2022-07-05_at_9"/>
    <path d="M64.457,0.385 L64.457,0.268 L69.892,0.268 L73.616,8.026 L73.719,8.026 L75.951,3.615 Q76.509,2.487 76.509,1.76 Q76.509,0.515 75.004,0.385 L75.004,0.268 L80.919,0.268 L80.919,0.385 L79.298,1.151 L74.731,10.322 L74.731,15.706 Q74.731,16.329 74.874,16.835 Q75.017,17.341 75.237,17.652 Q75.458,17.963 75.776,18.203 Q76.094,18.443 76.372,18.56 Q76.651,18.677 76.989,18.768 L76.989,18.872 L68.491,18.872 L68.491,18.768 L70.749,17.86 L70.749,10.686 L66.065,1.151 z" fill="#FFFFFF"/>
    <path d="M79.998,17.289 Q78.117,15.434 78.117,12.229 Q78.117,9.025 80.005,7.176 Q81.892,5.328 84.85,5.328 Q87.795,5.328 89.683,7.176 Q91.57,9.025 91.57,12.229 Q91.57,15.434 89.683,17.282 Q87.795,19.131 84.85,19.131 Q81.892,19.131 79.998,17.289 z M82.904,8.013 Q82.243,9.246 82.243,12.229 Q82.243,15.213 82.904,16.446 Q83.566,17.678 84.85,17.678 Q85.694,17.678 86.245,17.198 Q86.796,16.718 87.121,15.486 Q87.445,14.253 87.445,12.229 Q87.445,10.206 87.121,8.973 Q86.796,7.741 86.245,7.261 Q85.694,6.781 84.85,6.781 Q83.566,6.781 82.904,8.013 z" fill="#FFFFFF"/>
    <path d="M92.621,5.691 L92.621,5.587 L97.94,5.587 L97.94,14.487 Q97.94,15.693 98.336,16.219 Q98.731,16.744 99.562,16.744 Q100.171,16.744 100.807,16.368 Q101.443,15.992 101.923,15.291 L101.923,8.325 Q101.923,7.066 101.637,6.541 Q101.352,6.015 100.457,5.691 L100.457,5.587 L105.776,5.587 L105.776,17.86 L107.242,18.768 L107.242,18.872 L101.923,18.872 L101.923,16.965 Q101.157,17.951 100.035,18.541 Q98.913,19.131 97.642,19.131 Q96.824,19.131 96.221,18.962 Q95.618,18.794 95.112,18.366 Q94.606,17.938 94.346,17.114 Q94.087,16.29 94.087,15.071 L94.087,6.599 z" fill="#FFFFFF"/>
    <path d="M108.292,18.872 L108.292,18.768 L109.758,17.86 L109.758,8.908 Q109.758,7.235 109.505,6.625 Q109.252,6.015 108.292,5.691 L108.292,5.587 L113.611,5.587 L113.611,7.793 Q115.311,5.328 118.787,5.328 L118.528,10.284 L118.411,10.284 Q118.009,9.311 117.373,8.779 Q116.738,8.247 115.946,8.247 Q114.545,8.247 113.611,9.466 L113.611,15.291 Q113.611,16.056 113.722,16.614 Q113.832,17.172 114,17.516 Q114.169,17.86 114.487,18.113 Q114.805,18.366 115.097,18.489 Q115.389,18.612 115.869,18.768 L115.869,18.872 z" fill="#FFFFFF"/>
    <path d="M65.91,26.195 L65.91,26.078 L73.33,26.078 Q76.444,26.078 78.286,27.44 Q80.128,28.802 80.128,31.371 Q80.128,32.694 79.577,33.784 Q79.025,34.874 78.104,35.555 Q77.183,36.236 76.048,36.605 Q74.913,36.975 73.694,36.975 L73.59,36.975 L71.358,35.535 L71.358,47.47 L71.255,47.47 Q70.684,46.627 69.633,45.829 Q68.582,45.031 67.376,44.681 L67.376,29.217 L70.671,29.217 L70.671,29.114 z M71.358,35.12 L72.578,35.12 Q75.873,35.12 75.873,31.527 Q75.873,29.658 75.004,28.802 Q74.135,27.946 72.15,27.946 L71.358,27.946 z" fill="#FFFFFF"/>
    <path d="M80.517,44.681 L80.517,44.577 L81.983,43.669 L81.983,34.718 Q81.983,33.044 81.73,32.435 Q81.477,31.825 80.517,31.501 L80.517,31.397 L85.836,31.397 L85.836,33.602 Q87.536,31.137 91.012,31.137 L90.753,36.093 L90.636,36.093 Q90.234,35.12 89.598,34.588 Q88.963,34.056 88.171,34.056 Q86.77,34.056 85.836,35.276 L85.836,41.101 Q85.836,41.866 85.946,42.424 Q86.057,42.982 86.225,43.325 Q86.394,43.669 86.712,43.922 Q87.03,44.175 87.322,44.298 Q87.613,44.422 88.093,44.577 L88.093,44.681 z" fill="#FFFFFF"/>
    <path d="M93.283,43.098 Q91.402,41.243 91.402,38.039 Q91.402,34.835 93.289,32.986 Q95.177,31.137 98.135,31.137 Q101.079,31.137 102.967,32.986 Q104.855,34.835 104.855,38.039 Q104.855,41.243 102.967,43.092 Q101.079,44.941 98.135,44.941 Q95.177,44.941 93.283,43.098 z M96.189,33.823 Q95.527,35.055 95.527,38.039 Q95.527,41.023 96.189,42.255 Q96.85,43.488 98.135,43.488 Q98.978,43.488 99.529,43.008 Q100.081,42.528 100.405,41.295 Q100.729,40.063 100.729,38.039 Q100.729,36.015 100.405,34.783 Q100.081,33.55 99.529,33.07 Q98.978,32.59 98.135,32.59 Q96.85,32.59 96.189,33.823 z" fill="#FFFFFF"/>
    <path d="M106.178,31.501 L106.178,31.397 L111.497,31.397 L111.497,40.218 Q111.497,44.668 110.29,47.003 Q109.084,49.338 106.736,50 L106.658,49.974 Q107.164,49.286 107.404,48.566 Q107.644,47.846 107.644,46.562 L107.644,34.718 Q107.644,32.979 107.371,32.402 Q107.099,31.825 106.178,31.501 z M106.969,27.622 L106.969,27.518 L109.525,25.014 L109.629,25.014 L112.184,27.518 L112.184,27.622 Q111.639,27.816 110.77,28.679 Q109.901,29.542 109.629,30.125 L109.525,30.125 Q109.252,29.542 108.383,28.679 Q107.514,27.816 106.969,27.622 z" fill="#FFFFFF"/>
    <path d="M114.273,38.298 Q114.273,36.651 114.792,35.282 Q115.311,33.914 116.212,33.018 Q117.114,32.123 118.314,31.63 Q119.514,31.137 120.889,31.137 Q123.367,31.137 124.865,32.649 Q126.364,34.16 126.364,36.625 L126.364,37.909 L120.046,37.909 L118.424,36.794 Q118.398,37.144 118.398,37.909 Q118.398,43.358 121.447,43.358 Q123.587,43.358 125.04,41.866 L125.858,42.631 Q124.119,44.941 120.889,44.941 Q117.879,44.941 116.076,43.189 Q114.273,41.438 114.273,38.298 z M118.45,36.443 L121.901,36.443 Q122.589,36.443 122.887,36.112 Q123.185,35.782 123.185,35.12 Q123.185,34.03 122.615,33.31 Q122.044,32.59 121.11,32.59 Q118.8,32.59 118.45,36.443 z" fill="#FFFFFF"/>
    <path d="M127.817,38.298 Q127.817,36.651 128.336,35.282 Q128.855,33.914 129.756,33.018 Q130.658,32.123 131.858,31.63 Q133.058,31.137 134.433,31.137 Q136.301,31.137 137.715,32 Q139.129,32.863 139.57,34.238 L135.899,36.495 L135.821,36.417 Q136.249,35.535 136.249,34.64 Q136.249,33.771 135.821,33.181 Q135.393,32.59 134.55,32.59 Q133.317,32.59 132.63,33.965 Q131.942,35.341 131.942,37.909 Q131.942,43.358 134.991,43.358 Q136.963,43.358 138.454,41.866 L139.272,42.631 Q138.467,43.682 137.229,44.311 Q135.99,44.941 134.433,44.941 Q131.423,44.941 129.62,43.189 Q127.817,41.438 127.817,38.298 z" fill="#FFFFFF"/>
    <path d="M140.089,32.992 L140.089,32.889 Q141.905,32.136 143.54,30.657 Q145.174,29.178 146.096,27.414 L146.199,27.414 L146.199,31.397 L149.248,31.397 L149.248,31.501 L147.146,32.992 L146.199,32.992 L146.199,41.101 Q146.199,41.866 146.31,42.424 Q146.42,42.982 146.589,43.325 Q146.757,43.669 147.075,43.922 Q147.393,44.175 147.685,44.298 Q147.977,44.422 148.457,44.577 L148.457,44.681 L142.346,44.681 L142.346,32.992 z" fill="#FFFFFF"/>
  </g>
</svg>
