<?xml version="1.0" encoding="UTF-8"?>
<!DOCTYPE svg PUBLIC "-//W3C//DTD SVG 1.1//EN" "http://www.w3.org/Graphics/SVG/1.1/DTD/svg11.dtd">
<svg version="1.1" xmlns="http://www.w3.org/2000/svg" xmlns:xlink="http://www.w3.org/1999/xlink" x="0" y="0" width="240" height="202" viewBox="0, 0, 240, 202">
  <g id="Background">
    <rect x="0" y="0" width="240" height="202" fill="#000000" fill-opacity="0"/>
  </g>
  <g id="#e1e1e1ff">
    <path d="M119.508,0.013 C124.014,0.433 122.149,-0.067 125.208,1.041 C129.921,2.711 131.416,7.918 133.27,12.026 C137.248,12.777 141.528,13.049 145.056,15.235 C147.558,17.955 148.715,21.576 150.229,24.878 C154.82,25.563 160.548,25.656 163.379,29.962 C168.073,36.632 165.214,45.122 166.69,52.607 C168.017,58.724 167.462,65.384 170.839,70.909 C174.94,69.474 179.013,67.56 183.415,67.316 C190.206,67.316 196.509,73.217 196.311,80.13 C196.386,90.815 196.706,101.5 196.866,112.184 C206.602,112.456 216.271,113.61 225.885,115.139 C229.177,115.712 232.601,116.462 235.357,118.469 C237.03,119.794 237.817,121.7 238.762,123.548 L238.901,124.011 C239.16,124.881 239.356,125.603 239.515,126.294 C239.985,128.3 240.158,130.365 239.833,132.411 C239.717,133.145 239.468,133.852 239.285,134.572 C234.62,143.088 229.706,151.463 224.991,159.951 C220.965,166.987 215.519,173.075 210.27,179.21 C201.419,187.071 192.078,194.979 180.734,198.956 C173.66,200.87 166.314,202.033 158.968,201.902 C150.389,201.892 141.557,202.361 133.326,199.481 C129.413,198.018 127.494,194.041 124.456,191.47 C121.972,190.148 118.69,190.044 116.122,191.179 C112.933,193.6 110.986,197.577 107.073,199.041 C98.419,202.277 89.022,202.014 79.926,201.958 C74.075,201.995 68.243,201.095 62.59,199.613 C57.012,197.84 51.942,194.829 46.693,192.286 C42.573,190.307 38.66,187.859 35.321,184.726 C27.147,177.099 19.509,168.722 13.903,159.004 C8.804,150.355 3.781,141.584 0,132.268 L0,123.516 C2.079,116.565 9.867,115.139 16.028,113.91 C24.739,111.753 33.731,112.7 42.592,112.428 C42.649,104.173 42.601,95.918 42.545,87.663 C42.526,82.682 42.808,77.457 45.216,72.982 C47.126,69.258 51.349,67.091 55.469,67.194 C60.699,67.204 65.572,69.371 70.604,70.506 C70.369,62.382 73.059,54.53 72.711,46.416 C72.598,41.247 72.335,35.478 76.135,31.407 C78.891,27.486 84.178,28.358 88.232,27.073 C91.571,24.156 92.418,19.118 96.218,16.576 C99.294,14.597 103.066,14.362 106.584,13.715 C107.844,10.441 108.7,6.886 110.901,4.071 C113.724,1.125 115.729,0.85 119.508,0.013 z M196.648,125.115 C192.006,125.496 193.96,125.091 190.724,125.974 C188.109,128.995 187.845,133.291 186.632,136.978 C185.005,144.717 180.593,151.386 176.972,158.291 C174.968,162.324 171.224,164.951 168.064,168 C163.06,172.99 157.049,176.827 150.972,180.382 C146.598,182.971 141.114,184.022 137.832,188.187 C143.927,189.097 149.919,190.898 156.146,190.588 C162.58,191.095 168.628,188.609 174.789,187.24 C180.791,185.786 185.823,182.071 190.912,178.769 C195.982,175.457 200.883,171.743 204.664,166.968 C210.214,160.204 215.566,153.169 219.451,145.289 C222.555,139.961 225.584,134.567 227.681,128.751 C220.852,126.837 213.807,125.43 206.686,125.627 C203.147,125.634 205.74,125.677 200.663,125.351 C199.325,125.265 197.986,125.194 196.648,125.115 z M30.965,124.846 C24.569,124.661 18.373,126.388 12.238,127.944 C12.774,130.88 13.611,133.76 14.966,136.434 C21.437,150.111 29.969,162.99 40.955,173.497 C45.141,177.662 50.559,180.204 55.545,183.272 C60.662,186.348 66.437,188.084 72.288,189.097 C81.798,191.508 92.013,190.945 101.175,187.455 C95.945,184.294 90.179,182.193 84.817,179.294 C78.412,175.701 72.448,171.199 67.698,165.561 C64.923,162.165 58.674,158.8 57.658,154.231 C55.767,147.721 52.723,144.259 51.228,137.618 C50.409,133.875 50.127,128.966 48.208,125.655 C43.363,125.608 38.51,125.674 33.694,125.055 L30.965,124.846 z M56.357,78.897 L55.676,79.098 C52.14,86.491 53.682,94.811 53.306,102.691 C53.052,106.837 53.87,110.899 54.745,114.924 C55.629,126.171 58.019,137.766 64.537,147.203 C69.334,155.467 75.815,163.019 84.3,167.671 C93.499,173.778 103.959,178.459 115.087,179.313 C115.322,169.416 115.557,159.51 115.115,149.623 C114.391,143.31 113.065,137.062 111.597,130.871 C108.606,117.635 101.523,105.083 90.781,96.594 C81.694,88.095 69.833,83.695 58.404,79.324 C57.295,78.948 57.968,79.131 56.357,78.897 z M183.754,79.436 C172.24,82.804 161.112,87.86 151.603,95.224 C143.955,100.44 137.832,107.672 133.307,115.702 C129.366,122.803 128.19,130.936 126.252,138.713 C123.666,152.052 124.682,165.701 124.71,179.2 C131.2,178.431 137.587,176.743 143.287,173.487 C154.575,168.431 165.326,161.292 172.447,151.002 C177.32,142.531 180.584,133.216 182.898,123.751 C184.12,118.516 183.744,113.113 184.44,107.813 C185.249,101.575 184.553,95.271 184.873,89.005 C185.07,85.778 184.713,82.532 183.754,79.436 z M120.712,11.51 C119.753,14.043 118.596,16.548 118.229,19.249 C117.617,28.78 117.542,38.414 115.332,47.757 C114.005,53.029 114.334,58.517 113.601,63.874 C111.898,63.845 110.205,63.836 108.512,63.827 C106.781,57.195 105.596,50.431 105.54,43.564 C104.458,37.589 105.144,31.426 103.715,25.506 C99.209,30.853 102.144,38.133 100.592,44.362 C98.814,51.763 97.629,59.277 96.519,66.8 C95.014,67.147 93.499,67.485 91.994,67.813 C88.345,59.193 87.63,49.681 86.727,40.469 C85.908,40.018 85.099,39.559 84.291,39.099 C84.008,47.26 85.137,55.675 82.513,63.564 C81.44,67.457 81.487,71.519 81.111,75.515 C86.2,77.963 91.345,80.487 95.569,84.295 C105.408,92.429 111.757,103.976 115.698,115.946 C117.881,120.524 117.655,125.833 120.035,130.327 C120.891,126.396 121.671,122.437 123.101,118.676 C125.669,111.781 126.657,104.201 130.777,97.973 C133.241,94.539 135.555,90.965 138.387,87.804 C143.635,82.635 149.9,78.583 156.56,75.449 C156.832,69.765 156.682,64.052 155.534,58.47 C154.519,53.996 155.215,49.296 153.935,44.887 C153.634,44.878 153.032,44.859 152.722,44.849 C150.022,52.495 151.809,61.941 145.846,68.245 C140.39,62.71 141.745,54.418 139.553,47.542 C137.136,39.859 138.029,31.754 137.596,23.846 C132.997,36.988 135.461,51.547 129.996,64.455 C129.065,64.568 128.143,64.69 127.212,64.812 C123.412,60.375 125.284,54.352 124.315,49.108 C123.195,43.564 122.067,38.002 121.455,32.373 C120.524,25.459 121.013,18.461 120.712,11.51 z" fill="#060606"/>
    <path d="M118.229,19.249 C118.596,16.548 119.753,14.043 120.712,11.51 C121.013,18.461 120.524,25.459 121.455,32.373 C122.067,38.002 123.195,43.564 124.315,49.108 C125.284,54.352 123.412,60.375 127.212,64.812 C128.143,64.69 129.065,64.568 129.996,64.455 C135.461,51.547 132.997,36.988 137.596,23.846 C138.029,31.754 137.136,39.859 139.553,47.542 C141.745,54.418 140.39,62.71 145.846,68.245 C151.809,61.941 150.022,52.495 152.722,44.849 C153.032,44.859 153.634,44.878 153.935,44.887 C155.215,49.296 154.519,53.996 155.534,58.47 C156.682,64.052 156.832,69.765 156.56,75.449 C149.9,78.583 143.635,82.635 138.387,87.804 C135.555,90.965 133.241,94.539 130.777,97.973 C126.657,104.201 125.669,111.781 123.101,118.676 C121.671,122.437 120.891,126.396 120.035,130.327 C117.655,125.833 117.881,120.524 115.698,115.946 C111.757,103.976 105.408,92.429 95.569,84.295 C91.345,80.487 86.2,77.963 81.111,75.515 C81.487,71.519 81.44,67.457 82.513,63.564 C85.137,55.675 84.008,47.26 84.291,39.099 C85.099,39.559 85.908,40.018 86.727,40.469 C87.63,49.681 88.345,59.193 91.994,67.813 C93.499,67.485 95.014,67.147 96.519,66.8 C97.629,59.277 98.814,51.763 100.592,44.362 C102.144,38.133 99.209,30.853 103.715,25.506 C105.144,31.426 104.458,37.589 105.54,43.564 C105.596,50.431 106.781,57.194 108.512,63.827 C110.205,63.836 111.898,63.845 113.601,63.874 C114.334,58.517 114.005,53.029 115.332,47.757 C117.542,38.414 117.617,28.78 118.229,19.249 z" fill="#B2B2B2"/>
    <path d="M55.676,79.099 C56.57,78.639 57.529,79.023 58.404,79.324 C69.833,83.695 81.694,88.095 90.781,96.594 C101.523,105.083 108.606,117.635 111.597,130.871 C113.065,137.062 114.391,143.31 115.115,149.623 C115.557,159.51 115.322,169.416 115.087,179.313 C103.959,178.459 93.499,173.778 84.3,167.671 C75.815,163.019 69.334,155.467 64.537,147.203 C58.019,137.766 55.629,126.171 54.745,114.924 C53.87,110.899 53.052,106.837 53.306,102.691 C53.682,94.811 52.14,86.491 55.676,79.099 z" fill="#B2B2B2"/>
    <path d="M151.603,95.224 C161.112,87.86 172.24,82.804 183.754,79.436 C184.713,82.532 185.07,85.778 184.873,89.005 C184.553,95.271 185.249,101.575 184.44,107.813 C183.744,113.113 184.12,118.516 182.898,123.751 C180.584,133.216 177.32,142.531 172.447,151.002 C165.326,161.292 154.575,168.431 143.287,173.487 C137.587,176.743 131.2,178.431 124.71,179.2 C124.682,165.701 123.666,152.052 126.252,138.713 C128.19,130.936 129.366,122.803 133.307,115.702 C137.832,107.672 143.955,100.44 151.603,95.224 z" fill="#B2B2B2"/>
    <path d="M12.238,128.13 C19.227,126.329 26.404,124.341 33.694,125.241 C38.51,125.86 43.363,125.795 48.208,125.841 C50.127,129.153 50.409,133.875 51.228,137.618 C52.723,144.259 56.781,151.317 59.439,155.485 C61.957,159.433 64.923,162.351 67.698,165.747 C72.448,171.385 78.412,175.888 84.817,179.48 C90.179,182.379 95.945,184.48 101.175,187.642 C92.013,191.131 81.798,191.694 72.288,189.283 C66.437,188.27 60.662,186.535 55.545,183.458 C50.559,180.39 45.141,177.848 40.955,173.683 C29.969,163.177 21.437,150.297 14.966,136.62 C13.611,133.946 12.774,131.067 12.238,128.13 z" fill="#B2B2B2"/>
    <path d="M190.724,125.974 C195.907,124.135 201.362,125.852 206.686,125.627 C213.807,125.43 220.852,126.837 227.681,128.751 C225.584,134.567 222.555,139.961 219.451,145.289 C215.566,153.169 210.214,160.204 204.664,166.968 C200.883,171.743 195.982,175.457 190.912,178.769 C185.823,182.071 180.791,185.786 174.789,187.24 C168.628,188.609 162.58,191.095 156.146,190.588 C149.919,190.898 143.927,189.097 137.832,188.187 C141.114,184.022 146.598,182.971 150.972,180.382 C157.049,176.827 163.06,172.99 168.064,168 C171.224,164.951 174.968,162.324 176.972,158.291 C180.593,151.386 185.005,144.717 186.632,136.978 C187.845,133.291 188.109,128.995 190.724,125.974 z" fill="#B2B2B2"/>
  </g>
</svg>
