<svg xmlns="http://www.w3.org/2000/svg" width="480" height="480"><path fill-opacity="0" d="M0 0h480v480H0z"/><path d="M76.084 233.472c32.743.6 66.086 9.848 90.981 31.943 38.842 32.943 56.938 85.032 59.388 134.772-41.791 2.449-81.733-20.196-106.478-52.889-24.995-32.893-38.142-73.285-43.891-113.826zm238.65 29.993c24.395-21.245 57.239-29.043 88.932-29.293-7.549 55.138-30.794 112.026-77.384 145.319-20.696 15.847-47.24 21.446-72.885 20.546 2-50.889 20.246-104.078 61.337-136.572zM0 326.652c27.944-5.799 58.338-8.798 85.932-.5 15.647 16.247 26.045 37.043 43.191 51.99 16.797 16.746 39.642 24.444 61.137 33.243-51.089 2.049-105.328-6.299-147.519-37.143C25.095 361.895 11.498 344.749 0 326.652zm396.517-1.199c27.245-7.149 55.939-4.15 83.483-.5-13.047 29.693-40.492 50.339-68.486 65.036-38.292 16.997-80.883 24.245-122.724 22.295 25.345-11.547 52.889-21.595 71.185-43.69 13.197-13.498 20.696-32.594 36.542-43.141zM240.411 67.406c.468.762.529 1.643.711 2.479.75 4.43 1.038 8.908 1.421 13.372l2.401 35.691c1.421 19.446 3.038 38.91 6.225 58.204 1.558 9.105 3.403 18.213 6.553 27.006l12.486.949c2.058-5.379 3.069-11.012 4.128-16.599.939-5.221 1.732-10.465 2.466-15.713 2.828-20.498 4.799-41.078 6.936-61.639.486-4.236.804-8.497 1.59-12.7.394.909.484 1.888.66 2.841.459 2.877.806 5.766 1.157 8.655l6.991 57.641c1.288 8.797 2.705 17.584 4.594 26.299 1.275 5.692 2.635 11.404 4.932 16.855 3.865 1.043 7.7 2.188 11.416 3.595 1.164-2.36 2.04-4.825 2.864-7.293 2.077-6.414 3.516-12.974 4.775-19.545 2.709-14.178 4.308-28.494 6.425-42.744.559-3.25.932-6.557 2.092-9.694.57 1.344.734 2.784 1 4.189 1.027 6.436 1.723 12.908 2.455 19.374l2.128 21.073.09-.323c-.011.989.101 1.972.214 2.955l4.608 50.844c-10.891 3.646-21.19 8.651-30.606 14.706-12.598 8.107-23.565 18.13-32.655 29.309-9.476 11.662-16.98 24.56-22.363 38.106-6.77 17.051-10.589 34.923-12.65 52.876-.666 5.513-1.076 11.045-1.709 16.558-.23 1.472-.27 3.025-1.072 4.365h-.396c-.735-.991-.78-2.215-.987-3.346-.486-3.658-.756-7.335-1.137-11.002-.957-9.885-2.317-19.748-4.403-29.5-3.423-15.951-8.598-31.704-16.674-46.322-9.236-16.766-21.947-32.137-37.875-44.402-11.808-9.102-25.384-16.435-40.031-21.356l6.637-70.769c.842-7.656 1.642-15.32 2.831-22.94.247-1.39.441-2.798.903-4.145l.245.037c.962 2.756 1.343 5.641 1.833 8.484l4.739 33.101c1.416 8.825 3.013 17.644 5.445 26.301 1.095 3.764 2.288 7.526 4.025 11.105 3.716-1.417 7.56-2.548 11.422-3.605 1.442-3.397 2.48-6.914 3.408-10.445 1.407-5.477 2.52-11.008 3.515-16.555 4.04-22.895 6.403-45.985 9.033-69.032l1.556-12.425c.226-1.31.349-2.646.831-3.908.521 2.885.804 5.798 1.138 8.703l6.436 58.702c1.212 9.283 2.504 18.566 4.369 27.768.838 3.884 1.664 7.796 3.166 11.53l12.475-.913c3.117-8.667 4.943-17.645 6.492-26.622 1.696-10.048 2.903-20.157 3.923-30.276 1.721-17.256 2.816-34.554 3.928-51.847.541-7.656.95-15.326 1.874-22.956.239-1.697.437-3.416 1.016-5.057z"/></svg>