<?xml version="1.0" encoding="UTF-8"?>
<!DOCTYPE svg PUBLIC "-//W3C//DTD SVG 1.1//EN" "http://www.w3.org/Graphics/SVG/1.1/DTD/svg11.dtd">
<svg version="1.1" xmlns="http://www.w3.org/2000/svg" xmlns:xlink="http://www.w3.org/1999/xlink" x="0" y="0" width="400" height="50" viewBox="0, 0, 400, 50">
  <g id="Background">
    <rect x="0" y="0" width="400" height="50" fill="#000000" fill-opacity="0"/>
  </g>
  <g id="#aacce3ff">
    <path d="M25.285,2.069 C25.564,1.478 25.928,0.935 26.316,0.407 C28.557,4.838 30.371,9.464 32.349,14.011 L32.206,14.223 C32.067,14.429 31.782,14.848 31.639,15.057 C29.919,10.823 28.184,6.592 26.219,2.467 C25.803,3.261 25.43,4.077 25.084,4.905 C23.189,9.149 21.348,13.419 19.801,17.805 C19.406,18.278 18.824,18.494 18.217,18.479 C12.933,18.827 7.653,19.173 2.393,19.801 C5.481,23.21 9.197,25.968 12.66,28.973 C13.728,29.826 14.759,31.012 16.24,30.997 C16.106,31.066 15.839,31.212 15.703,31.285 C15.399,31.27 15.096,31.257 14.793,31.245 C14.526,31.894 14.226,32.525 13.944,33.165 C14.016,32.625 14.08,32.082 14.15,31.543 C10.689,28.488 6.985,25.71 3.637,22.525 C2.445,21.366 1.147,20.326 -0,19.122 C1.811,18.97 3.603,18.658 5.408,18.457 C7.355,18.403 9.275,18.048 11.211,17.878 C13.668,17.793 16.124,17.763 18.584,17.729 C19.728,15.555 20.398,13.177 21.402,10.938 C22.576,7.929 23.947,5.005 25.285,2.069 z" fill="#AACCE3"/>
    <path d="M25.084,4.905 C25.43,4.077 25.803,3.261 26.219,2.467 C28.184,6.592 29.919,10.823 31.639,15.057 C32.07,16.17 32.473,17.296 32.877,18.421 C36.359,18.418 39.807,18.961 43.283,19.064 C45.47,19.264 47.645,19.598 49.841,19.707 C49.781,19.774 49.665,19.913 49.608,19.98 C48.519,20.344 47.421,20.684 46.344,21.075 C37.948,23.899 29.489,26.541 21.078,29.322 C19.458,29.859 17.799,30.287 16.24,30.997 C14.759,31.012 13.728,29.826 12.66,28.973 C9.197,25.968 5.481,23.21 2.393,19.801 C7.653,19.173 12.933,18.827 18.217,18.479 C18.824,18.494 19.406,18.278 19.801,17.805 C21.135,18.673 22.761,18.4 24.259,18.403 C26.425,18.327 28.618,18.615 30.75,18.112 C29.228,17.924 27.699,17.82 26.173,17.687 C26.116,13.128 26.273,8.566 26.107,4.01 C25.761,4.305 25.415,4.596 25.084,4.905 z" fill="#215382"/>
    <path d="M31.515,35.31 C33.322,33.93 35.103,32.489 37.081,31.355 C38.1,34.627 38.913,37.961 39.683,41.3 C40.162,43.518 40.76,45.723 40.942,47.995 C40.669,47.855 40.396,47.715 40.126,47.576 C39.977,46.739 39.683,45.929 39.143,45.265 C37.863,43.602 36.668,41.88 35.406,40.202 C34.141,38.543 33.11,36.687 31.515,35.31 z" fill="#215382"/>
    <path d="M25.084,4.905 C25.415,4.596 25.761,4.305 26.107,4.01 C26.273,8.566 26.116,13.128 26.173,17.687 C27.699,17.82 29.228,17.924 30.75,18.112 C28.618,18.615 26.425,18.327 24.259,18.403 C22.761,18.4 21.135,18.673 19.801,17.805 C21.348,13.419 23.189,9.149 25.084,4.905 z" fill="#112A45"/>
    <path d="M26.668,38.862 C28.266,37.654 29.968,36.587 31.515,35.31 C33.11,36.687 34.141,38.543 35.406,40.202 C36.668,41.88 37.863,43.603 39.143,45.265 C39.683,45.929 39.977,46.739 40.126,47.576 C35.558,45.14 31.251,42.256 26.877,39.502 C26.825,39.341 26.719,39.019 26.668,38.862 z" fill="#112A45"/>
    <path d="M66.048,13.389 C67.597,12.713 69.323,12.943 70.967,12.898 C73.982,12.761 76.846,14.211 79.108,16.104 C77.953,18.084 76.624,19.956 75.438,21.915 C73.791,20.863 72.147,19.404 70.045,19.613 C68.601,19.601 66.572,20.487 66.824,22.225 C66.727,23.08 66.873,24.066 67.782,24.409 C70.703,25.534 73.97,25.792 76.67,27.484 C78.526,28.758 80.079,30.62 80.555,32.865 C81.028,35.1 80.986,37.573 79.855,39.614 C78.523,41.995 76.081,43.7 73.412,44.221 C71.795,44.364 70.167,44.303 68.547,44.297 C66.415,44.343 64.391,43.478 62.532,42.52 C61.255,41.74 59.857,41.027 58.926,39.823 C59.108,39.195 59.499,38.664 59.842,38.115 C60.776,36.708 61.564,35.198 62.662,33.905 C64.804,36.15 67.81,37.8 70.986,37.588 C71.777,37.591 72.532,37.29 73.2,36.887 C73.967,36.311 74.04,35.225 73.758,34.382 C73.218,33.114 71.726,32.798 70.54,32.446 C67.425,31.658 63.973,30.948 61.768,28.403 C59.799,26.137 59.535,22.931 59.996,20.083 C60.661,16.995 63.111,14.454 66.048,13.389 z" fill="#C1E3F7"/>
    <path d="M172.151,13.365 C174.035,12.673 176.073,12.958 178.036,12.901 C181.123,12.743 183.984,14.229 186.477,15.897 C185.482,17.845 184.199,19.631 183.01,21.46 C182.91,21.488 182.71,21.539 182.61,21.563 C181.581,21.139 180.705,20.396 179.625,20.086 C176.558,18.94 172.973,19.883 170.607,22.073 C168.132,24.405 167.128,28.179 168.232,31.409 C169.06,34.124 171.335,36.305 174.02,37.166 C176.546,38.037 179.443,37.642 181.663,36.156 C182.088,35.938 182.74,35.331 183.128,35.919 C184.254,37.715 185.479,39.453 186.486,41.319 C184.002,43.011 181.126,44.479 178.036,44.309 C175.912,44.258 173.698,44.546 171.684,43.718 C167.265,42.286 163.646,38.765 161.929,34.473 C161.517,33.366 161.116,32.225 161.141,31.027 C161.11,29.004 161.038,26.969 161.241,24.955 C162.497,19.525 166.822,14.969 172.151,13.365 z" fill="#C1E3F7"/>
    <path d="M260.999,25.546 C262.106,19.322 267.332,14.056 273.569,12.964 C275.598,12.867 277.639,12.843 279.668,12.98 C281.995,13.386 284.154,14.466 286.056,15.843 C285.104,17.924 283.787,19.834 282.416,21.66 C280.712,20.487 278.749,19.461 276.62,19.586 C271.909,19.376 267.596,23.584 267.624,28.285 C267.442,31.788 269.732,35.131 272.847,36.602 C274.576,37.482 276.584,37.327 278.458,37.19 C279.292,37.008 280.399,36.817 280.687,35.871 C280.675,35.407 280.575,34.952 280.49,34.5 C279.847,34.491 279.204,34.479 278.567,34.473 C278.497,32.243 278.537,30.011 278.54,27.778 C281.497,27.766 284.458,27.763 287.415,27.781 C287.439,31.825 287.4,35.871 287.436,39.914 C282.771,44.546 275.122,45.623 269.328,42.55 C265.109,40.402 261.961,36.286 261.029,31.646 C260.866,29.62 260.899,27.575 260.999,25.546 z" fill="#C1E3F7"/>
    <path d="M380.573,21.215 C381.538,18.579 383.901,16.61 386.555,15.809 C390.831,14.593 395.748,15.888 398.806,19.134 C397.416,21.084 396.431,23.347 394.744,25.07 C393.631,23.599 392.014,22.255 390.07,22.322 C389.036,22.264 387.768,22.473 387.204,23.438 C387.055,24.257 387.131,25.091 387.176,25.916 C390.079,27.235 393.446,27.351 396.136,29.186 C400.295,31.676 401.22,37.933 398.308,41.704 C397.113,43.293 395.308,44.37 393.403,44.876 C388.984,46.232 384.18,44.667 380.543,42.056 C380.173,41.722 379.524,41.513 379.533,40.933 C379.427,40.315 379.891,39.826 380.167,39.32 C381.11,37.852 381.971,36.323 383.039,34.937 C384.723,36.69 386.928,38.222 389.448,38.225 C390.628,38.219 392.06,38.443 392.873,37.36 C393.076,36.475 393.061,35.21 392.063,34.828 C389.624,33.757 386.861,33.605 384.504,32.307 C382.008,31.042 380.1,28.427 380.127,25.57 C380.142,24.114 379.957,22.586 380.573,21.215 z" fill="#C1E3F7"/>
    <path d="M354.979,16.889 C362.759,16.886 370.542,16.862 378.326,16.901 C377.403,18.894 376.035,20.629 374.904,22.501 C374.498,23.019 374.173,23.875 373.409,23.878 C369.584,23.89 365.759,23.884 361.934,23.875 C361.922,24.864 361.928,25.849 361.955,26.838 C365.984,26.944 370.015,26.844 374.043,26.89 C374.125,29.207 374.082,31.524 374.064,33.842 C370.018,33.881 365.974,33.857 361.928,33.857 C361.922,34.861 361.928,35.865 361.962,36.866 C366.008,36.96 370.06,36.851 374.109,36.923 C375.529,39.153 377.039,41.325 378.329,43.633 C376.387,44.039 374.419,43.739 372.468,43.684 C370.548,43.8 368.622,43.954 366.705,43.766 C364.582,43.554 362.456,43.757 360.336,43.836 C358.495,43.648 356.644,44.012 354.821,43.633 C354.703,35.589 354.806,27.542 354.764,19.498 C354.74,18.624 354.809,17.751 354.979,16.889 z" fill="#C1E3F7"/>
    <path d="M308.596,17.202 C310.907,16.701 313.288,16.932 315.633,16.886 C315.696,25.819 315.651,34.749 315.657,43.681 C313.397,43.724 311.134,43.633 308.878,43.73 C308.963,42.271 308.945,40.809 308.878,39.35 C305.226,39.365 301.577,39.329 297.928,39.368 C297.934,39.49 297.949,39.726 297.955,39.844 C298.022,41.127 297.776,42.398 297.719,43.681 C295.401,43.697 293.087,43.69 290.773,43.681 C290.636,41.164 291.082,38.671 291.361,36.177 C292.126,31.646 293.824,27.172 296.83,23.641 C299.815,20.186 304.07,17.845 308.596,17.202 M301.798,28.6 C300.943,29.714 300.012,30.927 300,32.398 C302.951,32.371 305.908,32.507 308.857,32.334 C308.99,29.698 308.89,27.056 308.899,24.418 C306.039,24.594 303.591,26.48 301.798,28.6 z" fill="#C1E3F7"/>
    <path d="M319.291,21.924 C319.33,20.232 319.136,18.518 319.536,16.853 C325.403,16.868 331.354,19.191 335.279,23.632 C336.677,22.479 337.914,21.124 339.483,20.183 C342.355,18.379 345.692,17.132 349.116,17.147 C349.871,17.126 350.63,17.12 351.391,17.123 C351.382,26.004 351.439,34.885 351.361,43.766 C349.037,44.006 346.72,43.624 344.396,43.654 C344.415,38.161 344.424,32.671 344.393,27.178 C342.131,27.287 340.32,28.889 338.755,30.366 C337.384,31.615 336.477,33.253 335.245,34.618 C333.962,32.434 332.276,30.517 330.332,28.901 C329.188,27.706 327.617,26.959 325.943,27.141 C325.876,32.707 326.03,38.273 325.867,43.839 C323.68,43.933 321.511,43.639 319.327,43.666 C319.242,36.42 319.318,29.171 319.291,21.924 z" fill="#C1E3F7"/>
    <path d="M78.917,23.872 C80.288,21.654 81.72,19.48 83.082,17.259 C89.9,17.247 96.722,17.193 103.541,17.287 C102.964,18.879 101.875,20.195 100.999,21.621 C100.429,22.485 99.955,23.447 99.149,24.123 C97.596,24.263 96.03,24.148 94.471,24.178 C94.438,30.76 94.493,37.345 94.447,43.927 C92.127,43.933 89.803,44.006 87.486,43.875 C87.465,37.312 87.565,30.745 87.434,24.184 C85.178,24.181 82.918,24.181 80.661,24.187 C80.064,24.196 79.469,24.096 78.917,23.872 z" fill="#C1E3F7"/>
    <path d="M104.693,23.456 C107.887,19.828 112.616,17.772 117.372,17.271 C119.201,17.22 121.036,17.19 122.865,17.25 C123.268,17.581 123.235,18.109 123.241,18.579 C123.226,26.471 123.235,34.363 123.238,42.256 C123.232,42.893 123.114,43.521 123.026,44.148 C120.857,44.233 118.685,44.167 116.517,44.194 C116.592,42.586 116.532,40.976 116.332,39.38 C113.441,39.304 110.55,39.389 107.66,39.32 C106.923,39.402 105.964,39.126 105.385,39.687 C104.757,40.909 104.884,42.353 104.769,43.687 C102.682,43.903 100.583,43.875 98.49,43.778 C98.33,41.537 98.621,39.308 98.93,37.093 C99.312,34.036 100.183,31.033 101.584,28.285 C102.437,26.562 103.616,25.036 104.693,23.456 M107.059,32.668 C110.059,32.774 113.065,32.695 116.071,32.707 C116.077,30.026 116.107,27.348 116.049,24.666 C111.845,25.343 108.467,28.755 107.059,32.668 z" fill="#C1E3F7"/>
    <path d="M126.981,17.311 C129.947,17.247 132.914,17.311 135.88,17.281 C137.576,17.268 139.311,17.217 140.955,17.711 C142.647,18.178 144.185,19.07 145.587,20.111 C147.282,21.563 148.265,23.69 148.677,25.852 C149.181,29.419 148.802,33.469 146.217,36.211 C145.881,36.699 145.047,37.193 145.45,37.867 C146.636,39.911 148.049,41.816 149.202,43.885 C147.446,44.455 145.577,44.085 143.77,44.194 C142.799,44.118 141.574,44.491 140.867,43.618 C139.987,42.504 139.366,41.218 138.607,40.026 C137.036,39.32 135.259,39.696 133.602,39.753 C133.605,41.14 133.599,42.523 133.566,43.909 C131.37,43.954 129.171,43.957 126.975,43.909 C126.923,35.043 126.92,26.174 126.981,17.311 M133.645,28.294 C133.66,29.607 133.587,30.924 133.672,32.237 C133.76,32.349 133.933,32.577 134.018,32.689 C135.45,32.762 136.887,32.716 138.325,32.719 C139.972,32.789 141.722,31.564 141.816,29.835 C141.856,28.252 142.159,26.341 140.803,25.182 C138.895,23.532 136.187,24.372 133.906,24.154 C133.496,25.5 133.669,26.911 133.645,28.294 z" fill="#C1E3F7"/>
    <path d="M190.308,17.235 C192.543,17.223 194.779,17.223 197.014,17.235 C197.072,26.134 197.008,35.034 197.048,43.933 C196.001,44.279 194.894,44.188 193.814,44.197 C192.631,44.179 191.424,44.291 190.28,43.933 C190.314,35.034 190.256,26.134 190.308,17.235 z" fill="#C1E3F7"/>
    <path d="M201.537,21.475 C202.477,20.059 203.281,18.551 204.354,17.226 C211.146,17.29 217.94,17.174 224.731,17.281 C223.931,19.128 222.617,20.675 221.61,22.401 C221.182,23.007 220.879,23.775 220.2,24.145 C218.72,24.242 217.233,24.157 215.75,24.175 C215.404,25.828 215.589,27.527 215.547,29.204 C215.52,34.036 215.608,38.871 215.507,43.7 L215.344,43.912 C213.09,43.997 210.833,43.936 208.58,43.915 C208.531,37.336 208.595,30.757 208.543,24.175 C205.768,24.184 202.996,24.196 200.22,24.163 C200.338,23.135 201,22.319 201.537,21.475 z" fill="#C1E3F7"/>
    <path d="M227.313,17.229 C229.484,17.256 231.656,17.168 233.825,17.256 L234.007,17.444 C234.122,19.649 233.967,21.861 234.061,24.066 C234.161,25.61 234.896,27.223 236.403,27.845 C238.444,28.904 241.177,27.448 241.593,25.24 C241.708,22.58 241.593,19.913 241.647,17.253 C243.956,17.208 246.267,17.22 248.575,17.25 C248.627,19.716 248.587,22.185 248.605,24.654 C248.715,28.767 246.015,32.704 242.254,34.294 C241.726,34.482 241.28,34.952 241.317,35.546 C241.289,38.361 241.335,41.182 241.302,44 C239.093,44.367 236.837,44.145 234.607,44.158 C234.383,42.82 234.31,41.467 234.513,40.123 C234.565,38.282 234.301,36.447 234.34,34.603 C230.237,33.205 227.064,29.052 227.291,24.651 C227.3,22.176 227.267,19.704 227.313,17.229 z" fill="#C1E3F7"/>
    <path d="M21.078,29.322 C29.489,26.541 37.948,23.899 46.344,21.075 C46.499,21.205 46.805,21.46 46.957,21.588 C40.178,26.644 33.022,31.166 25.864,35.662 C21.778,38.043 17.787,40.612 13.528,42.677 L13.516,42.365 C14.192,38.661 15.221,35.022 15.703,31.285 C15.839,31.212 16.106,31.066 16.24,30.997 C17.799,30.287 19.458,29.859 21.078,29.322 z" fill="#C1E3F7"/>
    <path d="M31.639,15.057 C31.782,14.848 32.067,14.429 32.206,14.223 C32.716,15.127 33.004,16.128 33.444,17.065 C33.671,17.608 34.345,17.733 34.869,17.757 C36.896,17.802 38.925,17.799 40.948,17.881 C44.694,18.282 48.44,18.594 52.165,19.146 C49.134,22.51 45.522,25.282 42.152,28.294 C40.963,29.398 39.58,30.272 38.364,31.342 C38.218,31.904 38.4,32.48 38.543,33.023 C39.823,37.488 40.848,42.019 41.773,46.569 C42.046,47.552 42.07,48.577 42.067,49.59 C36.896,47.048 32.027,43.915 27.174,40.815 C26.832,40.651 26.513,40.311 26.107,40.369 C25.154,40.794 24.329,41.443 23.45,41.995 C19.716,44.382 15.894,46.633 12.036,48.814 C11.435,49.156 10.78,49.378 10.128,49.593 C10.777,45.701 11.666,41.852 12.554,38.009 C13.015,36.396 13.255,34.706 13.944,33.165 C14.226,32.525 14.526,31.894 14.793,31.245 C15.096,31.257 15.399,31.27 15.703,31.285 C15.22,35.022 14.192,38.661 13.516,42.365 C13.434,41.792 13.334,41.221 13.237,40.654 C12.56,42.872 12.042,45.137 11.778,47.443 C16.279,45.334 20.395,42.508 24.569,39.826 C25.245,39.35 26.094,39.308 26.877,39.502 C31.251,42.256 35.558,45.14 40.126,47.576 C40.396,47.715 40.669,47.855 40.942,47.995 C40.76,45.723 40.162,43.518 39.683,41.3 C38.913,37.961 38.1,34.627 37.081,31.355 C37.748,30.533 38.443,29.723 39.289,29.077 C41.521,27.381 43.629,25.531 45.713,23.659 C47.014,22.437 48.595,21.491 49.608,19.98 C49.665,19.913 49.781,19.774 49.841,19.707 C47.645,19.598 45.47,19.264 43.283,19.064 C39.807,18.961 36.359,18.418 32.877,18.421 C32.473,17.296 32.07,16.17 31.639,15.057 z" fill="#B3D7EE"/>
    <path d="M46.344,21.075 C47.421,20.684 48.519,20.344 49.608,19.98 C48.595,21.491 47.014,22.437 45.713,23.659 C43.629,25.531 41.521,27.381 39.289,29.077 C38.443,29.723 37.748,30.533 37.081,31.355 C35.103,32.489 33.323,33.93 31.515,35.31 C29.968,36.587 28.266,37.654 26.668,38.862 C26.719,39.019 26.825,39.341 26.877,39.502 C26.094,39.308 25.245,39.35 24.569,39.826 C20.395,42.508 16.279,45.334 11.778,47.443 C12.042,45.137 12.56,42.872 13.237,40.654 C13.334,41.221 13.434,41.792 13.516,42.365 L13.528,42.677 C17.787,40.612 21.778,38.043 25.864,35.662 C33.022,31.166 40.177,26.644 46.957,21.588 C46.805,21.46 46.499,21.205 46.344,21.075 z" fill="#97C3E4"/>
  </g>
</svg>
