<?xml version="1.0" encoding="UTF-8"?>
<!DOCTYPE svg PUBLIC "-//W3C//DTD SVG 1.1//EN" "http://www.w3.org/Graphics/SVG/1.1/DTD/svg11.dtd">
<svg version="1.1" xmlns="http://www.w3.org/2000/svg" xmlns:xlink="http://www.w3.org/1999/xlink" x="0" y="0" width="360" height="78" viewBox="0, 0, 360, 78">
  <g id="Background">
    <rect x="0" y="0" width="360" height="78" fill="#000000" fill-opacity="0"/>
  </g>
  <defs>
    <linearGradient id="Gradient_1" gradientUnits="userSpaceOnUse" x1="222.559" y1="0.5" x2="222.559" y2="77.5">
      <stop offset="0" stop-color="#FFFFFF"/>
      <stop offset="1" stop-color="#ADADAD"/>
    </linearGradient>
    <clipPath id="Clip_1">
      <path d="M189.034,27.968 L221.927,39.126 L201.26,67.168 C192.256,60.163 187.524,50.356 187.237,39 C187.22,36.02 187.638,33.063 188.349,30.173 C188.533,29.425 188.806,28.703 189.034,27.968 z"/>
    </clipPath>
    <filter id="InnerShadow_2">
      <feGaussianBlur in="SourceAlpha" stdDeviation="1.5"/>
      <feOffset dx="0" dy="1" result="offsetblur"/>
      <feFlood flood-color="#000000"/>
      <feComposite in2="offsetblur" operator="in"/>
    </filter>
    <clipPath id="Clip_3">
      <path d="M256.164,28.229 C257.409,31.686 257.788,35.352 257.88,39 C257.824,50.049 252.933,59.679 244.478,66.656 L224.196,39.091 L256.164,28.229 z"/>
    </clipPath>
    <filter id="InnerShadow_4">
      <feGaussianBlur in="SourceAlpha" stdDeviation="1.5"/>
      <feOffset dx="0" dy="3" result="offsetblur"/>
      <feFlood flood-color="#000000"/>
      <feComposite in2="offsetblur" operator="in"/>
    </filter>
    <clipPath id="Clip_5">
      <path d="M222.34,3.684 L222.34,37.808 L189.476,26.627 C195.01,12.714 207.357,4.063 222.34,3.684 z"/>
    </clipPath>
    <filter id="InnerShadow_6">
      <feGaussianBlur in="SourceAlpha" stdDeviation="1.5"/>
      <feOffset dx="1" dy="2" result="offsetblur"/>
      <feFlood flood-color="#000000"/>
      <feComposite in2="offsetblur" operator="in"/>
    </filter>
    <clipPath id="Clip_7">
      <path d="M223.697,3.707 C235.506,3.958 246.662,10.631 252.767,20.684 C254.303,23.214 254.605,24.18 255.754,26.91 L223.721,37.794 L223.697,3.707 z"/>
    </clipPath>
    <filter id="InnerShadow_8">
      <feGaussianBlur in="SourceAlpha" stdDeviation="1.5"/>
      <feOffset dx="-1" dy="2" result="offsetblur"/>
      <feFlood flood-color="#000000"/>
      <feComposite in2="offsetblur" operator="in"/>
    </filter>
  </defs>
  <g id="Layer_1">
    <g>
      <path d="M222.559,0.5 C243.822,0.5 261.059,17.737 261.059,39 C261.059,60.263 243.822,77.5 222.559,77.5 C201.296,77.5 184.059,60.263 184.059,39 C184.059,17.737 201.296,0.5 222.559,0.5 z" fill="url(#Gradient_1)"/>
      <path d="M223.074,39.696 L243.49,67.441 C237.181,72.048 230.325,74.125 222.559,74.322 C214.981,74.281 208.563,72.126 202.321,67.91 L223.074,39.696 z" fill="#FF0A28"/>
      <g>
        <path d="M189.034,27.968 L221.927,39.127 L201.26,67.168 C192.256,60.163 187.524,50.356 187.237,39 C187.22,36.02 187.638,33.063 188.349,30.173 C188.533,29.425 188.806,28.703 189.034,27.968 z" fill="#45BD06"/>
        <path d="M183.236,22.968 L225.927,22.968 L225.927,72.168 L183.236,72.168 z M189.034,27.968 C188.806,28.703 188.533,29.425 188.349,30.173 C187.638,33.063 187.22,36.02 187.237,39 C187.524,50.356 192.256,60.163 201.26,67.168 L221.927,39.126 L189.034,27.968 z" clip-path="url(#Clip_1)" filter="url(#InnerShadow_2)" fill="rgba(0,0,0,0.25)"/>
      </g>
      <g>
        <path d="M256.164,28.229 C257.409,31.686 257.788,35.352 257.88,39 C257.824,50.049 252.933,59.679 244.478,66.656 L224.196,39.091 L256.164,28.229 z" fill="#121212"/>
        <path d="M220.196,21.229 L261.88,21.229 L261.88,73.656 L220.196,73.656 z M256.164,28.229 L224.196,39.091 L244.478,66.656 C252.933,59.679 257.824,50.049 257.88,39 C257.788,35.352 257.409,31.686 256.164,28.229 z" clip-path="url(#Clip_3)" filter="url(#InnerShadow_4)" fill="rgba(0,0,0,1)"/>
      </g>
      <g>
        <path d="M222.34,3.684 L222.34,37.808 L189.476,26.627 C195.01,12.714 207.357,4.063 222.34,3.684 z" fill="#EBE9E9"/>
        <path d="M184.476,-2.316 L227.34,-2.316 L227.34,43.808 L184.476,43.808 z M222.34,3.684 C207.357,4.063 195.01,12.714 189.476,26.627 L222.34,37.808 L222.34,3.684 z" clip-path="url(#Clip_5)" filter="url(#InnerShadow_6)" fill="rgba(0,0,0,0.25)"/>
      </g>
      <g>
        <path d="M223.697,3.707 C235.506,3.958 246.662,10.631 252.767,20.684 C254.303,23.214 254.605,24.18 255.754,26.91 L223.721,37.794 L223.697,3.707 z" fill="#037ABA"/>
        <path d="M218.697,-2.293 L260.754,-2.293 L260.754,43.794 L218.697,43.794 z M223.697,3.707 L223.721,37.794 L255.754,26.91 C254.605,24.18 254.303,23.214 252.767,20.684 C246.662,10.631 235.506,3.958 223.697,3.707 z" clip-path="url(#Clip_7)" filter="url(#InnerShadow_8)" fill="rgba(0,0,0,0.256)"/>
      </g>
    </g>
    <g>
      <path d="M1.706,18.945 C10.218,18.943 18.732,18.939 27.244,18.948 C27.211,21.164 27.271,23.381 27.213,25.598 C24.31,25.577 21.407,25.602 18.504,25.584 C18.498,36.745 18.498,47.904 18.504,59.063 C15.815,59.07 13.125,59.066 10.436,59.066 C10.44,47.906 10.434,36.749 10.438,25.592 C7.535,25.592 4.63,25.586 1.725,25.594 C1.692,23.377 1.727,21.162 1.706,18.945 z" fill="#FFFFFF"/>
      <path d="M38.566,18.937 C41.887,18.954 45.208,18.937 48.529,18.943 C52.039,32.322 55.585,45.689 59.097,59.066 C56.292,59.057 53.486,59.086 50.682,59.051 C50.233,56.774 49.689,54.517 49.212,52.248 C49.105,51.698 48.983,51.154 48.875,50.606 C45.322,50.592 41.771,50.604 38.218,50.6 C37.624,53.415 36.934,56.211 36.408,59.038 C33.592,59.099 30.774,59.053 27.956,59.063 C31.522,45.696 35,32.305 38.566,18.937 M42.218,31.834 C41.342,35.87 40.481,39.906 39.618,43.943 C42.237,43.943 44.854,43.946 47.473,43.943 C46.254,38.362 45.038,32.776 43.891,27.18 L43.812,27.046 C43.767,26.613 43.661,26.19 43.465,25.8 C43.135,27.827 42.587,29.813 42.218,31.834 z" fill="#FFFFFF"/>
      <path d="M61.975,18.948 C66.288,18.939 70.599,18.945 74.912,18.943 C77.024,18.883 79.21,18.989 81.152,19.914 C83.887,21.083 85.792,23.702 86.517,26.552 C87.351,29.871 87.325,33.526 85.966,36.703 C84.83,39.468 82.326,41.529 79.492,42.343 C76.442,43.352 73.197,42.948 70.048,43.031 C70.04,48.375 70.042,53.719 70.046,59.063 C67.358,59.07 64.669,59.066 61.979,59.066 C61.979,45.691 61.988,32.32 61.975,18.948 M70.044,24.888 C70.038,28.951 70.05,33.015 70.04,37.078 C71.386,37.074 72.731,37.095 74.077,37.07 C75.581,37.039 77.115,36.357 77.955,35.068 C79.034,33.44 79.111,31.372 78.897,29.488 C78.717,27.988 78.071,26.4 76.686,25.648 C74.657,24.529 72.257,24.984 70.044,24.888 z" fill="#FFFFFF"/>
      <path d="M90.96,18.948 C95.818,18.941 100.677,18.941 105.535,18.948 C108.436,18.941 111.442,20.037 113.339,22.312 C115.399,24.74 116.097,28.055 116.045,31.178 C116.045,34.288 115.123,37.557 112.871,39.785 C110.674,41.972 107.533,42.887 104.51,43.018 C102.686,43.045 100.86,43.025 99.033,43.029 C99.023,48.375 99.029,53.719 99.029,59.066 C96.342,59.066 93.652,59.068 90.962,59.066 C90.965,45.691 90.971,32.32 90.96,18.948 M99.025,37.078 C100.435,37.068 101.847,37.107 103.257,37.06 C104.736,36.985 106.212,36.255 107.005,34.968 C108.079,33.232 108.119,31.061 107.821,29.098 C107.597,27.673 106.866,26.227 105.531,25.571 C103.518,24.552 101.195,24.981 99.031,24.888 C99.021,28.951 99.035,33.015 99.025,37.078 z" fill="#FFFFFF"/>
      <path d="M119.941,18.948 C127.391,18.937 134.839,18.946 142.289,18.943 C142.276,21.16 142.299,23.377 142.276,25.594 C137.522,25.588 132.766,25.59 128.012,25.592 C128.01,28.728 128.021,31.863 128.006,34.999 C132.493,35.007 136.982,34.995 141.471,35.005 C141.454,37.224 141.475,39.443 141.46,41.66 C136.976,41.658 132.493,41.656 128.01,41.662 C128.014,45.237 128.014,48.815 128.01,52.39 C130.663,52.444 133.311,52.382 135.965,52.411 C136.804,52.323 137.642,52.519 138.483,52.434 C139.442,52.365 140.407,52.371 141.365,52.43 C141.866,52.398 142.367,52.44 142.868,52.486 C142.862,54.676 142.862,56.865 142.868,59.057 C135.228,59.078 127.588,59.061 119.948,59.066 C119.946,45.694 119.956,32.32 119.941,18.948 z" fill="#FFFFFF"/>
      <path d="M147.268,18.95 C151.999,18.941 156.728,18.937 161.46,18.952 C164.661,18.991 168.031,20.087 170.137,22.623 C172.491,25.469 173.185,29.263 173.522,32.849 C173.775,36.726 173.806,40.626 173.475,44.502 C173.113,48.058 172.493,51.779 170.379,54.753 C168.913,56.824 166.599,58.163 164.147,58.67 C162.793,58.982 161.397,59.072 160.012,59.066 C155.766,59.066 151.519,59.068 147.272,59.066 C147.272,45.694 147.283,32.322 147.268,18.95 M155.352,24.888 C155.345,34.291 155.358,43.693 155.345,53.096 C157.37,53.015 159.447,53.328 161.426,52.784 C162.971,52.371 164.048,51 164.557,49.533 C165.454,46.992 165.46,44.26 165.621,41.599 C165.646,39.72 165.64,37.841 165.63,35.962 C165.481,33.553 165.456,31.082 164.652,28.78 C164.141,27.309 163.108,25.925 161.613,25.381 C159.615,24.619 157.437,24.969 155.352,24.888 z" fill="#FFFFFF"/>
    </g>
    <g>
      <path d="M282.709,18.47 C285.879,17.951 289.225,18.015 292.275,19.111 C294.992,20.116 297.124,22.384 298.147,25.091 C299.578,28.706 299.797,32.662 299.915,36.509 C299.965,40.64 299.992,44.805 299.278,48.889 C298.808,51.589 297.911,54.339 296.031,56.387 C294.159,58.448 291.408,59.458 288.699,59.729 C286.372,59.938 283.991,59.894 281.713,59.323 C279.454,58.744 277.322,57.471 275.945,55.548 C274.365,53.35 273.62,50.666 273.245,48.012 C272.74,44.509 272.721,40.963 272.746,37.432 C272.837,33.412 272.959,29.283 274.355,25.468 C275.23,23.028 276.895,20.822 279.229,19.636 C280.312,19.051 281.502,18.695 282.709,18.47 M282.326,26.32 C281.221,28.458 281.026,30.929 280.941,33.294 C280.695,37.036 280.806,40.799 280.877,44.547 L280.958,44.682 C280.989,46.989 281.212,49.38 282.208,51.491 C282.875,52.985 284.48,53.937 286.099,53.864 C287.569,53.989 289.165,53.487 290.041,52.229 C291.399,50.293 291.503,47.828 291.733,45.553 C291.89,41.103 291.9,36.642 291.714,32.192 C291.459,29.958 291.331,27.522 289.925,25.658 C289.045,24.478 287.513,24.03 286.099,24.145 C284.554,24.068 283.032,24.937 282.326,26.32 z" fill="#FFFFFF"/>
      <path d="M304.253,18.959 C306.951,18.932 309.651,18.949 312.351,18.951 C312.33,28.239 312.347,37.527 312.343,46.814 C312.374,48.622 312.434,50.56 313.409,52.143 C314.158,53.343 315.581,53.92 316.956,53.891 C318.256,53.929 319.649,53.522 320.465,52.439 C321.625,50.899 321.703,48.872 321.759,47.02 C321.759,37.663 321.772,28.308 321.753,18.951 C324.447,18.945 327.141,18.943 329.834,18.953 C329.826,27.127 329.832,35.3 329.83,43.476 C329.816,45.98 329.944,48.516 329.431,50.985 C328.898,53.618 327.47,56.125 325.24,57.658 C322.161,59.796 318.252,60.025 314.639,59.752 C312.183,59.481 309.661,58.754 307.796,57.05 C305.851,55.337 304.87,52.781 304.499,50.262 C304.164,47.524 304.276,44.763 304.259,42.013 C304.255,34.327 304.268,26.643 304.253,18.959 z" fill="#FFFFFF"/>
      <path d="M332.762,18.951 C341.272,18.945 349.784,18.943 358.294,18.951 C358.265,21.168 358.316,23.385 358.267,25.601 C355.362,25.581 352.457,25.606 349.552,25.589 C349.55,36.748 349.55,47.907 349.552,59.067 C346.866,59.071 344.179,59.069 341.493,59.069 C341.498,47.912 341.491,36.752 341.496,25.595 C338.591,25.595 335.688,25.589 332.785,25.599 C332.741,23.382 332.785,21.166 332.762,18.951 z" fill="#FFFFFF"/>
    </g>
  </g>
</svg>
