<svg xmlns="http://www.w3.org/2000/svg" width="480" height="164"><path fill="none" d="M0 0h480v164H0z"/><path d="M87.595 92.414c7.267-.615 14.616.363 21.591 2.456.035 5.71.03 11.424 0 17.133-3.475-.045-6.95.086-10.42-.086-.666-3.081-1.205-6.687-3.914-8.695-3.424-2.022-8.175-.63-10.445 2.512-2.607 3.515-3.505 7.949-4.05 12.205-.686 6.542-.701 13.219.555 19.7.671 3.036 1.665 6.163 3.808 8.498 2.411 2.623 6.632 2.875 9.709 1.392 3.152-2.032 3.439-6.188 4.357-9.482 3.47-.005 6.945 0 10.415 0 .01 5.911 0 11.827.005 17.738-7.878 1.967-16.038 3.258-24.168 2.482-6.375-.565-12.881-2.981-17.103-7.979-5.235-6.082-6.586-14.404-6.894-22.171-.303-9.063 1.382-18.726 7.247-25.929 4.676-5.815 11.928-9.204 19.307-9.774zM139.87 92.293c7.429-.257 14.924.676 22.035 2.895-.02 5.603.005 11.207-.02 16.81-3.47-.05-6.95.121-10.415-.111-.893-3.112-1.518-6.94-4.564-8.715-3.874-1.785-8.937-.878-11.731 2.431-2.658 3.172-3.808 7.308-4.459 11.322-.862 6.28-.792 12.7.126 18.969.671 3.788 1.629 7.797 4.323 10.687 1.719 1.917 4.69 2.29 6.99 1.316 1.679-.847 2.078-2.91 2.264-4.609.152-2.689.162-5.402-.075-8.085-.106-2.3-2.976-2.133-4.56-2.86.011-2.405 0-4.806.006-7.207 9.138.005 18.277 0 27.416 0-.01 2.411.02 4.827-.031 7.243-1.25.393-2.617.605-3.696 1.392-.596 1.008-.54 2.239-.606 3.374-.04 6.511.005 13.022-.025 19.533-3.223.646-6.435 1.352-9.658 1.992a258.816 258.816 0 0 0-2.577-2.743c-6.552 3.197-14.268 3.157-21.198 1.316-6.057-1.604-11.378-5.8-14.172-11.429-3.354-6.511-4.11-14.01-4.02-21.233.162-8.301 2.386-16.971 8.09-23.235 5.18-5.78 12.896-8.765 20.557-9.053zM4.494 92.924c18.867.015 37.735-.026 56.602.02-.025 6.783-.01 13.567-.01 20.345-3.434.01-6.874-.015-10.314.02-1.013-2.915-1.361-6.148-3.162-8.72-1.215-1.81-3.621-1.488-5.502-1.624-.005 14.268-.01 28.531.005 42.799.106 1.14-.106 2.502.681 3.44 1.382.822 3.071.781 4.609 1.064 0 2.506.006 5.013-.005 7.525-9.728-.016-19.452.01-29.181-.016.01-2.476.015-4.952-.005-7.429 1.372-.262 2.774-.428 4.1-.867 1.352-.429 1.049-2.128 1.196-3.218.065-14.429.08-28.863-.005-43.288-1.897.101-4.232-.186-5.508 1.564-1.79 2.582-2.244 5.795-3.092 8.76-3.469-.01-6.939-.005-10.409-.005-.005-6.788 0-13.582 0-20.37zM453.029 93.241c.791-.015 1.588-.025 2.39-.035.167.489.338.984.504 1.488 2.608.343 5.246.131 7.873.187 2.855-.061 5.725.156 8.569-.177.136-.499.283-.994.434-1.488.817-.01 1.639.046 2.471.046-.02 3.147 0 6.294-.015 9.441-.812 0-1.619-.04-2.421-.04a6.7 6.7 0 0 0-.655-1.493c-3.208-.212-6.431-.061-9.638-.076 3.459 1.347 6.959 2.592 10.439 3.899-.07 1.276.207 2.642-.166 3.863-3.283 1.266-6.652 2.31-9.966 3.495 3.137.066 6.284.111 9.421-.02.187-.51.363-1.024.54-1.538.812 0 1.624.005 2.446.005.005 2.466.015 4.932-.01 7.398-.812-.01-1.619-.015-2.421-.02-.197-.524-.393-1.039-.595-1.553-5.412-.091-10.828-.146-16.235.025a29.64 29.64 0 0 0-.545 1.538c-.812-.005-1.624-.005-2.431-.005-.005-2.98-.005-5.961.005-8.942 3.475-1.245 7.051-2.234 10.466-3.646-3.48-1.286-6.965-2.567-10.455-3.823a515.923 515.923 0 0 1-.005-8.529zM171.952 105.058c7.867.02 15.735-.025 23.603.02 4.973.142 10.319.893 14.293 4.156 3.314 2.683 4.706 7.111 4.524 11.267.061 5.251-2.37 10.612-6.839 13.517-4.922 3.313-11.116 3.475-16.84 3.293.03 3.636-.045 7.273.035 10.914.091.742.005 1.624.545 2.219 1.125.636 2.461.676 3.702.938.005 2.003.005 4.01.005 6.012-7.565-.005-15.13.005-22.701-.005.011-1.977 0-3.959.021-5.936 1.039-.353 2.234-.474 3.111-1.19.464-1.801.293-3.682.328-5.518-.045-10.394.091-20.789-.065-31.173.222-2.114-2.28-2.164-3.712-2.648-.015-1.957-.01-3.909-.01-5.866m18.771 24.189c2.81-.041 6.592-.005 7.934-3.037 1.185-3.258 1.205-7.055-.046-10.293-1.397-2.971-5.154-2.719-7.913-2.703.01 5.341-.035 10.687.025 16.033zM216.44 105.073c7.53-.015 15.06-.03 22.595.005-.021 1.942-.01 3.889-.021 5.831-1.129.378-2.395.519-3.358 1.255-.525 1.024-.384 2.204-.434 3.314.01 11.237 0 22.474.005 33.71 2.088-.05 4.191.122 6.269-.121 1.468-.166 2.431-1.477 2.991-2.733 1.003-2.305 1.513-4.781 1.992-7.237 2.844-.016 5.684 0 8.528-.011-.196 6.108-.645 12.201-.928 18.298-12.548-.015-25.101.071-37.649-.04.02-1.932.015-3.864.015-5.79 1.145-.368 2.406-.535 3.414-1.246.419-1.135.353-2.365.419-3.55-.005-10.42 0-20.84-.005-31.26-.111-1.165.111-2.466-.53-3.5-1.039-.524-2.178-.767-3.288-1.069-.02-1.957-.01-3.909-.015-5.856zM276.921 105.058c4.1.005 8.206 0 12.311 0 4.363 14.465 8.509 29.005 12.952 43.445.373 2.098 2.476 2.708 4.302 2.945.015 1.982.005 3.964.005 5.946-7.848-.015-15.69.025-23.538-.02.01-2.017.005-4.035 0-6.047 1.185-.277 2.648-.071 3.586-.989.146-2.718-.852-5.32-1.503-7.923-4.065.01-8.13.005-12.195.005-.777 2.396-1.871 4.807-1.71 7.384.268 1.699 2.446 1.155 3.657 1.402.005 2.058.005 4.12.005 6.183-6.37 0-12.74.015-19.11-.005.005-2.032 0-4.06 0-6.087 1.15-.207 2.522-.071 3.399-.999 1.236-1.236 1.836-2.92 2.467-4.504 5.119-13.582 10.248-27.159 15.372-40.736m2.713 17.935c-1.386 3.742-2.678 7.525-4.034 11.277 2.431 0 4.862 0 7.298.005-1.13-3.752-2.109-7.54-3.264-11.282zM298.613 105.063c7.621-.005 15.241 0 22.862-.005-.005 2.033 0 4.065-.01 6.103-.878.272-2.224-.111-2.734.766.142 1.821 1.075 3.435 1.776 5.084 1.437 3.062 2.683 6.214 4.246 9.22 1.725-3.47 3.516-6.915 5.16-10.425.489-1.322 1.23-2.87.691-4.267-.838-.242-1.72-.207-2.572-.272.005-2.058.01-4.121-.011-6.179 6.068-.065 12.14-.005 18.207-.03 0 1.972 0 3.949-.005 5.921-1.215.313-2.622.424-3.439 1.498-2.31 2.739-3.753 6.062-5.483 9.169-2.728 5.215-5.588 10.364-8.241 15.62-.131 3.994-.166 8.024.041 12.023.09 2.073 2.758 1.665 4.166 2.048.005 2.017 0 4.035.005 6.057-7.848-.015-15.701.035-23.548-.03.015-1.987.015-3.974-.005-5.956 1.361-.495 4.06-.061 4.156-2.078.232-4.015.156-8.06.065-12.079-1.861-4.292-3.989-8.468-5.951-12.71-2.002-4.04-3.662-8.271-6.052-12.104-.611-1.256-2.154-1.08-3.314-1.261-.02-2.038-.015-4.075-.01-6.113zM348.276 105.043c13.027.056 26.054-.025 39.082.04-.046 5.084-.01 10.163-.015 15.247-2.744.02-5.483-.005-8.221.01-1.07-2.391-1.392-5.714-4.045-6.925-2.683-.393-5.412-.136-8.115-.186.03 4.322-.061 8.649.05 12.976 1.438-.116 3.037.283 4.373-.342 1.18-1.271 1.271-3.153 1.76-4.751 2.522-.021 5.044-.016 7.565-.005.005 6.117-.015 12.23.01 18.343-2.521.055-5.043.015-7.56.035-.549-1.68-.595-3.747-2.012-4.968-1.357-.287-2.754-.141-4.121-.176-.146 4.962-.03 9.925-.065 14.893 2.38-.015 4.771.111 7.147-.066 1.265-.05 2.163-1.079 2.799-2.067 1.245-2.028 1.78-4.373 2.471-6.623 2.814.021 5.628.005 8.448.011a1244.42 1244.42 0 0 0-.863 16.845c-12.971.09-25.953.116-38.92-.015.055-2.235.035-4.469.03-6.703 1.155-.353 2.386-.57 3.43-1.211.413-1.17.343-2.441.388-3.661.035-10.243.101-20.482.141-30.72-.055-.973.026-2.007-.403-2.905-1.004-.686-2.25-.842-3.384-1.19-.005-1.962-.021-3.924.03-5.886zM390.162 105.043c7.908.056 15.821-.02 23.734.035 5.205.111 10.879.959 14.838 4.65 3.959 3.753 4.711 9.8 3.435 14.889-1.024 3.929-3.969 7.121-7.53 8.967 5.064 3.838 6.158 10.465 9.577 15.478.959 1.609 2.825 2.149 4.57 2.351v5.976c-5.573-.03-11.146.081-16.714-.055-3.485-4.776-5.654-10.319-8.145-15.64-.656-1.327-1.236-2.734-2.255-3.828-.676-.817-1.826-.661-2.749-.842-.025 3.575-.02 7.151-.01 10.727.051.863-.04 1.796.379 2.592 1.023.666 2.269.848 3.424 1.186 0 1.946-.01 3.888.01 5.835-7.535.065-15.065.015-22.599.025.005-1.942.01-3.883-.006-5.82 1.085-.338 2.225-.57 3.243-1.105.656-.741.434-1.835.53-2.738-.02-11.413.071-22.827-.045-34.235.171-2.098-2.305-2.063-3.717-2.557-.005-1.967-.016-3.929.03-5.891m18.741 8.171c.02 5.26-.025 10.52.026 15.78 2.335-.025 4.957.071 6.869-1.518 1.715-1.442 1.977-3.853 2.063-5.946.065-2.406-.157-5.2-2.083-6.899-1.892-1.629-4.55-1.407-6.875-1.417zM462.657 119.513c3.485-.182 7.328.318 10.006 2.764 2.688 2.486 3.212 6.496 2.607 9.94-.449 2.774-2.406 5.245-5.048 6.229-3.475 1.271-7.389 1.331-10.919.272-2.976-.867-5.432-3.308-6.169-6.339-.731-3.137-.474-6.748 1.529-9.386 1.886-2.421 5.048-3.314 7.994-3.48m-3.127 6.95c-1.377.327-3.011 1.013-3.294 2.572-.378 1.649 1.064 2.965 2.537 3.323 3.283.843 6.789.787 10.102.101 1.417-.322 3.127-1.19 3.167-2.864.222-1.72-1.467-2.779-2.915-3.117-3.142-.721-6.455-.661-9.597-.015zM453.664 140.161c1.957 0 3.924-.036 5.891.05-.01 1.15-.01 2.3.005 3.45-1.105.408-2.547.529-3.172 1.669-.389 1.201-.051 2.653 1.038 3.379 2.003 1.387 4.565 1.468 6.915 1.523 2.244-.045 4.69-.09 6.627-1.392 1.236-.827 1.402-2.713.585-3.883-.812-.797-2.047-.883-3.066-1.241-.01-1.185-.005-2.375.01-3.555 2.007.025 4.025-.071 6.037.04.973 3.561 1.468 7.485.272 11.05-.988 2.951-3.924 4.761-6.894 5.185-4.454.721-9.79.287-12.916-3.374-2.986-3.591-2.512-8.695-1.332-12.901zM443.713 150.106h6.678c.01 2.426.005 4.852.005 7.283-2.229.005-4.459.005-6.683 0-.005-2.431 0-4.857 0-7.283z" fill="#FFF"/><path d="M173.001 5.031c.07-2.501 2.37-4.64 4.867-4.574 39.676-.03 79.353 0 119.03-.015 2.668-.247 5.286 1.916 5.341 4.63.066 3.52-.005 7.045.025 10.566 15.852 3.959 31.719 7.857 47.565 11.847 2.487.585 4.771 3.061 3.939 5.749-.746 2.199-2.249 4.04-3.344 6.073 16.331 8.569 32.692 17.077 49.033 25.625 1.498.868 2.991 2.351 2.794 4.232-.081 1.821-1.745 2.885-3.036 3.893-11.06 8.443-22.091 16.921-33.141 25.379-.928.827-2.269.383-3.384.499 12.104-9.355 24.284-18.62 36.424-27.935.721-.605 1.634-1.322 1.463-2.396-.318-1.19-1.408-1.891-2.406-2.461-16.22-8.418-32.389-16.936-48.614-25.349-.686 1.125-1.362 2.255-2.038 3.385-2.274 3.913-4.65 7.772-6.919 11.69 4.937 6.612 4.731 16.573-.787 22.787 1.18-1.76 2.471-3.49 3.172-5.513 2.003-5.689 1.18-12.341-2.456-17.203-1.513 2.618-3.107 5.19-4.63 7.802-.736.984-.393 2.229-.459 3.359.076 1.589-.585 3.067-1.104 4.529.761-2.128 1.326-4.362.943-6.642-4.216 6.617-8.014 13.491-12.135 20.169 4.378.721 8.791-.752 12.594-2.845-3.732 2.35-8.251 3.465-12.644 3.016-1.533 2.532-3.082 5.054-4.499 7.651 10.955 3.001 23.563-1.826 29.696-11.398 6.557-9.557 5.704-23.346-1.896-32.087 4.206 4.782 6.622 11.197 6.309 17.587.272 6.642-2.638 13.078-6.98 17.99-6.758 7.278-17.546 10.717-27.189 7.943-1.216 1.952-2.371 3.944-3.546 5.916-.65 0-1.301-.005-1.947-.005 12.78-21.535 25.591-43.056 38.381-64.586.54-.968 1.115-2.164.6-3.268-.671-1.397-2.279-1.882-3.661-2.25-15.373-3.792-30.725-7.656-46.103-11.433 0 1.256.011 2.511.011 3.762-.011 9.411-.011 18.817-.006 28.223.006 10.108 0 20.215.006 30.322-.011 3.349-.011 6.697-.006 10.046.006 3.062.011 6.128-.005 9.189-.645 0-1.286-.005-1.926-.005.04-30.951.01-61.903.01-92.855.131-1.452-.469-3.112-2.007-3.53-1.972-.409-4.005-.162-6.002-.202H182.936c-2.002.035-4.024-.186-6.001.182-1.559.358-2.194 2.068-2.068 3.515.03 30.962-.02 61.929.025 92.89-.641.005-1.281.005-1.917.01 0-3.111.005-6.218-.005-9.33 0-2.032 0-4.07-.005-6.103.015-3.212.021-6.42-.005-9.633.01-2.032.031-4.065 0-6.097 0-.106-.005-.313-.005-.414.041-12.633.02-25.267.01-37.901-.005-.807-.015-1.614-.015-2.421.015-1.77.03-3.541.025-5.311 0-1.437 0-2.87-.005-4.307-14.656 3.813-29.307 7.661-43.963 11.474-1.493.429-3.233.999-3.909 2.532-.469 1.059.005 2.189.565 3.107 10.571 17.682 21.086 35.395 31.653 53.082-.853-.161-1.695-.323-2.542-.494-1.145-1.998-2.33-3.97-3.506-5.942-1.16-1.951-2.289-3.908-3.475-5.84-.116-.181-.342-.545-.458-.726-.913-1.518-1.781-3.067-2.739-4.559-.111-.187-.343-.555-.459-.742-1.271-2.194-2.537-4.398-3.858-6.566l-.449-.752c-1.614-2.638-3.097-5.351-4.771-7.948-.086-.137-.252-.414-.338-.55-.837-1.417-1.675-2.829-2.512-4.242-.928-1.659-1.931-3.278-2.885-4.917a82.37 82.37 0 0 0-2.294-3.687c-15.106 7.712-30.256 15.337-45.356 23.044-1.478.676-2.467 2.234-2.295 3.878-.01 1.685 1.755 2.431 2.844 3.394 6.855 5.331 13.825 10.511 20.553 15.993-1.428-.277-3.117-.04-4.303-1.044C91.851 80.764 85.184 75.67 78.577 70.5c-2.249-2.557-.973-6.954 2.002-8.387 15.171-7.726 30.372-15.397 45.543-23.124-1.135-2.35-3.455-4.448-3.062-7.268.389-2.577 2.926-4.06 5.266-4.604 14.878-3.884 29.751-7.787 44.634-11.646.056-3.48-.045-6.96.041-10.44z" fill="#211F1F"/><path d="M174.867 6.035c-.126-1.447.509-3.157 2.068-3.515 1.977-.368 3.999-.147 6.001-.182h109.398c1.997.04 4.03-.207 6.002.202 1.538.418 2.138 2.078 2.007 3.53 0 30.952.03 61.904-.01 92.855-9.23 0-18.459-.025-27.689.01-4.287 11.333-8.553 22.671-12.835 34.008-6.168-.035-12.337.056-18.5-.045.096-5.422-.045-10.843.076-16.26 1.266-.328 2.532-.671 3.798-1.004.05-5.563-.01-11.126.035-16.693-11.645-.036-23.286-.016-34.931-.006l.015 3.203c-4.705-2.401-10.052-3.223-15.292-3.213h-20.118c-.045-30.961.005-61.928-.025-92.89m4.72.121c-.02 21.268.021 42.537-.025 63.805 38.643.151 77.286.03 115.929.055.232-7.54.045-15.095.106-22.64-.076-13.673.116-27.345-.091-41.013-1.82-.051-3.636-.192-5.452-.121-7.797-.308-15.609-.051-23.417-.136h-51.418c-11.408.065-22.826-.127-34.235.1-.469-.035-.933-.05-1.397-.05z" fill="#3E4C89"/><path d="M179.587 6.156c.464 0 .928.015 1.397.05 16.16 6.688 32.304 13.426 48.453 20.144-6.511 4.711-13.163 9.225-19.67 13.945 11.797 8.367 23.523 16.83 35.33 25.177-5.296-7.404-11.03-14.49-16.361-21.873a10642.98 10642.98 0 0 0 41.139-15.216c-1.967-1.433-4.186-2.452-6.294-3.647-7.918-4.317-15.816-8.66-23.734-12.967 16.714-2.002 33.468-3.737 50.207-5.527 1.816-.071 3.632.07 5.452.121.207 13.668.015 27.34.091 41.013-.061 7.545.126 15.1-.106 22.64-38.643-.025-77.286.096-115.929-.055.046-21.268.005-42.537.025-63.805z" fill="#5775A9"/><path d="M180.984 6.206c11.409-.227 22.827-.035 34.235-.1h51.418c7.808.085 15.62-.172 23.417.136-16.739 1.79-33.493 3.525-50.207 5.527 7.918 4.307 15.816 8.65 23.734 12.967 2.108 1.195 4.327 2.214 6.294 3.647a10642.98 10642.98 0 0 1-41.139 15.216c5.331 7.383 11.065 14.469 16.361 21.873-11.807-8.347-23.533-16.81-35.33-25.177 6.507-4.72 13.159-9.234 19.67-13.945-16.149-6.718-32.293-13.456-48.453-20.144z" fill="#C7DDEA"/><path d="M129.007 28.892c14.656-3.813 29.307-7.661 43.963-11.474.005 1.437.005 2.87.005 4.307-1.094.232-2.188.459-3.278.696a61.65 61.65 0 0 0-4.1 1.059 61.222 61.222 0 0 1-4.564 1.16c-1.962.394-3.924.787-5.846 1.352-1.725.509-3.455 1.019-5.22 1.372-2.461.494-4.867 1.23-7.288 1.886-3.379.782-6.728 1.674-10.097 2.497-1.049.226-2.103.423-3.152.64 1.095 2.411 2.492 4.67 3.944 6.884 1.493 2.361 2.925 4.756 4.237 7.223 1.175 2.219 2.491 4.352 3.873 6.45a97.831 97.831 0 0 1 3.551 5.987 56.595 56.595 0 0 0 3.303 5.522 84.01 84.01 0 0 1 3.309 5.583 75.636 75.636 0 0 0 3.273 5.528 70.99 70.99 0 0 1 3.429 5.83c1.145 2.179 2.598 4.171 3.838 6.295.238.433.47.877.702 1.321-1.862-.459-3.707-.973-5.573-1.397-10.567-17.688-21.082-35.4-31.653-53.082-.56-.918-1.034-2.048-.565-3.107.676-1.533 2.416-2.103 3.909-2.532zM169.364 90.377c1.201-.263 2.401-.52 3.606-.772.01 3.112.005 6.219.005 9.33-1.644-.005-3.283-.01-4.922 0 .045-2.768-.055-5.532.086-8.296l1.225-.262z" fill="#F5EB4B"/><path d="M302.259 17.388c15.378 3.777 30.73 7.641 46.103 11.433 1.382.368 2.99.853 3.661 2.25.515 1.104-.06 2.3-.6 3.268-12.79 21.53-25.601 43.051-38.381 64.586-3.596 0-7.187-.005-10.783.005.016-3.061.011-6.127.005-9.189 3.021.525 5.967 1.907 9.033 1.876 8.655-13.597 16.977-27.431 25.52-41.109 3.642-6.047 7.52-11.953 11.061-18.06A35697.037 35697.037 0 0 0 302.27 21.15c0-1.251-.011-2.506-.011-3.762z" fill="#BA2E31"/><path d="M302.27 21.15c15.206 3.753 30.407 7.525 45.608 11.298-3.541 6.107-7.419 12.013-11.061 18.06-8.543 13.678-16.865 27.512-25.52 41.109-3.066.031-6.012-1.351-9.033-1.876-.005-3.349-.005-6.697.006-10.046 2.183-.681 4.599-1.226 6.243-2.946 1.907-2.002 1.07-5.2 2.84-7.293 1.699-2.309 4.423-3.419 6.824-4.826 1.8-1.095 3.51-2.905 3.585-5.114-.615-2.426-2.743-4.005-4.549-5.563-.418 1.856-.539 3.914-1.714 5.487-1.574 1.715-4.242 2.083-6.396 1.468-2.304-.797-2.582-4.191-.933-5.76 2.295-2.259 5.705-2.597 8.347-4.277 1.997-1.926 1.579-5.028 1.13-7.504-.968 1.094-1.962 2.279-3.409 2.723-3.919 1.357-8.11 1.74-11.974 3.283-.005-9.406-.005-18.812.006-28.223m6.39 9.356c-1.902.383-3.838 1.735-4.045 3.803-.384 2.355 1.457 4.261 1.679 6.521-.111 1.876-2.042 2.673-3.439 3.49 4.392.262 9.466-1.463 11.524-5.629.978-1.775.353-3.833-.641-5.442a66.664 66.664 0 0 0-1.013 2.336c-.878.287-1.836.812-2.754.363-1.039-.353-1.039-1.806-.318-2.467 1.034-.933 2.492-1.165 3.647-1.911.721-.716.479-1.861.665-2.779-1.689.802-3.48 1.342-5.305 1.715z" fill="#CB786A"/><path d="M169.697 22.421c1.09-.237 2.184-.464 3.278-.696.005 1.77-.01 3.541-.025 5.311-1.321-1.357-2.375-2.94-3.253-4.615z" fill="#B4BD46"/><path d="M165.597 23.48a61.65 61.65 0 0 1 4.1-1.059c.878 1.675 1.932 3.258 3.253 4.615 0 .807.01 1.614.015 2.421-.529.282-1.054.575-1.568.877a234.218 234.218 0 0 1-5.8-6.854zM129.43 32.387c1.049-.217 2.103-.414 3.152-.64 4.328 2.057 9.003 3.242 13.466 4.982-.257 1.473-.448 2.951-.721 4.424-.186.121-.57.363-.756.479-3.727-.817-7.434-1.74-11.197-2.361-1.452-2.214-2.849-4.473-3.944-6.884z" fill="#F3D63C"/><path d="M161.033 24.64a61.222 61.222 0 0 0 4.564-1.16c1.891 2.32 3.823 4.61 5.8 6.854a19.584 19.584 0 0 0-2.552 1.897c-2.608-2.532-5.245-5.024-7.812-7.591zM149.967 27.364c1.765-.353 3.495-.863 5.22-1.372 1.574.257 2.769 1.372 3.985 2.31a227.204 227.204 0 0 0 7.771 5.896 22.988 22.988 0 0 0-1.745 2.632c-2.274-1.331-4.478-2.779-6.748-4.12-2.854-1.74-5.744-3.43-8.483-5.346zM132.582 31.747c3.369-.823 6.718-1.715 10.097-2.497 4.176 2.35 8.64 4.136 12.917 6.284 2.779 1.367 5.674 2.502 8.377 4.025a23.42 23.42 0 0 0-.832 3.162c-2.27-.938-4.615-1.654-6.915-2.507-3.369-1.235-6.803-2.269-10.178-3.485-4.463-1.74-9.138-2.925-13.466-4.982zM133.374 39.271c3.763.621 7.47 1.544 11.197 2.361 2.799.691 5.628 1.256 8.453 1.841 3.278.691 6.501 1.613 9.809 2.153-.025 1.12.015 2.249.116 3.369-4.383-.338-8.765-.691-13.133-1.18-4.06-.509-8.145-.807-12.205-1.321-1.312-2.467-2.744-4.862-4.237-7.223zM141.484 52.944c4.095-.191 8.196-.318 12.291-.434 3.268.056 6.541.005 9.81-.171.282 1.084.63 2.159 1.028 3.208-3.359.842-6.798 1.26-10.213 1.84-3.116.53-6.259.944-9.365 1.544a97.831 97.831 0 0 0-3.551-5.987zM156.075 61.972c3.359-1.1 6.728-2.169 10.157-3.026a34.05 34.05 0 0 0 1.836 2.945c-3.213 1.71-6.511 3.248-9.759 4.877-2.229 1.075-4.463 2.139-6.662 3.268a84.01 84.01 0 0 0-3.309-5.583c2.552-.918 5.144-1.709 7.737-2.481zM160.311 71.691c3.263-2.436 6.698-4.625 10.107-6.849.812.867 1.69 1.674 2.537 2.516 0 .101.005.308.005.414-1.634 1.331-3.147 2.804-4.675 4.257a306.542 306.542 0 0 0-5.815 5.643 51.105 51.105 0 0 1-4.121 3.722 70.99 70.99 0 0 0-3.429-5.83c1.76-1.341 3.571-2.612 5.391-3.873zM170.777 76.386c.665-.893 1.412-1.715 2.183-2.517.026 3.213.02 6.421.005 9.633-1.432 2.164-2.542 4.514-3.601 6.875l-1.225.262c-1.74-.58-3.505-1.064-5.25-1.629-.232-.444-.464-.888-.702-1.321 2.109-2.386 3.803-5.094 5.811-7.561.983-1.205 1.871-2.481 2.779-3.742z" fill="#B4BD48"/><path d="M155.187 25.992c1.922-.565 3.884-.958 5.846-1.352 2.567 2.567 5.204 5.059 7.812 7.591a22.638 22.638 0 0 0-1.902 1.967 228.23 228.23 0 0 1-7.772-5.896c-1.215-.938-2.41-2.053-3.984-2.31z" fill="#F2D73D"/><path d="M142.679 29.25c2.421-.656 4.827-1.392 7.288-1.886 2.739 1.916 5.629 3.606 8.483 5.346l-.02.867c-.948.651-1.891 1.302-2.834 1.957-4.277-2.148-8.741-3.934-12.917-6.284z" fill="#F2D63C"/><path d="M308.66 30.506c1.825-.373 3.616-.913 5.305-1.715-.186.918.056 2.063-.665 2.779-1.155.746-2.613.978-3.647 1.911-.721.661-.721 2.114.318 2.467.918.449 1.876-.076 2.754-.363.322-.782.66-1.564 1.013-2.336.994 1.609 1.619 3.667.641 5.442-2.058 4.166-7.132 5.891-11.524 5.629 1.397-.817 3.328-1.614 3.439-3.49-.222-2.26-2.063-4.166-1.679-6.521.206-2.068 2.143-3.42 4.045-3.803zM314.238 46.09c1.447-.444 2.441-1.629 3.409-2.723.449 2.476.867 5.578-1.13 7.504-2.642 1.68-6.052 2.018-8.347 4.277-1.649 1.569-1.371 4.963.933 5.76 2.154.615 4.822.247 6.396-1.468 1.175-1.573 1.296-3.631 1.714-5.487 1.806 1.558 3.934 3.137 4.549 5.563-.075 2.209-1.785 4.019-3.585 5.114-2.401 1.407-5.125 2.517-6.824 4.826-1.77 2.093-.933 5.291-2.84 7.293-1.644 1.72-4.06 2.265-6.243 2.946-.006-10.107 0-20.215-.006-30.322 3.864-1.543 8.055-1.926 11.974-3.283z" fill="#D4AEA3"/><path d="M171.397 30.334a43.428 43.428 0 0 1 1.568-.877c.01 12.634.031 25.268-.01 37.901-.847-.842-1.725-1.649-2.537-2.516a37.8 37.8 0 0 1-2.35-2.951 34.05 34.05 0 0 1-1.836-2.945c-.595-1.11-1.15-2.234-1.619-3.399a31.246 31.246 0 0 1-1.028-3.208 31.274 31.274 0 0 1-.636-3.344 30.096 30.096 0 0 1-.116-3.369 31.09 31.09 0 0 1 .308-2.905 23.57 23.57 0 0 1 .832-3.162c.353-.933.761-1.846 1.225-2.729a22.988 22.988 0 0 1 1.745-2.632 22.638 22.638 0 0 1 1.902-1.967 19.584 19.584 0 0 1 2.552-1.897z" fill="#E2E0B9"/><path d="M158.45 32.71c2.27 1.341 4.474 2.789 6.748 4.12a24.523 24.523 0 0 0-1.225 2.729c-2.703-1.523-5.598-2.658-8.377-4.025.943-.655 1.886-1.306 2.834-1.957l.02-.867z" fill="#E1D740"/><path d="M146.048 36.729c3.375 1.216 6.809 2.25 10.178 3.485-.297.066-.888.202-1.18.268-.076.751-.151 1.503-.232 2.254-.343-.191-.686-.378-1.029-.57-.257.434-.509.868-.761 1.307-2.825-.585-5.654-1.15-8.453-1.841.186-.116.57-.358.756-.479.273-1.473.464-2.951.721-4.424zM162.47 77.672a306.542 306.542 0 0 1 5.815-5.643c1.125 1.26 1.881 2.784 2.492 4.357-.908 1.261-1.796 2.537-2.779 3.742-1.917-.64-3.833-1.331-5.528-2.456z" fill="#DDD640"/><path d="M155.046 40.482c.292-.066.883-.202 1.18-.268 2.3.853 4.645 1.569 6.915 2.507a31.09 31.09 0 0 0-.308 2.905c-3.308-.54-6.531-1.462-9.809-2.153.252-.439.504-.873.761-1.307.343.192.686.379 1.029.57.081-.751.156-1.503.232-2.254z" fill="#EFD73C"/><path d="M81.674 63.692c15.1-7.707 30.25-15.332 45.356-23.044a82.37 82.37 0 0 1 2.294 3.687c-7.035 3.818-14.434 6.91-21.525 10.616-7.702 3.622-15.347 7.354-22.973 11.121 9.749 8.161 20.093 15.6 29.817 23.795-3.959-.761-7.752-2.239-11.751-2.809l-.116-.101c-6.728-5.482-13.698-10.662-20.553-15.993-1.089-.963-2.854-1.709-2.844-3.394-.172-1.644.817-3.202 2.295-3.878z" fill="#5EA350"/><path d="M349.557 40.794c16.225 8.413 32.394 16.931 48.614 25.349.998.57 2.088 1.271 2.406 2.461.171 1.074-.742 1.791-1.463 2.396-12.14 9.315-24.32 18.58-36.424 27.935-1.982-.01-3.959 0-5.936-.025 2.86-2.461 5.971-4.589 8.998-6.834 8.932-6.723 17.954-13.329 26.896-20.037 1.191-.974 2.678-1.67 3.576-2.951-1.584-1.215-3.485-1.891-5.225-2.834-9.572-4.887-19.11-9.83-28.677-14.722-2.3-1.503-5.033-2.108-7.288-3.677-2.38-1.462-4.917-2.663-7.515-3.676.676-1.13 1.352-2.26 2.038-3.385z" fill="#D58D3B"/><path d="M129.324 44.335c.954 1.639 1.957 3.258 2.885 4.917l-.121 2.189a94.35 94.35 0 0 1-1.372-2.663c-3.807 0-7.595.419-11.363.923 1.66 2.436 3.596 4.66 5.715 6.703.62-.136 1.235-.282 1.856-.434-.323.495-.752.933-.938 1.498 2.678 2.956 6.168 5.028 9.506 7.162 1.438-.898 2.885-1.77 4.338-2.638l.449.752c-1.14.887-2.295 1.75-3.455 2.612 2.058 1.917 4.67 3.082 7.313 3.954.116.187.348.555.459.742-3.026.539-6.032 1.361-8.715 2.91.156.317.479.958.635 1.276-.645-.187-1.286-.379-1.926-.56-2.9 1.972-5.588 4.352-7.394 7.394.484.09 1.447.272 1.927.363-1.1.484-2.598.58-3.178 1.785-1.397 2.532-2.562 5.19-3.692 7.848a137.85 137.85 0 0 0-3.202 2.158c-1.135-1.074-2.34-2.078-3.682-2.88a60.423 60.423 0 0 1-.726-.479c-9.724-8.195-20.068-15.634-29.817-23.795 7.626-3.767 15.271-7.499 22.973-11.121 7.091-3.706 14.49-6.798 21.525-10.616z" fill="#86B54F"/><path d="M129.229 83.381c4.705-5.003 11.448-7.63 18.106-8.77.116.181.342.545.458.726-4.029.409-7.958 1.594-11.514 3.541-2.521 1.23-4.655 3.071-7.05 4.503zM147.945 81.631c.529-.807 1.024-1.649 1.321-2.572l.182 2.043c.605.02 1.21.045 1.82.075 1.176 1.972 2.361 3.944 3.506 5.942-8.251-1.286-16.795-1.629-24.935.539l.903-.524a15.654 15.654 0 0 1 1.482-4.06c.036 1.044.091 2.093.111 3.147a42.252 42.252 0 0 1 7.782-2.92c.263-.762.535-1.523.807-2.28.212.661.429 1.332.651 1.992 2.113-.479 4.352-.555 6.37-1.382z" fill="#86B54F"/><path d="M137.611 46.494c4.06.514 8.145.812 12.205 1.321.308.968.529 2.002 1.14 2.834.776.833 1.82 1.342 2.819 1.861-4.095.116-8.196.243-12.291.434-1.382-2.098-2.698-4.231-3.873-6.45z" fill="#F2D73C"/><path d="M149.816 47.815c4.368.489 8.75.842 13.133 1.18.146 1.125.368 2.239.636 3.344-3.269.176-6.542.227-9.81.171-.999-.519-2.043-1.028-2.819-1.861-.611-.832-.832-1.866-1.14-2.834z" fill="#E2D73F"/><path d="M119.353 49.701c3.768-.504 7.556-.923 11.363-.923a94.35 94.35 0 0 0 1.372 2.663l.121-2.189c.837 1.413 1.675 2.825 2.512 4.242-1.649-.429-3.319-.762-4.993-1.074a23.829 23.829 0 0 0 5.543 2.33l-.212-.706c1.674 2.597 3.157 5.31 4.771 7.948-1.453.868-2.9 1.74-4.338 2.638-3.338-2.134-6.828-4.206-9.506-7.162.186-.565.615-1.003.938-1.498-.621.152-1.236.298-1.856.434-2.119-2.043-4.055-4.267-5.715-6.703zM140.279 62.744c1.321 2.168 2.587 4.372 3.858 6.566-2.643-.872-5.255-2.037-7.313-3.954 1.16-.862 2.315-1.725 3.455-2.612zM135.881 72.962c2.683-1.549 5.689-2.371 8.715-2.91.958 1.492 1.826 3.041 2.739 4.559-6.658 1.14-13.401 3.767-18.106 8.77 2.395-1.432 4.529-3.273 7.05-4.503 3.556-1.947 7.485-3.132 11.514-3.541 1.186 1.932 2.315 3.889 3.475 5.84-.61-.03-1.215-.055-1.82-.075l-.182-2.043c-.297.923-.792 1.765-1.321 2.572-2.018.827-4.257.903-6.37 1.382-.222-.66-.439-1.331-.651-1.992a192.06 192.06 0 0 0-.807 2.28 42.252 42.252 0 0 0-7.782 2.92c-.02-1.054-.075-2.103-.111-3.147a15.654 15.654 0 0 0-1.482 4.06l-.903.524c-2.572 1.039-5.205 1.957-7.586 3.41 1.13-2.658 2.295-5.316 3.692-7.848.58-1.205 2.078-1.301 3.178-1.785-.48-.091-1.443-.273-1.927-.363 1.806-3.042 4.494-5.422 7.394-7.394.64.181 1.281.373 1.926.56-.156-.318-.479-.959-.635-1.276z" fill="#45663B"/><path d="M129.728 52.42c1.674.312 3.344.645 4.993 1.074.086.136.252.413.338.55l.212.706a23.829 23.829 0 0 1-5.543-2.33z" fill="#658C44"/><path d="M164.613 55.547c.469 1.165 1.024 2.289 1.619 3.399-3.429.857-6.798 1.926-10.157 3.026-.57-1.538-2.013-2.824-1.675-4.585 3.415-.58 6.854-.998 10.213-1.84z" fill="#DFD740"/><path d="M145.035 58.931c3.106-.6 6.249-1.014 9.365-1.544-.338 1.761 1.105 3.047 1.675 4.585-2.593.772-5.185 1.563-7.737 2.481a56.595 56.595 0 0 1-3.303-5.522z" fill="#F1D73C"/><path d="M158.309 66.768c3.248-1.629 6.546-3.167 9.759-4.877a37.8 37.8 0 0 0 2.35 2.951c-3.409 2.224-6.844 4.413-10.107 6.849a56.682 56.682 0 0 1-1.417-1.226c-.207-1.23-.373-2.466-.585-3.697z" fill="#E5D83F"/><path d="M151.647 70.036c2.199-1.129 4.433-2.193 6.662-3.268.212 1.231.378 2.467.585 3.697.464.414.933.822 1.417 1.226-1.82 1.261-3.631 2.532-5.391 3.873a75.636 75.636 0 0 1-3.273-5.528z" fill="#F0D73C"/><path d="M168.285 72.029c1.528-1.453 3.041-2.926 4.675-4.257.031 2.032.01 4.065 0 6.097-.771.802-1.518 1.624-2.183 2.517-.611-1.573-1.367-3.097-2.492-4.357z" fill="#ECD83D"/><path d="M158.349 81.394a51.105 51.105 0 0 0 4.121-3.722c1.695 1.125 3.611 1.816 5.528 2.456-2.008 2.467-3.702 5.175-5.81 7.561-1.241-2.124-2.694-4.116-3.839-6.295z" fill="#F0D83C"/><path d="M169.364 90.377c1.059-2.361 2.169-4.711 3.601-6.875.005 2.033.005 4.071.005 6.103-1.205.252-2.405.509-3.606.772z" fill="#F5D63C"/><path d="M65.55 98.416c5.23-5.86 12.699-9.517 20.481-10.359 9.356-1.1 18.772.615 27.684 3.424.005 3.173-.02 6.34.02 9.512 5.054-6.859 12.886-11.459 21.293-12.709 10.541-1.523 21.269.307 31.341 3.485.065 7.398-.041 14.797.045 22.196.262.091.777.282 1.034.378.02-4.589.005-9.174.01-13.758 9.179.005 18.358-.015 27.542.005 5.901.015 12.094 1.034 16.982 4.569-.021-1.523-.021-3.051-.021-4.574 10.531.01 21.062-.031 31.598.02-.041 4.574-.015 9.149-.021 13.723-1.276.363-2.552.716-3.833 1.074.056 9.855-.105 19.715.086 29.57.535-.459.923-1.034 1.069-1.725.883-2.829 1.337-5.759 1.977-8.649 5.654-.02 11.308 0 16.962-.015-.056 1.119-.121 2.244-.111 3.369 4.735-12.448 9.396-24.93 14.126-37.377 6.264.01 12.523.005 18.787 0 .494 1.659.974 3.323 1.473 4.983.086-1.655.06-3.314.055-4.973 39.753.01 79.51-.015 119.263.01 6.244 0 12.916 1.13 17.814 5.295 8.114 7.036 7.988 21.097.242 28.37 2.557 3.591 3.848 7.863 6.052 11.65.277.686 1.003.863 1.649 1.074.015-.342.04-1.033.05-1.376 3.016 0 6.037.015 9.058-.016.061-3.061.868-6.021 1.74-8.931-2.219-4.308-2.279-9.568-.398-14.006-.272.005-.817.005-1.089.005.045-5.548-.081-11.106.06-16.654l1.271-.484a25.432 25.432 0 0 0-1.321-.681c-.015-5.376-.015-10.757.005-16.134 3.465.056 6.94-.111 10.404.106.121.51.242 1.024.369 1.539 3.202.01 6.41-.006 9.612.01.076-.374.222-1.115.298-1.488 3.505-.303 7.046-.192 10.561-.066-.066 11.272.096 22.555-.081 33.822-.292.015-.877.04-1.17.055 1.599 3.571 1.907 7.696.908 11.474-.343 1.336-1.326 2.643-.706 4.06 1.231 4.706 1.982 9.84.318 14.53-1.317 3.823-4.726 6.708-8.599 7.707-5.145 1.316-10.889 1.059-15.575-1.619l.015 3.051c-11.665-.005-23.336-.015-35.001.005-.898-1.21-1.78-2.431-2.668-3.646-.02 1.21-.015 2.425-.02 3.641-68.41-.005-136.814-.01-205.219 0-.01-4.6-.005-9.199-.005-13.799 1.251-.343 2.507-.676 3.768-1.004.005-5.003.156-10.016-.081-15.014-4.322 6.844-12.659 9.784-20.451 9.769.005 1.68 0 3.364.02 5.049 1.427.222 2.855.484 4.277.746-.005 4.751 0 9.497 0 14.248-10.692-.005-21.379.01-32.066-.005.025-.58.06-1.15.106-1.715-5.246 1.362-10.597 2.265-15.892 3.414-.706-.751-1.397-1.508-2.088-2.264-6.996 2.254-14.631 2.143-21.677.182-5.598-1.589-10.672-4.983-14.177-9.644.015 2.497.01 4.993.005 7.49-11.545 2.925-23.831 5.296-35.602 2.209-7.913-1.987-14.752-7.722-17.945-15.246-3.802-8.937-4.216-18.984-3.071-28.516-3.248.005-6.491-.01-9.734.01-.242-.772-.484-1.533-.736-2.295-.056 10.037-.026 20.073-.015 30.11 1.765.262 3.53.509 5.295.751.015 5.306.01 10.612 0 15.917-12.709.005-25.424-.035-38.138.026-.066-5.266-.005-10.526-.031-15.792 1.771-.302 3.546-.59 5.316-.902.02-7.682.005-15.363.01-23.044-.03-2.249.157-4.519-.287-6.738-.111.651-.212 1.311-.313 1.972-6.153-.035-12.306-.01-18.459-.015.005-9.784 0-19.564.005-29.348 21.858 0 43.717-.005 65.57 0-.025 3.324.025 6.652-.025 9.976m22.045-6.002c-7.379.57-14.631 3.959-19.307 9.775-5.865 7.202-7.55 16.865-7.247 25.928.308 7.767 1.659 16.089 6.894 22.171 4.222 4.998 10.728 7.414 17.103 7.979 8.13.776 16.29-.515 24.168-2.482-.005-5.911.005-11.827-.005-17.738-3.47 0-6.945-.005-10.415 0-.918 3.294-1.205 7.45-4.357 9.482-3.077 1.483-7.298 1.231-9.709-1.392-2.143-2.335-3.137-5.462-3.808-8.498-1.256-6.481-1.241-13.158-.555-19.7.545-4.256 1.443-8.69 4.05-12.205 2.27-3.142 7.021-4.534 10.445-2.512 2.709 2.008 3.248 5.614 3.914 8.695 3.47.172 6.945.041 10.42.086.03-5.709.035-11.423 0-17.133-6.975-2.093-14.324-3.071-21.591-2.456m52.275-.121c-7.661.288-15.377 3.273-20.557 9.053-5.704 6.264-7.928 14.934-8.09 23.235-.09 7.223.666 14.722 4.02 21.233 2.794 5.629 8.115 9.825 14.172 11.429 6.93 1.841 14.646 1.881 21.198-1.316.862.907 1.725 1.82 2.577 2.743 3.223-.64 6.435-1.346 9.658-1.992.03-6.511-.015-13.022.025-19.533.066-1.135.01-2.366.606-3.374 1.079-.787 2.446-.999 3.696-1.392.051-2.416.021-4.832.031-7.243-9.139 0-18.278.005-27.416 0-.006 2.401.005 4.802-.006 7.207 1.584.727 4.454.56 4.56 2.86.237 2.683.227 5.396.075 8.085-.186 1.699-.585 3.762-2.264 4.609-2.3.974-5.271.601-6.99-1.316-2.694-2.89-3.652-6.899-4.323-10.687-.918-6.269-.988-12.689-.126-18.969.651-4.014 1.801-8.15 4.459-11.322 2.794-3.309 7.857-4.216 11.731-2.431 3.046 1.775 3.671 5.603 4.564 8.715 3.465.232 6.945.061 10.415.111.025-5.603 0-11.207.02-16.81-7.111-2.219-14.606-3.152-22.035-2.895m-135.376.631c0 6.788-.005 13.582 0 20.37 3.47 0 6.94-.005 10.409.005.848-2.965 1.302-6.178 3.092-8.76 1.276-1.75 3.611-1.463 5.508-1.564.085 14.425.07 28.859.005 43.288-.147 1.09.156 2.789-1.196 3.218-1.326.439-2.728.605-4.1.867.02 2.477.015 4.953.005 7.429 9.729.026 19.453 0 29.181.016.01-2.512.005-5.019.005-7.525-1.538-.283-3.227-.242-4.609-1.064-.787-.938-.575-2.3-.681-3.44-.015-14.268-.01-28.531-.005-42.799 1.881.136 4.287-.186 5.502 1.624 1.801 2.572 2.149 5.805 3.162 8.72 3.44-.035 6.88-.01 10.314-.02 0-6.778-.015-13.562.01-20.345-18.867-.046-37.735-.005-56.602-.02m448.535.317c-.016 2.845-.026 5.684.005 8.529 3.49 1.256 6.975 2.537 10.455 3.823-3.415 1.412-6.991 2.401-10.466 3.646-.01 2.981-.01 5.962-.005 8.942.807 0 1.619 0 2.431.005a29.64 29.64 0 0 1 .545-1.538c5.407-.171 10.823-.116 16.235-.025.202.514.398 1.029.595 1.553.802.005 1.609.01 2.421.02.025-2.466.015-4.932.01-7.398-.822 0-1.634-.005-2.446-.005-.177.514-.353 1.029-.54 1.538-3.137.131-6.284.086-9.421.02 3.314-1.185 6.683-2.229 9.966-3.495.373-1.221.096-2.587.166-3.863-3.48-1.307-6.98-2.552-10.44-3.899 3.208.015 6.431-.136 9.639.076a6.7 6.7 0 0 1 .655 1.493c.802 0 1.609.04 2.421.04.015-3.147-.005-6.294.015-9.441-.832 0-1.654-.056-2.471-.046-.151.494-.298.989-.434 1.488-2.844.333-5.714.116-8.569.177-2.627-.056-5.265.156-7.873-.187-.166-.504-.337-.999-.504-1.488-.802.01-1.599.02-2.39.035m-281.077 11.817c0 1.957-.005 3.909.01 5.866 1.432.484 3.934.534 3.712 2.648.156 10.384.02 20.779.065 31.173-.035 1.836.136 3.717-.328 5.518-.877.716-2.072.837-3.111 1.19-.021 1.977-.01 3.959-.021 5.936 7.571.01 15.136 0 22.701.005 0-2.002 0-4.009-.005-6.012-1.241-.262-2.577-.302-3.702-.938-.54-.595-.454-1.477-.545-2.219-.08-3.641-.005-7.278-.035-10.914 5.724.182 11.918.02 16.84-3.293 4.469-2.905 6.9-8.266 6.839-13.517.182-4.156-1.21-8.584-4.524-11.267-3.974-3.263-9.32-4.014-14.293-4.156-7.868-.045-15.736 0-23.603-.02m44.488.015c.005 1.947-.005 3.899.015 5.856 1.11.302 2.249.545 3.288 1.069.641 1.034.419 2.335.53 3.5.005 10.42 0 20.84.005 31.26-.066 1.185 0 2.415-.419 3.55-1.008.711-2.269.878-3.414 1.246 0 1.926.005 3.858-.015 5.79 12.548.111 25.101.025 37.649.04.283-6.097.732-12.19.928-18.298-2.844.011-5.684-.005-8.528.011-.479 2.456-.989 4.932-1.992 7.237-.56 1.256-1.523 2.567-2.991 2.733-2.078.243-4.181.071-6.269.121-.005-11.236.005-22.473-.005-33.71.05-1.11-.091-2.29.434-3.314.963-.736 2.229-.877 3.358-1.255.011-1.942 0-3.889.021-5.831-7.535-.035-15.065-.02-22.595-.005m60.481-.015c-5.124 13.577-10.253 27.154-15.372 40.736-.631 1.584-1.231 3.268-2.467 4.504-.877.928-2.249.792-3.399.999 0 2.027.005 4.055 0 6.087 6.37.02 12.74.005 19.11.005 0-2.063 0-4.125-.005-6.183-1.211-.247-3.39.297-3.657-1.402-.161-2.577.933-4.988 1.71-7.384 4.065 0 8.13.005 12.195-.005.651 2.603 1.649 5.205 1.503 7.923-.938.918-2.401.712-3.586.989.005 2.012.01 4.03 0 6.047 7.848.045 15.69.005 23.538.02 0-1.982.01-3.964-.005-5.946-1.826-.237-3.929-.847-4.302-2.945-4.444-14.44-8.589-28.98-12.952-43.445-4.105 0-8.211.005-12.311 0m21.692.005c-.005 2.038-.01 4.075.01 6.113 1.16.182 2.703.005 3.314 1.261 2.39 3.833 4.05 8.064 6.052 12.104 1.962 4.242 4.09 8.418 5.951 12.71.091 4.019.167 8.064-.065 12.079-.096 2.017-2.795 1.583-4.156 2.078.02 1.982.02 3.969.005 5.956 7.847.066 15.7.015 23.548.03-.005-2.022 0-4.04-.005-6.057-1.408-.383-4.076.025-4.166-2.048-.207-3.999-.172-8.029-.041-12.023 2.653-5.256 5.513-10.405 8.241-15.62 1.73-3.107 3.173-6.43 5.483-9.169.817-1.074 2.224-1.185 3.439-1.498.005-1.972.005-3.949.005-5.921-6.067.025-12.139-.035-18.207.03.021 2.058.016 4.121.01 6.179.853.065 1.735.03 2.573.272.539 1.397-.202 2.945-.691 4.267-1.644 3.51-3.435 6.955-5.16 10.425-1.563-3.006-2.809-6.158-4.246-9.22-.701-1.649-1.634-3.263-1.776-5.084.51-.877 1.856-.494 2.734-.766.01-2.038.005-4.07.01-6.103-7.621.005-15.241 0-22.862.005m49.663-.02c-.051 1.962-.035 3.924-.03 5.886 1.134.348 2.38.504 3.384 1.19.429.898.348 1.932.403 2.905-.04 10.238-.106 20.477-.141 30.72-.045 1.22.025 2.491-.388 3.661-1.044.641-2.275.858-3.43 1.211.005 2.234.025 4.468-.03 6.703 12.967.131 25.949.105 38.92.015.252-5.619.535-11.232.863-16.845-2.82-.006-5.634.01-8.448-.011-.691 2.25-1.226 4.595-2.471 6.622-.636.989-1.534 2.018-2.799 2.068-2.376.177-4.767.051-7.147.066.035-4.968-.081-9.931.065-14.893 1.367.035 2.764-.111 4.121.176 1.417 1.221 1.463 3.288 2.012 4.968 2.517-.02 5.039.02 7.56-.035-.025-6.113-.005-12.226-.01-18.343a596.156 596.156 0 0 0-7.565.005c-.489 1.598-.58 3.48-1.76 4.75-1.336.626-2.935.227-4.373.343-.111-4.327-.02-8.654-.05-12.976 2.703.05 5.432-.207 8.115.186 2.653 1.211 2.975 4.534 4.045 6.925 2.738-.015 5.477.01 8.221-.01.005-5.084-.031-10.163.015-15.247-13.028-.065-26.055.016-39.082-.04m41.886 0c-.046 1.962-.035 3.924-.03 5.891 1.412.494 3.888.459 3.717 2.557.116 11.408.025 22.822.045 34.235-.096.903.126 1.997-.53 2.738-1.018.535-2.158.767-3.243 1.105.016 1.937.011 3.878.006 5.82 7.534-.01 15.064.041 22.599-.025-.02-1.947-.01-3.889-.01-5.835-1.155-.338-2.401-.52-3.424-1.186-.419-.796-.328-1.729-.379-2.592-.01-3.576-.015-7.152.01-10.727.923.181 2.073.025 2.749.842 1.019 1.094 1.599 2.501 2.255 3.828 2.491 5.321 4.66 10.864 8.145 15.64 5.568.136 11.141.025 16.714.055v-5.976c-1.745-.202-3.611-.742-4.57-2.351-3.419-5.013-4.513-11.64-9.577-15.478 3.561-1.846 6.506-5.038 7.53-8.967 1.276-5.089.524-11.136-3.435-14.889-3.959-3.691-9.633-4.539-14.838-4.65-7.913-.055-15.826.021-23.734-.035m72.494 14.47c-2.945.166-6.107 1.059-7.993 3.48-2.003 2.637-2.26 6.249-1.529 9.386.737 3.031 3.193 5.472 6.169 6.339 3.53 1.059 7.444.999 10.919-.272 2.642-.984 4.599-3.455 5.048-6.229.605-3.444.081-7.454-2.607-9.94-2.678-2.446-6.521-2.946-10.007-2.764m-8.992 20.648c-1.18 4.206-1.654 9.31 1.331 12.901 3.127 3.661 8.463 4.095 12.917 3.374 2.97-.424 5.906-2.234 6.894-5.185 1.195-3.565.701-7.489-.272-11.05-2.013-.111-4.03-.015-6.037-.04-.015 1.18-.02 2.37-.01 3.555 1.019.358 2.254.444 3.066 1.241.817 1.17.651 3.056-.585 3.883-1.937 1.302-4.383 1.347-6.627 1.392-2.35-.055-4.912-.136-6.915-1.523-1.089-.726-1.427-2.178-1.039-3.379.626-1.14 2.068-1.261 3.173-1.669-.015-1.15-.015-2.3-.005-3.45-1.967-.086-3.934-.05-5.891-.05m-9.951 9.945c0 2.426-.005 4.852 0 7.283 2.224.005 4.454.005 6.683 0 0-2.431.005-4.857-.005-7.283h-6.678z" fill="#0D0D0B"/><path d="M190.723 129.247c-.06-5.346-.015-10.692-.025-16.033 2.759-.016 6.516-.268 7.913 2.703 1.251 3.238 1.231 7.035.046 10.293-1.342 3.032-5.124 2.996-7.934 3.037zM408.903 113.214c2.325.01 4.983-.212 6.875 1.417 1.926 1.699 2.148 4.493 2.083 6.899-.086 2.093-.348 4.504-2.063 5.946-1.912 1.589-4.534 1.493-6.869 1.518-.051-5.26-.006-10.52-.026-15.78zM279.634 122.993c1.155 3.742 2.134 7.53 3.264 11.282-2.436-.005-4.867-.005-7.298-.005 1.356-3.752 2.648-7.535 4.034-11.277zM459.53 126.463c3.142-.646 6.455-.706 9.597.015 1.448.338 3.137 1.397 2.915 3.117-.04 1.674-1.75 2.542-3.167 2.864-3.313.686-6.819.742-10.102-.101-1.473-.358-2.915-1.674-2.537-3.323.283-1.559 1.917-2.245 3.294-2.572z" fill="#0D0D0B"/><path d="M115.369 90.346c1.342.802 2.547 1.806 3.682 2.88a82.83 82.83 0 0 0-3.667 3.248c-.005-2.042-.005-4.085-.015-6.128z" fill="#5EA551"/><path d="M213.434 137.15c.257.176.434-.041.535-.651.055 1.826.131 3.652.121 5.482-2.92-.005-5.846-.02-8.771.021 1.427-.606 2.809-1.302 4.237-1.902 1.472-.07 2.945-.025 4.423.005-.046-1.008-.131-2.027-.545-2.955z" fill="#21201F"/><path d="M209.556 140.1c1.356-.898 2.708-1.81 3.878-2.95.414.928.499 1.947.545 2.955-1.478-.03-2.951-.075-4.423-.005z" fill="#414D88"/><path d="M347.519 44.179c2.598 1.013 5.135 2.214 7.515 3.676 2.255 1.569 4.988 2.174 7.288 3.677 9.567 4.892 19.105 9.835 28.677 14.722 1.74.943 3.641 1.619 5.225 2.834-.898 1.281-2.385 1.977-3.576 2.951-8.942 6.708-17.964 13.314-26.896 20.037-3.027 2.245-6.138 4.373-8.998 6.834-13.92.041-27.845-.015-41.765.02 27.88-46.979 30.256-50.838 32.53-54.751z" fill="#E9BE3B"/><path d="M341.064 55.056c3.187 3.53 3.916 8.443 4.066 13.011-.024 10.473-10.648 19.154-22.592 18.289l-.079-.009 1.166-1.963c9.663.369 18.848-6.419 19.505-16.322-.095-3.563-.658-8.414-3.138-11.206l.008-.013 1.064-1.787z" fill="#C99F3A"/><path d="M335.966 63.62c.404 1.148.398 2.402.438 3.602-.137 5.13-3.958 8.595-8.566 10.07l1.663-2.799c2.88-1.402 4.69-4.101 4.903-7.275l-.028-.924 1.59-2.674z" fill="#C99F3A"/><path d="M345.375 47.816c6.396 4.875 7.993 13.636 8.238 21.126-.035 14.814-15.106 27.13-32.065 25.901-3.392-.366-2.126-.114-3.842-.49l1.078-1.817 2.909.312c15.856 1.149 29.888-10.318 29.92-23.911-.044-5.665-1.094-11.484-4.43-16.206-.821-1.161-1.89-2.125-2.835-3.188l1.027-1.727z" fill="#C99F3A"/><path d="m354.271 47.414.763.441c2.141 1.242 1.145.748 2.952 1.554 3.575 5.991 4.421 13.007 4.644 19.85-.228 13.085-9.288 24.628-21.143 29.66-5.648.003-3.744.003-5.713.003 13.439-3.974 24.361-15.261 24.856-29.667-.184-7.522-1.327-15.853-6.359-21.841z" fill="#C99F3A"/></svg>